M48
; DRILL file {KiCad 5.1.5+dfsg1-2build2} date mar 16 nov 2021 17:13:50
; FORMAT={-:-/ absolute / metric / decimal}
; #@! TF.CreationDate,2021-11-16T17:13:50-05:00
; #@! TF.GenerationSoftware,Kicad,Pcbnew,5.1.5+dfsg1-2build2
; #@! TF.FileFunction,Plated,1,2,PTH
FMAT,2
METRIC
T1C0.400
T2C1.000
T3C1.200
%
G90
G05
T1
X118.935Y-118.351
X119.774Y-109.423
X120.231Y-112.217
X121.933Y-101.599
X124.409Y-100.8
X125.4Y-108.358
X128.943Y-108.229
X133.413Y-112.09
X134.353Y-111.303
X135.078Y-116.446
X136.207Y-100.625
X136.57Y-107.737
X138.659Y-112.725
X138.963Y-114.008
X139.281Y-106.375
T2
X114.3Y-105.778
X114.3Y-115.938
X116.84Y-105.778
X116.84Y-115.938
X119.38Y-105.778
X119.38Y-115.938
X121.92Y-105.778
X121.92Y-115.938
X124.46Y-105.778
X124.46Y-115.938
X127.0Y-105.778
X127.0Y-115.938
X129.54Y-105.778
X129.54Y-115.938
X111.481Y-107.086
X111.481Y-109.626
X111.481Y-112.166
X111.481Y-114.706
T3
X105.486Y-105.639
X105.486Y-109.139
X105.486Y-112.639
X105.486Y-116.139
T0
M30
