G04 #@! TF.GenerationSoftware,KiCad,Pcbnew,5.1.5+dfsg1-2build2*
G04 #@! TF.CreationDate,2021-11-16T16:54:19-05:00*
G04 #@! TF.ProjectId,056INCH_3DIGIT,30353649-4e43-4485-9f33-44494749542e,rev?*
G04 #@! TF.SameCoordinates,Original*
G04 #@! TF.FileFunction,Copper,L2,Bot*
G04 #@! TF.FilePolarity,Positive*
%FSLAX46Y46*%
G04 Gerber Fmt 4.6, Leading zero omitted, Abs format (unit mm)*
G04 Created by KiCad (PCBNEW 5.1.5+dfsg1-2build2) date 2021-11-16 16:54:19*
%MOMM*%
%LPD*%
G04 APERTURE LIST*
%ADD10O,1.700000X1.700000*%
%ADD11R,1.700000X1.700000*%
%ADD12C,0.100000*%
%ADD13C,2.400000*%
%ADD14R,2.400000X2.400000*%
%ADD15R,1.500000X0.600000*%
%ADD16C,1.500000*%
%ADD17R,1.500000X1.500000*%
%ADD18C,0.800000*%
%ADD19C,0.250000*%
%ADD20C,0.254000*%
G04 APERTURE END LIST*
D10*
X113499900Y-114769900D03*
X113499900Y-112229900D03*
X113499900Y-109689900D03*
D11*
X113499900Y-107149900D03*
G04 #@! TA.AperFunction,SMDPad,CuDef*
D12*
G36*
X123651805Y-107728104D02*
G01*
X123676073Y-107731704D01*
X123699872Y-107737665D01*
X123722971Y-107745930D01*
X123745150Y-107756420D01*
X123766193Y-107769032D01*
X123785899Y-107783647D01*
X123804077Y-107800123D01*
X123820553Y-107818301D01*
X123835168Y-107838007D01*
X123847780Y-107859050D01*
X123858270Y-107881229D01*
X123866535Y-107904328D01*
X123872496Y-107928127D01*
X123876096Y-107952395D01*
X123877300Y-107976899D01*
X123877300Y-108626901D01*
X123876096Y-108651405D01*
X123872496Y-108675673D01*
X123866535Y-108699472D01*
X123858270Y-108722571D01*
X123847780Y-108744750D01*
X123835168Y-108765793D01*
X123820553Y-108785499D01*
X123804077Y-108803677D01*
X123785899Y-108820153D01*
X123766193Y-108834768D01*
X123745150Y-108847380D01*
X123722971Y-108857870D01*
X123699872Y-108866135D01*
X123676073Y-108872096D01*
X123651805Y-108875696D01*
X123627301Y-108876900D01*
X122727299Y-108876900D01*
X122702795Y-108875696D01*
X122678527Y-108872096D01*
X122654728Y-108866135D01*
X122631629Y-108857870D01*
X122609450Y-108847380D01*
X122588407Y-108834768D01*
X122568701Y-108820153D01*
X122550523Y-108803677D01*
X122534047Y-108785499D01*
X122519432Y-108765793D01*
X122506820Y-108744750D01*
X122496330Y-108722571D01*
X122488065Y-108699472D01*
X122482104Y-108675673D01*
X122478504Y-108651405D01*
X122477300Y-108626901D01*
X122477300Y-107976899D01*
X122478504Y-107952395D01*
X122482104Y-107928127D01*
X122488065Y-107904328D01*
X122496330Y-107881229D01*
X122506820Y-107859050D01*
X122519432Y-107838007D01*
X122534047Y-107818301D01*
X122550523Y-107800123D01*
X122568701Y-107783647D01*
X122588407Y-107769032D01*
X122609450Y-107756420D01*
X122631629Y-107745930D01*
X122654728Y-107737665D01*
X122678527Y-107731704D01*
X122702795Y-107728104D01*
X122727299Y-107726900D01*
X123627301Y-107726900D01*
X123651805Y-107728104D01*
G37*
G04 #@! TD.AperFunction*
G04 #@! TA.AperFunction,SMDPad,CuDef*
G36*
X123651805Y-105678104D02*
G01*
X123676073Y-105681704D01*
X123699872Y-105687665D01*
X123722971Y-105695930D01*
X123745150Y-105706420D01*
X123766193Y-105719032D01*
X123785899Y-105733647D01*
X123804077Y-105750123D01*
X123820553Y-105768301D01*
X123835168Y-105788007D01*
X123847780Y-105809050D01*
X123858270Y-105831229D01*
X123866535Y-105854328D01*
X123872496Y-105878127D01*
X123876096Y-105902395D01*
X123877300Y-105926899D01*
X123877300Y-106576901D01*
X123876096Y-106601405D01*
X123872496Y-106625673D01*
X123866535Y-106649472D01*
X123858270Y-106672571D01*
X123847780Y-106694750D01*
X123835168Y-106715793D01*
X123820553Y-106735499D01*
X123804077Y-106753677D01*
X123785899Y-106770153D01*
X123766193Y-106784768D01*
X123745150Y-106797380D01*
X123722971Y-106807870D01*
X123699872Y-106816135D01*
X123676073Y-106822096D01*
X123651805Y-106825696D01*
X123627301Y-106826900D01*
X122727299Y-106826900D01*
X122702795Y-106825696D01*
X122678527Y-106822096D01*
X122654728Y-106816135D01*
X122631629Y-106807870D01*
X122609450Y-106797380D01*
X122588407Y-106784768D01*
X122568701Y-106770153D01*
X122550523Y-106753677D01*
X122534047Y-106735499D01*
X122519432Y-106715793D01*
X122506820Y-106694750D01*
X122496330Y-106672571D01*
X122488065Y-106649472D01*
X122482104Y-106625673D01*
X122478504Y-106601405D01*
X122477300Y-106576901D01*
X122477300Y-105926899D01*
X122478504Y-105902395D01*
X122482104Y-105878127D01*
X122488065Y-105854328D01*
X122496330Y-105831229D01*
X122506820Y-105809050D01*
X122519432Y-105788007D01*
X122534047Y-105768301D01*
X122550523Y-105750123D01*
X122568701Y-105733647D01*
X122588407Y-105719032D01*
X122609450Y-105706420D01*
X122631629Y-105695930D01*
X122654728Y-105687665D01*
X122678527Y-105681704D01*
X122702795Y-105678104D01*
X122727299Y-105676900D01*
X123627301Y-105676900D01*
X123651805Y-105678104D01*
G37*
G04 #@! TD.AperFunction*
G04 #@! TA.AperFunction,SMDPad,CuDef*
G36*
X121099105Y-107728104D02*
G01*
X121123373Y-107731704D01*
X121147172Y-107737665D01*
X121170271Y-107745930D01*
X121192450Y-107756420D01*
X121213493Y-107769032D01*
X121233199Y-107783647D01*
X121251377Y-107800123D01*
X121267853Y-107818301D01*
X121282468Y-107838007D01*
X121295080Y-107859050D01*
X121305570Y-107881229D01*
X121313835Y-107904328D01*
X121319796Y-107928127D01*
X121323396Y-107952395D01*
X121324600Y-107976899D01*
X121324600Y-108626901D01*
X121323396Y-108651405D01*
X121319796Y-108675673D01*
X121313835Y-108699472D01*
X121305570Y-108722571D01*
X121295080Y-108744750D01*
X121282468Y-108765793D01*
X121267853Y-108785499D01*
X121251377Y-108803677D01*
X121233199Y-108820153D01*
X121213493Y-108834768D01*
X121192450Y-108847380D01*
X121170271Y-108857870D01*
X121147172Y-108866135D01*
X121123373Y-108872096D01*
X121099105Y-108875696D01*
X121074601Y-108876900D01*
X120174599Y-108876900D01*
X120150095Y-108875696D01*
X120125827Y-108872096D01*
X120102028Y-108866135D01*
X120078929Y-108857870D01*
X120056750Y-108847380D01*
X120035707Y-108834768D01*
X120016001Y-108820153D01*
X119997823Y-108803677D01*
X119981347Y-108785499D01*
X119966732Y-108765793D01*
X119954120Y-108744750D01*
X119943630Y-108722571D01*
X119935365Y-108699472D01*
X119929404Y-108675673D01*
X119925804Y-108651405D01*
X119924600Y-108626901D01*
X119924600Y-107976899D01*
X119925804Y-107952395D01*
X119929404Y-107928127D01*
X119935365Y-107904328D01*
X119943630Y-107881229D01*
X119954120Y-107859050D01*
X119966732Y-107838007D01*
X119981347Y-107818301D01*
X119997823Y-107800123D01*
X120016001Y-107783647D01*
X120035707Y-107769032D01*
X120056750Y-107756420D01*
X120078929Y-107745930D01*
X120102028Y-107737665D01*
X120125827Y-107731704D01*
X120150095Y-107728104D01*
X120174599Y-107726900D01*
X121074601Y-107726900D01*
X121099105Y-107728104D01*
G37*
G04 #@! TD.AperFunction*
G04 #@! TA.AperFunction,SMDPad,CuDef*
G36*
X121099105Y-105678104D02*
G01*
X121123373Y-105681704D01*
X121147172Y-105687665D01*
X121170271Y-105695930D01*
X121192450Y-105706420D01*
X121213493Y-105719032D01*
X121233199Y-105733647D01*
X121251377Y-105750123D01*
X121267853Y-105768301D01*
X121282468Y-105788007D01*
X121295080Y-105809050D01*
X121305570Y-105831229D01*
X121313835Y-105854328D01*
X121319796Y-105878127D01*
X121323396Y-105902395D01*
X121324600Y-105926899D01*
X121324600Y-106576901D01*
X121323396Y-106601405D01*
X121319796Y-106625673D01*
X121313835Y-106649472D01*
X121305570Y-106672571D01*
X121295080Y-106694750D01*
X121282468Y-106715793D01*
X121267853Y-106735499D01*
X121251377Y-106753677D01*
X121233199Y-106770153D01*
X121213493Y-106784768D01*
X121192450Y-106797380D01*
X121170271Y-106807870D01*
X121147172Y-106816135D01*
X121123373Y-106822096D01*
X121099105Y-106825696D01*
X121074601Y-106826900D01*
X120174599Y-106826900D01*
X120150095Y-106825696D01*
X120125827Y-106822096D01*
X120102028Y-106816135D01*
X120078929Y-106807870D01*
X120056750Y-106797380D01*
X120035707Y-106784768D01*
X120016001Y-106770153D01*
X119997823Y-106753677D01*
X119981347Y-106735499D01*
X119966732Y-106715793D01*
X119954120Y-106694750D01*
X119943630Y-106672571D01*
X119935365Y-106649472D01*
X119929404Y-106625673D01*
X119925804Y-106601405D01*
X119924600Y-106576901D01*
X119924600Y-105926899D01*
X119925804Y-105902395D01*
X119929404Y-105878127D01*
X119935365Y-105854328D01*
X119943630Y-105831229D01*
X119954120Y-105809050D01*
X119966732Y-105788007D01*
X119981347Y-105768301D01*
X119997823Y-105750123D01*
X120016001Y-105733647D01*
X120035707Y-105719032D01*
X120056750Y-105706420D01*
X120078929Y-105695930D01*
X120102028Y-105687665D01*
X120125827Y-105681704D01*
X120150095Y-105678104D01*
X120174599Y-105676900D01*
X121074601Y-105676900D01*
X121099105Y-105678104D01*
G37*
G04 #@! TD.AperFunction*
G04 #@! TA.AperFunction,SMDPad,CuDef*
G36*
X123715305Y-112795404D02*
G01*
X123739573Y-112799004D01*
X123763372Y-112804965D01*
X123786471Y-112813230D01*
X123808650Y-112823720D01*
X123829693Y-112836332D01*
X123849399Y-112850947D01*
X123867577Y-112867423D01*
X123884053Y-112885601D01*
X123898668Y-112905307D01*
X123911280Y-112926350D01*
X123921770Y-112948529D01*
X123930035Y-112971628D01*
X123935996Y-112995427D01*
X123939596Y-113019695D01*
X123940800Y-113044199D01*
X123940800Y-113694201D01*
X123939596Y-113718705D01*
X123935996Y-113742973D01*
X123930035Y-113766772D01*
X123921770Y-113789871D01*
X123911280Y-113812050D01*
X123898668Y-113833093D01*
X123884053Y-113852799D01*
X123867577Y-113870977D01*
X123849399Y-113887453D01*
X123829693Y-113902068D01*
X123808650Y-113914680D01*
X123786471Y-113925170D01*
X123763372Y-113933435D01*
X123739573Y-113939396D01*
X123715305Y-113942996D01*
X123690801Y-113944200D01*
X122790799Y-113944200D01*
X122766295Y-113942996D01*
X122742027Y-113939396D01*
X122718228Y-113933435D01*
X122695129Y-113925170D01*
X122672950Y-113914680D01*
X122651907Y-113902068D01*
X122632201Y-113887453D01*
X122614023Y-113870977D01*
X122597547Y-113852799D01*
X122582932Y-113833093D01*
X122570320Y-113812050D01*
X122559830Y-113789871D01*
X122551565Y-113766772D01*
X122545604Y-113742973D01*
X122542004Y-113718705D01*
X122540800Y-113694201D01*
X122540800Y-113044199D01*
X122542004Y-113019695D01*
X122545604Y-112995427D01*
X122551565Y-112971628D01*
X122559830Y-112948529D01*
X122570320Y-112926350D01*
X122582932Y-112905307D01*
X122597547Y-112885601D01*
X122614023Y-112867423D01*
X122632201Y-112850947D01*
X122651907Y-112836332D01*
X122672950Y-112823720D01*
X122695129Y-112813230D01*
X122718228Y-112804965D01*
X122742027Y-112799004D01*
X122766295Y-112795404D01*
X122790799Y-112794200D01*
X123690801Y-112794200D01*
X123715305Y-112795404D01*
G37*
G04 #@! TD.AperFunction*
G04 #@! TA.AperFunction,SMDPad,CuDef*
G36*
X123715305Y-110745404D02*
G01*
X123739573Y-110749004D01*
X123763372Y-110754965D01*
X123786471Y-110763230D01*
X123808650Y-110773720D01*
X123829693Y-110786332D01*
X123849399Y-110800947D01*
X123867577Y-110817423D01*
X123884053Y-110835601D01*
X123898668Y-110855307D01*
X123911280Y-110876350D01*
X123921770Y-110898529D01*
X123930035Y-110921628D01*
X123935996Y-110945427D01*
X123939596Y-110969695D01*
X123940800Y-110994199D01*
X123940800Y-111644201D01*
X123939596Y-111668705D01*
X123935996Y-111692973D01*
X123930035Y-111716772D01*
X123921770Y-111739871D01*
X123911280Y-111762050D01*
X123898668Y-111783093D01*
X123884053Y-111802799D01*
X123867577Y-111820977D01*
X123849399Y-111837453D01*
X123829693Y-111852068D01*
X123808650Y-111864680D01*
X123786471Y-111875170D01*
X123763372Y-111883435D01*
X123739573Y-111889396D01*
X123715305Y-111892996D01*
X123690801Y-111894200D01*
X122790799Y-111894200D01*
X122766295Y-111892996D01*
X122742027Y-111889396D01*
X122718228Y-111883435D01*
X122695129Y-111875170D01*
X122672950Y-111864680D01*
X122651907Y-111852068D01*
X122632201Y-111837453D01*
X122614023Y-111820977D01*
X122597547Y-111802799D01*
X122582932Y-111783093D01*
X122570320Y-111762050D01*
X122559830Y-111739871D01*
X122551565Y-111716772D01*
X122545604Y-111692973D01*
X122542004Y-111668705D01*
X122540800Y-111644201D01*
X122540800Y-110994199D01*
X122542004Y-110969695D01*
X122545604Y-110945427D01*
X122551565Y-110921628D01*
X122559830Y-110898529D01*
X122570320Y-110876350D01*
X122582932Y-110855307D01*
X122597547Y-110835601D01*
X122614023Y-110817423D01*
X122632201Y-110800947D01*
X122651907Y-110786332D01*
X122672950Y-110773720D01*
X122695129Y-110763230D01*
X122718228Y-110754965D01*
X122742027Y-110749004D01*
X122766295Y-110745404D01*
X122790799Y-110744200D01*
X123690801Y-110744200D01*
X123715305Y-110745404D01*
G37*
G04 #@! TD.AperFunction*
G04 #@! TA.AperFunction,SMDPad,CuDef*
G36*
X121086405Y-112770004D02*
G01*
X121110673Y-112773604D01*
X121134472Y-112779565D01*
X121157571Y-112787830D01*
X121179750Y-112798320D01*
X121200793Y-112810932D01*
X121220499Y-112825547D01*
X121238677Y-112842023D01*
X121255153Y-112860201D01*
X121269768Y-112879907D01*
X121282380Y-112900950D01*
X121292870Y-112923129D01*
X121301135Y-112946228D01*
X121307096Y-112970027D01*
X121310696Y-112994295D01*
X121311900Y-113018799D01*
X121311900Y-113668801D01*
X121310696Y-113693305D01*
X121307096Y-113717573D01*
X121301135Y-113741372D01*
X121292870Y-113764471D01*
X121282380Y-113786650D01*
X121269768Y-113807693D01*
X121255153Y-113827399D01*
X121238677Y-113845577D01*
X121220499Y-113862053D01*
X121200793Y-113876668D01*
X121179750Y-113889280D01*
X121157571Y-113899770D01*
X121134472Y-113908035D01*
X121110673Y-113913996D01*
X121086405Y-113917596D01*
X121061901Y-113918800D01*
X120161899Y-113918800D01*
X120137395Y-113917596D01*
X120113127Y-113913996D01*
X120089328Y-113908035D01*
X120066229Y-113899770D01*
X120044050Y-113889280D01*
X120023007Y-113876668D01*
X120003301Y-113862053D01*
X119985123Y-113845577D01*
X119968647Y-113827399D01*
X119954032Y-113807693D01*
X119941420Y-113786650D01*
X119930930Y-113764471D01*
X119922665Y-113741372D01*
X119916704Y-113717573D01*
X119913104Y-113693305D01*
X119911900Y-113668801D01*
X119911900Y-113018799D01*
X119913104Y-112994295D01*
X119916704Y-112970027D01*
X119922665Y-112946228D01*
X119930930Y-112923129D01*
X119941420Y-112900950D01*
X119954032Y-112879907D01*
X119968647Y-112860201D01*
X119985123Y-112842023D01*
X120003301Y-112825547D01*
X120023007Y-112810932D01*
X120044050Y-112798320D01*
X120066229Y-112787830D01*
X120089328Y-112779565D01*
X120113127Y-112773604D01*
X120137395Y-112770004D01*
X120161899Y-112768800D01*
X121061901Y-112768800D01*
X121086405Y-112770004D01*
G37*
G04 #@! TD.AperFunction*
G04 #@! TA.AperFunction,SMDPad,CuDef*
G36*
X121086405Y-110720004D02*
G01*
X121110673Y-110723604D01*
X121134472Y-110729565D01*
X121157571Y-110737830D01*
X121179750Y-110748320D01*
X121200793Y-110760932D01*
X121220499Y-110775547D01*
X121238677Y-110792023D01*
X121255153Y-110810201D01*
X121269768Y-110829907D01*
X121282380Y-110850950D01*
X121292870Y-110873129D01*
X121301135Y-110896228D01*
X121307096Y-110920027D01*
X121310696Y-110944295D01*
X121311900Y-110968799D01*
X121311900Y-111618801D01*
X121310696Y-111643305D01*
X121307096Y-111667573D01*
X121301135Y-111691372D01*
X121292870Y-111714471D01*
X121282380Y-111736650D01*
X121269768Y-111757693D01*
X121255153Y-111777399D01*
X121238677Y-111795577D01*
X121220499Y-111812053D01*
X121200793Y-111826668D01*
X121179750Y-111839280D01*
X121157571Y-111849770D01*
X121134472Y-111858035D01*
X121110673Y-111863996D01*
X121086405Y-111867596D01*
X121061901Y-111868800D01*
X120161899Y-111868800D01*
X120137395Y-111867596D01*
X120113127Y-111863996D01*
X120089328Y-111858035D01*
X120066229Y-111849770D01*
X120044050Y-111839280D01*
X120023007Y-111826668D01*
X120003301Y-111812053D01*
X119985123Y-111795577D01*
X119968647Y-111777399D01*
X119954032Y-111757693D01*
X119941420Y-111736650D01*
X119930930Y-111714471D01*
X119922665Y-111691372D01*
X119916704Y-111667573D01*
X119913104Y-111643305D01*
X119911900Y-111618801D01*
X119911900Y-110968799D01*
X119913104Y-110944295D01*
X119916704Y-110920027D01*
X119922665Y-110896228D01*
X119930930Y-110873129D01*
X119941420Y-110850950D01*
X119954032Y-110829907D01*
X119968647Y-110810201D01*
X119985123Y-110792023D01*
X120003301Y-110775547D01*
X120023007Y-110760932D01*
X120044050Y-110748320D01*
X120066229Y-110737830D01*
X120089328Y-110729565D01*
X120113127Y-110723604D01*
X120137395Y-110720004D01*
X120161899Y-110718800D01*
X121061901Y-110718800D01*
X121086405Y-110720004D01*
G37*
G04 #@! TD.AperFunction*
G04 #@! TA.AperFunction,SMDPad,CuDef*
G36*
X133157105Y-117919204D02*
G01*
X133181373Y-117922804D01*
X133205172Y-117928765D01*
X133228271Y-117937030D01*
X133250450Y-117947520D01*
X133271493Y-117960132D01*
X133291199Y-117974747D01*
X133309377Y-117991223D01*
X133325853Y-118009401D01*
X133340468Y-118029107D01*
X133353080Y-118050150D01*
X133363570Y-118072329D01*
X133371835Y-118095428D01*
X133377796Y-118119227D01*
X133381396Y-118143495D01*
X133382600Y-118167999D01*
X133382600Y-119068001D01*
X133381396Y-119092505D01*
X133377796Y-119116773D01*
X133371835Y-119140572D01*
X133363570Y-119163671D01*
X133353080Y-119185850D01*
X133340468Y-119206893D01*
X133325853Y-119226599D01*
X133309377Y-119244777D01*
X133291199Y-119261253D01*
X133271493Y-119275868D01*
X133250450Y-119288480D01*
X133228271Y-119298970D01*
X133205172Y-119307235D01*
X133181373Y-119313196D01*
X133157105Y-119316796D01*
X133132601Y-119318000D01*
X132482599Y-119318000D01*
X132458095Y-119316796D01*
X132433827Y-119313196D01*
X132410028Y-119307235D01*
X132386929Y-119298970D01*
X132364750Y-119288480D01*
X132343707Y-119275868D01*
X132324001Y-119261253D01*
X132305823Y-119244777D01*
X132289347Y-119226599D01*
X132274732Y-119206893D01*
X132262120Y-119185850D01*
X132251630Y-119163671D01*
X132243365Y-119140572D01*
X132237404Y-119116773D01*
X132233804Y-119092505D01*
X132232600Y-119068001D01*
X132232600Y-118167999D01*
X132233804Y-118143495D01*
X132237404Y-118119227D01*
X132243365Y-118095428D01*
X132251630Y-118072329D01*
X132262120Y-118050150D01*
X132274732Y-118029107D01*
X132289347Y-118009401D01*
X132305823Y-117991223D01*
X132324001Y-117974747D01*
X132343707Y-117960132D01*
X132364750Y-117947520D01*
X132386929Y-117937030D01*
X132410028Y-117928765D01*
X132433827Y-117922804D01*
X132458095Y-117919204D01*
X132482599Y-117918000D01*
X133132601Y-117918000D01*
X133157105Y-117919204D01*
G37*
G04 #@! TD.AperFunction*
G04 #@! TA.AperFunction,SMDPad,CuDef*
G36*
X135207105Y-117919204D02*
G01*
X135231373Y-117922804D01*
X135255172Y-117928765D01*
X135278271Y-117937030D01*
X135300450Y-117947520D01*
X135321493Y-117960132D01*
X135341199Y-117974747D01*
X135359377Y-117991223D01*
X135375853Y-118009401D01*
X135390468Y-118029107D01*
X135403080Y-118050150D01*
X135413570Y-118072329D01*
X135421835Y-118095428D01*
X135427796Y-118119227D01*
X135431396Y-118143495D01*
X135432600Y-118167999D01*
X135432600Y-119068001D01*
X135431396Y-119092505D01*
X135427796Y-119116773D01*
X135421835Y-119140572D01*
X135413570Y-119163671D01*
X135403080Y-119185850D01*
X135390468Y-119206893D01*
X135375853Y-119226599D01*
X135359377Y-119244777D01*
X135341199Y-119261253D01*
X135321493Y-119275868D01*
X135300450Y-119288480D01*
X135278271Y-119298970D01*
X135255172Y-119307235D01*
X135231373Y-119313196D01*
X135207105Y-119316796D01*
X135182601Y-119318000D01*
X134532599Y-119318000D01*
X134508095Y-119316796D01*
X134483827Y-119313196D01*
X134460028Y-119307235D01*
X134436929Y-119298970D01*
X134414750Y-119288480D01*
X134393707Y-119275868D01*
X134374001Y-119261253D01*
X134355823Y-119244777D01*
X134339347Y-119226599D01*
X134324732Y-119206893D01*
X134312120Y-119185850D01*
X134301630Y-119163671D01*
X134293365Y-119140572D01*
X134287404Y-119116773D01*
X134283804Y-119092505D01*
X134282600Y-119068001D01*
X134282600Y-118167999D01*
X134283804Y-118143495D01*
X134287404Y-118119227D01*
X134293365Y-118095428D01*
X134301630Y-118072329D01*
X134312120Y-118050150D01*
X134324732Y-118029107D01*
X134339347Y-118009401D01*
X134355823Y-117991223D01*
X134374001Y-117974747D01*
X134393707Y-117960132D01*
X134414750Y-117947520D01*
X134436929Y-117937030D01*
X134460028Y-117928765D01*
X134483827Y-117922804D01*
X134508095Y-117919204D01*
X134532599Y-117918000D01*
X135182601Y-117918000D01*
X135207105Y-117919204D01*
G37*
G04 #@! TD.AperFunction*
G04 #@! TA.AperFunction,SMDPad,CuDef*
G36*
X137335405Y-117944604D02*
G01*
X137359673Y-117948204D01*
X137383472Y-117954165D01*
X137406571Y-117962430D01*
X137428750Y-117972920D01*
X137449793Y-117985532D01*
X137469499Y-118000147D01*
X137487677Y-118016623D01*
X137504153Y-118034801D01*
X137518768Y-118054507D01*
X137531380Y-118075550D01*
X137541870Y-118097729D01*
X137550135Y-118120828D01*
X137556096Y-118144627D01*
X137559696Y-118168895D01*
X137560900Y-118193399D01*
X137560900Y-119093401D01*
X137559696Y-119117905D01*
X137556096Y-119142173D01*
X137550135Y-119165972D01*
X137541870Y-119189071D01*
X137531380Y-119211250D01*
X137518768Y-119232293D01*
X137504153Y-119251999D01*
X137487677Y-119270177D01*
X137469499Y-119286653D01*
X137449793Y-119301268D01*
X137428750Y-119313880D01*
X137406571Y-119324370D01*
X137383472Y-119332635D01*
X137359673Y-119338596D01*
X137335405Y-119342196D01*
X137310901Y-119343400D01*
X136660899Y-119343400D01*
X136636395Y-119342196D01*
X136612127Y-119338596D01*
X136588328Y-119332635D01*
X136565229Y-119324370D01*
X136543050Y-119313880D01*
X136522007Y-119301268D01*
X136502301Y-119286653D01*
X136484123Y-119270177D01*
X136467647Y-119251999D01*
X136453032Y-119232293D01*
X136440420Y-119211250D01*
X136429930Y-119189071D01*
X136421665Y-119165972D01*
X136415704Y-119142173D01*
X136412104Y-119117905D01*
X136410900Y-119093401D01*
X136410900Y-118193399D01*
X136412104Y-118168895D01*
X136415704Y-118144627D01*
X136421665Y-118120828D01*
X136429930Y-118097729D01*
X136440420Y-118075550D01*
X136453032Y-118054507D01*
X136467647Y-118034801D01*
X136484123Y-118016623D01*
X136502301Y-118000147D01*
X136522007Y-117985532D01*
X136543050Y-117972920D01*
X136565229Y-117962430D01*
X136588328Y-117954165D01*
X136612127Y-117948204D01*
X136636395Y-117944604D01*
X136660899Y-117943400D01*
X137310901Y-117943400D01*
X137335405Y-117944604D01*
G37*
G04 #@! TD.AperFunction*
G04 #@! TA.AperFunction,SMDPad,CuDef*
G36*
X139385405Y-117944604D02*
G01*
X139409673Y-117948204D01*
X139433472Y-117954165D01*
X139456571Y-117962430D01*
X139478750Y-117972920D01*
X139499793Y-117985532D01*
X139519499Y-118000147D01*
X139537677Y-118016623D01*
X139554153Y-118034801D01*
X139568768Y-118054507D01*
X139581380Y-118075550D01*
X139591870Y-118097729D01*
X139600135Y-118120828D01*
X139606096Y-118144627D01*
X139609696Y-118168895D01*
X139610900Y-118193399D01*
X139610900Y-119093401D01*
X139609696Y-119117905D01*
X139606096Y-119142173D01*
X139600135Y-119165972D01*
X139591870Y-119189071D01*
X139581380Y-119211250D01*
X139568768Y-119232293D01*
X139554153Y-119251999D01*
X139537677Y-119270177D01*
X139519499Y-119286653D01*
X139499793Y-119301268D01*
X139478750Y-119313880D01*
X139456571Y-119324370D01*
X139433472Y-119332635D01*
X139409673Y-119338596D01*
X139385405Y-119342196D01*
X139360901Y-119343400D01*
X138710899Y-119343400D01*
X138686395Y-119342196D01*
X138662127Y-119338596D01*
X138638328Y-119332635D01*
X138615229Y-119324370D01*
X138593050Y-119313880D01*
X138572007Y-119301268D01*
X138552301Y-119286653D01*
X138534123Y-119270177D01*
X138517647Y-119251999D01*
X138503032Y-119232293D01*
X138490420Y-119211250D01*
X138479930Y-119189071D01*
X138471665Y-119165972D01*
X138465704Y-119142173D01*
X138462104Y-119117905D01*
X138460900Y-119093401D01*
X138460900Y-118193399D01*
X138462104Y-118168895D01*
X138465704Y-118144627D01*
X138471665Y-118120828D01*
X138479930Y-118097729D01*
X138490420Y-118075550D01*
X138503032Y-118054507D01*
X138517647Y-118034801D01*
X138534123Y-118016623D01*
X138552301Y-118000147D01*
X138572007Y-117985532D01*
X138593050Y-117972920D01*
X138615229Y-117962430D01*
X138638328Y-117954165D01*
X138662127Y-117948204D01*
X138686395Y-117944604D01*
X138710899Y-117943400D01*
X139360901Y-117943400D01*
X139385405Y-117944604D01*
G37*
G04 #@! TD.AperFunction*
D13*
X107238800Y-116138600D03*
X107238800Y-112638600D03*
X107238800Y-109138600D03*
D14*
X107238800Y-105638600D03*
D15*
X139331900Y-116315000D03*
X139331900Y-115045000D03*
X139331900Y-113775000D03*
X139331900Y-112505000D03*
X139331900Y-111235000D03*
X139331900Y-109965000D03*
X139331900Y-108695000D03*
X139331900Y-107425000D03*
X139331900Y-106155000D03*
X139331900Y-104885000D03*
X129831900Y-104885000D03*
X129831900Y-106155000D03*
X129831900Y-107425000D03*
X129831900Y-108695000D03*
X129831900Y-116315000D03*
X129831900Y-115045000D03*
X129831900Y-113775000D03*
X129831900Y-112505000D03*
X129831900Y-111235000D03*
X129831900Y-109965000D03*
D16*
X115481100Y-102971600D03*
X118021100Y-102971600D03*
X120561100Y-102971600D03*
X123101100Y-102971600D03*
X125641100Y-102971600D03*
X128181100Y-102971600D03*
X128181100Y-118211600D03*
X125641100Y-118211600D03*
X123101100Y-118211600D03*
X120561100Y-118211600D03*
X118021100Y-118211600D03*
D17*
X115481100Y-118211600D03*
D18*
X133578600Y-106794300D03*
X127736600Y-113474500D03*
X128016000Y-108026200D03*
X127419100Y-106616500D03*
X126707900Y-111960000D03*
X136372600Y-113639600D03*
X118592600Y-109753400D03*
X124574300Y-109829600D03*
X137350500Y-112572800D03*
X118694200Y-112610900D03*
D19*
X115938300Y-100495100D02*
X115481100Y-100952300D01*
X139623800Y-100495100D02*
X115938300Y-100495100D01*
X141643100Y-102514400D02*
X139623800Y-100495100D01*
X141643100Y-108653800D02*
X141643100Y-102514400D01*
X140331900Y-109965000D02*
X141643100Y-108653800D01*
X115481100Y-100952300D02*
X115481100Y-102971600D01*
X139331900Y-109965000D02*
X140331900Y-109965000D01*
X133578600Y-112298300D02*
X133578600Y-106794300D01*
X130831900Y-115045000D02*
X133578600Y-112298300D01*
X129831900Y-115045000D02*
X130831900Y-115045000D01*
X120561100Y-104032260D02*
X120561100Y-102971600D01*
X121126040Y-104597200D02*
X120561100Y-104032260D01*
X128371600Y-104597200D02*
X121126040Y-104597200D01*
X129222500Y-103746300D02*
X128371600Y-104597200D01*
X130733800Y-103746300D02*
X129222500Y-103746300D01*
X131432300Y-104444800D02*
X130733800Y-103746300D01*
X131432300Y-108094600D02*
X131432300Y-104444800D01*
X130831900Y-108695000D02*
X131432300Y-108094600D01*
X129831900Y-108695000D02*
X130831900Y-108695000D01*
X123101100Y-101910940D02*
X123101100Y-102971600D01*
X123970840Y-101041200D02*
X123101100Y-101910940D01*
X138252200Y-101041200D02*
X123970840Y-101041200D01*
X141058900Y-103847900D02*
X138252200Y-101041200D01*
X141058900Y-107968000D02*
X141058900Y-103847900D01*
X140331900Y-108695000D02*
X141058900Y-107968000D01*
X139331900Y-108695000D02*
X140331900Y-108695000D01*
X125641100Y-102298500D02*
X125641100Y-102971600D01*
X135623300Y-101701600D02*
X126238000Y-101701600D01*
X136867900Y-102946200D02*
X135623300Y-101701600D01*
X138120900Y-107425000D02*
X136867900Y-106172000D01*
X126238000Y-101701600D02*
X125641100Y-102298500D01*
X136867900Y-106172000D02*
X136867900Y-102946200D01*
X139331900Y-107425000D02*
X138120900Y-107425000D01*
X130683000Y-102971600D02*
X128181100Y-102971600D01*
X132435600Y-104724200D02*
X130683000Y-102971600D01*
X132435600Y-112171300D02*
X132435600Y-104724200D01*
X130831900Y-113775000D02*
X132435600Y-112171300D01*
X129831900Y-113775000D02*
X130831900Y-113775000D01*
X128617200Y-107425000D02*
X129831900Y-107425000D01*
X128016000Y-108026200D02*
X128617200Y-107425000D01*
X126391099Y-117461601D02*
X126403799Y-117461601D01*
X125641100Y-118211600D02*
X126391099Y-117461601D01*
X127736600Y-116128800D02*
X127736600Y-113474500D01*
X126403799Y-117461601D02*
X127736600Y-116128800D01*
X127194800Y-112505000D02*
X129831900Y-112505000D01*
X123851099Y-117461601D02*
X123851099Y-117448901D01*
X123101100Y-118211600D02*
X123851099Y-117461601D01*
X123851099Y-117448901D02*
X124548900Y-116751100D01*
X124548900Y-116751100D02*
X125933200Y-116751100D01*
X126873000Y-115811300D02*
X126873000Y-112814100D01*
X125933200Y-116751100D02*
X126873000Y-115811300D01*
X126873000Y-112814100D02*
X127194800Y-112505000D01*
X127880600Y-106155000D02*
X129831900Y-106155000D01*
X127419100Y-106616500D02*
X127880600Y-106155000D01*
X121311099Y-117461601D02*
X121311099Y-117448901D01*
X120561100Y-118211600D02*
X121311099Y-117461601D01*
X121311099Y-117448901D02*
X122783600Y-115976400D01*
X122783600Y-115976400D02*
X125603000Y-115976400D01*
X125603000Y-115976400D02*
X126161800Y-115417600D01*
X126161800Y-112506100D02*
X126707900Y-111960000D01*
X126161800Y-115417600D02*
X126161800Y-112506100D01*
X118021100Y-118211600D02*
X120980200Y-115252500D01*
X120980200Y-115252500D02*
X124993400Y-115252500D01*
X124993400Y-115252500D02*
X125488700Y-114757200D01*
X125488700Y-114757200D02*
X125488700Y-111988600D01*
X126242300Y-111235000D02*
X129831900Y-111235000D01*
X125488700Y-111988600D02*
X126242300Y-111235000D01*
X128831900Y-109965000D02*
X129831900Y-109965000D01*
X115481100Y-118211600D02*
X115481100Y-118198900D01*
X115481100Y-118211600D02*
X115506500Y-118211600D01*
X115506500Y-118211600D02*
X119113300Y-114604800D01*
X119113300Y-114604800D02*
X124460000Y-114604800D01*
X124460000Y-114604800D02*
X124815600Y-114249200D01*
X124815600Y-114249200D02*
X124815600Y-111442500D01*
X126293100Y-109965000D02*
X129831900Y-109965000D01*
X124815600Y-111442500D02*
X126293100Y-109965000D01*
X130831900Y-116315000D02*
X129831900Y-116315000D01*
X131419600Y-116902700D02*
X130831900Y-116315000D01*
X131419600Y-118186200D02*
X131419600Y-116902700D01*
X136985900Y-117943400D02*
X135717400Y-116674900D01*
X136985900Y-118643400D02*
X136985900Y-117943400D01*
X135717400Y-116674900D02*
X133223000Y-116674900D01*
X132807600Y-117090300D02*
X132807600Y-118618000D01*
X133223000Y-116674900D02*
X132807600Y-117090300D01*
X132219900Y-118605300D02*
X131025900Y-118605300D01*
X132232600Y-118618000D02*
X132219900Y-118605300D01*
X132807600Y-118618000D02*
X132232600Y-118618000D01*
X131025900Y-118605300D02*
X131419600Y-118186200D01*
X107238800Y-116138600D02*
X109134000Y-116138600D01*
X110502700Y-114769900D02*
X113499900Y-114769900D01*
X109134000Y-116138600D02*
X110502700Y-114769900D01*
X113499900Y-114769900D02*
X115214400Y-114769900D01*
X116640500Y-113343800D02*
X120611900Y-113343800D01*
X115214400Y-114769900D02*
X116640500Y-113343800D01*
X123215400Y-113343800D02*
X123240800Y-113369200D01*
X120611900Y-113343800D02*
X123215400Y-113343800D01*
X129946400Y-119684800D02*
X131025900Y-118605300D01*
X109087944Y-119684800D02*
X129946400Y-119684800D01*
X107238800Y-117835656D02*
X109087944Y-119684800D01*
X107238800Y-116138600D02*
X107238800Y-117835656D01*
X134353300Y-120396000D02*
X134857600Y-119891700D01*
X107391200Y-120396000D02*
X134353300Y-120396000D01*
X103771700Y-116776500D02*
X107391200Y-120396000D01*
X103771700Y-107655700D02*
X103771700Y-116776500D01*
X105788800Y-105638600D02*
X103771700Y-107655700D01*
X134857600Y-119891700D02*
X134857600Y-118618000D01*
X107238800Y-105638600D02*
X105788800Y-105638600D01*
X107238800Y-105638600D02*
X109855000Y-105638600D01*
X111366300Y-107149900D02*
X113499900Y-107149900D01*
X109855000Y-105638600D02*
X111366300Y-107149900D01*
X115497900Y-106251900D02*
X120624600Y-106251900D01*
X114599900Y-107149900D02*
X115497900Y-106251900D01*
X113499900Y-107149900D02*
X114599900Y-107149900D01*
X120624600Y-106251900D02*
X123177300Y-106251900D01*
X139035900Y-119523400D02*
X139035900Y-118643400D01*
X138188700Y-120370600D02*
X139035900Y-119523400D01*
X135910200Y-120370600D02*
X138188700Y-120370600D01*
X134857600Y-119318000D02*
X135910200Y-120370600D01*
X134857600Y-118618000D02*
X134857600Y-119318000D01*
X139035900Y-119871600D02*
X139035900Y-118643400D01*
X139522200Y-120357900D02*
X139035900Y-119871600D01*
X140284200Y-120357900D02*
X139522200Y-120357900D01*
X141033500Y-119608600D02*
X140284200Y-120357900D01*
X141033500Y-111936600D02*
X141033500Y-119608600D01*
X140331900Y-111235000D02*
X141033500Y-111936600D01*
X139331900Y-111235000D02*
X140331900Y-111235000D01*
X107238800Y-109138600D02*
X110192700Y-109138600D01*
X110744000Y-109689900D02*
X113499900Y-109689900D01*
X110192700Y-109138600D02*
X110744000Y-109689900D01*
X120624600Y-111281100D02*
X120611900Y-111293800D01*
X136508000Y-113775000D02*
X136372600Y-113639600D01*
X139331900Y-113775000D02*
X136508000Y-113775000D01*
X120586500Y-109753400D02*
X120624600Y-109791500D01*
X120624600Y-109791500D02*
X120624600Y-111281100D01*
X118592600Y-109753400D02*
X120586500Y-109753400D01*
X120624600Y-108301900D02*
X120624600Y-109791500D01*
X118529100Y-109689900D02*
X118592600Y-109753400D01*
X113499900Y-109689900D02*
X118529100Y-109689900D01*
X107238800Y-112638600D02*
X109801900Y-112638600D01*
X110210600Y-112229900D02*
X113499900Y-112229900D01*
X109801900Y-112638600D02*
X110210600Y-112229900D01*
X123240800Y-108365400D02*
X123177300Y-108301900D01*
X123240800Y-109791500D02*
X124536200Y-109791500D01*
X124536200Y-109791500D02*
X124574300Y-109829600D01*
X123240800Y-111319200D02*
X123240800Y-109791500D01*
X123240800Y-109791500D02*
X123240800Y-108365400D01*
X139264100Y-112572800D02*
X139331900Y-112505000D01*
X137350500Y-112572800D02*
X139264100Y-112572800D01*
X118313200Y-112229900D02*
X118694200Y-112610900D01*
X113499900Y-112229900D02*
X118313200Y-112229900D01*
D20*
G36*
X136107901Y-103261003D02*
G01*
X136107900Y-106134677D01*
X136104224Y-106172000D01*
X136107900Y-106209322D01*
X136107900Y-106209332D01*
X136118897Y-106320985D01*
X136159549Y-106455000D01*
X136162354Y-106464246D01*
X136232926Y-106596276D01*
X136249524Y-106616500D01*
X136327899Y-106712001D01*
X136356903Y-106735804D01*
X137557101Y-107936003D01*
X137580899Y-107965001D01*
X137630044Y-108005333D01*
X137696624Y-108059974D01*
X137828653Y-108130546D01*
X137971914Y-108174003D01*
X137984975Y-108175289D01*
X137956088Y-108270518D01*
X137943828Y-108395000D01*
X137943828Y-108995000D01*
X137956088Y-109119482D01*
X137992398Y-109239180D01*
X138040943Y-109330000D01*
X137992398Y-109420820D01*
X137956088Y-109540518D01*
X137943828Y-109665000D01*
X137943828Y-110265000D01*
X137956088Y-110389482D01*
X137992398Y-110509180D01*
X138040943Y-110600000D01*
X137992398Y-110690820D01*
X137956088Y-110810518D01*
X137943828Y-110935000D01*
X137943828Y-111535000D01*
X137956088Y-111659482D01*
X137983928Y-111751259D01*
X137840756Y-111655595D01*
X137652398Y-111577574D01*
X137452439Y-111537800D01*
X137248561Y-111537800D01*
X137048602Y-111577574D01*
X136860244Y-111655595D01*
X136690726Y-111768863D01*
X136546563Y-111913026D01*
X136433295Y-112082544D01*
X136355274Y-112270902D01*
X136315500Y-112470861D01*
X136315500Y-112604600D01*
X136270661Y-112604600D01*
X136070702Y-112644374D01*
X135882344Y-112722395D01*
X135712826Y-112835663D01*
X135568663Y-112979826D01*
X135455395Y-113149344D01*
X135377374Y-113337702D01*
X135337600Y-113537661D01*
X135337600Y-113741539D01*
X135377374Y-113941498D01*
X135455395Y-114129856D01*
X135568663Y-114299374D01*
X135712826Y-114443537D01*
X135882344Y-114556805D01*
X136070702Y-114634826D01*
X136270661Y-114674600D01*
X136474539Y-114674600D01*
X136674498Y-114634826D01*
X136862856Y-114556805D01*
X136895490Y-114535000D01*
X137982030Y-114535000D01*
X137956088Y-114620518D01*
X137943828Y-114745000D01*
X137943828Y-115345000D01*
X137956088Y-115469482D01*
X137992398Y-115589180D01*
X138040943Y-115680000D01*
X137992398Y-115770820D01*
X137956088Y-115890518D01*
X137943828Y-116015000D01*
X137943828Y-116615000D01*
X137956088Y-116739482D01*
X137992398Y-116859180D01*
X138051363Y-116969494D01*
X138130715Y-117066185D01*
X138227406Y-117145537D01*
X138337720Y-117204502D01*
X138457418Y-117240812D01*
X138581900Y-117253072D01*
X140081900Y-117253072D01*
X140206382Y-117240812D01*
X140273501Y-117220452D01*
X140273501Y-119293797D01*
X140201979Y-119365320D01*
X140231908Y-119266655D01*
X140248972Y-119093401D01*
X140248972Y-118193399D01*
X140231908Y-118020145D01*
X140181372Y-117853549D01*
X140099305Y-117700013D01*
X139988862Y-117565438D01*
X139854287Y-117454995D01*
X139700751Y-117372928D01*
X139534155Y-117322392D01*
X139360901Y-117305328D01*
X138710899Y-117305328D01*
X138537645Y-117322392D01*
X138371049Y-117372928D01*
X138217513Y-117454995D01*
X138082938Y-117565438D01*
X138077558Y-117571994D01*
X138012085Y-117492215D01*
X137915394Y-117412863D01*
X137805080Y-117353898D01*
X137685382Y-117317588D01*
X137560900Y-117305328D01*
X137271650Y-117308400D01*
X137112900Y-117467150D01*
X137112900Y-118516400D01*
X137132900Y-118516400D01*
X137132900Y-118770400D01*
X137112900Y-118770400D01*
X137112900Y-118790400D01*
X136858900Y-118790400D01*
X136858900Y-118770400D01*
X136838900Y-118770400D01*
X136838900Y-118516400D01*
X136858900Y-118516400D01*
X136858900Y-117467150D01*
X136700150Y-117308400D01*
X136410900Y-117305328D01*
X136286418Y-117317588D01*
X136166720Y-117353898D01*
X136056406Y-117412863D01*
X135959715Y-117492215D01*
X135880363Y-117588906D01*
X135868650Y-117610819D01*
X135810562Y-117540038D01*
X135675987Y-117429595D01*
X135522451Y-117347528D01*
X135355855Y-117296992D01*
X135182601Y-117279928D01*
X134532599Y-117279928D01*
X134359345Y-117296992D01*
X134192749Y-117347528D01*
X134039213Y-117429595D01*
X133904638Y-117540038D01*
X133899258Y-117546594D01*
X133833785Y-117466815D01*
X133737094Y-117387463D01*
X133626780Y-117328498D01*
X133507082Y-117292188D01*
X133382600Y-117279928D01*
X133093350Y-117283000D01*
X132934600Y-117441750D01*
X132934600Y-118491000D01*
X132954600Y-118491000D01*
X132954600Y-118745000D01*
X132934600Y-118745000D01*
X132934600Y-118765000D01*
X132680600Y-118765000D01*
X132680600Y-118745000D01*
X131756350Y-118745000D01*
X131597600Y-118903750D01*
X131594528Y-119318000D01*
X131606788Y-119442482D01*
X131643098Y-119562180D01*
X131682556Y-119636000D01*
X107706002Y-119636000D01*
X105486582Y-117416580D01*
X106140426Y-117416580D01*
X106260314Y-117701436D01*
X106584010Y-117862299D01*
X106932869Y-117956922D01*
X107293484Y-117981667D01*
X107651998Y-117935585D01*
X107994633Y-117820446D01*
X108217286Y-117701436D01*
X108337174Y-117416580D01*
X107238800Y-116318205D01*
X106140426Y-117416580D01*
X105486582Y-117416580D01*
X104531700Y-116461699D01*
X104531700Y-116193284D01*
X105395733Y-116193284D01*
X105441815Y-116551798D01*
X105556954Y-116894433D01*
X105675964Y-117117086D01*
X105960820Y-117236974D01*
X107059195Y-116138600D01*
X107418405Y-116138600D01*
X108516780Y-117236974D01*
X108801636Y-117117086D01*
X108962499Y-116793390D01*
X109057122Y-116444531D01*
X109081867Y-116083916D01*
X109035785Y-115725402D01*
X108920646Y-115382767D01*
X108801636Y-115160114D01*
X108722458Y-115126790D01*
X112058424Y-115126790D01*
X112103075Y-115273999D01*
X112228259Y-115536820D01*
X112402312Y-115770169D01*
X112618545Y-115965078D01*
X112868648Y-116114057D01*
X113143009Y-116211381D01*
X113372900Y-116090714D01*
X113372900Y-114896900D01*
X113626900Y-114896900D01*
X113626900Y-116090714D01*
X113856791Y-116211381D01*
X114131152Y-116114057D01*
X114381255Y-115965078D01*
X114597488Y-115770169D01*
X114771541Y-115536820D01*
X114896725Y-115273999D01*
X114941376Y-115126790D01*
X114820055Y-114896900D01*
X113626900Y-114896900D01*
X113372900Y-114896900D01*
X112179745Y-114896900D01*
X112058424Y-115126790D01*
X108722458Y-115126790D01*
X108516780Y-115040226D01*
X107418405Y-116138600D01*
X107059195Y-116138600D01*
X105960820Y-115040226D01*
X105675964Y-115160114D01*
X105515101Y-115483810D01*
X105420478Y-115832669D01*
X105395733Y-116193284D01*
X104531700Y-116193284D01*
X104531700Y-107970501D01*
X105442344Y-107059857D01*
X105449298Y-107082780D01*
X105508263Y-107193094D01*
X105587615Y-107289785D01*
X105684306Y-107369137D01*
X105794620Y-107428102D01*
X105914318Y-107464412D01*
X106038800Y-107476672D01*
X106455962Y-107476672D01*
X106369601Y-107512444D01*
X106069056Y-107713262D01*
X105813462Y-107968856D01*
X105612644Y-108269401D01*
X105474318Y-108603350D01*
X105403800Y-108957868D01*
X105403800Y-109319332D01*
X105474318Y-109673850D01*
X105612644Y-110007799D01*
X105813462Y-110308344D01*
X106069056Y-110563938D01*
X106369601Y-110764756D01*
X106668587Y-110888600D01*
X106369601Y-111012444D01*
X106069056Y-111213262D01*
X105813462Y-111468856D01*
X105612644Y-111769401D01*
X105474318Y-112103350D01*
X105403800Y-112457868D01*
X105403800Y-112819332D01*
X105474318Y-113173850D01*
X105612644Y-113507799D01*
X105813462Y-113808344D01*
X106069056Y-114063938D01*
X106369601Y-114264756D01*
X106676289Y-114391790D01*
X106482967Y-114456754D01*
X106260314Y-114575764D01*
X106140426Y-114860620D01*
X107238800Y-115958995D01*
X108337174Y-114860620D01*
X108217286Y-114575764D01*
X107893590Y-114414901D01*
X107804110Y-114390631D01*
X108107999Y-114264756D01*
X108408544Y-114063938D01*
X108664138Y-113808344D01*
X108864956Y-113507799D01*
X108910188Y-113398600D01*
X109764578Y-113398600D01*
X109801900Y-113402276D01*
X109839222Y-113398600D01*
X109839233Y-113398600D01*
X109950886Y-113387603D01*
X110094147Y-113344146D01*
X110226176Y-113273574D01*
X110341901Y-113178601D01*
X110365704Y-113149597D01*
X110525401Y-112989900D01*
X112221722Y-112989900D01*
X112346425Y-113176532D01*
X112553268Y-113383375D01*
X112735434Y-113505095D01*
X112618545Y-113574722D01*
X112402312Y-113769631D01*
X112228259Y-114002980D01*
X112103075Y-114265801D01*
X112058424Y-114413010D01*
X112179745Y-114642900D01*
X113372900Y-114642900D01*
X113372900Y-114622900D01*
X113626900Y-114622900D01*
X113626900Y-114642900D01*
X114820055Y-114642900D01*
X114941376Y-114413010D01*
X114896725Y-114265801D01*
X114771541Y-114002980D01*
X114597488Y-113769631D01*
X114381255Y-113574722D01*
X114264366Y-113505095D01*
X114446532Y-113383375D01*
X114653375Y-113176532D01*
X114778078Y-112989900D01*
X117730911Y-112989900D01*
X117776995Y-113101156D01*
X117890263Y-113270674D01*
X118034426Y-113414837D01*
X118203944Y-113528105D01*
X118392302Y-113606126D01*
X118592261Y-113645900D01*
X118796139Y-113645900D01*
X118996098Y-113606126D01*
X119184456Y-113528105D01*
X119276900Y-113466336D01*
X119276900Y-113470802D01*
X119435648Y-113470802D01*
X119276900Y-113629550D01*
X119274614Y-113844800D01*
X119150622Y-113844800D01*
X119113299Y-113841124D01*
X119075976Y-113844800D01*
X119075967Y-113844800D01*
X118964314Y-113855797D01*
X118821053Y-113899254D01*
X118689024Y-113969826D01*
X118689022Y-113969827D01*
X118689023Y-113969827D01*
X118602296Y-114041001D01*
X118602292Y-114041005D01*
X118573299Y-114064799D01*
X118549505Y-114093792D01*
X115819771Y-116823528D01*
X114731100Y-116823528D01*
X114606618Y-116835788D01*
X114486920Y-116872098D01*
X114376606Y-116931063D01*
X114279915Y-117010415D01*
X114200563Y-117107106D01*
X114141598Y-117217420D01*
X114105288Y-117337118D01*
X114093028Y-117461600D01*
X114093028Y-118961600D01*
X114105288Y-119086082D01*
X114141598Y-119205780D01*
X114200563Y-119316094D01*
X114279915Y-119412785D01*
X114376606Y-119492137D01*
X114486920Y-119551102D01*
X114606618Y-119587412D01*
X114731100Y-119599672D01*
X116231100Y-119599672D01*
X116355582Y-119587412D01*
X116475280Y-119551102D01*
X116585594Y-119492137D01*
X116682285Y-119412785D01*
X116761637Y-119316094D01*
X116820602Y-119205780D01*
X116856912Y-119086082D01*
X116867545Y-118978117D01*
X116945301Y-119094486D01*
X117138214Y-119287399D01*
X117365057Y-119438971D01*
X117617111Y-119543375D01*
X117884689Y-119596600D01*
X118157511Y-119596600D01*
X118425089Y-119543375D01*
X118677143Y-119438971D01*
X118903986Y-119287399D01*
X119096899Y-119094486D01*
X119248471Y-118867643D01*
X119291100Y-118764727D01*
X119333729Y-118867643D01*
X119485301Y-119094486D01*
X119678214Y-119287399D01*
X119905057Y-119438971D01*
X120157111Y-119543375D01*
X120424689Y-119596600D01*
X120697511Y-119596600D01*
X120965089Y-119543375D01*
X121217143Y-119438971D01*
X121443986Y-119287399D01*
X121636899Y-119094486D01*
X121788471Y-118867643D01*
X121831100Y-118764727D01*
X121873729Y-118867643D01*
X122025301Y-119094486D01*
X122218214Y-119287399D01*
X122445057Y-119438971D01*
X122697111Y-119543375D01*
X122964689Y-119596600D01*
X123237511Y-119596600D01*
X123505089Y-119543375D01*
X123757143Y-119438971D01*
X123983986Y-119287399D01*
X124176899Y-119094486D01*
X124328471Y-118867643D01*
X124371100Y-118764727D01*
X124413729Y-118867643D01*
X124565301Y-119094486D01*
X124758214Y-119287399D01*
X124985057Y-119438971D01*
X125237111Y-119543375D01*
X125504689Y-119596600D01*
X125777511Y-119596600D01*
X126045089Y-119543375D01*
X126297143Y-119438971D01*
X126523986Y-119287399D01*
X126716899Y-119094486D01*
X126868471Y-118867643D01*
X126911100Y-118764727D01*
X126953729Y-118867643D01*
X127105301Y-119094486D01*
X127298214Y-119287399D01*
X127525057Y-119438971D01*
X127777111Y-119543375D01*
X128044689Y-119596600D01*
X128317511Y-119596600D01*
X128585089Y-119543375D01*
X128837143Y-119438971D01*
X129063986Y-119287399D01*
X129256899Y-119094486D01*
X129408471Y-118867643D01*
X129512875Y-118615589D01*
X129566100Y-118348011D01*
X129566100Y-118075189D01*
X129534833Y-117918000D01*
X131594528Y-117918000D01*
X131597600Y-118332250D01*
X131756350Y-118491000D01*
X132680600Y-118491000D01*
X132680600Y-117441750D01*
X132521850Y-117283000D01*
X132232600Y-117279928D01*
X132108118Y-117292188D01*
X131988420Y-117328498D01*
X131878106Y-117387463D01*
X131781415Y-117466815D01*
X131702063Y-117563506D01*
X131643098Y-117673820D01*
X131606788Y-117793518D01*
X131594528Y-117918000D01*
X129534833Y-117918000D01*
X129512875Y-117807611D01*
X129408471Y-117555557D01*
X129256899Y-117328714D01*
X129180604Y-117252419D01*
X129546150Y-117250000D01*
X129704900Y-117091250D01*
X129704900Y-116442000D01*
X129958900Y-116442000D01*
X129958900Y-117091250D01*
X130117650Y-117250000D01*
X130581900Y-117253072D01*
X130706382Y-117240812D01*
X130826080Y-117204502D01*
X130936394Y-117145537D01*
X131033085Y-117066185D01*
X131112437Y-116969494D01*
X131171402Y-116859180D01*
X131207712Y-116739482D01*
X131219972Y-116615000D01*
X131216900Y-116600750D01*
X131058150Y-116442000D01*
X129958900Y-116442000D01*
X129704900Y-116442000D01*
X129684900Y-116442000D01*
X129684900Y-116188000D01*
X129704900Y-116188000D01*
X129704900Y-116168000D01*
X129958900Y-116168000D01*
X129958900Y-116188000D01*
X131058150Y-116188000D01*
X131216900Y-116029250D01*
X131219972Y-116015000D01*
X131207712Y-115890518D01*
X131171402Y-115770820D01*
X131152472Y-115735406D01*
X131256176Y-115679974D01*
X131371901Y-115585001D01*
X131395704Y-115555997D01*
X134089609Y-112862094D01*
X134118601Y-112838301D01*
X134142395Y-112809308D01*
X134142399Y-112809304D01*
X134213573Y-112722577D01*
X134213574Y-112722576D01*
X134284146Y-112590547D01*
X134327603Y-112447286D01*
X134338600Y-112335633D01*
X134338600Y-112335624D01*
X134342276Y-112298301D01*
X134338600Y-112260978D01*
X134338600Y-107498011D01*
X134382537Y-107454074D01*
X134495805Y-107284556D01*
X134573826Y-107096198D01*
X134613600Y-106896239D01*
X134613600Y-106692361D01*
X134573826Y-106492402D01*
X134495805Y-106304044D01*
X134382537Y-106134526D01*
X134238374Y-105990363D01*
X134068856Y-105877095D01*
X133880498Y-105799074D01*
X133680539Y-105759300D01*
X133476661Y-105759300D01*
X133276702Y-105799074D01*
X133195600Y-105832668D01*
X133195600Y-104761525D01*
X133199276Y-104724200D01*
X133195600Y-104686875D01*
X133195600Y-104686867D01*
X133184603Y-104575214D01*
X133141146Y-104431953D01*
X133070574Y-104299924D01*
X132975601Y-104184199D01*
X132946603Y-104160401D01*
X131247801Y-102461600D01*
X135308499Y-102461600D01*
X136107901Y-103261003D01*
G37*
X136107901Y-103261003D02*
X136107900Y-106134677D01*
X136104224Y-106172000D01*
X136107900Y-106209322D01*
X136107900Y-106209332D01*
X136118897Y-106320985D01*
X136159549Y-106455000D01*
X136162354Y-106464246D01*
X136232926Y-106596276D01*
X136249524Y-106616500D01*
X136327899Y-106712001D01*
X136356903Y-106735804D01*
X137557101Y-107936003D01*
X137580899Y-107965001D01*
X137630044Y-108005333D01*
X137696624Y-108059974D01*
X137828653Y-108130546D01*
X137971914Y-108174003D01*
X137984975Y-108175289D01*
X137956088Y-108270518D01*
X137943828Y-108395000D01*
X137943828Y-108995000D01*
X137956088Y-109119482D01*
X137992398Y-109239180D01*
X138040943Y-109330000D01*
X137992398Y-109420820D01*
X137956088Y-109540518D01*
X137943828Y-109665000D01*
X137943828Y-110265000D01*
X137956088Y-110389482D01*
X137992398Y-110509180D01*
X138040943Y-110600000D01*
X137992398Y-110690820D01*
X137956088Y-110810518D01*
X137943828Y-110935000D01*
X137943828Y-111535000D01*
X137956088Y-111659482D01*
X137983928Y-111751259D01*
X137840756Y-111655595D01*
X137652398Y-111577574D01*
X137452439Y-111537800D01*
X137248561Y-111537800D01*
X137048602Y-111577574D01*
X136860244Y-111655595D01*
X136690726Y-111768863D01*
X136546563Y-111913026D01*
X136433295Y-112082544D01*
X136355274Y-112270902D01*
X136315500Y-112470861D01*
X136315500Y-112604600D01*
X136270661Y-112604600D01*
X136070702Y-112644374D01*
X135882344Y-112722395D01*
X135712826Y-112835663D01*
X135568663Y-112979826D01*
X135455395Y-113149344D01*
X135377374Y-113337702D01*
X135337600Y-113537661D01*
X135337600Y-113741539D01*
X135377374Y-113941498D01*
X135455395Y-114129856D01*
X135568663Y-114299374D01*
X135712826Y-114443537D01*
X135882344Y-114556805D01*
X136070702Y-114634826D01*
X136270661Y-114674600D01*
X136474539Y-114674600D01*
X136674498Y-114634826D01*
X136862856Y-114556805D01*
X136895490Y-114535000D01*
X137982030Y-114535000D01*
X137956088Y-114620518D01*
X137943828Y-114745000D01*
X137943828Y-115345000D01*
X137956088Y-115469482D01*
X137992398Y-115589180D01*
X138040943Y-115680000D01*
X137992398Y-115770820D01*
X137956088Y-115890518D01*
X137943828Y-116015000D01*
X137943828Y-116615000D01*
X137956088Y-116739482D01*
X137992398Y-116859180D01*
X138051363Y-116969494D01*
X138130715Y-117066185D01*
X138227406Y-117145537D01*
X138337720Y-117204502D01*
X138457418Y-117240812D01*
X138581900Y-117253072D01*
X140081900Y-117253072D01*
X140206382Y-117240812D01*
X140273501Y-117220452D01*
X140273501Y-119293797D01*
X140201979Y-119365320D01*
X140231908Y-119266655D01*
X140248972Y-119093401D01*
X140248972Y-118193399D01*
X140231908Y-118020145D01*
X140181372Y-117853549D01*
X140099305Y-117700013D01*
X139988862Y-117565438D01*
X139854287Y-117454995D01*
X139700751Y-117372928D01*
X139534155Y-117322392D01*
X139360901Y-117305328D01*
X138710899Y-117305328D01*
X138537645Y-117322392D01*
X138371049Y-117372928D01*
X138217513Y-117454995D01*
X138082938Y-117565438D01*
X138077558Y-117571994D01*
X138012085Y-117492215D01*
X137915394Y-117412863D01*
X137805080Y-117353898D01*
X137685382Y-117317588D01*
X137560900Y-117305328D01*
X137271650Y-117308400D01*
X137112900Y-117467150D01*
X137112900Y-118516400D01*
X137132900Y-118516400D01*
X137132900Y-118770400D01*
X137112900Y-118770400D01*
X137112900Y-118790400D01*
X136858900Y-118790400D01*
X136858900Y-118770400D01*
X136838900Y-118770400D01*
X136838900Y-118516400D01*
X136858900Y-118516400D01*
X136858900Y-117467150D01*
X136700150Y-117308400D01*
X136410900Y-117305328D01*
X136286418Y-117317588D01*
X136166720Y-117353898D01*
X136056406Y-117412863D01*
X135959715Y-117492215D01*
X135880363Y-117588906D01*
X135868650Y-117610819D01*
X135810562Y-117540038D01*
X135675987Y-117429595D01*
X135522451Y-117347528D01*
X135355855Y-117296992D01*
X135182601Y-117279928D01*
X134532599Y-117279928D01*
X134359345Y-117296992D01*
X134192749Y-117347528D01*
X134039213Y-117429595D01*
X133904638Y-117540038D01*
X133899258Y-117546594D01*
X133833785Y-117466815D01*
X133737094Y-117387463D01*
X133626780Y-117328498D01*
X133507082Y-117292188D01*
X133382600Y-117279928D01*
X133093350Y-117283000D01*
X132934600Y-117441750D01*
X132934600Y-118491000D01*
X132954600Y-118491000D01*
X132954600Y-118745000D01*
X132934600Y-118745000D01*
X132934600Y-118765000D01*
X132680600Y-118765000D01*
X132680600Y-118745000D01*
X131756350Y-118745000D01*
X131597600Y-118903750D01*
X131594528Y-119318000D01*
X131606788Y-119442482D01*
X131643098Y-119562180D01*
X131682556Y-119636000D01*
X107706002Y-119636000D01*
X105486582Y-117416580D01*
X106140426Y-117416580D01*
X106260314Y-117701436D01*
X106584010Y-117862299D01*
X106932869Y-117956922D01*
X107293484Y-117981667D01*
X107651998Y-117935585D01*
X107994633Y-117820446D01*
X108217286Y-117701436D01*
X108337174Y-117416580D01*
X107238800Y-116318205D01*
X106140426Y-117416580D01*
X105486582Y-117416580D01*
X104531700Y-116461699D01*
X104531700Y-116193284D01*
X105395733Y-116193284D01*
X105441815Y-116551798D01*
X105556954Y-116894433D01*
X105675964Y-117117086D01*
X105960820Y-117236974D01*
X107059195Y-116138600D01*
X107418405Y-116138600D01*
X108516780Y-117236974D01*
X108801636Y-117117086D01*
X108962499Y-116793390D01*
X109057122Y-116444531D01*
X109081867Y-116083916D01*
X109035785Y-115725402D01*
X108920646Y-115382767D01*
X108801636Y-115160114D01*
X108722458Y-115126790D01*
X112058424Y-115126790D01*
X112103075Y-115273999D01*
X112228259Y-115536820D01*
X112402312Y-115770169D01*
X112618545Y-115965078D01*
X112868648Y-116114057D01*
X113143009Y-116211381D01*
X113372900Y-116090714D01*
X113372900Y-114896900D01*
X113626900Y-114896900D01*
X113626900Y-116090714D01*
X113856791Y-116211381D01*
X114131152Y-116114057D01*
X114381255Y-115965078D01*
X114597488Y-115770169D01*
X114771541Y-115536820D01*
X114896725Y-115273999D01*
X114941376Y-115126790D01*
X114820055Y-114896900D01*
X113626900Y-114896900D01*
X113372900Y-114896900D01*
X112179745Y-114896900D01*
X112058424Y-115126790D01*
X108722458Y-115126790D01*
X108516780Y-115040226D01*
X107418405Y-116138600D01*
X107059195Y-116138600D01*
X105960820Y-115040226D01*
X105675964Y-115160114D01*
X105515101Y-115483810D01*
X105420478Y-115832669D01*
X105395733Y-116193284D01*
X104531700Y-116193284D01*
X104531700Y-107970501D01*
X105442344Y-107059857D01*
X105449298Y-107082780D01*
X105508263Y-107193094D01*
X105587615Y-107289785D01*
X105684306Y-107369137D01*
X105794620Y-107428102D01*
X105914318Y-107464412D01*
X106038800Y-107476672D01*
X106455962Y-107476672D01*
X106369601Y-107512444D01*
X106069056Y-107713262D01*
X105813462Y-107968856D01*
X105612644Y-108269401D01*
X105474318Y-108603350D01*
X105403800Y-108957868D01*
X105403800Y-109319332D01*
X105474318Y-109673850D01*
X105612644Y-110007799D01*
X105813462Y-110308344D01*
X106069056Y-110563938D01*
X106369601Y-110764756D01*
X106668587Y-110888600D01*
X106369601Y-111012444D01*
X106069056Y-111213262D01*
X105813462Y-111468856D01*
X105612644Y-111769401D01*
X105474318Y-112103350D01*
X105403800Y-112457868D01*
X105403800Y-112819332D01*
X105474318Y-113173850D01*
X105612644Y-113507799D01*
X105813462Y-113808344D01*
X106069056Y-114063938D01*
X106369601Y-114264756D01*
X106676289Y-114391790D01*
X106482967Y-114456754D01*
X106260314Y-114575764D01*
X106140426Y-114860620D01*
X107238800Y-115958995D01*
X108337174Y-114860620D01*
X108217286Y-114575764D01*
X107893590Y-114414901D01*
X107804110Y-114390631D01*
X108107999Y-114264756D01*
X108408544Y-114063938D01*
X108664138Y-113808344D01*
X108864956Y-113507799D01*
X108910188Y-113398600D01*
X109764578Y-113398600D01*
X109801900Y-113402276D01*
X109839222Y-113398600D01*
X109839233Y-113398600D01*
X109950886Y-113387603D01*
X110094147Y-113344146D01*
X110226176Y-113273574D01*
X110341901Y-113178601D01*
X110365704Y-113149597D01*
X110525401Y-112989900D01*
X112221722Y-112989900D01*
X112346425Y-113176532D01*
X112553268Y-113383375D01*
X112735434Y-113505095D01*
X112618545Y-113574722D01*
X112402312Y-113769631D01*
X112228259Y-114002980D01*
X112103075Y-114265801D01*
X112058424Y-114413010D01*
X112179745Y-114642900D01*
X113372900Y-114642900D01*
X113372900Y-114622900D01*
X113626900Y-114622900D01*
X113626900Y-114642900D01*
X114820055Y-114642900D01*
X114941376Y-114413010D01*
X114896725Y-114265801D01*
X114771541Y-114002980D01*
X114597488Y-113769631D01*
X114381255Y-113574722D01*
X114264366Y-113505095D01*
X114446532Y-113383375D01*
X114653375Y-113176532D01*
X114778078Y-112989900D01*
X117730911Y-112989900D01*
X117776995Y-113101156D01*
X117890263Y-113270674D01*
X118034426Y-113414837D01*
X118203944Y-113528105D01*
X118392302Y-113606126D01*
X118592261Y-113645900D01*
X118796139Y-113645900D01*
X118996098Y-113606126D01*
X119184456Y-113528105D01*
X119276900Y-113466336D01*
X119276900Y-113470802D01*
X119435648Y-113470802D01*
X119276900Y-113629550D01*
X119274614Y-113844800D01*
X119150622Y-113844800D01*
X119113299Y-113841124D01*
X119075976Y-113844800D01*
X119075967Y-113844800D01*
X118964314Y-113855797D01*
X118821053Y-113899254D01*
X118689024Y-113969826D01*
X118689022Y-113969827D01*
X118689023Y-113969827D01*
X118602296Y-114041001D01*
X118602292Y-114041005D01*
X118573299Y-114064799D01*
X118549505Y-114093792D01*
X115819771Y-116823528D01*
X114731100Y-116823528D01*
X114606618Y-116835788D01*
X114486920Y-116872098D01*
X114376606Y-116931063D01*
X114279915Y-117010415D01*
X114200563Y-117107106D01*
X114141598Y-117217420D01*
X114105288Y-117337118D01*
X114093028Y-117461600D01*
X114093028Y-118961600D01*
X114105288Y-119086082D01*
X114141598Y-119205780D01*
X114200563Y-119316094D01*
X114279915Y-119412785D01*
X114376606Y-119492137D01*
X114486920Y-119551102D01*
X114606618Y-119587412D01*
X114731100Y-119599672D01*
X116231100Y-119599672D01*
X116355582Y-119587412D01*
X116475280Y-119551102D01*
X116585594Y-119492137D01*
X116682285Y-119412785D01*
X116761637Y-119316094D01*
X116820602Y-119205780D01*
X116856912Y-119086082D01*
X116867545Y-118978117D01*
X116945301Y-119094486D01*
X117138214Y-119287399D01*
X117365057Y-119438971D01*
X117617111Y-119543375D01*
X117884689Y-119596600D01*
X118157511Y-119596600D01*
X118425089Y-119543375D01*
X118677143Y-119438971D01*
X118903986Y-119287399D01*
X119096899Y-119094486D01*
X119248471Y-118867643D01*
X119291100Y-118764727D01*
X119333729Y-118867643D01*
X119485301Y-119094486D01*
X119678214Y-119287399D01*
X119905057Y-119438971D01*
X120157111Y-119543375D01*
X120424689Y-119596600D01*
X120697511Y-119596600D01*
X120965089Y-119543375D01*
X121217143Y-119438971D01*
X121443986Y-119287399D01*
X121636899Y-119094486D01*
X121788471Y-118867643D01*
X121831100Y-118764727D01*
X121873729Y-118867643D01*
X122025301Y-119094486D01*
X122218214Y-119287399D01*
X122445057Y-119438971D01*
X122697111Y-119543375D01*
X122964689Y-119596600D01*
X123237511Y-119596600D01*
X123505089Y-119543375D01*
X123757143Y-119438971D01*
X123983986Y-119287399D01*
X124176899Y-119094486D01*
X124328471Y-118867643D01*
X124371100Y-118764727D01*
X124413729Y-118867643D01*
X124565301Y-119094486D01*
X124758214Y-119287399D01*
X124985057Y-119438971D01*
X125237111Y-119543375D01*
X125504689Y-119596600D01*
X125777511Y-119596600D01*
X126045089Y-119543375D01*
X126297143Y-119438971D01*
X126523986Y-119287399D01*
X126716899Y-119094486D01*
X126868471Y-118867643D01*
X126911100Y-118764727D01*
X126953729Y-118867643D01*
X127105301Y-119094486D01*
X127298214Y-119287399D01*
X127525057Y-119438971D01*
X127777111Y-119543375D01*
X128044689Y-119596600D01*
X128317511Y-119596600D01*
X128585089Y-119543375D01*
X128837143Y-119438971D01*
X129063986Y-119287399D01*
X129256899Y-119094486D01*
X129408471Y-118867643D01*
X129512875Y-118615589D01*
X129566100Y-118348011D01*
X129566100Y-118075189D01*
X129534833Y-117918000D01*
X131594528Y-117918000D01*
X131597600Y-118332250D01*
X131756350Y-118491000D01*
X132680600Y-118491000D01*
X132680600Y-117441750D01*
X132521850Y-117283000D01*
X132232600Y-117279928D01*
X132108118Y-117292188D01*
X131988420Y-117328498D01*
X131878106Y-117387463D01*
X131781415Y-117466815D01*
X131702063Y-117563506D01*
X131643098Y-117673820D01*
X131606788Y-117793518D01*
X131594528Y-117918000D01*
X129534833Y-117918000D01*
X129512875Y-117807611D01*
X129408471Y-117555557D01*
X129256899Y-117328714D01*
X129180604Y-117252419D01*
X129546150Y-117250000D01*
X129704900Y-117091250D01*
X129704900Y-116442000D01*
X129958900Y-116442000D01*
X129958900Y-117091250D01*
X130117650Y-117250000D01*
X130581900Y-117253072D01*
X130706382Y-117240812D01*
X130826080Y-117204502D01*
X130936394Y-117145537D01*
X131033085Y-117066185D01*
X131112437Y-116969494D01*
X131171402Y-116859180D01*
X131207712Y-116739482D01*
X131219972Y-116615000D01*
X131216900Y-116600750D01*
X131058150Y-116442000D01*
X129958900Y-116442000D01*
X129704900Y-116442000D01*
X129684900Y-116442000D01*
X129684900Y-116188000D01*
X129704900Y-116188000D01*
X129704900Y-116168000D01*
X129958900Y-116168000D01*
X129958900Y-116188000D01*
X131058150Y-116188000D01*
X131216900Y-116029250D01*
X131219972Y-116015000D01*
X131207712Y-115890518D01*
X131171402Y-115770820D01*
X131152472Y-115735406D01*
X131256176Y-115679974D01*
X131371901Y-115585001D01*
X131395704Y-115555997D01*
X134089609Y-112862094D01*
X134118601Y-112838301D01*
X134142395Y-112809308D01*
X134142399Y-112809304D01*
X134213573Y-112722577D01*
X134213574Y-112722576D01*
X134284146Y-112590547D01*
X134327603Y-112447286D01*
X134338600Y-112335633D01*
X134338600Y-112335624D01*
X134342276Y-112298301D01*
X134338600Y-112260978D01*
X134338600Y-107498011D01*
X134382537Y-107454074D01*
X134495805Y-107284556D01*
X134573826Y-107096198D01*
X134613600Y-106896239D01*
X134613600Y-106692361D01*
X134573826Y-106492402D01*
X134495805Y-106304044D01*
X134382537Y-106134526D01*
X134238374Y-105990363D01*
X134068856Y-105877095D01*
X133880498Y-105799074D01*
X133680539Y-105759300D01*
X133476661Y-105759300D01*
X133276702Y-105799074D01*
X133195600Y-105832668D01*
X133195600Y-104761525D01*
X133199276Y-104724200D01*
X133195600Y-104686875D01*
X133195600Y-104686867D01*
X133184603Y-104575214D01*
X133141146Y-104431953D01*
X133070574Y-104299924D01*
X132975601Y-104184199D01*
X132946603Y-104160401D01*
X131247801Y-102461600D01*
X135308499Y-102461600D01*
X136107901Y-103261003D01*
G36*
X122064550Y-113242200D02*
G01*
X123113800Y-113242200D01*
X123113800Y-113222200D01*
X123367800Y-113222200D01*
X123367800Y-113242200D01*
X123387800Y-113242200D01*
X123387800Y-113496200D01*
X123367800Y-113496200D01*
X123367800Y-113516200D01*
X123113800Y-113516200D01*
X123113800Y-113496200D01*
X122064550Y-113496200D01*
X121939050Y-113621700D01*
X121788150Y-113470800D01*
X120738900Y-113470800D01*
X120738900Y-113490800D01*
X120484900Y-113490800D01*
X120484900Y-113470800D01*
X120464900Y-113470800D01*
X120464900Y-113216800D01*
X120484900Y-113216800D01*
X120484900Y-113196800D01*
X120738900Y-113196800D01*
X120738900Y-113216800D01*
X121788150Y-113216800D01*
X121913650Y-113091300D01*
X122064550Y-113242200D01*
G37*
X122064550Y-113242200D02*
X123113800Y-113242200D01*
X123113800Y-113222200D01*
X123367800Y-113222200D01*
X123367800Y-113242200D01*
X123387800Y-113242200D01*
X123387800Y-113496200D01*
X123367800Y-113496200D01*
X123367800Y-113516200D01*
X123113800Y-113516200D01*
X123113800Y-113496200D01*
X122064550Y-113496200D01*
X121939050Y-113621700D01*
X121788150Y-113470800D01*
X120738900Y-113470800D01*
X120738900Y-113490800D01*
X120484900Y-113490800D01*
X120484900Y-113470800D01*
X120464900Y-113470800D01*
X120464900Y-113216800D01*
X120484900Y-113216800D01*
X120484900Y-113196800D01*
X120738900Y-113196800D01*
X120738900Y-113216800D01*
X121788150Y-113216800D01*
X121913650Y-113091300D01*
X122064550Y-113242200D01*
M02*
