G04 #@! TF.GenerationSoftware,KiCad,Pcbnew,5.1.5+dfsg1-2build2*
G04 #@! TF.CreationDate,2021-11-16T16:54:19-05:00*
G04 #@! TF.ProjectId,056INCH_3DIGIT,30353649-4e43-4485-9f33-44494749542e,rev?*
G04 #@! TF.SameCoordinates,Original*
G04 #@! TF.FileFunction,Soldermask,Top*
G04 #@! TF.FilePolarity,Negative*
%FSLAX46Y46*%
G04 Gerber Fmt 4.6, Leading zero omitted, Abs format (unit mm)*
G04 Created by KiCad (PCBNEW 5.1.5+dfsg1-2build2) date 2021-11-16 16:54:19*
%MOMM*%
%LPD*%
G04 APERTURE LIST*
%ADD10C,0.100000*%
G04 APERTURE END LIST*
D10*
G36*
X116282100Y-119012600D02*
G01*
X114680100Y-119012600D01*
X114680100Y-117410600D01*
X116282100Y-117410600D01*
X116282100Y-119012600D01*
G37*
G36*
X118254742Y-117441381D02*
G01*
X118400514Y-117501762D01*
X118400516Y-117501763D01*
X118531708Y-117589422D01*
X118643278Y-117700992D01*
X118730937Y-117832184D01*
X118730938Y-117832186D01*
X118791319Y-117977958D01*
X118822100Y-118132707D01*
X118822100Y-118290493D01*
X118791319Y-118445242D01*
X118730938Y-118591014D01*
X118730937Y-118591016D01*
X118643278Y-118722208D01*
X118531708Y-118833778D01*
X118400516Y-118921437D01*
X118400515Y-118921438D01*
X118400514Y-118921438D01*
X118254742Y-118981819D01*
X118099993Y-119012600D01*
X117942207Y-119012600D01*
X117787458Y-118981819D01*
X117641686Y-118921438D01*
X117641685Y-118921438D01*
X117641684Y-118921437D01*
X117510492Y-118833778D01*
X117398922Y-118722208D01*
X117311263Y-118591016D01*
X117311262Y-118591014D01*
X117250881Y-118445242D01*
X117220100Y-118290493D01*
X117220100Y-118132707D01*
X117250881Y-117977958D01*
X117311262Y-117832186D01*
X117311263Y-117832184D01*
X117398922Y-117700992D01*
X117510492Y-117589422D01*
X117641684Y-117501763D01*
X117641686Y-117501762D01*
X117787458Y-117441381D01*
X117942207Y-117410600D01*
X118099993Y-117410600D01*
X118254742Y-117441381D01*
G37*
G36*
X120794742Y-117441381D02*
G01*
X120940514Y-117501762D01*
X120940516Y-117501763D01*
X121071708Y-117589422D01*
X121183278Y-117700992D01*
X121270937Y-117832184D01*
X121270938Y-117832186D01*
X121331319Y-117977958D01*
X121362100Y-118132707D01*
X121362100Y-118290493D01*
X121331319Y-118445242D01*
X121270938Y-118591014D01*
X121270937Y-118591016D01*
X121183278Y-118722208D01*
X121071708Y-118833778D01*
X120940516Y-118921437D01*
X120940515Y-118921438D01*
X120940514Y-118921438D01*
X120794742Y-118981819D01*
X120639993Y-119012600D01*
X120482207Y-119012600D01*
X120327458Y-118981819D01*
X120181686Y-118921438D01*
X120181685Y-118921438D01*
X120181684Y-118921437D01*
X120050492Y-118833778D01*
X119938922Y-118722208D01*
X119851263Y-118591016D01*
X119851262Y-118591014D01*
X119790881Y-118445242D01*
X119760100Y-118290493D01*
X119760100Y-118132707D01*
X119790881Y-117977958D01*
X119851262Y-117832186D01*
X119851263Y-117832184D01*
X119938922Y-117700992D01*
X120050492Y-117589422D01*
X120181684Y-117501763D01*
X120181686Y-117501762D01*
X120327458Y-117441381D01*
X120482207Y-117410600D01*
X120639993Y-117410600D01*
X120794742Y-117441381D01*
G37*
G36*
X123334742Y-117441381D02*
G01*
X123480514Y-117501762D01*
X123480516Y-117501763D01*
X123611708Y-117589422D01*
X123723278Y-117700992D01*
X123810937Y-117832184D01*
X123810938Y-117832186D01*
X123871319Y-117977958D01*
X123902100Y-118132707D01*
X123902100Y-118290493D01*
X123871319Y-118445242D01*
X123810938Y-118591014D01*
X123810937Y-118591016D01*
X123723278Y-118722208D01*
X123611708Y-118833778D01*
X123480516Y-118921437D01*
X123480515Y-118921438D01*
X123480514Y-118921438D01*
X123334742Y-118981819D01*
X123179993Y-119012600D01*
X123022207Y-119012600D01*
X122867458Y-118981819D01*
X122721686Y-118921438D01*
X122721685Y-118921438D01*
X122721684Y-118921437D01*
X122590492Y-118833778D01*
X122478922Y-118722208D01*
X122391263Y-118591016D01*
X122391262Y-118591014D01*
X122330881Y-118445242D01*
X122300100Y-118290493D01*
X122300100Y-118132707D01*
X122330881Y-117977958D01*
X122391262Y-117832186D01*
X122391263Y-117832184D01*
X122478922Y-117700992D01*
X122590492Y-117589422D01*
X122721684Y-117501763D01*
X122721686Y-117501762D01*
X122867458Y-117441381D01*
X123022207Y-117410600D01*
X123179993Y-117410600D01*
X123334742Y-117441381D01*
G37*
G36*
X128414742Y-117441381D02*
G01*
X128560514Y-117501762D01*
X128560516Y-117501763D01*
X128691708Y-117589422D01*
X128803278Y-117700992D01*
X128890937Y-117832184D01*
X128890938Y-117832186D01*
X128951319Y-117977958D01*
X128982100Y-118132707D01*
X128982100Y-118290493D01*
X128951319Y-118445242D01*
X128890938Y-118591014D01*
X128890937Y-118591016D01*
X128803278Y-118722208D01*
X128691708Y-118833778D01*
X128560516Y-118921437D01*
X128560515Y-118921438D01*
X128560514Y-118921438D01*
X128414742Y-118981819D01*
X128259993Y-119012600D01*
X128102207Y-119012600D01*
X127947458Y-118981819D01*
X127801686Y-118921438D01*
X127801685Y-118921438D01*
X127801684Y-118921437D01*
X127670492Y-118833778D01*
X127558922Y-118722208D01*
X127471263Y-118591016D01*
X127471262Y-118591014D01*
X127410881Y-118445242D01*
X127380100Y-118290493D01*
X127380100Y-118132707D01*
X127410881Y-117977958D01*
X127471262Y-117832186D01*
X127471263Y-117832184D01*
X127558922Y-117700992D01*
X127670492Y-117589422D01*
X127801684Y-117501763D01*
X127801686Y-117501762D01*
X127947458Y-117441381D01*
X128102207Y-117410600D01*
X128259993Y-117410600D01*
X128414742Y-117441381D01*
G37*
G36*
X125874742Y-117441381D02*
G01*
X126020514Y-117501762D01*
X126020516Y-117501763D01*
X126151708Y-117589422D01*
X126263278Y-117700992D01*
X126350937Y-117832184D01*
X126350938Y-117832186D01*
X126411319Y-117977958D01*
X126442100Y-118132707D01*
X126442100Y-118290493D01*
X126411319Y-118445242D01*
X126350938Y-118591014D01*
X126350937Y-118591016D01*
X126263278Y-118722208D01*
X126151708Y-118833778D01*
X126020516Y-118921437D01*
X126020515Y-118921438D01*
X126020514Y-118921438D01*
X125874742Y-118981819D01*
X125719993Y-119012600D01*
X125562207Y-119012600D01*
X125407458Y-118981819D01*
X125261686Y-118921438D01*
X125261685Y-118921438D01*
X125261684Y-118921437D01*
X125130492Y-118833778D01*
X125018922Y-118722208D01*
X124931263Y-118591016D01*
X124931262Y-118591014D01*
X124870881Y-118445242D01*
X124840100Y-118290493D01*
X124840100Y-118132707D01*
X124870881Y-117977958D01*
X124931262Y-117832186D01*
X124931263Y-117832184D01*
X125018922Y-117700992D01*
X125130492Y-117589422D01*
X125261684Y-117501763D01*
X125261686Y-117501762D01*
X125407458Y-117441381D01*
X125562207Y-117410600D01*
X125719993Y-117410600D01*
X125874742Y-117441381D01*
G37*
G36*
X107603703Y-114935675D02*
G01*
X107831371Y-115029978D01*
X108036266Y-115166885D01*
X108210515Y-115341134D01*
X108347422Y-115546029D01*
X108347423Y-115546031D01*
X108399145Y-115670900D01*
X108441725Y-115773697D01*
X108489800Y-116015387D01*
X108489800Y-116261813D01*
X108441725Y-116503503D01*
X108347422Y-116731171D01*
X108210515Y-116936066D01*
X108036266Y-117110315D01*
X107831371Y-117247222D01*
X107831370Y-117247223D01*
X107831369Y-117247223D01*
X107603703Y-117341525D01*
X107362014Y-117389600D01*
X107115586Y-117389600D01*
X106873897Y-117341525D01*
X106646231Y-117247223D01*
X106646230Y-117247223D01*
X106646229Y-117247222D01*
X106441334Y-117110315D01*
X106267085Y-116936066D01*
X106130178Y-116731171D01*
X106035875Y-116503503D01*
X105987800Y-116261813D01*
X105987800Y-116015387D01*
X106035875Y-115773697D01*
X106078455Y-115670900D01*
X106130177Y-115546031D01*
X106130178Y-115546029D01*
X106267085Y-115341134D01*
X106441334Y-115166885D01*
X106646229Y-115029978D01*
X106873897Y-114935675D01*
X107115586Y-114887600D01*
X107362014Y-114887600D01*
X107603703Y-114935675D01*
G37*
G36*
X113613412Y-113873827D02*
G01*
X113762712Y-113903524D01*
X113926684Y-113971444D01*
X114074254Y-114070047D01*
X114199753Y-114195546D01*
X114298356Y-114343116D01*
X114366276Y-114507088D01*
X114400900Y-114681159D01*
X114400900Y-114858641D01*
X114366276Y-115032712D01*
X114298356Y-115196684D01*
X114199753Y-115344254D01*
X114074254Y-115469753D01*
X113926684Y-115568356D01*
X113762712Y-115636276D01*
X113613412Y-115665973D01*
X113588642Y-115670900D01*
X113411158Y-115670900D01*
X113386388Y-115665973D01*
X113237088Y-115636276D01*
X113073116Y-115568356D01*
X112925546Y-115469753D01*
X112800047Y-115344254D01*
X112701444Y-115196684D01*
X112633524Y-115032712D01*
X112598900Y-114858641D01*
X112598900Y-114681159D01*
X112633524Y-114507088D01*
X112701444Y-114343116D01*
X112800047Y-114195546D01*
X112925546Y-114070047D01*
X113073116Y-113971444D01*
X113237088Y-113903524D01*
X113386388Y-113873827D01*
X113411158Y-113868900D01*
X113588642Y-113868900D01*
X113613412Y-113873827D01*
G37*
G36*
X107582432Y-111431444D02*
G01*
X107603703Y-111435675D01*
X107831371Y-111529978D01*
X108036266Y-111666885D01*
X108210515Y-111841134D01*
X108347422Y-112046029D01*
X108347423Y-112046031D01*
X108441725Y-112273697D01*
X108485290Y-112492711D01*
X108489800Y-112515387D01*
X108489800Y-112761813D01*
X108441725Y-113003503D01*
X108347422Y-113231171D01*
X108210515Y-113436066D01*
X108036266Y-113610315D01*
X107831371Y-113747222D01*
X107831370Y-113747223D01*
X107831369Y-113747223D01*
X107603703Y-113841525D01*
X107362014Y-113889600D01*
X107115586Y-113889600D01*
X106873897Y-113841525D01*
X106646231Y-113747223D01*
X106646230Y-113747223D01*
X106646229Y-113747222D01*
X106441334Y-113610315D01*
X106267085Y-113436066D01*
X106130178Y-113231171D01*
X106035875Y-113003503D01*
X105987800Y-112761813D01*
X105987800Y-112515387D01*
X105992311Y-112492711D01*
X106035875Y-112273697D01*
X106130177Y-112046031D01*
X106130178Y-112046029D01*
X106267085Y-111841134D01*
X106441334Y-111666885D01*
X106646229Y-111529978D01*
X106873897Y-111435675D01*
X106895168Y-111431444D01*
X107115586Y-111387600D01*
X107362014Y-111387600D01*
X107582432Y-111431444D01*
G37*
G36*
X113613412Y-111333827D02*
G01*
X113762712Y-111363524D01*
X113926684Y-111431444D01*
X114074254Y-111530047D01*
X114199753Y-111655546D01*
X114298356Y-111803116D01*
X114366276Y-111967088D01*
X114400900Y-112141159D01*
X114400900Y-112318641D01*
X114366276Y-112492712D01*
X114298356Y-112656684D01*
X114199753Y-112804254D01*
X114074254Y-112929753D01*
X113926684Y-113028356D01*
X113762712Y-113096276D01*
X113613412Y-113125973D01*
X113588642Y-113130900D01*
X113411158Y-113130900D01*
X113386388Y-113125973D01*
X113237088Y-113096276D01*
X113073116Y-113028356D01*
X112925546Y-112929753D01*
X112800047Y-112804254D01*
X112701444Y-112656684D01*
X112633524Y-112492712D01*
X112598900Y-112318641D01*
X112598900Y-112141159D01*
X112633524Y-111967088D01*
X112701444Y-111803116D01*
X112800047Y-111655546D01*
X112925546Y-111530047D01*
X113073116Y-111431444D01*
X113237088Y-111363524D01*
X113386388Y-111333827D01*
X113411158Y-111328900D01*
X113588642Y-111328900D01*
X113613412Y-111333827D01*
G37*
G36*
X113613412Y-108793827D02*
G01*
X113762712Y-108823524D01*
X113926684Y-108891444D01*
X114074254Y-108990047D01*
X114199753Y-109115546D01*
X114298356Y-109263116D01*
X114366276Y-109427088D01*
X114400900Y-109601159D01*
X114400900Y-109778641D01*
X114366276Y-109952712D01*
X114298356Y-110116684D01*
X114199753Y-110264254D01*
X114074254Y-110389753D01*
X113926684Y-110488356D01*
X113762712Y-110556276D01*
X113613412Y-110585973D01*
X113588642Y-110590900D01*
X113411158Y-110590900D01*
X113386388Y-110585973D01*
X113237088Y-110556276D01*
X113073116Y-110488356D01*
X112925546Y-110389753D01*
X112800047Y-110264254D01*
X112701444Y-110116684D01*
X112633524Y-109952712D01*
X112598900Y-109778641D01*
X112598900Y-109601159D01*
X112633524Y-109427088D01*
X112701444Y-109263116D01*
X112800047Y-109115546D01*
X112925546Y-108990047D01*
X113073116Y-108891444D01*
X113237088Y-108823524D01*
X113386388Y-108793827D01*
X113411158Y-108788900D01*
X113588642Y-108788900D01*
X113613412Y-108793827D01*
G37*
G36*
X107603703Y-107935675D02*
G01*
X107831371Y-108029978D01*
X108036266Y-108166885D01*
X108210515Y-108341134D01*
X108210516Y-108341136D01*
X108347423Y-108546031D01*
X108441725Y-108773697D01*
X108489800Y-109015386D01*
X108489800Y-109261814D01*
X108456925Y-109427088D01*
X108441725Y-109503503D01*
X108347422Y-109731171D01*
X108210515Y-109936066D01*
X108036266Y-110110315D01*
X107831371Y-110247222D01*
X107831370Y-110247223D01*
X107831369Y-110247223D01*
X107603703Y-110341525D01*
X107362014Y-110389600D01*
X107115586Y-110389600D01*
X106873897Y-110341525D01*
X106646231Y-110247223D01*
X106646230Y-110247223D01*
X106646229Y-110247222D01*
X106441334Y-110110315D01*
X106267085Y-109936066D01*
X106130178Y-109731171D01*
X106035875Y-109503503D01*
X106020675Y-109427088D01*
X105987800Y-109261814D01*
X105987800Y-109015386D01*
X106035875Y-108773697D01*
X106130177Y-108546031D01*
X106267084Y-108341136D01*
X106267085Y-108341134D01*
X106441334Y-108166885D01*
X106646229Y-108029978D01*
X106873897Y-107935675D01*
X107115586Y-107887600D01*
X107362014Y-107887600D01*
X107603703Y-107935675D01*
G37*
G36*
X114400900Y-108050900D02*
G01*
X112598900Y-108050900D01*
X112598900Y-106248900D01*
X114400900Y-106248900D01*
X114400900Y-108050900D01*
G37*
G36*
X108489800Y-106889600D02*
G01*
X105987800Y-106889600D01*
X105987800Y-104387600D01*
X108489800Y-104387600D01*
X108489800Y-106889600D01*
G37*
G36*
X118254742Y-102201381D02*
G01*
X118400514Y-102261762D01*
X118400516Y-102261763D01*
X118531708Y-102349422D01*
X118643278Y-102460992D01*
X118730937Y-102592184D01*
X118730938Y-102592186D01*
X118791319Y-102737958D01*
X118822100Y-102892707D01*
X118822100Y-103050493D01*
X118791319Y-103205242D01*
X118730938Y-103351014D01*
X118730937Y-103351016D01*
X118643278Y-103482208D01*
X118531708Y-103593778D01*
X118400516Y-103681437D01*
X118400515Y-103681438D01*
X118400514Y-103681438D01*
X118254742Y-103741819D01*
X118099993Y-103772600D01*
X117942207Y-103772600D01*
X117787458Y-103741819D01*
X117641686Y-103681438D01*
X117641685Y-103681438D01*
X117641684Y-103681437D01*
X117510492Y-103593778D01*
X117398922Y-103482208D01*
X117311263Y-103351016D01*
X117311262Y-103351014D01*
X117250881Y-103205242D01*
X117220100Y-103050493D01*
X117220100Y-102892707D01*
X117250881Y-102737958D01*
X117311262Y-102592186D01*
X117311263Y-102592184D01*
X117398922Y-102460992D01*
X117510492Y-102349422D01*
X117641684Y-102261763D01*
X117641686Y-102261762D01*
X117787458Y-102201381D01*
X117942207Y-102170600D01*
X118099993Y-102170600D01*
X118254742Y-102201381D01*
G37*
G36*
X128414742Y-102201381D02*
G01*
X128560514Y-102261762D01*
X128560516Y-102261763D01*
X128691708Y-102349422D01*
X128803278Y-102460992D01*
X128890937Y-102592184D01*
X128890938Y-102592186D01*
X128951319Y-102737958D01*
X128982100Y-102892707D01*
X128982100Y-103050493D01*
X128951319Y-103205242D01*
X128890938Y-103351014D01*
X128890937Y-103351016D01*
X128803278Y-103482208D01*
X128691708Y-103593778D01*
X128560516Y-103681437D01*
X128560515Y-103681438D01*
X128560514Y-103681438D01*
X128414742Y-103741819D01*
X128259993Y-103772600D01*
X128102207Y-103772600D01*
X127947458Y-103741819D01*
X127801686Y-103681438D01*
X127801685Y-103681438D01*
X127801684Y-103681437D01*
X127670492Y-103593778D01*
X127558922Y-103482208D01*
X127471263Y-103351016D01*
X127471262Y-103351014D01*
X127410881Y-103205242D01*
X127380100Y-103050493D01*
X127380100Y-102892707D01*
X127410881Y-102737958D01*
X127471262Y-102592186D01*
X127471263Y-102592184D01*
X127558922Y-102460992D01*
X127670492Y-102349422D01*
X127801684Y-102261763D01*
X127801686Y-102261762D01*
X127947458Y-102201381D01*
X128102207Y-102170600D01*
X128259993Y-102170600D01*
X128414742Y-102201381D01*
G37*
G36*
X125874742Y-102201381D02*
G01*
X126020514Y-102261762D01*
X126020516Y-102261763D01*
X126151708Y-102349422D01*
X126263278Y-102460992D01*
X126350937Y-102592184D01*
X126350938Y-102592186D01*
X126411319Y-102737958D01*
X126442100Y-102892707D01*
X126442100Y-103050493D01*
X126411319Y-103205242D01*
X126350938Y-103351014D01*
X126350937Y-103351016D01*
X126263278Y-103482208D01*
X126151708Y-103593778D01*
X126020516Y-103681437D01*
X126020515Y-103681438D01*
X126020514Y-103681438D01*
X125874742Y-103741819D01*
X125719993Y-103772600D01*
X125562207Y-103772600D01*
X125407458Y-103741819D01*
X125261686Y-103681438D01*
X125261685Y-103681438D01*
X125261684Y-103681437D01*
X125130492Y-103593778D01*
X125018922Y-103482208D01*
X124931263Y-103351016D01*
X124931262Y-103351014D01*
X124870881Y-103205242D01*
X124840100Y-103050493D01*
X124840100Y-102892707D01*
X124870881Y-102737958D01*
X124931262Y-102592186D01*
X124931263Y-102592184D01*
X125018922Y-102460992D01*
X125130492Y-102349422D01*
X125261684Y-102261763D01*
X125261686Y-102261762D01*
X125407458Y-102201381D01*
X125562207Y-102170600D01*
X125719993Y-102170600D01*
X125874742Y-102201381D01*
G37*
G36*
X123334742Y-102201381D02*
G01*
X123480514Y-102261762D01*
X123480516Y-102261763D01*
X123611708Y-102349422D01*
X123723278Y-102460992D01*
X123810937Y-102592184D01*
X123810938Y-102592186D01*
X123871319Y-102737958D01*
X123902100Y-102892707D01*
X123902100Y-103050493D01*
X123871319Y-103205242D01*
X123810938Y-103351014D01*
X123810937Y-103351016D01*
X123723278Y-103482208D01*
X123611708Y-103593778D01*
X123480516Y-103681437D01*
X123480515Y-103681438D01*
X123480514Y-103681438D01*
X123334742Y-103741819D01*
X123179993Y-103772600D01*
X123022207Y-103772600D01*
X122867458Y-103741819D01*
X122721686Y-103681438D01*
X122721685Y-103681438D01*
X122721684Y-103681437D01*
X122590492Y-103593778D01*
X122478922Y-103482208D01*
X122391263Y-103351016D01*
X122391262Y-103351014D01*
X122330881Y-103205242D01*
X122300100Y-103050493D01*
X122300100Y-102892707D01*
X122330881Y-102737958D01*
X122391262Y-102592186D01*
X122391263Y-102592184D01*
X122478922Y-102460992D01*
X122590492Y-102349422D01*
X122721684Y-102261763D01*
X122721686Y-102261762D01*
X122867458Y-102201381D01*
X123022207Y-102170600D01*
X123179993Y-102170600D01*
X123334742Y-102201381D01*
G37*
G36*
X120794742Y-102201381D02*
G01*
X120940514Y-102261762D01*
X120940516Y-102261763D01*
X121071708Y-102349422D01*
X121183278Y-102460992D01*
X121270937Y-102592184D01*
X121270938Y-102592186D01*
X121331319Y-102737958D01*
X121362100Y-102892707D01*
X121362100Y-103050493D01*
X121331319Y-103205242D01*
X121270938Y-103351014D01*
X121270937Y-103351016D01*
X121183278Y-103482208D01*
X121071708Y-103593778D01*
X120940516Y-103681437D01*
X120940515Y-103681438D01*
X120940514Y-103681438D01*
X120794742Y-103741819D01*
X120639993Y-103772600D01*
X120482207Y-103772600D01*
X120327458Y-103741819D01*
X120181686Y-103681438D01*
X120181685Y-103681438D01*
X120181684Y-103681437D01*
X120050492Y-103593778D01*
X119938922Y-103482208D01*
X119851263Y-103351016D01*
X119851262Y-103351014D01*
X119790881Y-103205242D01*
X119760100Y-103050493D01*
X119760100Y-102892707D01*
X119790881Y-102737958D01*
X119851262Y-102592186D01*
X119851263Y-102592184D01*
X119938922Y-102460992D01*
X120050492Y-102349422D01*
X120181684Y-102261763D01*
X120181686Y-102261762D01*
X120327458Y-102201381D01*
X120482207Y-102170600D01*
X120639993Y-102170600D01*
X120794742Y-102201381D01*
G37*
G36*
X115714742Y-102201381D02*
G01*
X115860514Y-102261762D01*
X115860516Y-102261763D01*
X115991708Y-102349422D01*
X116103278Y-102460992D01*
X116190937Y-102592184D01*
X116190938Y-102592186D01*
X116251319Y-102737958D01*
X116282100Y-102892707D01*
X116282100Y-103050493D01*
X116251319Y-103205242D01*
X116190938Y-103351014D01*
X116190937Y-103351016D01*
X116103278Y-103482208D01*
X115991708Y-103593778D01*
X115860516Y-103681437D01*
X115860515Y-103681438D01*
X115860514Y-103681438D01*
X115714742Y-103741819D01*
X115559993Y-103772600D01*
X115402207Y-103772600D01*
X115247458Y-103741819D01*
X115101686Y-103681438D01*
X115101685Y-103681438D01*
X115101684Y-103681437D01*
X114970492Y-103593778D01*
X114858922Y-103482208D01*
X114771263Y-103351016D01*
X114771262Y-103351014D01*
X114710881Y-103205242D01*
X114680100Y-103050493D01*
X114680100Y-102892707D01*
X114710881Y-102737958D01*
X114771262Y-102592186D01*
X114771263Y-102592184D01*
X114858922Y-102460992D01*
X114970492Y-102349422D01*
X115101684Y-102261763D01*
X115101686Y-102261762D01*
X115247458Y-102201381D01*
X115402207Y-102170600D01*
X115559993Y-102170600D01*
X115714742Y-102201381D01*
G37*
M02*
