M48
; DRILL file {KiCad 5.1.5+dfsg1-2build2} date mar 16 nov 2021 16:54:15
; FORMAT={-:-/ absolute / metric / decimal}
; #@! TF.CreationDate,2021-11-16T16:54:15-05:00
; #@! TF.GenerationSoftware,Kicad,Pcbnew,5.1.5+dfsg1-2build2
; #@! TF.FileFunction,Plated,1,2,PTH
FMAT,2
METRIC
T1C0.400
T2C1.000
T3C1.200
%
G90
G05
T1
X118.593Y-109.753
X118.694Y-112.611
X124.574Y-109.83
X126.708Y-111.96
X127.419Y-106.617
X127.737Y-113.474
X128.016Y-108.026
X133.579Y-106.794
X136.373Y-113.64
X137.35Y-112.573
T2
X115.481Y-102.972
X115.481Y-118.212
X118.021Y-102.972
X118.021Y-118.212
X120.561Y-102.972
X120.561Y-118.212
X123.101Y-102.972
X123.101Y-118.212
X125.641Y-102.972
X125.641Y-118.212
X128.181Y-102.972
X128.181Y-118.212
X113.5Y-107.15
X113.5Y-109.69
X113.5Y-112.23
X113.5Y-114.77
T3
X107.239Y-105.639
X107.239Y-109.139
X107.239Y-112.639
X107.239Y-116.139
T0
M30
