G04 #@! TF.GenerationSoftware,KiCad,Pcbnew,5.1.5+dfsg1-2build2*
G04 #@! TF.CreationDate,2021-11-16T17:19:03-05:00*
G04 #@! TF.ProjectId,,58585858-5858-4585-9858-585858585858,rev?*
G04 #@! TF.SameCoordinates,Original*
G04 #@! TF.FileFunction,Profile,NP*
%FSLAX46Y46*%
G04 Gerber Fmt 4.6, Leading zero omitted, Abs format (unit mm)*
G04 Created by KiCad (PCBNEW 5.1.5+dfsg1-2build2) date 2021-11-16 17:19:03*
%MOMM*%
%LPD*%
G04 APERTURE LIST*
%ADD10C,0.050000*%
G04 APERTURE END LIST*
D10*
X185817400Y-103232800D02*
X185817400Y-95232800D01*
X142017400Y-103232800D02*
X142017400Y-95232800D01*
X185817400Y-82232800D02*
X185817400Y-74232800D01*
X142017400Y-82232800D02*
X142017400Y-74232800D01*
X185817400Y-61232800D02*
X185817400Y-53232800D01*
X142017400Y-61232800D02*
X142017400Y-53232800D01*
X185817400Y-40232800D02*
X185817400Y-32232800D01*
X185817400Y-108232800D02*
X185817400Y-116232800D01*
X142017400Y-108232800D02*
X142017400Y-116232800D01*
X185817400Y-87232800D02*
X185817400Y-95232800D01*
X142017400Y-87232800D02*
X142017400Y-95232800D01*
X185817400Y-66232800D02*
X185817400Y-74232800D01*
X142017400Y-66232800D02*
X142017400Y-74232800D01*
X185817400Y-45232800D02*
X185817400Y-53232800D01*
X144617400Y-103232800D02*
X144617400Y-95232800D01*
X100817400Y-103232800D02*
X100817400Y-95232800D01*
X144617400Y-82232800D02*
X144617400Y-74232800D01*
X100817400Y-82232800D02*
X100817400Y-74232800D01*
X144617400Y-61232800D02*
X144617400Y-53232800D01*
X100817400Y-61232800D02*
X100817400Y-53232800D01*
X144617400Y-40232800D02*
X144617400Y-32232800D01*
X144617400Y-116232800D02*
X185817400Y-116232800D01*
X100817400Y-116232800D02*
X142017400Y-116232800D01*
X144617400Y-95232800D02*
X185817400Y-95232800D01*
X100817400Y-95232800D02*
X142017400Y-95232800D01*
X144617400Y-74232800D02*
X185817400Y-74232800D01*
X100817400Y-74232800D02*
X142017400Y-74232800D01*
X144617400Y-53232800D02*
X185817400Y-53232800D01*
X187117400Y-103232800D02*
X187117400Y-108232800D01*
X143317400Y-103232800D02*
X143317400Y-108232800D01*
X187117400Y-82232800D02*
X187117400Y-87232800D01*
X143317400Y-82232800D02*
X143317400Y-87232800D01*
X187117400Y-61232800D02*
X187117400Y-66232800D01*
X143317400Y-61232800D02*
X143317400Y-66232800D01*
X187117400Y-40232800D02*
X187117400Y-45232800D01*
X143317400Y-103232800D02*
X143317400Y-108232800D01*
X99517400Y-103232800D02*
X99517400Y-108232800D01*
X143317400Y-82232800D02*
X143317400Y-87232800D01*
X99517400Y-82232800D02*
X99517400Y-87232800D01*
X143317400Y-61232800D02*
X143317400Y-66232800D01*
X99517400Y-61232800D02*
X99517400Y-66232800D01*
X143317400Y-40232800D02*
X143317400Y-45232800D01*
X144617400Y-95232800D02*
X185817400Y-95232800D01*
X100817400Y-95232800D02*
X142017400Y-95232800D01*
X144617400Y-74232800D02*
X185817400Y-74232800D01*
X100817400Y-74232800D02*
X142017400Y-74232800D01*
X144617400Y-53232800D02*
X185817400Y-53232800D01*
X100817400Y-53232800D02*
X142017400Y-53232800D01*
X144617400Y-32232800D02*
X185817400Y-32232800D01*
X185817400Y-103232800D02*
X187117400Y-103232800D01*
X142017400Y-103232800D02*
X143317400Y-103232800D01*
X185817400Y-82232800D02*
X187117400Y-82232800D01*
X142017400Y-82232800D02*
X143317400Y-82232800D01*
X185817400Y-61232800D02*
X187117400Y-61232800D01*
X142017400Y-61232800D02*
X143317400Y-61232800D01*
X185817400Y-40232800D02*
X187117400Y-40232800D01*
X185817400Y-108232800D02*
X187117400Y-108232800D01*
X142017400Y-108232800D02*
X143317400Y-108232800D01*
X185817400Y-87232800D02*
X187117400Y-87232800D01*
X142017400Y-87232800D02*
X143317400Y-87232800D01*
X185817400Y-66232800D02*
X187117400Y-66232800D01*
X142017400Y-66232800D02*
X143317400Y-66232800D01*
X185817400Y-45232800D02*
X187117400Y-45232800D01*
X144617400Y-116232800D02*
X144617400Y-108232800D01*
X100817400Y-116232800D02*
X100817400Y-108232800D01*
X144617400Y-95232800D02*
X144617400Y-87232800D01*
X100817400Y-95232800D02*
X100817400Y-87232800D01*
X144617400Y-74232800D02*
X144617400Y-66232800D01*
X100817400Y-74232800D02*
X100817400Y-66232800D01*
X144617400Y-53232800D02*
X144617400Y-45232800D01*
X143317400Y-108232800D02*
X144617400Y-108232800D01*
X99517400Y-108232800D02*
X100817400Y-108232800D01*
X143317400Y-87232800D02*
X144617400Y-87232800D01*
X99517400Y-87232800D02*
X100817400Y-87232800D01*
X143317400Y-66232800D02*
X144617400Y-66232800D01*
X99517400Y-66232800D02*
X100817400Y-66232800D01*
X143317400Y-45232800D02*
X144617400Y-45232800D01*
X143317400Y-103232800D02*
X144617400Y-103232800D01*
X99517400Y-103232800D02*
X100817400Y-103232800D01*
X143317400Y-82232800D02*
X144617400Y-82232800D01*
X99517400Y-82232800D02*
X100817400Y-82232800D01*
X143317400Y-61232800D02*
X144617400Y-61232800D01*
X99517400Y-61232800D02*
X100817400Y-61232800D01*
X143317400Y-40232800D02*
X144617400Y-40232800D01*
X142017400Y-45232800D02*
X142017400Y-53232800D01*
X142017400Y-45232800D02*
X143317400Y-45232800D01*
X100817400Y-53232800D02*
X100817400Y-45232800D01*
X99517400Y-45232800D02*
X100817400Y-45232800D01*
X142017400Y-40232800D02*
X143317400Y-40232800D01*
X99517400Y-40232800D02*
X100817400Y-40232800D01*
X142017400Y-40232800D02*
X142017400Y-32232800D01*
X100817400Y-40232800D02*
X100817400Y-32232800D01*
X143317400Y-40232800D02*
X143317400Y-45232800D01*
X99517400Y-40232800D02*
X99517400Y-45232800D01*
X100817400Y-53232800D02*
X142017400Y-53232800D01*
X100817400Y-32232800D02*
X142017400Y-32232800D01*
M02*
