M48
; DRILL file {KiCad 5.1.5+dfsg1-2build2} date mar 16 nov 2021 17:04:33
; FORMAT={-:-/ absolute / metric / decimal}
; #@! TF.CreationDate,2021-11-16T17:04:33-05:00
; #@! TF.GenerationSoftware,Kicad,Pcbnew,5.1.5+dfsg1-2build2
; #@! TF.FileFunction,Plated,1,2,PTH
FMAT,2
METRIC
T1C0.400
T2C1.000
T3C1.200
%
G90
G05
T1
X109.347Y-55.207
X109.347Y-76.207
X109.347Y-97.207
X109.347Y-118.207
X109.449Y-58.064
X109.449Y-79.064
X109.449Y-100.064
X109.449Y-121.064
X115.329Y-55.283
X115.329Y-76.283
X115.329Y-97.283
X115.329Y-118.283
X117.462Y-57.413
X117.462Y-78.413
X117.462Y-99.413
X117.462Y-120.413
X118.173Y-52.07
X118.173Y-73.07
X118.173Y-94.07
X118.173Y-115.07
X118.491Y-58.928
X118.491Y-79.928
X118.491Y-100.928
X118.491Y-121.928
X118.77Y-53.48
X118.77Y-74.48
X118.77Y-95.48
X118.77Y-116.48
X124.333Y-52.248
X124.333Y-73.248
X124.333Y-94.248
X124.333Y-115.248
X127.127Y-59.093
X127.127Y-80.093
X127.127Y-101.093
X127.127Y-122.093
X128.105Y-58.026
X128.105Y-79.026
X128.105Y-100.026
X128.105Y-121.026
X153.147Y-55.207
X153.147Y-76.207
X153.147Y-97.207
X153.147Y-118.207
X153.249Y-58.064
X153.249Y-79.064
X153.249Y-100.064
X153.249Y-121.064
X159.129Y-55.283
X159.129Y-76.283
X159.129Y-97.283
X159.129Y-118.283
X161.262Y-57.413
X161.262Y-78.413
X161.262Y-99.413
X161.262Y-120.413
X161.974Y-52.07
X161.974Y-73.07
X161.974Y-94.07
X161.974Y-115.07
X162.291Y-58.928
X162.291Y-79.928
X162.291Y-100.928
X162.291Y-121.928
X162.57Y-53.48
X162.57Y-74.48
X162.57Y-95.48
X162.57Y-116.48
X168.133Y-52.248
X168.133Y-73.248
X168.133Y-94.248
X168.133Y-115.248
X170.927Y-59.093
X170.927Y-80.093
X170.927Y-101.093
X170.927Y-122.093
X171.905Y-58.026
X171.905Y-79.026
X171.905Y-100.026
X171.905Y-121.026
T2
X148.054Y-52.603
X148.054Y-55.143
X148.054Y-57.683
X148.054Y-60.223
X104.254Y-73.603
X104.254Y-76.143
X104.254Y-78.683
X104.254Y-81.223
X148.054Y-73.603
X148.054Y-76.143
X148.054Y-78.683
X148.054Y-81.223
X104.254Y-94.603
X104.254Y-97.143
X104.254Y-99.683
X104.254Y-102.223
X148.054Y-94.603
X148.054Y-97.143
X148.054Y-99.683
X148.054Y-102.223
X104.254Y-115.603
X104.254Y-118.143
X104.254Y-120.683
X104.254Y-123.223
X148.054Y-115.603
X148.054Y-118.143
X148.054Y-120.683
X148.054Y-123.223
X104.254Y-52.603
X104.254Y-55.143
X104.254Y-57.683
X104.254Y-60.223
X106.236Y-69.425
X106.236Y-84.665
X108.775Y-69.425
X108.775Y-84.665
X111.316Y-69.425
X111.316Y-84.665
X113.855Y-69.425
X113.855Y-84.665
X116.395Y-69.425
X116.395Y-84.665
X118.935Y-69.425
X118.935Y-84.665
X150.035Y-90.425
X150.035Y-105.665
X152.576Y-90.425
X152.576Y-105.665
X155.115Y-90.425
X155.115Y-105.665
X157.655Y-90.425
X157.655Y-105.665
X160.195Y-90.425
X160.195Y-105.665
X162.736Y-90.425
X162.736Y-105.665
X106.236Y-48.425
X106.236Y-63.665
X108.775Y-48.425
X108.775Y-63.665
X111.316Y-48.425
X111.316Y-63.665
X113.855Y-48.425
X113.855Y-63.665
X116.395Y-48.425
X116.395Y-63.665
X118.935Y-48.425
X118.935Y-63.665
X150.035Y-69.425
X150.035Y-84.665
X152.576Y-69.425
X152.576Y-84.665
X155.115Y-69.425
X155.115Y-84.665
X157.655Y-69.425
X157.655Y-84.665
X160.195Y-69.425
X160.195Y-84.665
X162.736Y-69.425
X162.736Y-84.665
X106.236Y-111.425
X106.236Y-126.665
X108.775Y-111.425
X108.775Y-126.665
X111.316Y-111.425
X111.316Y-126.665
X113.855Y-111.425
X113.855Y-126.665
X116.395Y-111.425
X116.395Y-126.665
X118.935Y-111.425
X118.935Y-126.665
X150.035Y-48.425
X150.035Y-63.665
X152.576Y-48.425
X152.576Y-63.665
X155.115Y-48.425
X155.115Y-63.665
X157.655Y-48.425
X157.655Y-63.665
X160.195Y-48.425
X160.195Y-63.665
X162.736Y-48.425
X162.736Y-63.665
X106.236Y-90.425
X106.236Y-105.665
X108.775Y-90.425
X108.775Y-105.665
X111.316Y-90.425
X111.316Y-105.665
X113.855Y-90.425
X113.855Y-105.665
X116.395Y-90.425
X116.395Y-105.665
X118.935Y-90.425
X118.935Y-105.665
X150.035Y-111.425
X150.035Y-126.665
X152.576Y-111.425
X152.576Y-126.665
X155.115Y-111.425
X155.115Y-126.665
X157.655Y-111.425
X157.655Y-126.665
X160.195Y-111.425
X160.195Y-126.665
X162.736Y-111.425
X162.736Y-126.665
T3
X97.993Y-72.092
X97.993Y-75.592
X97.993Y-79.092
X97.993Y-82.592
X141.793Y-72.092
X141.793Y-75.592
X141.793Y-79.092
X141.793Y-82.592
X141.793Y-51.092
X141.793Y-54.592
X141.793Y-58.092
X141.793Y-61.592
X97.993Y-93.092
X97.993Y-96.592
X97.993Y-100.092
X97.993Y-103.592
X97.993Y-51.092
X97.993Y-54.592
X97.993Y-58.092
X97.993Y-61.592
X141.793Y-93.092
X141.793Y-96.592
X141.793Y-100.092
X141.793Y-103.592
X97.993Y-114.092
X97.993Y-117.592
X97.993Y-121.092
X97.993Y-124.592
X141.793Y-114.092
X141.793Y-117.592
X141.793Y-121.092
X141.793Y-124.592
T0
M30
