G04 #@! TF.GenerationSoftware,KiCad,Pcbnew,5.1.5+dfsg1-2build2*
G04 #@! TF.CreationDate,2021-11-16T17:04:45-05:00*
G04 #@! TF.ProjectId,,58585858-5858-4585-9858-585858585858,rev?*
G04 #@! TF.SameCoordinates,Original*
G04 #@! TF.FileFunction,Soldermask,Top*
G04 #@! TF.FilePolarity,Negative*
%FSLAX46Y46*%
G04 Gerber Fmt 4.6, Leading zero omitted, Abs format (unit mm)*
G04 Created by KiCad (PCBNEW 5.1.5+dfsg1-2build2) date 2021-11-16 17:04:45*
%MOMM*%
%LPD*%
G04 APERTURE LIST*
%ADD10C,0.100000*%
G04 APERTURE END LIST*
D10*
G36*
X119169142Y-125894881D02*
G01*
X119314914Y-125955262D01*
X119314916Y-125955263D01*
X119446108Y-126042922D01*
X119557678Y-126154492D01*
X119645337Y-126285684D01*
X119645338Y-126285686D01*
X119705719Y-126431458D01*
X119736500Y-126586207D01*
X119736500Y-126743993D01*
X119705719Y-126898742D01*
X119645338Y-127044514D01*
X119645337Y-127044516D01*
X119557678Y-127175708D01*
X119446108Y-127287278D01*
X119314916Y-127374937D01*
X119314915Y-127374938D01*
X119314914Y-127374938D01*
X119169142Y-127435319D01*
X119014393Y-127466100D01*
X118856607Y-127466100D01*
X118701858Y-127435319D01*
X118556086Y-127374938D01*
X118556085Y-127374938D01*
X118556084Y-127374937D01*
X118424892Y-127287278D01*
X118313322Y-127175708D01*
X118225663Y-127044516D01*
X118225662Y-127044514D01*
X118165281Y-126898742D01*
X118134500Y-126743993D01*
X118134500Y-126586207D01*
X118165281Y-126431458D01*
X118225662Y-126285686D01*
X118225663Y-126285684D01*
X118313322Y-126154492D01*
X118424892Y-126042922D01*
X118556084Y-125955263D01*
X118556086Y-125955262D01*
X118701858Y-125894881D01*
X118856607Y-125864100D01*
X119014393Y-125864100D01*
X119169142Y-125894881D01*
G37*
G36*
X160429142Y-125894881D02*
G01*
X160574914Y-125955262D01*
X160574916Y-125955263D01*
X160706108Y-126042922D01*
X160817678Y-126154492D01*
X160905337Y-126285684D01*
X160905338Y-126285686D01*
X160965719Y-126431458D01*
X160996500Y-126586207D01*
X160996500Y-126743993D01*
X160965719Y-126898742D01*
X160905338Y-127044514D01*
X160905337Y-127044516D01*
X160817678Y-127175708D01*
X160706108Y-127287278D01*
X160574916Y-127374937D01*
X160574915Y-127374938D01*
X160574914Y-127374938D01*
X160429142Y-127435319D01*
X160274393Y-127466100D01*
X160116607Y-127466100D01*
X159961858Y-127435319D01*
X159816086Y-127374938D01*
X159816085Y-127374938D01*
X159816084Y-127374937D01*
X159684892Y-127287278D01*
X159573322Y-127175708D01*
X159485663Y-127044516D01*
X159485662Y-127044514D01*
X159425281Y-126898742D01*
X159394500Y-126743993D01*
X159394500Y-126586207D01*
X159425281Y-126431458D01*
X159485662Y-126285686D01*
X159485663Y-126285684D01*
X159573322Y-126154492D01*
X159684892Y-126042922D01*
X159816084Y-125955263D01*
X159816086Y-125955262D01*
X159961858Y-125894881D01*
X160116607Y-125864100D01*
X160274393Y-125864100D01*
X160429142Y-125894881D01*
G37*
G36*
X116629142Y-125894881D02*
G01*
X116774914Y-125955262D01*
X116774916Y-125955263D01*
X116906108Y-126042922D01*
X117017678Y-126154492D01*
X117105337Y-126285684D01*
X117105338Y-126285686D01*
X117165719Y-126431458D01*
X117196500Y-126586207D01*
X117196500Y-126743993D01*
X117165719Y-126898742D01*
X117105338Y-127044514D01*
X117105337Y-127044516D01*
X117017678Y-127175708D01*
X116906108Y-127287278D01*
X116774916Y-127374937D01*
X116774915Y-127374938D01*
X116774914Y-127374938D01*
X116629142Y-127435319D01*
X116474393Y-127466100D01*
X116316607Y-127466100D01*
X116161858Y-127435319D01*
X116016086Y-127374938D01*
X116016085Y-127374938D01*
X116016084Y-127374937D01*
X115884892Y-127287278D01*
X115773322Y-127175708D01*
X115685663Y-127044516D01*
X115685662Y-127044514D01*
X115625281Y-126898742D01*
X115594500Y-126743993D01*
X115594500Y-126586207D01*
X115625281Y-126431458D01*
X115685662Y-126285686D01*
X115685663Y-126285684D01*
X115773322Y-126154492D01*
X115884892Y-126042922D01*
X116016084Y-125955263D01*
X116016086Y-125955262D01*
X116161858Y-125894881D01*
X116316607Y-125864100D01*
X116474393Y-125864100D01*
X116629142Y-125894881D01*
G37*
G36*
X114089142Y-125894881D02*
G01*
X114234914Y-125955262D01*
X114234916Y-125955263D01*
X114366108Y-126042922D01*
X114477678Y-126154492D01*
X114565337Y-126285684D01*
X114565338Y-126285686D01*
X114625719Y-126431458D01*
X114656500Y-126586207D01*
X114656500Y-126743993D01*
X114625719Y-126898742D01*
X114565338Y-127044514D01*
X114565337Y-127044516D01*
X114477678Y-127175708D01*
X114366108Y-127287278D01*
X114234916Y-127374937D01*
X114234915Y-127374938D01*
X114234914Y-127374938D01*
X114089142Y-127435319D01*
X113934393Y-127466100D01*
X113776607Y-127466100D01*
X113621858Y-127435319D01*
X113476086Y-127374938D01*
X113476085Y-127374938D01*
X113476084Y-127374937D01*
X113344892Y-127287278D01*
X113233322Y-127175708D01*
X113145663Y-127044516D01*
X113145662Y-127044514D01*
X113085281Y-126898742D01*
X113054500Y-126743993D01*
X113054500Y-126586207D01*
X113085281Y-126431458D01*
X113145662Y-126285686D01*
X113145663Y-126285684D01*
X113233322Y-126154492D01*
X113344892Y-126042922D01*
X113476084Y-125955263D01*
X113476086Y-125955262D01*
X113621858Y-125894881D01*
X113776607Y-125864100D01*
X113934393Y-125864100D01*
X114089142Y-125894881D01*
G37*
G36*
X111549142Y-125894881D02*
G01*
X111694914Y-125955262D01*
X111694916Y-125955263D01*
X111826108Y-126042922D01*
X111937678Y-126154492D01*
X112025337Y-126285684D01*
X112025338Y-126285686D01*
X112085719Y-126431458D01*
X112116500Y-126586207D01*
X112116500Y-126743993D01*
X112085719Y-126898742D01*
X112025338Y-127044514D01*
X112025337Y-127044516D01*
X111937678Y-127175708D01*
X111826108Y-127287278D01*
X111694916Y-127374937D01*
X111694915Y-127374938D01*
X111694914Y-127374938D01*
X111549142Y-127435319D01*
X111394393Y-127466100D01*
X111236607Y-127466100D01*
X111081858Y-127435319D01*
X110936086Y-127374938D01*
X110936085Y-127374938D01*
X110936084Y-127374937D01*
X110804892Y-127287278D01*
X110693322Y-127175708D01*
X110605663Y-127044516D01*
X110605662Y-127044514D01*
X110545281Y-126898742D01*
X110514500Y-126743993D01*
X110514500Y-126586207D01*
X110545281Y-126431458D01*
X110605662Y-126285686D01*
X110605663Y-126285684D01*
X110693322Y-126154492D01*
X110804892Y-126042922D01*
X110936084Y-125955263D01*
X110936086Y-125955262D01*
X111081858Y-125894881D01*
X111236607Y-125864100D01*
X111394393Y-125864100D01*
X111549142Y-125894881D01*
G37*
G36*
X109009142Y-125894881D02*
G01*
X109154914Y-125955262D01*
X109154916Y-125955263D01*
X109286108Y-126042922D01*
X109397678Y-126154492D01*
X109485337Y-126285684D01*
X109485338Y-126285686D01*
X109545719Y-126431458D01*
X109576500Y-126586207D01*
X109576500Y-126743993D01*
X109545719Y-126898742D01*
X109485338Y-127044514D01*
X109485337Y-127044516D01*
X109397678Y-127175708D01*
X109286108Y-127287278D01*
X109154916Y-127374937D01*
X109154915Y-127374938D01*
X109154914Y-127374938D01*
X109009142Y-127435319D01*
X108854393Y-127466100D01*
X108696607Y-127466100D01*
X108541858Y-127435319D01*
X108396086Y-127374938D01*
X108396085Y-127374938D01*
X108396084Y-127374937D01*
X108264892Y-127287278D01*
X108153322Y-127175708D01*
X108065663Y-127044516D01*
X108065662Y-127044514D01*
X108005281Y-126898742D01*
X107974500Y-126743993D01*
X107974500Y-126586207D01*
X108005281Y-126431458D01*
X108065662Y-126285686D01*
X108065663Y-126285684D01*
X108153322Y-126154492D01*
X108264892Y-126042922D01*
X108396084Y-125955263D01*
X108396086Y-125955262D01*
X108541858Y-125894881D01*
X108696607Y-125864100D01*
X108854393Y-125864100D01*
X109009142Y-125894881D01*
G37*
G36*
X157889142Y-125894881D02*
G01*
X158034914Y-125955262D01*
X158034916Y-125955263D01*
X158166108Y-126042922D01*
X158277678Y-126154492D01*
X158365337Y-126285684D01*
X158365338Y-126285686D01*
X158425719Y-126431458D01*
X158456500Y-126586207D01*
X158456500Y-126743993D01*
X158425719Y-126898742D01*
X158365338Y-127044514D01*
X158365337Y-127044516D01*
X158277678Y-127175708D01*
X158166108Y-127287278D01*
X158034916Y-127374937D01*
X158034915Y-127374938D01*
X158034914Y-127374938D01*
X157889142Y-127435319D01*
X157734393Y-127466100D01*
X157576607Y-127466100D01*
X157421858Y-127435319D01*
X157276086Y-127374938D01*
X157276085Y-127374938D01*
X157276084Y-127374937D01*
X157144892Y-127287278D01*
X157033322Y-127175708D01*
X156945663Y-127044516D01*
X156945662Y-127044514D01*
X156885281Y-126898742D01*
X156854500Y-126743993D01*
X156854500Y-126586207D01*
X156885281Y-126431458D01*
X156945662Y-126285686D01*
X156945663Y-126285684D01*
X157033322Y-126154492D01*
X157144892Y-126042922D01*
X157276084Y-125955263D01*
X157276086Y-125955262D01*
X157421858Y-125894881D01*
X157576607Y-125864100D01*
X157734393Y-125864100D01*
X157889142Y-125894881D01*
G37*
G36*
X162969142Y-125894881D02*
G01*
X163114914Y-125955262D01*
X163114916Y-125955263D01*
X163246108Y-126042922D01*
X163357678Y-126154492D01*
X163445337Y-126285684D01*
X163445338Y-126285686D01*
X163505719Y-126431458D01*
X163536500Y-126586207D01*
X163536500Y-126743993D01*
X163505719Y-126898742D01*
X163445338Y-127044514D01*
X163445337Y-127044516D01*
X163357678Y-127175708D01*
X163246108Y-127287278D01*
X163114916Y-127374937D01*
X163114915Y-127374938D01*
X163114914Y-127374938D01*
X162969142Y-127435319D01*
X162814393Y-127466100D01*
X162656607Y-127466100D01*
X162501858Y-127435319D01*
X162356086Y-127374938D01*
X162356085Y-127374938D01*
X162356084Y-127374937D01*
X162224892Y-127287278D01*
X162113322Y-127175708D01*
X162025663Y-127044516D01*
X162025662Y-127044514D01*
X161965281Y-126898742D01*
X161934500Y-126743993D01*
X161934500Y-126586207D01*
X161965281Y-126431458D01*
X162025662Y-126285686D01*
X162025663Y-126285684D01*
X162113322Y-126154492D01*
X162224892Y-126042922D01*
X162356084Y-125955263D01*
X162356086Y-125955262D01*
X162501858Y-125894881D01*
X162656607Y-125864100D01*
X162814393Y-125864100D01*
X162969142Y-125894881D01*
G37*
G36*
X150836500Y-127466100D02*
G01*
X149234500Y-127466100D01*
X149234500Y-125864100D01*
X150836500Y-125864100D01*
X150836500Y-127466100D01*
G37*
G36*
X152809142Y-125894881D02*
G01*
X152954914Y-125955262D01*
X152954916Y-125955263D01*
X153086108Y-126042922D01*
X153197678Y-126154492D01*
X153285337Y-126285684D01*
X153285338Y-126285686D01*
X153345719Y-126431458D01*
X153376500Y-126586207D01*
X153376500Y-126743993D01*
X153345719Y-126898742D01*
X153285338Y-127044514D01*
X153285337Y-127044516D01*
X153197678Y-127175708D01*
X153086108Y-127287278D01*
X152954916Y-127374937D01*
X152954915Y-127374938D01*
X152954914Y-127374938D01*
X152809142Y-127435319D01*
X152654393Y-127466100D01*
X152496607Y-127466100D01*
X152341858Y-127435319D01*
X152196086Y-127374938D01*
X152196085Y-127374938D01*
X152196084Y-127374937D01*
X152064892Y-127287278D01*
X151953322Y-127175708D01*
X151865663Y-127044516D01*
X151865662Y-127044514D01*
X151805281Y-126898742D01*
X151774500Y-126743993D01*
X151774500Y-126586207D01*
X151805281Y-126431458D01*
X151865662Y-126285686D01*
X151865663Y-126285684D01*
X151953322Y-126154492D01*
X152064892Y-126042922D01*
X152196084Y-125955263D01*
X152196086Y-125955262D01*
X152341858Y-125894881D01*
X152496607Y-125864100D01*
X152654393Y-125864100D01*
X152809142Y-125894881D01*
G37*
G36*
X155349142Y-125894881D02*
G01*
X155494914Y-125955262D01*
X155494916Y-125955263D01*
X155626108Y-126042922D01*
X155737678Y-126154492D01*
X155825337Y-126285684D01*
X155825338Y-126285686D01*
X155885719Y-126431458D01*
X155916500Y-126586207D01*
X155916500Y-126743993D01*
X155885719Y-126898742D01*
X155825338Y-127044514D01*
X155825337Y-127044516D01*
X155737678Y-127175708D01*
X155626108Y-127287278D01*
X155494916Y-127374937D01*
X155494915Y-127374938D01*
X155494914Y-127374938D01*
X155349142Y-127435319D01*
X155194393Y-127466100D01*
X155036607Y-127466100D01*
X154881858Y-127435319D01*
X154736086Y-127374938D01*
X154736085Y-127374938D01*
X154736084Y-127374937D01*
X154604892Y-127287278D01*
X154493322Y-127175708D01*
X154405663Y-127044516D01*
X154405662Y-127044514D01*
X154345281Y-126898742D01*
X154314500Y-126743993D01*
X154314500Y-126586207D01*
X154345281Y-126431458D01*
X154405662Y-126285686D01*
X154405663Y-126285684D01*
X154493322Y-126154492D01*
X154604892Y-126042922D01*
X154736084Y-125955263D01*
X154736086Y-125955262D01*
X154881858Y-125894881D01*
X155036607Y-125864100D01*
X155194393Y-125864100D01*
X155349142Y-125894881D01*
G37*
G36*
X107036500Y-127466100D02*
G01*
X105434500Y-127466100D01*
X105434500Y-125864100D01*
X107036500Y-125864100D01*
X107036500Y-127466100D01*
G37*
G36*
X98358103Y-123389175D02*
G01*
X98585771Y-123483478D01*
X98790666Y-123620385D01*
X98964915Y-123794634D01*
X99101822Y-123999529D01*
X99101823Y-123999531D01*
X99153545Y-124124400D01*
X99196125Y-124227197D01*
X99244200Y-124468887D01*
X99244200Y-124715313D01*
X99196125Y-124957003D01*
X99101822Y-125184671D01*
X98964915Y-125389566D01*
X98790666Y-125563815D01*
X98585771Y-125700722D01*
X98585770Y-125700723D01*
X98585769Y-125700723D01*
X98358103Y-125795025D01*
X98116414Y-125843100D01*
X97869986Y-125843100D01*
X97628297Y-125795025D01*
X97400631Y-125700723D01*
X97400630Y-125700723D01*
X97400629Y-125700722D01*
X97195734Y-125563815D01*
X97021485Y-125389566D01*
X96884578Y-125184671D01*
X96790275Y-124957003D01*
X96742200Y-124715313D01*
X96742200Y-124468887D01*
X96790275Y-124227197D01*
X96832855Y-124124400D01*
X96884577Y-123999531D01*
X96884578Y-123999529D01*
X97021485Y-123794634D01*
X97195734Y-123620385D01*
X97400629Y-123483478D01*
X97628297Y-123389175D01*
X97869986Y-123341100D01*
X98116414Y-123341100D01*
X98358103Y-123389175D01*
G37*
G36*
X142158103Y-123389175D02*
G01*
X142385771Y-123483478D01*
X142590666Y-123620385D01*
X142764915Y-123794634D01*
X142901822Y-123999529D01*
X142901823Y-123999531D01*
X142953545Y-124124400D01*
X142996125Y-124227197D01*
X143044200Y-124468887D01*
X143044200Y-124715313D01*
X142996125Y-124957003D01*
X142901822Y-125184671D01*
X142764915Y-125389566D01*
X142590666Y-125563815D01*
X142385771Y-125700722D01*
X142385770Y-125700723D01*
X142385769Y-125700723D01*
X142158103Y-125795025D01*
X141916414Y-125843100D01*
X141669986Y-125843100D01*
X141428297Y-125795025D01*
X141200631Y-125700723D01*
X141200630Y-125700723D01*
X141200629Y-125700722D01*
X140995734Y-125563815D01*
X140821485Y-125389566D01*
X140684578Y-125184671D01*
X140590275Y-124957003D01*
X140542200Y-124715313D01*
X140542200Y-124468887D01*
X140590275Y-124227197D01*
X140632855Y-124124400D01*
X140684577Y-123999531D01*
X140684578Y-123999529D01*
X140821485Y-123794634D01*
X140995734Y-123620385D01*
X141200629Y-123483478D01*
X141428297Y-123389175D01*
X141669986Y-123341100D01*
X141916414Y-123341100D01*
X142158103Y-123389175D01*
G37*
G36*
X104367812Y-122327327D02*
G01*
X104517112Y-122357024D01*
X104681084Y-122424944D01*
X104828654Y-122523547D01*
X104954153Y-122649046D01*
X105052756Y-122796616D01*
X105120676Y-122960588D01*
X105155300Y-123134659D01*
X105155300Y-123312141D01*
X105120676Y-123486212D01*
X105052756Y-123650184D01*
X104954153Y-123797754D01*
X104828654Y-123923253D01*
X104681084Y-124021856D01*
X104517112Y-124089776D01*
X104367812Y-124119473D01*
X104343042Y-124124400D01*
X104165558Y-124124400D01*
X104140788Y-124119473D01*
X103991488Y-124089776D01*
X103827516Y-124021856D01*
X103679946Y-123923253D01*
X103554447Y-123797754D01*
X103455844Y-123650184D01*
X103387924Y-123486212D01*
X103353300Y-123312141D01*
X103353300Y-123134659D01*
X103387924Y-122960588D01*
X103455844Y-122796616D01*
X103554447Y-122649046D01*
X103679946Y-122523547D01*
X103827516Y-122424944D01*
X103991488Y-122357024D01*
X104140788Y-122327327D01*
X104165558Y-122322400D01*
X104343042Y-122322400D01*
X104367812Y-122327327D01*
G37*
G36*
X148167812Y-122327327D02*
G01*
X148317112Y-122357024D01*
X148481084Y-122424944D01*
X148628654Y-122523547D01*
X148754153Y-122649046D01*
X148852756Y-122796616D01*
X148920676Y-122960588D01*
X148955300Y-123134659D01*
X148955300Y-123312141D01*
X148920676Y-123486212D01*
X148852756Y-123650184D01*
X148754153Y-123797754D01*
X148628654Y-123923253D01*
X148481084Y-124021856D01*
X148317112Y-124089776D01*
X148167812Y-124119473D01*
X148143042Y-124124400D01*
X147965558Y-124124400D01*
X147940788Y-124119473D01*
X147791488Y-124089776D01*
X147627516Y-124021856D01*
X147479946Y-123923253D01*
X147354447Y-123797754D01*
X147255844Y-123650184D01*
X147187924Y-123486212D01*
X147153300Y-123312141D01*
X147153300Y-123134659D01*
X147187924Y-122960588D01*
X147255844Y-122796616D01*
X147354447Y-122649046D01*
X147479946Y-122523547D01*
X147627516Y-122424944D01*
X147791488Y-122357024D01*
X147940788Y-122327327D01*
X147965558Y-122322400D01*
X148143042Y-122322400D01*
X148167812Y-122327327D01*
G37*
G36*
X142136832Y-119884944D02*
G01*
X142158103Y-119889175D01*
X142385771Y-119983478D01*
X142590666Y-120120385D01*
X142764915Y-120294634D01*
X142901822Y-120499529D01*
X142901823Y-120499531D01*
X142996125Y-120727197D01*
X143039690Y-120946211D01*
X143044200Y-120968887D01*
X143044200Y-121215313D01*
X142996125Y-121457003D01*
X142901822Y-121684671D01*
X142764915Y-121889566D01*
X142590666Y-122063815D01*
X142385771Y-122200722D01*
X142385770Y-122200723D01*
X142385769Y-122200723D01*
X142158103Y-122295025D01*
X141916414Y-122343100D01*
X141669986Y-122343100D01*
X141428297Y-122295025D01*
X141200631Y-122200723D01*
X141200630Y-122200723D01*
X141200629Y-122200722D01*
X140995734Y-122063815D01*
X140821485Y-121889566D01*
X140684578Y-121684671D01*
X140590275Y-121457003D01*
X140542200Y-121215313D01*
X140542200Y-120968887D01*
X140546711Y-120946211D01*
X140590275Y-120727197D01*
X140684577Y-120499531D01*
X140684578Y-120499529D01*
X140821485Y-120294634D01*
X140995734Y-120120385D01*
X141200629Y-119983478D01*
X141428297Y-119889175D01*
X141449568Y-119884944D01*
X141669986Y-119841100D01*
X141916414Y-119841100D01*
X142136832Y-119884944D01*
G37*
G36*
X98336832Y-119884944D02*
G01*
X98358103Y-119889175D01*
X98585771Y-119983478D01*
X98790666Y-120120385D01*
X98964915Y-120294634D01*
X99101822Y-120499529D01*
X99101823Y-120499531D01*
X99196125Y-120727197D01*
X99239690Y-120946211D01*
X99244200Y-120968887D01*
X99244200Y-121215313D01*
X99196125Y-121457003D01*
X99101822Y-121684671D01*
X98964915Y-121889566D01*
X98790666Y-122063815D01*
X98585771Y-122200722D01*
X98585770Y-122200723D01*
X98585769Y-122200723D01*
X98358103Y-122295025D01*
X98116414Y-122343100D01*
X97869986Y-122343100D01*
X97628297Y-122295025D01*
X97400631Y-122200723D01*
X97400630Y-122200723D01*
X97400629Y-122200722D01*
X97195734Y-122063815D01*
X97021485Y-121889566D01*
X96884578Y-121684671D01*
X96790275Y-121457003D01*
X96742200Y-121215313D01*
X96742200Y-120968887D01*
X96746711Y-120946211D01*
X96790275Y-120727197D01*
X96884577Y-120499531D01*
X96884578Y-120499529D01*
X97021485Y-120294634D01*
X97195734Y-120120385D01*
X97400629Y-119983478D01*
X97628297Y-119889175D01*
X97649568Y-119884944D01*
X97869986Y-119841100D01*
X98116414Y-119841100D01*
X98336832Y-119884944D01*
G37*
G36*
X148167812Y-119787327D02*
G01*
X148317112Y-119817024D01*
X148481084Y-119884944D01*
X148628654Y-119983547D01*
X148754153Y-120109046D01*
X148852756Y-120256616D01*
X148920676Y-120420588D01*
X148955300Y-120594659D01*
X148955300Y-120772141D01*
X148920676Y-120946212D01*
X148852756Y-121110184D01*
X148754153Y-121257754D01*
X148628654Y-121383253D01*
X148481084Y-121481856D01*
X148317112Y-121549776D01*
X148167812Y-121579473D01*
X148143042Y-121584400D01*
X147965558Y-121584400D01*
X147940788Y-121579473D01*
X147791488Y-121549776D01*
X147627516Y-121481856D01*
X147479946Y-121383253D01*
X147354447Y-121257754D01*
X147255844Y-121110184D01*
X147187924Y-120946212D01*
X147153300Y-120772141D01*
X147153300Y-120594659D01*
X147187924Y-120420588D01*
X147255844Y-120256616D01*
X147354447Y-120109046D01*
X147479946Y-119983547D01*
X147627516Y-119884944D01*
X147791488Y-119817024D01*
X147940788Y-119787327D01*
X147965558Y-119782400D01*
X148143042Y-119782400D01*
X148167812Y-119787327D01*
G37*
G36*
X104367812Y-119787327D02*
G01*
X104517112Y-119817024D01*
X104681084Y-119884944D01*
X104828654Y-119983547D01*
X104954153Y-120109046D01*
X105052756Y-120256616D01*
X105120676Y-120420588D01*
X105155300Y-120594659D01*
X105155300Y-120772141D01*
X105120676Y-120946212D01*
X105052756Y-121110184D01*
X104954153Y-121257754D01*
X104828654Y-121383253D01*
X104681084Y-121481856D01*
X104517112Y-121549776D01*
X104367812Y-121579473D01*
X104343042Y-121584400D01*
X104165558Y-121584400D01*
X104140788Y-121579473D01*
X103991488Y-121549776D01*
X103827516Y-121481856D01*
X103679946Y-121383253D01*
X103554447Y-121257754D01*
X103455844Y-121110184D01*
X103387924Y-120946212D01*
X103353300Y-120772141D01*
X103353300Y-120594659D01*
X103387924Y-120420588D01*
X103455844Y-120256616D01*
X103554447Y-120109046D01*
X103679946Y-119983547D01*
X103827516Y-119884944D01*
X103991488Y-119817024D01*
X104140788Y-119787327D01*
X104165558Y-119782400D01*
X104343042Y-119782400D01*
X104367812Y-119787327D01*
G37*
G36*
X148167812Y-117247327D02*
G01*
X148317112Y-117277024D01*
X148481084Y-117344944D01*
X148628654Y-117443547D01*
X148754153Y-117569046D01*
X148852756Y-117716616D01*
X148920676Y-117880588D01*
X148955300Y-118054659D01*
X148955300Y-118232141D01*
X148920676Y-118406212D01*
X148852756Y-118570184D01*
X148754153Y-118717754D01*
X148628654Y-118843253D01*
X148481084Y-118941856D01*
X148317112Y-119009776D01*
X148167812Y-119039473D01*
X148143042Y-119044400D01*
X147965558Y-119044400D01*
X147940788Y-119039473D01*
X147791488Y-119009776D01*
X147627516Y-118941856D01*
X147479946Y-118843253D01*
X147354447Y-118717754D01*
X147255844Y-118570184D01*
X147187924Y-118406212D01*
X147153300Y-118232141D01*
X147153300Y-118054659D01*
X147187924Y-117880588D01*
X147255844Y-117716616D01*
X147354447Y-117569046D01*
X147479946Y-117443547D01*
X147627516Y-117344944D01*
X147791488Y-117277024D01*
X147940788Y-117247327D01*
X147965558Y-117242400D01*
X148143042Y-117242400D01*
X148167812Y-117247327D01*
G37*
G36*
X104367812Y-117247327D02*
G01*
X104517112Y-117277024D01*
X104681084Y-117344944D01*
X104828654Y-117443547D01*
X104954153Y-117569046D01*
X105052756Y-117716616D01*
X105120676Y-117880588D01*
X105155300Y-118054659D01*
X105155300Y-118232141D01*
X105120676Y-118406212D01*
X105052756Y-118570184D01*
X104954153Y-118717754D01*
X104828654Y-118843253D01*
X104681084Y-118941856D01*
X104517112Y-119009776D01*
X104367812Y-119039473D01*
X104343042Y-119044400D01*
X104165558Y-119044400D01*
X104140788Y-119039473D01*
X103991488Y-119009776D01*
X103827516Y-118941856D01*
X103679946Y-118843253D01*
X103554447Y-118717754D01*
X103455844Y-118570184D01*
X103387924Y-118406212D01*
X103353300Y-118232141D01*
X103353300Y-118054659D01*
X103387924Y-117880588D01*
X103455844Y-117716616D01*
X103554447Y-117569046D01*
X103679946Y-117443547D01*
X103827516Y-117344944D01*
X103991488Y-117277024D01*
X104140788Y-117247327D01*
X104165558Y-117242400D01*
X104343042Y-117242400D01*
X104367812Y-117247327D01*
G37*
G36*
X98358103Y-116389175D02*
G01*
X98585771Y-116483478D01*
X98790666Y-116620385D01*
X98964915Y-116794634D01*
X98964916Y-116794636D01*
X99101823Y-116999531D01*
X99196125Y-117227197D01*
X99244200Y-117468886D01*
X99244200Y-117715314D01*
X99211325Y-117880588D01*
X99196125Y-117957003D01*
X99101822Y-118184671D01*
X98964915Y-118389566D01*
X98790666Y-118563815D01*
X98585771Y-118700722D01*
X98585770Y-118700723D01*
X98585769Y-118700723D01*
X98358103Y-118795025D01*
X98116414Y-118843100D01*
X97869986Y-118843100D01*
X97628297Y-118795025D01*
X97400631Y-118700723D01*
X97400630Y-118700723D01*
X97400629Y-118700722D01*
X97195734Y-118563815D01*
X97021485Y-118389566D01*
X96884578Y-118184671D01*
X96790275Y-117957003D01*
X96775075Y-117880588D01*
X96742200Y-117715314D01*
X96742200Y-117468886D01*
X96790275Y-117227197D01*
X96884577Y-116999531D01*
X97021484Y-116794636D01*
X97021485Y-116794634D01*
X97195734Y-116620385D01*
X97400629Y-116483478D01*
X97628297Y-116389175D01*
X97869986Y-116341100D01*
X98116414Y-116341100D01*
X98358103Y-116389175D01*
G37*
G36*
X142158103Y-116389175D02*
G01*
X142385771Y-116483478D01*
X142590666Y-116620385D01*
X142764915Y-116794634D01*
X142764916Y-116794636D01*
X142901823Y-116999531D01*
X142996125Y-117227197D01*
X143044200Y-117468886D01*
X143044200Y-117715314D01*
X143011325Y-117880588D01*
X142996125Y-117957003D01*
X142901822Y-118184671D01*
X142764915Y-118389566D01*
X142590666Y-118563815D01*
X142385771Y-118700722D01*
X142385770Y-118700723D01*
X142385769Y-118700723D01*
X142158103Y-118795025D01*
X141916414Y-118843100D01*
X141669986Y-118843100D01*
X141428297Y-118795025D01*
X141200631Y-118700723D01*
X141200630Y-118700723D01*
X141200629Y-118700722D01*
X140995734Y-118563815D01*
X140821485Y-118389566D01*
X140684578Y-118184671D01*
X140590275Y-117957003D01*
X140575075Y-117880588D01*
X140542200Y-117715314D01*
X140542200Y-117468886D01*
X140590275Y-117227197D01*
X140684577Y-116999531D01*
X140821484Y-116794636D01*
X140821485Y-116794634D01*
X140995734Y-116620385D01*
X141200629Y-116483478D01*
X141428297Y-116389175D01*
X141669986Y-116341100D01*
X141916414Y-116341100D01*
X142158103Y-116389175D01*
G37*
G36*
X105155300Y-116504400D02*
G01*
X103353300Y-116504400D01*
X103353300Y-114702400D01*
X105155300Y-114702400D01*
X105155300Y-116504400D01*
G37*
G36*
X148955300Y-116504400D02*
G01*
X147153300Y-116504400D01*
X147153300Y-114702400D01*
X148955300Y-114702400D01*
X148955300Y-116504400D01*
G37*
G36*
X143044200Y-115343100D02*
G01*
X140542200Y-115343100D01*
X140542200Y-112841100D01*
X143044200Y-112841100D01*
X143044200Y-115343100D01*
G37*
G36*
X99244200Y-115343100D02*
G01*
X96742200Y-115343100D01*
X96742200Y-112841100D01*
X99244200Y-112841100D01*
X99244200Y-115343100D01*
G37*
G36*
X152809142Y-110654881D02*
G01*
X152954914Y-110715262D01*
X152954916Y-110715263D01*
X153086108Y-110802922D01*
X153197678Y-110914492D01*
X153285337Y-111045684D01*
X153285338Y-111045686D01*
X153345719Y-111191458D01*
X153376500Y-111346207D01*
X153376500Y-111503993D01*
X153345719Y-111658742D01*
X153285338Y-111804514D01*
X153285337Y-111804516D01*
X153197678Y-111935708D01*
X153086108Y-112047278D01*
X152954916Y-112134937D01*
X152954915Y-112134938D01*
X152954914Y-112134938D01*
X152809142Y-112195319D01*
X152654393Y-112226100D01*
X152496607Y-112226100D01*
X152341858Y-112195319D01*
X152196086Y-112134938D01*
X152196085Y-112134938D01*
X152196084Y-112134937D01*
X152064892Y-112047278D01*
X151953322Y-111935708D01*
X151865663Y-111804516D01*
X151865662Y-111804514D01*
X151805281Y-111658742D01*
X151774500Y-111503993D01*
X151774500Y-111346207D01*
X151805281Y-111191458D01*
X151865662Y-111045686D01*
X151865663Y-111045684D01*
X151953322Y-110914492D01*
X152064892Y-110802922D01*
X152196084Y-110715263D01*
X152196086Y-110715262D01*
X152341858Y-110654881D01*
X152496607Y-110624100D01*
X152654393Y-110624100D01*
X152809142Y-110654881D01*
G37*
G36*
X106469142Y-110654881D02*
G01*
X106614914Y-110715262D01*
X106614916Y-110715263D01*
X106746108Y-110802922D01*
X106857678Y-110914492D01*
X106945337Y-111045684D01*
X106945338Y-111045686D01*
X107005719Y-111191458D01*
X107036500Y-111346207D01*
X107036500Y-111503993D01*
X107005719Y-111658742D01*
X106945338Y-111804514D01*
X106945337Y-111804516D01*
X106857678Y-111935708D01*
X106746108Y-112047278D01*
X106614916Y-112134937D01*
X106614915Y-112134938D01*
X106614914Y-112134938D01*
X106469142Y-112195319D01*
X106314393Y-112226100D01*
X106156607Y-112226100D01*
X106001858Y-112195319D01*
X105856086Y-112134938D01*
X105856085Y-112134938D01*
X105856084Y-112134937D01*
X105724892Y-112047278D01*
X105613322Y-111935708D01*
X105525663Y-111804516D01*
X105525662Y-111804514D01*
X105465281Y-111658742D01*
X105434500Y-111503993D01*
X105434500Y-111346207D01*
X105465281Y-111191458D01*
X105525662Y-111045686D01*
X105525663Y-111045684D01*
X105613322Y-110914492D01*
X105724892Y-110802922D01*
X105856084Y-110715263D01*
X105856086Y-110715262D01*
X106001858Y-110654881D01*
X106156607Y-110624100D01*
X106314393Y-110624100D01*
X106469142Y-110654881D01*
G37*
G36*
X109009142Y-110654881D02*
G01*
X109154914Y-110715262D01*
X109154916Y-110715263D01*
X109286108Y-110802922D01*
X109397678Y-110914492D01*
X109485337Y-111045684D01*
X109485338Y-111045686D01*
X109545719Y-111191458D01*
X109576500Y-111346207D01*
X109576500Y-111503993D01*
X109545719Y-111658742D01*
X109485338Y-111804514D01*
X109485337Y-111804516D01*
X109397678Y-111935708D01*
X109286108Y-112047278D01*
X109154916Y-112134937D01*
X109154915Y-112134938D01*
X109154914Y-112134938D01*
X109009142Y-112195319D01*
X108854393Y-112226100D01*
X108696607Y-112226100D01*
X108541858Y-112195319D01*
X108396086Y-112134938D01*
X108396085Y-112134938D01*
X108396084Y-112134937D01*
X108264892Y-112047278D01*
X108153322Y-111935708D01*
X108065663Y-111804516D01*
X108065662Y-111804514D01*
X108005281Y-111658742D01*
X107974500Y-111503993D01*
X107974500Y-111346207D01*
X108005281Y-111191458D01*
X108065662Y-111045686D01*
X108065663Y-111045684D01*
X108153322Y-110914492D01*
X108264892Y-110802922D01*
X108396084Y-110715263D01*
X108396086Y-110715262D01*
X108541858Y-110654881D01*
X108696607Y-110624100D01*
X108854393Y-110624100D01*
X109009142Y-110654881D01*
G37*
G36*
X111549142Y-110654881D02*
G01*
X111694914Y-110715262D01*
X111694916Y-110715263D01*
X111826108Y-110802922D01*
X111937678Y-110914492D01*
X112025337Y-111045684D01*
X112025338Y-111045686D01*
X112085719Y-111191458D01*
X112116500Y-111346207D01*
X112116500Y-111503993D01*
X112085719Y-111658742D01*
X112025338Y-111804514D01*
X112025337Y-111804516D01*
X111937678Y-111935708D01*
X111826108Y-112047278D01*
X111694916Y-112134937D01*
X111694915Y-112134938D01*
X111694914Y-112134938D01*
X111549142Y-112195319D01*
X111394393Y-112226100D01*
X111236607Y-112226100D01*
X111081858Y-112195319D01*
X110936086Y-112134938D01*
X110936085Y-112134938D01*
X110936084Y-112134937D01*
X110804892Y-112047278D01*
X110693322Y-111935708D01*
X110605663Y-111804516D01*
X110605662Y-111804514D01*
X110545281Y-111658742D01*
X110514500Y-111503993D01*
X110514500Y-111346207D01*
X110545281Y-111191458D01*
X110605662Y-111045686D01*
X110605663Y-111045684D01*
X110693322Y-110914492D01*
X110804892Y-110802922D01*
X110936084Y-110715263D01*
X110936086Y-110715262D01*
X111081858Y-110654881D01*
X111236607Y-110624100D01*
X111394393Y-110624100D01*
X111549142Y-110654881D01*
G37*
G36*
X119169142Y-110654881D02*
G01*
X119314914Y-110715262D01*
X119314916Y-110715263D01*
X119446108Y-110802922D01*
X119557678Y-110914492D01*
X119645337Y-111045684D01*
X119645338Y-111045686D01*
X119705719Y-111191458D01*
X119736500Y-111346207D01*
X119736500Y-111503993D01*
X119705719Y-111658742D01*
X119645338Y-111804514D01*
X119645337Y-111804516D01*
X119557678Y-111935708D01*
X119446108Y-112047278D01*
X119314916Y-112134937D01*
X119314915Y-112134938D01*
X119314914Y-112134938D01*
X119169142Y-112195319D01*
X119014393Y-112226100D01*
X118856607Y-112226100D01*
X118701858Y-112195319D01*
X118556086Y-112134938D01*
X118556085Y-112134938D01*
X118556084Y-112134937D01*
X118424892Y-112047278D01*
X118313322Y-111935708D01*
X118225663Y-111804516D01*
X118225662Y-111804514D01*
X118165281Y-111658742D01*
X118134500Y-111503993D01*
X118134500Y-111346207D01*
X118165281Y-111191458D01*
X118225662Y-111045686D01*
X118225663Y-111045684D01*
X118313322Y-110914492D01*
X118424892Y-110802922D01*
X118556084Y-110715263D01*
X118556086Y-110715262D01*
X118701858Y-110654881D01*
X118856607Y-110624100D01*
X119014393Y-110624100D01*
X119169142Y-110654881D01*
G37*
G36*
X150269142Y-110654881D02*
G01*
X150414914Y-110715262D01*
X150414916Y-110715263D01*
X150546108Y-110802922D01*
X150657678Y-110914492D01*
X150745337Y-111045684D01*
X150745338Y-111045686D01*
X150805719Y-111191458D01*
X150836500Y-111346207D01*
X150836500Y-111503993D01*
X150805719Y-111658742D01*
X150745338Y-111804514D01*
X150745337Y-111804516D01*
X150657678Y-111935708D01*
X150546108Y-112047278D01*
X150414916Y-112134937D01*
X150414915Y-112134938D01*
X150414914Y-112134938D01*
X150269142Y-112195319D01*
X150114393Y-112226100D01*
X149956607Y-112226100D01*
X149801858Y-112195319D01*
X149656086Y-112134938D01*
X149656085Y-112134938D01*
X149656084Y-112134937D01*
X149524892Y-112047278D01*
X149413322Y-111935708D01*
X149325663Y-111804516D01*
X149325662Y-111804514D01*
X149265281Y-111658742D01*
X149234500Y-111503993D01*
X149234500Y-111346207D01*
X149265281Y-111191458D01*
X149325662Y-111045686D01*
X149325663Y-111045684D01*
X149413322Y-110914492D01*
X149524892Y-110802922D01*
X149656084Y-110715263D01*
X149656086Y-110715262D01*
X149801858Y-110654881D01*
X149956607Y-110624100D01*
X150114393Y-110624100D01*
X150269142Y-110654881D01*
G37*
G36*
X116629142Y-110654881D02*
G01*
X116774914Y-110715262D01*
X116774916Y-110715263D01*
X116906108Y-110802922D01*
X117017678Y-110914492D01*
X117105337Y-111045684D01*
X117105338Y-111045686D01*
X117165719Y-111191458D01*
X117196500Y-111346207D01*
X117196500Y-111503993D01*
X117165719Y-111658742D01*
X117105338Y-111804514D01*
X117105337Y-111804516D01*
X117017678Y-111935708D01*
X116906108Y-112047278D01*
X116774916Y-112134937D01*
X116774915Y-112134938D01*
X116774914Y-112134938D01*
X116629142Y-112195319D01*
X116474393Y-112226100D01*
X116316607Y-112226100D01*
X116161858Y-112195319D01*
X116016086Y-112134938D01*
X116016085Y-112134938D01*
X116016084Y-112134937D01*
X115884892Y-112047278D01*
X115773322Y-111935708D01*
X115685663Y-111804516D01*
X115685662Y-111804514D01*
X115625281Y-111658742D01*
X115594500Y-111503993D01*
X115594500Y-111346207D01*
X115625281Y-111191458D01*
X115685662Y-111045686D01*
X115685663Y-111045684D01*
X115773322Y-110914492D01*
X115884892Y-110802922D01*
X116016084Y-110715263D01*
X116016086Y-110715262D01*
X116161858Y-110654881D01*
X116316607Y-110624100D01*
X116474393Y-110624100D01*
X116629142Y-110654881D01*
G37*
G36*
X157889142Y-110654881D02*
G01*
X158034914Y-110715262D01*
X158034916Y-110715263D01*
X158166108Y-110802922D01*
X158277678Y-110914492D01*
X158365337Y-111045684D01*
X158365338Y-111045686D01*
X158425719Y-111191458D01*
X158456500Y-111346207D01*
X158456500Y-111503993D01*
X158425719Y-111658742D01*
X158365338Y-111804514D01*
X158365337Y-111804516D01*
X158277678Y-111935708D01*
X158166108Y-112047278D01*
X158034916Y-112134937D01*
X158034915Y-112134938D01*
X158034914Y-112134938D01*
X157889142Y-112195319D01*
X157734393Y-112226100D01*
X157576607Y-112226100D01*
X157421858Y-112195319D01*
X157276086Y-112134938D01*
X157276085Y-112134938D01*
X157276084Y-112134937D01*
X157144892Y-112047278D01*
X157033322Y-111935708D01*
X156945663Y-111804516D01*
X156945662Y-111804514D01*
X156885281Y-111658742D01*
X156854500Y-111503993D01*
X156854500Y-111346207D01*
X156885281Y-111191458D01*
X156945662Y-111045686D01*
X156945663Y-111045684D01*
X157033322Y-110914492D01*
X157144892Y-110802922D01*
X157276084Y-110715263D01*
X157276086Y-110715262D01*
X157421858Y-110654881D01*
X157576607Y-110624100D01*
X157734393Y-110624100D01*
X157889142Y-110654881D01*
G37*
G36*
X160429142Y-110654881D02*
G01*
X160574914Y-110715262D01*
X160574916Y-110715263D01*
X160706108Y-110802922D01*
X160817678Y-110914492D01*
X160905337Y-111045684D01*
X160905338Y-111045686D01*
X160965719Y-111191458D01*
X160996500Y-111346207D01*
X160996500Y-111503993D01*
X160965719Y-111658742D01*
X160905338Y-111804514D01*
X160905337Y-111804516D01*
X160817678Y-111935708D01*
X160706108Y-112047278D01*
X160574916Y-112134937D01*
X160574915Y-112134938D01*
X160574914Y-112134938D01*
X160429142Y-112195319D01*
X160274393Y-112226100D01*
X160116607Y-112226100D01*
X159961858Y-112195319D01*
X159816086Y-112134938D01*
X159816085Y-112134938D01*
X159816084Y-112134937D01*
X159684892Y-112047278D01*
X159573322Y-111935708D01*
X159485663Y-111804516D01*
X159485662Y-111804514D01*
X159425281Y-111658742D01*
X159394500Y-111503993D01*
X159394500Y-111346207D01*
X159425281Y-111191458D01*
X159485662Y-111045686D01*
X159485663Y-111045684D01*
X159573322Y-110914492D01*
X159684892Y-110802922D01*
X159816084Y-110715263D01*
X159816086Y-110715262D01*
X159961858Y-110654881D01*
X160116607Y-110624100D01*
X160274393Y-110624100D01*
X160429142Y-110654881D01*
G37*
G36*
X162969142Y-110654881D02*
G01*
X163114914Y-110715262D01*
X163114916Y-110715263D01*
X163246108Y-110802922D01*
X163357678Y-110914492D01*
X163445337Y-111045684D01*
X163445338Y-111045686D01*
X163505719Y-111191458D01*
X163536500Y-111346207D01*
X163536500Y-111503993D01*
X163505719Y-111658742D01*
X163445338Y-111804514D01*
X163445337Y-111804516D01*
X163357678Y-111935708D01*
X163246108Y-112047278D01*
X163114916Y-112134937D01*
X163114915Y-112134938D01*
X163114914Y-112134938D01*
X162969142Y-112195319D01*
X162814393Y-112226100D01*
X162656607Y-112226100D01*
X162501858Y-112195319D01*
X162356086Y-112134938D01*
X162356085Y-112134938D01*
X162356084Y-112134937D01*
X162224892Y-112047278D01*
X162113322Y-111935708D01*
X162025663Y-111804516D01*
X162025662Y-111804514D01*
X161965281Y-111658742D01*
X161934500Y-111503993D01*
X161934500Y-111346207D01*
X161965281Y-111191458D01*
X162025662Y-111045686D01*
X162025663Y-111045684D01*
X162113322Y-110914492D01*
X162224892Y-110802922D01*
X162356084Y-110715263D01*
X162356086Y-110715262D01*
X162501858Y-110654881D01*
X162656607Y-110624100D01*
X162814393Y-110624100D01*
X162969142Y-110654881D01*
G37*
G36*
X114089142Y-110654881D02*
G01*
X114234914Y-110715262D01*
X114234916Y-110715263D01*
X114366108Y-110802922D01*
X114477678Y-110914492D01*
X114565337Y-111045684D01*
X114565338Y-111045686D01*
X114625719Y-111191458D01*
X114656500Y-111346207D01*
X114656500Y-111503993D01*
X114625719Y-111658742D01*
X114565338Y-111804514D01*
X114565337Y-111804516D01*
X114477678Y-111935708D01*
X114366108Y-112047278D01*
X114234916Y-112134937D01*
X114234915Y-112134938D01*
X114234914Y-112134938D01*
X114089142Y-112195319D01*
X113934393Y-112226100D01*
X113776607Y-112226100D01*
X113621858Y-112195319D01*
X113476086Y-112134938D01*
X113476085Y-112134938D01*
X113476084Y-112134937D01*
X113344892Y-112047278D01*
X113233322Y-111935708D01*
X113145663Y-111804516D01*
X113145662Y-111804514D01*
X113085281Y-111658742D01*
X113054500Y-111503993D01*
X113054500Y-111346207D01*
X113085281Y-111191458D01*
X113145662Y-111045686D01*
X113145663Y-111045684D01*
X113233322Y-110914492D01*
X113344892Y-110802922D01*
X113476084Y-110715263D01*
X113476086Y-110715262D01*
X113621858Y-110654881D01*
X113776607Y-110624100D01*
X113934393Y-110624100D01*
X114089142Y-110654881D01*
G37*
G36*
X155349142Y-110654881D02*
G01*
X155494914Y-110715262D01*
X155494916Y-110715263D01*
X155626108Y-110802922D01*
X155737678Y-110914492D01*
X155825337Y-111045684D01*
X155825338Y-111045686D01*
X155885719Y-111191458D01*
X155916500Y-111346207D01*
X155916500Y-111503993D01*
X155885719Y-111658742D01*
X155825338Y-111804514D01*
X155825337Y-111804516D01*
X155737678Y-111935708D01*
X155626108Y-112047278D01*
X155494916Y-112134937D01*
X155494915Y-112134938D01*
X155494914Y-112134938D01*
X155349142Y-112195319D01*
X155194393Y-112226100D01*
X155036607Y-112226100D01*
X154881858Y-112195319D01*
X154736086Y-112134938D01*
X154736085Y-112134938D01*
X154736084Y-112134937D01*
X154604892Y-112047278D01*
X154493322Y-111935708D01*
X154405663Y-111804516D01*
X154405662Y-111804514D01*
X154345281Y-111658742D01*
X154314500Y-111503993D01*
X154314500Y-111346207D01*
X154345281Y-111191458D01*
X154405662Y-111045686D01*
X154405663Y-111045684D01*
X154493322Y-110914492D01*
X154604892Y-110802922D01*
X154736084Y-110715263D01*
X154736086Y-110715262D01*
X154881858Y-110654881D01*
X155036607Y-110624100D01*
X155194393Y-110624100D01*
X155349142Y-110654881D01*
G37*
G36*
X157889142Y-104894881D02*
G01*
X158034914Y-104955262D01*
X158034916Y-104955263D01*
X158166108Y-105042922D01*
X158277678Y-105154492D01*
X158365337Y-105285684D01*
X158365338Y-105285686D01*
X158425719Y-105431458D01*
X158456500Y-105586207D01*
X158456500Y-105743993D01*
X158425719Y-105898742D01*
X158365338Y-106044514D01*
X158365337Y-106044516D01*
X158277678Y-106175708D01*
X158166108Y-106287278D01*
X158034916Y-106374937D01*
X158034915Y-106374938D01*
X158034914Y-106374938D01*
X157889142Y-106435319D01*
X157734393Y-106466100D01*
X157576607Y-106466100D01*
X157421858Y-106435319D01*
X157276086Y-106374938D01*
X157276085Y-106374938D01*
X157276084Y-106374937D01*
X157144892Y-106287278D01*
X157033322Y-106175708D01*
X156945663Y-106044516D01*
X156945662Y-106044514D01*
X156885281Y-105898742D01*
X156854500Y-105743993D01*
X156854500Y-105586207D01*
X156885281Y-105431458D01*
X156945662Y-105285686D01*
X156945663Y-105285684D01*
X157033322Y-105154492D01*
X157144892Y-105042922D01*
X157276084Y-104955263D01*
X157276086Y-104955262D01*
X157421858Y-104894881D01*
X157576607Y-104864100D01*
X157734393Y-104864100D01*
X157889142Y-104894881D01*
G37*
G36*
X119169142Y-104894881D02*
G01*
X119314914Y-104955262D01*
X119314916Y-104955263D01*
X119446108Y-105042922D01*
X119557678Y-105154492D01*
X119645337Y-105285684D01*
X119645338Y-105285686D01*
X119705719Y-105431458D01*
X119736500Y-105586207D01*
X119736500Y-105743993D01*
X119705719Y-105898742D01*
X119645338Y-106044514D01*
X119645337Y-106044516D01*
X119557678Y-106175708D01*
X119446108Y-106287278D01*
X119314916Y-106374937D01*
X119314915Y-106374938D01*
X119314914Y-106374938D01*
X119169142Y-106435319D01*
X119014393Y-106466100D01*
X118856607Y-106466100D01*
X118701858Y-106435319D01*
X118556086Y-106374938D01*
X118556085Y-106374938D01*
X118556084Y-106374937D01*
X118424892Y-106287278D01*
X118313322Y-106175708D01*
X118225663Y-106044516D01*
X118225662Y-106044514D01*
X118165281Y-105898742D01*
X118134500Y-105743993D01*
X118134500Y-105586207D01*
X118165281Y-105431458D01*
X118225662Y-105285686D01*
X118225663Y-105285684D01*
X118313322Y-105154492D01*
X118424892Y-105042922D01*
X118556084Y-104955263D01*
X118556086Y-104955262D01*
X118701858Y-104894881D01*
X118856607Y-104864100D01*
X119014393Y-104864100D01*
X119169142Y-104894881D01*
G37*
G36*
X116629142Y-104894881D02*
G01*
X116774914Y-104955262D01*
X116774916Y-104955263D01*
X116906108Y-105042922D01*
X117017678Y-105154492D01*
X117105337Y-105285684D01*
X117105338Y-105285686D01*
X117165719Y-105431458D01*
X117196500Y-105586207D01*
X117196500Y-105743993D01*
X117165719Y-105898742D01*
X117105338Y-106044514D01*
X117105337Y-106044516D01*
X117017678Y-106175708D01*
X116906108Y-106287278D01*
X116774916Y-106374937D01*
X116774915Y-106374938D01*
X116774914Y-106374938D01*
X116629142Y-106435319D01*
X116474393Y-106466100D01*
X116316607Y-106466100D01*
X116161858Y-106435319D01*
X116016086Y-106374938D01*
X116016085Y-106374938D01*
X116016084Y-106374937D01*
X115884892Y-106287278D01*
X115773322Y-106175708D01*
X115685663Y-106044516D01*
X115685662Y-106044514D01*
X115625281Y-105898742D01*
X115594500Y-105743993D01*
X115594500Y-105586207D01*
X115625281Y-105431458D01*
X115685662Y-105285686D01*
X115685663Y-105285684D01*
X115773322Y-105154492D01*
X115884892Y-105042922D01*
X116016084Y-104955263D01*
X116016086Y-104955262D01*
X116161858Y-104894881D01*
X116316607Y-104864100D01*
X116474393Y-104864100D01*
X116629142Y-104894881D01*
G37*
G36*
X114089142Y-104894881D02*
G01*
X114234914Y-104955262D01*
X114234916Y-104955263D01*
X114366108Y-105042922D01*
X114477678Y-105154492D01*
X114565337Y-105285684D01*
X114565338Y-105285686D01*
X114625719Y-105431458D01*
X114656500Y-105586207D01*
X114656500Y-105743993D01*
X114625719Y-105898742D01*
X114565338Y-106044514D01*
X114565337Y-106044516D01*
X114477678Y-106175708D01*
X114366108Y-106287278D01*
X114234916Y-106374937D01*
X114234915Y-106374938D01*
X114234914Y-106374938D01*
X114089142Y-106435319D01*
X113934393Y-106466100D01*
X113776607Y-106466100D01*
X113621858Y-106435319D01*
X113476086Y-106374938D01*
X113476085Y-106374938D01*
X113476084Y-106374937D01*
X113344892Y-106287278D01*
X113233322Y-106175708D01*
X113145663Y-106044516D01*
X113145662Y-106044514D01*
X113085281Y-105898742D01*
X113054500Y-105743993D01*
X113054500Y-105586207D01*
X113085281Y-105431458D01*
X113145662Y-105285686D01*
X113145663Y-105285684D01*
X113233322Y-105154492D01*
X113344892Y-105042922D01*
X113476084Y-104955263D01*
X113476086Y-104955262D01*
X113621858Y-104894881D01*
X113776607Y-104864100D01*
X113934393Y-104864100D01*
X114089142Y-104894881D01*
G37*
G36*
X111549142Y-104894881D02*
G01*
X111694914Y-104955262D01*
X111694916Y-104955263D01*
X111826108Y-105042922D01*
X111937678Y-105154492D01*
X112025337Y-105285684D01*
X112025338Y-105285686D01*
X112085719Y-105431458D01*
X112116500Y-105586207D01*
X112116500Y-105743993D01*
X112085719Y-105898742D01*
X112025338Y-106044514D01*
X112025337Y-106044516D01*
X111937678Y-106175708D01*
X111826108Y-106287278D01*
X111694916Y-106374937D01*
X111694915Y-106374938D01*
X111694914Y-106374938D01*
X111549142Y-106435319D01*
X111394393Y-106466100D01*
X111236607Y-106466100D01*
X111081858Y-106435319D01*
X110936086Y-106374938D01*
X110936085Y-106374938D01*
X110936084Y-106374937D01*
X110804892Y-106287278D01*
X110693322Y-106175708D01*
X110605663Y-106044516D01*
X110605662Y-106044514D01*
X110545281Y-105898742D01*
X110514500Y-105743993D01*
X110514500Y-105586207D01*
X110545281Y-105431458D01*
X110605662Y-105285686D01*
X110605663Y-105285684D01*
X110693322Y-105154492D01*
X110804892Y-105042922D01*
X110936084Y-104955263D01*
X110936086Y-104955262D01*
X111081858Y-104894881D01*
X111236607Y-104864100D01*
X111394393Y-104864100D01*
X111549142Y-104894881D01*
G37*
G36*
X109009142Y-104894881D02*
G01*
X109154914Y-104955262D01*
X109154916Y-104955263D01*
X109286108Y-105042922D01*
X109397678Y-105154492D01*
X109485337Y-105285684D01*
X109485338Y-105285686D01*
X109545719Y-105431458D01*
X109576500Y-105586207D01*
X109576500Y-105743993D01*
X109545719Y-105898742D01*
X109485338Y-106044514D01*
X109485337Y-106044516D01*
X109397678Y-106175708D01*
X109286108Y-106287278D01*
X109154916Y-106374937D01*
X109154915Y-106374938D01*
X109154914Y-106374938D01*
X109009142Y-106435319D01*
X108854393Y-106466100D01*
X108696607Y-106466100D01*
X108541858Y-106435319D01*
X108396086Y-106374938D01*
X108396085Y-106374938D01*
X108396084Y-106374937D01*
X108264892Y-106287278D01*
X108153322Y-106175708D01*
X108065663Y-106044516D01*
X108065662Y-106044514D01*
X108005281Y-105898742D01*
X107974500Y-105743993D01*
X107974500Y-105586207D01*
X108005281Y-105431458D01*
X108065662Y-105285686D01*
X108065663Y-105285684D01*
X108153322Y-105154492D01*
X108264892Y-105042922D01*
X108396084Y-104955263D01*
X108396086Y-104955262D01*
X108541858Y-104894881D01*
X108696607Y-104864100D01*
X108854393Y-104864100D01*
X109009142Y-104894881D01*
G37*
G36*
X162969142Y-104894881D02*
G01*
X163114914Y-104955262D01*
X163114916Y-104955263D01*
X163246108Y-105042922D01*
X163357678Y-105154492D01*
X163445337Y-105285684D01*
X163445338Y-105285686D01*
X163505719Y-105431458D01*
X163536500Y-105586207D01*
X163536500Y-105743993D01*
X163505719Y-105898742D01*
X163445338Y-106044514D01*
X163445337Y-106044516D01*
X163357678Y-106175708D01*
X163246108Y-106287278D01*
X163114916Y-106374937D01*
X163114915Y-106374938D01*
X163114914Y-106374938D01*
X162969142Y-106435319D01*
X162814393Y-106466100D01*
X162656607Y-106466100D01*
X162501858Y-106435319D01*
X162356086Y-106374938D01*
X162356085Y-106374938D01*
X162356084Y-106374937D01*
X162224892Y-106287278D01*
X162113322Y-106175708D01*
X162025663Y-106044516D01*
X162025662Y-106044514D01*
X161965281Y-105898742D01*
X161934500Y-105743993D01*
X161934500Y-105586207D01*
X161965281Y-105431458D01*
X162025662Y-105285686D01*
X162025663Y-105285684D01*
X162113322Y-105154492D01*
X162224892Y-105042922D01*
X162356084Y-104955263D01*
X162356086Y-104955262D01*
X162501858Y-104894881D01*
X162656607Y-104864100D01*
X162814393Y-104864100D01*
X162969142Y-104894881D01*
G37*
G36*
X107036500Y-106466100D02*
G01*
X105434500Y-106466100D01*
X105434500Y-104864100D01*
X107036500Y-104864100D01*
X107036500Y-106466100D01*
G37*
G36*
X152809142Y-104894881D02*
G01*
X152954914Y-104955262D01*
X152954916Y-104955263D01*
X153086108Y-105042922D01*
X153197678Y-105154492D01*
X153285337Y-105285684D01*
X153285338Y-105285686D01*
X153345719Y-105431458D01*
X153376500Y-105586207D01*
X153376500Y-105743993D01*
X153345719Y-105898742D01*
X153285338Y-106044514D01*
X153285337Y-106044516D01*
X153197678Y-106175708D01*
X153086108Y-106287278D01*
X152954916Y-106374937D01*
X152954915Y-106374938D01*
X152954914Y-106374938D01*
X152809142Y-106435319D01*
X152654393Y-106466100D01*
X152496607Y-106466100D01*
X152341858Y-106435319D01*
X152196086Y-106374938D01*
X152196085Y-106374938D01*
X152196084Y-106374937D01*
X152064892Y-106287278D01*
X151953322Y-106175708D01*
X151865663Y-106044516D01*
X151865662Y-106044514D01*
X151805281Y-105898742D01*
X151774500Y-105743993D01*
X151774500Y-105586207D01*
X151805281Y-105431458D01*
X151865662Y-105285686D01*
X151865663Y-105285684D01*
X151953322Y-105154492D01*
X152064892Y-105042922D01*
X152196084Y-104955263D01*
X152196086Y-104955262D01*
X152341858Y-104894881D01*
X152496607Y-104864100D01*
X152654393Y-104864100D01*
X152809142Y-104894881D01*
G37*
G36*
X155349142Y-104894881D02*
G01*
X155494914Y-104955262D01*
X155494916Y-104955263D01*
X155626108Y-105042922D01*
X155737678Y-105154492D01*
X155825337Y-105285684D01*
X155825338Y-105285686D01*
X155885719Y-105431458D01*
X155916500Y-105586207D01*
X155916500Y-105743993D01*
X155885719Y-105898742D01*
X155825338Y-106044514D01*
X155825337Y-106044516D01*
X155737678Y-106175708D01*
X155626108Y-106287278D01*
X155494916Y-106374937D01*
X155494915Y-106374938D01*
X155494914Y-106374938D01*
X155349142Y-106435319D01*
X155194393Y-106466100D01*
X155036607Y-106466100D01*
X154881858Y-106435319D01*
X154736086Y-106374938D01*
X154736085Y-106374938D01*
X154736084Y-106374937D01*
X154604892Y-106287278D01*
X154493322Y-106175708D01*
X154405663Y-106044516D01*
X154405662Y-106044514D01*
X154345281Y-105898742D01*
X154314500Y-105743993D01*
X154314500Y-105586207D01*
X154345281Y-105431458D01*
X154405662Y-105285686D01*
X154405663Y-105285684D01*
X154493322Y-105154492D01*
X154604892Y-105042922D01*
X154736084Y-104955263D01*
X154736086Y-104955262D01*
X154881858Y-104894881D01*
X155036607Y-104864100D01*
X155194393Y-104864100D01*
X155349142Y-104894881D01*
G37*
G36*
X160429142Y-104894881D02*
G01*
X160574914Y-104955262D01*
X160574916Y-104955263D01*
X160706108Y-105042922D01*
X160817678Y-105154492D01*
X160905337Y-105285684D01*
X160905338Y-105285686D01*
X160965719Y-105431458D01*
X160996500Y-105586207D01*
X160996500Y-105743993D01*
X160965719Y-105898742D01*
X160905338Y-106044514D01*
X160905337Y-106044516D01*
X160817678Y-106175708D01*
X160706108Y-106287278D01*
X160574916Y-106374937D01*
X160574915Y-106374938D01*
X160574914Y-106374938D01*
X160429142Y-106435319D01*
X160274393Y-106466100D01*
X160116607Y-106466100D01*
X159961858Y-106435319D01*
X159816086Y-106374938D01*
X159816085Y-106374938D01*
X159816084Y-106374937D01*
X159684892Y-106287278D01*
X159573322Y-106175708D01*
X159485663Y-106044516D01*
X159485662Y-106044514D01*
X159425281Y-105898742D01*
X159394500Y-105743993D01*
X159394500Y-105586207D01*
X159425281Y-105431458D01*
X159485662Y-105285686D01*
X159485663Y-105285684D01*
X159573322Y-105154492D01*
X159684892Y-105042922D01*
X159816084Y-104955263D01*
X159816086Y-104955262D01*
X159961858Y-104894881D01*
X160116607Y-104864100D01*
X160274393Y-104864100D01*
X160429142Y-104894881D01*
G37*
G36*
X150836500Y-106466100D02*
G01*
X149234500Y-106466100D01*
X149234500Y-104864100D01*
X150836500Y-104864100D01*
X150836500Y-106466100D01*
G37*
G36*
X142158103Y-102389175D02*
G01*
X142385771Y-102483478D01*
X142590666Y-102620385D01*
X142764915Y-102794634D01*
X142901822Y-102999529D01*
X142901823Y-102999531D01*
X142953545Y-103124400D01*
X142996125Y-103227197D01*
X143044200Y-103468887D01*
X143044200Y-103715313D01*
X142996125Y-103957003D01*
X142901822Y-104184671D01*
X142764915Y-104389566D01*
X142590666Y-104563815D01*
X142385771Y-104700722D01*
X142385770Y-104700723D01*
X142385769Y-104700723D01*
X142158103Y-104795025D01*
X141916414Y-104843100D01*
X141669986Y-104843100D01*
X141428297Y-104795025D01*
X141200631Y-104700723D01*
X141200630Y-104700723D01*
X141200629Y-104700722D01*
X140995734Y-104563815D01*
X140821485Y-104389566D01*
X140684578Y-104184671D01*
X140590275Y-103957003D01*
X140542200Y-103715313D01*
X140542200Y-103468887D01*
X140590275Y-103227197D01*
X140632855Y-103124400D01*
X140684577Y-102999531D01*
X140684578Y-102999529D01*
X140821485Y-102794634D01*
X140995734Y-102620385D01*
X141200629Y-102483478D01*
X141428297Y-102389175D01*
X141669986Y-102341100D01*
X141916414Y-102341100D01*
X142158103Y-102389175D01*
G37*
G36*
X98358103Y-102389175D02*
G01*
X98585771Y-102483478D01*
X98790666Y-102620385D01*
X98964915Y-102794634D01*
X99101822Y-102999529D01*
X99101823Y-102999531D01*
X99153545Y-103124400D01*
X99196125Y-103227197D01*
X99244200Y-103468887D01*
X99244200Y-103715313D01*
X99196125Y-103957003D01*
X99101822Y-104184671D01*
X98964915Y-104389566D01*
X98790666Y-104563815D01*
X98585771Y-104700722D01*
X98585770Y-104700723D01*
X98585769Y-104700723D01*
X98358103Y-104795025D01*
X98116414Y-104843100D01*
X97869986Y-104843100D01*
X97628297Y-104795025D01*
X97400631Y-104700723D01*
X97400630Y-104700723D01*
X97400629Y-104700722D01*
X97195734Y-104563815D01*
X97021485Y-104389566D01*
X96884578Y-104184671D01*
X96790275Y-103957003D01*
X96742200Y-103715313D01*
X96742200Y-103468887D01*
X96790275Y-103227197D01*
X96832855Y-103124400D01*
X96884577Y-102999531D01*
X96884578Y-102999529D01*
X97021485Y-102794634D01*
X97195734Y-102620385D01*
X97400629Y-102483478D01*
X97628297Y-102389175D01*
X97869986Y-102341100D01*
X98116414Y-102341100D01*
X98358103Y-102389175D01*
G37*
G36*
X148167812Y-101327327D02*
G01*
X148317112Y-101357024D01*
X148481084Y-101424944D01*
X148628654Y-101523547D01*
X148754153Y-101649046D01*
X148852756Y-101796616D01*
X148920676Y-101960588D01*
X148955300Y-102134659D01*
X148955300Y-102312141D01*
X148920676Y-102486212D01*
X148852756Y-102650184D01*
X148754153Y-102797754D01*
X148628654Y-102923253D01*
X148481084Y-103021856D01*
X148317112Y-103089776D01*
X148167812Y-103119473D01*
X148143042Y-103124400D01*
X147965558Y-103124400D01*
X147940788Y-103119473D01*
X147791488Y-103089776D01*
X147627516Y-103021856D01*
X147479946Y-102923253D01*
X147354447Y-102797754D01*
X147255844Y-102650184D01*
X147187924Y-102486212D01*
X147153300Y-102312141D01*
X147153300Y-102134659D01*
X147187924Y-101960588D01*
X147255844Y-101796616D01*
X147354447Y-101649046D01*
X147479946Y-101523547D01*
X147627516Y-101424944D01*
X147791488Y-101357024D01*
X147940788Y-101327327D01*
X147965558Y-101322400D01*
X148143042Y-101322400D01*
X148167812Y-101327327D01*
G37*
G36*
X104367812Y-101327327D02*
G01*
X104517112Y-101357024D01*
X104681084Y-101424944D01*
X104828654Y-101523547D01*
X104954153Y-101649046D01*
X105052756Y-101796616D01*
X105120676Y-101960588D01*
X105155300Y-102134659D01*
X105155300Y-102312141D01*
X105120676Y-102486212D01*
X105052756Y-102650184D01*
X104954153Y-102797754D01*
X104828654Y-102923253D01*
X104681084Y-103021856D01*
X104517112Y-103089776D01*
X104367812Y-103119473D01*
X104343042Y-103124400D01*
X104165558Y-103124400D01*
X104140788Y-103119473D01*
X103991488Y-103089776D01*
X103827516Y-103021856D01*
X103679946Y-102923253D01*
X103554447Y-102797754D01*
X103455844Y-102650184D01*
X103387924Y-102486212D01*
X103353300Y-102312141D01*
X103353300Y-102134659D01*
X103387924Y-101960588D01*
X103455844Y-101796616D01*
X103554447Y-101649046D01*
X103679946Y-101523547D01*
X103827516Y-101424944D01*
X103991488Y-101357024D01*
X104140788Y-101327327D01*
X104165558Y-101322400D01*
X104343042Y-101322400D01*
X104367812Y-101327327D01*
G37*
G36*
X98336832Y-98884944D02*
G01*
X98358103Y-98889175D01*
X98585771Y-98983478D01*
X98790666Y-99120385D01*
X98964915Y-99294634D01*
X99101822Y-99499529D01*
X99101823Y-99499531D01*
X99196125Y-99727197D01*
X99239690Y-99946211D01*
X99244200Y-99968887D01*
X99244200Y-100215313D01*
X99196125Y-100457003D01*
X99101822Y-100684671D01*
X98964915Y-100889566D01*
X98790666Y-101063815D01*
X98585771Y-101200722D01*
X98585770Y-101200723D01*
X98585769Y-101200723D01*
X98358103Y-101295025D01*
X98116414Y-101343100D01*
X97869986Y-101343100D01*
X97628297Y-101295025D01*
X97400631Y-101200723D01*
X97400630Y-101200723D01*
X97400629Y-101200722D01*
X97195734Y-101063815D01*
X97021485Y-100889566D01*
X96884578Y-100684671D01*
X96790275Y-100457003D01*
X96742200Y-100215313D01*
X96742200Y-99968887D01*
X96746711Y-99946211D01*
X96790275Y-99727197D01*
X96884577Y-99499531D01*
X96884578Y-99499529D01*
X97021485Y-99294634D01*
X97195734Y-99120385D01*
X97400629Y-98983478D01*
X97628297Y-98889175D01*
X97649568Y-98884944D01*
X97869986Y-98841100D01*
X98116414Y-98841100D01*
X98336832Y-98884944D01*
G37*
G36*
X142136832Y-98884944D02*
G01*
X142158103Y-98889175D01*
X142385771Y-98983478D01*
X142590666Y-99120385D01*
X142764915Y-99294634D01*
X142901822Y-99499529D01*
X142901823Y-99499531D01*
X142996125Y-99727197D01*
X143039690Y-99946211D01*
X143044200Y-99968887D01*
X143044200Y-100215313D01*
X142996125Y-100457003D01*
X142901822Y-100684671D01*
X142764915Y-100889566D01*
X142590666Y-101063815D01*
X142385771Y-101200722D01*
X142385770Y-101200723D01*
X142385769Y-101200723D01*
X142158103Y-101295025D01*
X141916414Y-101343100D01*
X141669986Y-101343100D01*
X141428297Y-101295025D01*
X141200631Y-101200723D01*
X141200630Y-101200723D01*
X141200629Y-101200722D01*
X140995734Y-101063815D01*
X140821485Y-100889566D01*
X140684578Y-100684671D01*
X140590275Y-100457003D01*
X140542200Y-100215313D01*
X140542200Y-99968887D01*
X140546711Y-99946211D01*
X140590275Y-99727197D01*
X140684577Y-99499531D01*
X140684578Y-99499529D01*
X140821485Y-99294634D01*
X140995734Y-99120385D01*
X141200629Y-98983478D01*
X141428297Y-98889175D01*
X141449568Y-98884944D01*
X141669986Y-98841100D01*
X141916414Y-98841100D01*
X142136832Y-98884944D01*
G37*
G36*
X148167812Y-98787327D02*
G01*
X148317112Y-98817024D01*
X148481084Y-98884944D01*
X148628654Y-98983547D01*
X148754153Y-99109046D01*
X148852756Y-99256616D01*
X148920676Y-99420588D01*
X148955300Y-99594659D01*
X148955300Y-99772141D01*
X148920676Y-99946212D01*
X148852756Y-100110184D01*
X148754153Y-100257754D01*
X148628654Y-100383253D01*
X148481084Y-100481856D01*
X148317112Y-100549776D01*
X148167812Y-100579473D01*
X148143042Y-100584400D01*
X147965558Y-100584400D01*
X147940788Y-100579473D01*
X147791488Y-100549776D01*
X147627516Y-100481856D01*
X147479946Y-100383253D01*
X147354447Y-100257754D01*
X147255844Y-100110184D01*
X147187924Y-99946212D01*
X147153300Y-99772141D01*
X147153300Y-99594659D01*
X147187924Y-99420588D01*
X147255844Y-99256616D01*
X147354447Y-99109046D01*
X147479946Y-98983547D01*
X147627516Y-98884944D01*
X147791488Y-98817024D01*
X147940788Y-98787327D01*
X147965558Y-98782400D01*
X148143042Y-98782400D01*
X148167812Y-98787327D01*
G37*
G36*
X104367812Y-98787327D02*
G01*
X104517112Y-98817024D01*
X104681084Y-98884944D01*
X104828654Y-98983547D01*
X104954153Y-99109046D01*
X105052756Y-99256616D01*
X105120676Y-99420588D01*
X105155300Y-99594659D01*
X105155300Y-99772141D01*
X105120676Y-99946212D01*
X105052756Y-100110184D01*
X104954153Y-100257754D01*
X104828654Y-100383253D01*
X104681084Y-100481856D01*
X104517112Y-100549776D01*
X104367812Y-100579473D01*
X104343042Y-100584400D01*
X104165558Y-100584400D01*
X104140788Y-100579473D01*
X103991488Y-100549776D01*
X103827516Y-100481856D01*
X103679946Y-100383253D01*
X103554447Y-100257754D01*
X103455844Y-100110184D01*
X103387924Y-99946212D01*
X103353300Y-99772141D01*
X103353300Y-99594659D01*
X103387924Y-99420588D01*
X103455844Y-99256616D01*
X103554447Y-99109046D01*
X103679946Y-98983547D01*
X103827516Y-98884944D01*
X103991488Y-98817024D01*
X104140788Y-98787327D01*
X104165558Y-98782400D01*
X104343042Y-98782400D01*
X104367812Y-98787327D01*
G37*
G36*
X148167812Y-96247327D02*
G01*
X148317112Y-96277024D01*
X148481084Y-96344944D01*
X148628654Y-96443547D01*
X148754153Y-96569046D01*
X148852756Y-96716616D01*
X148920676Y-96880588D01*
X148955300Y-97054659D01*
X148955300Y-97232141D01*
X148920676Y-97406212D01*
X148852756Y-97570184D01*
X148754153Y-97717754D01*
X148628654Y-97843253D01*
X148481084Y-97941856D01*
X148317112Y-98009776D01*
X148167812Y-98039473D01*
X148143042Y-98044400D01*
X147965558Y-98044400D01*
X147940788Y-98039473D01*
X147791488Y-98009776D01*
X147627516Y-97941856D01*
X147479946Y-97843253D01*
X147354447Y-97717754D01*
X147255844Y-97570184D01*
X147187924Y-97406212D01*
X147153300Y-97232141D01*
X147153300Y-97054659D01*
X147187924Y-96880588D01*
X147255844Y-96716616D01*
X147354447Y-96569046D01*
X147479946Y-96443547D01*
X147627516Y-96344944D01*
X147791488Y-96277024D01*
X147940788Y-96247327D01*
X147965558Y-96242400D01*
X148143042Y-96242400D01*
X148167812Y-96247327D01*
G37*
G36*
X104367812Y-96247327D02*
G01*
X104517112Y-96277024D01*
X104681084Y-96344944D01*
X104828654Y-96443547D01*
X104954153Y-96569046D01*
X105052756Y-96716616D01*
X105120676Y-96880588D01*
X105155300Y-97054659D01*
X105155300Y-97232141D01*
X105120676Y-97406212D01*
X105052756Y-97570184D01*
X104954153Y-97717754D01*
X104828654Y-97843253D01*
X104681084Y-97941856D01*
X104517112Y-98009776D01*
X104367812Y-98039473D01*
X104343042Y-98044400D01*
X104165558Y-98044400D01*
X104140788Y-98039473D01*
X103991488Y-98009776D01*
X103827516Y-97941856D01*
X103679946Y-97843253D01*
X103554447Y-97717754D01*
X103455844Y-97570184D01*
X103387924Y-97406212D01*
X103353300Y-97232141D01*
X103353300Y-97054659D01*
X103387924Y-96880588D01*
X103455844Y-96716616D01*
X103554447Y-96569046D01*
X103679946Y-96443547D01*
X103827516Y-96344944D01*
X103991488Y-96277024D01*
X104140788Y-96247327D01*
X104165558Y-96242400D01*
X104343042Y-96242400D01*
X104367812Y-96247327D01*
G37*
G36*
X98358103Y-95389175D02*
G01*
X98585771Y-95483478D01*
X98790666Y-95620385D01*
X98964915Y-95794634D01*
X98964916Y-95794636D01*
X99101823Y-95999531D01*
X99196125Y-96227197D01*
X99244200Y-96468886D01*
X99244200Y-96715314D01*
X99211325Y-96880588D01*
X99196125Y-96957003D01*
X99101822Y-97184671D01*
X98964915Y-97389566D01*
X98790666Y-97563815D01*
X98585771Y-97700722D01*
X98585770Y-97700723D01*
X98585769Y-97700723D01*
X98358103Y-97795025D01*
X98116414Y-97843100D01*
X97869986Y-97843100D01*
X97628297Y-97795025D01*
X97400631Y-97700723D01*
X97400630Y-97700723D01*
X97400629Y-97700722D01*
X97195734Y-97563815D01*
X97021485Y-97389566D01*
X96884578Y-97184671D01*
X96790275Y-96957003D01*
X96775075Y-96880588D01*
X96742200Y-96715314D01*
X96742200Y-96468886D01*
X96790275Y-96227197D01*
X96884577Y-95999531D01*
X97021484Y-95794636D01*
X97021485Y-95794634D01*
X97195734Y-95620385D01*
X97400629Y-95483478D01*
X97628297Y-95389175D01*
X97869986Y-95341100D01*
X98116414Y-95341100D01*
X98358103Y-95389175D01*
G37*
G36*
X142158103Y-95389175D02*
G01*
X142385771Y-95483478D01*
X142590666Y-95620385D01*
X142764915Y-95794634D01*
X142764916Y-95794636D01*
X142901823Y-95999531D01*
X142996125Y-96227197D01*
X143044200Y-96468886D01*
X143044200Y-96715314D01*
X143011325Y-96880588D01*
X142996125Y-96957003D01*
X142901822Y-97184671D01*
X142764915Y-97389566D01*
X142590666Y-97563815D01*
X142385771Y-97700722D01*
X142385770Y-97700723D01*
X142385769Y-97700723D01*
X142158103Y-97795025D01*
X141916414Y-97843100D01*
X141669986Y-97843100D01*
X141428297Y-97795025D01*
X141200631Y-97700723D01*
X141200630Y-97700723D01*
X141200629Y-97700722D01*
X140995734Y-97563815D01*
X140821485Y-97389566D01*
X140684578Y-97184671D01*
X140590275Y-96957003D01*
X140575075Y-96880588D01*
X140542200Y-96715314D01*
X140542200Y-96468886D01*
X140590275Y-96227197D01*
X140684577Y-95999531D01*
X140821484Y-95794636D01*
X140821485Y-95794634D01*
X140995734Y-95620385D01*
X141200629Y-95483478D01*
X141428297Y-95389175D01*
X141669986Y-95341100D01*
X141916414Y-95341100D01*
X142158103Y-95389175D01*
G37*
G36*
X105155300Y-95504400D02*
G01*
X103353300Y-95504400D01*
X103353300Y-93702400D01*
X105155300Y-93702400D01*
X105155300Y-95504400D01*
G37*
G36*
X148955300Y-95504400D02*
G01*
X147153300Y-95504400D01*
X147153300Y-93702400D01*
X148955300Y-93702400D01*
X148955300Y-95504400D01*
G37*
G36*
X99244200Y-94343100D02*
G01*
X96742200Y-94343100D01*
X96742200Y-91841100D01*
X99244200Y-91841100D01*
X99244200Y-94343100D01*
G37*
G36*
X143044200Y-94343100D02*
G01*
X140542200Y-94343100D01*
X140542200Y-91841100D01*
X143044200Y-91841100D01*
X143044200Y-94343100D01*
G37*
G36*
X157889142Y-89654881D02*
G01*
X158034914Y-89715262D01*
X158034916Y-89715263D01*
X158166108Y-89802922D01*
X158277678Y-89914492D01*
X158365337Y-90045684D01*
X158365338Y-90045686D01*
X158425719Y-90191458D01*
X158456500Y-90346207D01*
X158456500Y-90503993D01*
X158425719Y-90658742D01*
X158365338Y-90804514D01*
X158365337Y-90804516D01*
X158277678Y-90935708D01*
X158166108Y-91047278D01*
X158034916Y-91134937D01*
X158034915Y-91134938D01*
X158034914Y-91134938D01*
X157889142Y-91195319D01*
X157734393Y-91226100D01*
X157576607Y-91226100D01*
X157421858Y-91195319D01*
X157276086Y-91134938D01*
X157276085Y-91134938D01*
X157276084Y-91134937D01*
X157144892Y-91047278D01*
X157033322Y-90935708D01*
X156945663Y-90804516D01*
X156945662Y-90804514D01*
X156885281Y-90658742D01*
X156854500Y-90503993D01*
X156854500Y-90346207D01*
X156885281Y-90191458D01*
X156945662Y-90045686D01*
X156945663Y-90045684D01*
X157033322Y-89914492D01*
X157144892Y-89802922D01*
X157276084Y-89715263D01*
X157276086Y-89715262D01*
X157421858Y-89654881D01*
X157576607Y-89624100D01*
X157734393Y-89624100D01*
X157889142Y-89654881D01*
G37*
G36*
X116629142Y-89654881D02*
G01*
X116774914Y-89715262D01*
X116774916Y-89715263D01*
X116906108Y-89802922D01*
X117017678Y-89914492D01*
X117105337Y-90045684D01*
X117105338Y-90045686D01*
X117165719Y-90191458D01*
X117196500Y-90346207D01*
X117196500Y-90503993D01*
X117165719Y-90658742D01*
X117105338Y-90804514D01*
X117105337Y-90804516D01*
X117017678Y-90935708D01*
X116906108Y-91047278D01*
X116774916Y-91134937D01*
X116774915Y-91134938D01*
X116774914Y-91134938D01*
X116629142Y-91195319D01*
X116474393Y-91226100D01*
X116316607Y-91226100D01*
X116161858Y-91195319D01*
X116016086Y-91134938D01*
X116016085Y-91134938D01*
X116016084Y-91134937D01*
X115884892Y-91047278D01*
X115773322Y-90935708D01*
X115685663Y-90804516D01*
X115685662Y-90804514D01*
X115625281Y-90658742D01*
X115594500Y-90503993D01*
X115594500Y-90346207D01*
X115625281Y-90191458D01*
X115685662Y-90045686D01*
X115685663Y-90045684D01*
X115773322Y-89914492D01*
X115884892Y-89802922D01*
X116016084Y-89715263D01*
X116016086Y-89715262D01*
X116161858Y-89654881D01*
X116316607Y-89624100D01*
X116474393Y-89624100D01*
X116629142Y-89654881D01*
G37*
G36*
X119169142Y-89654881D02*
G01*
X119314914Y-89715262D01*
X119314916Y-89715263D01*
X119446108Y-89802922D01*
X119557678Y-89914492D01*
X119645337Y-90045684D01*
X119645338Y-90045686D01*
X119705719Y-90191458D01*
X119736500Y-90346207D01*
X119736500Y-90503993D01*
X119705719Y-90658742D01*
X119645338Y-90804514D01*
X119645337Y-90804516D01*
X119557678Y-90935708D01*
X119446108Y-91047278D01*
X119314916Y-91134937D01*
X119314915Y-91134938D01*
X119314914Y-91134938D01*
X119169142Y-91195319D01*
X119014393Y-91226100D01*
X118856607Y-91226100D01*
X118701858Y-91195319D01*
X118556086Y-91134938D01*
X118556085Y-91134938D01*
X118556084Y-91134937D01*
X118424892Y-91047278D01*
X118313322Y-90935708D01*
X118225663Y-90804516D01*
X118225662Y-90804514D01*
X118165281Y-90658742D01*
X118134500Y-90503993D01*
X118134500Y-90346207D01*
X118165281Y-90191458D01*
X118225662Y-90045686D01*
X118225663Y-90045684D01*
X118313322Y-89914492D01*
X118424892Y-89802922D01*
X118556084Y-89715263D01*
X118556086Y-89715262D01*
X118701858Y-89654881D01*
X118856607Y-89624100D01*
X119014393Y-89624100D01*
X119169142Y-89654881D01*
G37*
G36*
X114089142Y-89654881D02*
G01*
X114234914Y-89715262D01*
X114234916Y-89715263D01*
X114366108Y-89802922D01*
X114477678Y-89914492D01*
X114565337Y-90045684D01*
X114565338Y-90045686D01*
X114625719Y-90191458D01*
X114656500Y-90346207D01*
X114656500Y-90503993D01*
X114625719Y-90658742D01*
X114565338Y-90804514D01*
X114565337Y-90804516D01*
X114477678Y-90935708D01*
X114366108Y-91047278D01*
X114234916Y-91134937D01*
X114234915Y-91134938D01*
X114234914Y-91134938D01*
X114089142Y-91195319D01*
X113934393Y-91226100D01*
X113776607Y-91226100D01*
X113621858Y-91195319D01*
X113476086Y-91134938D01*
X113476085Y-91134938D01*
X113476084Y-91134937D01*
X113344892Y-91047278D01*
X113233322Y-90935708D01*
X113145663Y-90804516D01*
X113145662Y-90804514D01*
X113085281Y-90658742D01*
X113054500Y-90503993D01*
X113054500Y-90346207D01*
X113085281Y-90191458D01*
X113145662Y-90045686D01*
X113145663Y-90045684D01*
X113233322Y-89914492D01*
X113344892Y-89802922D01*
X113476084Y-89715263D01*
X113476086Y-89715262D01*
X113621858Y-89654881D01*
X113776607Y-89624100D01*
X113934393Y-89624100D01*
X114089142Y-89654881D01*
G37*
G36*
X109009142Y-89654881D02*
G01*
X109154914Y-89715262D01*
X109154916Y-89715263D01*
X109286108Y-89802922D01*
X109397678Y-89914492D01*
X109485337Y-90045684D01*
X109485338Y-90045686D01*
X109545719Y-90191458D01*
X109576500Y-90346207D01*
X109576500Y-90503993D01*
X109545719Y-90658742D01*
X109485338Y-90804514D01*
X109485337Y-90804516D01*
X109397678Y-90935708D01*
X109286108Y-91047278D01*
X109154916Y-91134937D01*
X109154915Y-91134938D01*
X109154914Y-91134938D01*
X109009142Y-91195319D01*
X108854393Y-91226100D01*
X108696607Y-91226100D01*
X108541858Y-91195319D01*
X108396086Y-91134938D01*
X108396085Y-91134938D01*
X108396084Y-91134937D01*
X108264892Y-91047278D01*
X108153322Y-90935708D01*
X108065663Y-90804516D01*
X108065662Y-90804514D01*
X108005281Y-90658742D01*
X107974500Y-90503993D01*
X107974500Y-90346207D01*
X108005281Y-90191458D01*
X108065662Y-90045686D01*
X108065663Y-90045684D01*
X108153322Y-89914492D01*
X108264892Y-89802922D01*
X108396084Y-89715263D01*
X108396086Y-89715262D01*
X108541858Y-89654881D01*
X108696607Y-89624100D01*
X108854393Y-89624100D01*
X109009142Y-89654881D01*
G37*
G36*
X111549142Y-89654881D02*
G01*
X111694914Y-89715262D01*
X111694916Y-89715263D01*
X111826108Y-89802922D01*
X111937678Y-89914492D01*
X112025337Y-90045684D01*
X112025338Y-90045686D01*
X112085719Y-90191458D01*
X112116500Y-90346207D01*
X112116500Y-90503993D01*
X112085719Y-90658742D01*
X112025338Y-90804514D01*
X112025337Y-90804516D01*
X111937678Y-90935708D01*
X111826108Y-91047278D01*
X111694916Y-91134937D01*
X111694915Y-91134938D01*
X111694914Y-91134938D01*
X111549142Y-91195319D01*
X111394393Y-91226100D01*
X111236607Y-91226100D01*
X111081858Y-91195319D01*
X110936086Y-91134938D01*
X110936085Y-91134938D01*
X110936084Y-91134937D01*
X110804892Y-91047278D01*
X110693322Y-90935708D01*
X110605663Y-90804516D01*
X110605662Y-90804514D01*
X110545281Y-90658742D01*
X110514500Y-90503993D01*
X110514500Y-90346207D01*
X110545281Y-90191458D01*
X110605662Y-90045686D01*
X110605663Y-90045684D01*
X110693322Y-89914492D01*
X110804892Y-89802922D01*
X110936084Y-89715263D01*
X110936086Y-89715262D01*
X111081858Y-89654881D01*
X111236607Y-89624100D01*
X111394393Y-89624100D01*
X111549142Y-89654881D01*
G37*
G36*
X106469142Y-89654881D02*
G01*
X106614914Y-89715262D01*
X106614916Y-89715263D01*
X106746108Y-89802922D01*
X106857678Y-89914492D01*
X106945337Y-90045684D01*
X106945338Y-90045686D01*
X107005719Y-90191458D01*
X107036500Y-90346207D01*
X107036500Y-90503993D01*
X107005719Y-90658742D01*
X106945338Y-90804514D01*
X106945337Y-90804516D01*
X106857678Y-90935708D01*
X106746108Y-91047278D01*
X106614916Y-91134937D01*
X106614915Y-91134938D01*
X106614914Y-91134938D01*
X106469142Y-91195319D01*
X106314393Y-91226100D01*
X106156607Y-91226100D01*
X106001858Y-91195319D01*
X105856086Y-91134938D01*
X105856085Y-91134938D01*
X105856084Y-91134937D01*
X105724892Y-91047278D01*
X105613322Y-90935708D01*
X105525663Y-90804516D01*
X105525662Y-90804514D01*
X105465281Y-90658742D01*
X105434500Y-90503993D01*
X105434500Y-90346207D01*
X105465281Y-90191458D01*
X105525662Y-90045686D01*
X105525663Y-90045684D01*
X105613322Y-89914492D01*
X105724892Y-89802922D01*
X105856084Y-89715263D01*
X105856086Y-89715262D01*
X106001858Y-89654881D01*
X106156607Y-89624100D01*
X106314393Y-89624100D01*
X106469142Y-89654881D01*
G37*
G36*
X150269142Y-89654881D02*
G01*
X150414914Y-89715262D01*
X150414916Y-89715263D01*
X150546108Y-89802922D01*
X150657678Y-89914492D01*
X150745337Y-90045684D01*
X150745338Y-90045686D01*
X150805719Y-90191458D01*
X150836500Y-90346207D01*
X150836500Y-90503993D01*
X150805719Y-90658742D01*
X150745338Y-90804514D01*
X150745337Y-90804516D01*
X150657678Y-90935708D01*
X150546108Y-91047278D01*
X150414916Y-91134937D01*
X150414915Y-91134938D01*
X150414914Y-91134938D01*
X150269142Y-91195319D01*
X150114393Y-91226100D01*
X149956607Y-91226100D01*
X149801858Y-91195319D01*
X149656086Y-91134938D01*
X149656085Y-91134938D01*
X149656084Y-91134937D01*
X149524892Y-91047278D01*
X149413322Y-90935708D01*
X149325663Y-90804516D01*
X149325662Y-90804514D01*
X149265281Y-90658742D01*
X149234500Y-90503993D01*
X149234500Y-90346207D01*
X149265281Y-90191458D01*
X149325662Y-90045686D01*
X149325663Y-90045684D01*
X149413322Y-89914492D01*
X149524892Y-89802922D01*
X149656084Y-89715263D01*
X149656086Y-89715262D01*
X149801858Y-89654881D01*
X149956607Y-89624100D01*
X150114393Y-89624100D01*
X150269142Y-89654881D01*
G37*
G36*
X152809142Y-89654881D02*
G01*
X152954914Y-89715262D01*
X152954916Y-89715263D01*
X153086108Y-89802922D01*
X153197678Y-89914492D01*
X153285337Y-90045684D01*
X153285338Y-90045686D01*
X153345719Y-90191458D01*
X153376500Y-90346207D01*
X153376500Y-90503993D01*
X153345719Y-90658742D01*
X153285338Y-90804514D01*
X153285337Y-90804516D01*
X153197678Y-90935708D01*
X153086108Y-91047278D01*
X152954916Y-91134937D01*
X152954915Y-91134938D01*
X152954914Y-91134938D01*
X152809142Y-91195319D01*
X152654393Y-91226100D01*
X152496607Y-91226100D01*
X152341858Y-91195319D01*
X152196086Y-91134938D01*
X152196085Y-91134938D01*
X152196084Y-91134937D01*
X152064892Y-91047278D01*
X151953322Y-90935708D01*
X151865663Y-90804516D01*
X151865662Y-90804514D01*
X151805281Y-90658742D01*
X151774500Y-90503993D01*
X151774500Y-90346207D01*
X151805281Y-90191458D01*
X151865662Y-90045686D01*
X151865663Y-90045684D01*
X151953322Y-89914492D01*
X152064892Y-89802922D01*
X152196084Y-89715263D01*
X152196086Y-89715262D01*
X152341858Y-89654881D01*
X152496607Y-89624100D01*
X152654393Y-89624100D01*
X152809142Y-89654881D01*
G37*
G36*
X155349142Y-89654881D02*
G01*
X155494914Y-89715262D01*
X155494916Y-89715263D01*
X155626108Y-89802922D01*
X155737678Y-89914492D01*
X155825337Y-90045684D01*
X155825338Y-90045686D01*
X155885719Y-90191458D01*
X155916500Y-90346207D01*
X155916500Y-90503993D01*
X155885719Y-90658742D01*
X155825338Y-90804514D01*
X155825337Y-90804516D01*
X155737678Y-90935708D01*
X155626108Y-91047278D01*
X155494916Y-91134937D01*
X155494915Y-91134938D01*
X155494914Y-91134938D01*
X155349142Y-91195319D01*
X155194393Y-91226100D01*
X155036607Y-91226100D01*
X154881858Y-91195319D01*
X154736086Y-91134938D01*
X154736085Y-91134938D01*
X154736084Y-91134937D01*
X154604892Y-91047278D01*
X154493322Y-90935708D01*
X154405663Y-90804516D01*
X154405662Y-90804514D01*
X154345281Y-90658742D01*
X154314500Y-90503993D01*
X154314500Y-90346207D01*
X154345281Y-90191458D01*
X154405662Y-90045686D01*
X154405663Y-90045684D01*
X154493322Y-89914492D01*
X154604892Y-89802922D01*
X154736084Y-89715263D01*
X154736086Y-89715262D01*
X154881858Y-89654881D01*
X155036607Y-89624100D01*
X155194393Y-89624100D01*
X155349142Y-89654881D01*
G37*
G36*
X160429142Y-89654881D02*
G01*
X160574914Y-89715262D01*
X160574916Y-89715263D01*
X160706108Y-89802922D01*
X160817678Y-89914492D01*
X160905337Y-90045684D01*
X160905338Y-90045686D01*
X160965719Y-90191458D01*
X160996500Y-90346207D01*
X160996500Y-90503993D01*
X160965719Y-90658742D01*
X160905338Y-90804514D01*
X160905337Y-90804516D01*
X160817678Y-90935708D01*
X160706108Y-91047278D01*
X160574916Y-91134937D01*
X160574915Y-91134938D01*
X160574914Y-91134938D01*
X160429142Y-91195319D01*
X160274393Y-91226100D01*
X160116607Y-91226100D01*
X159961858Y-91195319D01*
X159816086Y-91134938D01*
X159816085Y-91134938D01*
X159816084Y-91134937D01*
X159684892Y-91047278D01*
X159573322Y-90935708D01*
X159485663Y-90804516D01*
X159485662Y-90804514D01*
X159425281Y-90658742D01*
X159394500Y-90503993D01*
X159394500Y-90346207D01*
X159425281Y-90191458D01*
X159485662Y-90045686D01*
X159485663Y-90045684D01*
X159573322Y-89914492D01*
X159684892Y-89802922D01*
X159816084Y-89715263D01*
X159816086Y-89715262D01*
X159961858Y-89654881D01*
X160116607Y-89624100D01*
X160274393Y-89624100D01*
X160429142Y-89654881D01*
G37*
G36*
X162969142Y-89654881D02*
G01*
X163114914Y-89715262D01*
X163114916Y-89715263D01*
X163246108Y-89802922D01*
X163357678Y-89914492D01*
X163445337Y-90045684D01*
X163445338Y-90045686D01*
X163505719Y-90191458D01*
X163536500Y-90346207D01*
X163536500Y-90503993D01*
X163505719Y-90658742D01*
X163445338Y-90804514D01*
X163445337Y-90804516D01*
X163357678Y-90935708D01*
X163246108Y-91047278D01*
X163114916Y-91134937D01*
X163114915Y-91134938D01*
X163114914Y-91134938D01*
X162969142Y-91195319D01*
X162814393Y-91226100D01*
X162656607Y-91226100D01*
X162501858Y-91195319D01*
X162356086Y-91134938D01*
X162356085Y-91134938D01*
X162356084Y-91134937D01*
X162224892Y-91047278D01*
X162113322Y-90935708D01*
X162025663Y-90804516D01*
X162025662Y-90804514D01*
X161965281Y-90658742D01*
X161934500Y-90503993D01*
X161934500Y-90346207D01*
X161965281Y-90191458D01*
X162025662Y-90045686D01*
X162025663Y-90045684D01*
X162113322Y-89914492D01*
X162224892Y-89802922D01*
X162356084Y-89715263D01*
X162356086Y-89715262D01*
X162501858Y-89654881D01*
X162656607Y-89624100D01*
X162814393Y-89624100D01*
X162969142Y-89654881D01*
G37*
G36*
X111549142Y-83894881D02*
G01*
X111694914Y-83955262D01*
X111694916Y-83955263D01*
X111826108Y-84042922D01*
X111937678Y-84154492D01*
X112025337Y-84285684D01*
X112025338Y-84285686D01*
X112085719Y-84431458D01*
X112116500Y-84586207D01*
X112116500Y-84743993D01*
X112085719Y-84898742D01*
X112025338Y-85044514D01*
X112025337Y-85044516D01*
X111937678Y-85175708D01*
X111826108Y-85287278D01*
X111694916Y-85374937D01*
X111694915Y-85374938D01*
X111694914Y-85374938D01*
X111549142Y-85435319D01*
X111394393Y-85466100D01*
X111236607Y-85466100D01*
X111081858Y-85435319D01*
X110936086Y-85374938D01*
X110936085Y-85374938D01*
X110936084Y-85374937D01*
X110804892Y-85287278D01*
X110693322Y-85175708D01*
X110605663Y-85044516D01*
X110605662Y-85044514D01*
X110545281Y-84898742D01*
X110514500Y-84743993D01*
X110514500Y-84586207D01*
X110545281Y-84431458D01*
X110605662Y-84285686D01*
X110605663Y-84285684D01*
X110693322Y-84154492D01*
X110804892Y-84042922D01*
X110936084Y-83955263D01*
X110936086Y-83955262D01*
X111081858Y-83894881D01*
X111236607Y-83864100D01*
X111394393Y-83864100D01*
X111549142Y-83894881D01*
G37*
G36*
X116629142Y-83894881D02*
G01*
X116774914Y-83955262D01*
X116774916Y-83955263D01*
X116906108Y-84042922D01*
X117017678Y-84154492D01*
X117105337Y-84285684D01*
X117105338Y-84285686D01*
X117165719Y-84431458D01*
X117196500Y-84586207D01*
X117196500Y-84743993D01*
X117165719Y-84898742D01*
X117105338Y-85044514D01*
X117105337Y-85044516D01*
X117017678Y-85175708D01*
X116906108Y-85287278D01*
X116774916Y-85374937D01*
X116774915Y-85374938D01*
X116774914Y-85374938D01*
X116629142Y-85435319D01*
X116474393Y-85466100D01*
X116316607Y-85466100D01*
X116161858Y-85435319D01*
X116016086Y-85374938D01*
X116016085Y-85374938D01*
X116016084Y-85374937D01*
X115884892Y-85287278D01*
X115773322Y-85175708D01*
X115685663Y-85044516D01*
X115685662Y-85044514D01*
X115625281Y-84898742D01*
X115594500Y-84743993D01*
X115594500Y-84586207D01*
X115625281Y-84431458D01*
X115685662Y-84285686D01*
X115685663Y-84285684D01*
X115773322Y-84154492D01*
X115884892Y-84042922D01*
X116016084Y-83955263D01*
X116016086Y-83955262D01*
X116161858Y-83894881D01*
X116316607Y-83864100D01*
X116474393Y-83864100D01*
X116629142Y-83894881D01*
G37*
G36*
X119169142Y-83894881D02*
G01*
X119314914Y-83955262D01*
X119314916Y-83955263D01*
X119446108Y-84042922D01*
X119557678Y-84154492D01*
X119645337Y-84285684D01*
X119645338Y-84285686D01*
X119705719Y-84431458D01*
X119736500Y-84586207D01*
X119736500Y-84743993D01*
X119705719Y-84898742D01*
X119645338Y-85044514D01*
X119645337Y-85044516D01*
X119557678Y-85175708D01*
X119446108Y-85287278D01*
X119314916Y-85374937D01*
X119314915Y-85374938D01*
X119314914Y-85374938D01*
X119169142Y-85435319D01*
X119014393Y-85466100D01*
X118856607Y-85466100D01*
X118701858Y-85435319D01*
X118556086Y-85374938D01*
X118556085Y-85374938D01*
X118556084Y-85374937D01*
X118424892Y-85287278D01*
X118313322Y-85175708D01*
X118225663Y-85044516D01*
X118225662Y-85044514D01*
X118165281Y-84898742D01*
X118134500Y-84743993D01*
X118134500Y-84586207D01*
X118165281Y-84431458D01*
X118225662Y-84285686D01*
X118225663Y-84285684D01*
X118313322Y-84154492D01*
X118424892Y-84042922D01*
X118556084Y-83955263D01*
X118556086Y-83955262D01*
X118701858Y-83894881D01*
X118856607Y-83864100D01*
X119014393Y-83864100D01*
X119169142Y-83894881D01*
G37*
G36*
X150836500Y-85466100D02*
G01*
X149234500Y-85466100D01*
X149234500Y-83864100D01*
X150836500Y-83864100D01*
X150836500Y-85466100D01*
G37*
G36*
X114089142Y-83894881D02*
G01*
X114234914Y-83955262D01*
X114234916Y-83955263D01*
X114366108Y-84042922D01*
X114477678Y-84154492D01*
X114565337Y-84285684D01*
X114565338Y-84285686D01*
X114625719Y-84431458D01*
X114656500Y-84586207D01*
X114656500Y-84743993D01*
X114625719Y-84898742D01*
X114565338Y-85044514D01*
X114565337Y-85044516D01*
X114477678Y-85175708D01*
X114366108Y-85287278D01*
X114234916Y-85374937D01*
X114234915Y-85374938D01*
X114234914Y-85374938D01*
X114089142Y-85435319D01*
X113934393Y-85466100D01*
X113776607Y-85466100D01*
X113621858Y-85435319D01*
X113476086Y-85374938D01*
X113476085Y-85374938D01*
X113476084Y-85374937D01*
X113344892Y-85287278D01*
X113233322Y-85175708D01*
X113145663Y-85044516D01*
X113145662Y-85044514D01*
X113085281Y-84898742D01*
X113054500Y-84743993D01*
X113054500Y-84586207D01*
X113085281Y-84431458D01*
X113145662Y-84285686D01*
X113145663Y-84285684D01*
X113233322Y-84154492D01*
X113344892Y-84042922D01*
X113476084Y-83955263D01*
X113476086Y-83955262D01*
X113621858Y-83894881D01*
X113776607Y-83864100D01*
X113934393Y-83864100D01*
X114089142Y-83894881D01*
G37*
G36*
X152809142Y-83894881D02*
G01*
X152954914Y-83955262D01*
X152954916Y-83955263D01*
X153086108Y-84042922D01*
X153197678Y-84154492D01*
X153285337Y-84285684D01*
X153285338Y-84285686D01*
X153345719Y-84431458D01*
X153376500Y-84586207D01*
X153376500Y-84743993D01*
X153345719Y-84898742D01*
X153285338Y-85044514D01*
X153285337Y-85044516D01*
X153197678Y-85175708D01*
X153086108Y-85287278D01*
X152954916Y-85374937D01*
X152954915Y-85374938D01*
X152954914Y-85374938D01*
X152809142Y-85435319D01*
X152654393Y-85466100D01*
X152496607Y-85466100D01*
X152341858Y-85435319D01*
X152196086Y-85374938D01*
X152196085Y-85374938D01*
X152196084Y-85374937D01*
X152064892Y-85287278D01*
X151953322Y-85175708D01*
X151865663Y-85044516D01*
X151865662Y-85044514D01*
X151805281Y-84898742D01*
X151774500Y-84743993D01*
X151774500Y-84586207D01*
X151805281Y-84431458D01*
X151865662Y-84285686D01*
X151865663Y-84285684D01*
X151953322Y-84154492D01*
X152064892Y-84042922D01*
X152196084Y-83955263D01*
X152196086Y-83955262D01*
X152341858Y-83894881D01*
X152496607Y-83864100D01*
X152654393Y-83864100D01*
X152809142Y-83894881D01*
G37*
G36*
X157889142Y-83894881D02*
G01*
X158034914Y-83955262D01*
X158034916Y-83955263D01*
X158166108Y-84042922D01*
X158277678Y-84154492D01*
X158365337Y-84285684D01*
X158365338Y-84285686D01*
X158425719Y-84431458D01*
X158456500Y-84586207D01*
X158456500Y-84743993D01*
X158425719Y-84898742D01*
X158365338Y-85044514D01*
X158365337Y-85044516D01*
X158277678Y-85175708D01*
X158166108Y-85287278D01*
X158034916Y-85374937D01*
X158034915Y-85374938D01*
X158034914Y-85374938D01*
X157889142Y-85435319D01*
X157734393Y-85466100D01*
X157576607Y-85466100D01*
X157421858Y-85435319D01*
X157276086Y-85374938D01*
X157276085Y-85374938D01*
X157276084Y-85374937D01*
X157144892Y-85287278D01*
X157033322Y-85175708D01*
X156945663Y-85044516D01*
X156945662Y-85044514D01*
X156885281Y-84898742D01*
X156854500Y-84743993D01*
X156854500Y-84586207D01*
X156885281Y-84431458D01*
X156945662Y-84285686D01*
X156945663Y-84285684D01*
X157033322Y-84154492D01*
X157144892Y-84042922D01*
X157276084Y-83955263D01*
X157276086Y-83955262D01*
X157421858Y-83894881D01*
X157576607Y-83864100D01*
X157734393Y-83864100D01*
X157889142Y-83894881D01*
G37*
G36*
X155349142Y-83894881D02*
G01*
X155494914Y-83955262D01*
X155494916Y-83955263D01*
X155626108Y-84042922D01*
X155737678Y-84154492D01*
X155825337Y-84285684D01*
X155825338Y-84285686D01*
X155885719Y-84431458D01*
X155916500Y-84586207D01*
X155916500Y-84743993D01*
X155885719Y-84898742D01*
X155825338Y-85044514D01*
X155825337Y-85044516D01*
X155737678Y-85175708D01*
X155626108Y-85287278D01*
X155494916Y-85374937D01*
X155494915Y-85374938D01*
X155494914Y-85374938D01*
X155349142Y-85435319D01*
X155194393Y-85466100D01*
X155036607Y-85466100D01*
X154881858Y-85435319D01*
X154736086Y-85374938D01*
X154736085Y-85374938D01*
X154736084Y-85374937D01*
X154604892Y-85287278D01*
X154493322Y-85175708D01*
X154405663Y-85044516D01*
X154405662Y-85044514D01*
X154345281Y-84898742D01*
X154314500Y-84743993D01*
X154314500Y-84586207D01*
X154345281Y-84431458D01*
X154405662Y-84285686D01*
X154405663Y-84285684D01*
X154493322Y-84154492D01*
X154604892Y-84042922D01*
X154736084Y-83955263D01*
X154736086Y-83955262D01*
X154881858Y-83894881D01*
X155036607Y-83864100D01*
X155194393Y-83864100D01*
X155349142Y-83894881D01*
G37*
G36*
X109009142Y-83894881D02*
G01*
X109154914Y-83955262D01*
X109154916Y-83955263D01*
X109286108Y-84042922D01*
X109397678Y-84154492D01*
X109485337Y-84285684D01*
X109485338Y-84285686D01*
X109545719Y-84431458D01*
X109576500Y-84586207D01*
X109576500Y-84743993D01*
X109545719Y-84898742D01*
X109485338Y-85044514D01*
X109485337Y-85044516D01*
X109397678Y-85175708D01*
X109286108Y-85287278D01*
X109154916Y-85374937D01*
X109154915Y-85374938D01*
X109154914Y-85374938D01*
X109009142Y-85435319D01*
X108854393Y-85466100D01*
X108696607Y-85466100D01*
X108541858Y-85435319D01*
X108396086Y-85374938D01*
X108396085Y-85374938D01*
X108396084Y-85374937D01*
X108264892Y-85287278D01*
X108153322Y-85175708D01*
X108065663Y-85044516D01*
X108065662Y-85044514D01*
X108005281Y-84898742D01*
X107974500Y-84743993D01*
X107974500Y-84586207D01*
X108005281Y-84431458D01*
X108065662Y-84285686D01*
X108065663Y-84285684D01*
X108153322Y-84154492D01*
X108264892Y-84042922D01*
X108396084Y-83955263D01*
X108396086Y-83955262D01*
X108541858Y-83894881D01*
X108696607Y-83864100D01*
X108854393Y-83864100D01*
X109009142Y-83894881D01*
G37*
G36*
X107036500Y-85466100D02*
G01*
X105434500Y-85466100D01*
X105434500Y-83864100D01*
X107036500Y-83864100D01*
X107036500Y-85466100D01*
G37*
G36*
X160429142Y-83894881D02*
G01*
X160574914Y-83955262D01*
X160574916Y-83955263D01*
X160706108Y-84042922D01*
X160817678Y-84154492D01*
X160905337Y-84285684D01*
X160905338Y-84285686D01*
X160965719Y-84431458D01*
X160996500Y-84586207D01*
X160996500Y-84743993D01*
X160965719Y-84898742D01*
X160905338Y-85044514D01*
X160905337Y-85044516D01*
X160817678Y-85175708D01*
X160706108Y-85287278D01*
X160574916Y-85374937D01*
X160574915Y-85374938D01*
X160574914Y-85374938D01*
X160429142Y-85435319D01*
X160274393Y-85466100D01*
X160116607Y-85466100D01*
X159961858Y-85435319D01*
X159816086Y-85374938D01*
X159816085Y-85374938D01*
X159816084Y-85374937D01*
X159684892Y-85287278D01*
X159573322Y-85175708D01*
X159485663Y-85044516D01*
X159485662Y-85044514D01*
X159425281Y-84898742D01*
X159394500Y-84743993D01*
X159394500Y-84586207D01*
X159425281Y-84431458D01*
X159485662Y-84285686D01*
X159485663Y-84285684D01*
X159573322Y-84154492D01*
X159684892Y-84042922D01*
X159816084Y-83955263D01*
X159816086Y-83955262D01*
X159961858Y-83894881D01*
X160116607Y-83864100D01*
X160274393Y-83864100D01*
X160429142Y-83894881D01*
G37*
G36*
X162969142Y-83894881D02*
G01*
X163114914Y-83955262D01*
X163114916Y-83955263D01*
X163246108Y-84042922D01*
X163357678Y-84154492D01*
X163445337Y-84285684D01*
X163445338Y-84285686D01*
X163505719Y-84431458D01*
X163536500Y-84586207D01*
X163536500Y-84743993D01*
X163505719Y-84898742D01*
X163445338Y-85044514D01*
X163445337Y-85044516D01*
X163357678Y-85175708D01*
X163246108Y-85287278D01*
X163114916Y-85374937D01*
X163114915Y-85374938D01*
X163114914Y-85374938D01*
X162969142Y-85435319D01*
X162814393Y-85466100D01*
X162656607Y-85466100D01*
X162501858Y-85435319D01*
X162356086Y-85374938D01*
X162356085Y-85374938D01*
X162356084Y-85374937D01*
X162224892Y-85287278D01*
X162113322Y-85175708D01*
X162025663Y-85044516D01*
X162025662Y-85044514D01*
X161965281Y-84898742D01*
X161934500Y-84743993D01*
X161934500Y-84586207D01*
X161965281Y-84431458D01*
X162025662Y-84285686D01*
X162025663Y-84285684D01*
X162113322Y-84154492D01*
X162224892Y-84042922D01*
X162356084Y-83955263D01*
X162356086Y-83955262D01*
X162501858Y-83894881D01*
X162656607Y-83864100D01*
X162814393Y-83864100D01*
X162969142Y-83894881D01*
G37*
G36*
X98358103Y-81389175D02*
G01*
X98585771Y-81483478D01*
X98790666Y-81620385D01*
X98964915Y-81794634D01*
X99101822Y-81999529D01*
X99101823Y-81999531D01*
X99153545Y-82124400D01*
X99196125Y-82227197D01*
X99244200Y-82468887D01*
X99244200Y-82715313D01*
X99196125Y-82957003D01*
X99101822Y-83184671D01*
X98964915Y-83389566D01*
X98790666Y-83563815D01*
X98585771Y-83700722D01*
X98585770Y-83700723D01*
X98585769Y-83700723D01*
X98358103Y-83795025D01*
X98116414Y-83843100D01*
X97869986Y-83843100D01*
X97628297Y-83795025D01*
X97400631Y-83700723D01*
X97400630Y-83700723D01*
X97400629Y-83700722D01*
X97195734Y-83563815D01*
X97021485Y-83389566D01*
X96884578Y-83184671D01*
X96790275Y-82957003D01*
X96742200Y-82715313D01*
X96742200Y-82468887D01*
X96790275Y-82227197D01*
X96832855Y-82124400D01*
X96884577Y-81999531D01*
X96884578Y-81999529D01*
X97021485Y-81794634D01*
X97195734Y-81620385D01*
X97400629Y-81483478D01*
X97628297Y-81389175D01*
X97869986Y-81341100D01*
X98116414Y-81341100D01*
X98358103Y-81389175D01*
G37*
G36*
X142158103Y-81389175D02*
G01*
X142385771Y-81483478D01*
X142590666Y-81620385D01*
X142764915Y-81794634D01*
X142901822Y-81999529D01*
X142901823Y-81999531D01*
X142953545Y-82124400D01*
X142996125Y-82227197D01*
X143044200Y-82468887D01*
X143044200Y-82715313D01*
X142996125Y-82957003D01*
X142901822Y-83184671D01*
X142764915Y-83389566D01*
X142590666Y-83563815D01*
X142385771Y-83700722D01*
X142385770Y-83700723D01*
X142385769Y-83700723D01*
X142158103Y-83795025D01*
X141916414Y-83843100D01*
X141669986Y-83843100D01*
X141428297Y-83795025D01*
X141200631Y-83700723D01*
X141200630Y-83700723D01*
X141200629Y-83700722D01*
X140995734Y-83563815D01*
X140821485Y-83389566D01*
X140684578Y-83184671D01*
X140590275Y-82957003D01*
X140542200Y-82715313D01*
X140542200Y-82468887D01*
X140590275Y-82227197D01*
X140632855Y-82124400D01*
X140684577Y-81999531D01*
X140684578Y-81999529D01*
X140821485Y-81794634D01*
X140995734Y-81620385D01*
X141200629Y-81483478D01*
X141428297Y-81389175D01*
X141669986Y-81341100D01*
X141916414Y-81341100D01*
X142158103Y-81389175D01*
G37*
G36*
X104367812Y-80327327D02*
G01*
X104517112Y-80357024D01*
X104681084Y-80424944D01*
X104828654Y-80523547D01*
X104954153Y-80649046D01*
X105052756Y-80796616D01*
X105120676Y-80960588D01*
X105155300Y-81134659D01*
X105155300Y-81312141D01*
X105120676Y-81486212D01*
X105052756Y-81650184D01*
X104954153Y-81797754D01*
X104828654Y-81923253D01*
X104681084Y-82021856D01*
X104517112Y-82089776D01*
X104367812Y-82119473D01*
X104343042Y-82124400D01*
X104165558Y-82124400D01*
X104140788Y-82119473D01*
X103991488Y-82089776D01*
X103827516Y-82021856D01*
X103679946Y-81923253D01*
X103554447Y-81797754D01*
X103455844Y-81650184D01*
X103387924Y-81486212D01*
X103353300Y-81312141D01*
X103353300Y-81134659D01*
X103387924Y-80960588D01*
X103455844Y-80796616D01*
X103554447Y-80649046D01*
X103679946Y-80523547D01*
X103827516Y-80424944D01*
X103991488Y-80357024D01*
X104140788Y-80327327D01*
X104165558Y-80322400D01*
X104343042Y-80322400D01*
X104367812Y-80327327D01*
G37*
G36*
X148167812Y-80327327D02*
G01*
X148317112Y-80357024D01*
X148481084Y-80424944D01*
X148628654Y-80523547D01*
X148754153Y-80649046D01*
X148852756Y-80796616D01*
X148920676Y-80960588D01*
X148955300Y-81134659D01*
X148955300Y-81312141D01*
X148920676Y-81486212D01*
X148852756Y-81650184D01*
X148754153Y-81797754D01*
X148628654Y-81923253D01*
X148481084Y-82021856D01*
X148317112Y-82089776D01*
X148167812Y-82119473D01*
X148143042Y-82124400D01*
X147965558Y-82124400D01*
X147940788Y-82119473D01*
X147791488Y-82089776D01*
X147627516Y-82021856D01*
X147479946Y-81923253D01*
X147354447Y-81797754D01*
X147255844Y-81650184D01*
X147187924Y-81486212D01*
X147153300Y-81312141D01*
X147153300Y-81134659D01*
X147187924Y-80960588D01*
X147255844Y-80796616D01*
X147354447Y-80649046D01*
X147479946Y-80523547D01*
X147627516Y-80424944D01*
X147791488Y-80357024D01*
X147940788Y-80327327D01*
X147965558Y-80322400D01*
X148143042Y-80322400D01*
X148167812Y-80327327D01*
G37*
G36*
X142136832Y-77884944D02*
G01*
X142158103Y-77889175D01*
X142385771Y-77983478D01*
X142590666Y-78120385D01*
X142764915Y-78294634D01*
X142901822Y-78499529D01*
X142901823Y-78499531D01*
X142996125Y-78727197D01*
X143039690Y-78946211D01*
X143044200Y-78968887D01*
X143044200Y-79215313D01*
X142996125Y-79457003D01*
X142901822Y-79684671D01*
X142764915Y-79889566D01*
X142590666Y-80063815D01*
X142385771Y-80200722D01*
X142385770Y-80200723D01*
X142385769Y-80200723D01*
X142158103Y-80295025D01*
X141916414Y-80343100D01*
X141669986Y-80343100D01*
X141428297Y-80295025D01*
X141200631Y-80200723D01*
X141200630Y-80200723D01*
X141200629Y-80200722D01*
X140995734Y-80063815D01*
X140821485Y-79889566D01*
X140684578Y-79684671D01*
X140590275Y-79457003D01*
X140542200Y-79215313D01*
X140542200Y-78968887D01*
X140546711Y-78946211D01*
X140590275Y-78727197D01*
X140684577Y-78499531D01*
X140684578Y-78499529D01*
X140821485Y-78294634D01*
X140995734Y-78120385D01*
X141200629Y-77983478D01*
X141428297Y-77889175D01*
X141449568Y-77884944D01*
X141669986Y-77841100D01*
X141916414Y-77841100D01*
X142136832Y-77884944D01*
G37*
G36*
X98336832Y-77884944D02*
G01*
X98358103Y-77889175D01*
X98585771Y-77983478D01*
X98790666Y-78120385D01*
X98964915Y-78294634D01*
X99101822Y-78499529D01*
X99101823Y-78499531D01*
X99196125Y-78727197D01*
X99239690Y-78946211D01*
X99244200Y-78968887D01*
X99244200Y-79215313D01*
X99196125Y-79457003D01*
X99101822Y-79684671D01*
X98964915Y-79889566D01*
X98790666Y-80063815D01*
X98585771Y-80200722D01*
X98585770Y-80200723D01*
X98585769Y-80200723D01*
X98358103Y-80295025D01*
X98116414Y-80343100D01*
X97869986Y-80343100D01*
X97628297Y-80295025D01*
X97400631Y-80200723D01*
X97400630Y-80200723D01*
X97400629Y-80200722D01*
X97195734Y-80063815D01*
X97021485Y-79889566D01*
X96884578Y-79684671D01*
X96790275Y-79457003D01*
X96742200Y-79215313D01*
X96742200Y-78968887D01*
X96746711Y-78946211D01*
X96790275Y-78727197D01*
X96884577Y-78499531D01*
X96884578Y-78499529D01*
X97021485Y-78294634D01*
X97195734Y-78120385D01*
X97400629Y-77983478D01*
X97628297Y-77889175D01*
X97649568Y-77884944D01*
X97869986Y-77841100D01*
X98116414Y-77841100D01*
X98336832Y-77884944D01*
G37*
G36*
X104367812Y-77787327D02*
G01*
X104517112Y-77817024D01*
X104681084Y-77884944D01*
X104828654Y-77983547D01*
X104954153Y-78109046D01*
X105052756Y-78256616D01*
X105120676Y-78420588D01*
X105155300Y-78594659D01*
X105155300Y-78772141D01*
X105120676Y-78946212D01*
X105052756Y-79110184D01*
X104954153Y-79257754D01*
X104828654Y-79383253D01*
X104681084Y-79481856D01*
X104517112Y-79549776D01*
X104367812Y-79579473D01*
X104343042Y-79584400D01*
X104165558Y-79584400D01*
X104140788Y-79579473D01*
X103991488Y-79549776D01*
X103827516Y-79481856D01*
X103679946Y-79383253D01*
X103554447Y-79257754D01*
X103455844Y-79110184D01*
X103387924Y-78946212D01*
X103353300Y-78772141D01*
X103353300Y-78594659D01*
X103387924Y-78420588D01*
X103455844Y-78256616D01*
X103554447Y-78109046D01*
X103679946Y-77983547D01*
X103827516Y-77884944D01*
X103991488Y-77817024D01*
X104140788Y-77787327D01*
X104165558Y-77782400D01*
X104343042Y-77782400D01*
X104367812Y-77787327D01*
G37*
G36*
X148167812Y-77787327D02*
G01*
X148317112Y-77817024D01*
X148481084Y-77884944D01*
X148628654Y-77983547D01*
X148754153Y-78109046D01*
X148852756Y-78256616D01*
X148920676Y-78420588D01*
X148955300Y-78594659D01*
X148955300Y-78772141D01*
X148920676Y-78946212D01*
X148852756Y-79110184D01*
X148754153Y-79257754D01*
X148628654Y-79383253D01*
X148481084Y-79481856D01*
X148317112Y-79549776D01*
X148167812Y-79579473D01*
X148143042Y-79584400D01*
X147965558Y-79584400D01*
X147940788Y-79579473D01*
X147791488Y-79549776D01*
X147627516Y-79481856D01*
X147479946Y-79383253D01*
X147354447Y-79257754D01*
X147255844Y-79110184D01*
X147187924Y-78946212D01*
X147153300Y-78772141D01*
X147153300Y-78594659D01*
X147187924Y-78420588D01*
X147255844Y-78256616D01*
X147354447Y-78109046D01*
X147479946Y-77983547D01*
X147627516Y-77884944D01*
X147791488Y-77817024D01*
X147940788Y-77787327D01*
X147965558Y-77782400D01*
X148143042Y-77782400D01*
X148167812Y-77787327D01*
G37*
G36*
X104367812Y-75247327D02*
G01*
X104517112Y-75277024D01*
X104681084Y-75344944D01*
X104828654Y-75443547D01*
X104954153Y-75569046D01*
X105052756Y-75716616D01*
X105120676Y-75880588D01*
X105155300Y-76054659D01*
X105155300Y-76232141D01*
X105120676Y-76406212D01*
X105052756Y-76570184D01*
X104954153Y-76717754D01*
X104828654Y-76843253D01*
X104681084Y-76941856D01*
X104517112Y-77009776D01*
X104367812Y-77039473D01*
X104343042Y-77044400D01*
X104165558Y-77044400D01*
X104140788Y-77039473D01*
X103991488Y-77009776D01*
X103827516Y-76941856D01*
X103679946Y-76843253D01*
X103554447Y-76717754D01*
X103455844Y-76570184D01*
X103387924Y-76406212D01*
X103353300Y-76232141D01*
X103353300Y-76054659D01*
X103387924Y-75880588D01*
X103455844Y-75716616D01*
X103554447Y-75569046D01*
X103679946Y-75443547D01*
X103827516Y-75344944D01*
X103991488Y-75277024D01*
X104140788Y-75247327D01*
X104165558Y-75242400D01*
X104343042Y-75242400D01*
X104367812Y-75247327D01*
G37*
G36*
X148167812Y-75247327D02*
G01*
X148317112Y-75277024D01*
X148481084Y-75344944D01*
X148628654Y-75443547D01*
X148754153Y-75569046D01*
X148852756Y-75716616D01*
X148920676Y-75880588D01*
X148955300Y-76054659D01*
X148955300Y-76232141D01*
X148920676Y-76406212D01*
X148852756Y-76570184D01*
X148754153Y-76717754D01*
X148628654Y-76843253D01*
X148481084Y-76941856D01*
X148317112Y-77009776D01*
X148167812Y-77039473D01*
X148143042Y-77044400D01*
X147965558Y-77044400D01*
X147940788Y-77039473D01*
X147791488Y-77009776D01*
X147627516Y-76941856D01*
X147479946Y-76843253D01*
X147354447Y-76717754D01*
X147255844Y-76570184D01*
X147187924Y-76406212D01*
X147153300Y-76232141D01*
X147153300Y-76054659D01*
X147187924Y-75880588D01*
X147255844Y-75716616D01*
X147354447Y-75569046D01*
X147479946Y-75443547D01*
X147627516Y-75344944D01*
X147791488Y-75277024D01*
X147940788Y-75247327D01*
X147965558Y-75242400D01*
X148143042Y-75242400D01*
X148167812Y-75247327D01*
G37*
G36*
X98358103Y-74389175D02*
G01*
X98585771Y-74483478D01*
X98790666Y-74620385D01*
X98964915Y-74794634D01*
X98964916Y-74794636D01*
X99101823Y-74999531D01*
X99196125Y-75227197D01*
X99244200Y-75468886D01*
X99244200Y-75715314D01*
X99211325Y-75880588D01*
X99196125Y-75957003D01*
X99101822Y-76184671D01*
X98964915Y-76389566D01*
X98790666Y-76563815D01*
X98585771Y-76700722D01*
X98585770Y-76700723D01*
X98585769Y-76700723D01*
X98358103Y-76795025D01*
X98116414Y-76843100D01*
X97869986Y-76843100D01*
X97628297Y-76795025D01*
X97400631Y-76700723D01*
X97400630Y-76700723D01*
X97400629Y-76700722D01*
X97195734Y-76563815D01*
X97021485Y-76389566D01*
X96884578Y-76184671D01*
X96790275Y-75957003D01*
X96775075Y-75880588D01*
X96742200Y-75715314D01*
X96742200Y-75468886D01*
X96790275Y-75227197D01*
X96884577Y-74999531D01*
X97021484Y-74794636D01*
X97021485Y-74794634D01*
X97195734Y-74620385D01*
X97400629Y-74483478D01*
X97628297Y-74389175D01*
X97869986Y-74341100D01*
X98116414Y-74341100D01*
X98358103Y-74389175D01*
G37*
G36*
X142158103Y-74389175D02*
G01*
X142385771Y-74483478D01*
X142590666Y-74620385D01*
X142764915Y-74794634D01*
X142764916Y-74794636D01*
X142901823Y-74999531D01*
X142996125Y-75227197D01*
X143044200Y-75468886D01*
X143044200Y-75715314D01*
X143011325Y-75880588D01*
X142996125Y-75957003D01*
X142901822Y-76184671D01*
X142764915Y-76389566D01*
X142590666Y-76563815D01*
X142385771Y-76700722D01*
X142385770Y-76700723D01*
X142385769Y-76700723D01*
X142158103Y-76795025D01*
X141916414Y-76843100D01*
X141669986Y-76843100D01*
X141428297Y-76795025D01*
X141200631Y-76700723D01*
X141200630Y-76700723D01*
X141200629Y-76700722D01*
X140995734Y-76563815D01*
X140821485Y-76389566D01*
X140684578Y-76184671D01*
X140590275Y-75957003D01*
X140575075Y-75880588D01*
X140542200Y-75715314D01*
X140542200Y-75468886D01*
X140590275Y-75227197D01*
X140684577Y-74999531D01*
X140821484Y-74794636D01*
X140821485Y-74794634D01*
X140995734Y-74620385D01*
X141200629Y-74483478D01*
X141428297Y-74389175D01*
X141669986Y-74341100D01*
X141916414Y-74341100D01*
X142158103Y-74389175D01*
G37*
G36*
X148955300Y-74504400D02*
G01*
X147153300Y-74504400D01*
X147153300Y-72702400D01*
X148955300Y-72702400D01*
X148955300Y-74504400D01*
G37*
G36*
X105155300Y-74504400D02*
G01*
X103353300Y-74504400D01*
X103353300Y-72702400D01*
X105155300Y-72702400D01*
X105155300Y-74504400D01*
G37*
G36*
X99244200Y-73343100D02*
G01*
X96742200Y-73343100D01*
X96742200Y-70841100D01*
X99244200Y-70841100D01*
X99244200Y-73343100D01*
G37*
G36*
X143044200Y-73343100D02*
G01*
X140542200Y-73343100D01*
X140542200Y-70841100D01*
X143044200Y-70841100D01*
X143044200Y-73343100D01*
G37*
G36*
X111549142Y-68654881D02*
G01*
X111694914Y-68715262D01*
X111694916Y-68715263D01*
X111826108Y-68802922D01*
X111937678Y-68914492D01*
X112025337Y-69045684D01*
X112025338Y-69045686D01*
X112085719Y-69191458D01*
X112116500Y-69346207D01*
X112116500Y-69503993D01*
X112085719Y-69658742D01*
X112025338Y-69804514D01*
X112025337Y-69804516D01*
X111937678Y-69935708D01*
X111826108Y-70047278D01*
X111694916Y-70134937D01*
X111694915Y-70134938D01*
X111694914Y-70134938D01*
X111549142Y-70195319D01*
X111394393Y-70226100D01*
X111236607Y-70226100D01*
X111081858Y-70195319D01*
X110936086Y-70134938D01*
X110936085Y-70134938D01*
X110936084Y-70134937D01*
X110804892Y-70047278D01*
X110693322Y-69935708D01*
X110605663Y-69804516D01*
X110605662Y-69804514D01*
X110545281Y-69658742D01*
X110514500Y-69503993D01*
X110514500Y-69346207D01*
X110545281Y-69191458D01*
X110605662Y-69045686D01*
X110605663Y-69045684D01*
X110693322Y-68914492D01*
X110804892Y-68802922D01*
X110936084Y-68715263D01*
X110936086Y-68715262D01*
X111081858Y-68654881D01*
X111236607Y-68624100D01*
X111394393Y-68624100D01*
X111549142Y-68654881D01*
G37*
G36*
X114089142Y-68654881D02*
G01*
X114234914Y-68715262D01*
X114234916Y-68715263D01*
X114366108Y-68802922D01*
X114477678Y-68914492D01*
X114565337Y-69045684D01*
X114565338Y-69045686D01*
X114625719Y-69191458D01*
X114656500Y-69346207D01*
X114656500Y-69503993D01*
X114625719Y-69658742D01*
X114565338Y-69804514D01*
X114565337Y-69804516D01*
X114477678Y-69935708D01*
X114366108Y-70047278D01*
X114234916Y-70134937D01*
X114234915Y-70134938D01*
X114234914Y-70134938D01*
X114089142Y-70195319D01*
X113934393Y-70226100D01*
X113776607Y-70226100D01*
X113621858Y-70195319D01*
X113476086Y-70134938D01*
X113476085Y-70134938D01*
X113476084Y-70134937D01*
X113344892Y-70047278D01*
X113233322Y-69935708D01*
X113145663Y-69804516D01*
X113145662Y-69804514D01*
X113085281Y-69658742D01*
X113054500Y-69503993D01*
X113054500Y-69346207D01*
X113085281Y-69191458D01*
X113145662Y-69045686D01*
X113145663Y-69045684D01*
X113233322Y-68914492D01*
X113344892Y-68802922D01*
X113476084Y-68715263D01*
X113476086Y-68715262D01*
X113621858Y-68654881D01*
X113776607Y-68624100D01*
X113934393Y-68624100D01*
X114089142Y-68654881D01*
G37*
G36*
X109009142Y-68654881D02*
G01*
X109154914Y-68715262D01*
X109154916Y-68715263D01*
X109286108Y-68802922D01*
X109397678Y-68914492D01*
X109485337Y-69045684D01*
X109485338Y-69045686D01*
X109545719Y-69191458D01*
X109576500Y-69346207D01*
X109576500Y-69503993D01*
X109545719Y-69658742D01*
X109485338Y-69804514D01*
X109485337Y-69804516D01*
X109397678Y-69935708D01*
X109286108Y-70047278D01*
X109154916Y-70134937D01*
X109154915Y-70134938D01*
X109154914Y-70134938D01*
X109009142Y-70195319D01*
X108854393Y-70226100D01*
X108696607Y-70226100D01*
X108541858Y-70195319D01*
X108396086Y-70134938D01*
X108396085Y-70134938D01*
X108396084Y-70134937D01*
X108264892Y-70047278D01*
X108153322Y-69935708D01*
X108065663Y-69804516D01*
X108065662Y-69804514D01*
X108005281Y-69658742D01*
X107974500Y-69503993D01*
X107974500Y-69346207D01*
X108005281Y-69191458D01*
X108065662Y-69045686D01*
X108065663Y-69045684D01*
X108153322Y-68914492D01*
X108264892Y-68802922D01*
X108396084Y-68715263D01*
X108396086Y-68715262D01*
X108541858Y-68654881D01*
X108696607Y-68624100D01*
X108854393Y-68624100D01*
X109009142Y-68654881D01*
G37*
G36*
X106469142Y-68654881D02*
G01*
X106614914Y-68715262D01*
X106614916Y-68715263D01*
X106746108Y-68802922D01*
X106857678Y-68914492D01*
X106945337Y-69045684D01*
X106945338Y-69045686D01*
X107005719Y-69191458D01*
X107036500Y-69346207D01*
X107036500Y-69503993D01*
X107005719Y-69658742D01*
X106945338Y-69804514D01*
X106945337Y-69804516D01*
X106857678Y-69935708D01*
X106746108Y-70047278D01*
X106614916Y-70134937D01*
X106614915Y-70134938D01*
X106614914Y-70134938D01*
X106469142Y-70195319D01*
X106314393Y-70226100D01*
X106156607Y-70226100D01*
X106001858Y-70195319D01*
X105856086Y-70134938D01*
X105856085Y-70134938D01*
X105856084Y-70134937D01*
X105724892Y-70047278D01*
X105613322Y-69935708D01*
X105525663Y-69804516D01*
X105525662Y-69804514D01*
X105465281Y-69658742D01*
X105434500Y-69503993D01*
X105434500Y-69346207D01*
X105465281Y-69191458D01*
X105525662Y-69045686D01*
X105525663Y-69045684D01*
X105613322Y-68914492D01*
X105724892Y-68802922D01*
X105856084Y-68715263D01*
X105856086Y-68715262D01*
X106001858Y-68654881D01*
X106156607Y-68624100D01*
X106314393Y-68624100D01*
X106469142Y-68654881D01*
G37*
G36*
X116629142Y-68654881D02*
G01*
X116774914Y-68715262D01*
X116774916Y-68715263D01*
X116906108Y-68802922D01*
X117017678Y-68914492D01*
X117105337Y-69045684D01*
X117105338Y-69045686D01*
X117165719Y-69191458D01*
X117196500Y-69346207D01*
X117196500Y-69503993D01*
X117165719Y-69658742D01*
X117105338Y-69804514D01*
X117105337Y-69804516D01*
X117017678Y-69935708D01*
X116906108Y-70047278D01*
X116774916Y-70134937D01*
X116774915Y-70134938D01*
X116774914Y-70134938D01*
X116629142Y-70195319D01*
X116474393Y-70226100D01*
X116316607Y-70226100D01*
X116161858Y-70195319D01*
X116016086Y-70134938D01*
X116016085Y-70134938D01*
X116016084Y-70134937D01*
X115884892Y-70047278D01*
X115773322Y-69935708D01*
X115685663Y-69804516D01*
X115685662Y-69804514D01*
X115625281Y-69658742D01*
X115594500Y-69503993D01*
X115594500Y-69346207D01*
X115625281Y-69191458D01*
X115685662Y-69045686D01*
X115685663Y-69045684D01*
X115773322Y-68914492D01*
X115884892Y-68802922D01*
X116016084Y-68715263D01*
X116016086Y-68715262D01*
X116161858Y-68654881D01*
X116316607Y-68624100D01*
X116474393Y-68624100D01*
X116629142Y-68654881D01*
G37*
G36*
X119169142Y-68654881D02*
G01*
X119314914Y-68715262D01*
X119314916Y-68715263D01*
X119446108Y-68802922D01*
X119557678Y-68914492D01*
X119645337Y-69045684D01*
X119645338Y-69045686D01*
X119705719Y-69191458D01*
X119736500Y-69346207D01*
X119736500Y-69503993D01*
X119705719Y-69658742D01*
X119645338Y-69804514D01*
X119645337Y-69804516D01*
X119557678Y-69935708D01*
X119446108Y-70047278D01*
X119314916Y-70134937D01*
X119314915Y-70134938D01*
X119314914Y-70134938D01*
X119169142Y-70195319D01*
X119014393Y-70226100D01*
X118856607Y-70226100D01*
X118701858Y-70195319D01*
X118556086Y-70134938D01*
X118556085Y-70134938D01*
X118556084Y-70134937D01*
X118424892Y-70047278D01*
X118313322Y-69935708D01*
X118225663Y-69804516D01*
X118225662Y-69804514D01*
X118165281Y-69658742D01*
X118134500Y-69503993D01*
X118134500Y-69346207D01*
X118165281Y-69191458D01*
X118225662Y-69045686D01*
X118225663Y-69045684D01*
X118313322Y-68914492D01*
X118424892Y-68802922D01*
X118556084Y-68715263D01*
X118556086Y-68715262D01*
X118701858Y-68654881D01*
X118856607Y-68624100D01*
X119014393Y-68624100D01*
X119169142Y-68654881D01*
G37*
G36*
X162969142Y-68654881D02*
G01*
X163114914Y-68715262D01*
X163114916Y-68715263D01*
X163246108Y-68802922D01*
X163357678Y-68914492D01*
X163445337Y-69045684D01*
X163445338Y-69045686D01*
X163505719Y-69191458D01*
X163536500Y-69346207D01*
X163536500Y-69503993D01*
X163505719Y-69658742D01*
X163445338Y-69804514D01*
X163445337Y-69804516D01*
X163357678Y-69935708D01*
X163246108Y-70047278D01*
X163114916Y-70134937D01*
X163114915Y-70134938D01*
X163114914Y-70134938D01*
X162969142Y-70195319D01*
X162814393Y-70226100D01*
X162656607Y-70226100D01*
X162501858Y-70195319D01*
X162356086Y-70134938D01*
X162356085Y-70134938D01*
X162356084Y-70134937D01*
X162224892Y-70047278D01*
X162113322Y-69935708D01*
X162025663Y-69804516D01*
X162025662Y-69804514D01*
X161965281Y-69658742D01*
X161934500Y-69503993D01*
X161934500Y-69346207D01*
X161965281Y-69191458D01*
X162025662Y-69045686D01*
X162025663Y-69045684D01*
X162113322Y-68914492D01*
X162224892Y-68802922D01*
X162356084Y-68715263D01*
X162356086Y-68715262D01*
X162501858Y-68654881D01*
X162656607Y-68624100D01*
X162814393Y-68624100D01*
X162969142Y-68654881D01*
G37*
G36*
X160429142Y-68654881D02*
G01*
X160574914Y-68715262D01*
X160574916Y-68715263D01*
X160706108Y-68802922D01*
X160817678Y-68914492D01*
X160905337Y-69045684D01*
X160905338Y-69045686D01*
X160965719Y-69191458D01*
X160996500Y-69346207D01*
X160996500Y-69503993D01*
X160965719Y-69658742D01*
X160905338Y-69804514D01*
X160905337Y-69804516D01*
X160817678Y-69935708D01*
X160706108Y-70047278D01*
X160574916Y-70134937D01*
X160574915Y-70134938D01*
X160574914Y-70134938D01*
X160429142Y-70195319D01*
X160274393Y-70226100D01*
X160116607Y-70226100D01*
X159961858Y-70195319D01*
X159816086Y-70134938D01*
X159816085Y-70134938D01*
X159816084Y-70134937D01*
X159684892Y-70047278D01*
X159573322Y-69935708D01*
X159485663Y-69804516D01*
X159485662Y-69804514D01*
X159425281Y-69658742D01*
X159394500Y-69503993D01*
X159394500Y-69346207D01*
X159425281Y-69191458D01*
X159485662Y-69045686D01*
X159485663Y-69045684D01*
X159573322Y-68914492D01*
X159684892Y-68802922D01*
X159816084Y-68715263D01*
X159816086Y-68715262D01*
X159961858Y-68654881D01*
X160116607Y-68624100D01*
X160274393Y-68624100D01*
X160429142Y-68654881D01*
G37*
G36*
X157889142Y-68654881D02*
G01*
X158034914Y-68715262D01*
X158034916Y-68715263D01*
X158166108Y-68802922D01*
X158277678Y-68914492D01*
X158365337Y-69045684D01*
X158365338Y-69045686D01*
X158425719Y-69191458D01*
X158456500Y-69346207D01*
X158456500Y-69503993D01*
X158425719Y-69658742D01*
X158365338Y-69804514D01*
X158365337Y-69804516D01*
X158277678Y-69935708D01*
X158166108Y-70047278D01*
X158034916Y-70134937D01*
X158034915Y-70134938D01*
X158034914Y-70134938D01*
X157889142Y-70195319D01*
X157734393Y-70226100D01*
X157576607Y-70226100D01*
X157421858Y-70195319D01*
X157276086Y-70134938D01*
X157276085Y-70134938D01*
X157276084Y-70134937D01*
X157144892Y-70047278D01*
X157033322Y-69935708D01*
X156945663Y-69804516D01*
X156945662Y-69804514D01*
X156885281Y-69658742D01*
X156854500Y-69503993D01*
X156854500Y-69346207D01*
X156885281Y-69191458D01*
X156945662Y-69045686D01*
X156945663Y-69045684D01*
X157033322Y-68914492D01*
X157144892Y-68802922D01*
X157276084Y-68715263D01*
X157276086Y-68715262D01*
X157421858Y-68654881D01*
X157576607Y-68624100D01*
X157734393Y-68624100D01*
X157889142Y-68654881D01*
G37*
G36*
X155349142Y-68654881D02*
G01*
X155494914Y-68715262D01*
X155494916Y-68715263D01*
X155626108Y-68802922D01*
X155737678Y-68914492D01*
X155825337Y-69045684D01*
X155825338Y-69045686D01*
X155885719Y-69191458D01*
X155916500Y-69346207D01*
X155916500Y-69503993D01*
X155885719Y-69658742D01*
X155825338Y-69804514D01*
X155825337Y-69804516D01*
X155737678Y-69935708D01*
X155626108Y-70047278D01*
X155494916Y-70134937D01*
X155494915Y-70134938D01*
X155494914Y-70134938D01*
X155349142Y-70195319D01*
X155194393Y-70226100D01*
X155036607Y-70226100D01*
X154881858Y-70195319D01*
X154736086Y-70134938D01*
X154736085Y-70134938D01*
X154736084Y-70134937D01*
X154604892Y-70047278D01*
X154493322Y-69935708D01*
X154405663Y-69804516D01*
X154405662Y-69804514D01*
X154345281Y-69658742D01*
X154314500Y-69503993D01*
X154314500Y-69346207D01*
X154345281Y-69191458D01*
X154405662Y-69045686D01*
X154405663Y-69045684D01*
X154493322Y-68914492D01*
X154604892Y-68802922D01*
X154736084Y-68715263D01*
X154736086Y-68715262D01*
X154881858Y-68654881D01*
X155036607Y-68624100D01*
X155194393Y-68624100D01*
X155349142Y-68654881D01*
G37*
G36*
X152809142Y-68654881D02*
G01*
X152954914Y-68715262D01*
X152954916Y-68715263D01*
X153086108Y-68802922D01*
X153197678Y-68914492D01*
X153285337Y-69045684D01*
X153285338Y-69045686D01*
X153345719Y-69191458D01*
X153376500Y-69346207D01*
X153376500Y-69503993D01*
X153345719Y-69658742D01*
X153285338Y-69804514D01*
X153285337Y-69804516D01*
X153197678Y-69935708D01*
X153086108Y-70047278D01*
X152954916Y-70134937D01*
X152954915Y-70134938D01*
X152954914Y-70134938D01*
X152809142Y-70195319D01*
X152654393Y-70226100D01*
X152496607Y-70226100D01*
X152341858Y-70195319D01*
X152196086Y-70134938D01*
X152196085Y-70134938D01*
X152196084Y-70134937D01*
X152064892Y-70047278D01*
X151953322Y-69935708D01*
X151865663Y-69804516D01*
X151865662Y-69804514D01*
X151805281Y-69658742D01*
X151774500Y-69503993D01*
X151774500Y-69346207D01*
X151805281Y-69191458D01*
X151865662Y-69045686D01*
X151865663Y-69045684D01*
X151953322Y-68914492D01*
X152064892Y-68802922D01*
X152196084Y-68715263D01*
X152196086Y-68715262D01*
X152341858Y-68654881D01*
X152496607Y-68624100D01*
X152654393Y-68624100D01*
X152809142Y-68654881D01*
G37*
G36*
X150269142Y-68654881D02*
G01*
X150414914Y-68715262D01*
X150414916Y-68715263D01*
X150546108Y-68802922D01*
X150657678Y-68914492D01*
X150745337Y-69045684D01*
X150745338Y-69045686D01*
X150805719Y-69191458D01*
X150836500Y-69346207D01*
X150836500Y-69503993D01*
X150805719Y-69658742D01*
X150745338Y-69804514D01*
X150745337Y-69804516D01*
X150657678Y-69935708D01*
X150546108Y-70047278D01*
X150414916Y-70134937D01*
X150414915Y-70134938D01*
X150414914Y-70134938D01*
X150269142Y-70195319D01*
X150114393Y-70226100D01*
X149956607Y-70226100D01*
X149801858Y-70195319D01*
X149656086Y-70134938D01*
X149656085Y-70134938D01*
X149656084Y-70134937D01*
X149524892Y-70047278D01*
X149413322Y-69935708D01*
X149325663Y-69804516D01*
X149325662Y-69804514D01*
X149265281Y-69658742D01*
X149234500Y-69503993D01*
X149234500Y-69346207D01*
X149265281Y-69191458D01*
X149325662Y-69045686D01*
X149325663Y-69045684D01*
X149413322Y-68914492D01*
X149524892Y-68802922D01*
X149656084Y-68715263D01*
X149656086Y-68715262D01*
X149801858Y-68654881D01*
X149956607Y-68624100D01*
X150114393Y-68624100D01*
X150269142Y-68654881D01*
G37*
G36*
X109009142Y-62894881D02*
G01*
X109154914Y-62955262D01*
X109154916Y-62955263D01*
X109286108Y-63042922D01*
X109397678Y-63154492D01*
X109485337Y-63285684D01*
X109485338Y-63285686D01*
X109545719Y-63431458D01*
X109576500Y-63586207D01*
X109576500Y-63743993D01*
X109545719Y-63898742D01*
X109485338Y-64044514D01*
X109485337Y-64044516D01*
X109397678Y-64175708D01*
X109286108Y-64287278D01*
X109154916Y-64374937D01*
X109154915Y-64374938D01*
X109154914Y-64374938D01*
X109009142Y-64435319D01*
X108854393Y-64466100D01*
X108696607Y-64466100D01*
X108541858Y-64435319D01*
X108396086Y-64374938D01*
X108396085Y-64374938D01*
X108396084Y-64374937D01*
X108264892Y-64287278D01*
X108153322Y-64175708D01*
X108065663Y-64044516D01*
X108065662Y-64044514D01*
X108005281Y-63898742D01*
X107974500Y-63743993D01*
X107974500Y-63586207D01*
X108005281Y-63431458D01*
X108065662Y-63285686D01*
X108065663Y-63285684D01*
X108153322Y-63154492D01*
X108264892Y-63042922D01*
X108396084Y-62955263D01*
X108396086Y-62955262D01*
X108541858Y-62894881D01*
X108696607Y-62864100D01*
X108854393Y-62864100D01*
X109009142Y-62894881D01*
G37*
G36*
X111549142Y-62894881D02*
G01*
X111694914Y-62955262D01*
X111694916Y-62955263D01*
X111826108Y-63042922D01*
X111937678Y-63154492D01*
X112025337Y-63285684D01*
X112025338Y-63285686D01*
X112085719Y-63431458D01*
X112116500Y-63586207D01*
X112116500Y-63743993D01*
X112085719Y-63898742D01*
X112025338Y-64044514D01*
X112025337Y-64044516D01*
X111937678Y-64175708D01*
X111826108Y-64287278D01*
X111694916Y-64374937D01*
X111694915Y-64374938D01*
X111694914Y-64374938D01*
X111549142Y-64435319D01*
X111394393Y-64466100D01*
X111236607Y-64466100D01*
X111081858Y-64435319D01*
X110936086Y-64374938D01*
X110936085Y-64374938D01*
X110936084Y-64374937D01*
X110804892Y-64287278D01*
X110693322Y-64175708D01*
X110605663Y-64044516D01*
X110605662Y-64044514D01*
X110545281Y-63898742D01*
X110514500Y-63743993D01*
X110514500Y-63586207D01*
X110545281Y-63431458D01*
X110605662Y-63285686D01*
X110605663Y-63285684D01*
X110693322Y-63154492D01*
X110804892Y-63042922D01*
X110936084Y-62955263D01*
X110936086Y-62955262D01*
X111081858Y-62894881D01*
X111236607Y-62864100D01*
X111394393Y-62864100D01*
X111549142Y-62894881D01*
G37*
G36*
X114089142Y-62894881D02*
G01*
X114234914Y-62955262D01*
X114234916Y-62955263D01*
X114366108Y-63042922D01*
X114477678Y-63154492D01*
X114565337Y-63285684D01*
X114565338Y-63285686D01*
X114625719Y-63431458D01*
X114656500Y-63586207D01*
X114656500Y-63743993D01*
X114625719Y-63898742D01*
X114565338Y-64044514D01*
X114565337Y-64044516D01*
X114477678Y-64175708D01*
X114366108Y-64287278D01*
X114234916Y-64374937D01*
X114234915Y-64374938D01*
X114234914Y-64374938D01*
X114089142Y-64435319D01*
X113934393Y-64466100D01*
X113776607Y-64466100D01*
X113621858Y-64435319D01*
X113476086Y-64374938D01*
X113476085Y-64374938D01*
X113476084Y-64374937D01*
X113344892Y-64287278D01*
X113233322Y-64175708D01*
X113145663Y-64044516D01*
X113145662Y-64044514D01*
X113085281Y-63898742D01*
X113054500Y-63743993D01*
X113054500Y-63586207D01*
X113085281Y-63431458D01*
X113145662Y-63285686D01*
X113145663Y-63285684D01*
X113233322Y-63154492D01*
X113344892Y-63042922D01*
X113476084Y-62955263D01*
X113476086Y-62955262D01*
X113621858Y-62894881D01*
X113776607Y-62864100D01*
X113934393Y-62864100D01*
X114089142Y-62894881D01*
G37*
G36*
X155349142Y-62894881D02*
G01*
X155494914Y-62955262D01*
X155494916Y-62955263D01*
X155626108Y-63042922D01*
X155737678Y-63154492D01*
X155825337Y-63285684D01*
X155825338Y-63285686D01*
X155885719Y-63431458D01*
X155916500Y-63586207D01*
X155916500Y-63743993D01*
X155885719Y-63898742D01*
X155825338Y-64044514D01*
X155825337Y-64044516D01*
X155737678Y-64175708D01*
X155626108Y-64287278D01*
X155494916Y-64374937D01*
X155494915Y-64374938D01*
X155494914Y-64374938D01*
X155349142Y-64435319D01*
X155194393Y-64466100D01*
X155036607Y-64466100D01*
X154881858Y-64435319D01*
X154736086Y-64374938D01*
X154736085Y-64374938D01*
X154736084Y-64374937D01*
X154604892Y-64287278D01*
X154493322Y-64175708D01*
X154405663Y-64044516D01*
X154405662Y-64044514D01*
X154345281Y-63898742D01*
X154314500Y-63743993D01*
X154314500Y-63586207D01*
X154345281Y-63431458D01*
X154405662Y-63285686D01*
X154405663Y-63285684D01*
X154493322Y-63154492D01*
X154604892Y-63042922D01*
X154736084Y-62955263D01*
X154736086Y-62955262D01*
X154881858Y-62894881D01*
X155036607Y-62864100D01*
X155194393Y-62864100D01*
X155349142Y-62894881D01*
G37*
G36*
X116629142Y-62894881D02*
G01*
X116774914Y-62955262D01*
X116774916Y-62955263D01*
X116906108Y-63042922D01*
X117017678Y-63154492D01*
X117105337Y-63285684D01*
X117105338Y-63285686D01*
X117165719Y-63431458D01*
X117196500Y-63586207D01*
X117196500Y-63743993D01*
X117165719Y-63898742D01*
X117105338Y-64044514D01*
X117105337Y-64044516D01*
X117017678Y-64175708D01*
X116906108Y-64287278D01*
X116774916Y-64374937D01*
X116774915Y-64374938D01*
X116774914Y-64374938D01*
X116629142Y-64435319D01*
X116474393Y-64466100D01*
X116316607Y-64466100D01*
X116161858Y-64435319D01*
X116016086Y-64374938D01*
X116016085Y-64374938D01*
X116016084Y-64374937D01*
X115884892Y-64287278D01*
X115773322Y-64175708D01*
X115685663Y-64044516D01*
X115685662Y-64044514D01*
X115625281Y-63898742D01*
X115594500Y-63743993D01*
X115594500Y-63586207D01*
X115625281Y-63431458D01*
X115685662Y-63285686D01*
X115685663Y-63285684D01*
X115773322Y-63154492D01*
X115884892Y-63042922D01*
X116016084Y-62955263D01*
X116016086Y-62955262D01*
X116161858Y-62894881D01*
X116316607Y-62864100D01*
X116474393Y-62864100D01*
X116629142Y-62894881D01*
G37*
G36*
X119169142Y-62894881D02*
G01*
X119314914Y-62955262D01*
X119314916Y-62955263D01*
X119446108Y-63042922D01*
X119557678Y-63154492D01*
X119645337Y-63285684D01*
X119645338Y-63285686D01*
X119705719Y-63431458D01*
X119736500Y-63586207D01*
X119736500Y-63743993D01*
X119705719Y-63898742D01*
X119645338Y-64044514D01*
X119645337Y-64044516D01*
X119557678Y-64175708D01*
X119446108Y-64287278D01*
X119314916Y-64374937D01*
X119314915Y-64374938D01*
X119314914Y-64374938D01*
X119169142Y-64435319D01*
X119014393Y-64466100D01*
X118856607Y-64466100D01*
X118701858Y-64435319D01*
X118556086Y-64374938D01*
X118556085Y-64374938D01*
X118556084Y-64374937D01*
X118424892Y-64287278D01*
X118313322Y-64175708D01*
X118225663Y-64044516D01*
X118225662Y-64044514D01*
X118165281Y-63898742D01*
X118134500Y-63743993D01*
X118134500Y-63586207D01*
X118165281Y-63431458D01*
X118225662Y-63285686D01*
X118225663Y-63285684D01*
X118313322Y-63154492D01*
X118424892Y-63042922D01*
X118556084Y-62955263D01*
X118556086Y-62955262D01*
X118701858Y-62894881D01*
X118856607Y-62864100D01*
X119014393Y-62864100D01*
X119169142Y-62894881D01*
G37*
G36*
X160429142Y-62894881D02*
G01*
X160574914Y-62955262D01*
X160574916Y-62955263D01*
X160706108Y-63042922D01*
X160817678Y-63154492D01*
X160905337Y-63285684D01*
X160905338Y-63285686D01*
X160965719Y-63431458D01*
X160996500Y-63586207D01*
X160996500Y-63743993D01*
X160965719Y-63898742D01*
X160905338Y-64044514D01*
X160905337Y-64044516D01*
X160817678Y-64175708D01*
X160706108Y-64287278D01*
X160574916Y-64374937D01*
X160574915Y-64374938D01*
X160574914Y-64374938D01*
X160429142Y-64435319D01*
X160274393Y-64466100D01*
X160116607Y-64466100D01*
X159961858Y-64435319D01*
X159816086Y-64374938D01*
X159816085Y-64374938D01*
X159816084Y-64374937D01*
X159684892Y-64287278D01*
X159573322Y-64175708D01*
X159485663Y-64044516D01*
X159485662Y-64044514D01*
X159425281Y-63898742D01*
X159394500Y-63743993D01*
X159394500Y-63586207D01*
X159425281Y-63431458D01*
X159485662Y-63285686D01*
X159485663Y-63285684D01*
X159573322Y-63154492D01*
X159684892Y-63042922D01*
X159816084Y-62955263D01*
X159816086Y-62955262D01*
X159961858Y-62894881D01*
X160116607Y-62864100D01*
X160274393Y-62864100D01*
X160429142Y-62894881D01*
G37*
G36*
X162969142Y-62894881D02*
G01*
X163114914Y-62955262D01*
X163114916Y-62955263D01*
X163246108Y-63042922D01*
X163357678Y-63154492D01*
X163445337Y-63285684D01*
X163445338Y-63285686D01*
X163505719Y-63431458D01*
X163536500Y-63586207D01*
X163536500Y-63743993D01*
X163505719Y-63898742D01*
X163445338Y-64044514D01*
X163445337Y-64044516D01*
X163357678Y-64175708D01*
X163246108Y-64287278D01*
X163114916Y-64374937D01*
X163114915Y-64374938D01*
X163114914Y-64374938D01*
X162969142Y-64435319D01*
X162814393Y-64466100D01*
X162656607Y-64466100D01*
X162501858Y-64435319D01*
X162356086Y-64374938D01*
X162356085Y-64374938D01*
X162356084Y-64374937D01*
X162224892Y-64287278D01*
X162113322Y-64175708D01*
X162025663Y-64044516D01*
X162025662Y-64044514D01*
X161965281Y-63898742D01*
X161934500Y-63743993D01*
X161934500Y-63586207D01*
X161965281Y-63431458D01*
X162025662Y-63285686D01*
X162025663Y-63285684D01*
X162113322Y-63154492D01*
X162224892Y-63042922D01*
X162356084Y-62955263D01*
X162356086Y-62955262D01*
X162501858Y-62894881D01*
X162656607Y-62864100D01*
X162814393Y-62864100D01*
X162969142Y-62894881D01*
G37*
G36*
X107036500Y-64466100D02*
G01*
X105434500Y-64466100D01*
X105434500Y-62864100D01*
X107036500Y-62864100D01*
X107036500Y-64466100D01*
G37*
G36*
X150836500Y-64466100D02*
G01*
X149234500Y-64466100D01*
X149234500Y-62864100D01*
X150836500Y-62864100D01*
X150836500Y-64466100D01*
G37*
G36*
X152809142Y-62894881D02*
G01*
X152954914Y-62955262D01*
X152954916Y-62955263D01*
X153086108Y-63042922D01*
X153197678Y-63154492D01*
X153285337Y-63285684D01*
X153285338Y-63285686D01*
X153345719Y-63431458D01*
X153376500Y-63586207D01*
X153376500Y-63743993D01*
X153345719Y-63898742D01*
X153285338Y-64044514D01*
X153285337Y-64044516D01*
X153197678Y-64175708D01*
X153086108Y-64287278D01*
X152954916Y-64374937D01*
X152954915Y-64374938D01*
X152954914Y-64374938D01*
X152809142Y-64435319D01*
X152654393Y-64466100D01*
X152496607Y-64466100D01*
X152341858Y-64435319D01*
X152196086Y-64374938D01*
X152196085Y-64374938D01*
X152196084Y-64374937D01*
X152064892Y-64287278D01*
X151953322Y-64175708D01*
X151865663Y-64044516D01*
X151865662Y-64044514D01*
X151805281Y-63898742D01*
X151774500Y-63743993D01*
X151774500Y-63586207D01*
X151805281Y-63431458D01*
X151865662Y-63285686D01*
X151865663Y-63285684D01*
X151953322Y-63154492D01*
X152064892Y-63042922D01*
X152196084Y-62955263D01*
X152196086Y-62955262D01*
X152341858Y-62894881D01*
X152496607Y-62864100D01*
X152654393Y-62864100D01*
X152809142Y-62894881D01*
G37*
G36*
X157889142Y-62894881D02*
G01*
X158034914Y-62955262D01*
X158034916Y-62955263D01*
X158166108Y-63042922D01*
X158277678Y-63154492D01*
X158365337Y-63285684D01*
X158365338Y-63285686D01*
X158425719Y-63431458D01*
X158456500Y-63586207D01*
X158456500Y-63743993D01*
X158425719Y-63898742D01*
X158365338Y-64044514D01*
X158365337Y-64044516D01*
X158277678Y-64175708D01*
X158166108Y-64287278D01*
X158034916Y-64374937D01*
X158034915Y-64374938D01*
X158034914Y-64374938D01*
X157889142Y-64435319D01*
X157734393Y-64466100D01*
X157576607Y-64466100D01*
X157421858Y-64435319D01*
X157276086Y-64374938D01*
X157276085Y-64374938D01*
X157276084Y-64374937D01*
X157144892Y-64287278D01*
X157033322Y-64175708D01*
X156945663Y-64044516D01*
X156945662Y-64044514D01*
X156885281Y-63898742D01*
X156854500Y-63743993D01*
X156854500Y-63586207D01*
X156885281Y-63431458D01*
X156945662Y-63285686D01*
X156945663Y-63285684D01*
X157033322Y-63154492D01*
X157144892Y-63042922D01*
X157276084Y-62955263D01*
X157276086Y-62955262D01*
X157421858Y-62894881D01*
X157576607Y-62864100D01*
X157734393Y-62864100D01*
X157889142Y-62894881D01*
G37*
G36*
X98358103Y-60389175D02*
G01*
X98585771Y-60483478D01*
X98790666Y-60620385D01*
X98964915Y-60794634D01*
X99101822Y-60999529D01*
X99101823Y-60999531D01*
X99153545Y-61124400D01*
X99196125Y-61227197D01*
X99244200Y-61468887D01*
X99244200Y-61715313D01*
X99196125Y-61957003D01*
X99101822Y-62184671D01*
X98964915Y-62389566D01*
X98790666Y-62563815D01*
X98585771Y-62700722D01*
X98585770Y-62700723D01*
X98585769Y-62700723D01*
X98358103Y-62795025D01*
X98116414Y-62843100D01*
X97869986Y-62843100D01*
X97628297Y-62795025D01*
X97400631Y-62700723D01*
X97400630Y-62700723D01*
X97400629Y-62700722D01*
X97195734Y-62563815D01*
X97021485Y-62389566D01*
X96884578Y-62184671D01*
X96790275Y-61957003D01*
X96742200Y-61715313D01*
X96742200Y-61468887D01*
X96790275Y-61227197D01*
X96832855Y-61124400D01*
X96884577Y-60999531D01*
X96884578Y-60999529D01*
X97021485Y-60794634D01*
X97195734Y-60620385D01*
X97400629Y-60483478D01*
X97628297Y-60389175D01*
X97869986Y-60341100D01*
X98116414Y-60341100D01*
X98358103Y-60389175D01*
G37*
G36*
X142158103Y-60389175D02*
G01*
X142385771Y-60483478D01*
X142590666Y-60620385D01*
X142764915Y-60794634D01*
X142901822Y-60999529D01*
X142901823Y-60999531D01*
X142953545Y-61124400D01*
X142996125Y-61227197D01*
X143044200Y-61468887D01*
X143044200Y-61715313D01*
X142996125Y-61957003D01*
X142901822Y-62184671D01*
X142764915Y-62389566D01*
X142590666Y-62563815D01*
X142385771Y-62700722D01*
X142385770Y-62700723D01*
X142385769Y-62700723D01*
X142158103Y-62795025D01*
X141916414Y-62843100D01*
X141669986Y-62843100D01*
X141428297Y-62795025D01*
X141200631Y-62700723D01*
X141200630Y-62700723D01*
X141200629Y-62700722D01*
X140995734Y-62563815D01*
X140821485Y-62389566D01*
X140684578Y-62184671D01*
X140590275Y-61957003D01*
X140542200Y-61715313D01*
X140542200Y-61468887D01*
X140590275Y-61227197D01*
X140632855Y-61124400D01*
X140684577Y-60999531D01*
X140684578Y-60999529D01*
X140821485Y-60794634D01*
X140995734Y-60620385D01*
X141200629Y-60483478D01*
X141428297Y-60389175D01*
X141669986Y-60341100D01*
X141916414Y-60341100D01*
X142158103Y-60389175D01*
G37*
G36*
X104367812Y-59327327D02*
G01*
X104517112Y-59357024D01*
X104681084Y-59424944D01*
X104828654Y-59523547D01*
X104954153Y-59649046D01*
X105052756Y-59796616D01*
X105120676Y-59960588D01*
X105155300Y-60134659D01*
X105155300Y-60312141D01*
X105120676Y-60486212D01*
X105052756Y-60650184D01*
X104954153Y-60797754D01*
X104828654Y-60923253D01*
X104681084Y-61021856D01*
X104517112Y-61089776D01*
X104367812Y-61119473D01*
X104343042Y-61124400D01*
X104165558Y-61124400D01*
X104140788Y-61119473D01*
X103991488Y-61089776D01*
X103827516Y-61021856D01*
X103679946Y-60923253D01*
X103554447Y-60797754D01*
X103455844Y-60650184D01*
X103387924Y-60486212D01*
X103353300Y-60312141D01*
X103353300Y-60134659D01*
X103387924Y-59960588D01*
X103455844Y-59796616D01*
X103554447Y-59649046D01*
X103679946Y-59523547D01*
X103827516Y-59424944D01*
X103991488Y-59357024D01*
X104140788Y-59327327D01*
X104165558Y-59322400D01*
X104343042Y-59322400D01*
X104367812Y-59327327D01*
G37*
G36*
X148167812Y-59327327D02*
G01*
X148317112Y-59357024D01*
X148481084Y-59424944D01*
X148628654Y-59523547D01*
X148754153Y-59649046D01*
X148852756Y-59796616D01*
X148920676Y-59960588D01*
X148955300Y-60134659D01*
X148955300Y-60312141D01*
X148920676Y-60486212D01*
X148852756Y-60650184D01*
X148754153Y-60797754D01*
X148628654Y-60923253D01*
X148481084Y-61021856D01*
X148317112Y-61089776D01*
X148167812Y-61119473D01*
X148143042Y-61124400D01*
X147965558Y-61124400D01*
X147940788Y-61119473D01*
X147791488Y-61089776D01*
X147627516Y-61021856D01*
X147479946Y-60923253D01*
X147354447Y-60797754D01*
X147255844Y-60650184D01*
X147187924Y-60486212D01*
X147153300Y-60312141D01*
X147153300Y-60134659D01*
X147187924Y-59960588D01*
X147255844Y-59796616D01*
X147354447Y-59649046D01*
X147479946Y-59523547D01*
X147627516Y-59424944D01*
X147791488Y-59357024D01*
X147940788Y-59327327D01*
X147965558Y-59322400D01*
X148143042Y-59322400D01*
X148167812Y-59327327D01*
G37*
G36*
X142136832Y-56884944D02*
G01*
X142158103Y-56889175D01*
X142385771Y-56983478D01*
X142590666Y-57120385D01*
X142764915Y-57294634D01*
X142901822Y-57499529D01*
X142901823Y-57499531D01*
X142996125Y-57727197D01*
X143039690Y-57946211D01*
X143044200Y-57968887D01*
X143044200Y-58215313D01*
X142996125Y-58457003D01*
X142901822Y-58684671D01*
X142764915Y-58889566D01*
X142590666Y-59063815D01*
X142385771Y-59200722D01*
X142385770Y-59200723D01*
X142385769Y-59200723D01*
X142158103Y-59295025D01*
X141916414Y-59343100D01*
X141669986Y-59343100D01*
X141428297Y-59295025D01*
X141200631Y-59200723D01*
X141200630Y-59200723D01*
X141200629Y-59200722D01*
X140995734Y-59063815D01*
X140821485Y-58889566D01*
X140684578Y-58684671D01*
X140590275Y-58457003D01*
X140542200Y-58215313D01*
X140542200Y-57968887D01*
X140546711Y-57946211D01*
X140590275Y-57727197D01*
X140684577Y-57499531D01*
X140684578Y-57499529D01*
X140821485Y-57294634D01*
X140995734Y-57120385D01*
X141200629Y-56983478D01*
X141428297Y-56889175D01*
X141449568Y-56884944D01*
X141669986Y-56841100D01*
X141916414Y-56841100D01*
X142136832Y-56884944D01*
G37*
G36*
X98336832Y-56884944D02*
G01*
X98358103Y-56889175D01*
X98585771Y-56983478D01*
X98790666Y-57120385D01*
X98964915Y-57294634D01*
X99101822Y-57499529D01*
X99101823Y-57499531D01*
X99196125Y-57727197D01*
X99239690Y-57946211D01*
X99244200Y-57968887D01*
X99244200Y-58215313D01*
X99196125Y-58457003D01*
X99101822Y-58684671D01*
X98964915Y-58889566D01*
X98790666Y-59063815D01*
X98585771Y-59200722D01*
X98585770Y-59200723D01*
X98585769Y-59200723D01*
X98358103Y-59295025D01*
X98116414Y-59343100D01*
X97869986Y-59343100D01*
X97628297Y-59295025D01*
X97400631Y-59200723D01*
X97400630Y-59200723D01*
X97400629Y-59200722D01*
X97195734Y-59063815D01*
X97021485Y-58889566D01*
X96884578Y-58684671D01*
X96790275Y-58457003D01*
X96742200Y-58215313D01*
X96742200Y-57968887D01*
X96746711Y-57946211D01*
X96790275Y-57727197D01*
X96884577Y-57499531D01*
X96884578Y-57499529D01*
X97021485Y-57294634D01*
X97195734Y-57120385D01*
X97400629Y-56983478D01*
X97628297Y-56889175D01*
X97649568Y-56884944D01*
X97869986Y-56841100D01*
X98116414Y-56841100D01*
X98336832Y-56884944D01*
G37*
G36*
X148167812Y-56787327D02*
G01*
X148317112Y-56817024D01*
X148481084Y-56884944D01*
X148628654Y-56983547D01*
X148754153Y-57109046D01*
X148852756Y-57256616D01*
X148920676Y-57420588D01*
X148955300Y-57594659D01*
X148955300Y-57772141D01*
X148920676Y-57946212D01*
X148852756Y-58110184D01*
X148754153Y-58257754D01*
X148628654Y-58383253D01*
X148481084Y-58481856D01*
X148317112Y-58549776D01*
X148167812Y-58579473D01*
X148143042Y-58584400D01*
X147965558Y-58584400D01*
X147940788Y-58579473D01*
X147791488Y-58549776D01*
X147627516Y-58481856D01*
X147479946Y-58383253D01*
X147354447Y-58257754D01*
X147255844Y-58110184D01*
X147187924Y-57946212D01*
X147153300Y-57772141D01*
X147153300Y-57594659D01*
X147187924Y-57420588D01*
X147255844Y-57256616D01*
X147354447Y-57109046D01*
X147479946Y-56983547D01*
X147627516Y-56884944D01*
X147791488Y-56817024D01*
X147940788Y-56787327D01*
X147965558Y-56782400D01*
X148143042Y-56782400D01*
X148167812Y-56787327D01*
G37*
G36*
X104367812Y-56787327D02*
G01*
X104517112Y-56817024D01*
X104681084Y-56884944D01*
X104828654Y-56983547D01*
X104954153Y-57109046D01*
X105052756Y-57256616D01*
X105120676Y-57420588D01*
X105155300Y-57594659D01*
X105155300Y-57772141D01*
X105120676Y-57946212D01*
X105052756Y-58110184D01*
X104954153Y-58257754D01*
X104828654Y-58383253D01*
X104681084Y-58481856D01*
X104517112Y-58549776D01*
X104367812Y-58579473D01*
X104343042Y-58584400D01*
X104165558Y-58584400D01*
X104140788Y-58579473D01*
X103991488Y-58549776D01*
X103827516Y-58481856D01*
X103679946Y-58383253D01*
X103554447Y-58257754D01*
X103455844Y-58110184D01*
X103387924Y-57946212D01*
X103353300Y-57772141D01*
X103353300Y-57594659D01*
X103387924Y-57420588D01*
X103455844Y-57256616D01*
X103554447Y-57109046D01*
X103679946Y-56983547D01*
X103827516Y-56884944D01*
X103991488Y-56817024D01*
X104140788Y-56787327D01*
X104165558Y-56782400D01*
X104343042Y-56782400D01*
X104367812Y-56787327D01*
G37*
G36*
X104367812Y-54247327D02*
G01*
X104517112Y-54277024D01*
X104681084Y-54344944D01*
X104828654Y-54443547D01*
X104954153Y-54569046D01*
X105052756Y-54716616D01*
X105120676Y-54880588D01*
X105155300Y-55054659D01*
X105155300Y-55232141D01*
X105120676Y-55406212D01*
X105052756Y-55570184D01*
X104954153Y-55717754D01*
X104828654Y-55843253D01*
X104681084Y-55941856D01*
X104517112Y-56009776D01*
X104367812Y-56039473D01*
X104343042Y-56044400D01*
X104165558Y-56044400D01*
X104140788Y-56039473D01*
X103991488Y-56009776D01*
X103827516Y-55941856D01*
X103679946Y-55843253D01*
X103554447Y-55717754D01*
X103455844Y-55570184D01*
X103387924Y-55406212D01*
X103353300Y-55232141D01*
X103353300Y-55054659D01*
X103387924Y-54880588D01*
X103455844Y-54716616D01*
X103554447Y-54569046D01*
X103679946Y-54443547D01*
X103827516Y-54344944D01*
X103991488Y-54277024D01*
X104140788Y-54247327D01*
X104165558Y-54242400D01*
X104343042Y-54242400D01*
X104367812Y-54247327D01*
G37*
G36*
X148167812Y-54247327D02*
G01*
X148317112Y-54277024D01*
X148481084Y-54344944D01*
X148628654Y-54443547D01*
X148754153Y-54569046D01*
X148852756Y-54716616D01*
X148920676Y-54880588D01*
X148955300Y-55054659D01*
X148955300Y-55232141D01*
X148920676Y-55406212D01*
X148852756Y-55570184D01*
X148754153Y-55717754D01*
X148628654Y-55843253D01*
X148481084Y-55941856D01*
X148317112Y-56009776D01*
X148167812Y-56039473D01*
X148143042Y-56044400D01*
X147965558Y-56044400D01*
X147940788Y-56039473D01*
X147791488Y-56009776D01*
X147627516Y-55941856D01*
X147479946Y-55843253D01*
X147354447Y-55717754D01*
X147255844Y-55570184D01*
X147187924Y-55406212D01*
X147153300Y-55232141D01*
X147153300Y-55054659D01*
X147187924Y-54880588D01*
X147255844Y-54716616D01*
X147354447Y-54569046D01*
X147479946Y-54443547D01*
X147627516Y-54344944D01*
X147791488Y-54277024D01*
X147940788Y-54247327D01*
X147965558Y-54242400D01*
X148143042Y-54242400D01*
X148167812Y-54247327D01*
G37*
G36*
X98358103Y-53389175D02*
G01*
X98585771Y-53483478D01*
X98790666Y-53620385D01*
X98964915Y-53794634D01*
X98964916Y-53794636D01*
X99101823Y-53999531D01*
X99196125Y-54227197D01*
X99244200Y-54468886D01*
X99244200Y-54715314D01*
X99211325Y-54880588D01*
X99196125Y-54957003D01*
X99101822Y-55184671D01*
X98964915Y-55389566D01*
X98790666Y-55563815D01*
X98585771Y-55700722D01*
X98585770Y-55700723D01*
X98585769Y-55700723D01*
X98358103Y-55795025D01*
X98116414Y-55843100D01*
X97869986Y-55843100D01*
X97628297Y-55795025D01*
X97400631Y-55700723D01*
X97400630Y-55700723D01*
X97400629Y-55700722D01*
X97195734Y-55563815D01*
X97021485Y-55389566D01*
X96884578Y-55184671D01*
X96790275Y-54957003D01*
X96775075Y-54880588D01*
X96742200Y-54715314D01*
X96742200Y-54468886D01*
X96790275Y-54227197D01*
X96884577Y-53999531D01*
X97021484Y-53794636D01*
X97021485Y-53794634D01*
X97195734Y-53620385D01*
X97400629Y-53483478D01*
X97628297Y-53389175D01*
X97869986Y-53341100D01*
X98116414Y-53341100D01*
X98358103Y-53389175D01*
G37*
G36*
X142158103Y-53389175D02*
G01*
X142385771Y-53483478D01*
X142590666Y-53620385D01*
X142764915Y-53794634D01*
X142764916Y-53794636D01*
X142901823Y-53999531D01*
X142996125Y-54227197D01*
X143044200Y-54468886D01*
X143044200Y-54715314D01*
X143011325Y-54880588D01*
X142996125Y-54957003D01*
X142901822Y-55184671D01*
X142764915Y-55389566D01*
X142590666Y-55563815D01*
X142385771Y-55700722D01*
X142385770Y-55700723D01*
X142385769Y-55700723D01*
X142158103Y-55795025D01*
X141916414Y-55843100D01*
X141669986Y-55843100D01*
X141428297Y-55795025D01*
X141200631Y-55700723D01*
X141200630Y-55700723D01*
X141200629Y-55700722D01*
X140995734Y-55563815D01*
X140821485Y-55389566D01*
X140684578Y-55184671D01*
X140590275Y-54957003D01*
X140575075Y-54880588D01*
X140542200Y-54715314D01*
X140542200Y-54468886D01*
X140590275Y-54227197D01*
X140684577Y-53999531D01*
X140821484Y-53794636D01*
X140821485Y-53794634D01*
X140995734Y-53620385D01*
X141200629Y-53483478D01*
X141428297Y-53389175D01*
X141669986Y-53341100D01*
X141916414Y-53341100D01*
X142158103Y-53389175D01*
G37*
G36*
X148955300Y-53504400D02*
G01*
X147153300Y-53504400D01*
X147153300Y-51702400D01*
X148955300Y-51702400D01*
X148955300Y-53504400D01*
G37*
G36*
X105155300Y-53504400D02*
G01*
X103353300Y-53504400D01*
X103353300Y-51702400D01*
X105155300Y-51702400D01*
X105155300Y-53504400D01*
G37*
G36*
X99244200Y-52343100D02*
G01*
X96742200Y-52343100D01*
X96742200Y-49841100D01*
X99244200Y-49841100D01*
X99244200Y-52343100D01*
G37*
G36*
X143044200Y-52343100D02*
G01*
X140542200Y-52343100D01*
X140542200Y-49841100D01*
X143044200Y-49841100D01*
X143044200Y-52343100D01*
G37*
G36*
X160429142Y-47654881D02*
G01*
X160574914Y-47715262D01*
X160574916Y-47715263D01*
X160706108Y-47802922D01*
X160817678Y-47914492D01*
X160905337Y-48045684D01*
X160905338Y-48045686D01*
X160965719Y-48191458D01*
X160996500Y-48346207D01*
X160996500Y-48503993D01*
X160965719Y-48658742D01*
X160905338Y-48804514D01*
X160905337Y-48804516D01*
X160817678Y-48935708D01*
X160706108Y-49047278D01*
X160574916Y-49134937D01*
X160574915Y-49134938D01*
X160574914Y-49134938D01*
X160429142Y-49195319D01*
X160274393Y-49226100D01*
X160116607Y-49226100D01*
X159961858Y-49195319D01*
X159816086Y-49134938D01*
X159816085Y-49134938D01*
X159816084Y-49134937D01*
X159684892Y-49047278D01*
X159573322Y-48935708D01*
X159485663Y-48804516D01*
X159485662Y-48804514D01*
X159425281Y-48658742D01*
X159394500Y-48503993D01*
X159394500Y-48346207D01*
X159425281Y-48191458D01*
X159485662Y-48045686D01*
X159485663Y-48045684D01*
X159573322Y-47914492D01*
X159684892Y-47802922D01*
X159816084Y-47715263D01*
X159816086Y-47715262D01*
X159961858Y-47654881D01*
X160116607Y-47624100D01*
X160274393Y-47624100D01*
X160429142Y-47654881D01*
G37*
G36*
X157889142Y-47654881D02*
G01*
X158034914Y-47715262D01*
X158034916Y-47715263D01*
X158166108Y-47802922D01*
X158277678Y-47914492D01*
X158365337Y-48045684D01*
X158365338Y-48045686D01*
X158425719Y-48191458D01*
X158456500Y-48346207D01*
X158456500Y-48503993D01*
X158425719Y-48658742D01*
X158365338Y-48804514D01*
X158365337Y-48804516D01*
X158277678Y-48935708D01*
X158166108Y-49047278D01*
X158034916Y-49134937D01*
X158034915Y-49134938D01*
X158034914Y-49134938D01*
X157889142Y-49195319D01*
X157734393Y-49226100D01*
X157576607Y-49226100D01*
X157421858Y-49195319D01*
X157276086Y-49134938D01*
X157276085Y-49134938D01*
X157276084Y-49134937D01*
X157144892Y-49047278D01*
X157033322Y-48935708D01*
X156945663Y-48804516D01*
X156945662Y-48804514D01*
X156885281Y-48658742D01*
X156854500Y-48503993D01*
X156854500Y-48346207D01*
X156885281Y-48191458D01*
X156945662Y-48045686D01*
X156945663Y-48045684D01*
X157033322Y-47914492D01*
X157144892Y-47802922D01*
X157276084Y-47715263D01*
X157276086Y-47715262D01*
X157421858Y-47654881D01*
X157576607Y-47624100D01*
X157734393Y-47624100D01*
X157889142Y-47654881D01*
G37*
G36*
X155349142Y-47654881D02*
G01*
X155494914Y-47715262D01*
X155494916Y-47715263D01*
X155626108Y-47802922D01*
X155737678Y-47914492D01*
X155825337Y-48045684D01*
X155825338Y-48045686D01*
X155885719Y-48191458D01*
X155916500Y-48346207D01*
X155916500Y-48503993D01*
X155885719Y-48658742D01*
X155825338Y-48804514D01*
X155825337Y-48804516D01*
X155737678Y-48935708D01*
X155626108Y-49047278D01*
X155494916Y-49134937D01*
X155494915Y-49134938D01*
X155494914Y-49134938D01*
X155349142Y-49195319D01*
X155194393Y-49226100D01*
X155036607Y-49226100D01*
X154881858Y-49195319D01*
X154736086Y-49134938D01*
X154736085Y-49134938D01*
X154736084Y-49134937D01*
X154604892Y-49047278D01*
X154493322Y-48935708D01*
X154405663Y-48804516D01*
X154405662Y-48804514D01*
X154345281Y-48658742D01*
X154314500Y-48503993D01*
X154314500Y-48346207D01*
X154345281Y-48191458D01*
X154405662Y-48045686D01*
X154405663Y-48045684D01*
X154493322Y-47914492D01*
X154604892Y-47802922D01*
X154736084Y-47715263D01*
X154736086Y-47715262D01*
X154881858Y-47654881D01*
X155036607Y-47624100D01*
X155194393Y-47624100D01*
X155349142Y-47654881D01*
G37*
G36*
X152809142Y-47654881D02*
G01*
X152954914Y-47715262D01*
X152954916Y-47715263D01*
X153086108Y-47802922D01*
X153197678Y-47914492D01*
X153285337Y-48045684D01*
X153285338Y-48045686D01*
X153345719Y-48191458D01*
X153376500Y-48346207D01*
X153376500Y-48503993D01*
X153345719Y-48658742D01*
X153285338Y-48804514D01*
X153285337Y-48804516D01*
X153197678Y-48935708D01*
X153086108Y-49047278D01*
X152954916Y-49134937D01*
X152954915Y-49134938D01*
X152954914Y-49134938D01*
X152809142Y-49195319D01*
X152654393Y-49226100D01*
X152496607Y-49226100D01*
X152341858Y-49195319D01*
X152196086Y-49134938D01*
X152196085Y-49134938D01*
X152196084Y-49134937D01*
X152064892Y-49047278D01*
X151953322Y-48935708D01*
X151865663Y-48804516D01*
X151865662Y-48804514D01*
X151805281Y-48658742D01*
X151774500Y-48503993D01*
X151774500Y-48346207D01*
X151805281Y-48191458D01*
X151865662Y-48045686D01*
X151865663Y-48045684D01*
X151953322Y-47914492D01*
X152064892Y-47802922D01*
X152196084Y-47715263D01*
X152196086Y-47715262D01*
X152341858Y-47654881D01*
X152496607Y-47624100D01*
X152654393Y-47624100D01*
X152809142Y-47654881D01*
G37*
G36*
X114089142Y-47654881D02*
G01*
X114234914Y-47715262D01*
X114234916Y-47715263D01*
X114366108Y-47802922D01*
X114477678Y-47914492D01*
X114565337Y-48045684D01*
X114565338Y-48045686D01*
X114625719Y-48191458D01*
X114656500Y-48346207D01*
X114656500Y-48503993D01*
X114625719Y-48658742D01*
X114565338Y-48804514D01*
X114565337Y-48804516D01*
X114477678Y-48935708D01*
X114366108Y-49047278D01*
X114234916Y-49134937D01*
X114234915Y-49134938D01*
X114234914Y-49134938D01*
X114089142Y-49195319D01*
X113934393Y-49226100D01*
X113776607Y-49226100D01*
X113621858Y-49195319D01*
X113476086Y-49134938D01*
X113476085Y-49134938D01*
X113476084Y-49134937D01*
X113344892Y-49047278D01*
X113233322Y-48935708D01*
X113145663Y-48804516D01*
X113145662Y-48804514D01*
X113085281Y-48658742D01*
X113054500Y-48503993D01*
X113054500Y-48346207D01*
X113085281Y-48191458D01*
X113145662Y-48045686D01*
X113145663Y-48045684D01*
X113233322Y-47914492D01*
X113344892Y-47802922D01*
X113476084Y-47715263D01*
X113476086Y-47715262D01*
X113621858Y-47654881D01*
X113776607Y-47624100D01*
X113934393Y-47624100D01*
X114089142Y-47654881D01*
G37*
G36*
X116629142Y-47654881D02*
G01*
X116774914Y-47715262D01*
X116774916Y-47715263D01*
X116906108Y-47802922D01*
X117017678Y-47914492D01*
X117105337Y-48045684D01*
X117105338Y-48045686D01*
X117165719Y-48191458D01*
X117196500Y-48346207D01*
X117196500Y-48503993D01*
X117165719Y-48658742D01*
X117105338Y-48804514D01*
X117105337Y-48804516D01*
X117017678Y-48935708D01*
X116906108Y-49047278D01*
X116774916Y-49134937D01*
X116774915Y-49134938D01*
X116774914Y-49134938D01*
X116629142Y-49195319D01*
X116474393Y-49226100D01*
X116316607Y-49226100D01*
X116161858Y-49195319D01*
X116016086Y-49134938D01*
X116016085Y-49134938D01*
X116016084Y-49134937D01*
X115884892Y-49047278D01*
X115773322Y-48935708D01*
X115685663Y-48804516D01*
X115685662Y-48804514D01*
X115625281Y-48658742D01*
X115594500Y-48503993D01*
X115594500Y-48346207D01*
X115625281Y-48191458D01*
X115685662Y-48045686D01*
X115685663Y-48045684D01*
X115773322Y-47914492D01*
X115884892Y-47802922D01*
X116016084Y-47715263D01*
X116016086Y-47715262D01*
X116161858Y-47654881D01*
X116316607Y-47624100D01*
X116474393Y-47624100D01*
X116629142Y-47654881D01*
G37*
G36*
X119169142Y-47654881D02*
G01*
X119314914Y-47715262D01*
X119314916Y-47715263D01*
X119446108Y-47802922D01*
X119557678Y-47914492D01*
X119645337Y-48045684D01*
X119645338Y-48045686D01*
X119705719Y-48191458D01*
X119736500Y-48346207D01*
X119736500Y-48503993D01*
X119705719Y-48658742D01*
X119645338Y-48804514D01*
X119645337Y-48804516D01*
X119557678Y-48935708D01*
X119446108Y-49047278D01*
X119314916Y-49134937D01*
X119314915Y-49134938D01*
X119314914Y-49134938D01*
X119169142Y-49195319D01*
X119014393Y-49226100D01*
X118856607Y-49226100D01*
X118701858Y-49195319D01*
X118556086Y-49134938D01*
X118556085Y-49134938D01*
X118556084Y-49134937D01*
X118424892Y-49047278D01*
X118313322Y-48935708D01*
X118225663Y-48804516D01*
X118225662Y-48804514D01*
X118165281Y-48658742D01*
X118134500Y-48503993D01*
X118134500Y-48346207D01*
X118165281Y-48191458D01*
X118225662Y-48045686D01*
X118225663Y-48045684D01*
X118313322Y-47914492D01*
X118424892Y-47802922D01*
X118556084Y-47715263D01*
X118556086Y-47715262D01*
X118701858Y-47654881D01*
X118856607Y-47624100D01*
X119014393Y-47624100D01*
X119169142Y-47654881D01*
G37*
G36*
X111549142Y-47654881D02*
G01*
X111694914Y-47715262D01*
X111694916Y-47715263D01*
X111826108Y-47802922D01*
X111937678Y-47914492D01*
X112025337Y-48045684D01*
X112025338Y-48045686D01*
X112085719Y-48191458D01*
X112116500Y-48346207D01*
X112116500Y-48503993D01*
X112085719Y-48658742D01*
X112025338Y-48804514D01*
X112025337Y-48804516D01*
X111937678Y-48935708D01*
X111826108Y-49047278D01*
X111694916Y-49134937D01*
X111694915Y-49134938D01*
X111694914Y-49134938D01*
X111549142Y-49195319D01*
X111394393Y-49226100D01*
X111236607Y-49226100D01*
X111081858Y-49195319D01*
X110936086Y-49134938D01*
X110936085Y-49134938D01*
X110936084Y-49134937D01*
X110804892Y-49047278D01*
X110693322Y-48935708D01*
X110605663Y-48804516D01*
X110605662Y-48804514D01*
X110545281Y-48658742D01*
X110514500Y-48503993D01*
X110514500Y-48346207D01*
X110545281Y-48191458D01*
X110605662Y-48045686D01*
X110605663Y-48045684D01*
X110693322Y-47914492D01*
X110804892Y-47802922D01*
X110936084Y-47715263D01*
X110936086Y-47715262D01*
X111081858Y-47654881D01*
X111236607Y-47624100D01*
X111394393Y-47624100D01*
X111549142Y-47654881D01*
G37*
G36*
X109009142Y-47654881D02*
G01*
X109154914Y-47715262D01*
X109154916Y-47715263D01*
X109286108Y-47802922D01*
X109397678Y-47914492D01*
X109485337Y-48045684D01*
X109485338Y-48045686D01*
X109545719Y-48191458D01*
X109576500Y-48346207D01*
X109576500Y-48503993D01*
X109545719Y-48658742D01*
X109485338Y-48804514D01*
X109485337Y-48804516D01*
X109397678Y-48935708D01*
X109286108Y-49047278D01*
X109154916Y-49134937D01*
X109154915Y-49134938D01*
X109154914Y-49134938D01*
X109009142Y-49195319D01*
X108854393Y-49226100D01*
X108696607Y-49226100D01*
X108541858Y-49195319D01*
X108396086Y-49134938D01*
X108396085Y-49134938D01*
X108396084Y-49134937D01*
X108264892Y-49047278D01*
X108153322Y-48935708D01*
X108065663Y-48804516D01*
X108065662Y-48804514D01*
X108005281Y-48658742D01*
X107974500Y-48503993D01*
X107974500Y-48346207D01*
X108005281Y-48191458D01*
X108065662Y-48045686D01*
X108065663Y-48045684D01*
X108153322Y-47914492D01*
X108264892Y-47802922D01*
X108396084Y-47715263D01*
X108396086Y-47715262D01*
X108541858Y-47654881D01*
X108696607Y-47624100D01*
X108854393Y-47624100D01*
X109009142Y-47654881D01*
G37*
G36*
X106469142Y-47654881D02*
G01*
X106614914Y-47715262D01*
X106614916Y-47715263D01*
X106746108Y-47802922D01*
X106857678Y-47914492D01*
X106945337Y-48045684D01*
X106945338Y-48045686D01*
X107005719Y-48191458D01*
X107036500Y-48346207D01*
X107036500Y-48503993D01*
X107005719Y-48658742D01*
X106945338Y-48804514D01*
X106945337Y-48804516D01*
X106857678Y-48935708D01*
X106746108Y-49047278D01*
X106614916Y-49134937D01*
X106614915Y-49134938D01*
X106614914Y-49134938D01*
X106469142Y-49195319D01*
X106314393Y-49226100D01*
X106156607Y-49226100D01*
X106001858Y-49195319D01*
X105856086Y-49134938D01*
X105856085Y-49134938D01*
X105856084Y-49134937D01*
X105724892Y-49047278D01*
X105613322Y-48935708D01*
X105525663Y-48804516D01*
X105525662Y-48804514D01*
X105465281Y-48658742D01*
X105434500Y-48503993D01*
X105434500Y-48346207D01*
X105465281Y-48191458D01*
X105525662Y-48045686D01*
X105525663Y-48045684D01*
X105613322Y-47914492D01*
X105724892Y-47802922D01*
X105856084Y-47715263D01*
X105856086Y-47715262D01*
X106001858Y-47654881D01*
X106156607Y-47624100D01*
X106314393Y-47624100D01*
X106469142Y-47654881D01*
G37*
G36*
X162969142Y-47654881D02*
G01*
X163114914Y-47715262D01*
X163114916Y-47715263D01*
X163246108Y-47802922D01*
X163357678Y-47914492D01*
X163445337Y-48045684D01*
X163445338Y-48045686D01*
X163505719Y-48191458D01*
X163536500Y-48346207D01*
X163536500Y-48503993D01*
X163505719Y-48658742D01*
X163445338Y-48804514D01*
X163445337Y-48804516D01*
X163357678Y-48935708D01*
X163246108Y-49047278D01*
X163114916Y-49134937D01*
X163114915Y-49134938D01*
X163114914Y-49134938D01*
X162969142Y-49195319D01*
X162814393Y-49226100D01*
X162656607Y-49226100D01*
X162501858Y-49195319D01*
X162356086Y-49134938D01*
X162356085Y-49134938D01*
X162356084Y-49134937D01*
X162224892Y-49047278D01*
X162113322Y-48935708D01*
X162025663Y-48804516D01*
X162025662Y-48804514D01*
X161965281Y-48658742D01*
X161934500Y-48503993D01*
X161934500Y-48346207D01*
X161965281Y-48191458D01*
X162025662Y-48045686D01*
X162025663Y-48045684D01*
X162113322Y-47914492D01*
X162224892Y-47802922D01*
X162356084Y-47715263D01*
X162356086Y-47715262D01*
X162501858Y-47654881D01*
X162656607Y-47624100D01*
X162814393Y-47624100D01*
X162969142Y-47654881D01*
G37*
G36*
X150269142Y-47654881D02*
G01*
X150414914Y-47715262D01*
X150414916Y-47715263D01*
X150546108Y-47802922D01*
X150657678Y-47914492D01*
X150745337Y-48045684D01*
X150745338Y-48045686D01*
X150805719Y-48191458D01*
X150836500Y-48346207D01*
X150836500Y-48503993D01*
X150805719Y-48658742D01*
X150745338Y-48804514D01*
X150745337Y-48804516D01*
X150657678Y-48935708D01*
X150546108Y-49047278D01*
X150414916Y-49134937D01*
X150414915Y-49134938D01*
X150414914Y-49134938D01*
X150269142Y-49195319D01*
X150114393Y-49226100D01*
X149956607Y-49226100D01*
X149801858Y-49195319D01*
X149656086Y-49134938D01*
X149656085Y-49134938D01*
X149656084Y-49134937D01*
X149524892Y-49047278D01*
X149413322Y-48935708D01*
X149325663Y-48804516D01*
X149325662Y-48804514D01*
X149265281Y-48658742D01*
X149234500Y-48503993D01*
X149234500Y-48346207D01*
X149265281Y-48191458D01*
X149325662Y-48045686D01*
X149325663Y-48045684D01*
X149413322Y-47914492D01*
X149524892Y-47802922D01*
X149656084Y-47715263D01*
X149656086Y-47715262D01*
X149801858Y-47654881D01*
X149956607Y-47624100D01*
X150114393Y-47624100D01*
X150269142Y-47654881D01*
G37*
M02*
