G04 #@! TF.GenerationSoftware,KiCad,Pcbnew,5.1.5+dfsg1-2build2*
G04 #@! TF.CreationDate,2021-11-16T17:04:45-05:00*
G04 #@! TF.ProjectId,,58585858-5858-4585-9858-585858585858,rev?*
G04 #@! TF.SameCoordinates,Original*
G04 #@! TF.FileFunction,Profile,NP*
%FSLAX46Y46*%
G04 Gerber Fmt 4.6, Leading zero omitted, Abs format (unit mm)*
G04 Created by KiCad (PCBNEW 5.1.5+dfsg1-2build2) date 2021-11-16 17:04:45*
%MOMM*%
%LPD*%
G04 APERTURE LIST*
%ADD10C,0.050000*%
G04 APERTURE END LIST*
D10*
X177054400Y-121453500D02*
X177054400Y-129453500D01*
X133254400Y-121453500D02*
X133254400Y-129453500D01*
X177054400Y-100453500D02*
X177054400Y-108453500D01*
X133254400Y-100453500D02*
X133254400Y-108453500D01*
X177054400Y-79453500D02*
X177054400Y-87453500D01*
X133254400Y-79453500D02*
X133254400Y-87453500D01*
X177054400Y-58453500D02*
X177054400Y-66453500D01*
X135854400Y-116453500D02*
X135854400Y-108453500D01*
X92054400Y-116453500D02*
X92054400Y-108453500D01*
X135854400Y-95453500D02*
X135854400Y-87453500D01*
X92054400Y-95453500D02*
X92054400Y-87453500D01*
X135854400Y-74453500D02*
X135854400Y-66453500D01*
X92054400Y-74453500D02*
X92054400Y-66453500D01*
X135854400Y-53453500D02*
X135854400Y-45453500D01*
X178354400Y-116453500D02*
X178354400Y-121453500D01*
X134554400Y-116453500D02*
X134554400Y-121453500D01*
X178354400Y-95453500D02*
X178354400Y-100453500D01*
X134554400Y-95453500D02*
X134554400Y-100453500D01*
X178354400Y-74453500D02*
X178354400Y-79453500D01*
X134554400Y-74453500D02*
X134554400Y-79453500D01*
X178354400Y-53453500D02*
X178354400Y-58453500D01*
X135854400Y-108453500D02*
X177054400Y-108453500D01*
X92054400Y-108453500D02*
X133254400Y-108453500D01*
X135854400Y-87453500D02*
X177054400Y-87453500D01*
X92054400Y-87453500D02*
X133254400Y-87453500D01*
X135854400Y-66453500D02*
X177054400Y-66453500D01*
X92054400Y-66453500D02*
X133254400Y-66453500D01*
X135854400Y-45453500D02*
X177054400Y-45453500D01*
X134554400Y-116453500D02*
X134554400Y-121453500D01*
X90754400Y-116453500D02*
X90754400Y-121453500D01*
X134554400Y-95453500D02*
X134554400Y-100453500D01*
X90754400Y-95453500D02*
X90754400Y-100453500D01*
X134554400Y-74453500D02*
X134554400Y-79453500D01*
X90754400Y-74453500D02*
X90754400Y-79453500D01*
X134554400Y-53453500D02*
X134554400Y-58453500D01*
X177054400Y-116453500D02*
X177054400Y-108453500D01*
X133254400Y-116453500D02*
X133254400Y-108453500D01*
X177054400Y-95453500D02*
X177054400Y-87453500D01*
X133254400Y-95453500D02*
X133254400Y-87453500D01*
X177054400Y-74453500D02*
X177054400Y-66453500D01*
X133254400Y-74453500D02*
X133254400Y-66453500D01*
X177054400Y-53453500D02*
X177054400Y-45453500D01*
X135854400Y-129453500D02*
X177054400Y-129453500D01*
X92054400Y-129453500D02*
X133254400Y-129453500D01*
X135854400Y-108453500D02*
X177054400Y-108453500D01*
X92054400Y-108453500D02*
X133254400Y-108453500D01*
X135854400Y-87453500D02*
X177054400Y-87453500D01*
X92054400Y-87453500D02*
X133254400Y-87453500D01*
X135854400Y-66453500D02*
X177054400Y-66453500D01*
X177054400Y-121453500D02*
X178354400Y-121453500D01*
X133254400Y-121453500D02*
X134554400Y-121453500D01*
X177054400Y-100453500D02*
X178354400Y-100453500D01*
X133254400Y-100453500D02*
X134554400Y-100453500D01*
X177054400Y-79453500D02*
X178354400Y-79453500D01*
X133254400Y-79453500D02*
X134554400Y-79453500D01*
X177054400Y-58453500D02*
X178354400Y-58453500D01*
X135854400Y-129453500D02*
X135854400Y-121453500D01*
X92054400Y-129453500D02*
X92054400Y-121453500D01*
X135854400Y-108453500D02*
X135854400Y-100453500D01*
X92054400Y-108453500D02*
X92054400Y-100453500D01*
X135854400Y-87453500D02*
X135854400Y-79453500D01*
X92054400Y-87453500D02*
X92054400Y-79453500D01*
X135854400Y-66453500D02*
X135854400Y-58453500D01*
X134554400Y-121453500D02*
X135854400Y-121453500D01*
X90754400Y-121453500D02*
X92054400Y-121453500D01*
X134554400Y-100453500D02*
X135854400Y-100453500D01*
X90754400Y-100453500D02*
X92054400Y-100453500D01*
X134554400Y-79453500D02*
X135854400Y-79453500D01*
X90754400Y-79453500D02*
X92054400Y-79453500D01*
X134554400Y-58453500D02*
X135854400Y-58453500D01*
X177054400Y-116453500D02*
X178354400Y-116453500D01*
X133254400Y-116453500D02*
X134554400Y-116453500D01*
X177054400Y-95453500D02*
X178354400Y-95453500D01*
X133254400Y-95453500D02*
X134554400Y-95453500D01*
X177054400Y-74453500D02*
X178354400Y-74453500D01*
X133254400Y-74453500D02*
X134554400Y-74453500D01*
X177054400Y-53453500D02*
X178354400Y-53453500D01*
X134554400Y-116453500D02*
X135854400Y-116453500D01*
X90754400Y-116453500D02*
X92054400Y-116453500D01*
X134554400Y-95453500D02*
X135854400Y-95453500D01*
X90754400Y-95453500D02*
X92054400Y-95453500D01*
X134554400Y-74453500D02*
X135854400Y-74453500D01*
X90754400Y-74453500D02*
X92054400Y-74453500D01*
X134554400Y-53453500D02*
X135854400Y-53453500D01*
X133254400Y-58453500D02*
X133254400Y-66453500D01*
X133254400Y-58453500D02*
X134554400Y-58453500D01*
X92054400Y-66453500D02*
X92054400Y-58453500D01*
X90754400Y-58453500D02*
X92054400Y-58453500D01*
X133254400Y-53453500D02*
X134554400Y-53453500D01*
X90754400Y-53453500D02*
X92054400Y-53453500D01*
X133254400Y-53453500D02*
X133254400Y-45453500D01*
X92054400Y-53453500D02*
X92054400Y-45453500D01*
X134554400Y-53453500D02*
X134554400Y-58453500D01*
X90754400Y-53453500D02*
X90754400Y-58453500D01*
X92054400Y-66453500D02*
X133254400Y-66453500D01*
X92054400Y-45453500D02*
X133254400Y-45453500D01*
M02*
