G04 #@! TF.GenerationSoftware,KiCad,Pcbnew,5.1.5+dfsg1-2build2*
G04 #@! TF.CreationDate,2021-11-16T17:04:45-05:00*
G04 #@! TF.ProjectId,,58585858-5858-4585-9858-585858585858,rev?*
G04 #@! TF.SameCoordinates,Original*
G04 #@! TF.FileFunction,Legend,Bot*
G04 #@! TF.FilePolarity,Positive*
%FSLAX46Y46*%
G04 Gerber Fmt 4.6, Leading zero omitted, Abs format (unit mm)*
G04 Created by KiCad (PCBNEW 5.1.5+dfsg1-2build2) date 2021-11-16 17:04:45*
%MOMM*%
%LPD*%
G04 APERTURE LIST*
%ADD10C,0.150000*%
%ADD11C,0.120000*%
G04 APERTURE END LIST*
D10*
X150754628Y-114962585D02*
X150754628Y-115724490D01*
X151135580Y-115343538D02*
X150373676Y-115343538D01*
X151040342Y-118295919D02*
X151087961Y-118248300D01*
X151135580Y-118105442D01*
X151135580Y-118010204D01*
X151087961Y-117867347D01*
X150992723Y-117772109D01*
X150897485Y-117724490D01*
X150707009Y-117676871D01*
X150564152Y-117676871D01*
X150373676Y-117724490D01*
X150278438Y-117772109D01*
X150183200Y-117867347D01*
X150135580Y-118010204D01*
X150135580Y-118105442D01*
X150183200Y-118248300D01*
X150230819Y-118295919D01*
X151135580Y-120248300D02*
X150135580Y-120248300D01*
X150135580Y-120486395D01*
X150183200Y-120629252D01*
X150278438Y-120724490D01*
X150373676Y-120772109D01*
X150564152Y-120819728D01*
X150707009Y-120819728D01*
X150897485Y-120772109D01*
X150992723Y-120724490D01*
X151087961Y-120629252D01*
X151135580Y-120486395D01*
X151135580Y-120248300D01*
X150754628Y-122772109D02*
X150754628Y-123534014D01*
X106954628Y-114962585D02*
X106954628Y-115724490D01*
X107335580Y-115343538D02*
X106573676Y-115343538D01*
X107240342Y-118295919D02*
X107287961Y-118248300D01*
X107335580Y-118105442D01*
X107335580Y-118010204D01*
X107287961Y-117867347D01*
X107192723Y-117772109D01*
X107097485Y-117724490D01*
X106907009Y-117676871D01*
X106764152Y-117676871D01*
X106573676Y-117724490D01*
X106478438Y-117772109D01*
X106383200Y-117867347D01*
X106335580Y-118010204D01*
X106335580Y-118105442D01*
X106383200Y-118248300D01*
X106430819Y-118295919D01*
X107335580Y-120248300D02*
X106335580Y-120248300D01*
X106335580Y-120486395D01*
X106383200Y-120629252D01*
X106478438Y-120724490D01*
X106573676Y-120772109D01*
X106764152Y-120819728D01*
X106907009Y-120819728D01*
X107097485Y-120772109D01*
X107192723Y-120724490D01*
X107287961Y-120629252D01*
X107335580Y-120486395D01*
X107335580Y-120248300D01*
X106954628Y-122772109D02*
X106954628Y-123534014D01*
X150754628Y-93962585D02*
X150754628Y-94724490D01*
X151135580Y-94343538D02*
X150373676Y-94343538D01*
X151040342Y-97295919D02*
X151087961Y-97248300D01*
X151135580Y-97105442D01*
X151135580Y-97010204D01*
X151087961Y-96867347D01*
X150992723Y-96772109D01*
X150897485Y-96724490D01*
X150707009Y-96676871D01*
X150564152Y-96676871D01*
X150373676Y-96724490D01*
X150278438Y-96772109D01*
X150183200Y-96867347D01*
X150135580Y-97010204D01*
X150135580Y-97105442D01*
X150183200Y-97248300D01*
X150230819Y-97295919D01*
X151135580Y-99248300D02*
X150135580Y-99248300D01*
X150135580Y-99486395D01*
X150183200Y-99629252D01*
X150278438Y-99724490D01*
X150373676Y-99772109D01*
X150564152Y-99819728D01*
X150707009Y-99819728D01*
X150897485Y-99772109D01*
X150992723Y-99724490D01*
X151087961Y-99629252D01*
X151135580Y-99486395D01*
X151135580Y-99248300D01*
X150754628Y-101772109D02*
X150754628Y-102534014D01*
X106954628Y-93962585D02*
X106954628Y-94724490D01*
X107335580Y-94343538D02*
X106573676Y-94343538D01*
X107240342Y-97295919D02*
X107287961Y-97248300D01*
X107335580Y-97105442D01*
X107335580Y-97010204D01*
X107287961Y-96867347D01*
X107192723Y-96772109D01*
X107097485Y-96724490D01*
X106907009Y-96676871D01*
X106764152Y-96676871D01*
X106573676Y-96724490D01*
X106478438Y-96772109D01*
X106383200Y-96867347D01*
X106335580Y-97010204D01*
X106335580Y-97105442D01*
X106383200Y-97248300D01*
X106430819Y-97295919D01*
X107335580Y-99248300D02*
X106335580Y-99248300D01*
X106335580Y-99486395D01*
X106383200Y-99629252D01*
X106478438Y-99724490D01*
X106573676Y-99772109D01*
X106764152Y-99819728D01*
X106907009Y-99819728D01*
X107097485Y-99772109D01*
X107192723Y-99724490D01*
X107287961Y-99629252D01*
X107335580Y-99486395D01*
X107335580Y-99248300D01*
X106954628Y-101772109D02*
X106954628Y-102534014D01*
X150754628Y-72962585D02*
X150754628Y-73724490D01*
X151135580Y-73343538D02*
X150373676Y-73343538D01*
X151040342Y-76295919D02*
X151087961Y-76248300D01*
X151135580Y-76105442D01*
X151135580Y-76010204D01*
X151087961Y-75867347D01*
X150992723Y-75772109D01*
X150897485Y-75724490D01*
X150707009Y-75676871D01*
X150564152Y-75676871D01*
X150373676Y-75724490D01*
X150278438Y-75772109D01*
X150183200Y-75867347D01*
X150135580Y-76010204D01*
X150135580Y-76105442D01*
X150183200Y-76248300D01*
X150230819Y-76295919D01*
X151135580Y-78248300D02*
X150135580Y-78248300D01*
X150135580Y-78486395D01*
X150183200Y-78629252D01*
X150278438Y-78724490D01*
X150373676Y-78772109D01*
X150564152Y-78819728D01*
X150707009Y-78819728D01*
X150897485Y-78772109D01*
X150992723Y-78724490D01*
X151087961Y-78629252D01*
X151135580Y-78486395D01*
X151135580Y-78248300D01*
X150754628Y-80772109D02*
X150754628Y-81534014D01*
X106954628Y-72962585D02*
X106954628Y-73724490D01*
X107335580Y-73343538D02*
X106573676Y-73343538D01*
X107240342Y-76295919D02*
X107287961Y-76248300D01*
X107335580Y-76105442D01*
X107335580Y-76010204D01*
X107287961Y-75867347D01*
X107192723Y-75772109D01*
X107097485Y-75724490D01*
X106907009Y-75676871D01*
X106764152Y-75676871D01*
X106573676Y-75724490D01*
X106478438Y-75772109D01*
X106383200Y-75867347D01*
X106335580Y-76010204D01*
X106335580Y-76105442D01*
X106383200Y-76248300D01*
X106430819Y-76295919D01*
X107335580Y-78248300D02*
X106335580Y-78248300D01*
X106335580Y-78486395D01*
X106383200Y-78629252D01*
X106478438Y-78724490D01*
X106573676Y-78772109D01*
X106764152Y-78819728D01*
X106907009Y-78819728D01*
X107097485Y-78772109D01*
X107192723Y-78724490D01*
X107287961Y-78629252D01*
X107335580Y-78486395D01*
X107335580Y-78248300D01*
X106954628Y-80772109D02*
X106954628Y-81534014D01*
X150754628Y-51962585D02*
X150754628Y-52724490D01*
X151135580Y-52343538D02*
X150373676Y-52343538D01*
X151040342Y-55295919D02*
X151087961Y-55248300D01*
X151135580Y-55105442D01*
X151135580Y-55010204D01*
X151087961Y-54867347D01*
X150992723Y-54772109D01*
X150897485Y-54724490D01*
X150707009Y-54676871D01*
X150564152Y-54676871D01*
X150373676Y-54724490D01*
X150278438Y-54772109D01*
X150183200Y-54867347D01*
X150135580Y-55010204D01*
X150135580Y-55105442D01*
X150183200Y-55248300D01*
X150230819Y-55295919D01*
X151135580Y-57248300D02*
X150135580Y-57248300D01*
X150135580Y-57486395D01*
X150183200Y-57629252D01*
X150278438Y-57724490D01*
X150373676Y-57772109D01*
X150564152Y-57819728D01*
X150707009Y-57819728D01*
X150897485Y-57772109D01*
X150992723Y-57724490D01*
X151087961Y-57629252D01*
X151135580Y-57486395D01*
X151135580Y-57248300D01*
X150754628Y-59772109D02*
X150754628Y-60534014D01*
X144888438Y-109340780D02*
X144793200Y-109340780D01*
X144697961Y-109388400D01*
X144650342Y-109436019D01*
X144602723Y-109531257D01*
X144555104Y-109721733D01*
X144555104Y-109959828D01*
X144602723Y-110150304D01*
X144650342Y-110245542D01*
X144697961Y-110293161D01*
X144793200Y-110340780D01*
X144888438Y-110340780D01*
X144983676Y-110293161D01*
X145031295Y-110245542D01*
X145078914Y-110150304D01*
X145126533Y-109959828D01*
X145126533Y-109721733D01*
X145078914Y-109531257D01*
X145031295Y-109436019D01*
X144983676Y-109388400D01*
X144888438Y-109340780D01*
X143650342Y-109340780D02*
X144126533Y-109340780D01*
X144174152Y-109816971D01*
X144126533Y-109769352D01*
X144031295Y-109721733D01*
X143793200Y-109721733D01*
X143697961Y-109769352D01*
X143650342Y-109816971D01*
X143602723Y-109912209D01*
X143602723Y-110150304D01*
X143650342Y-110245542D01*
X143697961Y-110293161D01*
X143793200Y-110340780D01*
X144031295Y-110340780D01*
X144126533Y-110293161D01*
X144174152Y-110245542D01*
X142745580Y-109340780D02*
X142936057Y-109340780D01*
X143031295Y-109388400D01*
X143078914Y-109436019D01*
X143174152Y-109578876D01*
X143221771Y-109769352D01*
X143221771Y-110150304D01*
X143174152Y-110245542D01*
X143126533Y-110293161D01*
X143031295Y-110340780D01*
X142840819Y-110340780D01*
X142745580Y-110293161D01*
X142697961Y-110245542D01*
X142650342Y-110150304D01*
X142650342Y-109912209D01*
X142697961Y-109816971D01*
X142745580Y-109769352D01*
X142840819Y-109721733D01*
X143031295Y-109721733D01*
X143126533Y-109769352D01*
X143174152Y-109816971D01*
X143221771Y-109912209D01*
X142459866Y-110436019D02*
X141697961Y-110436019D01*
X141555104Y-109340780D02*
X140936057Y-109340780D01*
X141269390Y-109721733D01*
X141126533Y-109721733D01*
X141031295Y-109769352D01*
X140983676Y-109816971D01*
X140936057Y-109912209D01*
X140936057Y-110150304D01*
X140983676Y-110245542D01*
X141031295Y-110293161D01*
X141126533Y-110340780D01*
X141412247Y-110340780D01*
X141507485Y-110293161D01*
X141555104Y-110245542D01*
X140507485Y-110340780D02*
X140507485Y-109340780D01*
X140269390Y-109340780D01*
X140126533Y-109388400D01*
X140031295Y-109483638D01*
X139983676Y-109578876D01*
X139936057Y-109769352D01*
X139936057Y-109912209D01*
X139983676Y-110102685D01*
X140031295Y-110197923D01*
X140126533Y-110293161D01*
X140269390Y-110340780D01*
X140507485Y-110340780D01*
X139507485Y-110340780D02*
X139507485Y-109340780D01*
X138507485Y-109388400D02*
X138602723Y-109340780D01*
X138745580Y-109340780D01*
X138888438Y-109388400D01*
X138983676Y-109483638D01*
X139031295Y-109578876D01*
X139078914Y-109769352D01*
X139078914Y-109912209D01*
X139031295Y-110102685D01*
X138983676Y-110197923D01*
X138888438Y-110293161D01*
X138745580Y-110340780D01*
X138650342Y-110340780D01*
X138507485Y-110293161D01*
X138459866Y-110245542D01*
X138459866Y-109912209D01*
X138650342Y-109912209D01*
X101088438Y-109340780D02*
X100993200Y-109340780D01*
X100897961Y-109388400D01*
X100850342Y-109436019D01*
X100802723Y-109531257D01*
X100755104Y-109721733D01*
X100755104Y-109959828D01*
X100802723Y-110150304D01*
X100850342Y-110245542D01*
X100897961Y-110293161D01*
X100993200Y-110340780D01*
X101088438Y-110340780D01*
X101183676Y-110293161D01*
X101231295Y-110245542D01*
X101278914Y-110150304D01*
X101326533Y-109959828D01*
X101326533Y-109721733D01*
X101278914Y-109531257D01*
X101231295Y-109436019D01*
X101183676Y-109388400D01*
X101088438Y-109340780D01*
X99850342Y-109340780D02*
X100326533Y-109340780D01*
X100374152Y-109816971D01*
X100326533Y-109769352D01*
X100231295Y-109721733D01*
X99993200Y-109721733D01*
X99897961Y-109769352D01*
X99850342Y-109816971D01*
X99802723Y-109912209D01*
X99802723Y-110150304D01*
X99850342Y-110245542D01*
X99897961Y-110293161D01*
X99993200Y-110340780D01*
X100231295Y-110340780D01*
X100326533Y-110293161D01*
X100374152Y-110245542D01*
X98945580Y-109340780D02*
X99136057Y-109340780D01*
X99231295Y-109388400D01*
X99278914Y-109436019D01*
X99374152Y-109578876D01*
X99421771Y-109769352D01*
X99421771Y-110150304D01*
X99374152Y-110245542D01*
X99326533Y-110293161D01*
X99231295Y-110340780D01*
X99040819Y-110340780D01*
X98945580Y-110293161D01*
X98897961Y-110245542D01*
X98850342Y-110150304D01*
X98850342Y-109912209D01*
X98897961Y-109816971D01*
X98945580Y-109769352D01*
X99040819Y-109721733D01*
X99231295Y-109721733D01*
X99326533Y-109769352D01*
X99374152Y-109816971D01*
X99421771Y-109912209D01*
X98659866Y-110436019D02*
X97897961Y-110436019D01*
X97755104Y-109340780D02*
X97136057Y-109340780D01*
X97469390Y-109721733D01*
X97326533Y-109721733D01*
X97231295Y-109769352D01*
X97183676Y-109816971D01*
X97136057Y-109912209D01*
X97136057Y-110150304D01*
X97183676Y-110245542D01*
X97231295Y-110293161D01*
X97326533Y-110340780D01*
X97612247Y-110340780D01*
X97707485Y-110293161D01*
X97755104Y-110245542D01*
X96707485Y-110340780D02*
X96707485Y-109340780D01*
X96469390Y-109340780D01*
X96326533Y-109388400D01*
X96231295Y-109483638D01*
X96183676Y-109578876D01*
X96136057Y-109769352D01*
X96136057Y-109912209D01*
X96183676Y-110102685D01*
X96231295Y-110197923D01*
X96326533Y-110293161D01*
X96469390Y-110340780D01*
X96707485Y-110340780D01*
X95707485Y-110340780D02*
X95707485Y-109340780D01*
X94707485Y-109388400D02*
X94802723Y-109340780D01*
X94945580Y-109340780D01*
X95088438Y-109388400D01*
X95183676Y-109483638D01*
X95231295Y-109578876D01*
X95278914Y-109769352D01*
X95278914Y-109912209D01*
X95231295Y-110102685D01*
X95183676Y-110197923D01*
X95088438Y-110293161D01*
X94945580Y-110340780D01*
X94850342Y-110340780D01*
X94707485Y-110293161D01*
X94659866Y-110245542D01*
X94659866Y-109912209D01*
X94850342Y-109912209D01*
X144888438Y-88340780D02*
X144793200Y-88340780D01*
X144697961Y-88388400D01*
X144650342Y-88436019D01*
X144602723Y-88531257D01*
X144555104Y-88721733D01*
X144555104Y-88959828D01*
X144602723Y-89150304D01*
X144650342Y-89245542D01*
X144697961Y-89293161D01*
X144793200Y-89340780D01*
X144888438Y-89340780D01*
X144983676Y-89293161D01*
X145031295Y-89245542D01*
X145078914Y-89150304D01*
X145126533Y-88959828D01*
X145126533Y-88721733D01*
X145078914Y-88531257D01*
X145031295Y-88436019D01*
X144983676Y-88388400D01*
X144888438Y-88340780D01*
X143650342Y-88340780D02*
X144126533Y-88340780D01*
X144174152Y-88816971D01*
X144126533Y-88769352D01*
X144031295Y-88721733D01*
X143793200Y-88721733D01*
X143697961Y-88769352D01*
X143650342Y-88816971D01*
X143602723Y-88912209D01*
X143602723Y-89150304D01*
X143650342Y-89245542D01*
X143697961Y-89293161D01*
X143793200Y-89340780D01*
X144031295Y-89340780D01*
X144126533Y-89293161D01*
X144174152Y-89245542D01*
X142745580Y-88340780D02*
X142936057Y-88340780D01*
X143031295Y-88388400D01*
X143078914Y-88436019D01*
X143174152Y-88578876D01*
X143221771Y-88769352D01*
X143221771Y-89150304D01*
X143174152Y-89245542D01*
X143126533Y-89293161D01*
X143031295Y-89340780D01*
X142840819Y-89340780D01*
X142745580Y-89293161D01*
X142697961Y-89245542D01*
X142650342Y-89150304D01*
X142650342Y-88912209D01*
X142697961Y-88816971D01*
X142745580Y-88769352D01*
X142840819Y-88721733D01*
X143031295Y-88721733D01*
X143126533Y-88769352D01*
X143174152Y-88816971D01*
X143221771Y-88912209D01*
X142459866Y-89436019D02*
X141697961Y-89436019D01*
X141555104Y-88340780D02*
X140936057Y-88340780D01*
X141269390Y-88721733D01*
X141126533Y-88721733D01*
X141031295Y-88769352D01*
X140983676Y-88816971D01*
X140936057Y-88912209D01*
X140936057Y-89150304D01*
X140983676Y-89245542D01*
X141031295Y-89293161D01*
X141126533Y-89340780D01*
X141412247Y-89340780D01*
X141507485Y-89293161D01*
X141555104Y-89245542D01*
X140507485Y-89340780D02*
X140507485Y-88340780D01*
X140269390Y-88340780D01*
X140126533Y-88388400D01*
X140031295Y-88483638D01*
X139983676Y-88578876D01*
X139936057Y-88769352D01*
X139936057Y-88912209D01*
X139983676Y-89102685D01*
X140031295Y-89197923D01*
X140126533Y-89293161D01*
X140269390Y-89340780D01*
X140507485Y-89340780D01*
X139507485Y-89340780D02*
X139507485Y-88340780D01*
X138507485Y-88388400D02*
X138602723Y-88340780D01*
X138745580Y-88340780D01*
X138888438Y-88388400D01*
X138983676Y-88483638D01*
X139031295Y-88578876D01*
X139078914Y-88769352D01*
X139078914Y-88912209D01*
X139031295Y-89102685D01*
X138983676Y-89197923D01*
X138888438Y-89293161D01*
X138745580Y-89340780D01*
X138650342Y-89340780D01*
X138507485Y-89293161D01*
X138459866Y-89245542D01*
X138459866Y-88912209D01*
X138650342Y-88912209D01*
X101088438Y-88340780D02*
X100993200Y-88340780D01*
X100897961Y-88388400D01*
X100850342Y-88436019D01*
X100802723Y-88531257D01*
X100755104Y-88721733D01*
X100755104Y-88959828D01*
X100802723Y-89150304D01*
X100850342Y-89245542D01*
X100897961Y-89293161D01*
X100993200Y-89340780D01*
X101088438Y-89340780D01*
X101183676Y-89293161D01*
X101231295Y-89245542D01*
X101278914Y-89150304D01*
X101326533Y-88959828D01*
X101326533Y-88721733D01*
X101278914Y-88531257D01*
X101231295Y-88436019D01*
X101183676Y-88388400D01*
X101088438Y-88340780D01*
X99850342Y-88340780D02*
X100326533Y-88340780D01*
X100374152Y-88816971D01*
X100326533Y-88769352D01*
X100231295Y-88721733D01*
X99993200Y-88721733D01*
X99897961Y-88769352D01*
X99850342Y-88816971D01*
X99802723Y-88912209D01*
X99802723Y-89150304D01*
X99850342Y-89245542D01*
X99897961Y-89293161D01*
X99993200Y-89340780D01*
X100231295Y-89340780D01*
X100326533Y-89293161D01*
X100374152Y-89245542D01*
X98945580Y-88340780D02*
X99136057Y-88340780D01*
X99231295Y-88388400D01*
X99278914Y-88436019D01*
X99374152Y-88578876D01*
X99421771Y-88769352D01*
X99421771Y-89150304D01*
X99374152Y-89245542D01*
X99326533Y-89293161D01*
X99231295Y-89340780D01*
X99040819Y-89340780D01*
X98945580Y-89293161D01*
X98897961Y-89245542D01*
X98850342Y-89150304D01*
X98850342Y-88912209D01*
X98897961Y-88816971D01*
X98945580Y-88769352D01*
X99040819Y-88721733D01*
X99231295Y-88721733D01*
X99326533Y-88769352D01*
X99374152Y-88816971D01*
X99421771Y-88912209D01*
X98659866Y-89436019D02*
X97897961Y-89436019D01*
X97755104Y-88340780D02*
X97136057Y-88340780D01*
X97469390Y-88721733D01*
X97326533Y-88721733D01*
X97231295Y-88769352D01*
X97183676Y-88816971D01*
X97136057Y-88912209D01*
X97136057Y-89150304D01*
X97183676Y-89245542D01*
X97231295Y-89293161D01*
X97326533Y-89340780D01*
X97612247Y-89340780D01*
X97707485Y-89293161D01*
X97755104Y-89245542D01*
X96707485Y-89340780D02*
X96707485Y-88340780D01*
X96469390Y-88340780D01*
X96326533Y-88388400D01*
X96231295Y-88483638D01*
X96183676Y-88578876D01*
X96136057Y-88769352D01*
X96136057Y-88912209D01*
X96183676Y-89102685D01*
X96231295Y-89197923D01*
X96326533Y-89293161D01*
X96469390Y-89340780D01*
X96707485Y-89340780D01*
X95707485Y-89340780D02*
X95707485Y-88340780D01*
X94707485Y-88388400D02*
X94802723Y-88340780D01*
X94945580Y-88340780D01*
X95088438Y-88388400D01*
X95183676Y-88483638D01*
X95231295Y-88578876D01*
X95278914Y-88769352D01*
X95278914Y-88912209D01*
X95231295Y-89102685D01*
X95183676Y-89197923D01*
X95088438Y-89293161D01*
X94945580Y-89340780D01*
X94850342Y-89340780D01*
X94707485Y-89293161D01*
X94659866Y-89245542D01*
X94659866Y-88912209D01*
X94850342Y-88912209D01*
X144888438Y-67340780D02*
X144793200Y-67340780D01*
X144697961Y-67388400D01*
X144650342Y-67436019D01*
X144602723Y-67531257D01*
X144555104Y-67721733D01*
X144555104Y-67959828D01*
X144602723Y-68150304D01*
X144650342Y-68245542D01*
X144697961Y-68293161D01*
X144793200Y-68340780D01*
X144888438Y-68340780D01*
X144983676Y-68293161D01*
X145031295Y-68245542D01*
X145078914Y-68150304D01*
X145126533Y-67959828D01*
X145126533Y-67721733D01*
X145078914Y-67531257D01*
X145031295Y-67436019D01*
X144983676Y-67388400D01*
X144888438Y-67340780D01*
X143650342Y-67340780D02*
X144126533Y-67340780D01*
X144174152Y-67816971D01*
X144126533Y-67769352D01*
X144031295Y-67721733D01*
X143793200Y-67721733D01*
X143697961Y-67769352D01*
X143650342Y-67816971D01*
X143602723Y-67912209D01*
X143602723Y-68150304D01*
X143650342Y-68245542D01*
X143697961Y-68293161D01*
X143793200Y-68340780D01*
X144031295Y-68340780D01*
X144126533Y-68293161D01*
X144174152Y-68245542D01*
X142745580Y-67340780D02*
X142936057Y-67340780D01*
X143031295Y-67388400D01*
X143078914Y-67436019D01*
X143174152Y-67578876D01*
X143221771Y-67769352D01*
X143221771Y-68150304D01*
X143174152Y-68245542D01*
X143126533Y-68293161D01*
X143031295Y-68340780D01*
X142840819Y-68340780D01*
X142745580Y-68293161D01*
X142697961Y-68245542D01*
X142650342Y-68150304D01*
X142650342Y-67912209D01*
X142697961Y-67816971D01*
X142745580Y-67769352D01*
X142840819Y-67721733D01*
X143031295Y-67721733D01*
X143126533Y-67769352D01*
X143174152Y-67816971D01*
X143221771Y-67912209D01*
X142459866Y-68436019D02*
X141697961Y-68436019D01*
X141555104Y-67340780D02*
X140936057Y-67340780D01*
X141269390Y-67721733D01*
X141126533Y-67721733D01*
X141031295Y-67769352D01*
X140983676Y-67816971D01*
X140936057Y-67912209D01*
X140936057Y-68150304D01*
X140983676Y-68245542D01*
X141031295Y-68293161D01*
X141126533Y-68340780D01*
X141412247Y-68340780D01*
X141507485Y-68293161D01*
X141555104Y-68245542D01*
X140507485Y-68340780D02*
X140507485Y-67340780D01*
X140269390Y-67340780D01*
X140126533Y-67388400D01*
X140031295Y-67483638D01*
X139983676Y-67578876D01*
X139936057Y-67769352D01*
X139936057Y-67912209D01*
X139983676Y-68102685D01*
X140031295Y-68197923D01*
X140126533Y-68293161D01*
X140269390Y-68340780D01*
X140507485Y-68340780D01*
X139507485Y-68340780D02*
X139507485Y-67340780D01*
X138507485Y-67388400D02*
X138602723Y-67340780D01*
X138745580Y-67340780D01*
X138888438Y-67388400D01*
X138983676Y-67483638D01*
X139031295Y-67578876D01*
X139078914Y-67769352D01*
X139078914Y-67912209D01*
X139031295Y-68102685D01*
X138983676Y-68197923D01*
X138888438Y-68293161D01*
X138745580Y-68340780D01*
X138650342Y-68340780D01*
X138507485Y-68293161D01*
X138459866Y-68245542D01*
X138459866Y-67912209D01*
X138650342Y-67912209D01*
X101088438Y-67340780D02*
X100993200Y-67340780D01*
X100897961Y-67388400D01*
X100850342Y-67436019D01*
X100802723Y-67531257D01*
X100755104Y-67721733D01*
X100755104Y-67959828D01*
X100802723Y-68150304D01*
X100850342Y-68245542D01*
X100897961Y-68293161D01*
X100993200Y-68340780D01*
X101088438Y-68340780D01*
X101183676Y-68293161D01*
X101231295Y-68245542D01*
X101278914Y-68150304D01*
X101326533Y-67959828D01*
X101326533Y-67721733D01*
X101278914Y-67531257D01*
X101231295Y-67436019D01*
X101183676Y-67388400D01*
X101088438Y-67340780D01*
X99850342Y-67340780D02*
X100326533Y-67340780D01*
X100374152Y-67816971D01*
X100326533Y-67769352D01*
X100231295Y-67721733D01*
X99993200Y-67721733D01*
X99897961Y-67769352D01*
X99850342Y-67816971D01*
X99802723Y-67912209D01*
X99802723Y-68150304D01*
X99850342Y-68245542D01*
X99897961Y-68293161D01*
X99993200Y-68340780D01*
X100231295Y-68340780D01*
X100326533Y-68293161D01*
X100374152Y-68245542D01*
X98945580Y-67340780D02*
X99136057Y-67340780D01*
X99231295Y-67388400D01*
X99278914Y-67436019D01*
X99374152Y-67578876D01*
X99421771Y-67769352D01*
X99421771Y-68150304D01*
X99374152Y-68245542D01*
X99326533Y-68293161D01*
X99231295Y-68340780D01*
X99040819Y-68340780D01*
X98945580Y-68293161D01*
X98897961Y-68245542D01*
X98850342Y-68150304D01*
X98850342Y-67912209D01*
X98897961Y-67816971D01*
X98945580Y-67769352D01*
X99040819Y-67721733D01*
X99231295Y-67721733D01*
X99326533Y-67769352D01*
X99374152Y-67816971D01*
X99421771Y-67912209D01*
X98659866Y-68436019D02*
X97897961Y-68436019D01*
X97755104Y-67340780D02*
X97136057Y-67340780D01*
X97469390Y-67721733D01*
X97326533Y-67721733D01*
X97231295Y-67769352D01*
X97183676Y-67816971D01*
X97136057Y-67912209D01*
X97136057Y-68150304D01*
X97183676Y-68245542D01*
X97231295Y-68293161D01*
X97326533Y-68340780D01*
X97612247Y-68340780D01*
X97707485Y-68293161D01*
X97755104Y-68245542D01*
X96707485Y-68340780D02*
X96707485Y-67340780D01*
X96469390Y-67340780D01*
X96326533Y-67388400D01*
X96231295Y-67483638D01*
X96183676Y-67578876D01*
X96136057Y-67769352D01*
X96136057Y-67912209D01*
X96183676Y-68102685D01*
X96231295Y-68197923D01*
X96326533Y-68293161D01*
X96469390Y-68340780D01*
X96707485Y-68340780D01*
X95707485Y-68340780D02*
X95707485Y-67340780D01*
X94707485Y-67388400D02*
X94802723Y-67340780D01*
X94945580Y-67340780D01*
X95088438Y-67388400D01*
X95183676Y-67483638D01*
X95231295Y-67578876D01*
X95278914Y-67769352D01*
X95278914Y-67912209D01*
X95231295Y-68102685D01*
X95183676Y-68197923D01*
X95088438Y-68293161D01*
X94945580Y-68340780D01*
X94850342Y-68340780D01*
X94707485Y-68293161D01*
X94659866Y-68245542D01*
X94659866Y-67912209D01*
X94850342Y-67912209D01*
X144888438Y-46340780D02*
X144793200Y-46340780D01*
X144697961Y-46388400D01*
X144650342Y-46436019D01*
X144602723Y-46531257D01*
X144555104Y-46721733D01*
X144555104Y-46959828D01*
X144602723Y-47150304D01*
X144650342Y-47245542D01*
X144697961Y-47293161D01*
X144793200Y-47340780D01*
X144888438Y-47340780D01*
X144983676Y-47293161D01*
X145031295Y-47245542D01*
X145078914Y-47150304D01*
X145126533Y-46959828D01*
X145126533Y-46721733D01*
X145078914Y-46531257D01*
X145031295Y-46436019D01*
X144983676Y-46388400D01*
X144888438Y-46340780D01*
X143650342Y-46340780D02*
X144126533Y-46340780D01*
X144174152Y-46816971D01*
X144126533Y-46769352D01*
X144031295Y-46721733D01*
X143793200Y-46721733D01*
X143697961Y-46769352D01*
X143650342Y-46816971D01*
X143602723Y-46912209D01*
X143602723Y-47150304D01*
X143650342Y-47245542D01*
X143697961Y-47293161D01*
X143793200Y-47340780D01*
X144031295Y-47340780D01*
X144126533Y-47293161D01*
X144174152Y-47245542D01*
X142745580Y-46340780D02*
X142936057Y-46340780D01*
X143031295Y-46388400D01*
X143078914Y-46436019D01*
X143174152Y-46578876D01*
X143221771Y-46769352D01*
X143221771Y-47150304D01*
X143174152Y-47245542D01*
X143126533Y-47293161D01*
X143031295Y-47340780D01*
X142840819Y-47340780D01*
X142745580Y-47293161D01*
X142697961Y-47245542D01*
X142650342Y-47150304D01*
X142650342Y-46912209D01*
X142697961Y-46816971D01*
X142745580Y-46769352D01*
X142840819Y-46721733D01*
X143031295Y-46721733D01*
X143126533Y-46769352D01*
X143174152Y-46816971D01*
X143221771Y-46912209D01*
X142459866Y-47436019D02*
X141697961Y-47436019D01*
X141555104Y-46340780D02*
X140936057Y-46340780D01*
X141269390Y-46721733D01*
X141126533Y-46721733D01*
X141031295Y-46769352D01*
X140983676Y-46816971D01*
X140936057Y-46912209D01*
X140936057Y-47150304D01*
X140983676Y-47245542D01*
X141031295Y-47293161D01*
X141126533Y-47340780D01*
X141412247Y-47340780D01*
X141507485Y-47293161D01*
X141555104Y-47245542D01*
X140507485Y-47340780D02*
X140507485Y-46340780D01*
X140269390Y-46340780D01*
X140126533Y-46388400D01*
X140031295Y-46483638D01*
X139983676Y-46578876D01*
X139936057Y-46769352D01*
X139936057Y-46912209D01*
X139983676Y-47102685D01*
X140031295Y-47197923D01*
X140126533Y-47293161D01*
X140269390Y-47340780D01*
X140507485Y-47340780D01*
X139507485Y-47340780D02*
X139507485Y-46340780D01*
X138507485Y-46388400D02*
X138602723Y-46340780D01*
X138745580Y-46340780D01*
X138888438Y-46388400D01*
X138983676Y-46483638D01*
X139031295Y-46578876D01*
X139078914Y-46769352D01*
X139078914Y-46912209D01*
X139031295Y-47102685D01*
X138983676Y-47197923D01*
X138888438Y-47293161D01*
X138745580Y-47340780D01*
X138650342Y-47340780D01*
X138507485Y-47293161D01*
X138459866Y-47245542D01*
X138459866Y-46912209D01*
X138650342Y-46912209D01*
X101088438Y-46340780D02*
X100993200Y-46340780D01*
X100897961Y-46388400D01*
X100850342Y-46436019D01*
X100802723Y-46531257D01*
X100755104Y-46721733D01*
X100755104Y-46959828D01*
X100802723Y-47150304D01*
X100850342Y-47245542D01*
X100897961Y-47293161D01*
X100993200Y-47340780D01*
X101088438Y-47340780D01*
X101183676Y-47293161D01*
X101231295Y-47245542D01*
X101278914Y-47150304D01*
X101326533Y-46959828D01*
X101326533Y-46721733D01*
X101278914Y-46531257D01*
X101231295Y-46436019D01*
X101183676Y-46388400D01*
X101088438Y-46340780D01*
X99850342Y-46340780D02*
X100326533Y-46340780D01*
X100374152Y-46816971D01*
X100326533Y-46769352D01*
X100231295Y-46721733D01*
X99993200Y-46721733D01*
X99897961Y-46769352D01*
X99850342Y-46816971D01*
X99802723Y-46912209D01*
X99802723Y-47150304D01*
X99850342Y-47245542D01*
X99897961Y-47293161D01*
X99993200Y-47340780D01*
X100231295Y-47340780D01*
X100326533Y-47293161D01*
X100374152Y-47245542D01*
X98945580Y-46340780D02*
X99136057Y-46340780D01*
X99231295Y-46388400D01*
X99278914Y-46436019D01*
X99374152Y-46578876D01*
X99421771Y-46769352D01*
X99421771Y-47150304D01*
X99374152Y-47245542D01*
X99326533Y-47293161D01*
X99231295Y-47340780D01*
X99040819Y-47340780D01*
X98945580Y-47293161D01*
X98897961Y-47245542D01*
X98850342Y-47150304D01*
X98850342Y-46912209D01*
X98897961Y-46816971D01*
X98945580Y-46769352D01*
X99040819Y-46721733D01*
X99231295Y-46721733D01*
X99326533Y-46769352D01*
X99374152Y-46816971D01*
X99421771Y-46912209D01*
X98659866Y-47436019D02*
X97897961Y-47436019D01*
X97755104Y-46340780D02*
X97136057Y-46340780D01*
X97469390Y-46721733D01*
X97326533Y-46721733D01*
X97231295Y-46769352D01*
X97183676Y-46816971D01*
X97136057Y-46912209D01*
X97136057Y-47150304D01*
X97183676Y-47245542D01*
X97231295Y-47293161D01*
X97326533Y-47340780D01*
X97612247Y-47340780D01*
X97707485Y-47293161D01*
X97755104Y-47245542D01*
X96707485Y-47340780D02*
X96707485Y-46340780D01*
X96469390Y-46340780D01*
X96326533Y-46388400D01*
X96231295Y-46483638D01*
X96183676Y-46578876D01*
X96136057Y-46769352D01*
X96136057Y-46912209D01*
X96183676Y-47102685D01*
X96231295Y-47197923D01*
X96326533Y-47293161D01*
X96469390Y-47340780D01*
X96707485Y-47340780D01*
X95707485Y-47340780D02*
X95707485Y-46340780D01*
X94707485Y-46388400D02*
X94802723Y-46340780D01*
X94945580Y-46340780D01*
X95088438Y-46388400D01*
X95183676Y-46483638D01*
X95231295Y-46578876D01*
X95278914Y-46769352D01*
X95278914Y-46912209D01*
X95231295Y-47102685D01*
X95183676Y-47197923D01*
X95088438Y-47293161D01*
X94945580Y-47340780D01*
X94850342Y-47340780D01*
X94707485Y-47293161D01*
X94659866Y-47245542D01*
X94659866Y-46912209D01*
X94850342Y-46912209D01*
X106954628Y-51962585D02*
X106954628Y-52724490D01*
X107335580Y-52343538D02*
X106573676Y-52343538D01*
X107240342Y-55295919D02*
X107287961Y-55248300D01*
X107335580Y-55105442D01*
X107335580Y-55010204D01*
X107287961Y-54867347D01*
X107192723Y-54772109D01*
X107097485Y-54724490D01*
X106907009Y-54676871D01*
X106764152Y-54676871D01*
X106573676Y-54724490D01*
X106478438Y-54772109D01*
X106383200Y-54867347D01*
X106335580Y-55010204D01*
X106335580Y-55105442D01*
X106383200Y-55248300D01*
X106430819Y-55295919D01*
X107335580Y-57248300D02*
X106335580Y-57248300D01*
X106335580Y-57486395D01*
X106383200Y-57629252D01*
X106478438Y-57724490D01*
X106573676Y-57772109D01*
X106764152Y-57819728D01*
X106907009Y-57819728D01*
X107097485Y-57772109D01*
X107192723Y-57724490D01*
X107287961Y-57629252D01*
X107335580Y-57486395D01*
X107335580Y-57248300D01*
X106954628Y-59772109D02*
X106954628Y-60534014D01*
D11*
X149384300Y-124553400D02*
X146724300Y-124553400D01*
X149384300Y-116873400D02*
X149384300Y-124553400D01*
X146724300Y-116873400D02*
X146724300Y-124553400D01*
X149384300Y-116873400D02*
X146724300Y-116873400D01*
X149384300Y-115603400D02*
X149384300Y-114273400D01*
X149384300Y-114273400D02*
X148054300Y-114273400D01*
X105584300Y-124553400D02*
X102924300Y-124553400D01*
X105584300Y-116873400D02*
X105584300Y-124553400D01*
X102924300Y-116873400D02*
X102924300Y-124553400D01*
X105584300Y-116873400D02*
X102924300Y-116873400D01*
X105584300Y-115603400D02*
X105584300Y-114273400D01*
X105584300Y-114273400D02*
X104254300Y-114273400D01*
X149384300Y-103553400D02*
X146724300Y-103553400D01*
X149384300Y-95873400D02*
X149384300Y-103553400D01*
X146724300Y-95873400D02*
X146724300Y-103553400D01*
X149384300Y-95873400D02*
X146724300Y-95873400D01*
X149384300Y-94603400D02*
X149384300Y-93273400D01*
X149384300Y-93273400D02*
X148054300Y-93273400D01*
X105584300Y-103553400D02*
X102924300Y-103553400D01*
X105584300Y-95873400D02*
X105584300Y-103553400D01*
X102924300Y-95873400D02*
X102924300Y-103553400D01*
X105584300Y-95873400D02*
X102924300Y-95873400D01*
X105584300Y-94603400D02*
X105584300Y-93273400D01*
X105584300Y-93273400D02*
X104254300Y-93273400D01*
X149384300Y-82553400D02*
X146724300Y-82553400D01*
X149384300Y-74873400D02*
X149384300Y-82553400D01*
X146724300Y-74873400D02*
X146724300Y-82553400D01*
X149384300Y-74873400D02*
X146724300Y-74873400D01*
X149384300Y-73603400D02*
X149384300Y-72273400D01*
X149384300Y-72273400D02*
X148054300Y-72273400D01*
X105584300Y-82553400D02*
X102924300Y-82553400D01*
X105584300Y-74873400D02*
X105584300Y-82553400D01*
X102924300Y-74873400D02*
X102924300Y-82553400D01*
X105584300Y-74873400D02*
X102924300Y-74873400D01*
X105584300Y-73603400D02*
X105584300Y-72273400D01*
X105584300Y-72273400D02*
X104254300Y-72273400D01*
X149384300Y-61553400D02*
X146724300Y-61553400D01*
X149384300Y-53873400D02*
X149384300Y-61553400D01*
X146724300Y-53873400D02*
X146724300Y-61553400D01*
X149384300Y-53873400D02*
X146724300Y-53873400D01*
X149384300Y-52603400D02*
X149384300Y-51273400D01*
X149384300Y-51273400D02*
X148054300Y-51273400D01*
X166136300Y-112523500D02*
X172136300Y-112523500D01*
X164136300Y-125583500D02*
X169136300Y-125583500D01*
X122336300Y-112523500D02*
X128336300Y-112523500D01*
X120336300Y-125583500D02*
X125336300Y-125583500D01*
X166136300Y-91523500D02*
X172136300Y-91523500D01*
X164136300Y-104583500D02*
X169136300Y-104583500D01*
X122336300Y-91523500D02*
X128336300Y-91523500D01*
X120336300Y-104583500D02*
X125336300Y-104583500D01*
X166136300Y-70523500D02*
X172136300Y-70523500D01*
X164136300Y-83583500D02*
X169136300Y-83583500D01*
X122336300Y-70523500D02*
X128336300Y-70523500D01*
X120336300Y-83583500D02*
X125336300Y-83583500D01*
X166136300Y-49523500D02*
X172136300Y-49523500D01*
X164136300Y-62583500D02*
X169136300Y-62583500D01*
X143224585Y-114699687D02*
G75*
G03X143348200Y-114092100I-1431385J607587D01*
G01*
X141185458Y-115524209D02*
G75*
G03X142401200Y-115524100I607742J1432109D01*
G01*
X140361091Y-113484358D02*
G75*
G03X140361200Y-114700100I1432109J-607742D01*
G01*
X142400942Y-112659991D02*
G75*
G03X141185200Y-112660100I-607742J-1432109D01*
G01*
X143348692Y-114119111D02*
G75*
G03X143225200Y-113484100I-1555492J27011D01*
G01*
X143348200Y-117592100D02*
G75*
G03X143348200Y-117592100I-1555000J0D01*
G01*
X143348200Y-121092100D02*
G75*
G03X143348200Y-121092100I-1555000J0D01*
G01*
X143348200Y-124592100D02*
G75*
G03X143348200Y-124592100I-1555000J0D01*
G01*
X143893200Y-111932100D02*
X143893200Y-126752100D01*
X138333200Y-111932100D02*
X138333200Y-126752100D01*
X145453200Y-111932100D02*
X145453200Y-126752100D01*
X138333200Y-111932100D02*
X145453200Y-111932100D01*
X138333200Y-126752100D02*
X145453200Y-126752100D01*
X143953200Y-111692100D02*
X145693200Y-111692100D01*
X145693200Y-111692100D02*
X145693200Y-113192100D01*
X99424585Y-114699687D02*
G75*
G03X99548200Y-114092100I-1431385J607587D01*
G01*
X97385458Y-115524209D02*
G75*
G03X98601200Y-115524100I607742J1432109D01*
G01*
X96561091Y-113484358D02*
G75*
G03X96561200Y-114700100I1432109J-607742D01*
G01*
X98600942Y-112659991D02*
G75*
G03X97385200Y-112660100I-607742J-1432109D01*
G01*
X99548692Y-114119111D02*
G75*
G03X99425200Y-113484100I-1555492J27011D01*
G01*
X99548200Y-117592100D02*
G75*
G03X99548200Y-117592100I-1555000J0D01*
G01*
X99548200Y-121092100D02*
G75*
G03X99548200Y-121092100I-1555000J0D01*
G01*
X99548200Y-124592100D02*
G75*
G03X99548200Y-124592100I-1555000J0D01*
G01*
X100093200Y-111932100D02*
X100093200Y-126752100D01*
X94533200Y-111932100D02*
X94533200Y-126752100D01*
X101653200Y-111932100D02*
X101653200Y-126752100D01*
X94533200Y-111932100D02*
X101653200Y-111932100D01*
X94533200Y-126752100D02*
X101653200Y-126752100D01*
X100153200Y-111692100D02*
X101893200Y-111692100D01*
X101893200Y-111692100D02*
X101893200Y-113192100D01*
X143224585Y-93699687D02*
G75*
G03X143348200Y-93092100I-1431385J607587D01*
G01*
X141185458Y-94524209D02*
G75*
G03X142401200Y-94524100I607742J1432109D01*
G01*
X140361091Y-92484358D02*
G75*
G03X140361200Y-93700100I1432109J-607742D01*
G01*
X142400942Y-91659991D02*
G75*
G03X141185200Y-91660100I-607742J-1432109D01*
G01*
X143348692Y-93119111D02*
G75*
G03X143225200Y-92484100I-1555492J27011D01*
G01*
X143348200Y-96592100D02*
G75*
G03X143348200Y-96592100I-1555000J0D01*
G01*
X143348200Y-100092100D02*
G75*
G03X143348200Y-100092100I-1555000J0D01*
G01*
X143348200Y-103592100D02*
G75*
G03X143348200Y-103592100I-1555000J0D01*
G01*
X143893200Y-90932100D02*
X143893200Y-105752100D01*
X138333200Y-90932100D02*
X138333200Y-105752100D01*
X145453200Y-90932100D02*
X145453200Y-105752100D01*
X138333200Y-90932100D02*
X145453200Y-90932100D01*
X138333200Y-105752100D02*
X145453200Y-105752100D01*
X143953200Y-90692100D02*
X145693200Y-90692100D01*
X145693200Y-90692100D02*
X145693200Y-92192100D01*
X99424585Y-93699687D02*
G75*
G03X99548200Y-93092100I-1431385J607587D01*
G01*
X97385458Y-94524209D02*
G75*
G03X98601200Y-94524100I607742J1432109D01*
G01*
X96561091Y-92484358D02*
G75*
G03X96561200Y-93700100I1432109J-607742D01*
G01*
X98600942Y-91659991D02*
G75*
G03X97385200Y-91660100I-607742J-1432109D01*
G01*
X99548692Y-93119111D02*
G75*
G03X99425200Y-92484100I-1555492J27011D01*
G01*
X99548200Y-96592100D02*
G75*
G03X99548200Y-96592100I-1555000J0D01*
G01*
X99548200Y-100092100D02*
G75*
G03X99548200Y-100092100I-1555000J0D01*
G01*
X99548200Y-103592100D02*
G75*
G03X99548200Y-103592100I-1555000J0D01*
G01*
X100093200Y-90932100D02*
X100093200Y-105752100D01*
X94533200Y-90932100D02*
X94533200Y-105752100D01*
X101653200Y-90932100D02*
X101653200Y-105752100D01*
X94533200Y-90932100D02*
X101653200Y-90932100D01*
X94533200Y-105752100D02*
X101653200Y-105752100D01*
X100153200Y-90692100D02*
X101893200Y-90692100D01*
X101893200Y-90692100D02*
X101893200Y-92192100D01*
X143224585Y-72699687D02*
G75*
G03X143348200Y-72092100I-1431385J607587D01*
G01*
X141185458Y-73524209D02*
G75*
G03X142401200Y-73524100I607742J1432109D01*
G01*
X140361091Y-71484358D02*
G75*
G03X140361200Y-72700100I1432109J-607742D01*
G01*
X142400942Y-70659991D02*
G75*
G03X141185200Y-70660100I-607742J-1432109D01*
G01*
X143348692Y-72119111D02*
G75*
G03X143225200Y-71484100I-1555492J27011D01*
G01*
X143348200Y-75592100D02*
G75*
G03X143348200Y-75592100I-1555000J0D01*
G01*
X143348200Y-79092100D02*
G75*
G03X143348200Y-79092100I-1555000J0D01*
G01*
X143348200Y-82592100D02*
G75*
G03X143348200Y-82592100I-1555000J0D01*
G01*
X143893200Y-69932100D02*
X143893200Y-84752100D01*
X138333200Y-69932100D02*
X138333200Y-84752100D01*
X145453200Y-69932100D02*
X145453200Y-84752100D01*
X138333200Y-69932100D02*
X145453200Y-69932100D01*
X138333200Y-84752100D02*
X145453200Y-84752100D01*
X143953200Y-69692100D02*
X145693200Y-69692100D01*
X145693200Y-69692100D02*
X145693200Y-71192100D01*
X99424585Y-72699687D02*
G75*
G03X99548200Y-72092100I-1431385J607587D01*
G01*
X97385458Y-73524209D02*
G75*
G03X98601200Y-73524100I607742J1432109D01*
G01*
X96561091Y-71484358D02*
G75*
G03X96561200Y-72700100I1432109J-607742D01*
G01*
X98600942Y-70659991D02*
G75*
G03X97385200Y-70660100I-607742J-1432109D01*
G01*
X99548692Y-72119111D02*
G75*
G03X99425200Y-71484100I-1555492J27011D01*
G01*
X99548200Y-75592100D02*
G75*
G03X99548200Y-75592100I-1555000J0D01*
G01*
X99548200Y-79092100D02*
G75*
G03X99548200Y-79092100I-1555000J0D01*
G01*
X99548200Y-82592100D02*
G75*
G03X99548200Y-82592100I-1555000J0D01*
G01*
X100093200Y-69932100D02*
X100093200Y-84752100D01*
X94533200Y-69932100D02*
X94533200Y-84752100D01*
X101653200Y-69932100D02*
X101653200Y-84752100D01*
X94533200Y-69932100D02*
X101653200Y-69932100D01*
X94533200Y-84752100D02*
X101653200Y-84752100D01*
X100153200Y-69692100D02*
X101893200Y-69692100D01*
X101893200Y-69692100D02*
X101893200Y-71192100D01*
X143224585Y-51699687D02*
G75*
G03X143348200Y-51092100I-1431385J607587D01*
G01*
X141185458Y-52524209D02*
G75*
G03X142401200Y-52524100I607742J1432109D01*
G01*
X140361091Y-50484358D02*
G75*
G03X140361200Y-51700100I1432109J-607742D01*
G01*
X142400942Y-49659991D02*
G75*
G03X141185200Y-49660100I-607742J-1432109D01*
G01*
X143348692Y-51119111D02*
G75*
G03X143225200Y-50484100I-1555492J27011D01*
G01*
X143348200Y-54592100D02*
G75*
G03X143348200Y-54592100I-1555000J0D01*
G01*
X143348200Y-58092100D02*
G75*
G03X143348200Y-58092100I-1555000J0D01*
G01*
X143348200Y-61592100D02*
G75*
G03X143348200Y-61592100I-1555000J0D01*
G01*
X143893200Y-48932100D02*
X143893200Y-63752100D01*
X138333200Y-48932100D02*
X138333200Y-63752100D01*
X145453200Y-48932100D02*
X145453200Y-63752100D01*
X138333200Y-48932100D02*
X145453200Y-48932100D01*
X138333200Y-63752100D02*
X145453200Y-63752100D01*
X143953200Y-48692100D02*
X145693200Y-48692100D01*
X145693200Y-48692100D02*
X145693200Y-50192100D01*
X154469000Y-115469148D02*
X154469000Y-115991652D01*
X155889000Y-115469148D02*
X155889000Y-115991652D01*
X110669000Y-115469148D02*
X110669000Y-115991652D01*
X112089000Y-115469148D02*
X112089000Y-115991652D01*
X154469000Y-94469148D02*
X154469000Y-94991652D01*
X155889000Y-94469148D02*
X155889000Y-94991652D01*
X110669000Y-94469148D02*
X110669000Y-94991652D01*
X112089000Y-94469148D02*
X112089000Y-94991652D01*
X154469000Y-73469148D02*
X154469000Y-73991652D01*
X155889000Y-73469148D02*
X155889000Y-73991652D01*
X110669000Y-73469148D02*
X110669000Y-73991652D01*
X112089000Y-73469148D02*
X112089000Y-73991652D01*
X154469000Y-52469148D02*
X154469000Y-52991652D01*
X155889000Y-52469148D02*
X155889000Y-52991652D01*
X157021700Y-115469148D02*
X157021700Y-115991652D01*
X158441700Y-115469148D02*
X158441700Y-115991652D01*
X113221700Y-115469148D02*
X113221700Y-115991652D01*
X114641700Y-115469148D02*
X114641700Y-115991652D01*
X157021700Y-94469148D02*
X157021700Y-94991652D01*
X158441700Y-94469148D02*
X158441700Y-94991652D01*
X113221700Y-94469148D02*
X113221700Y-94991652D01*
X114641700Y-94469148D02*
X114641700Y-94991652D01*
X157021700Y-73469148D02*
X157021700Y-73991652D01*
X158441700Y-73469148D02*
X158441700Y-73991652D01*
X113221700Y-73469148D02*
X113221700Y-73991652D01*
X114641700Y-73469148D02*
X114641700Y-73991652D01*
X157021700Y-52469148D02*
X157021700Y-52991652D01*
X158441700Y-52469148D02*
X158441700Y-52991652D01*
X154456300Y-120511048D02*
X154456300Y-121033552D01*
X155876300Y-120511048D02*
X155876300Y-121033552D01*
X110656300Y-120511048D02*
X110656300Y-121033552D01*
X112076300Y-120511048D02*
X112076300Y-121033552D01*
X154456300Y-99511048D02*
X154456300Y-100033552D01*
X155876300Y-99511048D02*
X155876300Y-100033552D01*
X110656300Y-99511048D02*
X110656300Y-100033552D01*
X112076300Y-99511048D02*
X112076300Y-100033552D01*
X154456300Y-78511048D02*
X154456300Y-79033552D01*
X155876300Y-78511048D02*
X155876300Y-79033552D01*
X110656300Y-78511048D02*
X110656300Y-79033552D01*
X112076300Y-78511048D02*
X112076300Y-79033552D01*
X154456300Y-57511048D02*
X154456300Y-58033552D01*
X155876300Y-57511048D02*
X155876300Y-58033552D01*
X157085200Y-120536448D02*
X157085200Y-121058952D01*
X158505200Y-120536448D02*
X158505200Y-121058952D01*
X113285200Y-120536448D02*
X113285200Y-121058952D01*
X114705200Y-120536448D02*
X114705200Y-121058952D01*
X157085200Y-99536448D02*
X157085200Y-100058952D01*
X158505200Y-99536448D02*
X158505200Y-100058952D01*
X113285200Y-99536448D02*
X113285200Y-100058952D01*
X114705200Y-99536448D02*
X114705200Y-100058952D01*
X157085200Y-78536448D02*
X157085200Y-79058952D01*
X158505200Y-78536448D02*
X158505200Y-79058952D01*
X113285200Y-78536448D02*
X113285200Y-79058952D01*
X114705200Y-78536448D02*
X114705200Y-79058952D01*
X157085200Y-57536448D02*
X157085200Y-58058952D01*
X158505200Y-57536448D02*
X158505200Y-58058952D01*
X168648252Y-126361500D02*
X168125748Y-126361500D01*
X168648252Y-127781500D02*
X168125748Y-127781500D01*
X124848252Y-126361500D02*
X124325748Y-126361500D01*
X124848252Y-127781500D02*
X124325748Y-127781500D01*
X168648252Y-105361500D02*
X168125748Y-105361500D01*
X168648252Y-106781500D02*
X168125748Y-106781500D01*
X124848252Y-105361500D02*
X124325748Y-105361500D01*
X124848252Y-106781500D02*
X124325748Y-106781500D01*
X168648252Y-84361500D02*
X168125748Y-84361500D01*
X168648252Y-85781500D02*
X168125748Y-85781500D01*
X124848252Y-84361500D02*
X124325748Y-84361500D01*
X124848252Y-85781500D02*
X124325748Y-85781500D01*
X168648252Y-63361500D02*
X168125748Y-63361500D01*
X168648252Y-64781500D02*
X168125748Y-64781500D01*
X172826552Y-126386900D02*
X172304048Y-126386900D01*
X172826552Y-127806900D02*
X172304048Y-127806900D01*
X129026552Y-126386900D02*
X128504048Y-126386900D01*
X129026552Y-127806900D02*
X128504048Y-127806900D01*
X172826552Y-105386900D02*
X172304048Y-105386900D01*
X172826552Y-106806900D02*
X172304048Y-106806900D01*
X129026552Y-105386900D02*
X128504048Y-105386900D01*
X129026552Y-106806900D02*
X128504048Y-106806900D01*
X172826552Y-84386900D02*
X172304048Y-84386900D01*
X172826552Y-85806900D02*
X172304048Y-85806900D01*
X129026552Y-84386900D02*
X128504048Y-84386900D01*
X129026552Y-85806900D02*
X128504048Y-85806900D01*
X172826552Y-63386900D02*
X172304048Y-63386900D01*
X172826552Y-64806900D02*
X172304048Y-64806900D01*
X105584300Y-51273400D02*
X104254300Y-51273400D01*
X105584300Y-52603400D02*
X105584300Y-51273400D01*
X105584300Y-53873400D02*
X102924300Y-53873400D01*
X102924300Y-53873400D02*
X102924300Y-61553400D01*
X105584300Y-53873400D02*
X105584300Y-61553400D01*
X105584300Y-61553400D02*
X102924300Y-61553400D01*
X114641700Y-52469148D02*
X114641700Y-52991652D01*
X113221700Y-52469148D02*
X113221700Y-52991652D01*
X112089000Y-52469148D02*
X112089000Y-52991652D01*
X110669000Y-52469148D02*
X110669000Y-52991652D01*
X114705200Y-57536448D02*
X114705200Y-58058952D01*
X113285200Y-57536448D02*
X113285200Y-58058952D01*
X112076300Y-57511048D02*
X112076300Y-58033552D01*
X110656300Y-57511048D02*
X110656300Y-58033552D01*
X124848252Y-64781500D02*
X124325748Y-64781500D01*
X124848252Y-63361500D02*
X124325748Y-63361500D01*
X129026552Y-64806900D02*
X128504048Y-64806900D01*
X129026552Y-63386900D02*
X128504048Y-63386900D01*
X101893200Y-48692100D02*
X101893200Y-50192100D01*
X100153200Y-48692100D02*
X101893200Y-48692100D01*
X94533200Y-63752100D02*
X101653200Y-63752100D01*
X94533200Y-48932100D02*
X101653200Y-48932100D01*
X101653200Y-48932100D02*
X101653200Y-63752100D01*
X94533200Y-48932100D02*
X94533200Y-63752100D01*
X100093200Y-48932100D02*
X100093200Y-63752100D01*
X99548200Y-61592100D02*
G75*
G03X99548200Y-61592100I-1555000J0D01*
G01*
X99548200Y-58092100D02*
G75*
G03X99548200Y-58092100I-1555000J0D01*
G01*
X99548200Y-54592100D02*
G75*
G03X99548200Y-54592100I-1555000J0D01*
G01*
X99548692Y-51119111D02*
G75*
G03X99425200Y-50484100I-1555492J27011D01*
G01*
X98600942Y-49659991D02*
G75*
G03X97385200Y-49660100I-607742J-1432109D01*
G01*
X96561091Y-50484358D02*
G75*
G03X96561200Y-51700100I1432109J-607742D01*
G01*
X97385458Y-52524209D02*
G75*
G03X98601200Y-52524100I607742J1432109D01*
G01*
X99424585Y-51699687D02*
G75*
G03X99548200Y-51092100I-1431385J607587D01*
G01*
X120336300Y-62583500D02*
X125336300Y-62583500D01*
X122336300Y-49523500D02*
X128336300Y-49523500D01*
D10*
X148336833Y-125177680D02*
X148336833Y-125891966D01*
X148384452Y-126034823D01*
X148479690Y-126130061D01*
X148622547Y-126177680D01*
X148717785Y-126177680D01*
X147908261Y-125272919D02*
X147860642Y-125225300D01*
X147765404Y-125177680D01*
X147527309Y-125177680D01*
X147432071Y-125225300D01*
X147384452Y-125272919D01*
X147336833Y-125368157D01*
X147336833Y-125463395D01*
X147384452Y-125606252D01*
X147955880Y-126177680D01*
X147336833Y-126177680D01*
X104536833Y-125177680D02*
X104536833Y-125891966D01*
X104584452Y-126034823D01*
X104679690Y-126130061D01*
X104822547Y-126177680D01*
X104917785Y-126177680D01*
X104108261Y-125272919D02*
X104060642Y-125225300D01*
X103965404Y-125177680D01*
X103727309Y-125177680D01*
X103632071Y-125225300D01*
X103584452Y-125272919D01*
X103536833Y-125368157D01*
X103536833Y-125463395D01*
X103584452Y-125606252D01*
X104155880Y-126177680D01*
X103536833Y-126177680D01*
X148336833Y-104177680D02*
X148336833Y-104891966D01*
X148384452Y-105034823D01*
X148479690Y-105130061D01*
X148622547Y-105177680D01*
X148717785Y-105177680D01*
X147908261Y-104272919D02*
X147860642Y-104225300D01*
X147765404Y-104177680D01*
X147527309Y-104177680D01*
X147432071Y-104225300D01*
X147384452Y-104272919D01*
X147336833Y-104368157D01*
X147336833Y-104463395D01*
X147384452Y-104606252D01*
X147955880Y-105177680D01*
X147336833Y-105177680D01*
X104536833Y-104177680D02*
X104536833Y-104891966D01*
X104584452Y-105034823D01*
X104679690Y-105130061D01*
X104822547Y-105177680D01*
X104917785Y-105177680D01*
X104108261Y-104272919D02*
X104060642Y-104225300D01*
X103965404Y-104177680D01*
X103727309Y-104177680D01*
X103632071Y-104225300D01*
X103584452Y-104272919D01*
X103536833Y-104368157D01*
X103536833Y-104463395D01*
X103584452Y-104606252D01*
X104155880Y-105177680D01*
X103536833Y-105177680D01*
X148336833Y-83177680D02*
X148336833Y-83891966D01*
X148384452Y-84034823D01*
X148479690Y-84130061D01*
X148622547Y-84177680D01*
X148717785Y-84177680D01*
X147908261Y-83272919D02*
X147860642Y-83225300D01*
X147765404Y-83177680D01*
X147527309Y-83177680D01*
X147432071Y-83225300D01*
X147384452Y-83272919D01*
X147336833Y-83368157D01*
X147336833Y-83463395D01*
X147384452Y-83606252D01*
X147955880Y-84177680D01*
X147336833Y-84177680D01*
X104536833Y-83177680D02*
X104536833Y-83891966D01*
X104584452Y-84034823D01*
X104679690Y-84130061D01*
X104822547Y-84177680D01*
X104917785Y-84177680D01*
X104108261Y-83272919D02*
X104060642Y-83225300D01*
X103965404Y-83177680D01*
X103727309Y-83177680D01*
X103632071Y-83225300D01*
X103584452Y-83272919D01*
X103536833Y-83368157D01*
X103536833Y-83463395D01*
X103584452Y-83606252D01*
X104155880Y-84177680D01*
X103536833Y-84177680D01*
X148336833Y-62177680D02*
X148336833Y-62891966D01*
X148384452Y-63034823D01*
X148479690Y-63130061D01*
X148622547Y-63177680D01*
X148717785Y-63177680D01*
X147908261Y-62272919D02*
X147860642Y-62225300D01*
X147765404Y-62177680D01*
X147527309Y-62177680D01*
X147432071Y-62225300D01*
X147384452Y-62272919D01*
X147336833Y-62368157D01*
X147336833Y-62463395D01*
X147384452Y-62606252D01*
X147955880Y-63177680D01*
X147336833Y-63177680D01*
X166208204Y-125925880D02*
X166208204Y-126735404D01*
X166160585Y-126830642D01*
X166112966Y-126878261D01*
X166017728Y-126925880D01*
X165827252Y-126925880D01*
X165732014Y-126878261D01*
X165684395Y-126830642D01*
X165636776Y-126735404D01*
X165636776Y-125925880D01*
X165208204Y-126021119D02*
X165160585Y-125973500D01*
X165065347Y-125925880D01*
X164827252Y-125925880D01*
X164732014Y-125973500D01*
X164684395Y-126021119D01*
X164636776Y-126116357D01*
X164636776Y-126211595D01*
X164684395Y-126354452D01*
X165255823Y-126925880D01*
X164636776Y-126925880D01*
X122408204Y-125925880D02*
X122408204Y-126735404D01*
X122360585Y-126830642D01*
X122312966Y-126878261D01*
X122217728Y-126925880D01*
X122027252Y-126925880D01*
X121932014Y-126878261D01*
X121884395Y-126830642D01*
X121836776Y-126735404D01*
X121836776Y-125925880D01*
X121408204Y-126021119D02*
X121360585Y-125973500D01*
X121265347Y-125925880D01*
X121027252Y-125925880D01*
X120932014Y-125973500D01*
X120884395Y-126021119D01*
X120836776Y-126116357D01*
X120836776Y-126211595D01*
X120884395Y-126354452D01*
X121455823Y-126925880D01*
X120836776Y-126925880D01*
X166208204Y-104925880D02*
X166208204Y-105735404D01*
X166160585Y-105830642D01*
X166112966Y-105878261D01*
X166017728Y-105925880D01*
X165827252Y-105925880D01*
X165732014Y-105878261D01*
X165684395Y-105830642D01*
X165636776Y-105735404D01*
X165636776Y-104925880D01*
X165208204Y-105021119D02*
X165160585Y-104973500D01*
X165065347Y-104925880D01*
X164827252Y-104925880D01*
X164732014Y-104973500D01*
X164684395Y-105021119D01*
X164636776Y-105116357D01*
X164636776Y-105211595D01*
X164684395Y-105354452D01*
X165255823Y-105925880D01*
X164636776Y-105925880D01*
X122408204Y-104925880D02*
X122408204Y-105735404D01*
X122360585Y-105830642D01*
X122312966Y-105878261D01*
X122217728Y-105925880D01*
X122027252Y-105925880D01*
X121932014Y-105878261D01*
X121884395Y-105830642D01*
X121836776Y-105735404D01*
X121836776Y-104925880D01*
X121408204Y-105021119D02*
X121360585Y-104973500D01*
X121265347Y-104925880D01*
X121027252Y-104925880D01*
X120932014Y-104973500D01*
X120884395Y-105021119D01*
X120836776Y-105116357D01*
X120836776Y-105211595D01*
X120884395Y-105354452D01*
X121455823Y-105925880D01*
X120836776Y-105925880D01*
X166208204Y-83925880D02*
X166208204Y-84735404D01*
X166160585Y-84830642D01*
X166112966Y-84878261D01*
X166017728Y-84925880D01*
X165827252Y-84925880D01*
X165732014Y-84878261D01*
X165684395Y-84830642D01*
X165636776Y-84735404D01*
X165636776Y-83925880D01*
X165208204Y-84021119D02*
X165160585Y-83973500D01*
X165065347Y-83925880D01*
X164827252Y-83925880D01*
X164732014Y-83973500D01*
X164684395Y-84021119D01*
X164636776Y-84116357D01*
X164636776Y-84211595D01*
X164684395Y-84354452D01*
X165255823Y-84925880D01*
X164636776Y-84925880D01*
X122408204Y-83925880D02*
X122408204Y-84735404D01*
X122360585Y-84830642D01*
X122312966Y-84878261D01*
X122217728Y-84925880D01*
X122027252Y-84925880D01*
X121932014Y-84878261D01*
X121884395Y-84830642D01*
X121836776Y-84735404D01*
X121836776Y-83925880D01*
X121408204Y-84021119D02*
X121360585Y-83973500D01*
X121265347Y-83925880D01*
X121027252Y-83925880D01*
X120932014Y-83973500D01*
X120884395Y-84021119D01*
X120836776Y-84116357D01*
X120836776Y-84211595D01*
X120884395Y-84354452D01*
X121455823Y-84925880D01*
X120836776Y-84925880D01*
X166208204Y-62925880D02*
X166208204Y-63735404D01*
X166160585Y-63830642D01*
X166112966Y-63878261D01*
X166017728Y-63925880D01*
X165827252Y-63925880D01*
X165732014Y-63878261D01*
X165684395Y-63830642D01*
X165636776Y-63735404D01*
X165636776Y-62925880D01*
X165208204Y-63021119D02*
X165160585Y-62973500D01*
X165065347Y-62925880D01*
X164827252Y-62925880D01*
X164732014Y-62973500D01*
X164684395Y-63021119D01*
X164636776Y-63116357D01*
X164636776Y-63211595D01*
X164684395Y-63354452D01*
X165255823Y-63925880D01*
X164636776Y-63925880D01*
X141859833Y-127374780D02*
X141859833Y-128089066D01*
X141907452Y-128231923D01*
X142002690Y-128327161D01*
X142145547Y-128374780D01*
X142240785Y-128374780D01*
X140859833Y-128374780D02*
X141431261Y-128374780D01*
X141145547Y-128374780D02*
X141145547Y-127374780D01*
X141240785Y-127517638D01*
X141336023Y-127612876D01*
X141431261Y-127660495D01*
X98059833Y-127374780D02*
X98059833Y-128089066D01*
X98107452Y-128231923D01*
X98202690Y-128327161D01*
X98345547Y-128374780D01*
X98440785Y-128374780D01*
X97059833Y-128374780D02*
X97631261Y-128374780D01*
X97345547Y-128374780D02*
X97345547Y-127374780D01*
X97440785Y-127517638D01*
X97536023Y-127612876D01*
X97631261Y-127660495D01*
X141859833Y-106374780D02*
X141859833Y-107089066D01*
X141907452Y-107231923D01*
X142002690Y-107327161D01*
X142145547Y-107374780D01*
X142240785Y-107374780D01*
X140859833Y-107374780D02*
X141431261Y-107374780D01*
X141145547Y-107374780D02*
X141145547Y-106374780D01*
X141240785Y-106517638D01*
X141336023Y-106612876D01*
X141431261Y-106660495D01*
X98059833Y-106374780D02*
X98059833Y-107089066D01*
X98107452Y-107231923D01*
X98202690Y-107327161D01*
X98345547Y-107374780D01*
X98440785Y-107374780D01*
X97059833Y-107374780D02*
X97631261Y-107374780D01*
X97345547Y-107374780D02*
X97345547Y-106374780D01*
X97440785Y-106517638D01*
X97536023Y-106612876D01*
X97631261Y-106660495D01*
X141859833Y-85374780D02*
X141859833Y-86089066D01*
X141907452Y-86231923D01*
X142002690Y-86327161D01*
X142145547Y-86374780D01*
X142240785Y-86374780D01*
X140859833Y-86374780D02*
X141431261Y-86374780D01*
X141145547Y-86374780D02*
X141145547Y-85374780D01*
X141240785Y-85517638D01*
X141336023Y-85612876D01*
X141431261Y-85660495D01*
X98059833Y-85374780D02*
X98059833Y-86089066D01*
X98107452Y-86231923D01*
X98202690Y-86327161D01*
X98345547Y-86374780D01*
X98440785Y-86374780D01*
X97059833Y-86374780D02*
X97631261Y-86374780D01*
X97345547Y-86374780D02*
X97345547Y-85374780D01*
X97440785Y-85517638D01*
X97536023Y-85612876D01*
X97631261Y-85660495D01*
X141859833Y-64374780D02*
X141859833Y-65089066D01*
X141907452Y-65231923D01*
X142002690Y-65327161D01*
X142145547Y-65374780D01*
X142240785Y-65374780D01*
X140859833Y-65374780D02*
X141431261Y-65374780D01*
X141145547Y-65374780D02*
X141145547Y-64374780D01*
X141240785Y-64517638D01*
X141336023Y-64612876D01*
X141431261Y-64660495D01*
X153981380Y-115563733D02*
X153505190Y-115230400D01*
X153981380Y-114992304D02*
X152981380Y-114992304D01*
X152981380Y-115373257D01*
X153029000Y-115468495D01*
X153076619Y-115516114D01*
X153171857Y-115563733D01*
X153314714Y-115563733D01*
X153409952Y-115516114D01*
X153457571Y-115468495D01*
X153505190Y-115373257D01*
X153505190Y-114992304D01*
X153981380Y-116516114D02*
X153981380Y-115944685D01*
X153981380Y-116230400D02*
X152981380Y-116230400D01*
X153124238Y-116135161D01*
X153219476Y-116039923D01*
X153267095Y-115944685D01*
X110181380Y-115563733D02*
X109705190Y-115230400D01*
X110181380Y-114992304D02*
X109181380Y-114992304D01*
X109181380Y-115373257D01*
X109229000Y-115468495D01*
X109276619Y-115516114D01*
X109371857Y-115563733D01*
X109514714Y-115563733D01*
X109609952Y-115516114D01*
X109657571Y-115468495D01*
X109705190Y-115373257D01*
X109705190Y-114992304D01*
X110181380Y-116516114D02*
X110181380Y-115944685D01*
X110181380Y-116230400D02*
X109181380Y-116230400D01*
X109324238Y-116135161D01*
X109419476Y-116039923D01*
X109467095Y-115944685D01*
X153981380Y-94563733D02*
X153505190Y-94230400D01*
X153981380Y-93992304D02*
X152981380Y-93992304D01*
X152981380Y-94373257D01*
X153029000Y-94468495D01*
X153076619Y-94516114D01*
X153171857Y-94563733D01*
X153314714Y-94563733D01*
X153409952Y-94516114D01*
X153457571Y-94468495D01*
X153505190Y-94373257D01*
X153505190Y-93992304D01*
X153981380Y-95516114D02*
X153981380Y-94944685D01*
X153981380Y-95230400D02*
X152981380Y-95230400D01*
X153124238Y-95135161D01*
X153219476Y-95039923D01*
X153267095Y-94944685D01*
X110181380Y-94563733D02*
X109705190Y-94230400D01*
X110181380Y-93992304D02*
X109181380Y-93992304D01*
X109181380Y-94373257D01*
X109229000Y-94468495D01*
X109276619Y-94516114D01*
X109371857Y-94563733D01*
X109514714Y-94563733D01*
X109609952Y-94516114D01*
X109657571Y-94468495D01*
X109705190Y-94373257D01*
X109705190Y-93992304D01*
X110181380Y-95516114D02*
X110181380Y-94944685D01*
X110181380Y-95230400D02*
X109181380Y-95230400D01*
X109324238Y-95135161D01*
X109419476Y-95039923D01*
X109467095Y-94944685D01*
X153981380Y-73563733D02*
X153505190Y-73230400D01*
X153981380Y-72992304D02*
X152981380Y-72992304D01*
X152981380Y-73373257D01*
X153029000Y-73468495D01*
X153076619Y-73516114D01*
X153171857Y-73563733D01*
X153314714Y-73563733D01*
X153409952Y-73516114D01*
X153457571Y-73468495D01*
X153505190Y-73373257D01*
X153505190Y-72992304D01*
X153981380Y-74516114D02*
X153981380Y-73944685D01*
X153981380Y-74230400D02*
X152981380Y-74230400D01*
X153124238Y-74135161D01*
X153219476Y-74039923D01*
X153267095Y-73944685D01*
X110181380Y-73563733D02*
X109705190Y-73230400D01*
X110181380Y-72992304D02*
X109181380Y-72992304D01*
X109181380Y-73373257D01*
X109229000Y-73468495D01*
X109276619Y-73516114D01*
X109371857Y-73563733D01*
X109514714Y-73563733D01*
X109609952Y-73516114D01*
X109657571Y-73468495D01*
X109705190Y-73373257D01*
X109705190Y-72992304D01*
X110181380Y-74516114D02*
X110181380Y-73944685D01*
X110181380Y-74230400D02*
X109181380Y-74230400D01*
X109324238Y-74135161D01*
X109419476Y-74039923D01*
X109467095Y-73944685D01*
X153981380Y-52563733D02*
X153505190Y-52230400D01*
X153981380Y-51992304D02*
X152981380Y-51992304D01*
X152981380Y-52373257D01*
X153029000Y-52468495D01*
X153076619Y-52516114D01*
X153171857Y-52563733D01*
X153314714Y-52563733D01*
X153409952Y-52516114D01*
X153457571Y-52468495D01*
X153505190Y-52373257D01*
X153505190Y-51992304D01*
X153981380Y-53516114D02*
X153981380Y-52944685D01*
X153981380Y-53230400D02*
X152981380Y-53230400D01*
X153124238Y-53135161D01*
X153219476Y-53039923D01*
X153267095Y-52944685D01*
X159923980Y-115424033D02*
X159447790Y-115090700D01*
X159923980Y-114852604D02*
X158923980Y-114852604D01*
X158923980Y-115233557D01*
X158971600Y-115328795D01*
X159019219Y-115376414D01*
X159114457Y-115424033D01*
X159257314Y-115424033D01*
X159352552Y-115376414D01*
X159400171Y-115328795D01*
X159447790Y-115233557D01*
X159447790Y-114852604D01*
X159019219Y-115804985D02*
X158971600Y-115852604D01*
X158923980Y-115947842D01*
X158923980Y-116185938D01*
X158971600Y-116281176D01*
X159019219Y-116328795D01*
X159114457Y-116376414D01*
X159209695Y-116376414D01*
X159352552Y-116328795D01*
X159923980Y-115757366D01*
X159923980Y-116376414D01*
X116123980Y-115424033D02*
X115647790Y-115090700D01*
X116123980Y-114852604D02*
X115123980Y-114852604D01*
X115123980Y-115233557D01*
X115171600Y-115328795D01*
X115219219Y-115376414D01*
X115314457Y-115424033D01*
X115457314Y-115424033D01*
X115552552Y-115376414D01*
X115600171Y-115328795D01*
X115647790Y-115233557D01*
X115647790Y-114852604D01*
X115219219Y-115804985D02*
X115171600Y-115852604D01*
X115123980Y-115947842D01*
X115123980Y-116185938D01*
X115171600Y-116281176D01*
X115219219Y-116328795D01*
X115314457Y-116376414D01*
X115409695Y-116376414D01*
X115552552Y-116328795D01*
X116123980Y-115757366D01*
X116123980Y-116376414D01*
X159923980Y-94424033D02*
X159447790Y-94090700D01*
X159923980Y-93852604D02*
X158923980Y-93852604D01*
X158923980Y-94233557D01*
X158971600Y-94328795D01*
X159019219Y-94376414D01*
X159114457Y-94424033D01*
X159257314Y-94424033D01*
X159352552Y-94376414D01*
X159400171Y-94328795D01*
X159447790Y-94233557D01*
X159447790Y-93852604D01*
X159019219Y-94804985D02*
X158971600Y-94852604D01*
X158923980Y-94947842D01*
X158923980Y-95185938D01*
X158971600Y-95281176D01*
X159019219Y-95328795D01*
X159114457Y-95376414D01*
X159209695Y-95376414D01*
X159352552Y-95328795D01*
X159923980Y-94757366D01*
X159923980Y-95376414D01*
X116123980Y-94424033D02*
X115647790Y-94090700D01*
X116123980Y-93852604D02*
X115123980Y-93852604D01*
X115123980Y-94233557D01*
X115171600Y-94328795D01*
X115219219Y-94376414D01*
X115314457Y-94424033D01*
X115457314Y-94424033D01*
X115552552Y-94376414D01*
X115600171Y-94328795D01*
X115647790Y-94233557D01*
X115647790Y-93852604D01*
X115219219Y-94804985D02*
X115171600Y-94852604D01*
X115123980Y-94947842D01*
X115123980Y-95185938D01*
X115171600Y-95281176D01*
X115219219Y-95328795D01*
X115314457Y-95376414D01*
X115409695Y-95376414D01*
X115552552Y-95328795D01*
X116123980Y-94757366D01*
X116123980Y-95376414D01*
X159923980Y-73424033D02*
X159447790Y-73090700D01*
X159923980Y-72852604D02*
X158923980Y-72852604D01*
X158923980Y-73233557D01*
X158971600Y-73328795D01*
X159019219Y-73376414D01*
X159114457Y-73424033D01*
X159257314Y-73424033D01*
X159352552Y-73376414D01*
X159400171Y-73328795D01*
X159447790Y-73233557D01*
X159447790Y-72852604D01*
X159019219Y-73804985D02*
X158971600Y-73852604D01*
X158923980Y-73947842D01*
X158923980Y-74185938D01*
X158971600Y-74281176D01*
X159019219Y-74328795D01*
X159114457Y-74376414D01*
X159209695Y-74376414D01*
X159352552Y-74328795D01*
X159923980Y-73757366D01*
X159923980Y-74376414D01*
X116123980Y-73424033D02*
X115647790Y-73090700D01*
X116123980Y-72852604D02*
X115123980Y-72852604D01*
X115123980Y-73233557D01*
X115171600Y-73328795D01*
X115219219Y-73376414D01*
X115314457Y-73424033D01*
X115457314Y-73424033D01*
X115552552Y-73376414D01*
X115600171Y-73328795D01*
X115647790Y-73233557D01*
X115647790Y-72852604D01*
X115219219Y-73804985D02*
X115171600Y-73852604D01*
X115123980Y-73947842D01*
X115123980Y-74185938D01*
X115171600Y-74281176D01*
X115219219Y-74328795D01*
X115314457Y-74376414D01*
X115409695Y-74376414D01*
X115552552Y-74328795D01*
X116123980Y-73757366D01*
X116123980Y-74376414D01*
X159923980Y-52424033D02*
X159447790Y-52090700D01*
X159923980Y-51852604D02*
X158923980Y-51852604D01*
X158923980Y-52233557D01*
X158971600Y-52328795D01*
X159019219Y-52376414D01*
X159114457Y-52424033D01*
X159257314Y-52424033D01*
X159352552Y-52376414D01*
X159400171Y-52328795D01*
X159447790Y-52233557D01*
X159447790Y-51852604D01*
X159019219Y-52804985D02*
X158971600Y-52852604D01*
X158923980Y-52947842D01*
X158923980Y-53185938D01*
X158971600Y-53281176D01*
X159019219Y-53328795D01*
X159114457Y-53376414D01*
X159209695Y-53376414D01*
X159352552Y-53328795D01*
X159923980Y-52757366D01*
X159923980Y-53376414D01*
X153796242Y-119424533D02*
X153843861Y-119376914D01*
X153891480Y-119234057D01*
X153891480Y-119138819D01*
X153843861Y-118995961D01*
X153748623Y-118900723D01*
X153653385Y-118853104D01*
X153462909Y-118805485D01*
X153320052Y-118805485D01*
X153129576Y-118853104D01*
X153034338Y-118900723D01*
X152939100Y-118995961D01*
X152891480Y-119138819D01*
X152891480Y-119234057D01*
X152939100Y-119376914D01*
X152986719Y-119424533D01*
X152891480Y-119757866D02*
X152891480Y-120376914D01*
X153272433Y-120043580D01*
X153272433Y-120186438D01*
X153320052Y-120281676D01*
X153367671Y-120329295D01*
X153462909Y-120376914D01*
X153701004Y-120376914D01*
X153796242Y-120329295D01*
X153843861Y-120281676D01*
X153891480Y-120186438D01*
X153891480Y-119900723D01*
X153843861Y-119805485D01*
X153796242Y-119757866D01*
X109996242Y-119424533D02*
X110043861Y-119376914D01*
X110091480Y-119234057D01*
X110091480Y-119138819D01*
X110043861Y-118995961D01*
X109948623Y-118900723D01*
X109853385Y-118853104D01*
X109662909Y-118805485D01*
X109520052Y-118805485D01*
X109329576Y-118853104D01*
X109234338Y-118900723D01*
X109139100Y-118995961D01*
X109091480Y-119138819D01*
X109091480Y-119234057D01*
X109139100Y-119376914D01*
X109186719Y-119424533D01*
X109091480Y-119757866D02*
X109091480Y-120376914D01*
X109472433Y-120043580D01*
X109472433Y-120186438D01*
X109520052Y-120281676D01*
X109567671Y-120329295D01*
X109662909Y-120376914D01*
X109901004Y-120376914D01*
X109996242Y-120329295D01*
X110043861Y-120281676D01*
X110091480Y-120186438D01*
X110091480Y-119900723D01*
X110043861Y-119805485D01*
X109996242Y-119757866D01*
X153796242Y-98424533D02*
X153843861Y-98376914D01*
X153891480Y-98234057D01*
X153891480Y-98138819D01*
X153843861Y-97995961D01*
X153748623Y-97900723D01*
X153653385Y-97853104D01*
X153462909Y-97805485D01*
X153320052Y-97805485D01*
X153129576Y-97853104D01*
X153034338Y-97900723D01*
X152939100Y-97995961D01*
X152891480Y-98138819D01*
X152891480Y-98234057D01*
X152939100Y-98376914D01*
X152986719Y-98424533D01*
X152891480Y-98757866D02*
X152891480Y-99376914D01*
X153272433Y-99043580D01*
X153272433Y-99186438D01*
X153320052Y-99281676D01*
X153367671Y-99329295D01*
X153462909Y-99376914D01*
X153701004Y-99376914D01*
X153796242Y-99329295D01*
X153843861Y-99281676D01*
X153891480Y-99186438D01*
X153891480Y-98900723D01*
X153843861Y-98805485D01*
X153796242Y-98757866D01*
X109996242Y-98424533D02*
X110043861Y-98376914D01*
X110091480Y-98234057D01*
X110091480Y-98138819D01*
X110043861Y-97995961D01*
X109948623Y-97900723D01*
X109853385Y-97853104D01*
X109662909Y-97805485D01*
X109520052Y-97805485D01*
X109329576Y-97853104D01*
X109234338Y-97900723D01*
X109139100Y-97995961D01*
X109091480Y-98138819D01*
X109091480Y-98234057D01*
X109139100Y-98376914D01*
X109186719Y-98424533D01*
X109091480Y-98757866D02*
X109091480Y-99376914D01*
X109472433Y-99043580D01*
X109472433Y-99186438D01*
X109520052Y-99281676D01*
X109567671Y-99329295D01*
X109662909Y-99376914D01*
X109901004Y-99376914D01*
X109996242Y-99329295D01*
X110043861Y-99281676D01*
X110091480Y-99186438D01*
X110091480Y-98900723D01*
X110043861Y-98805485D01*
X109996242Y-98757866D01*
X153796242Y-77424533D02*
X153843861Y-77376914D01*
X153891480Y-77234057D01*
X153891480Y-77138819D01*
X153843861Y-76995961D01*
X153748623Y-76900723D01*
X153653385Y-76853104D01*
X153462909Y-76805485D01*
X153320052Y-76805485D01*
X153129576Y-76853104D01*
X153034338Y-76900723D01*
X152939100Y-76995961D01*
X152891480Y-77138819D01*
X152891480Y-77234057D01*
X152939100Y-77376914D01*
X152986719Y-77424533D01*
X152891480Y-77757866D02*
X152891480Y-78376914D01*
X153272433Y-78043580D01*
X153272433Y-78186438D01*
X153320052Y-78281676D01*
X153367671Y-78329295D01*
X153462909Y-78376914D01*
X153701004Y-78376914D01*
X153796242Y-78329295D01*
X153843861Y-78281676D01*
X153891480Y-78186438D01*
X153891480Y-77900723D01*
X153843861Y-77805485D01*
X153796242Y-77757866D01*
X109996242Y-77424533D02*
X110043861Y-77376914D01*
X110091480Y-77234057D01*
X110091480Y-77138819D01*
X110043861Y-76995961D01*
X109948623Y-76900723D01*
X109853385Y-76853104D01*
X109662909Y-76805485D01*
X109520052Y-76805485D01*
X109329576Y-76853104D01*
X109234338Y-76900723D01*
X109139100Y-76995961D01*
X109091480Y-77138819D01*
X109091480Y-77234057D01*
X109139100Y-77376914D01*
X109186719Y-77424533D01*
X109091480Y-77757866D02*
X109091480Y-78376914D01*
X109472433Y-78043580D01*
X109472433Y-78186438D01*
X109520052Y-78281676D01*
X109567671Y-78329295D01*
X109662909Y-78376914D01*
X109901004Y-78376914D01*
X109996242Y-78329295D01*
X110043861Y-78281676D01*
X110091480Y-78186438D01*
X110091480Y-77900723D01*
X110043861Y-77805485D01*
X109996242Y-77757866D01*
X153796242Y-56424533D02*
X153843861Y-56376914D01*
X153891480Y-56234057D01*
X153891480Y-56138819D01*
X153843861Y-55995961D01*
X153748623Y-55900723D01*
X153653385Y-55853104D01*
X153462909Y-55805485D01*
X153320052Y-55805485D01*
X153129576Y-55853104D01*
X153034338Y-55900723D01*
X152939100Y-55995961D01*
X152891480Y-56138819D01*
X152891480Y-56234057D01*
X152939100Y-56376914D01*
X152986719Y-56424533D01*
X152891480Y-56757866D02*
X152891480Y-57376914D01*
X153272433Y-57043580D01*
X153272433Y-57186438D01*
X153320052Y-57281676D01*
X153367671Y-57329295D01*
X153462909Y-57376914D01*
X153701004Y-57376914D01*
X153796242Y-57329295D01*
X153843861Y-57281676D01*
X153891480Y-57186438D01*
X153891480Y-56900723D01*
X153843861Y-56805485D01*
X153796242Y-56757866D01*
X159816042Y-119361033D02*
X159863661Y-119313414D01*
X159911280Y-119170557D01*
X159911280Y-119075319D01*
X159863661Y-118932461D01*
X159768423Y-118837223D01*
X159673185Y-118789604D01*
X159482709Y-118741985D01*
X159339852Y-118741985D01*
X159149376Y-118789604D01*
X159054138Y-118837223D01*
X158958900Y-118932461D01*
X158911280Y-119075319D01*
X158911280Y-119170557D01*
X158958900Y-119313414D01*
X159006519Y-119361033D01*
X159244614Y-120218176D02*
X159911280Y-120218176D01*
X158863661Y-119980080D02*
X159577947Y-119741985D01*
X159577947Y-120361033D01*
X116016042Y-119361033D02*
X116063661Y-119313414D01*
X116111280Y-119170557D01*
X116111280Y-119075319D01*
X116063661Y-118932461D01*
X115968423Y-118837223D01*
X115873185Y-118789604D01*
X115682709Y-118741985D01*
X115539852Y-118741985D01*
X115349376Y-118789604D01*
X115254138Y-118837223D01*
X115158900Y-118932461D01*
X115111280Y-119075319D01*
X115111280Y-119170557D01*
X115158900Y-119313414D01*
X115206519Y-119361033D01*
X115444614Y-120218176D02*
X116111280Y-120218176D01*
X115063661Y-119980080D02*
X115777947Y-119741985D01*
X115777947Y-120361033D01*
X159816042Y-98361033D02*
X159863661Y-98313414D01*
X159911280Y-98170557D01*
X159911280Y-98075319D01*
X159863661Y-97932461D01*
X159768423Y-97837223D01*
X159673185Y-97789604D01*
X159482709Y-97741985D01*
X159339852Y-97741985D01*
X159149376Y-97789604D01*
X159054138Y-97837223D01*
X158958900Y-97932461D01*
X158911280Y-98075319D01*
X158911280Y-98170557D01*
X158958900Y-98313414D01*
X159006519Y-98361033D01*
X159244614Y-99218176D02*
X159911280Y-99218176D01*
X158863661Y-98980080D02*
X159577947Y-98741985D01*
X159577947Y-99361033D01*
X116016042Y-98361033D02*
X116063661Y-98313414D01*
X116111280Y-98170557D01*
X116111280Y-98075319D01*
X116063661Y-97932461D01*
X115968423Y-97837223D01*
X115873185Y-97789604D01*
X115682709Y-97741985D01*
X115539852Y-97741985D01*
X115349376Y-97789604D01*
X115254138Y-97837223D01*
X115158900Y-97932461D01*
X115111280Y-98075319D01*
X115111280Y-98170557D01*
X115158900Y-98313414D01*
X115206519Y-98361033D01*
X115444614Y-99218176D02*
X116111280Y-99218176D01*
X115063661Y-98980080D02*
X115777947Y-98741985D01*
X115777947Y-99361033D01*
X159816042Y-77361033D02*
X159863661Y-77313414D01*
X159911280Y-77170557D01*
X159911280Y-77075319D01*
X159863661Y-76932461D01*
X159768423Y-76837223D01*
X159673185Y-76789604D01*
X159482709Y-76741985D01*
X159339852Y-76741985D01*
X159149376Y-76789604D01*
X159054138Y-76837223D01*
X158958900Y-76932461D01*
X158911280Y-77075319D01*
X158911280Y-77170557D01*
X158958900Y-77313414D01*
X159006519Y-77361033D01*
X159244614Y-78218176D02*
X159911280Y-78218176D01*
X158863661Y-77980080D02*
X159577947Y-77741985D01*
X159577947Y-78361033D01*
X116016042Y-77361033D02*
X116063661Y-77313414D01*
X116111280Y-77170557D01*
X116111280Y-77075319D01*
X116063661Y-76932461D01*
X115968423Y-76837223D01*
X115873185Y-76789604D01*
X115682709Y-76741985D01*
X115539852Y-76741985D01*
X115349376Y-76789604D01*
X115254138Y-76837223D01*
X115158900Y-76932461D01*
X115111280Y-77075319D01*
X115111280Y-77170557D01*
X115158900Y-77313414D01*
X115206519Y-77361033D01*
X115444614Y-78218176D02*
X116111280Y-78218176D01*
X115063661Y-77980080D02*
X115777947Y-77741985D01*
X115777947Y-78361033D01*
X159816042Y-56361033D02*
X159863661Y-56313414D01*
X159911280Y-56170557D01*
X159911280Y-56075319D01*
X159863661Y-55932461D01*
X159768423Y-55837223D01*
X159673185Y-55789604D01*
X159482709Y-55741985D01*
X159339852Y-55741985D01*
X159149376Y-55789604D01*
X159054138Y-55837223D01*
X158958900Y-55932461D01*
X158911280Y-56075319D01*
X158911280Y-56170557D01*
X158958900Y-56313414D01*
X159006519Y-56361033D01*
X159244614Y-57218176D02*
X159911280Y-57218176D01*
X158863661Y-56980080D02*
X159577947Y-56741985D01*
X159577947Y-57361033D01*
X168642566Y-129117742D02*
X168690185Y-129165361D01*
X168833042Y-129212980D01*
X168928280Y-129212980D01*
X169071138Y-129165361D01*
X169166376Y-129070123D01*
X169213995Y-128974885D01*
X169261614Y-128784409D01*
X169261614Y-128641552D01*
X169213995Y-128451076D01*
X169166376Y-128355838D01*
X169071138Y-128260600D01*
X168928280Y-128212980D01*
X168833042Y-128212980D01*
X168690185Y-128260600D01*
X168642566Y-128308219D01*
X168261614Y-128308219D02*
X168213995Y-128260600D01*
X168118757Y-128212980D01*
X167880661Y-128212980D01*
X167785423Y-128260600D01*
X167737804Y-128308219D01*
X167690185Y-128403457D01*
X167690185Y-128498695D01*
X167737804Y-128641552D01*
X168309233Y-129212980D01*
X167690185Y-129212980D01*
X124842566Y-129117742D02*
X124890185Y-129165361D01*
X125033042Y-129212980D01*
X125128280Y-129212980D01*
X125271138Y-129165361D01*
X125366376Y-129070123D01*
X125413995Y-128974885D01*
X125461614Y-128784409D01*
X125461614Y-128641552D01*
X125413995Y-128451076D01*
X125366376Y-128355838D01*
X125271138Y-128260600D01*
X125128280Y-128212980D01*
X125033042Y-128212980D01*
X124890185Y-128260600D01*
X124842566Y-128308219D01*
X124461614Y-128308219D02*
X124413995Y-128260600D01*
X124318757Y-128212980D01*
X124080661Y-128212980D01*
X123985423Y-128260600D01*
X123937804Y-128308219D01*
X123890185Y-128403457D01*
X123890185Y-128498695D01*
X123937804Y-128641552D01*
X124509233Y-129212980D01*
X123890185Y-129212980D01*
X168642566Y-108117742D02*
X168690185Y-108165361D01*
X168833042Y-108212980D01*
X168928280Y-108212980D01*
X169071138Y-108165361D01*
X169166376Y-108070123D01*
X169213995Y-107974885D01*
X169261614Y-107784409D01*
X169261614Y-107641552D01*
X169213995Y-107451076D01*
X169166376Y-107355838D01*
X169071138Y-107260600D01*
X168928280Y-107212980D01*
X168833042Y-107212980D01*
X168690185Y-107260600D01*
X168642566Y-107308219D01*
X168261614Y-107308219D02*
X168213995Y-107260600D01*
X168118757Y-107212980D01*
X167880661Y-107212980D01*
X167785423Y-107260600D01*
X167737804Y-107308219D01*
X167690185Y-107403457D01*
X167690185Y-107498695D01*
X167737804Y-107641552D01*
X168309233Y-108212980D01*
X167690185Y-108212980D01*
X124842566Y-108117742D02*
X124890185Y-108165361D01*
X125033042Y-108212980D01*
X125128280Y-108212980D01*
X125271138Y-108165361D01*
X125366376Y-108070123D01*
X125413995Y-107974885D01*
X125461614Y-107784409D01*
X125461614Y-107641552D01*
X125413995Y-107451076D01*
X125366376Y-107355838D01*
X125271138Y-107260600D01*
X125128280Y-107212980D01*
X125033042Y-107212980D01*
X124890185Y-107260600D01*
X124842566Y-107308219D01*
X124461614Y-107308219D02*
X124413995Y-107260600D01*
X124318757Y-107212980D01*
X124080661Y-107212980D01*
X123985423Y-107260600D01*
X123937804Y-107308219D01*
X123890185Y-107403457D01*
X123890185Y-107498695D01*
X123937804Y-107641552D01*
X124509233Y-108212980D01*
X123890185Y-108212980D01*
X168642566Y-87117742D02*
X168690185Y-87165361D01*
X168833042Y-87212980D01*
X168928280Y-87212980D01*
X169071138Y-87165361D01*
X169166376Y-87070123D01*
X169213995Y-86974885D01*
X169261614Y-86784409D01*
X169261614Y-86641552D01*
X169213995Y-86451076D01*
X169166376Y-86355838D01*
X169071138Y-86260600D01*
X168928280Y-86212980D01*
X168833042Y-86212980D01*
X168690185Y-86260600D01*
X168642566Y-86308219D01*
X168261614Y-86308219D02*
X168213995Y-86260600D01*
X168118757Y-86212980D01*
X167880661Y-86212980D01*
X167785423Y-86260600D01*
X167737804Y-86308219D01*
X167690185Y-86403457D01*
X167690185Y-86498695D01*
X167737804Y-86641552D01*
X168309233Y-87212980D01*
X167690185Y-87212980D01*
X124842566Y-87117742D02*
X124890185Y-87165361D01*
X125033042Y-87212980D01*
X125128280Y-87212980D01*
X125271138Y-87165361D01*
X125366376Y-87070123D01*
X125413995Y-86974885D01*
X125461614Y-86784409D01*
X125461614Y-86641552D01*
X125413995Y-86451076D01*
X125366376Y-86355838D01*
X125271138Y-86260600D01*
X125128280Y-86212980D01*
X125033042Y-86212980D01*
X124890185Y-86260600D01*
X124842566Y-86308219D01*
X124461614Y-86308219D02*
X124413995Y-86260600D01*
X124318757Y-86212980D01*
X124080661Y-86212980D01*
X123985423Y-86260600D01*
X123937804Y-86308219D01*
X123890185Y-86403457D01*
X123890185Y-86498695D01*
X123937804Y-86641552D01*
X124509233Y-87212980D01*
X123890185Y-87212980D01*
X168642566Y-66117742D02*
X168690185Y-66165361D01*
X168833042Y-66212980D01*
X168928280Y-66212980D01*
X169071138Y-66165361D01*
X169166376Y-66070123D01*
X169213995Y-65974885D01*
X169261614Y-65784409D01*
X169261614Y-65641552D01*
X169213995Y-65451076D01*
X169166376Y-65355838D01*
X169071138Y-65260600D01*
X168928280Y-65212980D01*
X168833042Y-65212980D01*
X168690185Y-65260600D01*
X168642566Y-65308219D01*
X168261614Y-65308219D02*
X168213995Y-65260600D01*
X168118757Y-65212980D01*
X167880661Y-65212980D01*
X167785423Y-65260600D01*
X167737804Y-65308219D01*
X167690185Y-65403457D01*
X167690185Y-65498695D01*
X167737804Y-65641552D01*
X168309233Y-66212980D01*
X167690185Y-66212980D01*
X172706566Y-129117742D02*
X172754185Y-129165361D01*
X172897042Y-129212980D01*
X172992280Y-129212980D01*
X173135138Y-129165361D01*
X173230376Y-129070123D01*
X173277995Y-128974885D01*
X173325614Y-128784409D01*
X173325614Y-128641552D01*
X173277995Y-128451076D01*
X173230376Y-128355838D01*
X173135138Y-128260600D01*
X172992280Y-128212980D01*
X172897042Y-128212980D01*
X172754185Y-128260600D01*
X172706566Y-128308219D01*
X171754185Y-129212980D02*
X172325614Y-129212980D01*
X172039900Y-129212980D02*
X172039900Y-128212980D01*
X172135138Y-128355838D01*
X172230376Y-128451076D01*
X172325614Y-128498695D01*
X128906566Y-129117742D02*
X128954185Y-129165361D01*
X129097042Y-129212980D01*
X129192280Y-129212980D01*
X129335138Y-129165361D01*
X129430376Y-129070123D01*
X129477995Y-128974885D01*
X129525614Y-128784409D01*
X129525614Y-128641552D01*
X129477995Y-128451076D01*
X129430376Y-128355838D01*
X129335138Y-128260600D01*
X129192280Y-128212980D01*
X129097042Y-128212980D01*
X128954185Y-128260600D01*
X128906566Y-128308219D01*
X127954185Y-129212980D02*
X128525614Y-129212980D01*
X128239900Y-129212980D02*
X128239900Y-128212980D01*
X128335138Y-128355838D01*
X128430376Y-128451076D01*
X128525614Y-128498695D01*
X172706566Y-108117742D02*
X172754185Y-108165361D01*
X172897042Y-108212980D01*
X172992280Y-108212980D01*
X173135138Y-108165361D01*
X173230376Y-108070123D01*
X173277995Y-107974885D01*
X173325614Y-107784409D01*
X173325614Y-107641552D01*
X173277995Y-107451076D01*
X173230376Y-107355838D01*
X173135138Y-107260600D01*
X172992280Y-107212980D01*
X172897042Y-107212980D01*
X172754185Y-107260600D01*
X172706566Y-107308219D01*
X171754185Y-108212980D02*
X172325614Y-108212980D01*
X172039900Y-108212980D02*
X172039900Y-107212980D01*
X172135138Y-107355838D01*
X172230376Y-107451076D01*
X172325614Y-107498695D01*
X128906566Y-108117742D02*
X128954185Y-108165361D01*
X129097042Y-108212980D01*
X129192280Y-108212980D01*
X129335138Y-108165361D01*
X129430376Y-108070123D01*
X129477995Y-107974885D01*
X129525614Y-107784409D01*
X129525614Y-107641552D01*
X129477995Y-107451076D01*
X129430376Y-107355838D01*
X129335138Y-107260600D01*
X129192280Y-107212980D01*
X129097042Y-107212980D01*
X128954185Y-107260600D01*
X128906566Y-107308219D01*
X127954185Y-108212980D02*
X128525614Y-108212980D01*
X128239900Y-108212980D02*
X128239900Y-107212980D01*
X128335138Y-107355838D01*
X128430376Y-107451076D01*
X128525614Y-107498695D01*
X172706566Y-87117742D02*
X172754185Y-87165361D01*
X172897042Y-87212980D01*
X172992280Y-87212980D01*
X173135138Y-87165361D01*
X173230376Y-87070123D01*
X173277995Y-86974885D01*
X173325614Y-86784409D01*
X173325614Y-86641552D01*
X173277995Y-86451076D01*
X173230376Y-86355838D01*
X173135138Y-86260600D01*
X172992280Y-86212980D01*
X172897042Y-86212980D01*
X172754185Y-86260600D01*
X172706566Y-86308219D01*
X171754185Y-87212980D02*
X172325614Y-87212980D01*
X172039900Y-87212980D02*
X172039900Y-86212980D01*
X172135138Y-86355838D01*
X172230376Y-86451076D01*
X172325614Y-86498695D01*
X128906566Y-87117742D02*
X128954185Y-87165361D01*
X129097042Y-87212980D01*
X129192280Y-87212980D01*
X129335138Y-87165361D01*
X129430376Y-87070123D01*
X129477995Y-86974885D01*
X129525614Y-86784409D01*
X129525614Y-86641552D01*
X129477995Y-86451076D01*
X129430376Y-86355838D01*
X129335138Y-86260600D01*
X129192280Y-86212980D01*
X129097042Y-86212980D01*
X128954185Y-86260600D01*
X128906566Y-86308219D01*
X127954185Y-87212980D02*
X128525614Y-87212980D01*
X128239900Y-87212980D02*
X128239900Y-86212980D01*
X128335138Y-86355838D01*
X128430376Y-86451076D01*
X128525614Y-86498695D01*
X172706566Y-66117742D02*
X172754185Y-66165361D01*
X172897042Y-66212980D01*
X172992280Y-66212980D01*
X173135138Y-66165361D01*
X173230376Y-66070123D01*
X173277995Y-65974885D01*
X173325614Y-65784409D01*
X173325614Y-65641552D01*
X173277995Y-65451076D01*
X173230376Y-65355838D01*
X173135138Y-65260600D01*
X172992280Y-65212980D01*
X172897042Y-65212980D01*
X172754185Y-65260600D01*
X172706566Y-65308219D01*
X171754185Y-66212980D02*
X172325614Y-66212980D01*
X172039900Y-66212980D02*
X172039900Y-65212980D01*
X172135138Y-65355838D01*
X172230376Y-65451076D01*
X172325614Y-65498695D01*
X104536833Y-62177680D02*
X104536833Y-62891966D01*
X104584452Y-63034823D01*
X104679690Y-63130061D01*
X104822547Y-63177680D01*
X104917785Y-63177680D01*
X104108261Y-62272919D02*
X104060642Y-62225300D01*
X103965404Y-62177680D01*
X103727309Y-62177680D01*
X103632071Y-62225300D01*
X103584452Y-62272919D01*
X103536833Y-62368157D01*
X103536833Y-62463395D01*
X103584452Y-62606252D01*
X104155880Y-63177680D01*
X103536833Y-63177680D01*
X116123980Y-52424033D02*
X115647790Y-52090700D01*
X116123980Y-51852604D02*
X115123980Y-51852604D01*
X115123980Y-52233557D01*
X115171600Y-52328795D01*
X115219219Y-52376414D01*
X115314457Y-52424033D01*
X115457314Y-52424033D01*
X115552552Y-52376414D01*
X115600171Y-52328795D01*
X115647790Y-52233557D01*
X115647790Y-51852604D01*
X115219219Y-52804985D02*
X115171600Y-52852604D01*
X115123980Y-52947842D01*
X115123980Y-53185938D01*
X115171600Y-53281176D01*
X115219219Y-53328795D01*
X115314457Y-53376414D01*
X115409695Y-53376414D01*
X115552552Y-53328795D01*
X116123980Y-52757366D01*
X116123980Y-53376414D01*
X110181380Y-52563733D02*
X109705190Y-52230400D01*
X110181380Y-51992304D02*
X109181380Y-51992304D01*
X109181380Y-52373257D01*
X109229000Y-52468495D01*
X109276619Y-52516114D01*
X109371857Y-52563733D01*
X109514714Y-52563733D01*
X109609952Y-52516114D01*
X109657571Y-52468495D01*
X109705190Y-52373257D01*
X109705190Y-51992304D01*
X110181380Y-53516114D02*
X110181380Y-52944685D01*
X110181380Y-53230400D02*
X109181380Y-53230400D01*
X109324238Y-53135161D01*
X109419476Y-53039923D01*
X109467095Y-52944685D01*
X116016042Y-56361033D02*
X116063661Y-56313414D01*
X116111280Y-56170557D01*
X116111280Y-56075319D01*
X116063661Y-55932461D01*
X115968423Y-55837223D01*
X115873185Y-55789604D01*
X115682709Y-55741985D01*
X115539852Y-55741985D01*
X115349376Y-55789604D01*
X115254138Y-55837223D01*
X115158900Y-55932461D01*
X115111280Y-56075319D01*
X115111280Y-56170557D01*
X115158900Y-56313414D01*
X115206519Y-56361033D01*
X115444614Y-57218176D02*
X116111280Y-57218176D01*
X115063661Y-56980080D02*
X115777947Y-56741985D01*
X115777947Y-57361033D01*
X109996242Y-56424533D02*
X110043861Y-56376914D01*
X110091480Y-56234057D01*
X110091480Y-56138819D01*
X110043861Y-55995961D01*
X109948623Y-55900723D01*
X109853385Y-55853104D01*
X109662909Y-55805485D01*
X109520052Y-55805485D01*
X109329576Y-55853104D01*
X109234338Y-55900723D01*
X109139100Y-55995961D01*
X109091480Y-56138819D01*
X109091480Y-56234057D01*
X109139100Y-56376914D01*
X109186719Y-56424533D01*
X109091480Y-56757866D02*
X109091480Y-57376914D01*
X109472433Y-57043580D01*
X109472433Y-57186438D01*
X109520052Y-57281676D01*
X109567671Y-57329295D01*
X109662909Y-57376914D01*
X109901004Y-57376914D01*
X109996242Y-57329295D01*
X110043861Y-57281676D01*
X110091480Y-57186438D01*
X110091480Y-56900723D01*
X110043861Y-56805485D01*
X109996242Y-56757866D01*
X124842566Y-66117742D02*
X124890185Y-66165361D01*
X125033042Y-66212980D01*
X125128280Y-66212980D01*
X125271138Y-66165361D01*
X125366376Y-66070123D01*
X125413995Y-65974885D01*
X125461614Y-65784409D01*
X125461614Y-65641552D01*
X125413995Y-65451076D01*
X125366376Y-65355838D01*
X125271138Y-65260600D01*
X125128280Y-65212980D01*
X125033042Y-65212980D01*
X124890185Y-65260600D01*
X124842566Y-65308219D01*
X124461614Y-65308219D02*
X124413995Y-65260600D01*
X124318757Y-65212980D01*
X124080661Y-65212980D01*
X123985423Y-65260600D01*
X123937804Y-65308219D01*
X123890185Y-65403457D01*
X123890185Y-65498695D01*
X123937804Y-65641552D01*
X124509233Y-66212980D01*
X123890185Y-66212980D01*
X128906566Y-66117742D02*
X128954185Y-66165361D01*
X129097042Y-66212980D01*
X129192280Y-66212980D01*
X129335138Y-66165361D01*
X129430376Y-66070123D01*
X129477995Y-65974885D01*
X129525614Y-65784409D01*
X129525614Y-65641552D01*
X129477995Y-65451076D01*
X129430376Y-65355838D01*
X129335138Y-65260600D01*
X129192280Y-65212980D01*
X129097042Y-65212980D01*
X128954185Y-65260600D01*
X128906566Y-65308219D01*
X127954185Y-66212980D02*
X128525614Y-66212980D01*
X128239900Y-66212980D02*
X128239900Y-65212980D01*
X128335138Y-65355838D01*
X128430376Y-65451076D01*
X128525614Y-65498695D01*
X98059833Y-64374780D02*
X98059833Y-65089066D01*
X98107452Y-65231923D01*
X98202690Y-65327161D01*
X98345547Y-65374780D01*
X98440785Y-65374780D01*
X97059833Y-65374780D02*
X97631261Y-65374780D01*
X97345547Y-65374780D02*
X97345547Y-64374780D01*
X97440785Y-64517638D01*
X97536023Y-64612876D01*
X97631261Y-64660495D01*
X122408204Y-62925880D02*
X122408204Y-63735404D01*
X122360585Y-63830642D01*
X122312966Y-63878261D01*
X122217728Y-63925880D01*
X122027252Y-63925880D01*
X121932014Y-63878261D01*
X121884395Y-63830642D01*
X121836776Y-63735404D01*
X121836776Y-62925880D01*
X121408204Y-63021119D02*
X121360585Y-62973500D01*
X121265347Y-62925880D01*
X121027252Y-62925880D01*
X120932014Y-62973500D01*
X120884395Y-63021119D01*
X120836776Y-63116357D01*
X120836776Y-63211595D01*
X120884395Y-63354452D01*
X121455823Y-63925880D01*
X120836776Y-63925880D01*
M02*
