M48
; DRILL file {KiCad 5.1.5+dfsg1-2build2} date mar 16 nov 2021 17:18:52
; FORMAT={-:-/ absolute / metric / decimal}
; #@! TF.CreationDate,2021-11-16T17:18:52-05:00
; #@! TF.GenerationSoftware,Kicad,Pcbnew,5.1.5+dfsg1-2build2
; #@! TF.FileFunction,Plated,1,2,PTH
FMAT,2
METRIC
T1C0.400
T2C1.000
T3C1.200
%
G90
G05
T1
X118.453Y-50.584
X118.453Y-71.584
X118.453Y-92.584
X118.453Y-113.584
X119.291Y-41.656
X119.291Y-62.656
X119.291Y-83.656
X119.291Y-104.656
X119.748Y-44.45
X119.748Y-65.45
X119.748Y-86.45
X119.748Y-107.45
X121.45Y-33.832
X121.45Y-54.832
X121.45Y-75.832
X121.45Y-96.832
X123.927Y-33.033
X123.927Y-54.033
X123.927Y-75.033
X123.927Y-96.033
X124.917Y-40.59
X124.917Y-61.59
X124.917Y-82.59
X124.917Y-103.59
X128.46Y-40.462
X128.46Y-61.462
X128.46Y-82.462
X128.46Y-103.462
X132.931Y-44.323
X132.931Y-65.323
X132.931Y-86.323
X132.931Y-107.323
X133.871Y-43.536
X133.871Y-64.536
X133.871Y-85.536
X133.871Y-106.536
X134.596Y-48.679
X134.596Y-69.679
X134.596Y-90.679
X134.596Y-111.679
X135.725Y-32.858
X135.725Y-53.858
X135.725Y-74.858
X135.725Y-95.858
X136.087Y-39.97
X136.087Y-60.97
X136.087Y-81.97
X136.087Y-102.97
X138.176Y-44.958
X138.176Y-65.958
X138.176Y-86.958
X138.176Y-107.958
X138.481Y-46.241
X138.481Y-67.241
X138.481Y-88.241
X138.481Y-109.241
X138.798Y-38.608
X138.798Y-59.608
X138.798Y-80.608
X138.798Y-101.608
X162.253Y-50.584
X162.253Y-71.584
X162.253Y-92.584
X162.253Y-113.584
X163.091Y-41.656
X163.091Y-62.656
X163.091Y-83.656
X163.091Y-104.656
X163.548Y-44.45
X163.548Y-65.45
X163.548Y-86.45
X163.548Y-107.45
X165.25Y-33.832
X165.25Y-54.832
X165.25Y-75.832
X165.25Y-96.832
X167.727Y-33.033
X167.727Y-54.033
X167.727Y-75.033
X167.727Y-96.033
X168.717Y-40.59
X168.717Y-61.59
X168.717Y-82.59
X168.717Y-103.59
X172.26Y-40.462
X172.26Y-61.462
X172.26Y-82.462
X172.26Y-103.462
X176.731Y-44.323
X176.731Y-65.323
X176.731Y-86.323
X176.731Y-107.323
X177.671Y-43.536
X177.671Y-64.536
X177.671Y-85.536
X177.671Y-106.536
X178.396Y-48.679
X178.396Y-69.679
X178.396Y-90.679
X178.396Y-111.679
X179.525Y-32.858
X179.525Y-53.858
X179.525Y-74.858
X179.525Y-95.858
X179.887Y-39.97
X179.887Y-60.97
X179.887Y-81.97
X179.887Y-102.97
X181.976Y-44.958
X181.976Y-65.958
X181.976Y-86.958
X181.976Y-107.958
X182.281Y-46.241
X182.281Y-67.241
X182.281Y-88.241
X182.281Y-109.241
X182.598Y-38.608
X182.598Y-59.608
X182.598Y-80.608
X182.598Y-101.608
T2
X113.817Y-59.011
X113.817Y-69.171
X116.357Y-59.011
X116.357Y-69.171
X118.897Y-59.011
X118.897Y-69.171
X121.437Y-59.011
X121.437Y-69.171
X123.977Y-59.011
X123.977Y-69.171
X126.517Y-59.011
X126.517Y-69.171
X129.057Y-59.011
X129.057Y-69.171
X157.617Y-101.011
X157.617Y-111.171
X160.157Y-101.011
X160.157Y-111.171
X162.697Y-101.011
X162.697Y-111.171
X165.237Y-101.011
X165.237Y-111.171
X167.777Y-101.011
X167.777Y-111.171
X170.317Y-101.011
X170.317Y-111.171
X172.857Y-101.011
X172.857Y-111.171
X113.817Y-38.011
X113.817Y-48.171
X116.357Y-38.011
X116.357Y-48.171
X118.897Y-38.011
X118.897Y-48.171
X121.437Y-38.011
X121.437Y-48.171
X123.977Y-38.011
X123.977Y-48.171
X126.517Y-38.011
X126.517Y-48.171
X129.057Y-38.011
X129.057Y-48.171
X154.798Y-39.319
X154.798Y-41.859
X154.798Y-44.399
X154.798Y-46.939
X110.998Y-81.319
X110.998Y-83.859
X110.998Y-86.399
X110.998Y-88.939
X110.998Y-39.319
X110.998Y-41.859
X110.998Y-44.399
X110.998Y-46.939
X154.798Y-102.319
X154.798Y-104.859
X154.798Y-107.399
X154.798Y-109.939
X157.617Y-38.011
X157.617Y-48.171
X160.157Y-38.011
X160.157Y-48.171
X162.697Y-38.011
X162.697Y-48.171
X165.237Y-38.011
X165.237Y-48.171
X167.777Y-38.011
X167.777Y-48.171
X170.317Y-38.011
X170.317Y-48.171
X172.857Y-38.011
X172.857Y-48.171
X113.817Y-101.011
X113.817Y-111.171
X116.357Y-101.011
X116.357Y-111.171
X118.897Y-101.011
X118.897Y-111.171
X121.437Y-101.011
X121.437Y-111.171
X123.977Y-101.011
X123.977Y-111.171
X126.517Y-101.011
X126.517Y-111.171
X129.057Y-101.011
X129.057Y-111.171
X157.617Y-80.011
X157.617Y-90.171
X160.157Y-80.011
X160.157Y-90.171
X162.697Y-80.011
X162.697Y-90.171
X165.237Y-80.011
X165.237Y-90.171
X167.777Y-80.011
X167.777Y-90.171
X170.317Y-80.011
X170.317Y-90.171
X172.857Y-80.011
X172.857Y-90.171
X110.998Y-60.319
X110.998Y-62.859
X110.998Y-65.399
X110.998Y-67.939
X154.798Y-81.319
X154.798Y-83.859
X154.798Y-86.399
X154.798Y-88.939
X113.817Y-80.011
X113.817Y-90.171
X116.357Y-80.011
X116.357Y-90.171
X118.897Y-80.011
X118.897Y-90.171
X121.437Y-80.011
X121.437Y-90.171
X123.977Y-80.011
X123.977Y-90.171
X126.517Y-80.011
X126.517Y-90.171
X129.057Y-80.011
X129.057Y-90.171
X154.798Y-60.319
X154.798Y-62.859
X154.798Y-65.399
X154.798Y-67.939
X157.617Y-59.011
X157.617Y-69.171
X160.157Y-59.011
X160.157Y-69.171
X162.697Y-59.011
X162.697Y-69.171
X165.237Y-59.011
X165.237Y-69.171
X167.777Y-59.011
X167.777Y-69.171
X170.317Y-59.011
X170.317Y-69.171
X172.857Y-59.011
X172.857Y-69.171
X110.998Y-102.319
X110.998Y-104.859
X110.998Y-107.399
X110.998Y-109.939
T3
X148.804Y-58.871
X148.804Y-62.371
X148.804Y-65.871
X148.804Y-69.371
X105.004Y-100.871
X105.004Y-104.371
X105.004Y-107.871
X105.004Y-111.371
X105.004Y-79.871
X105.004Y-83.371
X105.004Y-86.871
X105.004Y-90.371
X148.804Y-100.871
X148.804Y-104.371
X148.804Y-107.871
X148.804Y-111.371
X105.004Y-37.871
X105.004Y-41.371
X105.004Y-44.871
X105.004Y-48.371
X105.004Y-58.871
X105.004Y-62.371
X105.004Y-65.871
X105.004Y-69.371
X148.804Y-79.871
X148.804Y-83.371
X148.804Y-86.871
X148.804Y-90.371
X148.804Y-37.871
X148.804Y-41.371
X148.804Y-44.871
X148.804Y-48.371
T0
M30
