G04 #@! TF.GenerationSoftware,KiCad,Pcbnew,5.1.5+dfsg1-2build2*
G04 #@! TF.CreationDate,2021-11-16T17:19:03-05:00*
G04 #@! TF.ProjectId,,58585858-5858-4585-9858-585858585858,rev?*
G04 #@! TF.SameCoordinates,Original*
G04 #@! TF.FileFunction,Legend,Bot*
G04 #@! TF.FilePolarity,Positive*
%FSLAX46Y46*%
G04 Gerber Fmt 4.6, Leading zero omitted, Abs format (unit mm)*
G04 Created by KiCad (PCBNEW 5.1.5+dfsg1-2build2) date 2021-11-16 17:19:03*
%MOMM*%
%LPD*%
G04 APERTURE LIST*
%ADD10C,0.150000*%
%ADD11C,0.120000*%
G04 APERTURE END LIST*
D10*
X153651438Y-96120080D02*
X153556200Y-96120080D01*
X153460961Y-96167700D01*
X153413342Y-96215319D01*
X153365723Y-96310557D01*
X153318104Y-96501033D01*
X153318104Y-96739128D01*
X153365723Y-96929604D01*
X153413342Y-97024842D01*
X153460961Y-97072461D01*
X153556200Y-97120080D01*
X153651438Y-97120080D01*
X153746676Y-97072461D01*
X153794295Y-97024842D01*
X153841914Y-96929604D01*
X153889533Y-96739128D01*
X153889533Y-96501033D01*
X153841914Y-96310557D01*
X153794295Y-96215319D01*
X153746676Y-96167700D01*
X153651438Y-96120080D01*
X152984771Y-96120080D02*
X152365723Y-96120080D01*
X152699057Y-96501033D01*
X152556200Y-96501033D01*
X152460961Y-96548652D01*
X152413342Y-96596271D01*
X152365723Y-96691509D01*
X152365723Y-96929604D01*
X152413342Y-97024842D01*
X152460961Y-97072461D01*
X152556200Y-97120080D01*
X152841914Y-97120080D01*
X152937152Y-97072461D01*
X152984771Y-97024842D01*
X151508580Y-96120080D02*
X151699057Y-96120080D01*
X151794295Y-96167700D01*
X151841914Y-96215319D01*
X151937152Y-96358176D01*
X151984771Y-96548652D01*
X151984771Y-96929604D01*
X151937152Y-97024842D01*
X151889533Y-97072461D01*
X151794295Y-97120080D01*
X151603819Y-97120080D01*
X151508580Y-97072461D01*
X151460961Y-97024842D01*
X151413342Y-96929604D01*
X151413342Y-96691509D01*
X151460961Y-96596271D01*
X151508580Y-96548652D01*
X151603819Y-96501033D01*
X151794295Y-96501033D01*
X151889533Y-96548652D01*
X151937152Y-96596271D01*
X151984771Y-96691509D01*
X151222866Y-97215319D02*
X150460961Y-97215319D01*
X149746676Y-96120080D02*
X150222866Y-96120080D01*
X150270485Y-96596271D01*
X150222866Y-96548652D01*
X150127628Y-96501033D01*
X149889533Y-96501033D01*
X149794295Y-96548652D01*
X149746676Y-96596271D01*
X149699057Y-96691509D01*
X149699057Y-96929604D01*
X149746676Y-97024842D01*
X149794295Y-97072461D01*
X149889533Y-97120080D01*
X150127628Y-97120080D01*
X150222866Y-97072461D01*
X150270485Y-97024842D01*
X149270485Y-97120080D02*
X149270485Y-96120080D01*
X149032390Y-96120080D01*
X148889533Y-96167700D01*
X148794295Y-96262938D01*
X148746676Y-96358176D01*
X148699057Y-96548652D01*
X148699057Y-96691509D01*
X148746676Y-96881985D01*
X148794295Y-96977223D01*
X148889533Y-97072461D01*
X149032390Y-97120080D01*
X149270485Y-97120080D01*
X148270485Y-97120080D02*
X148270485Y-96120080D01*
X147270485Y-96167700D02*
X147365723Y-96120080D01*
X147508580Y-96120080D01*
X147651438Y-96167700D01*
X147746676Y-96262938D01*
X147794295Y-96358176D01*
X147841914Y-96548652D01*
X147841914Y-96691509D01*
X147794295Y-96881985D01*
X147746676Y-96977223D01*
X147651438Y-97072461D01*
X147508580Y-97120080D01*
X147413342Y-97120080D01*
X147270485Y-97072461D01*
X147222866Y-97024842D01*
X147222866Y-96691509D01*
X147413342Y-96691509D01*
X109851438Y-96120080D02*
X109756200Y-96120080D01*
X109660961Y-96167700D01*
X109613342Y-96215319D01*
X109565723Y-96310557D01*
X109518104Y-96501033D01*
X109518104Y-96739128D01*
X109565723Y-96929604D01*
X109613342Y-97024842D01*
X109660961Y-97072461D01*
X109756200Y-97120080D01*
X109851438Y-97120080D01*
X109946676Y-97072461D01*
X109994295Y-97024842D01*
X110041914Y-96929604D01*
X110089533Y-96739128D01*
X110089533Y-96501033D01*
X110041914Y-96310557D01*
X109994295Y-96215319D01*
X109946676Y-96167700D01*
X109851438Y-96120080D01*
X109184771Y-96120080D02*
X108565723Y-96120080D01*
X108899057Y-96501033D01*
X108756200Y-96501033D01*
X108660961Y-96548652D01*
X108613342Y-96596271D01*
X108565723Y-96691509D01*
X108565723Y-96929604D01*
X108613342Y-97024842D01*
X108660961Y-97072461D01*
X108756200Y-97120080D01*
X109041914Y-97120080D01*
X109137152Y-97072461D01*
X109184771Y-97024842D01*
X107708580Y-96120080D02*
X107899057Y-96120080D01*
X107994295Y-96167700D01*
X108041914Y-96215319D01*
X108137152Y-96358176D01*
X108184771Y-96548652D01*
X108184771Y-96929604D01*
X108137152Y-97024842D01*
X108089533Y-97072461D01*
X107994295Y-97120080D01*
X107803819Y-97120080D01*
X107708580Y-97072461D01*
X107660961Y-97024842D01*
X107613342Y-96929604D01*
X107613342Y-96691509D01*
X107660961Y-96596271D01*
X107708580Y-96548652D01*
X107803819Y-96501033D01*
X107994295Y-96501033D01*
X108089533Y-96548652D01*
X108137152Y-96596271D01*
X108184771Y-96691509D01*
X107422866Y-97215319D02*
X106660961Y-97215319D01*
X105946676Y-96120080D02*
X106422866Y-96120080D01*
X106470485Y-96596271D01*
X106422866Y-96548652D01*
X106327628Y-96501033D01*
X106089533Y-96501033D01*
X105994295Y-96548652D01*
X105946676Y-96596271D01*
X105899057Y-96691509D01*
X105899057Y-96929604D01*
X105946676Y-97024842D01*
X105994295Y-97072461D01*
X106089533Y-97120080D01*
X106327628Y-97120080D01*
X106422866Y-97072461D01*
X106470485Y-97024842D01*
X105470485Y-97120080D02*
X105470485Y-96120080D01*
X105232390Y-96120080D01*
X105089533Y-96167700D01*
X104994295Y-96262938D01*
X104946676Y-96358176D01*
X104899057Y-96548652D01*
X104899057Y-96691509D01*
X104946676Y-96881985D01*
X104994295Y-96977223D01*
X105089533Y-97072461D01*
X105232390Y-97120080D01*
X105470485Y-97120080D01*
X104470485Y-97120080D02*
X104470485Y-96120080D01*
X103470485Y-96167700D02*
X103565723Y-96120080D01*
X103708580Y-96120080D01*
X103851438Y-96167700D01*
X103946676Y-96262938D01*
X103994295Y-96358176D01*
X104041914Y-96548652D01*
X104041914Y-96691509D01*
X103994295Y-96881985D01*
X103946676Y-96977223D01*
X103851438Y-97072461D01*
X103708580Y-97120080D01*
X103613342Y-97120080D01*
X103470485Y-97072461D01*
X103422866Y-97024842D01*
X103422866Y-96691509D01*
X103613342Y-96691509D01*
X153651438Y-75120080D02*
X153556200Y-75120080D01*
X153460961Y-75167700D01*
X153413342Y-75215319D01*
X153365723Y-75310557D01*
X153318104Y-75501033D01*
X153318104Y-75739128D01*
X153365723Y-75929604D01*
X153413342Y-76024842D01*
X153460961Y-76072461D01*
X153556200Y-76120080D01*
X153651438Y-76120080D01*
X153746676Y-76072461D01*
X153794295Y-76024842D01*
X153841914Y-75929604D01*
X153889533Y-75739128D01*
X153889533Y-75501033D01*
X153841914Y-75310557D01*
X153794295Y-75215319D01*
X153746676Y-75167700D01*
X153651438Y-75120080D01*
X152984771Y-75120080D02*
X152365723Y-75120080D01*
X152699057Y-75501033D01*
X152556200Y-75501033D01*
X152460961Y-75548652D01*
X152413342Y-75596271D01*
X152365723Y-75691509D01*
X152365723Y-75929604D01*
X152413342Y-76024842D01*
X152460961Y-76072461D01*
X152556200Y-76120080D01*
X152841914Y-76120080D01*
X152937152Y-76072461D01*
X152984771Y-76024842D01*
X151508580Y-75120080D02*
X151699057Y-75120080D01*
X151794295Y-75167700D01*
X151841914Y-75215319D01*
X151937152Y-75358176D01*
X151984771Y-75548652D01*
X151984771Y-75929604D01*
X151937152Y-76024842D01*
X151889533Y-76072461D01*
X151794295Y-76120080D01*
X151603819Y-76120080D01*
X151508580Y-76072461D01*
X151460961Y-76024842D01*
X151413342Y-75929604D01*
X151413342Y-75691509D01*
X151460961Y-75596271D01*
X151508580Y-75548652D01*
X151603819Y-75501033D01*
X151794295Y-75501033D01*
X151889533Y-75548652D01*
X151937152Y-75596271D01*
X151984771Y-75691509D01*
X151222866Y-76215319D02*
X150460961Y-76215319D01*
X149746676Y-75120080D02*
X150222866Y-75120080D01*
X150270485Y-75596271D01*
X150222866Y-75548652D01*
X150127628Y-75501033D01*
X149889533Y-75501033D01*
X149794295Y-75548652D01*
X149746676Y-75596271D01*
X149699057Y-75691509D01*
X149699057Y-75929604D01*
X149746676Y-76024842D01*
X149794295Y-76072461D01*
X149889533Y-76120080D01*
X150127628Y-76120080D01*
X150222866Y-76072461D01*
X150270485Y-76024842D01*
X149270485Y-76120080D02*
X149270485Y-75120080D01*
X149032390Y-75120080D01*
X148889533Y-75167700D01*
X148794295Y-75262938D01*
X148746676Y-75358176D01*
X148699057Y-75548652D01*
X148699057Y-75691509D01*
X148746676Y-75881985D01*
X148794295Y-75977223D01*
X148889533Y-76072461D01*
X149032390Y-76120080D01*
X149270485Y-76120080D01*
X148270485Y-76120080D02*
X148270485Y-75120080D01*
X147270485Y-75167700D02*
X147365723Y-75120080D01*
X147508580Y-75120080D01*
X147651438Y-75167700D01*
X147746676Y-75262938D01*
X147794295Y-75358176D01*
X147841914Y-75548652D01*
X147841914Y-75691509D01*
X147794295Y-75881985D01*
X147746676Y-75977223D01*
X147651438Y-76072461D01*
X147508580Y-76120080D01*
X147413342Y-76120080D01*
X147270485Y-76072461D01*
X147222866Y-76024842D01*
X147222866Y-75691509D01*
X147413342Y-75691509D01*
X109851438Y-75120080D02*
X109756200Y-75120080D01*
X109660961Y-75167700D01*
X109613342Y-75215319D01*
X109565723Y-75310557D01*
X109518104Y-75501033D01*
X109518104Y-75739128D01*
X109565723Y-75929604D01*
X109613342Y-76024842D01*
X109660961Y-76072461D01*
X109756200Y-76120080D01*
X109851438Y-76120080D01*
X109946676Y-76072461D01*
X109994295Y-76024842D01*
X110041914Y-75929604D01*
X110089533Y-75739128D01*
X110089533Y-75501033D01*
X110041914Y-75310557D01*
X109994295Y-75215319D01*
X109946676Y-75167700D01*
X109851438Y-75120080D01*
X109184771Y-75120080D02*
X108565723Y-75120080D01*
X108899057Y-75501033D01*
X108756200Y-75501033D01*
X108660961Y-75548652D01*
X108613342Y-75596271D01*
X108565723Y-75691509D01*
X108565723Y-75929604D01*
X108613342Y-76024842D01*
X108660961Y-76072461D01*
X108756200Y-76120080D01*
X109041914Y-76120080D01*
X109137152Y-76072461D01*
X109184771Y-76024842D01*
X107708580Y-75120080D02*
X107899057Y-75120080D01*
X107994295Y-75167700D01*
X108041914Y-75215319D01*
X108137152Y-75358176D01*
X108184771Y-75548652D01*
X108184771Y-75929604D01*
X108137152Y-76024842D01*
X108089533Y-76072461D01*
X107994295Y-76120080D01*
X107803819Y-76120080D01*
X107708580Y-76072461D01*
X107660961Y-76024842D01*
X107613342Y-75929604D01*
X107613342Y-75691509D01*
X107660961Y-75596271D01*
X107708580Y-75548652D01*
X107803819Y-75501033D01*
X107994295Y-75501033D01*
X108089533Y-75548652D01*
X108137152Y-75596271D01*
X108184771Y-75691509D01*
X107422866Y-76215319D02*
X106660961Y-76215319D01*
X105946676Y-75120080D02*
X106422866Y-75120080D01*
X106470485Y-75596271D01*
X106422866Y-75548652D01*
X106327628Y-75501033D01*
X106089533Y-75501033D01*
X105994295Y-75548652D01*
X105946676Y-75596271D01*
X105899057Y-75691509D01*
X105899057Y-75929604D01*
X105946676Y-76024842D01*
X105994295Y-76072461D01*
X106089533Y-76120080D01*
X106327628Y-76120080D01*
X106422866Y-76072461D01*
X106470485Y-76024842D01*
X105470485Y-76120080D02*
X105470485Y-75120080D01*
X105232390Y-75120080D01*
X105089533Y-75167700D01*
X104994295Y-75262938D01*
X104946676Y-75358176D01*
X104899057Y-75548652D01*
X104899057Y-75691509D01*
X104946676Y-75881985D01*
X104994295Y-75977223D01*
X105089533Y-76072461D01*
X105232390Y-76120080D01*
X105470485Y-76120080D01*
X104470485Y-76120080D02*
X104470485Y-75120080D01*
X103470485Y-75167700D02*
X103565723Y-75120080D01*
X103708580Y-75120080D01*
X103851438Y-75167700D01*
X103946676Y-75262938D01*
X103994295Y-75358176D01*
X104041914Y-75548652D01*
X104041914Y-75691509D01*
X103994295Y-75881985D01*
X103946676Y-75977223D01*
X103851438Y-76072461D01*
X103708580Y-76120080D01*
X103613342Y-76120080D01*
X103470485Y-76072461D01*
X103422866Y-76024842D01*
X103422866Y-75691509D01*
X103613342Y-75691509D01*
X153651438Y-54120080D02*
X153556200Y-54120080D01*
X153460961Y-54167700D01*
X153413342Y-54215319D01*
X153365723Y-54310557D01*
X153318104Y-54501033D01*
X153318104Y-54739128D01*
X153365723Y-54929604D01*
X153413342Y-55024842D01*
X153460961Y-55072461D01*
X153556200Y-55120080D01*
X153651438Y-55120080D01*
X153746676Y-55072461D01*
X153794295Y-55024842D01*
X153841914Y-54929604D01*
X153889533Y-54739128D01*
X153889533Y-54501033D01*
X153841914Y-54310557D01*
X153794295Y-54215319D01*
X153746676Y-54167700D01*
X153651438Y-54120080D01*
X152984771Y-54120080D02*
X152365723Y-54120080D01*
X152699057Y-54501033D01*
X152556200Y-54501033D01*
X152460961Y-54548652D01*
X152413342Y-54596271D01*
X152365723Y-54691509D01*
X152365723Y-54929604D01*
X152413342Y-55024842D01*
X152460961Y-55072461D01*
X152556200Y-55120080D01*
X152841914Y-55120080D01*
X152937152Y-55072461D01*
X152984771Y-55024842D01*
X151508580Y-54120080D02*
X151699057Y-54120080D01*
X151794295Y-54167700D01*
X151841914Y-54215319D01*
X151937152Y-54358176D01*
X151984771Y-54548652D01*
X151984771Y-54929604D01*
X151937152Y-55024842D01*
X151889533Y-55072461D01*
X151794295Y-55120080D01*
X151603819Y-55120080D01*
X151508580Y-55072461D01*
X151460961Y-55024842D01*
X151413342Y-54929604D01*
X151413342Y-54691509D01*
X151460961Y-54596271D01*
X151508580Y-54548652D01*
X151603819Y-54501033D01*
X151794295Y-54501033D01*
X151889533Y-54548652D01*
X151937152Y-54596271D01*
X151984771Y-54691509D01*
X151222866Y-55215319D02*
X150460961Y-55215319D01*
X149746676Y-54120080D02*
X150222866Y-54120080D01*
X150270485Y-54596271D01*
X150222866Y-54548652D01*
X150127628Y-54501033D01*
X149889533Y-54501033D01*
X149794295Y-54548652D01*
X149746676Y-54596271D01*
X149699057Y-54691509D01*
X149699057Y-54929604D01*
X149746676Y-55024842D01*
X149794295Y-55072461D01*
X149889533Y-55120080D01*
X150127628Y-55120080D01*
X150222866Y-55072461D01*
X150270485Y-55024842D01*
X149270485Y-55120080D02*
X149270485Y-54120080D01*
X149032390Y-54120080D01*
X148889533Y-54167700D01*
X148794295Y-54262938D01*
X148746676Y-54358176D01*
X148699057Y-54548652D01*
X148699057Y-54691509D01*
X148746676Y-54881985D01*
X148794295Y-54977223D01*
X148889533Y-55072461D01*
X149032390Y-55120080D01*
X149270485Y-55120080D01*
X148270485Y-55120080D02*
X148270485Y-54120080D01*
X147270485Y-54167700D02*
X147365723Y-54120080D01*
X147508580Y-54120080D01*
X147651438Y-54167700D01*
X147746676Y-54262938D01*
X147794295Y-54358176D01*
X147841914Y-54548652D01*
X147841914Y-54691509D01*
X147794295Y-54881985D01*
X147746676Y-54977223D01*
X147651438Y-55072461D01*
X147508580Y-55120080D01*
X147413342Y-55120080D01*
X147270485Y-55072461D01*
X147222866Y-55024842D01*
X147222866Y-54691509D01*
X147413342Y-54691509D01*
X109851438Y-54120080D02*
X109756200Y-54120080D01*
X109660961Y-54167700D01*
X109613342Y-54215319D01*
X109565723Y-54310557D01*
X109518104Y-54501033D01*
X109518104Y-54739128D01*
X109565723Y-54929604D01*
X109613342Y-55024842D01*
X109660961Y-55072461D01*
X109756200Y-55120080D01*
X109851438Y-55120080D01*
X109946676Y-55072461D01*
X109994295Y-55024842D01*
X110041914Y-54929604D01*
X110089533Y-54739128D01*
X110089533Y-54501033D01*
X110041914Y-54310557D01*
X109994295Y-54215319D01*
X109946676Y-54167700D01*
X109851438Y-54120080D01*
X109184771Y-54120080D02*
X108565723Y-54120080D01*
X108899057Y-54501033D01*
X108756200Y-54501033D01*
X108660961Y-54548652D01*
X108613342Y-54596271D01*
X108565723Y-54691509D01*
X108565723Y-54929604D01*
X108613342Y-55024842D01*
X108660961Y-55072461D01*
X108756200Y-55120080D01*
X109041914Y-55120080D01*
X109137152Y-55072461D01*
X109184771Y-55024842D01*
X107708580Y-54120080D02*
X107899057Y-54120080D01*
X107994295Y-54167700D01*
X108041914Y-54215319D01*
X108137152Y-54358176D01*
X108184771Y-54548652D01*
X108184771Y-54929604D01*
X108137152Y-55024842D01*
X108089533Y-55072461D01*
X107994295Y-55120080D01*
X107803819Y-55120080D01*
X107708580Y-55072461D01*
X107660961Y-55024842D01*
X107613342Y-54929604D01*
X107613342Y-54691509D01*
X107660961Y-54596271D01*
X107708580Y-54548652D01*
X107803819Y-54501033D01*
X107994295Y-54501033D01*
X108089533Y-54548652D01*
X108137152Y-54596271D01*
X108184771Y-54691509D01*
X107422866Y-55215319D02*
X106660961Y-55215319D01*
X105946676Y-54120080D02*
X106422866Y-54120080D01*
X106470485Y-54596271D01*
X106422866Y-54548652D01*
X106327628Y-54501033D01*
X106089533Y-54501033D01*
X105994295Y-54548652D01*
X105946676Y-54596271D01*
X105899057Y-54691509D01*
X105899057Y-54929604D01*
X105946676Y-55024842D01*
X105994295Y-55072461D01*
X106089533Y-55120080D01*
X106327628Y-55120080D01*
X106422866Y-55072461D01*
X106470485Y-55024842D01*
X105470485Y-55120080D02*
X105470485Y-54120080D01*
X105232390Y-54120080D01*
X105089533Y-54167700D01*
X104994295Y-54262938D01*
X104946676Y-54358176D01*
X104899057Y-54548652D01*
X104899057Y-54691509D01*
X104946676Y-54881985D01*
X104994295Y-54977223D01*
X105089533Y-55072461D01*
X105232390Y-55120080D01*
X105470485Y-55120080D01*
X104470485Y-55120080D02*
X104470485Y-54120080D01*
X103470485Y-54167700D02*
X103565723Y-54120080D01*
X103708580Y-54120080D01*
X103851438Y-54167700D01*
X103946676Y-54262938D01*
X103994295Y-54358176D01*
X104041914Y-54548652D01*
X104041914Y-54691509D01*
X103994295Y-54881985D01*
X103946676Y-54977223D01*
X103851438Y-55072461D01*
X103708580Y-55120080D01*
X103613342Y-55120080D01*
X103470485Y-55072461D01*
X103422866Y-55024842D01*
X103422866Y-54691509D01*
X103613342Y-54691509D01*
X153651438Y-33120080D02*
X153556200Y-33120080D01*
X153460961Y-33167700D01*
X153413342Y-33215319D01*
X153365723Y-33310557D01*
X153318104Y-33501033D01*
X153318104Y-33739128D01*
X153365723Y-33929604D01*
X153413342Y-34024842D01*
X153460961Y-34072461D01*
X153556200Y-34120080D01*
X153651438Y-34120080D01*
X153746676Y-34072461D01*
X153794295Y-34024842D01*
X153841914Y-33929604D01*
X153889533Y-33739128D01*
X153889533Y-33501033D01*
X153841914Y-33310557D01*
X153794295Y-33215319D01*
X153746676Y-33167700D01*
X153651438Y-33120080D01*
X152984771Y-33120080D02*
X152365723Y-33120080D01*
X152699057Y-33501033D01*
X152556200Y-33501033D01*
X152460961Y-33548652D01*
X152413342Y-33596271D01*
X152365723Y-33691509D01*
X152365723Y-33929604D01*
X152413342Y-34024842D01*
X152460961Y-34072461D01*
X152556200Y-34120080D01*
X152841914Y-34120080D01*
X152937152Y-34072461D01*
X152984771Y-34024842D01*
X151508580Y-33120080D02*
X151699057Y-33120080D01*
X151794295Y-33167700D01*
X151841914Y-33215319D01*
X151937152Y-33358176D01*
X151984771Y-33548652D01*
X151984771Y-33929604D01*
X151937152Y-34024842D01*
X151889533Y-34072461D01*
X151794295Y-34120080D01*
X151603819Y-34120080D01*
X151508580Y-34072461D01*
X151460961Y-34024842D01*
X151413342Y-33929604D01*
X151413342Y-33691509D01*
X151460961Y-33596271D01*
X151508580Y-33548652D01*
X151603819Y-33501033D01*
X151794295Y-33501033D01*
X151889533Y-33548652D01*
X151937152Y-33596271D01*
X151984771Y-33691509D01*
X151222866Y-34215319D02*
X150460961Y-34215319D01*
X149746676Y-33120080D02*
X150222866Y-33120080D01*
X150270485Y-33596271D01*
X150222866Y-33548652D01*
X150127628Y-33501033D01*
X149889533Y-33501033D01*
X149794295Y-33548652D01*
X149746676Y-33596271D01*
X149699057Y-33691509D01*
X149699057Y-33929604D01*
X149746676Y-34024842D01*
X149794295Y-34072461D01*
X149889533Y-34120080D01*
X150127628Y-34120080D01*
X150222866Y-34072461D01*
X150270485Y-34024842D01*
X149270485Y-34120080D02*
X149270485Y-33120080D01*
X149032390Y-33120080D01*
X148889533Y-33167700D01*
X148794295Y-33262938D01*
X148746676Y-33358176D01*
X148699057Y-33548652D01*
X148699057Y-33691509D01*
X148746676Y-33881985D01*
X148794295Y-33977223D01*
X148889533Y-34072461D01*
X149032390Y-34120080D01*
X149270485Y-34120080D01*
X148270485Y-34120080D02*
X148270485Y-33120080D01*
X147270485Y-33167700D02*
X147365723Y-33120080D01*
X147508580Y-33120080D01*
X147651438Y-33167700D01*
X147746676Y-33262938D01*
X147794295Y-33358176D01*
X147841914Y-33548652D01*
X147841914Y-33691509D01*
X147794295Y-33881985D01*
X147746676Y-33977223D01*
X147651438Y-34072461D01*
X147508580Y-34120080D01*
X147413342Y-34120080D01*
X147270485Y-34072461D01*
X147222866Y-34024842D01*
X147222866Y-33691509D01*
X147413342Y-33691509D01*
X157242742Y-102789528D02*
X157242742Y-103399052D01*
X157547504Y-103094290D02*
X156937980Y-103094290D01*
X157471314Y-105456195D02*
X157509409Y-105418100D01*
X157547504Y-105303814D01*
X157547504Y-105227623D01*
X157509409Y-105113338D01*
X157433219Y-105037147D01*
X157357028Y-104999052D01*
X157204647Y-104960957D01*
X157090361Y-104960957D01*
X156937980Y-104999052D01*
X156861790Y-105037147D01*
X156785600Y-105113338D01*
X156747504Y-105227623D01*
X156747504Y-105303814D01*
X156785600Y-105418100D01*
X156823695Y-105456195D01*
X157547504Y-107018100D02*
X156747504Y-107018100D01*
X156747504Y-107208576D01*
X156785600Y-107322861D01*
X156861790Y-107399052D01*
X156937980Y-107437147D01*
X157090361Y-107475242D01*
X157204647Y-107475242D01*
X157357028Y-107437147D01*
X157433219Y-107399052D01*
X157509409Y-107322861D01*
X157547504Y-107208576D01*
X157547504Y-107018100D01*
X157242742Y-109037147D02*
X157242742Y-109646671D01*
X113442742Y-102789528D02*
X113442742Y-103399052D01*
X113747504Y-103094290D02*
X113137980Y-103094290D01*
X113671314Y-105456195D02*
X113709409Y-105418100D01*
X113747504Y-105303814D01*
X113747504Y-105227623D01*
X113709409Y-105113338D01*
X113633219Y-105037147D01*
X113557028Y-104999052D01*
X113404647Y-104960957D01*
X113290361Y-104960957D01*
X113137980Y-104999052D01*
X113061790Y-105037147D01*
X112985600Y-105113338D01*
X112947504Y-105227623D01*
X112947504Y-105303814D01*
X112985600Y-105418100D01*
X113023695Y-105456195D01*
X113747504Y-107018100D02*
X112947504Y-107018100D01*
X112947504Y-107208576D01*
X112985600Y-107322861D01*
X113061790Y-107399052D01*
X113137980Y-107437147D01*
X113290361Y-107475242D01*
X113404647Y-107475242D01*
X113557028Y-107437147D01*
X113633219Y-107399052D01*
X113709409Y-107322861D01*
X113747504Y-107208576D01*
X113747504Y-107018100D01*
X113442742Y-109037147D02*
X113442742Y-109646671D01*
X157242742Y-81789528D02*
X157242742Y-82399052D01*
X157547504Y-82094290D02*
X156937980Y-82094290D01*
X157471314Y-84456195D02*
X157509409Y-84418100D01*
X157547504Y-84303814D01*
X157547504Y-84227623D01*
X157509409Y-84113338D01*
X157433219Y-84037147D01*
X157357028Y-83999052D01*
X157204647Y-83960957D01*
X157090361Y-83960957D01*
X156937980Y-83999052D01*
X156861790Y-84037147D01*
X156785600Y-84113338D01*
X156747504Y-84227623D01*
X156747504Y-84303814D01*
X156785600Y-84418100D01*
X156823695Y-84456195D01*
X157547504Y-86018100D02*
X156747504Y-86018100D01*
X156747504Y-86208576D01*
X156785600Y-86322861D01*
X156861790Y-86399052D01*
X156937980Y-86437147D01*
X157090361Y-86475242D01*
X157204647Y-86475242D01*
X157357028Y-86437147D01*
X157433219Y-86399052D01*
X157509409Y-86322861D01*
X157547504Y-86208576D01*
X157547504Y-86018100D01*
X157242742Y-88037147D02*
X157242742Y-88646671D01*
X113442742Y-81789528D02*
X113442742Y-82399052D01*
X113747504Y-82094290D02*
X113137980Y-82094290D01*
X113671314Y-84456195D02*
X113709409Y-84418100D01*
X113747504Y-84303814D01*
X113747504Y-84227623D01*
X113709409Y-84113338D01*
X113633219Y-84037147D01*
X113557028Y-83999052D01*
X113404647Y-83960957D01*
X113290361Y-83960957D01*
X113137980Y-83999052D01*
X113061790Y-84037147D01*
X112985600Y-84113338D01*
X112947504Y-84227623D01*
X112947504Y-84303814D01*
X112985600Y-84418100D01*
X113023695Y-84456195D01*
X113747504Y-86018100D02*
X112947504Y-86018100D01*
X112947504Y-86208576D01*
X112985600Y-86322861D01*
X113061790Y-86399052D01*
X113137980Y-86437147D01*
X113290361Y-86475242D01*
X113404647Y-86475242D01*
X113557028Y-86437147D01*
X113633219Y-86399052D01*
X113709409Y-86322861D01*
X113747504Y-86208576D01*
X113747504Y-86018100D01*
X113442742Y-88037147D02*
X113442742Y-88646671D01*
X157242742Y-60789528D02*
X157242742Y-61399052D01*
X157547504Y-61094290D02*
X156937980Y-61094290D01*
X157471314Y-63456195D02*
X157509409Y-63418100D01*
X157547504Y-63303814D01*
X157547504Y-63227623D01*
X157509409Y-63113338D01*
X157433219Y-63037147D01*
X157357028Y-62999052D01*
X157204647Y-62960957D01*
X157090361Y-62960957D01*
X156937980Y-62999052D01*
X156861790Y-63037147D01*
X156785600Y-63113338D01*
X156747504Y-63227623D01*
X156747504Y-63303814D01*
X156785600Y-63418100D01*
X156823695Y-63456195D01*
X157547504Y-65018100D02*
X156747504Y-65018100D01*
X156747504Y-65208576D01*
X156785600Y-65322861D01*
X156861790Y-65399052D01*
X156937980Y-65437147D01*
X157090361Y-65475242D01*
X157204647Y-65475242D01*
X157357028Y-65437147D01*
X157433219Y-65399052D01*
X157509409Y-65322861D01*
X157547504Y-65208576D01*
X157547504Y-65018100D01*
X157242742Y-67037147D02*
X157242742Y-67646671D01*
X113442742Y-60789528D02*
X113442742Y-61399052D01*
X113747504Y-61094290D02*
X113137980Y-61094290D01*
X113671314Y-63456195D02*
X113709409Y-63418100D01*
X113747504Y-63303814D01*
X113747504Y-63227623D01*
X113709409Y-63113338D01*
X113633219Y-63037147D01*
X113557028Y-62999052D01*
X113404647Y-62960957D01*
X113290361Y-62960957D01*
X113137980Y-62999052D01*
X113061790Y-63037147D01*
X112985600Y-63113338D01*
X112947504Y-63227623D01*
X112947504Y-63303814D01*
X112985600Y-63418100D01*
X113023695Y-63456195D01*
X113747504Y-65018100D02*
X112947504Y-65018100D01*
X112947504Y-65208576D01*
X112985600Y-65322861D01*
X113061790Y-65399052D01*
X113137980Y-65437147D01*
X113290361Y-65475242D01*
X113404647Y-65475242D01*
X113557028Y-65437147D01*
X113633219Y-65399052D01*
X113709409Y-65322861D01*
X113747504Y-65208576D01*
X113747504Y-65018100D01*
X113442742Y-67037147D02*
X113442742Y-67646671D01*
X157242742Y-39789528D02*
X157242742Y-40399052D01*
X157547504Y-40094290D02*
X156937980Y-40094290D01*
X157471314Y-42456195D02*
X157509409Y-42418100D01*
X157547504Y-42303814D01*
X157547504Y-42227623D01*
X157509409Y-42113338D01*
X157433219Y-42037147D01*
X157357028Y-41999052D01*
X157204647Y-41960957D01*
X157090361Y-41960957D01*
X156937980Y-41999052D01*
X156861790Y-42037147D01*
X156785600Y-42113338D01*
X156747504Y-42227623D01*
X156747504Y-42303814D01*
X156785600Y-42418100D01*
X156823695Y-42456195D01*
X157547504Y-44018100D02*
X156747504Y-44018100D01*
X156747504Y-44208576D01*
X156785600Y-44322861D01*
X156861790Y-44399052D01*
X156937980Y-44437147D01*
X157090361Y-44475242D01*
X157204647Y-44475242D01*
X157357028Y-44437147D01*
X157433219Y-44399052D01*
X157509409Y-44322861D01*
X157547504Y-44208576D01*
X157547504Y-44018100D01*
X157242742Y-46037147D02*
X157242742Y-46646671D01*
X109851438Y-33120080D02*
X109756200Y-33120080D01*
X109660961Y-33167700D01*
X109613342Y-33215319D01*
X109565723Y-33310557D01*
X109518104Y-33501033D01*
X109518104Y-33739128D01*
X109565723Y-33929604D01*
X109613342Y-34024842D01*
X109660961Y-34072461D01*
X109756200Y-34120080D01*
X109851438Y-34120080D01*
X109946676Y-34072461D01*
X109994295Y-34024842D01*
X110041914Y-33929604D01*
X110089533Y-33739128D01*
X110089533Y-33501033D01*
X110041914Y-33310557D01*
X109994295Y-33215319D01*
X109946676Y-33167700D01*
X109851438Y-33120080D01*
X109184771Y-33120080D02*
X108565723Y-33120080D01*
X108899057Y-33501033D01*
X108756200Y-33501033D01*
X108660961Y-33548652D01*
X108613342Y-33596271D01*
X108565723Y-33691509D01*
X108565723Y-33929604D01*
X108613342Y-34024842D01*
X108660961Y-34072461D01*
X108756200Y-34120080D01*
X109041914Y-34120080D01*
X109137152Y-34072461D01*
X109184771Y-34024842D01*
X107708580Y-33120080D02*
X107899057Y-33120080D01*
X107994295Y-33167700D01*
X108041914Y-33215319D01*
X108137152Y-33358176D01*
X108184771Y-33548652D01*
X108184771Y-33929604D01*
X108137152Y-34024842D01*
X108089533Y-34072461D01*
X107994295Y-34120080D01*
X107803819Y-34120080D01*
X107708580Y-34072461D01*
X107660961Y-34024842D01*
X107613342Y-33929604D01*
X107613342Y-33691509D01*
X107660961Y-33596271D01*
X107708580Y-33548652D01*
X107803819Y-33501033D01*
X107994295Y-33501033D01*
X108089533Y-33548652D01*
X108137152Y-33596271D01*
X108184771Y-33691509D01*
X107422866Y-34215319D02*
X106660961Y-34215319D01*
X105946676Y-33120080D02*
X106422866Y-33120080D01*
X106470485Y-33596271D01*
X106422866Y-33548652D01*
X106327628Y-33501033D01*
X106089533Y-33501033D01*
X105994295Y-33548652D01*
X105946676Y-33596271D01*
X105899057Y-33691509D01*
X105899057Y-33929604D01*
X105946676Y-34024842D01*
X105994295Y-34072461D01*
X106089533Y-34120080D01*
X106327628Y-34120080D01*
X106422866Y-34072461D01*
X106470485Y-34024842D01*
X105470485Y-34120080D02*
X105470485Y-33120080D01*
X105232390Y-33120080D01*
X105089533Y-33167700D01*
X104994295Y-33262938D01*
X104946676Y-33358176D01*
X104899057Y-33548652D01*
X104899057Y-33691509D01*
X104946676Y-33881985D01*
X104994295Y-33977223D01*
X105089533Y-34072461D01*
X105232390Y-34120080D01*
X105470485Y-34120080D01*
X104470485Y-34120080D02*
X104470485Y-33120080D01*
X103470485Y-33167700D02*
X103565723Y-33120080D01*
X103708580Y-33120080D01*
X103851438Y-33167700D01*
X103946676Y-33262938D01*
X103994295Y-33358176D01*
X104041914Y-33548652D01*
X104041914Y-33691509D01*
X103994295Y-33881985D01*
X103946676Y-33977223D01*
X103851438Y-34072461D01*
X103708580Y-34120080D01*
X103613342Y-34120080D01*
X103470485Y-34072461D01*
X103422866Y-34024842D01*
X103422866Y-33691509D01*
X103613342Y-33691509D01*
X113442742Y-39789528D02*
X113442742Y-40399052D01*
X113747504Y-40094290D02*
X113137980Y-40094290D01*
X113671314Y-42456195D02*
X113709409Y-42418100D01*
X113747504Y-42303814D01*
X113747504Y-42227623D01*
X113709409Y-42113338D01*
X113633219Y-42037147D01*
X113557028Y-41999052D01*
X113404647Y-41960957D01*
X113290361Y-41960957D01*
X113137980Y-41999052D01*
X113061790Y-42037147D01*
X112985600Y-42113338D01*
X112947504Y-42227623D01*
X112947504Y-42303814D01*
X112985600Y-42418100D01*
X113023695Y-42456195D01*
X113747504Y-44018100D02*
X112947504Y-44018100D01*
X112947504Y-44208576D01*
X112985600Y-44322861D01*
X113061790Y-44399052D01*
X113137980Y-44437147D01*
X113290361Y-44475242D01*
X113404647Y-44475242D01*
X113557028Y-44437147D01*
X113633219Y-44399052D01*
X113709409Y-44322861D01*
X113747504Y-44208576D01*
X113747504Y-44018100D01*
X113442742Y-46037147D02*
X113442742Y-46646671D01*
D11*
X182389652Y-113699600D02*
X181867148Y-113699600D01*
X182389652Y-115119600D02*
X181867148Y-115119600D01*
X138589652Y-113699600D02*
X138067148Y-113699600D01*
X138589652Y-115119600D02*
X138067148Y-115119600D01*
X182389652Y-92699600D02*
X181867148Y-92699600D01*
X182389652Y-94119600D02*
X181867148Y-94119600D01*
X138589652Y-92699600D02*
X138067148Y-92699600D01*
X138589652Y-94119600D02*
X138067148Y-94119600D01*
X182389652Y-71699600D02*
X181867148Y-71699600D01*
X182389652Y-73119600D02*
X181867148Y-73119600D01*
X138589652Y-71699600D02*
X138067148Y-71699600D01*
X138589652Y-73119600D02*
X138067148Y-73119600D01*
X182389652Y-50699600D02*
X181867148Y-50699600D01*
X182389652Y-52119600D02*
X181867148Y-52119600D01*
X150234985Y-101478987D02*
G75*
G03X150358600Y-100871400I-1431385J607587D01*
G01*
X148195858Y-102303509D02*
G75*
G03X149411600Y-102303400I607742J1432109D01*
G01*
X147371491Y-100263658D02*
G75*
G03X147371600Y-101479400I1432109J-607742D01*
G01*
X149411342Y-99439291D02*
G75*
G03X148195600Y-99439400I-607742J-1432109D01*
G01*
X150359092Y-100898411D02*
G75*
G03X150235600Y-100263400I-1555492J27011D01*
G01*
X150358600Y-104371400D02*
G75*
G03X150358600Y-104371400I-1555000J0D01*
G01*
X150358600Y-107871400D02*
G75*
G03X150358600Y-107871400I-1555000J0D01*
G01*
X150358600Y-111371400D02*
G75*
G03X150358600Y-111371400I-1555000J0D01*
G01*
X150903600Y-98711400D02*
X150903600Y-113531400D01*
X145343600Y-98711400D02*
X145343600Y-113531400D01*
X152463600Y-98711400D02*
X152463600Y-113531400D01*
X145343600Y-98711400D02*
X152463600Y-98711400D01*
X145343600Y-113531400D02*
X152463600Y-113531400D01*
X150963600Y-98471400D02*
X152703600Y-98471400D01*
X152703600Y-98471400D02*
X152703600Y-99971400D01*
X106434985Y-101478987D02*
G75*
G03X106558600Y-100871400I-1431385J607587D01*
G01*
X104395858Y-102303509D02*
G75*
G03X105611600Y-102303400I607742J1432109D01*
G01*
X103571491Y-100263658D02*
G75*
G03X103571600Y-101479400I1432109J-607742D01*
G01*
X105611342Y-99439291D02*
G75*
G03X104395600Y-99439400I-607742J-1432109D01*
G01*
X106559092Y-100898411D02*
G75*
G03X106435600Y-100263400I-1555492J27011D01*
G01*
X106558600Y-104371400D02*
G75*
G03X106558600Y-104371400I-1555000J0D01*
G01*
X106558600Y-107871400D02*
G75*
G03X106558600Y-107871400I-1555000J0D01*
G01*
X106558600Y-111371400D02*
G75*
G03X106558600Y-111371400I-1555000J0D01*
G01*
X107103600Y-98711400D02*
X107103600Y-113531400D01*
X101543600Y-98711400D02*
X101543600Y-113531400D01*
X108663600Y-98711400D02*
X108663600Y-113531400D01*
X101543600Y-98711400D02*
X108663600Y-98711400D01*
X101543600Y-113531400D02*
X108663600Y-113531400D01*
X107163600Y-98471400D02*
X108903600Y-98471400D01*
X108903600Y-98471400D02*
X108903600Y-99971400D01*
X150234985Y-80478987D02*
G75*
G03X150358600Y-79871400I-1431385J607587D01*
G01*
X148195858Y-81303509D02*
G75*
G03X149411600Y-81303400I607742J1432109D01*
G01*
X147371491Y-79263658D02*
G75*
G03X147371600Y-80479400I1432109J-607742D01*
G01*
X149411342Y-78439291D02*
G75*
G03X148195600Y-78439400I-607742J-1432109D01*
G01*
X150359092Y-79898411D02*
G75*
G03X150235600Y-79263400I-1555492J27011D01*
G01*
X150358600Y-83371400D02*
G75*
G03X150358600Y-83371400I-1555000J0D01*
G01*
X150358600Y-86871400D02*
G75*
G03X150358600Y-86871400I-1555000J0D01*
G01*
X150358600Y-90371400D02*
G75*
G03X150358600Y-90371400I-1555000J0D01*
G01*
X150903600Y-77711400D02*
X150903600Y-92531400D01*
X145343600Y-77711400D02*
X145343600Y-92531400D01*
X152463600Y-77711400D02*
X152463600Y-92531400D01*
X145343600Y-77711400D02*
X152463600Y-77711400D01*
X145343600Y-92531400D02*
X152463600Y-92531400D01*
X150963600Y-77471400D02*
X152703600Y-77471400D01*
X152703600Y-77471400D02*
X152703600Y-78971400D01*
X106434985Y-80478987D02*
G75*
G03X106558600Y-79871400I-1431385J607587D01*
G01*
X104395858Y-81303509D02*
G75*
G03X105611600Y-81303400I607742J1432109D01*
G01*
X103571491Y-79263658D02*
G75*
G03X103571600Y-80479400I1432109J-607742D01*
G01*
X105611342Y-78439291D02*
G75*
G03X104395600Y-78439400I-607742J-1432109D01*
G01*
X106559092Y-79898411D02*
G75*
G03X106435600Y-79263400I-1555492J27011D01*
G01*
X106558600Y-83371400D02*
G75*
G03X106558600Y-83371400I-1555000J0D01*
G01*
X106558600Y-86871400D02*
G75*
G03X106558600Y-86871400I-1555000J0D01*
G01*
X106558600Y-90371400D02*
G75*
G03X106558600Y-90371400I-1555000J0D01*
G01*
X107103600Y-77711400D02*
X107103600Y-92531400D01*
X101543600Y-77711400D02*
X101543600Y-92531400D01*
X108663600Y-77711400D02*
X108663600Y-92531400D01*
X101543600Y-77711400D02*
X108663600Y-77711400D01*
X101543600Y-92531400D02*
X108663600Y-92531400D01*
X107163600Y-77471400D02*
X108903600Y-77471400D01*
X108903600Y-77471400D02*
X108903600Y-78971400D01*
X150234985Y-59478987D02*
G75*
G03X150358600Y-58871400I-1431385J607587D01*
G01*
X148195858Y-60303509D02*
G75*
G03X149411600Y-60303400I607742J1432109D01*
G01*
X147371491Y-58263658D02*
G75*
G03X147371600Y-59479400I1432109J-607742D01*
G01*
X149411342Y-57439291D02*
G75*
G03X148195600Y-57439400I-607742J-1432109D01*
G01*
X150359092Y-58898411D02*
G75*
G03X150235600Y-58263400I-1555492J27011D01*
G01*
X150358600Y-62371400D02*
G75*
G03X150358600Y-62371400I-1555000J0D01*
G01*
X150358600Y-65871400D02*
G75*
G03X150358600Y-65871400I-1555000J0D01*
G01*
X150358600Y-69371400D02*
G75*
G03X150358600Y-69371400I-1555000J0D01*
G01*
X150903600Y-56711400D02*
X150903600Y-71531400D01*
X145343600Y-56711400D02*
X145343600Y-71531400D01*
X152463600Y-56711400D02*
X152463600Y-71531400D01*
X145343600Y-56711400D02*
X152463600Y-56711400D01*
X145343600Y-71531400D02*
X152463600Y-71531400D01*
X150963600Y-56471400D02*
X152703600Y-56471400D01*
X152703600Y-56471400D02*
X152703600Y-57971400D01*
X106434985Y-59478987D02*
G75*
G03X106558600Y-58871400I-1431385J607587D01*
G01*
X104395858Y-60303509D02*
G75*
G03X105611600Y-60303400I607742J1432109D01*
G01*
X103571491Y-58263658D02*
G75*
G03X103571600Y-59479400I1432109J-607742D01*
G01*
X105611342Y-57439291D02*
G75*
G03X104395600Y-57439400I-607742J-1432109D01*
G01*
X106559092Y-58898411D02*
G75*
G03X106435600Y-58263400I-1555492J27011D01*
G01*
X106558600Y-62371400D02*
G75*
G03X106558600Y-62371400I-1555000J0D01*
G01*
X106558600Y-65871400D02*
G75*
G03X106558600Y-65871400I-1555000J0D01*
G01*
X106558600Y-69371400D02*
G75*
G03X106558600Y-69371400I-1555000J0D01*
G01*
X107103600Y-56711400D02*
X107103600Y-71531400D01*
X101543600Y-56711400D02*
X101543600Y-71531400D01*
X108663600Y-56711400D02*
X108663600Y-71531400D01*
X101543600Y-56711400D02*
X108663600Y-56711400D01*
X101543600Y-71531400D02*
X108663600Y-71531400D01*
X107163600Y-56471400D02*
X108903600Y-56471400D01*
X108903600Y-56471400D02*
X108903600Y-57971400D01*
X150234985Y-38478987D02*
G75*
G03X150358600Y-37871400I-1431385J607587D01*
G01*
X148195858Y-39303509D02*
G75*
G03X149411600Y-39303400I607742J1432109D01*
G01*
X147371491Y-37263658D02*
G75*
G03X147371600Y-38479400I1432109J-607742D01*
G01*
X149411342Y-36439291D02*
G75*
G03X148195600Y-36439400I-607742J-1432109D01*
G01*
X150359092Y-37898411D02*
G75*
G03X150235600Y-37263400I-1555492J27011D01*
G01*
X150358600Y-41371400D02*
G75*
G03X150358600Y-41371400I-1555000J0D01*
G01*
X150358600Y-44871400D02*
G75*
G03X150358600Y-44871400I-1555000J0D01*
G01*
X150358600Y-48371400D02*
G75*
G03X150358600Y-48371400I-1555000J0D01*
G01*
X150903600Y-35711400D02*
X150903600Y-50531400D01*
X145343600Y-35711400D02*
X145343600Y-50531400D01*
X152463600Y-35711400D02*
X152463600Y-50531400D01*
X145343600Y-35711400D02*
X152463600Y-35711400D01*
X145343600Y-50531400D02*
X152463600Y-50531400D01*
X150963600Y-35471400D02*
X152703600Y-35471400D01*
X152703600Y-35471400D02*
X152703600Y-36971400D01*
X176842400Y-99535700D02*
X182842400Y-99535700D01*
X174842400Y-112595700D02*
X179842400Y-112595700D01*
X133042400Y-99535700D02*
X139042400Y-99535700D01*
X131042400Y-112595700D02*
X136042400Y-112595700D01*
X176842400Y-78535700D02*
X182842400Y-78535700D01*
X174842400Y-91595700D02*
X179842400Y-91595700D01*
X133042400Y-78535700D02*
X139042400Y-78535700D01*
X131042400Y-91595700D02*
X136042400Y-91595700D01*
X176842400Y-57535700D02*
X182842400Y-57535700D01*
X174842400Y-70595700D02*
X179842400Y-70595700D01*
X133042400Y-57535700D02*
X139042400Y-57535700D01*
X131042400Y-70595700D02*
X136042400Y-70595700D01*
X176842400Y-36535700D02*
X182842400Y-36535700D01*
X174842400Y-49595700D02*
X179842400Y-49595700D01*
X156128000Y-111269200D02*
X153468000Y-111269200D01*
X156128000Y-103589200D02*
X156128000Y-111269200D01*
X153468000Y-103589200D02*
X153468000Y-111269200D01*
X156128000Y-103589200D02*
X153468000Y-103589200D01*
X156128000Y-102319200D02*
X156128000Y-100989200D01*
X156128000Y-100989200D02*
X154798000Y-100989200D01*
X112328000Y-111269200D02*
X109668000Y-111269200D01*
X112328000Y-103589200D02*
X112328000Y-111269200D01*
X109668000Y-103589200D02*
X109668000Y-111269200D01*
X112328000Y-103589200D02*
X109668000Y-103589200D01*
X112328000Y-102319200D02*
X112328000Y-100989200D01*
X112328000Y-100989200D02*
X110998000Y-100989200D01*
X156128000Y-90269200D02*
X153468000Y-90269200D01*
X156128000Y-82589200D02*
X156128000Y-90269200D01*
X153468000Y-82589200D02*
X153468000Y-90269200D01*
X156128000Y-82589200D02*
X153468000Y-82589200D01*
X156128000Y-81319200D02*
X156128000Y-79989200D01*
X156128000Y-79989200D02*
X154798000Y-79989200D01*
X112328000Y-90269200D02*
X109668000Y-90269200D01*
X112328000Y-82589200D02*
X112328000Y-90269200D01*
X109668000Y-82589200D02*
X109668000Y-90269200D01*
X112328000Y-82589200D02*
X109668000Y-82589200D01*
X112328000Y-81319200D02*
X112328000Y-79989200D01*
X112328000Y-79989200D02*
X110998000Y-79989200D01*
X156128000Y-69269200D02*
X153468000Y-69269200D01*
X156128000Y-61589200D02*
X156128000Y-69269200D01*
X153468000Y-61589200D02*
X153468000Y-69269200D01*
X156128000Y-61589200D02*
X153468000Y-61589200D01*
X156128000Y-60319200D02*
X156128000Y-58989200D01*
X156128000Y-58989200D02*
X154798000Y-58989200D01*
X112328000Y-69269200D02*
X109668000Y-69269200D01*
X112328000Y-61589200D02*
X112328000Y-69269200D01*
X109668000Y-61589200D02*
X109668000Y-69269200D01*
X112328000Y-61589200D02*
X109668000Y-61589200D01*
X112328000Y-60319200D02*
X112328000Y-58989200D01*
X112328000Y-58989200D02*
X110998000Y-58989200D01*
X156128000Y-48269200D02*
X153468000Y-48269200D01*
X156128000Y-40589200D02*
X156128000Y-48269200D01*
X153468000Y-40589200D02*
X153468000Y-48269200D01*
X156128000Y-40589200D02*
X153468000Y-40589200D01*
X156128000Y-39319200D02*
X156128000Y-37989200D01*
X156128000Y-37989200D02*
X154798000Y-37989200D01*
X157910700Y-103899448D02*
X157910700Y-104421952D01*
X159330700Y-103899448D02*
X159330700Y-104421952D01*
X114110700Y-103899448D02*
X114110700Y-104421952D01*
X115530700Y-103899448D02*
X115530700Y-104421952D01*
X157910700Y-82899448D02*
X157910700Y-83421952D01*
X159330700Y-82899448D02*
X159330700Y-83421952D01*
X114110700Y-82899448D02*
X114110700Y-83421952D01*
X115530700Y-82899448D02*
X115530700Y-83421952D01*
X157910700Y-61899448D02*
X157910700Y-62421952D01*
X159330700Y-61899448D02*
X159330700Y-62421952D01*
X114110700Y-61899448D02*
X114110700Y-62421952D01*
X115530700Y-61899448D02*
X115530700Y-62421952D01*
X157910700Y-40899448D02*
X157910700Y-41421952D01*
X159330700Y-40899448D02*
X159330700Y-41421952D01*
X160247500Y-103874048D02*
X160247500Y-104396552D01*
X161667500Y-103874048D02*
X161667500Y-104396552D01*
X116447500Y-103874048D02*
X116447500Y-104396552D01*
X117867500Y-103874048D02*
X117867500Y-104396552D01*
X160247500Y-82874048D02*
X160247500Y-83396552D01*
X161667500Y-82874048D02*
X161667500Y-83396552D01*
X116447500Y-82874048D02*
X116447500Y-83396552D01*
X117867500Y-82874048D02*
X117867500Y-83396552D01*
X160247500Y-61874048D02*
X160247500Y-62396552D01*
X161667500Y-61874048D02*
X161667500Y-62396552D01*
X116447500Y-61874048D02*
X116447500Y-62396552D01*
X117867500Y-61874048D02*
X117867500Y-62396552D01*
X160247500Y-40874048D02*
X160247500Y-41396552D01*
X161667500Y-40874048D02*
X161667500Y-41396552D01*
X169556600Y-106147348D02*
X169556600Y-106669852D01*
X170976600Y-106147348D02*
X170976600Y-106669852D01*
X125756600Y-106147348D02*
X125756600Y-106669852D01*
X127176600Y-106147348D02*
X127176600Y-106669852D01*
X169556600Y-85147348D02*
X169556600Y-85669852D01*
X170976600Y-85147348D02*
X170976600Y-85669852D01*
X125756600Y-85147348D02*
X125756600Y-85669852D01*
X127176600Y-85147348D02*
X127176600Y-85669852D01*
X169556600Y-64147348D02*
X169556600Y-64669852D01*
X170976600Y-64147348D02*
X170976600Y-64669852D01*
X125756600Y-64147348D02*
X125756600Y-64669852D01*
X127176600Y-64147348D02*
X127176600Y-64669852D01*
X169556600Y-43147348D02*
X169556600Y-43669852D01*
X170976600Y-43147348D02*
X170976600Y-43669852D01*
X167219800Y-106096548D02*
X167219800Y-106619052D01*
X168639800Y-106096548D02*
X168639800Y-106619052D01*
X123419800Y-106096548D02*
X123419800Y-106619052D01*
X124839800Y-106096548D02*
X124839800Y-106619052D01*
X167219800Y-85096548D02*
X167219800Y-85619052D01*
X168639800Y-85096548D02*
X168639800Y-85619052D01*
X123419800Y-85096548D02*
X123419800Y-85619052D01*
X124839800Y-85096548D02*
X124839800Y-85619052D01*
X167219800Y-64096548D02*
X167219800Y-64619052D01*
X168639800Y-64096548D02*
X168639800Y-64619052D01*
X123419800Y-64096548D02*
X123419800Y-64619052D01*
X124839800Y-64096548D02*
X124839800Y-64619052D01*
X167219800Y-43096548D02*
X167219800Y-43619052D01*
X168639800Y-43096548D02*
X168639800Y-43619052D01*
X175887252Y-113699600D02*
X175364748Y-113699600D01*
X175887252Y-115119600D02*
X175364748Y-115119600D01*
X132087252Y-113699600D02*
X131564748Y-113699600D01*
X132087252Y-115119600D02*
X131564748Y-115119600D01*
X175887252Y-92699600D02*
X175364748Y-92699600D01*
X175887252Y-94119600D02*
X175364748Y-94119600D01*
X132087252Y-92699600D02*
X131564748Y-92699600D01*
X132087252Y-94119600D02*
X131564748Y-94119600D01*
X175887252Y-71699600D02*
X175364748Y-71699600D01*
X175887252Y-73119600D02*
X175364748Y-73119600D01*
X132087252Y-71699600D02*
X131564748Y-71699600D01*
X132087252Y-73119600D02*
X131564748Y-73119600D01*
X175887252Y-50699600D02*
X175364748Y-50699600D01*
X175887252Y-52119600D02*
X175364748Y-52119600D01*
X112328000Y-37989200D02*
X110998000Y-37989200D01*
X112328000Y-39319200D02*
X112328000Y-37989200D01*
X112328000Y-40589200D02*
X109668000Y-40589200D01*
X109668000Y-40589200D02*
X109668000Y-48269200D01*
X112328000Y-40589200D02*
X112328000Y-48269200D01*
X112328000Y-48269200D02*
X109668000Y-48269200D01*
X117867500Y-40874048D02*
X117867500Y-41396552D01*
X116447500Y-40874048D02*
X116447500Y-41396552D01*
X115530700Y-40899448D02*
X115530700Y-41421952D01*
X114110700Y-40899448D02*
X114110700Y-41421952D01*
X127176600Y-43147348D02*
X127176600Y-43669852D01*
X125756600Y-43147348D02*
X125756600Y-43669852D01*
X124839800Y-43096548D02*
X124839800Y-43619052D01*
X123419800Y-43096548D02*
X123419800Y-43619052D01*
X132087252Y-52119600D02*
X131564748Y-52119600D01*
X132087252Y-50699600D02*
X131564748Y-50699600D01*
X138589652Y-52119600D02*
X138067148Y-52119600D01*
X138589652Y-50699600D02*
X138067148Y-50699600D01*
X108903600Y-35471400D02*
X108903600Y-36971400D01*
X107163600Y-35471400D02*
X108903600Y-35471400D01*
X101543600Y-50531400D02*
X108663600Y-50531400D01*
X101543600Y-35711400D02*
X108663600Y-35711400D01*
X108663600Y-35711400D02*
X108663600Y-50531400D01*
X101543600Y-35711400D02*
X101543600Y-50531400D01*
X107103600Y-35711400D02*
X107103600Y-50531400D01*
X106558600Y-48371400D02*
G75*
G03X106558600Y-48371400I-1555000J0D01*
G01*
X106558600Y-44871400D02*
G75*
G03X106558600Y-44871400I-1555000J0D01*
G01*
X106558600Y-41371400D02*
G75*
G03X106558600Y-41371400I-1555000J0D01*
G01*
X106559092Y-37898411D02*
G75*
G03X106435600Y-37263400I-1555492J27011D01*
G01*
X105611342Y-36439291D02*
G75*
G03X104395600Y-36439400I-607742J-1432109D01*
G01*
X103571491Y-37263658D02*
G75*
G03X103571600Y-38479400I1432109J-607742D01*
G01*
X104395858Y-39303509D02*
G75*
G03X105611600Y-39303400I607742J1432109D01*
G01*
X106434985Y-38478987D02*
G75*
G03X106558600Y-37871400I-1431385J607587D01*
G01*
X131042400Y-49595700D02*
X136042400Y-49595700D01*
X133042400Y-36535700D02*
X139042400Y-36535700D01*
D10*
X185266842Y-114357233D02*
X185314461Y-114309614D01*
X185362080Y-114166757D01*
X185362080Y-114071519D01*
X185314461Y-113928661D01*
X185219223Y-113833423D01*
X185123985Y-113785804D01*
X184933509Y-113738185D01*
X184790652Y-113738185D01*
X184600176Y-113785804D01*
X184504938Y-113833423D01*
X184409700Y-113928661D01*
X184362080Y-114071519D01*
X184362080Y-114166757D01*
X184409700Y-114309614D01*
X184457319Y-114357233D01*
X185362080Y-115309614D02*
X185362080Y-114738185D01*
X185362080Y-115023900D02*
X184362080Y-115023900D01*
X184504938Y-114928661D01*
X184600176Y-114833423D01*
X184647795Y-114738185D01*
X141466842Y-114357233D02*
X141514461Y-114309614D01*
X141562080Y-114166757D01*
X141562080Y-114071519D01*
X141514461Y-113928661D01*
X141419223Y-113833423D01*
X141323985Y-113785804D01*
X141133509Y-113738185D01*
X140990652Y-113738185D01*
X140800176Y-113785804D01*
X140704938Y-113833423D01*
X140609700Y-113928661D01*
X140562080Y-114071519D01*
X140562080Y-114166757D01*
X140609700Y-114309614D01*
X140657319Y-114357233D01*
X141562080Y-115309614D02*
X141562080Y-114738185D01*
X141562080Y-115023900D02*
X140562080Y-115023900D01*
X140704938Y-114928661D01*
X140800176Y-114833423D01*
X140847795Y-114738185D01*
X185266842Y-93357233D02*
X185314461Y-93309614D01*
X185362080Y-93166757D01*
X185362080Y-93071519D01*
X185314461Y-92928661D01*
X185219223Y-92833423D01*
X185123985Y-92785804D01*
X184933509Y-92738185D01*
X184790652Y-92738185D01*
X184600176Y-92785804D01*
X184504938Y-92833423D01*
X184409700Y-92928661D01*
X184362080Y-93071519D01*
X184362080Y-93166757D01*
X184409700Y-93309614D01*
X184457319Y-93357233D01*
X185362080Y-94309614D02*
X185362080Y-93738185D01*
X185362080Y-94023900D02*
X184362080Y-94023900D01*
X184504938Y-93928661D01*
X184600176Y-93833423D01*
X184647795Y-93738185D01*
X141466842Y-93357233D02*
X141514461Y-93309614D01*
X141562080Y-93166757D01*
X141562080Y-93071519D01*
X141514461Y-92928661D01*
X141419223Y-92833423D01*
X141323985Y-92785804D01*
X141133509Y-92738185D01*
X140990652Y-92738185D01*
X140800176Y-92785804D01*
X140704938Y-92833423D01*
X140609700Y-92928661D01*
X140562080Y-93071519D01*
X140562080Y-93166757D01*
X140609700Y-93309614D01*
X140657319Y-93357233D01*
X141562080Y-94309614D02*
X141562080Y-93738185D01*
X141562080Y-94023900D02*
X140562080Y-94023900D01*
X140704938Y-93928661D01*
X140800176Y-93833423D01*
X140847795Y-93738185D01*
X185266842Y-72357233D02*
X185314461Y-72309614D01*
X185362080Y-72166757D01*
X185362080Y-72071519D01*
X185314461Y-71928661D01*
X185219223Y-71833423D01*
X185123985Y-71785804D01*
X184933509Y-71738185D01*
X184790652Y-71738185D01*
X184600176Y-71785804D01*
X184504938Y-71833423D01*
X184409700Y-71928661D01*
X184362080Y-72071519D01*
X184362080Y-72166757D01*
X184409700Y-72309614D01*
X184457319Y-72357233D01*
X185362080Y-73309614D02*
X185362080Y-72738185D01*
X185362080Y-73023900D02*
X184362080Y-73023900D01*
X184504938Y-72928661D01*
X184600176Y-72833423D01*
X184647795Y-72738185D01*
X141466842Y-72357233D02*
X141514461Y-72309614D01*
X141562080Y-72166757D01*
X141562080Y-72071519D01*
X141514461Y-71928661D01*
X141419223Y-71833423D01*
X141323985Y-71785804D01*
X141133509Y-71738185D01*
X140990652Y-71738185D01*
X140800176Y-71785804D01*
X140704938Y-71833423D01*
X140609700Y-71928661D01*
X140562080Y-72071519D01*
X140562080Y-72166757D01*
X140609700Y-72309614D01*
X140657319Y-72357233D01*
X141562080Y-73309614D02*
X141562080Y-72738185D01*
X141562080Y-73023900D02*
X140562080Y-73023900D01*
X140704938Y-72928661D01*
X140800176Y-72833423D01*
X140847795Y-72738185D01*
X185266842Y-51357233D02*
X185314461Y-51309614D01*
X185362080Y-51166757D01*
X185362080Y-51071519D01*
X185314461Y-50928661D01*
X185219223Y-50833423D01*
X185123985Y-50785804D01*
X184933509Y-50738185D01*
X184790652Y-50738185D01*
X184600176Y-50785804D01*
X184504938Y-50833423D01*
X184409700Y-50928661D01*
X184362080Y-51071519D01*
X184362080Y-51166757D01*
X184409700Y-51309614D01*
X184457319Y-51357233D01*
X185362080Y-52309614D02*
X185362080Y-51738185D01*
X185362080Y-52023900D02*
X184362080Y-52023900D01*
X184504938Y-51928661D01*
X184600176Y-51833423D01*
X184647795Y-51738185D01*
X147989280Y-114368366D02*
X148703566Y-114368366D01*
X148846423Y-114320747D01*
X148941661Y-114225509D01*
X148989280Y-114082652D01*
X148989280Y-113987414D01*
X148989280Y-115368366D02*
X148989280Y-114796938D01*
X148989280Y-115082652D02*
X147989280Y-115082652D01*
X148132138Y-114987414D01*
X148227376Y-114892176D01*
X148274995Y-114796938D01*
X104189280Y-114368366D02*
X104903566Y-114368366D01*
X105046423Y-114320747D01*
X105141661Y-114225509D01*
X105189280Y-114082652D01*
X105189280Y-113987414D01*
X105189280Y-115368366D02*
X105189280Y-114796938D01*
X105189280Y-115082652D02*
X104189280Y-115082652D01*
X104332138Y-114987414D01*
X104427376Y-114892176D01*
X104474995Y-114796938D01*
X147989280Y-93368366D02*
X148703566Y-93368366D01*
X148846423Y-93320747D01*
X148941661Y-93225509D01*
X148989280Y-93082652D01*
X148989280Y-92987414D01*
X148989280Y-94368366D02*
X148989280Y-93796938D01*
X148989280Y-94082652D02*
X147989280Y-94082652D01*
X148132138Y-93987414D01*
X148227376Y-93892176D01*
X148274995Y-93796938D01*
X104189280Y-93368366D02*
X104903566Y-93368366D01*
X105046423Y-93320747D01*
X105141661Y-93225509D01*
X105189280Y-93082652D01*
X105189280Y-92987414D01*
X105189280Y-94368366D02*
X105189280Y-93796938D01*
X105189280Y-94082652D02*
X104189280Y-94082652D01*
X104332138Y-93987414D01*
X104427376Y-93892176D01*
X104474995Y-93796938D01*
X147989280Y-72368366D02*
X148703566Y-72368366D01*
X148846423Y-72320747D01*
X148941661Y-72225509D01*
X148989280Y-72082652D01*
X148989280Y-71987414D01*
X148989280Y-73368366D02*
X148989280Y-72796938D01*
X148989280Y-73082652D02*
X147989280Y-73082652D01*
X148132138Y-72987414D01*
X148227376Y-72892176D01*
X148274995Y-72796938D01*
X104189280Y-72368366D02*
X104903566Y-72368366D01*
X105046423Y-72320747D01*
X105141661Y-72225509D01*
X105189280Y-72082652D01*
X105189280Y-71987414D01*
X105189280Y-73368366D02*
X105189280Y-72796938D01*
X105189280Y-73082652D02*
X104189280Y-73082652D01*
X104332138Y-72987414D01*
X104427376Y-72892176D01*
X104474995Y-72796938D01*
X147989280Y-51368366D02*
X148703566Y-51368366D01*
X148846423Y-51320747D01*
X148941661Y-51225509D01*
X148989280Y-51082652D01*
X148989280Y-50987414D01*
X148989280Y-52368366D02*
X148989280Y-51796938D01*
X148989280Y-52082652D02*
X147989280Y-52082652D01*
X148132138Y-51987414D01*
X148227376Y-51892176D01*
X148274995Y-51796938D01*
X183854080Y-96947195D02*
X184663604Y-96947195D01*
X184758842Y-96994814D01*
X184806461Y-97042433D01*
X184854080Y-97137671D01*
X184854080Y-97328147D01*
X184806461Y-97423385D01*
X184758842Y-97471004D01*
X184663604Y-97518623D01*
X183854080Y-97518623D01*
X183949319Y-97947195D02*
X183901700Y-97994814D01*
X183854080Y-98090052D01*
X183854080Y-98328147D01*
X183901700Y-98423385D01*
X183949319Y-98471004D01*
X184044557Y-98518623D01*
X184139795Y-98518623D01*
X184282652Y-98471004D01*
X184854080Y-97899576D01*
X184854080Y-98518623D01*
X140054080Y-96947195D02*
X140863604Y-96947195D01*
X140958842Y-96994814D01*
X141006461Y-97042433D01*
X141054080Y-97137671D01*
X141054080Y-97328147D01*
X141006461Y-97423385D01*
X140958842Y-97471004D01*
X140863604Y-97518623D01*
X140054080Y-97518623D01*
X140149319Y-97947195D02*
X140101700Y-97994814D01*
X140054080Y-98090052D01*
X140054080Y-98328147D01*
X140101700Y-98423385D01*
X140149319Y-98471004D01*
X140244557Y-98518623D01*
X140339795Y-98518623D01*
X140482652Y-98471004D01*
X141054080Y-97899576D01*
X141054080Y-98518623D01*
X183854080Y-75947195D02*
X184663604Y-75947195D01*
X184758842Y-75994814D01*
X184806461Y-76042433D01*
X184854080Y-76137671D01*
X184854080Y-76328147D01*
X184806461Y-76423385D01*
X184758842Y-76471004D01*
X184663604Y-76518623D01*
X183854080Y-76518623D01*
X183949319Y-76947195D02*
X183901700Y-76994814D01*
X183854080Y-77090052D01*
X183854080Y-77328147D01*
X183901700Y-77423385D01*
X183949319Y-77471004D01*
X184044557Y-77518623D01*
X184139795Y-77518623D01*
X184282652Y-77471004D01*
X184854080Y-76899576D01*
X184854080Y-77518623D01*
X140054080Y-75947195D02*
X140863604Y-75947195D01*
X140958842Y-75994814D01*
X141006461Y-76042433D01*
X141054080Y-76137671D01*
X141054080Y-76328147D01*
X141006461Y-76423385D01*
X140958842Y-76471004D01*
X140863604Y-76518623D01*
X140054080Y-76518623D01*
X140149319Y-76947195D02*
X140101700Y-76994814D01*
X140054080Y-77090052D01*
X140054080Y-77328147D01*
X140101700Y-77423385D01*
X140149319Y-77471004D01*
X140244557Y-77518623D01*
X140339795Y-77518623D01*
X140482652Y-77471004D01*
X141054080Y-76899576D01*
X141054080Y-77518623D01*
X183854080Y-54947195D02*
X184663604Y-54947195D01*
X184758842Y-54994814D01*
X184806461Y-55042433D01*
X184854080Y-55137671D01*
X184854080Y-55328147D01*
X184806461Y-55423385D01*
X184758842Y-55471004D01*
X184663604Y-55518623D01*
X183854080Y-55518623D01*
X183949319Y-55947195D02*
X183901700Y-55994814D01*
X183854080Y-56090052D01*
X183854080Y-56328147D01*
X183901700Y-56423385D01*
X183949319Y-56471004D01*
X184044557Y-56518623D01*
X184139795Y-56518623D01*
X184282652Y-56471004D01*
X184854080Y-55899576D01*
X184854080Y-56518623D01*
X140054080Y-54947195D02*
X140863604Y-54947195D01*
X140958842Y-54994814D01*
X141006461Y-55042433D01*
X141054080Y-55137671D01*
X141054080Y-55328147D01*
X141006461Y-55423385D01*
X140958842Y-55471004D01*
X140863604Y-55518623D01*
X140054080Y-55518623D01*
X140149319Y-55947195D02*
X140101700Y-55994814D01*
X140054080Y-56090052D01*
X140054080Y-56328147D01*
X140101700Y-56423385D01*
X140149319Y-56471004D01*
X140244557Y-56518623D01*
X140339795Y-56518623D01*
X140482652Y-56471004D01*
X141054080Y-55899576D01*
X141054080Y-56518623D01*
X183854080Y-33947195D02*
X184663604Y-33947195D01*
X184758842Y-33994814D01*
X184806461Y-34042433D01*
X184854080Y-34137671D01*
X184854080Y-34328147D01*
X184806461Y-34423385D01*
X184758842Y-34471004D01*
X184663604Y-34518623D01*
X183854080Y-34518623D01*
X183949319Y-34947195D02*
X183901700Y-34994814D01*
X183854080Y-35090052D01*
X183854080Y-35328147D01*
X183901700Y-35423385D01*
X183949319Y-35471004D01*
X184044557Y-35518623D01*
X184139795Y-35518623D01*
X184282652Y-35471004D01*
X184854080Y-34899576D01*
X184854080Y-35518623D01*
X154199580Y-112107766D02*
X154913866Y-112107766D01*
X155056723Y-112060147D01*
X155151961Y-111964909D01*
X155199580Y-111822052D01*
X155199580Y-111726814D01*
X154294819Y-112536338D02*
X154247200Y-112583957D01*
X154199580Y-112679195D01*
X154199580Y-112917290D01*
X154247200Y-113012528D01*
X154294819Y-113060147D01*
X154390057Y-113107766D01*
X154485295Y-113107766D01*
X154628152Y-113060147D01*
X155199580Y-112488719D01*
X155199580Y-113107766D01*
X110399580Y-112107766D02*
X111113866Y-112107766D01*
X111256723Y-112060147D01*
X111351961Y-111964909D01*
X111399580Y-111822052D01*
X111399580Y-111726814D01*
X110494819Y-112536338D02*
X110447200Y-112583957D01*
X110399580Y-112679195D01*
X110399580Y-112917290D01*
X110447200Y-113012528D01*
X110494819Y-113060147D01*
X110590057Y-113107766D01*
X110685295Y-113107766D01*
X110828152Y-113060147D01*
X111399580Y-112488719D01*
X111399580Y-113107766D01*
X154199580Y-91107766D02*
X154913866Y-91107766D01*
X155056723Y-91060147D01*
X155151961Y-90964909D01*
X155199580Y-90822052D01*
X155199580Y-90726814D01*
X154294819Y-91536338D02*
X154247200Y-91583957D01*
X154199580Y-91679195D01*
X154199580Y-91917290D01*
X154247200Y-92012528D01*
X154294819Y-92060147D01*
X154390057Y-92107766D01*
X154485295Y-92107766D01*
X154628152Y-92060147D01*
X155199580Y-91488719D01*
X155199580Y-92107766D01*
X110399580Y-91107766D02*
X111113866Y-91107766D01*
X111256723Y-91060147D01*
X111351961Y-90964909D01*
X111399580Y-90822052D01*
X111399580Y-90726814D01*
X110494819Y-91536338D02*
X110447200Y-91583957D01*
X110399580Y-91679195D01*
X110399580Y-91917290D01*
X110447200Y-92012528D01*
X110494819Y-92060147D01*
X110590057Y-92107766D01*
X110685295Y-92107766D01*
X110828152Y-92060147D01*
X111399580Y-91488719D01*
X111399580Y-92107766D01*
X154199580Y-70107766D02*
X154913866Y-70107766D01*
X155056723Y-70060147D01*
X155151961Y-69964909D01*
X155199580Y-69822052D01*
X155199580Y-69726814D01*
X154294819Y-70536338D02*
X154247200Y-70583957D01*
X154199580Y-70679195D01*
X154199580Y-70917290D01*
X154247200Y-71012528D01*
X154294819Y-71060147D01*
X154390057Y-71107766D01*
X154485295Y-71107766D01*
X154628152Y-71060147D01*
X155199580Y-70488719D01*
X155199580Y-71107766D01*
X110399580Y-70107766D02*
X111113866Y-70107766D01*
X111256723Y-70060147D01*
X111351961Y-69964909D01*
X111399580Y-69822052D01*
X111399580Y-69726814D01*
X110494819Y-70536338D02*
X110447200Y-70583957D01*
X110399580Y-70679195D01*
X110399580Y-70917290D01*
X110447200Y-71012528D01*
X110494819Y-71060147D01*
X110590057Y-71107766D01*
X110685295Y-71107766D01*
X110828152Y-71060147D01*
X111399580Y-70488719D01*
X111399580Y-71107766D01*
X154199580Y-49107766D02*
X154913866Y-49107766D01*
X155056723Y-49060147D01*
X155151961Y-48964909D01*
X155199580Y-48822052D01*
X155199580Y-48726814D01*
X154294819Y-49536338D02*
X154247200Y-49583957D01*
X154199580Y-49679195D01*
X154199580Y-49917290D01*
X154247200Y-50012528D01*
X154294819Y-50060147D01*
X154390057Y-50107766D01*
X154485295Y-50107766D01*
X154628152Y-50060147D01*
X155199580Y-49488719D01*
X155199580Y-50107766D01*
X159174680Y-106940433D02*
X158698490Y-106607100D01*
X159174680Y-106369004D02*
X158174680Y-106369004D01*
X158174680Y-106749957D01*
X158222300Y-106845195D01*
X158269919Y-106892814D01*
X158365157Y-106940433D01*
X158508014Y-106940433D01*
X158603252Y-106892814D01*
X158650871Y-106845195D01*
X158698490Y-106749957D01*
X158698490Y-106369004D01*
X159174680Y-107892814D02*
X159174680Y-107321385D01*
X159174680Y-107607100D02*
X158174680Y-107607100D01*
X158317538Y-107511861D01*
X158412776Y-107416623D01*
X158460395Y-107321385D01*
X115374680Y-106940433D02*
X114898490Y-106607100D01*
X115374680Y-106369004D02*
X114374680Y-106369004D01*
X114374680Y-106749957D01*
X114422300Y-106845195D01*
X114469919Y-106892814D01*
X114565157Y-106940433D01*
X114708014Y-106940433D01*
X114803252Y-106892814D01*
X114850871Y-106845195D01*
X114898490Y-106749957D01*
X114898490Y-106369004D01*
X115374680Y-107892814D02*
X115374680Y-107321385D01*
X115374680Y-107607100D02*
X114374680Y-107607100D01*
X114517538Y-107511861D01*
X114612776Y-107416623D01*
X114660395Y-107321385D01*
X159174680Y-85940433D02*
X158698490Y-85607100D01*
X159174680Y-85369004D02*
X158174680Y-85369004D01*
X158174680Y-85749957D01*
X158222300Y-85845195D01*
X158269919Y-85892814D01*
X158365157Y-85940433D01*
X158508014Y-85940433D01*
X158603252Y-85892814D01*
X158650871Y-85845195D01*
X158698490Y-85749957D01*
X158698490Y-85369004D01*
X159174680Y-86892814D02*
X159174680Y-86321385D01*
X159174680Y-86607100D02*
X158174680Y-86607100D01*
X158317538Y-86511861D01*
X158412776Y-86416623D01*
X158460395Y-86321385D01*
X115374680Y-85940433D02*
X114898490Y-85607100D01*
X115374680Y-85369004D02*
X114374680Y-85369004D01*
X114374680Y-85749957D01*
X114422300Y-85845195D01*
X114469919Y-85892814D01*
X114565157Y-85940433D01*
X114708014Y-85940433D01*
X114803252Y-85892814D01*
X114850871Y-85845195D01*
X114898490Y-85749957D01*
X114898490Y-85369004D01*
X115374680Y-86892814D02*
X115374680Y-86321385D01*
X115374680Y-86607100D02*
X114374680Y-86607100D01*
X114517538Y-86511861D01*
X114612776Y-86416623D01*
X114660395Y-86321385D01*
X159174680Y-64940433D02*
X158698490Y-64607100D01*
X159174680Y-64369004D02*
X158174680Y-64369004D01*
X158174680Y-64749957D01*
X158222300Y-64845195D01*
X158269919Y-64892814D01*
X158365157Y-64940433D01*
X158508014Y-64940433D01*
X158603252Y-64892814D01*
X158650871Y-64845195D01*
X158698490Y-64749957D01*
X158698490Y-64369004D01*
X159174680Y-65892814D02*
X159174680Y-65321385D01*
X159174680Y-65607100D02*
X158174680Y-65607100D01*
X158317538Y-65511861D01*
X158412776Y-65416623D01*
X158460395Y-65321385D01*
X115374680Y-64940433D02*
X114898490Y-64607100D01*
X115374680Y-64369004D02*
X114374680Y-64369004D01*
X114374680Y-64749957D01*
X114422300Y-64845195D01*
X114469919Y-64892814D01*
X114565157Y-64940433D01*
X114708014Y-64940433D01*
X114803252Y-64892814D01*
X114850871Y-64845195D01*
X114898490Y-64749957D01*
X114898490Y-64369004D01*
X115374680Y-65892814D02*
X115374680Y-65321385D01*
X115374680Y-65607100D02*
X114374680Y-65607100D01*
X114517538Y-65511861D01*
X114612776Y-65416623D01*
X114660395Y-65321385D01*
X159174680Y-43940433D02*
X158698490Y-43607100D01*
X159174680Y-43369004D02*
X158174680Y-43369004D01*
X158174680Y-43749957D01*
X158222300Y-43845195D01*
X158269919Y-43892814D01*
X158365157Y-43940433D01*
X158508014Y-43940433D01*
X158603252Y-43892814D01*
X158650871Y-43845195D01*
X158698490Y-43749957D01*
X158698490Y-43369004D01*
X159174680Y-44892814D02*
X159174680Y-44321385D01*
X159174680Y-44607100D02*
X158174680Y-44607100D01*
X158317538Y-44511861D01*
X158412776Y-44416623D01*
X158460395Y-44321385D01*
X161409880Y-106902333D02*
X160933690Y-106569000D01*
X161409880Y-106330904D02*
X160409880Y-106330904D01*
X160409880Y-106711857D01*
X160457500Y-106807095D01*
X160505119Y-106854714D01*
X160600357Y-106902333D01*
X160743214Y-106902333D01*
X160838452Y-106854714D01*
X160886071Y-106807095D01*
X160933690Y-106711857D01*
X160933690Y-106330904D01*
X160505119Y-107283285D02*
X160457500Y-107330904D01*
X160409880Y-107426142D01*
X160409880Y-107664238D01*
X160457500Y-107759476D01*
X160505119Y-107807095D01*
X160600357Y-107854714D01*
X160695595Y-107854714D01*
X160838452Y-107807095D01*
X161409880Y-107235666D01*
X161409880Y-107854714D01*
X117609880Y-106902333D02*
X117133690Y-106569000D01*
X117609880Y-106330904D02*
X116609880Y-106330904D01*
X116609880Y-106711857D01*
X116657500Y-106807095D01*
X116705119Y-106854714D01*
X116800357Y-106902333D01*
X116943214Y-106902333D01*
X117038452Y-106854714D01*
X117086071Y-106807095D01*
X117133690Y-106711857D01*
X117133690Y-106330904D01*
X116705119Y-107283285D02*
X116657500Y-107330904D01*
X116609880Y-107426142D01*
X116609880Y-107664238D01*
X116657500Y-107759476D01*
X116705119Y-107807095D01*
X116800357Y-107854714D01*
X116895595Y-107854714D01*
X117038452Y-107807095D01*
X117609880Y-107235666D01*
X117609880Y-107854714D01*
X161409880Y-85902333D02*
X160933690Y-85569000D01*
X161409880Y-85330904D02*
X160409880Y-85330904D01*
X160409880Y-85711857D01*
X160457500Y-85807095D01*
X160505119Y-85854714D01*
X160600357Y-85902333D01*
X160743214Y-85902333D01*
X160838452Y-85854714D01*
X160886071Y-85807095D01*
X160933690Y-85711857D01*
X160933690Y-85330904D01*
X160505119Y-86283285D02*
X160457500Y-86330904D01*
X160409880Y-86426142D01*
X160409880Y-86664238D01*
X160457500Y-86759476D01*
X160505119Y-86807095D01*
X160600357Y-86854714D01*
X160695595Y-86854714D01*
X160838452Y-86807095D01*
X161409880Y-86235666D01*
X161409880Y-86854714D01*
X117609880Y-85902333D02*
X117133690Y-85569000D01*
X117609880Y-85330904D02*
X116609880Y-85330904D01*
X116609880Y-85711857D01*
X116657500Y-85807095D01*
X116705119Y-85854714D01*
X116800357Y-85902333D01*
X116943214Y-85902333D01*
X117038452Y-85854714D01*
X117086071Y-85807095D01*
X117133690Y-85711857D01*
X117133690Y-85330904D01*
X116705119Y-86283285D02*
X116657500Y-86330904D01*
X116609880Y-86426142D01*
X116609880Y-86664238D01*
X116657500Y-86759476D01*
X116705119Y-86807095D01*
X116800357Y-86854714D01*
X116895595Y-86854714D01*
X117038452Y-86807095D01*
X117609880Y-86235666D01*
X117609880Y-86854714D01*
X161409880Y-64902333D02*
X160933690Y-64569000D01*
X161409880Y-64330904D02*
X160409880Y-64330904D01*
X160409880Y-64711857D01*
X160457500Y-64807095D01*
X160505119Y-64854714D01*
X160600357Y-64902333D01*
X160743214Y-64902333D01*
X160838452Y-64854714D01*
X160886071Y-64807095D01*
X160933690Y-64711857D01*
X160933690Y-64330904D01*
X160505119Y-65283285D02*
X160457500Y-65330904D01*
X160409880Y-65426142D01*
X160409880Y-65664238D01*
X160457500Y-65759476D01*
X160505119Y-65807095D01*
X160600357Y-65854714D01*
X160695595Y-65854714D01*
X160838452Y-65807095D01*
X161409880Y-65235666D01*
X161409880Y-65854714D01*
X117609880Y-64902333D02*
X117133690Y-64569000D01*
X117609880Y-64330904D02*
X116609880Y-64330904D01*
X116609880Y-64711857D01*
X116657500Y-64807095D01*
X116705119Y-64854714D01*
X116800357Y-64902333D01*
X116943214Y-64902333D01*
X117038452Y-64854714D01*
X117086071Y-64807095D01*
X117133690Y-64711857D01*
X117133690Y-64330904D01*
X116705119Y-65283285D02*
X116657500Y-65330904D01*
X116609880Y-65426142D01*
X116609880Y-65664238D01*
X116657500Y-65759476D01*
X116705119Y-65807095D01*
X116800357Y-65854714D01*
X116895595Y-65854714D01*
X117038452Y-65807095D01*
X117609880Y-65235666D01*
X117609880Y-65854714D01*
X161409880Y-43902333D02*
X160933690Y-43569000D01*
X161409880Y-43330904D02*
X160409880Y-43330904D01*
X160409880Y-43711857D01*
X160457500Y-43807095D01*
X160505119Y-43854714D01*
X160600357Y-43902333D01*
X160743214Y-43902333D01*
X160838452Y-43854714D01*
X160886071Y-43807095D01*
X160933690Y-43711857D01*
X160933690Y-43330904D01*
X160505119Y-44283285D02*
X160457500Y-44330904D01*
X160409880Y-44426142D01*
X160409880Y-44664238D01*
X160457500Y-44759476D01*
X160505119Y-44807095D01*
X160600357Y-44854714D01*
X160695595Y-44854714D01*
X160838452Y-44807095D01*
X161409880Y-44235666D01*
X161409880Y-44854714D01*
X170725342Y-109112133D02*
X170772961Y-109064514D01*
X170820580Y-108921657D01*
X170820580Y-108826419D01*
X170772961Y-108683561D01*
X170677723Y-108588323D01*
X170582485Y-108540704D01*
X170392009Y-108493085D01*
X170249152Y-108493085D01*
X170058676Y-108540704D01*
X169963438Y-108588323D01*
X169868200Y-108683561D01*
X169820580Y-108826419D01*
X169820580Y-108921657D01*
X169868200Y-109064514D01*
X169915819Y-109112133D01*
X170153914Y-109969276D02*
X170820580Y-109969276D01*
X169772961Y-109731180D02*
X170487247Y-109493085D01*
X170487247Y-110112133D01*
X126925342Y-109112133D02*
X126972961Y-109064514D01*
X127020580Y-108921657D01*
X127020580Y-108826419D01*
X126972961Y-108683561D01*
X126877723Y-108588323D01*
X126782485Y-108540704D01*
X126592009Y-108493085D01*
X126449152Y-108493085D01*
X126258676Y-108540704D01*
X126163438Y-108588323D01*
X126068200Y-108683561D01*
X126020580Y-108826419D01*
X126020580Y-108921657D01*
X126068200Y-109064514D01*
X126115819Y-109112133D01*
X126353914Y-109969276D02*
X127020580Y-109969276D01*
X125972961Y-109731180D02*
X126687247Y-109493085D01*
X126687247Y-110112133D01*
X170725342Y-88112133D02*
X170772961Y-88064514D01*
X170820580Y-87921657D01*
X170820580Y-87826419D01*
X170772961Y-87683561D01*
X170677723Y-87588323D01*
X170582485Y-87540704D01*
X170392009Y-87493085D01*
X170249152Y-87493085D01*
X170058676Y-87540704D01*
X169963438Y-87588323D01*
X169868200Y-87683561D01*
X169820580Y-87826419D01*
X169820580Y-87921657D01*
X169868200Y-88064514D01*
X169915819Y-88112133D01*
X170153914Y-88969276D02*
X170820580Y-88969276D01*
X169772961Y-88731180D02*
X170487247Y-88493085D01*
X170487247Y-89112133D01*
X126925342Y-88112133D02*
X126972961Y-88064514D01*
X127020580Y-87921657D01*
X127020580Y-87826419D01*
X126972961Y-87683561D01*
X126877723Y-87588323D01*
X126782485Y-87540704D01*
X126592009Y-87493085D01*
X126449152Y-87493085D01*
X126258676Y-87540704D01*
X126163438Y-87588323D01*
X126068200Y-87683561D01*
X126020580Y-87826419D01*
X126020580Y-87921657D01*
X126068200Y-88064514D01*
X126115819Y-88112133D01*
X126353914Y-88969276D02*
X127020580Y-88969276D01*
X125972961Y-88731180D02*
X126687247Y-88493085D01*
X126687247Y-89112133D01*
X170725342Y-67112133D02*
X170772961Y-67064514D01*
X170820580Y-66921657D01*
X170820580Y-66826419D01*
X170772961Y-66683561D01*
X170677723Y-66588323D01*
X170582485Y-66540704D01*
X170392009Y-66493085D01*
X170249152Y-66493085D01*
X170058676Y-66540704D01*
X169963438Y-66588323D01*
X169868200Y-66683561D01*
X169820580Y-66826419D01*
X169820580Y-66921657D01*
X169868200Y-67064514D01*
X169915819Y-67112133D01*
X170153914Y-67969276D02*
X170820580Y-67969276D01*
X169772961Y-67731180D02*
X170487247Y-67493085D01*
X170487247Y-68112133D01*
X126925342Y-67112133D02*
X126972961Y-67064514D01*
X127020580Y-66921657D01*
X127020580Y-66826419D01*
X126972961Y-66683561D01*
X126877723Y-66588323D01*
X126782485Y-66540704D01*
X126592009Y-66493085D01*
X126449152Y-66493085D01*
X126258676Y-66540704D01*
X126163438Y-66588323D01*
X126068200Y-66683561D01*
X126020580Y-66826419D01*
X126020580Y-66921657D01*
X126068200Y-67064514D01*
X126115819Y-67112133D01*
X126353914Y-67969276D02*
X127020580Y-67969276D01*
X125972961Y-67731180D02*
X126687247Y-67493085D01*
X126687247Y-68112133D01*
X170725342Y-46112133D02*
X170772961Y-46064514D01*
X170820580Y-45921657D01*
X170820580Y-45826419D01*
X170772961Y-45683561D01*
X170677723Y-45588323D01*
X170582485Y-45540704D01*
X170392009Y-45493085D01*
X170249152Y-45493085D01*
X170058676Y-45540704D01*
X169963438Y-45588323D01*
X169868200Y-45683561D01*
X169820580Y-45826419D01*
X169820580Y-45921657D01*
X169868200Y-46064514D01*
X169915819Y-46112133D01*
X170153914Y-46969276D02*
X170820580Y-46969276D01*
X169772961Y-46731180D02*
X170487247Y-46493085D01*
X170487247Y-47112133D01*
X168363142Y-109061333D02*
X168410761Y-109013714D01*
X168458380Y-108870857D01*
X168458380Y-108775619D01*
X168410761Y-108632761D01*
X168315523Y-108537523D01*
X168220285Y-108489904D01*
X168029809Y-108442285D01*
X167886952Y-108442285D01*
X167696476Y-108489904D01*
X167601238Y-108537523D01*
X167506000Y-108632761D01*
X167458380Y-108775619D01*
X167458380Y-108870857D01*
X167506000Y-109013714D01*
X167553619Y-109061333D01*
X167458380Y-109394666D02*
X167458380Y-110013714D01*
X167839333Y-109680380D01*
X167839333Y-109823238D01*
X167886952Y-109918476D01*
X167934571Y-109966095D01*
X168029809Y-110013714D01*
X168267904Y-110013714D01*
X168363142Y-109966095D01*
X168410761Y-109918476D01*
X168458380Y-109823238D01*
X168458380Y-109537523D01*
X168410761Y-109442285D01*
X168363142Y-109394666D01*
X124563142Y-109061333D02*
X124610761Y-109013714D01*
X124658380Y-108870857D01*
X124658380Y-108775619D01*
X124610761Y-108632761D01*
X124515523Y-108537523D01*
X124420285Y-108489904D01*
X124229809Y-108442285D01*
X124086952Y-108442285D01*
X123896476Y-108489904D01*
X123801238Y-108537523D01*
X123706000Y-108632761D01*
X123658380Y-108775619D01*
X123658380Y-108870857D01*
X123706000Y-109013714D01*
X123753619Y-109061333D01*
X123658380Y-109394666D02*
X123658380Y-110013714D01*
X124039333Y-109680380D01*
X124039333Y-109823238D01*
X124086952Y-109918476D01*
X124134571Y-109966095D01*
X124229809Y-110013714D01*
X124467904Y-110013714D01*
X124563142Y-109966095D01*
X124610761Y-109918476D01*
X124658380Y-109823238D01*
X124658380Y-109537523D01*
X124610761Y-109442285D01*
X124563142Y-109394666D01*
X168363142Y-88061333D02*
X168410761Y-88013714D01*
X168458380Y-87870857D01*
X168458380Y-87775619D01*
X168410761Y-87632761D01*
X168315523Y-87537523D01*
X168220285Y-87489904D01*
X168029809Y-87442285D01*
X167886952Y-87442285D01*
X167696476Y-87489904D01*
X167601238Y-87537523D01*
X167506000Y-87632761D01*
X167458380Y-87775619D01*
X167458380Y-87870857D01*
X167506000Y-88013714D01*
X167553619Y-88061333D01*
X167458380Y-88394666D02*
X167458380Y-89013714D01*
X167839333Y-88680380D01*
X167839333Y-88823238D01*
X167886952Y-88918476D01*
X167934571Y-88966095D01*
X168029809Y-89013714D01*
X168267904Y-89013714D01*
X168363142Y-88966095D01*
X168410761Y-88918476D01*
X168458380Y-88823238D01*
X168458380Y-88537523D01*
X168410761Y-88442285D01*
X168363142Y-88394666D01*
X124563142Y-88061333D02*
X124610761Y-88013714D01*
X124658380Y-87870857D01*
X124658380Y-87775619D01*
X124610761Y-87632761D01*
X124515523Y-87537523D01*
X124420285Y-87489904D01*
X124229809Y-87442285D01*
X124086952Y-87442285D01*
X123896476Y-87489904D01*
X123801238Y-87537523D01*
X123706000Y-87632761D01*
X123658380Y-87775619D01*
X123658380Y-87870857D01*
X123706000Y-88013714D01*
X123753619Y-88061333D01*
X123658380Y-88394666D02*
X123658380Y-89013714D01*
X124039333Y-88680380D01*
X124039333Y-88823238D01*
X124086952Y-88918476D01*
X124134571Y-88966095D01*
X124229809Y-89013714D01*
X124467904Y-89013714D01*
X124563142Y-88966095D01*
X124610761Y-88918476D01*
X124658380Y-88823238D01*
X124658380Y-88537523D01*
X124610761Y-88442285D01*
X124563142Y-88394666D01*
X168363142Y-67061333D02*
X168410761Y-67013714D01*
X168458380Y-66870857D01*
X168458380Y-66775619D01*
X168410761Y-66632761D01*
X168315523Y-66537523D01*
X168220285Y-66489904D01*
X168029809Y-66442285D01*
X167886952Y-66442285D01*
X167696476Y-66489904D01*
X167601238Y-66537523D01*
X167506000Y-66632761D01*
X167458380Y-66775619D01*
X167458380Y-66870857D01*
X167506000Y-67013714D01*
X167553619Y-67061333D01*
X167458380Y-67394666D02*
X167458380Y-68013714D01*
X167839333Y-67680380D01*
X167839333Y-67823238D01*
X167886952Y-67918476D01*
X167934571Y-67966095D01*
X168029809Y-68013714D01*
X168267904Y-68013714D01*
X168363142Y-67966095D01*
X168410761Y-67918476D01*
X168458380Y-67823238D01*
X168458380Y-67537523D01*
X168410761Y-67442285D01*
X168363142Y-67394666D01*
X124563142Y-67061333D02*
X124610761Y-67013714D01*
X124658380Y-66870857D01*
X124658380Y-66775619D01*
X124610761Y-66632761D01*
X124515523Y-66537523D01*
X124420285Y-66489904D01*
X124229809Y-66442285D01*
X124086952Y-66442285D01*
X123896476Y-66489904D01*
X123801238Y-66537523D01*
X123706000Y-66632761D01*
X123658380Y-66775619D01*
X123658380Y-66870857D01*
X123706000Y-67013714D01*
X123753619Y-67061333D01*
X123658380Y-67394666D02*
X123658380Y-68013714D01*
X124039333Y-67680380D01*
X124039333Y-67823238D01*
X124086952Y-67918476D01*
X124134571Y-67966095D01*
X124229809Y-68013714D01*
X124467904Y-68013714D01*
X124563142Y-67966095D01*
X124610761Y-67918476D01*
X124658380Y-67823238D01*
X124658380Y-67537523D01*
X124610761Y-67442285D01*
X124563142Y-67394666D01*
X168363142Y-46061333D02*
X168410761Y-46013714D01*
X168458380Y-45870857D01*
X168458380Y-45775619D01*
X168410761Y-45632761D01*
X168315523Y-45537523D01*
X168220285Y-45489904D01*
X168029809Y-45442285D01*
X167886952Y-45442285D01*
X167696476Y-45489904D01*
X167601238Y-45537523D01*
X167506000Y-45632761D01*
X167458380Y-45775619D01*
X167458380Y-45870857D01*
X167506000Y-46013714D01*
X167553619Y-46061333D01*
X167458380Y-46394666D02*
X167458380Y-47013714D01*
X167839333Y-46680380D01*
X167839333Y-46823238D01*
X167886952Y-46918476D01*
X167934571Y-46966095D01*
X168029809Y-47013714D01*
X168267904Y-47013714D01*
X168363142Y-46966095D01*
X168410761Y-46918476D01*
X168458380Y-46823238D01*
X168458380Y-46537523D01*
X168410761Y-46442285D01*
X168363142Y-46394666D01*
X179056542Y-114446133D02*
X179104161Y-114398514D01*
X179151780Y-114255657D01*
X179151780Y-114160419D01*
X179104161Y-114017561D01*
X179008923Y-113922323D01*
X178913685Y-113874704D01*
X178723209Y-113827085D01*
X178580352Y-113827085D01*
X178389876Y-113874704D01*
X178294638Y-113922323D01*
X178199400Y-114017561D01*
X178151780Y-114160419D01*
X178151780Y-114255657D01*
X178199400Y-114398514D01*
X178247019Y-114446133D01*
X178247019Y-114827085D02*
X178199400Y-114874704D01*
X178151780Y-114969942D01*
X178151780Y-115208038D01*
X178199400Y-115303276D01*
X178247019Y-115350895D01*
X178342257Y-115398514D01*
X178437495Y-115398514D01*
X178580352Y-115350895D01*
X179151780Y-114779466D01*
X179151780Y-115398514D01*
X135256542Y-114446133D02*
X135304161Y-114398514D01*
X135351780Y-114255657D01*
X135351780Y-114160419D01*
X135304161Y-114017561D01*
X135208923Y-113922323D01*
X135113685Y-113874704D01*
X134923209Y-113827085D01*
X134780352Y-113827085D01*
X134589876Y-113874704D01*
X134494638Y-113922323D01*
X134399400Y-114017561D01*
X134351780Y-114160419D01*
X134351780Y-114255657D01*
X134399400Y-114398514D01*
X134447019Y-114446133D01*
X134447019Y-114827085D02*
X134399400Y-114874704D01*
X134351780Y-114969942D01*
X134351780Y-115208038D01*
X134399400Y-115303276D01*
X134447019Y-115350895D01*
X134542257Y-115398514D01*
X134637495Y-115398514D01*
X134780352Y-115350895D01*
X135351780Y-114779466D01*
X135351780Y-115398514D01*
X179056542Y-93446133D02*
X179104161Y-93398514D01*
X179151780Y-93255657D01*
X179151780Y-93160419D01*
X179104161Y-93017561D01*
X179008923Y-92922323D01*
X178913685Y-92874704D01*
X178723209Y-92827085D01*
X178580352Y-92827085D01*
X178389876Y-92874704D01*
X178294638Y-92922323D01*
X178199400Y-93017561D01*
X178151780Y-93160419D01*
X178151780Y-93255657D01*
X178199400Y-93398514D01*
X178247019Y-93446133D01*
X178247019Y-93827085D02*
X178199400Y-93874704D01*
X178151780Y-93969942D01*
X178151780Y-94208038D01*
X178199400Y-94303276D01*
X178247019Y-94350895D01*
X178342257Y-94398514D01*
X178437495Y-94398514D01*
X178580352Y-94350895D01*
X179151780Y-93779466D01*
X179151780Y-94398514D01*
X135256542Y-93446133D02*
X135304161Y-93398514D01*
X135351780Y-93255657D01*
X135351780Y-93160419D01*
X135304161Y-93017561D01*
X135208923Y-92922323D01*
X135113685Y-92874704D01*
X134923209Y-92827085D01*
X134780352Y-92827085D01*
X134589876Y-92874704D01*
X134494638Y-92922323D01*
X134399400Y-93017561D01*
X134351780Y-93160419D01*
X134351780Y-93255657D01*
X134399400Y-93398514D01*
X134447019Y-93446133D01*
X134447019Y-93827085D02*
X134399400Y-93874704D01*
X134351780Y-93969942D01*
X134351780Y-94208038D01*
X134399400Y-94303276D01*
X134447019Y-94350895D01*
X134542257Y-94398514D01*
X134637495Y-94398514D01*
X134780352Y-94350895D01*
X135351780Y-93779466D01*
X135351780Y-94398514D01*
X179056542Y-72446133D02*
X179104161Y-72398514D01*
X179151780Y-72255657D01*
X179151780Y-72160419D01*
X179104161Y-72017561D01*
X179008923Y-71922323D01*
X178913685Y-71874704D01*
X178723209Y-71827085D01*
X178580352Y-71827085D01*
X178389876Y-71874704D01*
X178294638Y-71922323D01*
X178199400Y-72017561D01*
X178151780Y-72160419D01*
X178151780Y-72255657D01*
X178199400Y-72398514D01*
X178247019Y-72446133D01*
X178247019Y-72827085D02*
X178199400Y-72874704D01*
X178151780Y-72969942D01*
X178151780Y-73208038D01*
X178199400Y-73303276D01*
X178247019Y-73350895D01*
X178342257Y-73398514D01*
X178437495Y-73398514D01*
X178580352Y-73350895D01*
X179151780Y-72779466D01*
X179151780Y-73398514D01*
X135256542Y-72446133D02*
X135304161Y-72398514D01*
X135351780Y-72255657D01*
X135351780Y-72160419D01*
X135304161Y-72017561D01*
X135208923Y-71922323D01*
X135113685Y-71874704D01*
X134923209Y-71827085D01*
X134780352Y-71827085D01*
X134589876Y-71874704D01*
X134494638Y-71922323D01*
X134399400Y-72017561D01*
X134351780Y-72160419D01*
X134351780Y-72255657D01*
X134399400Y-72398514D01*
X134447019Y-72446133D01*
X134447019Y-72827085D02*
X134399400Y-72874704D01*
X134351780Y-72969942D01*
X134351780Y-73208038D01*
X134399400Y-73303276D01*
X134447019Y-73350895D01*
X134542257Y-73398514D01*
X134637495Y-73398514D01*
X134780352Y-73350895D01*
X135351780Y-72779466D01*
X135351780Y-73398514D01*
X179056542Y-51446133D02*
X179104161Y-51398514D01*
X179151780Y-51255657D01*
X179151780Y-51160419D01*
X179104161Y-51017561D01*
X179008923Y-50922323D01*
X178913685Y-50874704D01*
X178723209Y-50827085D01*
X178580352Y-50827085D01*
X178389876Y-50874704D01*
X178294638Y-50922323D01*
X178199400Y-51017561D01*
X178151780Y-51160419D01*
X178151780Y-51255657D01*
X178199400Y-51398514D01*
X178247019Y-51446133D01*
X178247019Y-51827085D02*
X178199400Y-51874704D01*
X178151780Y-51969942D01*
X178151780Y-52208038D01*
X178199400Y-52303276D01*
X178247019Y-52350895D01*
X178342257Y-52398514D01*
X178437495Y-52398514D01*
X178580352Y-52350895D01*
X179151780Y-51779466D01*
X179151780Y-52398514D01*
X110399580Y-49107766D02*
X111113866Y-49107766D01*
X111256723Y-49060147D01*
X111351961Y-48964909D01*
X111399580Y-48822052D01*
X111399580Y-48726814D01*
X110494819Y-49536338D02*
X110447200Y-49583957D01*
X110399580Y-49679195D01*
X110399580Y-49917290D01*
X110447200Y-50012528D01*
X110494819Y-50060147D01*
X110590057Y-50107766D01*
X110685295Y-50107766D01*
X110828152Y-50060147D01*
X111399580Y-49488719D01*
X111399580Y-50107766D01*
X117609880Y-43902333D02*
X117133690Y-43569000D01*
X117609880Y-43330904D02*
X116609880Y-43330904D01*
X116609880Y-43711857D01*
X116657500Y-43807095D01*
X116705119Y-43854714D01*
X116800357Y-43902333D01*
X116943214Y-43902333D01*
X117038452Y-43854714D01*
X117086071Y-43807095D01*
X117133690Y-43711857D01*
X117133690Y-43330904D01*
X116705119Y-44283285D02*
X116657500Y-44330904D01*
X116609880Y-44426142D01*
X116609880Y-44664238D01*
X116657500Y-44759476D01*
X116705119Y-44807095D01*
X116800357Y-44854714D01*
X116895595Y-44854714D01*
X117038452Y-44807095D01*
X117609880Y-44235666D01*
X117609880Y-44854714D01*
X115374680Y-43940433D02*
X114898490Y-43607100D01*
X115374680Y-43369004D02*
X114374680Y-43369004D01*
X114374680Y-43749957D01*
X114422300Y-43845195D01*
X114469919Y-43892814D01*
X114565157Y-43940433D01*
X114708014Y-43940433D01*
X114803252Y-43892814D01*
X114850871Y-43845195D01*
X114898490Y-43749957D01*
X114898490Y-43369004D01*
X115374680Y-44892814D02*
X115374680Y-44321385D01*
X115374680Y-44607100D02*
X114374680Y-44607100D01*
X114517538Y-44511861D01*
X114612776Y-44416623D01*
X114660395Y-44321385D01*
X126925342Y-46112133D02*
X126972961Y-46064514D01*
X127020580Y-45921657D01*
X127020580Y-45826419D01*
X126972961Y-45683561D01*
X126877723Y-45588323D01*
X126782485Y-45540704D01*
X126592009Y-45493085D01*
X126449152Y-45493085D01*
X126258676Y-45540704D01*
X126163438Y-45588323D01*
X126068200Y-45683561D01*
X126020580Y-45826419D01*
X126020580Y-45921657D01*
X126068200Y-46064514D01*
X126115819Y-46112133D01*
X126353914Y-46969276D02*
X127020580Y-46969276D01*
X125972961Y-46731180D02*
X126687247Y-46493085D01*
X126687247Y-47112133D01*
X124563142Y-46061333D02*
X124610761Y-46013714D01*
X124658380Y-45870857D01*
X124658380Y-45775619D01*
X124610761Y-45632761D01*
X124515523Y-45537523D01*
X124420285Y-45489904D01*
X124229809Y-45442285D01*
X124086952Y-45442285D01*
X123896476Y-45489904D01*
X123801238Y-45537523D01*
X123706000Y-45632761D01*
X123658380Y-45775619D01*
X123658380Y-45870857D01*
X123706000Y-46013714D01*
X123753619Y-46061333D01*
X123658380Y-46394666D02*
X123658380Y-47013714D01*
X124039333Y-46680380D01*
X124039333Y-46823238D01*
X124086952Y-46918476D01*
X124134571Y-46966095D01*
X124229809Y-47013714D01*
X124467904Y-47013714D01*
X124563142Y-46966095D01*
X124610761Y-46918476D01*
X124658380Y-46823238D01*
X124658380Y-46537523D01*
X124610761Y-46442285D01*
X124563142Y-46394666D01*
X135256542Y-51446133D02*
X135304161Y-51398514D01*
X135351780Y-51255657D01*
X135351780Y-51160419D01*
X135304161Y-51017561D01*
X135208923Y-50922323D01*
X135113685Y-50874704D01*
X134923209Y-50827085D01*
X134780352Y-50827085D01*
X134589876Y-50874704D01*
X134494638Y-50922323D01*
X134399400Y-51017561D01*
X134351780Y-51160419D01*
X134351780Y-51255657D01*
X134399400Y-51398514D01*
X134447019Y-51446133D01*
X134447019Y-51827085D02*
X134399400Y-51874704D01*
X134351780Y-51969942D01*
X134351780Y-52208038D01*
X134399400Y-52303276D01*
X134447019Y-52350895D01*
X134542257Y-52398514D01*
X134637495Y-52398514D01*
X134780352Y-52350895D01*
X135351780Y-51779466D01*
X135351780Y-52398514D01*
X141466842Y-51357233D02*
X141514461Y-51309614D01*
X141562080Y-51166757D01*
X141562080Y-51071519D01*
X141514461Y-50928661D01*
X141419223Y-50833423D01*
X141323985Y-50785804D01*
X141133509Y-50738185D01*
X140990652Y-50738185D01*
X140800176Y-50785804D01*
X140704938Y-50833423D01*
X140609700Y-50928661D01*
X140562080Y-51071519D01*
X140562080Y-51166757D01*
X140609700Y-51309614D01*
X140657319Y-51357233D01*
X141562080Y-52309614D02*
X141562080Y-51738185D01*
X141562080Y-52023900D02*
X140562080Y-52023900D01*
X140704938Y-51928661D01*
X140800176Y-51833423D01*
X140847795Y-51738185D01*
X104189280Y-51368366D02*
X104903566Y-51368366D01*
X105046423Y-51320747D01*
X105141661Y-51225509D01*
X105189280Y-51082652D01*
X105189280Y-50987414D01*
X105189280Y-52368366D02*
X105189280Y-51796938D01*
X105189280Y-52082652D02*
X104189280Y-52082652D01*
X104332138Y-51987414D01*
X104427376Y-51892176D01*
X104474995Y-51796938D01*
X140054080Y-33947195D02*
X140863604Y-33947195D01*
X140958842Y-33994814D01*
X141006461Y-34042433D01*
X141054080Y-34137671D01*
X141054080Y-34328147D01*
X141006461Y-34423385D01*
X140958842Y-34471004D01*
X140863604Y-34518623D01*
X140054080Y-34518623D01*
X140149319Y-34947195D02*
X140101700Y-34994814D01*
X140054080Y-35090052D01*
X140054080Y-35328147D01*
X140101700Y-35423385D01*
X140149319Y-35471004D01*
X140244557Y-35518623D01*
X140339795Y-35518623D01*
X140482652Y-35471004D01*
X141054080Y-34899576D01*
X141054080Y-35518623D01*
M02*
