G04 #@! TF.GenerationSoftware,KiCad,Pcbnew,5.1.5+dfsg1-2build2*
G04 #@! TF.CreationDate,2021-11-16T17:13:54-05:00*
G04 #@! TF.ProjectId,036INCH_5DIGIT,30333649-4e43-4485-9f35-44494749542e,rev?*
G04 #@! TF.SameCoordinates,Original*
G04 #@! TF.FileFunction,Copper,L1,Top*
G04 #@! TF.FilePolarity,Positive*
%FSLAX46Y46*%
G04 Gerber Fmt 4.6, Leading zero omitted, Abs format (unit mm)*
G04 Created by KiCad (PCBNEW 5.1.5+dfsg1-2build2) date 2021-11-16 17:13:54*
%MOMM*%
%LPD*%
G04 APERTURE LIST*
%ADD10C,1.500000*%
%ADD11R,1.500000X1.500000*%
%ADD12O,1.700000X1.700000*%
%ADD13R,1.700000X1.700000*%
%ADD14C,2.400000*%
%ADD15R,2.400000X2.400000*%
%ADD16C,0.800000*%
%ADD17C,0.250000*%
%ADD18C,0.254000*%
G04 APERTURE END LIST*
D10*
X114300000Y-105778300D03*
X116840000Y-105778300D03*
X119380000Y-105778300D03*
X121920000Y-105778300D03*
X124460000Y-105778300D03*
X127000000Y-105778300D03*
X129540000Y-105778300D03*
X129540000Y-115938300D03*
X127000000Y-115938300D03*
X124460000Y-115938300D03*
X121920000Y-115938300D03*
X119380000Y-115938300D03*
X116840000Y-115938300D03*
D11*
X114300000Y-115938300D03*
D12*
X111480600Y-114706400D03*
X111480600Y-112166400D03*
X111480600Y-109626400D03*
D13*
X111480600Y-107086400D03*
D14*
X105486200Y-116138600D03*
X105486200Y-112638600D03*
X105486200Y-109138600D03*
D15*
X105486200Y-105638600D03*
D16*
X121932700Y-101598900D03*
X124409200Y-100799900D03*
X136207500Y-100625012D03*
X139280900Y-106375200D03*
X136569674Y-107737280D03*
X135078300Y-116446300D03*
X118935500Y-118351300D03*
X133413500Y-112090200D03*
X134353300Y-111302800D03*
X138963400Y-114007900D03*
X125399800Y-108357500D03*
X119773700Y-109423200D03*
X120230900Y-112217200D03*
X138658600Y-112725200D03*
X128943100Y-108229400D03*
D17*
X121932700Y-105765600D02*
X121920000Y-105778300D01*
X121932700Y-101598900D02*
X121932700Y-105765600D01*
X124409200Y-105727500D02*
X124460000Y-105778300D01*
X124409200Y-100799900D02*
X124409200Y-105727500D01*
X131054212Y-105778300D02*
X135807501Y-101025011D01*
X129540000Y-105778300D02*
X131054212Y-105778300D01*
X135807501Y-101025011D02*
X136207500Y-100625012D01*
X137931754Y-106375200D02*
X136569674Y-107737280D01*
X139280900Y-106375200D02*
X137931754Y-106375200D01*
X135078300Y-117011985D02*
X135013700Y-117076585D01*
X135078300Y-116446300D02*
X135078300Y-117011985D01*
X135013700Y-117076585D02*
X135013700Y-118249700D01*
X118935500Y-118916985D02*
X119817615Y-119799100D01*
X118935500Y-118351300D02*
X118935500Y-118916985D01*
X133464300Y-119799100D02*
X133534150Y-119729250D01*
X119817615Y-119799100D02*
X133464300Y-119799100D01*
X133534150Y-119729250D02*
X133438900Y-119824500D01*
X135013700Y-118249700D02*
X133534150Y-119729250D01*
X125984000Y-117462300D02*
X124460000Y-115938300D01*
X132626100Y-117462300D02*
X125984000Y-117462300D01*
X133413500Y-116674900D02*
X132626100Y-117462300D01*
X133413500Y-112090200D02*
X133413500Y-116674900D01*
X120675400Y-117233700D02*
X119380000Y-115938300D01*
X124155200Y-118110000D02*
X123278900Y-117233700D01*
X123278900Y-117233700D02*
X120675400Y-117233700D01*
X132880100Y-118110000D02*
X124155200Y-118110000D01*
X134353300Y-116636800D02*
X132880100Y-118110000D01*
X134353300Y-111302800D02*
X134353300Y-116636800D01*
X138397715Y-114007900D02*
X133946900Y-109557085D01*
X138963400Y-114007900D02*
X138397715Y-114007900D01*
X133946900Y-109557085D02*
X128708685Y-109557085D01*
X127509100Y-108357500D02*
X125399800Y-108357500D01*
X128708685Y-109557085D02*
X127509100Y-108357500D01*
X120339385Y-109423200D02*
X121005600Y-110089415D01*
X119773700Y-109423200D02*
X120339385Y-109423200D01*
X121005600Y-111442500D02*
X120230900Y-112217200D01*
X121005600Y-110089415D02*
X121005600Y-111442500D01*
X138092915Y-112725200D02*
X137579100Y-112211385D01*
X138658600Y-112725200D02*
X138092915Y-112725200D01*
X137579100Y-112211385D02*
X137579100Y-111340900D01*
X134467600Y-108229400D02*
X128943100Y-108229400D01*
X137579100Y-111340900D02*
X134467600Y-108229400D01*
D18*
G36*
X121442444Y-100681695D02*
G01*
X121272926Y-100794963D01*
X121128763Y-100939126D01*
X121015495Y-101108644D01*
X120937474Y-101297002D01*
X120897700Y-101496961D01*
X120897700Y-101700839D01*
X120937474Y-101900798D01*
X121015495Y-102089156D01*
X121128763Y-102258674D01*
X121172700Y-102302611D01*
X121172701Y-104611905D01*
X121037114Y-104702501D01*
X120844201Y-104895414D01*
X120692629Y-105122257D01*
X120650000Y-105225173D01*
X120607371Y-105122257D01*
X120455799Y-104895414D01*
X120262886Y-104702501D01*
X120036043Y-104550929D01*
X119783989Y-104446525D01*
X119516411Y-104393300D01*
X119243589Y-104393300D01*
X118976011Y-104446525D01*
X118723957Y-104550929D01*
X118497114Y-104702501D01*
X118304201Y-104895414D01*
X118152629Y-105122257D01*
X118110000Y-105225173D01*
X118067371Y-105122257D01*
X117915799Y-104895414D01*
X117722886Y-104702501D01*
X117496043Y-104550929D01*
X117243989Y-104446525D01*
X116976411Y-104393300D01*
X116703589Y-104393300D01*
X116436011Y-104446525D01*
X116183957Y-104550929D01*
X115957114Y-104702501D01*
X115764201Y-104895414D01*
X115612629Y-105122257D01*
X115570000Y-105225173D01*
X115527371Y-105122257D01*
X115375799Y-104895414D01*
X115182886Y-104702501D01*
X114956043Y-104550929D01*
X114703989Y-104446525D01*
X114436411Y-104393300D01*
X114163589Y-104393300D01*
X113896011Y-104446525D01*
X113643957Y-104550929D01*
X113417114Y-104702501D01*
X113224201Y-104895414D01*
X113072629Y-105122257D01*
X112968225Y-105374311D01*
X112915000Y-105641889D01*
X112915000Y-105914711D01*
X112950066Y-106090998D01*
X112920102Y-105992220D01*
X112861137Y-105881906D01*
X112781785Y-105785215D01*
X112685094Y-105705863D01*
X112574780Y-105646898D01*
X112455082Y-105610588D01*
X112330600Y-105598328D01*
X110630600Y-105598328D01*
X110506118Y-105610588D01*
X110386420Y-105646898D01*
X110276106Y-105705863D01*
X110179415Y-105785215D01*
X110100063Y-105881906D01*
X110041098Y-105992220D01*
X110004788Y-106111918D01*
X109992528Y-106236400D01*
X109992528Y-107936400D01*
X110004788Y-108060882D01*
X110041098Y-108180580D01*
X110100063Y-108290894D01*
X110179415Y-108387585D01*
X110276106Y-108466937D01*
X110386420Y-108525902D01*
X110458980Y-108547913D01*
X110327125Y-108679768D01*
X110164610Y-108922989D01*
X110052668Y-109193242D01*
X109995600Y-109480140D01*
X109995600Y-109772660D01*
X110052668Y-110059558D01*
X110164610Y-110329811D01*
X110327125Y-110573032D01*
X110533968Y-110779875D01*
X110708360Y-110896400D01*
X110533968Y-111012925D01*
X110327125Y-111219768D01*
X110164610Y-111462989D01*
X110052668Y-111733242D01*
X109995600Y-112020140D01*
X109995600Y-112312660D01*
X110052668Y-112599558D01*
X110164610Y-112869811D01*
X110327125Y-113113032D01*
X110533968Y-113319875D01*
X110716134Y-113441595D01*
X110599245Y-113511222D01*
X110383012Y-113706131D01*
X110208959Y-113939480D01*
X110083775Y-114202301D01*
X110039124Y-114349510D01*
X110160445Y-114579400D01*
X111353600Y-114579400D01*
X111353600Y-114559400D01*
X111607600Y-114559400D01*
X111607600Y-114579400D01*
X112800755Y-114579400D01*
X112922076Y-114349510D01*
X112877425Y-114202301D01*
X112752241Y-113939480D01*
X112578188Y-113706131D01*
X112361955Y-113511222D01*
X112245066Y-113441595D01*
X112427232Y-113319875D01*
X112634075Y-113113032D01*
X112796590Y-112869811D01*
X112908532Y-112599558D01*
X112965600Y-112312660D01*
X112965600Y-112020140D01*
X112908532Y-111733242D01*
X112796590Y-111462989D01*
X112634075Y-111219768D01*
X112427232Y-111012925D01*
X112252840Y-110896400D01*
X112427232Y-110779875D01*
X112634075Y-110573032D01*
X112796590Y-110329811D01*
X112908532Y-110059558D01*
X112965600Y-109772660D01*
X112965600Y-109480140D01*
X112933997Y-109321261D01*
X118738700Y-109321261D01*
X118738700Y-109525139D01*
X118778474Y-109725098D01*
X118856495Y-109913456D01*
X118969763Y-110082974D01*
X119113926Y-110227137D01*
X119283444Y-110340405D01*
X119471802Y-110418426D01*
X119671761Y-110458200D01*
X119875639Y-110458200D01*
X120075598Y-110418426D01*
X120205855Y-110364471D01*
X120245600Y-110404217D01*
X120245601Y-111127698D01*
X120191098Y-111182200D01*
X120128961Y-111182200D01*
X119929002Y-111221974D01*
X119740644Y-111299995D01*
X119571126Y-111413263D01*
X119426963Y-111557426D01*
X119313695Y-111726944D01*
X119235674Y-111915302D01*
X119195900Y-112115261D01*
X119195900Y-112319139D01*
X119235674Y-112519098D01*
X119313695Y-112707456D01*
X119426963Y-112876974D01*
X119571126Y-113021137D01*
X119740644Y-113134405D01*
X119929002Y-113212426D01*
X120128961Y-113252200D01*
X120332839Y-113252200D01*
X120532798Y-113212426D01*
X120721156Y-113134405D01*
X120890674Y-113021137D01*
X121034837Y-112876974D01*
X121148105Y-112707456D01*
X121226126Y-112519098D01*
X121265900Y-112319139D01*
X121265900Y-112257002D01*
X121516602Y-112006299D01*
X121545601Y-111982501D01*
X121640574Y-111866776D01*
X121711146Y-111734747D01*
X121754603Y-111591486D01*
X121765600Y-111479833D01*
X121765600Y-111479824D01*
X121769276Y-111442501D01*
X121765600Y-111405178D01*
X121765600Y-110126737D01*
X121769276Y-110089414D01*
X121765600Y-110052091D01*
X121765600Y-110052082D01*
X121754603Y-109940429D01*
X121711146Y-109797168D01*
X121640574Y-109665139D01*
X121545601Y-109549414D01*
X121516604Y-109525617D01*
X120903188Y-108912202D01*
X120879386Y-108883199D01*
X120763661Y-108788226D01*
X120631632Y-108717654D01*
X120488424Y-108674213D01*
X120433474Y-108619263D01*
X120263956Y-108505995D01*
X120075598Y-108427974D01*
X119875639Y-108388200D01*
X119671761Y-108388200D01*
X119471802Y-108427974D01*
X119283444Y-108505995D01*
X119113926Y-108619263D01*
X118969763Y-108763426D01*
X118856495Y-108932944D01*
X118778474Y-109121302D01*
X118738700Y-109321261D01*
X112933997Y-109321261D01*
X112908532Y-109193242D01*
X112796590Y-108922989D01*
X112634075Y-108679768D01*
X112502220Y-108547913D01*
X112574780Y-108525902D01*
X112685094Y-108466937D01*
X112781785Y-108387585D01*
X112861137Y-108290894D01*
X112920102Y-108180580D01*
X112956412Y-108060882D01*
X112968672Y-107936400D01*
X112968672Y-106236400D01*
X112958555Y-106133673D01*
X112968225Y-106182289D01*
X113072629Y-106434343D01*
X113224201Y-106661186D01*
X113417114Y-106854099D01*
X113643957Y-107005671D01*
X113896011Y-107110075D01*
X114163589Y-107163300D01*
X114436411Y-107163300D01*
X114703989Y-107110075D01*
X114956043Y-107005671D01*
X115182886Y-106854099D01*
X115375799Y-106661186D01*
X115527371Y-106434343D01*
X115570000Y-106331427D01*
X115612629Y-106434343D01*
X115764201Y-106661186D01*
X115957114Y-106854099D01*
X116183957Y-107005671D01*
X116436011Y-107110075D01*
X116703589Y-107163300D01*
X116976411Y-107163300D01*
X117243989Y-107110075D01*
X117496043Y-107005671D01*
X117722886Y-106854099D01*
X117915799Y-106661186D01*
X118067371Y-106434343D01*
X118110000Y-106331427D01*
X118152629Y-106434343D01*
X118304201Y-106661186D01*
X118497114Y-106854099D01*
X118723957Y-107005671D01*
X118976011Y-107110075D01*
X119243589Y-107163300D01*
X119516411Y-107163300D01*
X119783989Y-107110075D01*
X120036043Y-107005671D01*
X120262886Y-106854099D01*
X120455799Y-106661186D01*
X120607371Y-106434343D01*
X120650000Y-106331427D01*
X120692629Y-106434343D01*
X120844201Y-106661186D01*
X121037114Y-106854099D01*
X121263957Y-107005671D01*
X121516011Y-107110075D01*
X121783589Y-107163300D01*
X122056411Y-107163300D01*
X122323989Y-107110075D01*
X122576043Y-107005671D01*
X122802886Y-106854099D01*
X122995799Y-106661186D01*
X123147371Y-106434343D01*
X123190000Y-106331427D01*
X123232629Y-106434343D01*
X123384201Y-106661186D01*
X123577114Y-106854099D01*
X123803957Y-107005671D01*
X124056011Y-107110075D01*
X124323589Y-107163300D01*
X124596411Y-107163300D01*
X124863989Y-107110075D01*
X125116043Y-107005671D01*
X125342886Y-106854099D01*
X125535799Y-106661186D01*
X125687371Y-106434343D01*
X125730000Y-106331427D01*
X125772629Y-106434343D01*
X125924201Y-106661186D01*
X126117114Y-106854099D01*
X126343957Y-107005671D01*
X126596011Y-107110075D01*
X126863589Y-107163300D01*
X127136411Y-107163300D01*
X127403989Y-107110075D01*
X127656043Y-107005671D01*
X127882886Y-106854099D01*
X128075799Y-106661186D01*
X128227371Y-106434343D01*
X128270000Y-106331427D01*
X128312629Y-106434343D01*
X128464201Y-106661186D01*
X128657114Y-106854099D01*
X128883957Y-107005671D01*
X129136011Y-107110075D01*
X129403589Y-107163300D01*
X129676411Y-107163300D01*
X129943989Y-107110075D01*
X130196043Y-107005671D01*
X130422886Y-106854099D01*
X130615799Y-106661186D01*
X130697909Y-106538300D01*
X131016890Y-106538300D01*
X131054212Y-106541976D01*
X131091534Y-106538300D01*
X131091545Y-106538300D01*
X131203198Y-106527303D01*
X131346459Y-106483846D01*
X131478488Y-106413274D01*
X131594213Y-106318301D01*
X131618016Y-106289297D01*
X136247302Y-101660012D01*
X136309439Y-101660012D01*
X136509398Y-101620238D01*
X136697756Y-101542217D01*
X136867274Y-101428949D01*
X137011437Y-101284786D01*
X137124705Y-101115268D01*
X137202726Y-100926910D01*
X137242500Y-100726951D01*
X137242500Y-100660000D01*
X141840001Y-100660000D01*
X141840000Y-107967581D01*
X141836807Y-108000000D01*
X141849550Y-108129383D01*
X141887290Y-108253793D01*
X141948575Y-108368450D01*
X142009614Y-108442826D01*
X142031052Y-108468948D01*
X142131550Y-108551425D01*
X142246207Y-108612710D01*
X142370617Y-108650450D01*
X142500000Y-108663193D01*
X142532419Y-108660000D01*
X143140000Y-108660000D01*
X143140001Y-112340000D01*
X142532419Y-112340000D01*
X142500000Y-112336807D01*
X142467581Y-112340000D01*
X142370617Y-112349550D01*
X142246207Y-112387290D01*
X142131550Y-112448575D01*
X142031052Y-112531052D01*
X141948575Y-112631550D01*
X141887290Y-112746207D01*
X141849550Y-112870617D01*
X141836807Y-113000000D01*
X141840000Y-113032419D01*
X141840001Y-120340000D01*
X134003206Y-120340000D01*
X134004301Y-120339101D01*
X134028104Y-120310097D01*
X134097949Y-120240252D01*
X135524703Y-118813499D01*
X135553701Y-118789701D01*
X135648674Y-118673976D01*
X135719246Y-118541947D01*
X135762703Y-118398686D01*
X135773700Y-118287033D01*
X135773700Y-118287025D01*
X135777376Y-118249700D01*
X135773700Y-118212375D01*
X135773700Y-117323214D01*
X135783846Y-117304232D01*
X135827287Y-117161024D01*
X135882237Y-117106074D01*
X135995505Y-116936556D01*
X136073526Y-116748198D01*
X136113300Y-116548239D01*
X136113300Y-116344361D01*
X136073526Y-116144402D01*
X135995505Y-115956044D01*
X135882237Y-115786526D01*
X135738074Y-115642363D01*
X135568556Y-115529095D01*
X135380198Y-115451074D01*
X135180239Y-115411300D01*
X135113300Y-115411300D01*
X135113300Y-112006511D01*
X135157237Y-111962574D01*
X135205443Y-111890429D01*
X137833916Y-114518903D01*
X137857714Y-114547901D01*
X137886712Y-114571699D01*
X137973438Y-114642874D01*
X138100759Y-114710929D01*
X138105468Y-114713446D01*
X138248676Y-114756887D01*
X138303626Y-114811837D01*
X138473144Y-114925105D01*
X138661502Y-115003126D01*
X138861461Y-115042900D01*
X139065339Y-115042900D01*
X139265298Y-115003126D01*
X139453656Y-114925105D01*
X139623174Y-114811837D01*
X139767337Y-114667674D01*
X139880605Y-114498156D01*
X139958626Y-114309798D01*
X139998400Y-114109839D01*
X139998400Y-113905961D01*
X139958626Y-113706002D01*
X139880605Y-113517644D01*
X139767337Y-113348126D01*
X139623174Y-113203963D01*
X139589802Y-113181665D01*
X139653826Y-113027098D01*
X139693600Y-112827139D01*
X139693600Y-112623261D01*
X139653826Y-112423302D01*
X139575805Y-112234944D01*
X139462537Y-112065426D01*
X139318374Y-111921263D01*
X139148856Y-111807995D01*
X138960498Y-111729974D01*
X138760539Y-111690200D01*
X138556661Y-111690200D01*
X138356702Y-111729974D01*
X138339100Y-111737265D01*
X138339100Y-111378222D01*
X138342776Y-111340899D01*
X138339100Y-111303576D01*
X138339100Y-111303567D01*
X138328103Y-111191914D01*
X138284646Y-111048653D01*
X138214074Y-110916624D01*
X138200911Y-110900585D01*
X138142899Y-110829896D01*
X138142895Y-110829892D01*
X138119101Y-110800899D01*
X138090108Y-110777105D01*
X135031404Y-107718403D01*
X135007601Y-107689399D01*
X134941732Y-107635341D01*
X135534674Y-107635341D01*
X135534674Y-107839219D01*
X135574448Y-108039178D01*
X135652469Y-108227536D01*
X135765737Y-108397054D01*
X135909900Y-108541217D01*
X136079418Y-108654485D01*
X136267776Y-108732506D01*
X136467735Y-108772280D01*
X136671613Y-108772280D01*
X136871572Y-108732506D01*
X137059930Y-108654485D01*
X137229448Y-108541217D01*
X137373611Y-108397054D01*
X137486879Y-108227536D01*
X137564900Y-108039178D01*
X137604674Y-107839219D01*
X137604674Y-107777081D01*
X138246556Y-107135200D01*
X138577189Y-107135200D01*
X138621126Y-107179137D01*
X138790644Y-107292405D01*
X138979002Y-107370426D01*
X139178961Y-107410200D01*
X139382839Y-107410200D01*
X139582798Y-107370426D01*
X139771156Y-107292405D01*
X139940674Y-107179137D01*
X140084837Y-107034974D01*
X140198105Y-106865456D01*
X140276126Y-106677098D01*
X140315900Y-106477139D01*
X140315900Y-106273261D01*
X140276126Y-106073302D01*
X140198105Y-105884944D01*
X140084837Y-105715426D01*
X139940674Y-105571263D01*
X139771156Y-105457995D01*
X139582798Y-105379974D01*
X139382839Y-105340200D01*
X139178961Y-105340200D01*
X138979002Y-105379974D01*
X138790644Y-105457995D01*
X138621126Y-105571263D01*
X138577189Y-105615200D01*
X137969076Y-105615200D01*
X137931753Y-105611524D01*
X137894431Y-105615200D01*
X137894421Y-105615200D01*
X137782768Y-105626197D01*
X137639507Y-105669654D01*
X137507477Y-105740226D01*
X137431069Y-105802933D01*
X137391753Y-105835199D01*
X137367955Y-105864197D01*
X136529873Y-106702280D01*
X136467735Y-106702280D01*
X136267776Y-106742054D01*
X136079418Y-106820075D01*
X135909900Y-106933343D01*
X135765737Y-107077506D01*
X135652469Y-107247024D01*
X135574448Y-107435382D01*
X135534674Y-107635341D01*
X134941732Y-107635341D01*
X134891876Y-107594426D01*
X134759847Y-107523854D01*
X134616586Y-107480397D01*
X134504933Y-107469400D01*
X134504922Y-107469400D01*
X134467600Y-107465724D01*
X134430278Y-107469400D01*
X129646811Y-107469400D01*
X129602874Y-107425463D01*
X129433356Y-107312195D01*
X129244998Y-107234174D01*
X129045039Y-107194400D01*
X128841161Y-107194400D01*
X128641202Y-107234174D01*
X128452844Y-107312195D01*
X128283326Y-107425463D01*
X128139163Y-107569626D01*
X128025895Y-107739144D01*
X128007560Y-107783407D01*
X127933376Y-107722526D01*
X127801347Y-107651954D01*
X127658086Y-107608497D01*
X127546433Y-107597500D01*
X127546422Y-107597500D01*
X127509100Y-107593824D01*
X127471778Y-107597500D01*
X126103511Y-107597500D01*
X126059574Y-107553563D01*
X125890056Y-107440295D01*
X125701698Y-107362274D01*
X125501739Y-107322500D01*
X125297861Y-107322500D01*
X125097902Y-107362274D01*
X124909544Y-107440295D01*
X124740026Y-107553563D01*
X124595863Y-107697726D01*
X124482595Y-107867244D01*
X124404574Y-108055602D01*
X124364800Y-108255561D01*
X124364800Y-108459439D01*
X124404574Y-108659398D01*
X124482595Y-108847756D01*
X124595863Y-109017274D01*
X124740026Y-109161437D01*
X124909544Y-109274705D01*
X125097902Y-109352726D01*
X125297861Y-109392500D01*
X125501739Y-109392500D01*
X125701698Y-109352726D01*
X125890056Y-109274705D01*
X126059574Y-109161437D01*
X126103511Y-109117500D01*
X127194299Y-109117500D01*
X128144890Y-110068093D01*
X128168684Y-110097086D01*
X128197677Y-110120880D01*
X128197681Y-110120884D01*
X128260214Y-110172203D01*
X128284409Y-110192059D01*
X128416438Y-110262631D01*
X128559699Y-110306088D01*
X128671352Y-110317085D01*
X128671361Y-110317085D01*
X128708684Y-110320761D01*
X128746007Y-110317085D01*
X133632099Y-110317085D01*
X133765671Y-110450657D01*
X133693526Y-110498863D01*
X133549363Y-110643026D01*
X133436095Y-110812544D01*
X133358074Y-111000902D01*
X133347274Y-111055200D01*
X133311561Y-111055200D01*
X133111602Y-111094974D01*
X132923244Y-111172995D01*
X132753726Y-111286263D01*
X132609563Y-111430426D01*
X132496295Y-111599944D01*
X132418274Y-111788302D01*
X132378500Y-111988261D01*
X132378500Y-112192139D01*
X132418274Y-112392098D01*
X132496295Y-112580456D01*
X132609563Y-112749974D01*
X132653500Y-112793911D01*
X132653501Y-116360097D01*
X132311299Y-116702300D01*
X130695236Y-116702300D01*
X130767371Y-116594343D01*
X130871775Y-116342289D01*
X130925000Y-116074711D01*
X130925000Y-115801889D01*
X130871775Y-115534311D01*
X130767371Y-115282257D01*
X130615799Y-115055414D01*
X130422886Y-114862501D01*
X130196043Y-114710929D01*
X129943989Y-114606525D01*
X129676411Y-114553300D01*
X129403589Y-114553300D01*
X129136011Y-114606525D01*
X128883957Y-114710929D01*
X128657114Y-114862501D01*
X128464201Y-115055414D01*
X128312629Y-115282257D01*
X128270000Y-115385173D01*
X128227371Y-115282257D01*
X128075799Y-115055414D01*
X127882886Y-114862501D01*
X127656043Y-114710929D01*
X127403989Y-114606525D01*
X127136411Y-114553300D01*
X126863589Y-114553300D01*
X126596011Y-114606525D01*
X126343957Y-114710929D01*
X126117114Y-114862501D01*
X125924201Y-115055414D01*
X125772629Y-115282257D01*
X125730000Y-115385173D01*
X125687371Y-115282257D01*
X125535799Y-115055414D01*
X125342886Y-114862501D01*
X125116043Y-114710929D01*
X124863989Y-114606525D01*
X124596411Y-114553300D01*
X124323589Y-114553300D01*
X124056011Y-114606525D01*
X123803957Y-114710929D01*
X123577114Y-114862501D01*
X123384201Y-115055414D01*
X123232629Y-115282257D01*
X123190000Y-115385173D01*
X123147371Y-115282257D01*
X122995799Y-115055414D01*
X122802886Y-114862501D01*
X122576043Y-114710929D01*
X122323989Y-114606525D01*
X122056411Y-114553300D01*
X121783589Y-114553300D01*
X121516011Y-114606525D01*
X121263957Y-114710929D01*
X121037114Y-114862501D01*
X120844201Y-115055414D01*
X120692629Y-115282257D01*
X120650000Y-115385173D01*
X120607371Y-115282257D01*
X120455799Y-115055414D01*
X120262886Y-114862501D01*
X120036043Y-114710929D01*
X119783989Y-114606525D01*
X119516411Y-114553300D01*
X119243589Y-114553300D01*
X118976011Y-114606525D01*
X118723957Y-114710929D01*
X118497114Y-114862501D01*
X118304201Y-115055414D01*
X118152629Y-115282257D01*
X118110000Y-115385173D01*
X118067371Y-115282257D01*
X117915799Y-115055414D01*
X117722886Y-114862501D01*
X117496043Y-114710929D01*
X117243989Y-114606525D01*
X116976411Y-114553300D01*
X116703589Y-114553300D01*
X116436011Y-114606525D01*
X116183957Y-114710929D01*
X115957114Y-114862501D01*
X115764201Y-115055414D01*
X115686445Y-115171783D01*
X115675812Y-115063818D01*
X115639502Y-114944120D01*
X115580537Y-114833806D01*
X115501185Y-114737115D01*
X115404494Y-114657763D01*
X115294180Y-114598798D01*
X115174482Y-114562488D01*
X115050000Y-114550228D01*
X113550000Y-114550228D01*
X113425518Y-114562488D01*
X113305820Y-114598798D01*
X113195506Y-114657763D01*
X113098815Y-114737115D01*
X113019463Y-114833806D01*
X112960498Y-114944120D01*
X112924188Y-115063818D01*
X112911928Y-115188300D01*
X112911928Y-116688300D01*
X112924188Y-116812782D01*
X112960498Y-116932480D01*
X113019463Y-117042794D01*
X113098815Y-117139485D01*
X113195506Y-117218837D01*
X113305820Y-117277802D01*
X113425518Y-117314112D01*
X113550000Y-117326372D01*
X115050000Y-117326372D01*
X115174482Y-117314112D01*
X115294180Y-117277802D01*
X115404494Y-117218837D01*
X115501185Y-117139485D01*
X115580537Y-117042794D01*
X115639502Y-116932480D01*
X115675812Y-116812782D01*
X115686445Y-116704817D01*
X115764201Y-116821186D01*
X115957114Y-117014099D01*
X116183957Y-117165671D01*
X116436011Y-117270075D01*
X116703589Y-117323300D01*
X116976411Y-117323300D01*
X117243989Y-117270075D01*
X117496043Y-117165671D01*
X117722886Y-117014099D01*
X117915799Y-116821186D01*
X118067371Y-116594343D01*
X118110000Y-116491427D01*
X118152629Y-116594343D01*
X118304201Y-116821186D01*
X118497114Y-117014099D01*
X118723957Y-117165671D01*
X118976011Y-117270075D01*
X119243589Y-117323300D01*
X119516411Y-117323300D01*
X119661365Y-117294467D01*
X120111600Y-117744702D01*
X120135399Y-117773701D01*
X120251124Y-117868674D01*
X120383153Y-117939246D01*
X120526414Y-117982703D01*
X120638067Y-117993700D01*
X120638076Y-117993700D01*
X120675399Y-117997376D01*
X120712722Y-117993700D01*
X122964099Y-117993700D01*
X123591401Y-118621003D01*
X123615199Y-118650001D01*
X123730924Y-118744974D01*
X123862953Y-118815546D01*
X124006214Y-118859003D01*
X124117867Y-118870000D01*
X124117876Y-118870000D01*
X124155199Y-118873676D01*
X124192522Y-118870000D01*
X132842778Y-118870000D01*
X132880100Y-118873676D01*
X132917422Y-118870000D01*
X132917433Y-118870000D01*
X133029086Y-118859003D01*
X133172347Y-118815546D01*
X133304376Y-118744974D01*
X133420101Y-118650001D01*
X133443903Y-118620998D01*
X134253701Y-117811202D01*
X134253701Y-117934897D01*
X133149499Y-119039100D01*
X120132417Y-119039100D01*
X119876771Y-118783455D01*
X119930726Y-118653198D01*
X119970500Y-118453239D01*
X119970500Y-118249361D01*
X119930726Y-118049402D01*
X119852705Y-117861044D01*
X119739437Y-117691526D01*
X119595274Y-117547363D01*
X119425756Y-117434095D01*
X119237398Y-117356074D01*
X119037439Y-117316300D01*
X118833561Y-117316300D01*
X118633602Y-117356074D01*
X118445244Y-117434095D01*
X118275726Y-117547363D01*
X118131563Y-117691526D01*
X118018295Y-117861044D01*
X117940274Y-118049402D01*
X117900500Y-118249361D01*
X117900500Y-118453239D01*
X117940274Y-118653198D01*
X118018295Y-118841556D01*
X118131563Y-119011074D01*
X118186513Y-119066024D01*
X118229954Y-119209232D01*
X118254537Y-119255221D01*
X118300526Y-119341261D01*
X118371701Y-119427987D01*
X118395500Y-119456986D01*
X118424498Y-119480784D01*
X119253816Y-120310103D01*
X119277614Y-120339101D01*
X119278709Y-120340000D01*
X101960000Y-120340000D01*
X101960000Y-117416580D01*
X104387826Y-117416580D01*
X104507714Y-117701436D01*
X104831410Y-117862299D01*
X105180269Y-117956922D01*
X105540884Y-117981667D01*
X105899398Y-117935585D01*
X106242033Y-117820446D01*
X106464686Y-117701436D01*
X106584574Y-117416580D01*
X105486200Y-116318205D01*
X104387826Y-117416580D01*
X101960000Y-117416580D01*
X101960000Y-116193284D01*
X103643133Y-116193284D01*
X103689215Y-116551798D01*
X103804354Y-116894433D01*
X103923364Y-117117086D01*
X104208220Y-117236974D01*
X105306595Y-116138600D01*
X105665805Y-116138600D01*
X106764180Y-117236974D01*
X107049036Y-117117086D01*
X107209899Y-116793390D01*
X107304522Y-116444531D01*
X107329267Y-116083916D01*
X107283185Y-115725402D01*
X107168046Y-115382767D01*
X107049036Y-115160114D01*
X106818981Y-115063290D01*
X110039124Y-115063290D01*
X110083775Y-115210499D01*
X110208959Y-115473320D01*
X110383012Y-115706669D01*
X110599245Y-115901578D01*
X110849348Y-116050557D01*
X111123709Y-116147881D01*
X111353600Y-116027214D01*
X111353600Y-114833400D01*
X111607600Y-114833400D01*
X111607600Y-116027214D01*
X111837491Y-116147881D01*
X112111852Y-116050557D01*
X112361955Y-115901578D01*
X112578188Y-115706669D01*
X112752241Y-115473320D01*
X112877425Y-115210499D01*
X112922076Y-115063290D01*
X112800755Y-114833400D01*
X111607600Y-114833400D01*
X111353600Y-114833400D01*
X110160445Y-114833400D01*
X110039124Y-115063290D01*
X106818981Y-115063290D01*
X106764180Y-115040226D01*
X105665805Y-116138600D01*
X105306595Y-116138600D01*
X104208220Y-115040226D01*
X103923364Y-115160114D01*
X103762501Y-115483810D01*
X103667878Y-115832669D01*
X103643133Y-116193284D01*
X101960000Y-116193284D01*
X101960000Y-113032419D01*
X101963193Y-113000000D01*
X101950450Y-112870617D01*
X101912710Y-112746207D01*
X101851425Y-112631550D01*
X101768948Y-112531052D01*
X101668450Y-112448575D01*
X101553793Y-112387290D01*
X101429383Y-112349550D01*
X101332419Y-112340000D01*
X101300000Y-112336807D01*
X101267581Y-112340000D01*
X100660000Y-112340000D01*
X100660000Y-108660000D01*
X101267581Y-108660000D01*
X101300000Y-108663193D01*
X101332419Y-108660000D01*
X101429383Y-108650450D01*
X101553793Y-108612710D01*
X101668450Y-108551425D01*
X101768948Y-108468948D01*
X101851425Y-108368450D01*
X101912710Y-108253793D01*
X101950450Y-108129383D01*
X101963193Y-108000000D01*
X101960000Y-107967581D01*
X101960000Y-104438600D01*
X103648128Y-104438600D01*
X103648128Y-106838600D01*
X103660388Y-106963082D01*
X103696698Y-107082780D01*
X103755663Y-107193094D01*
X103835015Y-107289785D01*
X103931706Y-107369137D01*
X104042020Y-107428102D01*
X104161718Y-107464412D01*
X104286200Y-107476672D01*
X104703362Y-107476672D01*
X104617001Y-107512444D01*
X104316456Y-107713262D01*
X104060862Y-107968856D01*
X103860044Y-108269401D01*
X103721718Y-108603350D01*
X103651200Y-108957868D01*
X103651200Y-109319332D01*
X103721718Y-109673850D01*
X103860044Y-110007799D01*
X104060862Y-110308344D01*
X104316456Y-110563938D01*
X104617001Y-110764756D01*
X104915987Y-110888600D01*
X104617001Y-111012444D01*
X104316456Y-111213262D01*
X104060862Y-111468856D01*
X103860044Y-111769401D01*
X103721718Y-112103350D01*
X103651200Y-112457868D01*
X103651200Y-112819332D01*
X103721718Y-113173850D01*
X103860044Y-113507799D01*
X104060862Y-113808344D01*
X104316456Y-114063938D01*
X104617001Y-114264756D01*
X104923689Y-114391790D01*
X104730367Y-114456754D01*
X104507714Y-114575764D01*
X104387826Y-114860620D01*
X105486200Y-115958995D01*
X106584574Y-114860620D01*
X106464686Y-114575764D01*
X106140990Y-114414901D01*
X106051510Y-114390631D01*
X106355399Y-114264756D01*
X106655944Y-114063938D01*
X106911538Y-113808344D01*
X107112356Y-113507799D01*
X107250682Y-113173850D01*
X107321200Y-112819332D01*
X107321200Y-112457868D01*
X107250682Y-112103350D01*
X107112356Y-111769401D01*
X106911538Y-111468856D01*
X106655944Y-111213262D01*
X106355399Y-111012444D01*
X106056413Y-110888600D01*
X106355399Y-110764756D01*
X106655944Y-110563938D01*
X106911538Y-110308344D01*
X107112356Y-110007799D01*
X107250682Y-109673850D01*
X107321200Y-109319332D01*
X107321200Y-108957868D01*
X107250682Y-108603350D01*
X107112356Y-108269401D01*
X106911538Y-107968856D01*
X106655944Y-107713262D01*
X106355399Y-107512444D01*
X106269038Y-107476672D01*
X106686200Y-107476672D01*
X106810682Y-107464412D01*
X106930380Y-107428102D01*
X107040694Y-107369137D01*
X107137385Y-107289785D01*
X107216737Y-107193094D01*
X107275702Y-107082780D01*
X107312012Y-106963082D01*
X107324272Y-106838600D01*
X107324272Y-104438600D01*
X107312012Y-104314118D01*
X107275702Y-104194420D01*
X107216737Y-104084106D01*
X107137385Y-103987415D01*
X107040694Y-103908063D01*
X106930380Y-103849098D01*
X106810682Y-103812788D01*
X106686200Y-103800528D01*
X104286200Y-103800528D01*
X104161718Y-103812788D01*
X104042020Y-103849098D01*
X103931706Y-103908063D01*
X103835015Y-103987415D01*
X103755663Y-104084106D01*
X103696698Y-104194420D01*
X103660388Y-104314118D01*
X103648128Y-104438600D01*
X101960000Y-104438600D01*
X101960000Y-100660000D01*
X121494820Y-100660000D01*
X121442444Y-100681695D01*
G37*
X121442444Y-100681695D02*
X121272926Y-100794963D01*
X121128763Y-100939126D01*
X121015495Y-101108644D01*
X120937474Y-101297002D01*
X120897700Y-101496961D01*
X120897700Y-101700839D01*
X120937474Y-101900798D01*
X121015495Y-102089156D01*
X121128763Y-102258674D01*
X121172700Y-102302611D01*
X121172701Y-104611905D01*
X121037114Y-104702501D01*
X120844201Y-104895414D01*
X120692629Y-105122257D01*
X120650000Y-105225173D01*
X120607371Y-105122257D01*
X120455799Y-104895414D01*
X120262886Y-104702501D01*
X120036043Y-104550929D01*
X119783989Y-104446525D01*
X119516411Y-104393300D01*
X119243589Y-104393300D01*
X118976011Y-104446525D01*
X118723957Y-104550929D01*
X118497114Y-104702501D01*
X118304201Y-104895414D01*
X118152629Y-105122257D01*
X118110000Y-105225173D01*
X118067371Y-105122257D01*
X117915799Y-104895414D01*
X117722886Y-104702501D01*
X117496043Y-104550929D01*
X117243989Y-104446525D01*
X116976411Y-104393300D01*
X116703589Y-104393300D01*
X116436011Y-104446525D01*
X116183957Y-104550929D01*
X115957114Y-104702501D01*
X115764201Y-104895414D01*
X115612629Y-105122257D01*
X115570000Y-105225173D01*
X115527371Y-105122257D01*
X115375799Y-104895414D01*
X115182886Y-104702501D01*
X114956043Y-104550929D01*
X114703989Y-104446525D01*
X114436411Y-104393300D01*
X114163589Y-104393300D01*
X113896011Y-104446525D01*
X113643957Y-104550929D01*
X113417114Y-104702501D01*
X113224201Y-104895414D01*
X113072629Y-105122257D01*
X112968225Y-105374311D01*
X112915000Y-105641889D01*
X112915000Y-105914711D01*
X112950066Y-106090998D01*
X112920102Y-105992220D01*
X112861137Y-105881906D01*
X112781785Y-105785215D01*
X112685094Y-105705863D01*
X112574780Y-105646898D01*
X112455082Y-105610588D01*
X112330600Y-105598328D01*
X110630600Y-105598328D01*
X110506118Y-105610588D01*
X110386420Y-105646898D01*
X110276106Y-105705863D01*
X110179415Y-105785215D01*
X110100063Y-105881906D01*
X110041098Y-105992220D01*
X110004788Y-106111918D01*
X109992528Y-106236400D01*
X109992528Y-107936400D01*
X110004788Y-108060882D01*
X110041098Y-108180580D01*
X110100063Y-108290894D01*
X110179415Y-108387585D01*
X110276106Y-108466937D01*
X110386420Y-108525902D01*
X110458980Y-108547913D01*
X110327125Y-108679768D01*
X110164610Y-108922989D01*
X110052668Y-109193242D01*
X109995600Y-109480140D01*
X109995600Y-109772660D01*
X110052668Y-110059558D01*
X110164610Y-110329811D01*
X110327125Y-110573032D01*
X110533968Y-110779875D01*
X110708360Y-110896400D01*
X110533968Y-111012925D01*
X110327125Y-111219768D01*
X110164610Y-111462989D01*
X110052668Y-111733242D01*
X109995600Y-112020140D01*
X109995600Y-112312660D01*
X110052668Y-112599558D01*
X110164610Y-112869811D01*
X110327125Y-113113032D01*
X110533968Y-113319875D01*
X110716134Y-113441595D01*
X110599245Y-113511222D01*
X110383012Y-113706131D01*
X110208959Y-113939480D01*
X110083775Y-114202301D01*
X110039124Y-114349510D01*
X110160445Y-114579400D01*
X111353600Y-114579400D01*
X111353600Y-114559400D01*
X111607600Y-114559400D01*
X111607600Y-114579400D01*
X112800755Y-114579400D01*
X112922076Y-114349510D01*
X112877425Y-114202301D01*
X112752241Y-113939480D01*
X112578188Y-113706131D01*
X112361955Y-113511222D01*
X112245066Y-113441595D01*
X112427232Y-113319875D01*
X112634075Y-113113032D01*
X112796590Y-112869811D01*
X112908532Y-112599558D01*
X112965600Y-112312660D01*
X112965600Y-112020140D01*
X112908532Y-111733242D01*
X112796590Y-111462989D01*
X112634075Y-111219768D01*
X112427232Y-111012925D01*
X112252840Y-110896400D01*
X112427232Y-110779875D01*
X112634075Y-110573032D01*
X112796590Y-110329811D01*
X112908532Y-110059558D01*
X112965600Y-109772660D01*
X112965600Y-109480140D01*
X112933997Y-109321261D01*
X118738700Y-109321261D01*
X118738700Y-109525139D01*
X118778474Y-109725098D01*
X118856495Y-109913456D01*
X118969763Y-110082974D01*
X119113926Y-110227137D01*
X119283444Y-110340405D01*
X119471802Y-110418426D01*
X119671761Y-110458200D01*
X119875639Y-110458200D01*
X120075598Y-110418426D01*
X120205855Y-110364471D01*
X120245600Y-110404217D01*
X120245601Y-111127698D01*
X120191098Y-111182200D01*
X120128961Y-111182200D01*
X119929002Y-111221974D01*
X119740644Y-111299995D01*
X119571126Y-111413263D01*
X119426963Y-111557426D01*
X119313695Y-111726944D01*
X119235674Y-111915302D01*
X119195900Y-112115261D01*
X119195900Y-112319139D01*
X119235674Y-112519098D01*
X119313695Y-112707456D01*
X119426963Y-112876974D01*
X119571126Y-113021137D01*
X119740644Y-113134405D01*
X119929002Y-113212426D01*
X120128961Y-113252200D01*
X120332839Y-113252200D01*
X120532798Y-113212426D01*
X120721156Y-113134405D01*
X120890674Y-113021137D01*
X121034837Y-112876974D01*
X121148105Y-112707456D01*
X121226126Y-112519098D01*
X121265900Y-112319139D01*
X121265900Y-112257002D01*
X121516602Y-112006299D01*
X121545601Y-111982501D01*
X121640574Y-111866776D01*
X121711146Y-111734747D01*
X121754603Y-111591486D01*
X121765600Y-111479833D01*
X121765600Y-111479824D01*
X121769276Y-111442501D01*
X121765600Y-111405178D01*
X121765600Y-110126737D01*
X121769276Y-110089414D01*
X121765600Y-110052091D01*
X121765600Y-110052082D01*
X121754603Y-109940429D01*
X121711146Y-109797168D01*
X121640574Y-109665139D01*
X121545601Y-109549414D01*
X121516604Y-109525617D01*
X120903188Y-108912202D01*
X120879386Y-108883199D01*
X120763661Y-108788226D01*
X120631632Y-108717654D01*
X120488424Y-108674213D01*
X120433474Y-108619263D01*
X120263956Y-108505995D01*
X120075598Y-108427974D01*
X119875639Y-108388200D01*
X119671761Y-108388200D01*
X119471802Y-108427974D01*
X119283444Y-108505995D01*
X119113926Y-108619263D01*
X118969763Y-108763426D01*
X118856495Y-108932944D01*
X118778474Y-109121302D01*
X118738700Y-109321261D01*
X112933997Y-109321261D01*
X112908532Y-109193242D01*
X112796590Y-108922989D01*
X112634075Y-108679768D01*
X112502220Y-108547913D01*
X112574780Y-108525902D01*
X112685094Y-108466937D01*
X112781785Y-108387585D01*
X112861137Y-108290894D01*
X112920102Y-108180580D01*
X112956412Y-108060882D01*
X112968672Y-107936400D01*
X112968672Y-106236400D01*
X112958555Y-106133673D01*
X112968225Y-106182289D01*
X113072629Y-106434343D01*
X113224201Y-106661186D01*
X113417114Y-106854099D01*
X113643957Y-107005671D01*
X113896011Y-107110075D01*
X114163589Y-107163300D01*
X114436411Y-107163300D01*
X114703989Y-107110075D01*
X114956043Y-107005671D01*
X115182886Y-106854099D01*
X115375799Y-106661186D01*
X115527371Y-106434343D01*
X115570000Y-106331427D01*
X115612629Y-106434343D01*
X115764201Y-106661186D01*
X115957114Y-106854099D01*
X116183957Y-107005671D01*
X116436011Y-107110075D01*
X116703589Y-107163300D01*
X116976411Y-107163300D01*
X117243989Y-107110075D01*
X117496043Y-107005671D01*
X117722886Y-106854099D01*
X117915799Y-106661186D01*
X118067371Y-106434343D01*
X118110000Y-106331427D01*
X118152629Y-106434343D01*
X118304201Y-106661186D01*
X118497114Y-106854099D01*
X118723957Y-107005671D01*
X118976011Y-107110075D01*
X119243589Y-107163300D01*
X119516411Y-107163300D01*
X119783989Y-107110075D01*
X120036043Y-107005671D01*
X120262886Y-106854099D01*
X120455799Y-106661186D01*
X120607371Y-106434343D01*
X120650000Y-106331427D01*
X120692629Y-106434343D01*
X120844201Y-106661186D01*
X121037114Y-106854099D01*
X121263957Y-107005671D01*
X121516011Y-107110075D01*
X121783589Y-107163300D01*
X122056411Y-107163300D01*
X122323989Y-107110075D01*
X122576043Y-107005671D01*
X122802886Y-106854099D01*
X122995799Y-106661186D01*
X123147371Y-106434343D01*
X123190000Y-106331427D01*
X123232629Y-106434343D01*
X123384201Y-106661186D01*
X123577114Y-106854099D01*
X123803957Y-107005671D01*
X124056011Y-107110075D01*
X124323589Y-107163300D01*
X124596411Y-107163300D01*
X124863989Y-107110075D01*
X125116043Y-107005671D01*
X125342886Y-106854099D01*
X125535799Y-106661186D01*
X125687371Y-106434343D01*
X125730000Y-106331427D01*
X125772629Y-106434343D01*
X125924201Y-106661186D01*
X126117114Y-106854099D01*
X126343957Y-107005671D01*
X126596011Y-107110075D01*
X126863589Y-107163300D01*
X127136411Y-107163300D01*
X127403989Y-107110075D01*
X127656043Y-107005671D01*
X127882886Y-106854099D01*
X128075799Y-106661186D01*
X128227371Y-106434343D01*
X128270000Y-106331427D01*
X128312629Y-106434343D01*
X128464201Y-106661186D01*
X128657114Y-106854099D01*
X128883957Y-107005671D01*
X129136011Y-107110075D01*
X129403589Y-107163300D01*
X129676411Y-107163300D01*
X129943989Y-107110075D01*
X130196043Y-107005671D01*
X130422886Y-106854099D01*
X130615799Y-106661186D01*
X130697909Y-106538300D01*
X131016890Y-106538300D01*
X131054212Y-106541976D01*
X131091534Y-106538300D01*
X131091545Y-106538300D01*
X131203198Y-106527303D01*
X131346459Y-106483846D01*
X131478488Y-106413274D01*
X131594213Y-106318301D01*
X131618016Y-106289297D01*
X136247302Y-101660012D01*
X136309439Y-101660012D01*
X136509398Y-101620238D01*
X136697756Y-101542217D01*
X136867274Y-101428949D01*
X137011437Y-101284786D01*
X137124705Y-101115268D01*
X137202726Y-100926910D01*
X137242500Y-100726951D01*
X137242500Y-100660000D01*
X141840001Y-100660000D01*
X141840000Y-107967581D01*
X141836807Y-108000000D01*
X141849550Y-108129383D01*
X141887290Y-108253793D01*
X141948575Y-108368450D01*
X142009614Y-108442826D01*
X142031052Y-108468948D01*
X142131550Y-108551425D01*
X142246207Y-108612710D01*
X142370617Y-108650450D01*
X142500000Y-108663193D01*
X142532419Y-108660000D01*
X143140000Y-108660000D01*
X143140001Y-112340000D01*
X142532419Y-112340000D01*
X142500000Y-112336807D01*
X142467581Y-112340000D01*
X142370617Y-112349550D01*
X142246207Y-112387290D01*
X142131550Y-112448575D01*
X142031052Y-112531052D01*
X141948575Y-112631550D01*
X141887290Y-112746207D01*
X141849550Y-112870617D01*
X141836807Y-113000000D01*
X141840000Y-113032419D01*
X141840001Y-120340000D01*
X134003206Y-120340000D01*
X134004301Y-120339101D01*
X134028104Y-120310097D01*
X134097949Y-120240252D01*
X135524703Y-118813499D01*
X135553701Y-118789701D01*
X135648674Y-118673976D01*
X135719246Y-118541947D01*
X135762703Y-118398686D01*
X135773700Y-118287033D01*
X135773700Y-118287025D01*
X135777376Y-118249700D01*
X135773700Y-118212375D01*
X135773700Y-117323214D01*
X135783846Y-117304232D01*
X135827287Y-117161024D01*
X135882237Y-117106074D01*
X135995505Y-116936556D01*
X136073526Y-116748198D01*
X136113300Y-116548239D01*
X136113300Y-116344361D01*
X136073526Y-116144402D01*
X135995505Y-115956044D01*
X135882237Y-115786526D01*
X135738074Y-115642363D01*
X135568556Y-115529095D01*
X135380198Y-115451074D01*
X135180239Y-115411300D01*
X135113300Y-115411300D01*
X135113300Y-112006511D01*
X135157237Y-111962574D01*
X135205443Y-111890429D01*
X137833916Y-114518903D01*
X137857714Y-114547901D01*
X137886712Y-114571699D01*
X137973438Y-114642874D01*
X138100759Y-114710929D01*
X138105468Y-114713446D01*
X138248676Y-114756887D01*
X138303626Y-114811837D01*
X138473144Y-114925105D01*
X138661502Y-115003126D01*
X138861461Y-115042900D01*
X139065339Y-115042900D01*
X139265298Y-115003126D01*
X139453656Y-114925105D01*
X139623174Y-114811837D01*
X139767337Y-114667674D01*
X139880605Y-114498156D01*
X139958626Y-114309798D01*
X139998400Y-114109839D01*
X139998400Y-113905961D01*
X139958626Y-113706002D01*
X139880605Y-113517644D01*
X139767337Y-113348126D01*
X139623174Y-113203963D01*
X139589802Y-113181665D01*
X139653826Y-113027098D01*
X139693600Y-112827139D01*
X139693600Y-112623261D01*
X139653826Y-112423302D01*
X139575805Y-112234944D01*
X139462537Y-112065426D01*
X139318374Y-111921263D01*
X139148856Y-111807995D01*
X138960498Y-111729974D01*
X138760539Y-111690200D01*
X138556661Y-111690200D01*
X138356702Y-111729974D01*
X138339100Y-111737265D01*
X138339100Y-111378222D01*
X138342776Y-111340899D01*
X138339100Y-111303576D01*
X138339100Y-111303567D01*
X138328103Y-111191914D01*
X138284646Y-111048653D01*
X138214074Y-110916624D01*
X138200911Y-110900585D01*
X138142899Y-110829896D01*
X138142895Y-110829892D01*
X138119101Y-110800899D01*
X138090108Y-110777105D01*
X135031404Y-107718403D01*
X135007601Y-107689399D01*
X134941732Y-107635341D01*
X135534674Y-107635341D01*
X135534674Y-107839219D01*
X135574448Y-108039178D01*
X135652469Y-108227536D01*
X135765737Y-108397054D01*
X135909900Y-108541217D01*
X136079418Y-108654485D01*
X136267776Y-108732506D01*
X136467735Y-108772280D01*
X136671613Y-108772280D01*
X136871572Y-108732506D01*
X137059930Y-108654485D01*
X137229448Y-108541217D01*
X137373611Y-108397054D01*
X137486879Y-108227536D01*
X137564900Y-108039178D01*
X137604674Y-107839219D01*
X137604674Y-107777081D01*
X138246556Y-107135200D01*
X138577189Y-107135200D01*
X138621126Y-107179137D01*
X138790644Y-107292405D01*
X138979002Y-107370426D01*
X139178961Y-107410200D01*
X139382839Y-107410200D01*
X139582798Y-107370426D01*
X139771156Y-107292405D01*
X139940674Y-107179137D01*
X140084837Y-107034974D01*
X140198105Y-106865456D01*
X140276126Y-106677098D01*
X140315900Y-106477139D01*
X140315900Y-106273261D01*
X140276126Y-106073302D01*
X140198105Y-105884944D01*
X140084837Y-105715426D01*
X139940674Y-105571263D01*
X139771156Y-105457995D01*
X139582798Y-105379974D01*
X139382839Y-105340200D01*
X139178961Y-105340200D01*
X138979002Y-105379974D01*
X138790644Y-105457995D01*
X138621126Y-105571263D01*
X138577189Y-105615200D01*
X137969076Y-105615200D01*
X137931753Y-105611524D01*
X137894431Y-105615200D01*
X137894421Y-105615200D01*
X137782768Y-105626197D01*
X137639507Y-105669654D01*
X137507477Y-105740226D01*
X137431069Y-105802933D01*
X137391753Y-105835199D01*
X137367955Y-105864197D01*
X136529873Y-106702280D01*
X136467735Y-106702280D01*
X136267776Y-106742054D01*
X136079418Y-106820075D01*
X135909900Y-106933343D01*
X135765737Y-107077506D01*
X135652469Y-107247024D01*
X135574448Y-107435382D01*
X135534674Y-107635341D01*
X134941732Y-107635341D01*
X134891876Y-107594426D01*
X134759847Y-107523854D01*
X134616586Y-107480397D01*
X134504933Y-107469400D01*
X134504922Y-107469400D01*
X134467600Y-107465724D01*
X134430278Y-107469400D01*
X129646811Y-107469400D01*
X129602874Y-107425463D01*
X129433356Y-107312195D01*
X129244998Y-107234174D01*
X129045039Y-107194400D01*
X128841161Y-107194400D01*
X128641202Y-107234174D01*
X128452844Y-107312195D01*
X128283326Y-107425463D01*
X128139163Y-107569626D01*
X128025895Y-107739144D01*
X128007560Y-107783407D01*
X127933376Y-107722526D01*
X127801347Y-107651954D01*
X127658086Y-107608497D01*
X127546433Y-107597500D01*
X127546422Y-107597500D01*
X127509100Y-107593824D01*
X127471778Y-107597500D01*
X126103511Y-107597500D01*
X126059574Y-107553563D01*
X125890056Y-107440295D01*
X125701698Y-107362274D01*
X125501739Y-107322500D01*
X125297861Y-107322500D01*
X125097902Y-107362274D01*
X124909544Y-107440295D01*
X124740026Y-107553563D01*
X124595863Y-107697726D01*
X124482595Y-107867244D01*
X124404574Y-108055602D01*
X124364800Y-108255561D01*
X124364800Y-108459439D01*
X124404574Y-108659398D01*
X124482595Y-108847756D01*
X124595863Y-109017274D01*
X124740026Y-109161437D01*
X124909544Y-109274705D01*
X125097902Y-109352726D01*
X125297861Y-109392500D01*
X125501739Y-109392500D01*
X125701698Y-109352726D01*
X125890056Y-109274705D01*
X126059574Y-109161437D01*
X126103511Y-109117500D01*
X127194299Y-109117500D01*
X128144890Y-110068093D01*
X128168684Y-110097086D01*
X128197677Y-110120880D01*
X128197681Y-110120884D01*
X128260214Y-110172203D01*
X128284409Y-110192059D01*
X128416438Y-110262631D01*
X128559699Y-110306088D01*
X128671352Y-110317085D01*
X128671361Y-110317085D01*
X128708684Y-110320761D01*
X128746007Y-110317085D01*
X133632099Y-110317085D01*
X133765671Y-110450657D01*
X133693526Y-110498863D01*
X133549363Y-110643026D01*
X133436095Y-110812544D01*
X133358074Y-111000902D01*
X133347274Y-111055200D01*
X133311561Y-111055200D01*
X133111602Y-111094974D01*
X132923244Y-111172995D01*
X132753726Y-111286263D01*
X132609563Y-111430426D01*
X132496295Y-111599944D01*
X132418274Y-111788302D01*
X132378500Y-111988261D01*
X132378500Y-112192139D01*
X132418274Y-112392098D01*
X132496295Y-112580456D01*
X132609563Y-112749974D01*
X132653500Y-112793911D01*
X132653501Y-116360097D01*
X132311299Y-116702300D01*
X130695236Y-116702300D01*
X130767371Y-116594343D01*
X130871775Y-116342289D01*
X130925000Y-116074711D01*
X130925000Y-115801889D01*
X130871775Y-115534311D01*
X130767371Y-115282257D01*
X130615799Y-115055414D01*
X130422886Y-114862501D01*
X130196043Y-114710929D01*
X129943989Y-114606525D01*
X129676411Y-114553300D01*
X129403589Y-114553300D01*
X129136011Y-114606525D01*
X128883957Y-114710929D01*
X128657114Y-114862501D01*
X128464201Y-115055414D01*
X128312629Y-115282257D01*
X128270000Y-115385173D01*
X128227371Y-115282257D01*
X128075799Y-115055414D01*
X127882886Y-114862501D01*
X127656043Y-114710929D01*
X127403989Y-114606525D01*
X127136411Y-114553300D01*
X126863589Y-114553300D01*
X126596011Y-114606525D01*
X126343957Y-114710929D01*
X126117114Y-114862501D01*
X125924201Y-115055414D01*
X125772629Y-115282257D01*
X125730000Y-115385173D01*
X125687371Y-115282257D01*
X125535799Y-115055414D01*
X125342886Y-114862501D01*
X125116043Y-114710929D01*
X124863989Y-114606525D01*
X124596411Y-114553300D01*
X124323589Y-114553300D01*
X124056011Y-114606525D01*
X123803957Y-114710929D01*
X123577114Y-114862501D01*
X123384201Y-115055414D01*
X123232629Y-115282257D01*
X123190000Y-115385173D01*
X123147371Y-115282257D01*
X122995799Y-115055414D01*
X122802886Y-114862501D01*
X122576043Y-114710929D01*
X122323989Y-114606525D01*
X122056411Y-114553300D01*
X121783589Y-114553300D01*
X121516011Y-114606525D01*
X121263957Y-114710929D01*
X121037114Y-114862501D01*
X120844201Y-115055414D01*
X120692629Y-115282257D01*
X120650000Y-115385173D01*
X120607371Y-115282257D01*
X120455799Y-115055414D01*
X120262886Y-114862501D01*
X120036043Y-114710929D01*
X119783989Y-114606525D01*
X119516411Y-114553300D01*
X119243589Y-114553300D01*
X118976011Y-114606525D01*
X118723957Y-114710929D01*
X118497114Y-114862501D01*
X118304201Y-115055414D01*
X118152629Y-115282257D01*
X118110000Y-115385173D01*
X118067371Y-115282257D01*
X117915799Y-115055414D01*
X117722886Y-114862501D01*
X117496043Y-114710929D01*
X117243989Y-114606525D01*
X116976411Y-114553300D01*
X116703589Y-114553300D01*
X116436011Y-114606525D01*
X116183957Y-114710929D01*
X115957114Y-114862501D01*
X115764201Y-115055414D01*
X115686445Y-115171783D01*
X115675812Y-115063818D01*
X115639502Y-114944120D01*
X115580537Y-114833806D01*
X115501185Y-114737115D01*
X115404494Y-114657763D01*
X115294180Y-114598798D01*
X115174482Y-114562488D01*
X115050000Y-114550228D01*
X113550000Y-114550228D01*
X113425518Y-114562488D01*
X113305820Y-114598798D01*
X113195506Y-114657763D01*
X113098815Y-114737115D01*
X113019463Y-114833806D01*
X112960498Y-114944120D01*
X112924188Y-115063818D01*
X112911928Y-115188300D01*
X112911928Y-116688300D01*
X112924188Y-116812782D01*
X112960498Y-116932480D01*
X113019463Y-117042794D01*
X113098815Y-117139485D01*
X113195506Y-117218837D01*
X113305820Y-117277802D01*
X113425518Y-117314112D01*
X113550000Y-117326372D01*
X115050000Y-117326372D01*
X115174482Y-117314112D01*
X115294180Y-117277802D01*
X115404494Y-117218837D01*
X115501185Y-117139485D01*
X115580537Y-117042794D01*
X115639502Y-116932480D01*
X115675812Y-116812782D01*
X115686445Y-116704817D01*
X115764201Y-116821186D01*
X115957114Y-117014099D01*
X116183957Y-117165671D01*
X116436011Y-117270075D01*
X116703589Y-117323300D01*
X116976411Y-117323300D01*
X117243989Y-117270075D01*
X117496043Y-117165671D01*
X117722886Y-117014099D01*
X117915799Y-116821186D01*
X118067371Y-116594343D01*
X118110000Y-116491427D01*
X118152629Y-116594343D01*
X118304201Y-116821186D01*
X118497114Y-117014099D01*
X118723957Y-117165671D01*
X118976011Y-117270075D01*
X119243589Y-117323300D01*
X119516411Y-117323300D01*
X119661365Y-117294467D01*
X120111600Y-117744702D01*
X120135399Y-117773701D01*
X120251124Y-117868674D01*
X120383153Y-117939246D01*
X120526414Y-117982703D01*
X120638067Y-117993700D01*
X120638076Y-117993700D01*
X120675399Y-117997376D01*
X120712722Y-117993700D01*
X122964099Y-117993700D01*
X123591401Y-118621003D01*
X123615199Y-118650001D01*
X123730924Y-118744974D01*
X123862953Y-118815546D01*
X124006214Y-118859003D01*
X124117867Y-118870000D01*
X124117876Y-118870000D01*
X124155199Y-118873676D01*
X124192522Y-118870000D01*
X132842778Y-118870000D01*
X132880100Y-118873676D01*
X132917422Y-118870000D01*
X132917433Y-118870000D01*
X133029086Y-118859003D01*
X133172347Y-118815546D01*
X133304376Y-118744974D01*
X133420101Y-118650001D01*
X133443903Y-118620998D01*
X134253701Y-117811202D01*
X134253701Y-117934897D01*
X133149499Y-119039100D01*
X120132417Y-119039100D01*
X119876771Y-118783455D01*
X119930726Y-118653198D01*
X119970500Y-118453239D01*
X119970500Y-118249361D01*
X119930726Y-118049402D01*
X119852705Y-117861044D01*
X119739437Y-117691526D01*
X119595274Y-117547363D01*
X119425756Y-117434095D01*
X119237398Y-117356074D01*
X119037439Y-117316300D01*
X118833561Y-117316300D01*
X118633602Y-117356074D01*
X118445244Y-117434095D01*
X118275726Y-117547363D01*
X118131563Y-117691526D01*
X118018295Y-117861044D01*
X117940274Y-118049402D01*
X117900500Y-118249361D01*
X117900500Y-118453239D01*
X117940274Y-118653198D01*
X118018295Y-118841556D01*
X118131563Y-119011074D01*
X118186513Y-119066024D01*
X118229954Y-119209232D01*
X118254537Y-119255221D01*
X118300526Y-119341261D01*
X118371701Y-119427987D01*
X118395500Y-119456986D01*
X118424498Y-119480784D01*
X119253816Y-120310103D01*
X119277614Y-120339101D01*
X119278709Y-120340000D01*
X101960000Y-120340000D01*
X101960000Y-117416580D01*
X104387826Y-117416580D01*
X104507714Y-117701436D01*
X104831410Y-117862299D01*
X105180269Y-117956922D01*
X105540884Y-117981667D01*
X105899398Y-117935585D01*
X106242033Y-117820446D01*
X106464686Y-117701436D01*
X106584574Y-117416580D01*
X105486200Y-116318205D01*
X104387826Y-117416580D01*
X101960000Y-117416580D01*
X101960000Y-116193284D01*
X103643133Y-116193284D01*
X103689215Y-116551798D01*
X103804354Y-116894433D01*
X103923364Y-117117086D01*
X104208220Y-117236974D01*
X105306595Y-116138600D01*
X105665805Y-116138600D01*
X106764180Y-117236974D01*
X107049036Y-117117086D01*
X107209899Y-116793390D01*
X107304522Y-116444531D01*
X107329267Y-116083916D01*
X107283185Y-115725402D01*
X107168046Y-115382767D01*
X107049036Y-115160114D01*
X106818981Y-115063290D01*
X110039124Y-115063290D01*
X110083775Y-115210499D01*
X110208959Y-115473320D01*
X110383012Y-115706669D01*
X110599245Y-115901578D01*
X110849348Y-116050557D01*
X111123709Y-116147881D01*
X111353600Y-116027214D01*
X111353600Y-114833400D01*
X111607600Y-114833400D01*
X111607600Y-116027214D01*
X111837491Y-116147881D01*
X112111852Y-116050557D01*
X112361955Y-115901578D01*
X112578188Y-115706669D01*
X112752241Y-115473320D01*
X112877425Y-115210499D01*
X112922076Y-115063290D01*
X112800755Y-114833400D01*
X111607600Y-114833400D01*
X111353600Y-114833400D01*
X110160445Y-114833400D01*
X110039124Y-115063290D01*
X106818981Y-115063290D01*
X106764180Y-115040226D01*
X105665805Y-116138600D01*
X105306595Y-116138600D01*
X104208220Y-115040226D01*
X103923364Y-115160114D01*
X103762501Y-115483810D01*
X103667878Y-115832669D01*
X103643133Y-116193284D01*
X101960000Y-116193284D01*
X101960000Y-113032419D01*
X101963193Y-113000000D01*
X101950450Y-112870617D01*
X101912710Y-112746207D01*
X101851425Y-112631550D01*
X101768948Y-112531052D01*
X101668450Y-112448575D01*
X101553793Y-112387290D01*
X101429383Y-112349550D01*
X101332419Y-112340000D01*
X101300000Y-112336807D01*
X101267581Y-112340000D01*
X100660000Y-112340000D01*
X100660000Y-108660000D01*
X101267581Y-108660000D01*
X101300000Y-108663193D01*
X101332419Y-108660000D01*
X101429383Y-108650450D01*
X101553793Y-108612710D01*
X101668450Y-108551425D01*
X101768948Y-108468948D01*
X101851425Y-108368450D01*
X101912710Y-108253793D01*
X101950450Y-108129383D01*
X101963193Y-108000000D01*
X101960000Y-107967581D01*
X101960000Y-104438600D01*
X103648128Y-104438600D01*
X103648128Y-106838600D01*
X103660388Y-106963082D01*
X103696698Y-107082780D01*
X103755663Y-107193094D01*
X103835015Y-107289785D01*
X103931706Y-107369137D01*
X104042020Y-107428102D01*
X104161718Y-107464412D01*
X104286200Y-107476672D01*
X104703362Y-107476672D01*
X104617001Y-107512444D01*
X104316456Y-107713262D01*
X104060862Y-107968856D01*
X103860044Y-108269401D01*
X103721718Y-108603350D01*
X103651200Y-108957868D01*
X103651200Y-109319332D01*
X103721718Y-109673850D01*
X103860044Y-110007799D01*
X104060862Y-110308344D01*
X104316456Y-110563938D01*
X104617001Y-110764756D01*
X104915987Y-110888600D01*
X104617001Y-111012444D01*
X104316456Y-111213262D01*
X104060862Y-111468856D01*
X103860044Y-111769401D01*
X103721718Y-112103350D01*
X103651200Y-112457868D01*
X103651200Y-112819332D01*
X103721718Y-113173850D01*
X103860044Y-113507799D01*
X104060862Y-113808344D01*
X104316456Y-114063938D01*
X104617001Y-114264756D01*
X104923689Y-114391790D01*
X104730367Y-114456754D01*
X104507714Y-114575764D01*
X104387826Y-114860620D01*
X105486200Y-115958995D01*
X106584574Y-114860620D01*
X106464686Y-114575764D01*
X106140990Y-114414901D01*
X106051510Y-114390631D01*
X106355399Y-114264756D01*
X106655944Y-114063938D01*
X106911538Y-113808344D01*
X107112356Y-113507799D01*
X107250682Y-113173850D01*
X107321200Y-112819332D01*
X107321200Y-112457868D01*
X107250682Y-112103350D01*
X107112356Y-111769401D01*
X106911538Y-111468856D01*
X106655944Y-111213262D01*
X106355399Y-111012444D01*
X106056413Y-110888600D01*
X106355399Y-110764756D01*
X106655944Y-110563938D01*
X106911538Y-110308344D01*
X107112356Y-110007799D01*
X107250682Y-109673850D01*
X107321200Y-109319332D01*
X107321200Y-108957868D01*
X107250682Y-108603350D01*
X107112356Y-108269401D01*
X106911538Y-107968856D01*
X106655944Y-107713262D01*
X106355399Y-107512444D01*
X106269038Y-107476672D01*
X106686200Y-107476672D01*
X106810682Y-107464412D01*
X106930380Y-107428102D01*
X107040694Y-107369137D01*
X107137385Y-107289785D01*
X107216737Y-107193094D01*
X107275702Y-107082780D01*
X107312012Y-106963082D01*
X107324272Y-106838600D01*
X107324272Y-104438600D01*
X107312012Y-104314118D01*
X107275702Y-104194420D01*
X107216737Y-104084106D01*
X107137385Y-103987415D01*
X107040694Y-103908063D01*
X106930380Y-103849098D01*
X106810682Y-103812788D01*
X106686200Y-103800528D01*
X104286200Y-103800528D01*
X104161718Y-103812788D01*
X104042020Y-103849098D01*
X103931706Y-103908063D01*
X103835015Y-103987415D01*
X103755663Y-104084106D01*
X103696698Y-104194420D01*
X103660388Y-104314118D01*
X103648128Y-104438600D01*
X101960000Y-104438600D01*
X101960000Y-100660000D01*
X121494820Y-100660000D01*
X121442444Y-100681695D01*
M02*
