G04 #@! TF.GenerationSoftware,KiCad,Pcbnew,5.1.5+dfsg1-2build2*
G04 #@! TF.CreationDate,2021-11-16T17:13:54-05:00*
G04 #@! TF.ProjectId,036INCH_5DIGIT,30333649-4e43-4485-9f35-44494749542e,rev?*
G04 #@! TF.SameCoordinates,Original*
G04 #@! TF.FileFunction,Copper,L2,Bot*
G04 #@! TF.FilePolarity,Positive*
%FSLAX46Y46*%
G04 Gerber Fmt 4.6, Leading zero omitted, Abs format (unit mm)*
G04 Created by KiCad (PCBNEW 5.1.5+dfsg1-2build2) date 2021-11-16 17:13:54*
%MOMM*%
%LPD*%
G04 APERTURE LIST*
%ADD10C,1.500000*%
%ADD11R,1.500000X1.500000*%
%ADD12O,1.700000X1.700000*%
%ADD13R,1.700000X1.700000*%
%ADD14C,0.100000*%
%ADD15C,2.400000*%
%ADD16R,2.400000X2.400000*%
%ADD17R,1.500000X0.600000*%
%ADD18C,0.800000*%
%ADD19C,0.250000*%
%ADD20C,0.254000*%
G04 APERTURE END LIST*
D10*
X114300000Y-105778300D03*
X116840000Y-105778300D03*
X119380000Y-105778300D03*
X121920000Y-105778300D03*
X124460000Y-105778300D03*
X127000000Y-105778300D03*
X129540000Y-105778300D03*
X129540000Y-115938300D03*
X127000000Y-115938300D03*
X124460000Y-115938300D03*
X121920000Y-115938300D03*
X119380000Y-115938300D03*
X116840000Y-115938300D03*
D11*
X114300000Y-115938300D03*
D12*
X111480600Y-114706400D03*
X111480600Y-112166400D03*
X111480600Y-109626400D03*
D13*
X111480600Y-107086400D03*
G04 #@! TA.AperFunction,SMDPad,CuDef*
D14*
G36*
X118114605Y-109353704D02*
G01*
X118138873Y-109357304D01*
X118162672Y-109363265D01*
X118185771Y-109371530D01*
X118207950Y-109382020D01*
X118228993Y-109394632D01*
X118248699Y-109409247D01*
X118266877Y-109425723D01*
X118283353Y-109443901D01*
X118297968Y-109463607D01*
X118310580Y-109484650D01*
X118321070Y-109506829D01*
X118329335Y-109529928D01*
X118335296Y-109553727D01*
X118338896Y-109577995D01*
X118340100Y-109602499D01*
X118340100Y-110252501D01*
X118338896Y-110277005D01*
X118335296Y-110301273D01*
X118329335Y-110325072D01*
X118321070Y-110348171D01*
X118310580Y-110370350D01*
X118297968Y-110391393D01*
X118283353Y-110411099D01*
X118266877Y-110429277D01*
X118248699Y-110445753D01*
X118228993Y-110460368D01*
X118207950Y-110472980D01*
X118185771Y-110483470D01*
X118162672Y-110491735D01*
X118138873Y-110497696D01*
X118114605Y-110501296D01*
X118090101Y-110502500D01*
X117190099Y-110502500D01*
X117165595Y-110501296D01*
X117141327Y-110497696D01*
X117117528Y-110491735D01*
X117094429Y-110483470D01*
X117072250Y-110472980D01*
X117051207Y-110460368D01*
X117031501Y-110445753D01*
X117013323Y-110429277D01*
X116996847Y-110411099D01*
X116982232Y-110391393D01*
X116969620Y-110370350D01*
X116959130Y-110348171D01*
X116950865Y-110325072D01*
X116944904Y-110301273D01*
X116941304Y-110277005D01*
X116940100Y-110252501D01*
X116940100Y-109602499D01*
X116941304Y-109577995D01*
X116944904Y-109553727D01*
X116950865Y-109529928D01*
X116959130Y-109506829D01*
X116969620Y-109484650D01*
X116982232Y-109463607D01*
X116996847Y-109443901D01*
X117013323Y-109425723D01*
X117031501Y-109409247D01*
X117051207Y-109394632D01*
X117072250Y-109382020D01*
X117094429Y-109371530D01*
X117117528Y-109363265D01*
X117141327Y-109357304D01*
X117165595Y-109353704D01*
X117190099Y-109352500D01*
X118090101Y-109352500D01*
X118114605Y-109353704D01*
G37*
G04 #@! TD.AperFunction*
G04 #@! TA.AperFunction,SMDPad,CuDef*
G36*
X118114605Y-107303704D02*
G01*
X118138873Y-107307304D01*
X118162672Y-107313265D01*
X118185771Y-107321530D01*
X118207950Y-107332020D01*
X118228993Y-107344632D01*
X118248699Y-107359247D01*
X118266877Y-107375723D01*
X118283353Y-107393901D01*
X118297968Y-107413607D01*
X118310580Y-107434650D01*
X118321070Y-107456829D01*
X118329335Y-107479928D01*
X118335296Y-107503727D01*
X118338896Y-107527995D01*
X118340100Y-107552499D01*
X118340100Y-108202501D01*
X118338896Y-108227005D01*
X118335296Y-108251273D01*
X118329335Y-108275072D01*
X118321070Y-108298171D01*
X118310580Y-108320350D01*
X118297968Y-108341393D01*
X118283353Y-108361099D01*
X118266877Y-108379277D01*
X118248699Y-108395753D01*
X118228993Y-108410368D01*
X118207950Y-108422980D01*
X118185771Y-108433470D01*
X118162672Y-108441735D01*
X118138873Y-108447696D01*
X118114605Y-108451296D01*
X118090101Y-108452500D01*
X117190099Y-108452500D01*
X117165595Y-108451296D01*
X117141327Y-108447696D01*
X117117528Y-108441735D01*
X117094429Y-108433470D01*
X117072250Y-108422980D01*
X117051207Y-108410368D01*
X117031501Y-108395753D01*
X117013323Y-108379277D01*
X116996847Y-108361099D01*
X116982232Y-108341393D01*
X116969620Y-108320350D01*
X116959130Y-108298171D01*
X116950865Y-108275072D01*
X116944904Y-108251273D01*
X116941304Y-108227005D01*
X116940100Y-108202501D01*
X116940100Y-107552499D01*
X116941304Y-107527995D01*
X116944904Y-107503727D01*
X116950865Y-107479928D01*
X116959130Y-107456829D01*
X116969620Y-107434650D01*
X116982232Y-107413607D01*
X116996847Y-107393901D01*
X117013323Y-107375723D01*
X117031501Y-107359247D01*
X117051207Y-107344632D01*
X117072250Y-107332020D01*
X117094429Y-107321530D01*
X117117528Y-107313265D01*
X117141327Y-107307304D01*
X117165595Y-107303704D01*
X117190099Y-107302500D01*
X118090101Y-107302500D01*
X118114605Y-107303704D01*
G37*
G04 #@! TD.AperFunction*
G04 #@! TA.AperFunction,SMDPad,CuDef*
G36*
X115777805Y-109379104D02*
G01*
X115802073Y-109382704D01*
X115825872Y-109388665D01*
X115848971Y-109396930D01*
X115871150Y-109407420D01*
X115892193Y-109420032D01*
X115911899Y-109434647D01*
X115930077Y-109451123D01*
X115946553Y-109469301D01*
X115961168Y-109489007D01*
X115973780Y-109510050D01*
X115984270Y-109532229D01*
X115992535Y-109555328D01*
X115998496Y-109579127D01*
X116002096Y-109603395D01*
X116003300Y-109627899D01*
X116003300Y-110277901D01*
X116002096Y-110302405D01*
X115998496Y-110326673D01*
X115992535Y-110350472D01*
X115984270Y-110373571D01*
X115973780Y-110395750D01*
X115961168Y-110416793D01*
X115946553Y-110436499D01*
X115930077Y-110454677D01*
X115911899Y-110471153D01*
X115892193Y-110485768D01*
X115871150Y-110498380D01*
X115848971Y-110508870D01*
X115825872Y-110517135D01*
X115802073Y-110523096D01*
X115777805Y-110526696D01*
X115753301Y-110527900D01*
X114853299Y-110527900D01*
X114828795Y-110526696D01*
X114804527Y-110523096D01*
X114780728Y-110517135D01*
X114757629Y-110508870D01*
X114735450Y-110498380D01*
X114714407Y-110485768D01*
X114694701Y-110471153D01*
X114676523Y-110454677D01*
X114660047Y-110436499D01*
X114645432Y-110416793D01*
X114632820Y-110395750D01*
X114622330Y-110373571D01*
X114614065Y-110350472D01*
X114608104Y-110326673D01*
X114604504Y-110302405D01*
X114603300Y-110277901D01*
X114603300Y-109627899D01*
X114604504Y-109603395D01*
X114608104Y-109579127D01*
X114614065Y-109555328D01*
X114622330Y-109532229D01*
X114632820Y-109510050D01*
X114645432Y-109489007D01*
X114660047Y-109469301D01*
X114676523Y-109451123D01*
X114694701Y-109434647D01*
X114714407Y-109420032D01*
X114735450Y-109407420D01*
X114757629Y-109396930D01*
X114780728Y-109388665D01*
X114804527Y-109382704D01*
X114828795Y-109379104D01*
X114853299Y-109377900D01*
X115753301Y-109377900D01*
X115777805Y-109379104D01*
G37*
G04 #@! TD.AperFunction*
G04 #@! TA.AperFunction,SMDPad,CuDef*
G36*
X115777805Y-107329104D02*
G01*
X115802073Y-107332704D01*
X115825872Y-107338665D01*
X115848971Y-107346930D01*
X115871150Y-107357420D01*
X115892193Y-107370032D01*
X115911899Y-107384647D01*
X115930077Y-107401123D01*
X115946553Y-107419301D01*
X115961168Y-107439007D01*
X115973780Y-107460050D01*
X115984270Y-107482229D01*
X115992535Y-107505328D01*
X115998496Y-107529127D01*
X116002096Y-107553395D01*
X116003300Y-107577899D01*
X116003300Y-108227901D01*
X116002096Y-108252405D01*
X115998496Y-108276673D01*
X115992535Y-108300472D01*
X115984270Y-108323571D01*
X115973780Y-108345750D01*
X115961168Y-108366793D01*
X115946553Y-108386499D01*
X115930077Y-108404677D01*
X115911899Y-108421153D01*
X115892193Y-108435768D01*
X115871150Y-108448380D01*
X115848971Y-108458870D01*
X115825872Y-108467135D01*
X115802073Y-108473096D01*
X115777805Y-108476696D01*
X115753301Y-108477900D01*
X114853299Y-108477900D01*
X114828795Y-108476696D01*
X114804527Y-108473096D01*
X114780728Y-108467135D01*
X114757629Y-108458870D01*
X114735450Y-108448380D01*
X114714407Y-108435768D01*
X114694701Y-108421153D01*
X114676523Y-108404677D01*
X114660047Y-108386499D01*
X114645432Y-108366793D01*
X114632820Y-108345750D01*
X114622330Y-108323571D01*
X114614065Y-108300472D01*
X114608104Y-108276673D01*
X114604504Y-108252405D01*
X114603300Y-108227901D01*
X114603300Y-107577899D01*
X114604504Y-107553395D01*
X114608104Y-107529127D01*
X114614065Y-107505328D01*
X114622330Y-107482229D01*
X114632820Y-107460050D01*
X114645432Y-107439007D01*
X114660047Y-107419301D01*
X114676523Y-107401123D01*
X114694701Y-107384647D01*
X114714407Y-107370032D01*
X114735450Y-107357420D01*
X114757629Y-107346930D01*
X114780728Y-107338665D01*
X114804527Y-107332704D01*
X114828795Y-107329104D01*
X114853299Y-107327900D01*
X115753301Y-107327900D01*
X115777805Y-107329104D01*
G37*
G04 #@! TD.AperFunction*
G04 #@! TA.AperFunction,SMDPad,CuDef*
G36*
X127423705Y-111627004D02*
G01*
X127447973Y-111630604D01*
X127471772Y-111636565D01*
X127494871Y-111644830D01*
X127517050Y-111655320D01*
X127538093Y-111667932D01*
X127557799Y-111682547D01*
X127575977Y-111699023D01*
X127592453Y-111717201D01*
X127607068Y-111736907D01*
X127619680Y-111757950D01*
X127630170Y-111780129D01*
X127638435Y-111803228D01*
X127644396Y-111827027D01*
X127647996Y-111851295D01*
X127649200Y-111875799D01*
X127649200Y-112525801D01*
X127647996Y-112550305D01*
X127644396Y-112574573D01*
X127638435Y-112598372D01*
X127630170Y-112621471D01*
X127619680Y-112643650D01*
X127607068Y-112664693D01*
X127592453Y-112684399D01*
X127575977Y-112702577D01*
X127557799Y-112719053D01*
X127538093Y-112733668D01*
X127517050Y-112746280D01*
X127494871Y-112756770D01*
X127471772Y-112765035D01*
X127447973Y-112770996D01*
X127423705Y-112774596D01*
X127399201Y-112775800D01*
X126499199Y-112775800D01*
X126474695Y-112774596D01*
X126450427Y-112770996D01*
X126426628Y-112765035D01*
X126403529Y-112756770D01*
X126381350Y-112746280D01*
X126360307Y-112733668D01*
X126340601Y-112719053D01*
X126322423Y-112702577D01*
X126305947Y-112684399D01*
X126291332Y-112664693D01*
X126278720Y-112643650D01*
X126268230Y-112621471D01*
X126259965Y-112598372D01*
X126254004Y-112574573D01*
X126250404Y-112550305D01*
X126249200Y-112525801D01*
X126249200Y-111875799D01*
X126250404Y-111851295D01*
X126254004Y-111827027D01*
X126259965Y-111803228D01*
X126268230Y-111780129D01*
X126278720Y-111757950D01*
X126291332Y-111736907D01*
X126305947Y-111717201D01*
X126322423Y-111699023D01*
X126340601Y-111682547D01*
X126360307Y-111667932D01*
X126381350Y-111655320D01*
X126403529Y-111644830D01*
X126426628Y-111636565D01*
X126450427Y-111630604D01*
X126474695Y-111627004D01*
X126499199Y-111625800D01*
X127399201Y-111625800D01*
X127423705Y-111627004D01*
G37*
G04 #@! TD.AperFunction*
G04 #@! TA.AperFunction,SMDPad,CuDef*
G36*
X127423705Y-109577004D02*
G01*
X127447973Y-109580604D01*
X127471772Y-109586565D01*
X127494871Y-109594830D01*
X127517050Y-109605320D01*
X127538093Y-109617932D01*
X127557799Y-109632547D01*
X127575977Y-109649023D01*
X127592453Y-109667201D01*
X127607068Y-109686907D01*
X127619680Y-109707950D01*
X127630170Y-109730129D01*
X127638435Y-109753228D01*
X127644396Y-109777027D01*
X127647996Y-109801295D01*
X127649200Y-109825799D01*
X127649200Y-110475801D01*
X127647996Y-110500305D01*
X127644396Y-110524573D01*
X127638435Y-110548372D01*
X127630170Y-110571471D01*
X127619680Y-110593650D01*
X127607068Y-110614693D01*
X127592453Y-110634399D01*
X127575977Y-110652577D01*
X127557799Y-110669053D01*
X127538093Y-110683668D01*
X127517050Y-110696280D01*
X127494871Y-110706770D01*
X127471772Y-110715035D01*
X127447973Y-110720996D01*
X127423705Y-110724596D01*
X127399201Y-110725800D01*
X126499199Y-110725800D01*
X126474695Y-110724596D01*
X126450427Y-110720996D01*
X126426628Y-110715035D01*
X126403529Y-110706770D01*
X126381350Y-110696280D01*
X126360307Y-110683668D01*
X126340601Y-110669053D01*
X126322423Y-110652577D01*
X126305947Y-110634399D01*
X126291332Y-110614693D01*
X126278720Y-110593650D01*
X126268230Y-110571471D01*
X126259965Y-110548372D01*
X126254004Y-110524573D01*
X126250404Y-110500305D01*
X126249200Y-110475801D01*
X126249200Y-109825799D01*
X126250404Y-109801295D01*
X126254004Y-109777027D01*
X126259965Y-109753228D01*
X126268230Y-109730129D01*
X126278720Y-109707950D01*
X126291332Y-109686907D01*
X126305947Y-109667201D01*
X126322423Y-109649023D01*
X126340601Y-109632547D01*
X126360307Y-109617932D01*
X126381350Y-109605320D01*
X126403529Y-109594830D01*
X126426628Y-109586565D01*
X126450427Y-109580604D01*
X126474695Y-109577004D01*
X126499199Y-109575800D01*
X127399201Y-109575800D01*
X127423705Y-109577004D01*
G37*
G04 #@! TD.AperFunction*
G04 #@! TA.AperFunction,SMDPad,CuDef*
G36*
X125086905Y-111576204D02*
G01*
X125111173Y-111579804D01*
X125134972Y-111585765D01*
X125158071Y-111594030D01*
X125180250Y-111604520D01*
X125201293Y-111617132D01*
X125220999Y-111631747D01*
X125239177Y-111648223D01*
X125255653Y-111666401D01*
X125270268Y-111686107D01*
X125282880Y-111707150D01*
X125293370Y-111729329D01*
X125301635Y-111752428D01*
X125307596Y-111776227D01*
X125311196Y-111800495D01*
X125312400Y-111824999D01*
X125312400Y-112475001D01*
X125311196Y-112499505D01*
X125307596Y-112523773D01*
X125301635Y-112547572D01*
X125293370Y-112570671D01*
X125282880Y-112592850D01*
X125270268Y-112613893D01*
X125255653Y-112633599D01*
X125239177Y-112651777D01*
X125220999Y-112668253D01*
X125201293Y-112682868D01*
X125180250Y-112695480D01*
X125158071Y-112705970D01*
X125134972Y-112714235D01*
X125111173Y-112720196D01*
X125086905Y-112723796D01*
X125062401Y-112725000D01*
X124162399Y-112725000D01*
X124137895Y-112723796D01*
X124113627Y-112720196D01*
X124089828Y-112714235D01*
X124066729Y-112705970D01*
X124044550Y-112695480D01*
X124023507Y-112682868D01*
X124003801Y-112668253D01*
X123985623Y-112651777D01*
X123969147Y-112633599D01*
X123954532Y-112613893D01*
X123941920Y-112592850D01*
X123931430Y-112570671D01*
X123923165Y-112547572D01*
X123917204Y-112523773D01*
X123913604Y-112499505D01*
X123912400Y-112475001D01*
X123912400Y-111824999D01*
X123913604Y-111800495D01*
X123917204Y-111776227D01*
X123923165Y-111752428D01*
X123931430Y-111729329D01*
X123941920Y-111707150D01*
X123954532Y-111686107D01*
X123969147Y-111666401D01*
X123985623Y-111648223D01*
X124003801Y-111631747D01*
X124023507Y-111617132D01*
X124044550Y-111604520D01*
X124066729Y-111594030D01*
X124089828Y-111585765D01*
X124113627Y-111579804D01*
X124137895Y-111576204D01*
X124162399Y-111575000D01*
X125062401Y-111575000D01*
X125086905Y-111576204D01*
G37*
G04 #@! TD.AperFunction*
G04 #@! TA.AperFunction,SMDPad,CuDef*
G36*
X125086905Y-109526204D02*
G01*
X125111173Y-109529804D01*
X125134972Y-109535765D01*
X125158071Y-109544030D01*
X125180250Y-109554520D01*
X125201293Y-109567132D01*
X125220999Y-109581747D01*
X125239177Y-109598223D01*
X125255653Y-109616401D01*
X125270268Y-109636107D01*
X125282880Y-109657150D01*
X125293370Y-109679329D01*
X125301635Y-109702428D01*
X125307596Y-109726227D01*
X125311196Y-109750495D01*
X125312400Y-109774999D01*
X125312400Y-110425001D01*
X125311196Y-110449505D01*
X125307596Y-110473773D01*
X125301635Y-110497572D01*
X125293370Y-110520671D01*
X125282880Y-110542850D01*
X125270268Y-110563893D01*
X125255653Y-110583599D01*
X125239177Y-110601777D01*
X125220999Y-110618253D01*
X125201293Y-110632868D01*
X125180250Y-110645480D01*
X125158071Y-110655970D01*
X125134972Y-110664235D01*
X125111173Y-110670196D01*
X125086905Y-110673796D01*
X125062401Y-110675000D01*
X124162399Y-110675000D01*
X124137895Y-110673796D01*
X124113627Y-110670196D01*
X124089828Y-110664235D01*
X124066729Y-110655970D01*
X124044550Y-110645480D01*
X124023507Y-110632868D01*
X124003801Y-110618253D01*
X123985623Y-110601777D01*
X123969147Y-110583599D01*
X123954532Y-110563893D01*
X123941920Y-110542850D01*
X123931430Y-110520671D01*
X123923165Y-110497572D01*
X123917204Y-110473773D01*
X123913604Y-110449505D01*
X123912400Y-110425001D01*
X123912400Y-109774999D01*
X123913604Y-109750495D01*
X123917204Y-109726227D01*
X123923165Y-109702428D01*
X123931430Y-109679329D01*
X123941920Y-109657150D01*
X123954532Y-109636107D01*
X123969147Y-109616401D01*
X123985623Y-109598223D01*
X124003801Y-109581747D01*
X124023507Y-109567132D01*
X124044550Y-109554520D01*
X124066729Y-109544030D01*
X124089828Y-109535765D01*
X124113627Y-109529804D01*
X124137895Y-109526204D01*
X124162399Y-109525000D01*
X125062401Y-109525000D01*
X125086905Y-109526204D01*
G37*
G04 #@! TD.AperFunction*
G04 #@! TA.AperFunction,SMDPad,CuDef*
G36*
X131633105Y-118478004D02*
G01*
X131657373Y-118481604D01*
X131681172Y-118487565D01*
X131704271Y-118495830D01*
X131726450Y-118506320D01*
X131747493Y-118518932D01*
X131767199Y-118533547D01*
X131785377Y-118550023D01*
X131801853Y-118568201D01*
X131816468Y-118587907D01*
X131829080Y-118608950D01*
X131839570Y-118631129D01*
X131847835Y-118654228D01*
X131853796Y-118678027D01*
X131857396Y-118702295D01*
X131858600Y-118726799D01*
X131858600Y-119626801D01*
X131857396Y-119651305D01*
X131853796Y-119675573D01*
X131847835Y-119699372D01*
X131839570Y-119722471D01*
X131829080Y-119744650D01*
X131816468Y-119765693D01*
X131801853Y-119785399D01*
X131785377Y-119803577D01*
X131767199Y-119820053D01*
X131747493Y-119834668D01*
X131726450Y-119847280D01*
X131704271Y-119857770D01*
X131681172Y-119866035D01*
X131657373Y-119871996D01*
X131633105Y-119875596D01*
X131608601Y-119876800D01*
X130958599Y-119876800D01*
X130934095Y-119875596D01*
X130909827Y-119871996D01*
X130886028Y-119866035D01*
X130862929Y-119857770D01*
X130840750Y-119847280D01*
X130819707Y-119834668D01*
X130800001Y-119820053D01*
X130781823Y-119803577D01*
X130765347Y-119785399D01*
X130750732Y-119765693D01*
X130738120Y-119744650D01*
X130727630Y-119722471D01*
X130719365Y-119699372D01*
X130713404Y-119675573D01*
X130709804Y-119651305D01*
X130708600Y-119626801D01*
X130708600Y-118726799D01*
X130709804Y-118702295D01*
X130713404Y-118678027D01*
X130719365Y-118654228D01*
X130727630Y-118631129D01*
X130738120Y-118608950D01*
X130750732Y-118587907D01*
X130765347Y-118568201D01*
X130781823Y-118550023D01*
X130800001Y-118533547D01*
X130819707Y-118518932D01*
X130840750Y-118506320D01*
X130862929Y-118495830D01*
X130886028Y-118487565D01*
X130909827Y-118481604D01*
X130934095Y-118478004D01*
X130958599Y-118476800D01*
X131608601Y-118476800D01*
X131633105Y-118478004D01*
G37*
G04 #@! TD.AperFunction*
G04 #@! TA.AperFunction,SMDPad,CuDef*
G36*
X133683105Y-118478004D02*
G01*
X133707373Y-118481604D01*
X133731172Y-118487565D01*
X133754271Y-118495830D01*
X133776450Y-118506320D01*
X133797493Y-118518932D01*
X133817199Y-118533547D01*
X133835377Y-118550023D01*
X133851853Y-118568201D01*
X133866468Y-118587907D01*
X133879080Y-118608950D01*
X133889570Y-118631129D01*
X133897835Y-118654228D01*
X133903796Y-118678027D01*
X133907396Y-118702295D01*
X133908600Y-118726799D01*
X133908600Y-119626801D01*
X133907396Y-119651305D01*
X133903796Y-119675573D01*
X133897835Y-119699372D01*
X133889570Y-119722471D01*
X133879080Y-119744650D01*
X133866468Y-119765693D01*
X133851853Y-119785399D01*
X133835377Y-119803577D01*
X133817199Y-119820053D01*
X133797493Y-119834668D01*
X133776450Y-119847280D01*
X133754271Y-119857770D01*
X133731172Y-119866035D01*
X133707373Y-119871996D01*
X133683105Y-119875596D01*
X133658601Y-119876800D01*
X133008599Y-119876800D01*
X132984095Y-119875596D01*
X132959827Y-119871996D01*
X132936028Y-119866035D01*
X132912929Y-119857770D01*
X132890750Y-119847280D01*
X132869707Y-119834668D01*
X132850001Y-119820053D01*
X132831823Y-119803577D01*
X132815347Y-119785399D01*
X132800732Y-119765693D01*
X132788120Y-119744650D01*
X132777630Y-119722471D01*
X132769365Y-119699372D01*
X132763404Y-119675573D01*
X132759804Y-119651305D01*
X132758600Y-119626801D01*
X132758600Y-118726799D01*
X132759804Y-118702295D01*
X132763404Y-118678027D01*
X132769365Y-118654228D01*
X132777630Y-118631129D01*
X132788120Y-118608950D01*
X132800732Y-118587907D01*
X132815347Y-118568201D01*
X132831823Y-118550023D01*
X132850001Y-118533547D01*
X132869707Y-118518932D01*
X132890750Y-118506320D01*
X132912929Y-118495830D01*
X132936028Y-118487565D01*
X132959827Y-118481604D01*
X132984095Y-118478004D01*
X133008599Y-118476800D01*
X133658601Y-118476800D01*
X133683105Y-118478004D01*
G37*
G04 #@! TD.AperFunction*
G04 #@! TA.AperFunction,SMDPad,CuDef*
G36*
X138135505Y-118478004D02*
G01*
X138159773Y-118481604D01*
X138183572Y-118487565D01*
X138206671Y-118495830D01*
X138228850Y-118506320D01*
X138249893Y-118518932D01*
X138269599Y-118533547D01*
X138287777Y-118550023D01*
X138304253Y-118568201D01*
X138318868Y-118587907D01*
X138331480Y-118608950D01*
X138341970Y-118631129D01*
X138350235Y-118654228D01*
X138356196Y-118678027D01*
X138359796Y-118702295D01*
X138361000Y-118726799D01*
X138361000Y-119626801D01*
X138359796Y-119651305D01*
X138356196Y-119675573D01*
X138350235Y-119699372D01*
X138341970Y-119722471D01*
X138331480Y-119744650D01*
X138318868Y-119765693D01*
X138304253Y-119785399D01*
X138287777Y-119803577D01*
X138269599Y-119820053D01*
X138249893Y-119834668D01*
X138228850Y-119847280D01*
X138206671Y-119857770D01*
X138183572Y-119866035D01*
X138159773Y-119871996D01*
X138135505Y-119875596D01*
X138111001Y-119876800D01*
X137460999Y-119876800D01*
X137436495Y-119875596D01*
X137412227Y-119871996D01*
X137388428Y-119866035D01*
X137365329Y-119857770D01*
X137343150Y-119847280D01*
X137322107Y-119834668D01*
X137302401Y-119820053D01*
X137284223Y-119803577D01*
X137267747Y-119785399D01*
X137253132Y-119765693D01*
X137240520Y-119744650D01*
X137230030Y-119722471D01*
X137221765Y-119699372D01*
X137215804Y-119675573D01*
X137212204Y-119651305D01*
X137211000Y-119626801D01*
X137211000Y-118726799D01*
X137212204Y-118702295D01*
X137215804Y-118678027D01*
X137221765Y-118654228D01*
X137230030Y-118631129D01*
X137240520Y-118608950D01*
X137253132Y-118587907D01*
X137267747Y-118568201D01*
X137284223Y-118550023D01*
X137302401Y-118533547D01*
X137322107Y-118518932D01*
X137343150Y-118506320D01*
X137365329Y-118495830D01*
X137388428Y-118487565D01*
X137412227Y-118481604D01*
X137436495Y-118478004D01*
X137460999Y-118476800D01*
X138111001Y-118476800D01*
X138135505Y-118478004D01*
G37*
G04 #@! TD.AperFunction*
G04 #@! TA.AperFunction,SMDPad,CuDef*
G36*
X140185505Y-118478004D02*
G01*
X140209773Y-118481604D01*
X140233572Y-118487565D01*
X140256671Y-118495830D01*
X140278850Y-118506320D01*
X140299893Y-118518932D01*
X140319599Y-118533547D01*
X140337777Y-118550023D01*
X140354253Y-118568201D01*
X140368868Y-118587907D01*
X140381480Y-118608950D01*
X140391970Y-118631129D01*
X140400235Y-118654228D01*
X140406196Y-118678027D01*
X140409796Y-118702295D01*
X140411000Y-118726799D01*
X140411000Y-119626801D01*
X140409796Y-119651305D01*
X140406196Y-119675573D01*
X140400235Y-119699372D01*
X140391970Y-119722471D01*
X140381480Y-119744650D01*
X140368868Y-119765693D01*
X140354253Y-119785399D01*
X140337777Y-119803577D01*
X140319599Y-119820053D01*
X140299893Y-119834668D01*
X140278850Y-119847280D01*
X140256671Y-119857770D01*
X140233572Y-119866035D01*
X140209773Y-119871996D01*
X140185505Y-119875596D01*
X140161001Y-119876800D01*
X139510999Y-119876800D01*
X139486495Y-119875596D01*
X139462227Y-119871996D01*
X139438428Y-119866035D01*
X139415329Y-119857770D01*
X139393150Y-119847280D01*
X139372107Y-119834668D01*
X139352401Y-119820053D01*
X139334223Y-119803577D01*
X139317747Y-119785399D01*
X139303132Y-119765693D01*
X139290520Y-119744650D01*
X139280030Y-119722471D01*
X139271765Y-119699372D01*
X139265804Y-119675573D01*
X139262204Y-119651305D01*
X139261000Y-119626801D01*
X139261000Y-118726799D01*
X139262204Y-118702295D01*
X139265804Y-118678027D01*
X139271765Y-118654228D01*
X139280030Y-118631129D01*
X139290520Y-118608950D01*
X139303132Y-118587907D01*
X139317747Y-118568201D01*
X139334223Y-118550023D01*
X139352401Y-118533547D01*
X139372107Y-118518932D01*
X139393150Y-118506320D01*
X139415329Y-118495830D01*
X139438428Y-118487565D01*
X139462227Y-118481604D01*
X139486495Y-118478004D01*
X139510999Y-118476800D01*
X140161001Y-118476800D01*
X140185505Y-118478004D01*
G37*
G04 #@! TD.AperFunction*
D15*
X105486200Y-116138600D03*
X105486200Y-112638600D03*
X105486200Y-109138600D03*
D16*
X105486200Y-105638600D03*
D17*
X141275000Y-116547900D03*
X141275000Y-115277900D03*
X141275000Y-114007900D03*
X141275000Y-112737900D03*
X141275000Y-111467900D03*
X141275000Y-110197900D03*
X141275000Y-108927900D03*
X141275000Y-107657900D03*
X141275000Y-106387900D03*
X141275000Y-105117900D03*
X131775000Y-105117900D03*
X131775000Y-106387900D03*
X131775000Y-107657900D03*
X131775000Y-108927900D03*
X131775000Y-116547900D03*
X131775000Y-115277900D03*
X131775000Y-114007900D03*
X131775000Y-112737900D03*
X131775000Y-111467900D03*
X131775000Y-110197900D03*
D18*
X121932700Y-101598900D03*
X124409200Y-100799900D03*
X136207500Y-100625012D03*
X139280900Y-106375200D03*
X136569674Y-107737280D03*
X135078300Y-116446300D03*
X118935500Y-118351300D03*
X133413500Y-112090200D03*
X134353300Y-111302800D03*
X138963400Y-114007900D03*
X125399800Y-108357500D03*
X119773700Y-109423200D03*
X120230900Y-112217200D03*
X138658600Y-112725200D03*
X128943100Y-108229400D03*
D19*
X130695700Y-108927900D02*
X131775000Y-108927900D01*
X130340100Y-108572300D02*
X130695700Y-108927900D01*
X130340100Y-107721400D02*
X130340100Y-108572300D01*
X120726200Y-107099100D02*
X129717800Y-107099100D01*
X120155399Y-106528299D02*
X120726200Y-107099100D01*
X120129999Y-106528299D02*
X120155399Y-106528299D01*
X129717800Y-107099100D02*
X130340100Y-107721400D01*
X119380000Y-105778300D02*
X120129999Y-106528299D01*
X122149700Y-101815900D02*
X121932700Y-101598900D01*
X135458200Y-101815900D02*
X122149700Y-101815900D01*
X137617200Y-103974900D02*
X135458200Y-101815900D01*
X137617200Y-106845100D02*
X137617200Y-103974900D01*
X139700000Y-108927900D02*
X137617200Y-106845100D01*
X141275000Y-108927900D02*
X139700000Y-108927900D01*
X124790200Y-101180900D02*
X124409200Y-100799900D01*
X135648700Y-101180900D02*
X124790200Y-101180900D01*
X138239500Y-103771700D02*
X135648700Y-101180900D01*
X139179300Y-107657900D02*
X138239500Y-106718100D01*
X138239500Y-106718100D02*
X138239500Y-103771700D01*
X141275000Y-107657900D02*
X139179300Y-107657900D01*
X127000000Y-104279700D02*
X127000000Y-105778300D01*
X127444500Y-103835200D02*
X127000000Y-104279700D01*
X134124700Y-103835200D02*
X127444500Y-103835200D01*
X135178800Y-104889300D02*
X134124700Y-103835200D01*
X135178800Y-111604100D02*
X135178800Y-104889300D01*
X132775000Y-114007900D02*
X135178800Y-111604100D01*
X131775000Y-114007900D02*
X132775000Y-114007900D01*
X136773185Y-100625012D02*
X136207500Y-100625012D01*
X141275000Y-105117900D02*
X141275000Y-104567900D01*
X141275000Y-104567900D02*
X137332112Y-100625012D01*
X137332112Y-100625012D02*
X136773185Y-100625012D01*
X139293600Y-106387900D02*
X139280900Y-106375200D01*
X141275000Y-106387900D02*
X139293600Y-106387900D01*
X136569674Y-107737280D02*
X136569674Y-112604326D01*
X135078300Y-114095700D02*
X135078300Y-116446300D01*
X136569674Y-112604326D02*
X135078300Y-114095700D01*
X126250001Y-116688299D02*
X126237301Y-116688299D01*
X127000000Y-115938300D02*
X126250001Y-116688299D01*
X126237301Y-116688299D02*
X125018800Y-117906800D01*
X119380000Y-117906800D02*
X118935500Y-118351300D01*
X125018800Y-117906800D02*
X119380000Y-117906800D01*
X133413500Y-108296400D02*
X133413500Y-112090200D01*
X132775000Y-107657900D02*
X133413500Y-108296400D01*
X131775000Y-107657900D02*
X132775000Y-107657900D01*
X129933700Y-113182400D02*
X130378200Y-112737900D01*
X129933700Y-113995200D02*
X129933700Y-113182400D01*
X129171700Y-114757200D02*
X129933700Y-113995200D01*
X130378200Y-112737900D02*
X131775000Y-112737900D01*
X123101100Y-114757200D02*
X129171700Y-114757200D01*
X121920000Y-115938300D02*
X123101100Y-114757200D01*
X134353300Y-107966200D02*
X134353300Y-111302800D01*
X132775000Y-106387900D02*
X134353300Y-107966200D01*
X131775000Y-106387900D02*
X132775000Y-106387900D01*
X117589999Y-115188301D02*
X117589999Y-115150201D01*
X116840000Y-115938300D02*
X117589999Y-115188301D01*
X117589999Y-115150201D02*
X118249700Y-114490500D01*
X118249700Y-114490500D02*
X122364500Y-114490500D01*
X122364500Y-114490500D02*
X122758200Y-114096800D01*
X122758200Y-114096800D02*
X128854200Y-114096800D01*
X128854200Y-114096800D02*
X129374900Y-113576100D01*
X129374900Y-113576100D02*
X129374900Y-112877600D01*
X129374900Y-112877600D02*
X130048000Y-112204500D01*
X130048000Y-112204500D02*
X130048000Y-111747300D01*
X130327400Y-111467900D02*
X131775000Y-111467900D01*
X130048000Y-111747300D02*
X130327400Y-111467900D01*
X129946400Y-110197900D02*
X130775000Y-110197900D01*
X130775000Y-110197900D02*
X131775000Y-110197900D01*
X129286000Y-110858300D02*
X129946400Y-110197900D01*
X129286000Y-111848900D02*
X129286000Y-110858300D01*
X128549400Y-113068100D02*
X128549400Y-112585500D01*
X128244600Y-113372900D02*
X128549400Y-113068100D01*
X122605800Y-113372900D02*
X128244600Y-113372900D01*
X128549400Y-112585500D02*
X129286000Y-111848900D01*
X122123200Y-113855500D02*
X122605800Y-113372900D01*
X116382800Y-113855500D02*
X122123200Y-113855500D01*
X114300000Y-115938300D02*
X116382800Y-113855500D01*
X131283600Y-119176800D02*
X131283600Y-117738000D01*
X131775000Y-117246600D02*
X131775000Y-116547900D01*
X131283600Y-117738000D02*
X131775000Y-117246600D01*
X137786000Y-118476800D02*
X137807700Y-118455100D01*
X137786000Y-119176800D02*
X137786000Y-118476800D01*
X137807700Y-118455100D02*
X137807700Y-118071900D01*
X136982400Y-117246600D02*
X131775000Y-117246600D01*
X137807700Y-118071900D02*
X136982400Y-117246600D01*
X131283600Y-119176800D02*
X112915700Y-119176800D01*
X111480600Y-117741700D02*
X111480600Y-114706400D01*
X112915700Y-119176800D02*
X111480600Y-117741700D01*
X110048400Y-116138600D02*
X111480600Y-114706400D01*
X105486200Y-116138600D02*
X110048400Y-116138600D01*
X124663200Y-112200800D02*
X124612400Y-112150000D01*
X126949200Y-112200800D02*
X124663200Y-112200800D01*
X124612400Y-112150000D02*
X122838100Y-112150000D01*
X122838100Y-112150000D02*
X121856500Y-113131600D01*
X121856500Y-113131600D02*
X116192300Y-113131600D01*
X114617500Y-114706400D02*
X111480600Y-114706400D01*
X116192300Y-113131600D02*
X114617500Y-114706400D01*
X133908600Y-119176800D02*
X133946700Y-119138700D01*
X133333600Y-119176800D02*
X133908600Y-119176800D01*
X133946700Y-119138700D02*
X136156700Y-119138700D01*
X136156700Y-119138700D02*
X136563100Y-119545100D01*
X136563100Y-119545100D02*
X136563100Y-120015000D01*
X136563100Y-120015000D02*
X137045700Y-120497600D01*
X137045700Y-120497600D02*
X139623800Y-120497600D01*
X139836000Y-120285400D02*
X139836000Y-119176800D01*
X139623800Y-120497600D02*
X139836000Y-120285400D01*
X133333600Y-119876800D02*
X132674700Y-120535700D01*
X133333600Y-119176800D02*
X133333600Y-119876800D01*
X132674700Y-120535700D02*
X104444800Y-120535700D01*
X104444800Y-120535700D02*
X102641400Y-118732300D01*
X102641400Y-118732300D02*
X102641400Y-106476800D01*
X103479600Y-105638600D02*
X105486200Y-105638600D01*
X102641400Y-106476800D02*
X103479600Y-105638600D01*
X111480600Y-105986400D02*
X111480600Y-107086400D01*
X111132800Y-105638600D02*
X111480600Y-105986400D01*
X105486200Y-105638600D02*
X111132800Y-105638600D01*
X115328700Y-107877500D02*
X115303300Y-107902900D01*
X117640100Y-107877500D02*
X115328700Y-107877500D01*
X112297100Y-107902900D02*
X111480600Y-107086400D01*
X115303300Y-107902900D02*
X112297100Y-107902900D01*
X137807700Y-112293400D02*
X137807700Y-116293900D01*
X137807700Y-116293900D02*
X139836000Y-118322200D01*
X138671300Y-111429800D02*
X137807700Y-112293400D01*
X140236900Y-111429800D02*
X138671300Y-111429800D01*
X139836000Y-118322200D02*
X139836000Y-119176800D01*
X140275000Y-111467900D02*
X140236900Y-111429800D01*
X141275000Y-111467900D02*
X140275000Y-111467900D01*
X105486200Y-109138600D02*
X108148000Y-109138600D01*
X108635800Y-109626400D02*
X111480600Y-109626400D01*
X108148000Y-109138600D02*
X108635800Y-109626400D01*
X111480600Y-109626400D02*
X113385600Y-109626400D01*
X113712100Y-109952900D02*
X115303300Y-109952900D01*
X113385600Y-109626400D02*
X113712100Y-109952900D01*
X122678300Y-110100000D02*
X124612400Y-110100000D01*
X116065500Y-111290100D02*
X121488200Y-111290100D01*
X121488200Y-111290100D02*
X122678300Y-110100000D01*
X115303300Y-110527900D02*
X116065500Y-111290100D01*
X115303300Y-109952900D02*
X115303300Y-110527900D01*
X141275000Y-114007900D02*
X138963400Y-114007900D01*
X124999801Y-108757499D02*
X124619799Y-108757499D01*
X125399800Y-108357500D02*
X124999801Y-108757499D01*
X124612400Y-108764898D02*
X124612400Y-110100000D01*
X124619799Y-108757499D02*
X124612400Y-108764898D01*
X105486200Y-112638600D02*
X108189000Y-112638600D01*
X108661200Y-112166400D02*
X111480600Y-112166400D01*
X108189000Y-112638600D02*
X108661200Y-112166400D01*
X117640100Y-109927500D02*
X118340100Y-109927500D01*
X118340100Y-109927500D02*
X118349100Y-109918500D01*
X119278400Y-109918500D02*
X119773700Y-109423200D01*
X118349100Y-109918500D02*
X119278400Y-109918500D01*
X113919000Y-112166400D02*
X111480600Y-112166400D01*
X114147600Y-112395000D02*
X113919000Y-112166400D01*
X120053100Y-112395000D02*
X114147600Y-112395000D01*
X120230900Y-112217200D02*
X120053100Y-112395000D01*
X119773700Y-108857515D02*
X119773700Y-109423200D01*
X119773700Y-108712000D02*
X119773700Y-108857515D01*
X120853200Y-107632500D02*
X119773700Y-108712000D01*
X125730000Y-107632500D02*
X120853200Y-107632500D01*
X126949200Y-108851700D02*
X125730000Y-107632500D01*
X138671300Y-112737900D02*
X138658600Y-112725200D01*
X141275000Y-112737900D02*
X138671300Y-112737900D01*
X127825500Y-108229400D02*
X126936500Y-109118400D01*
X128943100Y-108229400D02*
X127825500Y-108229400D01*
X126936500Y-109118400D02*
X126949200Y-108851700D01*
X126949200Y-110150800D02*
X126936500Y-109118400D01*
X114300000Y-103835200D02*
X114300000Y-105778300D01*
X115620800Y-102514400D02*
X114300000Y-103835200D01*
X135293100Y-102514400D02*
X115620800Y-102514400D01*
X136944100Y-107086400D02*
X136944100Y-104165400D01*
X140055600Y-110197900D02*
X136944100Y-107086400D01*
X136944100Y-104165400D02*
X135293100Y-102514400D01*
X141275000Y-110197900D02*
X140055600Y-110197900D01*
X116840000Y-104457500D02*
X116840000Y-105778300D01*
X118097300Y-103200200D02*
X116840000Y-104457500D01*
X134886700Y-103200200D02*
X118097300Y-103200200D01*
X135826500Y-104140000D02*
X134886700Y-103200200D01*
X135826500Y-112226400D02*
X135826500Y-104140000D01*
X132775000Y-115277900D02*
X135826500Y-112226400D01*
X131775000Y-115277900D02*
X132775000Y-115277900D01*
D20*
G36*
X103648128Y-106838600D02*
G01*
X103660388Y-106963082D01*
X103696698Y-107082780D01*
X103755663Y-107193094D01*
X103835015Y-107289785D01*
X103931706Y-107369137D01*
X104042020Y-107428102D01*
X104161718Y-107464412D01*
X104286200Y-107476672D01*
X104703362Y-107476672D01*
X104617001Y-107512444D01*
X104316456Y-107713262D01*
X104060862Y-107968856D01*
X103860044Y-108269401D01*
X103721718Y-108603350D01*
X103651200Y-108957868D01*
X103651200Y-109319332D01*
X103721718Y-109673850D01*
X103860044Y-110007799D01*
X104060862Y-110308344D01*
X104316456Y-110563938D01*
X104617001Y-110764756D01*
X104915987Y-110888600D01*
X104617001Y-111012444D01*
X104316456Y-111213262D01*
X104060862Y-111468856D01*
X103860044Y-111769401D01*
X103721718Y-112103350D01*
X103651200Y-112457868D01*
X103651200Y-112819332D01*
X103721718Y-113173850D01*
X103860044Y-113507799D01*
X104060862Y-113808344D01*
X104316456Y-114063938D01*
X104617001Y-114264756D01*
X104923689Y-114391790D01*
X104730367Y-114456754D01*
X104507714Y-114575764D01*
X104387826Y-114860620D01*
X105486200Y-115958995D01*
X106584574Y-114860620D01*
X106464686Y-114575764D01*
X106140990Y-114414901D01*
X106051510Y-114390631D01*
X106355399Y-114264756D01*
X106655944Y-114063938D01*
X106911538Y-113808344D01*
X107112356Y-113507799D01*
X107157588Y-113398600D01*
X108151678Y-113398600D01*
X108189000Y-113402276D01*
X108226322Y-113398600D01*
X108226333Y-113398600D01*
X108337986Y-113387603D01*
X108481247Y-113344146D01*
X108613276Y-113273574D01*
X108729001Y-113178601D01*
X108752804Y-113149597D01*
X108976001Y-112926400D01*
X110202422Y-112926400D01*
X110327125Y-113113032D01*
X110533968Y-113319875D01*
X110716134Y-113441595D01*
X110599245Y-113511222D01*
X110383012Y-113706131D01*
X110208959Y-113939480D01*
X110083775Y-114202301D01*
X110039124Y-114349510D01*
X110160445Y-114579400D01*
X111353600Y-114579400D01*
X111353600Y-114559400D01*
X111607600Y-114559400D01*
X111607600Y-114579400D01*
X112800755Y-114579400D01*
X112922076Y-114349510D01*
X112877425Y-114202301D01*
X112752241Y-113939480D01*
X112578188Y-113706131D01*
X112361955Y-113511222D01*
X112245066Y-113441595D01*
X112427232Y-113319875D01*
X112634075Y-113113032D01*
X112758778Y-112926400D01*
X113600540Y-112926400D01*
X113607599Y-112935001D01*
X113723324Y-113029974D01*
X113855353Y-113100546D01*
X113998614Y-113144003D01*
X114110267Y-113155000D01*
X114110276Y-113155000D01*
X114147599Y-113158676D01*
X114184922Y-113155000D01*
X116081113Y-113155000D01*
X115958523Y-113220526D01*
X115874883Y-113289168D01*
X115842799Y-113315499D01*
X115819001Y-113344497D01*
X114613271Y-114550228D01*
X113550000Y-114550228D01*
X113425518Y-114562488D01*
X113305820Y-114598798D01*
X113195506Y-114657763D01*
X113098815Y-114737115D01*
X113019463Y-114833806D01*
X112960498Y-114944120D01*
X112924188Y-115063818D01*
X112911928Y-115188300D01*
X112911928Y-116688300D01*
X112924188Y-116812782D01*
X112960498Y-116932480D01*
X113019463Y-117042794D01*
X113098815Y-117139485D01*
X113195506Y-117218837D01*
X113305820Y-117277802D01*
X113425518Y-117314112D01*
X113550000Y-117326372D01*
X115050000Y-117326372D01*
X115174482Y-117314112D01*
X115294180Y-117277802D01*
X115404494Y-117218837D01*
X115501185Y-117139485D01*
X115580537Y-117042794D01*
X115639502Y-116932480D01*
X115675812Y-116812782D01*
X115686445Y-116704817D01*
X115764201Y-116821186D01*
X115957114Y-117014099D01*
X116183957Y-117165671D01*
X116436011Y-117270075D01*
X116703589Y-117323300D01*
X116976411Y-117323300D01*
X117243989Y-117270075D01*
X117496043Y-117165671D01*
X117722886Y-117014099D01*
X117915799Y-116821186D01*
X118067371Y-116594343D01*
X118110000Y-116491427D01*
X118152629Y-116594343D01*
X118304201Y-116821186D01*
X118497114Y-117014099D01*
X118723957Y-117165671D01*
X118966426Y-117266105D01*
X118955723Y-117271826D01*
X118922509Y-117299085D01*
X118901532Y-117316300D01*
X118833561Y-117316300D01*
X118633602Y-117356074D01*
X118445244Y-117434095D01*
X118275726Y-117547363D01*
X118131563Y-117691526D01*
X118018295Y-117861044D01*
X117940274Y-118049402D01*
X117900500Y-118249361D01*
X117900500Y-118453239D01*
X117940274Y-118653198D01*
X118018295Y-118841556D01*
X118131563Y-119011074D01*
X118275726Y-119155237D01*
X118445244Y-119268505D01*
X118633602Y-119346526D01*
X118833561Y-119386300D01*
X119037439Y-119386300D01*
X119237398Y-119346526D01*
X119425756Y-119268505D01*
X119595274Y-119155237D01*
X119739437Y-119011074D01*
X119852705Y-118841556D01*
X119925092Y-118666800D01*
X124981478Y-118666800D01*
X125018800Y-118670476D01*
X125056122Y-118666800D01*
X125056133Y-118666800D01*
X125167786Y-118655803D01*
X125311047Y-118612346D01*
X125443076Y-118541774D01*
X125522247Y-118476800D01*
X130070528Y-118476800D01*
X130073600Y-118891050D01*
X130232350Y-119049800D01*
X131156600Y-119049800D01*
X131156600Y-118000550D01*
X130997850Y-117841800D01*
X130708600Y-117838728D01*
X130584118Y-117850988D01*
X130464420Y-117887298D01*
X130354106Y-117946263D01*
X130257415Y-118025615D01*
X130178063Y-118122306D01*
X130119098Y-118232620D01*
X130082788Y-118352318D01*
X130070528Y-118476800D01*
X125522247Y-118476800D01*
X125558801Y-118446801D01*
X125582604Y-118417797D01*
X126690181Y-117310221D01*
X126711184Y-117292984D01*
X126863589Y-117323300D01*
X127136411Y-117323300D01*
X127403989Y-117270075D01*
X127656043Y-117165671D01*
X127882886Y-117014099D01*
X128075799Y-116821186D01*
X128227371Y-116594343D01*
X128270000Y-116491427D01*
X128312629Y-116594343D01*
X128464201Y-116821186D01*
X128657114Y-117014099D01*
X128883957Y-117165671D01*
X129136011Y-117270075D01*
X129403589Y-117323300D01*
X129676411Y-117323300D01*
X129943989Y-117270075D01*
X130196043Y-117165671D01*
X130413704Y-117020234D01*
X130435498Y-117092080D01*
X130494463Y-117202394D01*
X130573815Y-117299085D01*
X130670506Y-117378437D01*
X130780820Y-117437402D01*
X130900518Y-117473712D01*
X131025000Y-117485972D01*
X131489250Y-117482900D01*
X131648000Y-117324150D01*
X131648000Y-116674900D01*
X131902000Y-116674900D01*
X131902000Y-117324150D01*
X132060750Y-117482900D01*
X132525000Y-117485972D01*
X132649482Y-117473712D01*
X132769180Y-117437402D01*
X132879494Y-117378437D01*
X132976185Y-117299085D01*
X133055537Y-117202394D01*
X133114502Y-117092080D01*
X133150812Y-116972382D01*
X133163072Y-116847900D01*
X133160000Y-116833650D01*
X133001250Y-116674900D01*
X131902000Y-116674900D01*
X131648000Y-116674900D01*
X131628000Y-116674900D01*
X131628000Y-116420900D01*
X131648000Y-116420900D01*
X131648000Y-116400900D01*
X131902000Y-116400900D01*
X131902000Y-116420900D01*
X133001250Y-116420900D01*
X133160000Y-116262150D01*
X133163072Y-116247900D01*
X133150812Y-116123418D01*
X133114502Y-116003720D01*
X133095572Y-115968306D01*
X133199276Y-115912874D01*
X133315001Y-115817901D01*
X133338804Y-115788897D01*
X134318300Y-114809401D01*
X134318301Y-115742588D01*
X134274363Y-115786526D01*
X134161095Y-115956044D01*
X134083074Y-116144402D01*
X134043300Y-116344361D01*
X134043300Y-116548239D01*
X134083074Y-116748198D01*
X134161095Y-116936556D01*
X134274363Y-117106074D01*
X134418526Y-117250237D01*
X134588044Y-117363505D01*
X134776402Y-117441526D01*
X134976361Y-117481300D01*
X135180239Y-117481300D01*
X135380198Y-117441526D01*
X135568556Y-117363505D01*
X135738074Y-117250237D01*
X135882237Y-117106074D01*
X135995505Y-116936556D01*
X136073526Y-116748198D01*
X136113300Y-116548239D01*
X136113300Y-116344361D01*
X136073526Y-116144402D01*
X135995505Y-115956044D01*
X135882237Y-115786526D01*
X135838300Y-115742589D01*
X135838300Y-114410501D01*
X137047700Y-113201102D01*
X137047701Y-116256568D01*
X137044024Y-116293900D01*
X137058698Y-116442885D01*
X137102154Y-116586146D01*
X137172726Y-116718176D01*
X137243901Y-116804902D01*
X137267700Y-116833901D01*
X137296698Y-116857699D01*
X138278602Y-117839603D01*
X138071750Y-117841800D01*
X137913000Y-118000550D01*
X137913000Y-119049800D01*
X137933000Y-119049800D01*
X137933000Y-119303800D01*
X137913000Y-119303800D01*
X137913000Y-119323800D01*
X137659000Y-119323800D01*
X137659000Y-119303800D01*
X137639000Y-119303800D01*
X137639000Y-119049800D01*
X137659000Y-119049800D01*
X137659000Y-118000550D01*
X137500250Y-117841800D01*
X137211000Y-117838728D01*
X137086518Y-117850988D01*
X136966820Y-117887298D01*
X136856506Y-117946263D01*
X136759815Y-118025615D01*
X136680463Y-118122306D01*
X136621498Y-118232620D01*
X136585188Y-118352318D01*
X136572928Y-118476800D01*
X136573096Y-118499514D01*
X136448947Y-118433154D01*
X136305686Y-118389697D01*
X136194033Y-118378700D01*
X136194022Y-118378700D01*
X136156700Y-118375024D01*
X136119378Y-118378700D01*
X134474663Y-118378700D01*
X134397005Y-118233413D01*
X134286562Y-118098838D01*
X134151987Y-117988395D01*
X133998451Y-117906328D01*
X133831855Y-117855792D01*
X133658601Y-117838728D01*
X133008599Y-117838728D01*
X132835345Y-117855792D01*
X132668749Y-117906328D01*
X132515213Y-117988395D01*
X132380638Y-118098838D01*
X132375258Y-118105394D01*
X132309785Y-118025615D01*
X132213094Y-117946263D01*
X132102780Y-117887298D01*
X131983082Y-117850988D01*
X131858600Y-117838728D01*
X131569350Y-117841800D01*
X131410600Y-118000550D01*
X131410600Y-119049800D01*
X131430600Y-119049800D01*
X131430600Y-119303800D01*
X131410600Y-119303800D01*
X131410600Y-119323800D01*
X131156600Y-119323800D01*
X131156600Y-119303800D01*
X130232350Y-119303800D01*
X130073600Y-119462550D01*
X130071278Y-119775700D01*
X104759602Y-119775700D01*
X103401400Y-118417499D01*
X103401400Y-117416580D01*
X104387826Y-117416580D01*
X104507714Y-117701436D01*
X104831410Y-117862299D01*
X105180269Y-117956922D01*
X105540884Y-117981667D01*
X105899398Y-117935585D01*
X106242033Y-117820446D01*
X106464686Y-117701436D01*
X106584574Y-117416580D01*
X105486200Y-116318205D01*
X104387826Y-117416580D01*
X103401400Y-117416580D01*
X103401400Y-116193284D01*
X103643133Y-116193284D01*
X103689215Y-116551798D01*
X103804354Y-116894433D01*
X103923364Y-117117086D01*
X104208220Y-117236974D01*
X105306595Y-116138600D01*
X105665805Y-116138600D01*
X106764180Y-117236974D01*
X107049036Y-117117086D01*
X107209899Y-116793390D01*
X107304522Y-116444531D01*
X107329267Y-116083916D01*
X107283185Y-115725402D01*
X107168046Y-115382767D01*
X107049036Y-115160114D01*
X106818981Y-115063290D01*
X110039124Y-115063290D01*
X110083775Y-115210499D01*
X110208959Y-115473320D01*
X110383012Y-115706669D01*
X110599245Y-115901578D01*
X110849348Y-116050557D01*
X111123709Y-116147881D01*
X111353600Y-116027214D01*
X111353600Y-114833400D01*
X111607600Y-114833400D01*
X111607600Y-116027214D01*
X111837491Y-116147881D01*
X112111852Y-116050557D01*
X112361955Y-115901578D01*
X112578188Y-115706669D01*
X112752241Y-115473320D01*
X112877425Y-115210499D01*
X112922076Y-115063290D01*
X112800755Y-114833400D01*
X111607600Y-114833400D01*
X111353600Y-114833400D01*
X110160445Y-114833400D01*
X110039124Y-115063290D01*
X106818981Y-115063290D01*
X106764180Y-115040226D01*
X105665805Y-116138600D01*
X105306595Y-116138600D01*
X104208220Y-115040226D01*
X103923364Y-115160114D01*
X103762501Y-115483810D01*
X103667878Y-115832669D01*
X103643133Y-116193284D01*
X103401400Y-116193284D01*
X103401400Y-106791601D01*
X103648128Y-106544874D01*
X103648128Y-106838600D01*
G37*
X103648128Y-106838600D02*
X103660388Y-106963082D01*
X103696698Y-107082780D01*
X103755663Y-107193094D01*
X103835015Y-107289785D01*
X103931706Y-107369137D01*
X104042020Y-107428102D01*
X104161718Y-107464412D01*
X104286200Y-107476672D01*
X104703362Y-107476672D01*
X104617001Y-107512444D01*
X104316456Y-107713262D01*
X104060862Y-107968856D01*
X103860044Y-108269401D01*
X103721718Y-108603350D01*
X103651200Y-108957868D01*
X103651200Y-109319332D01*
X103721718Y-109673850D01*
X103860044Y-110007799D01*
X104060862Y-110308344D01*
X104316456Y-110563938D01*
X104617001Y-110764756D01*
X104915987Y-110888600D01*
X104617001Y-111012444D01*
X104316456Y-111213262D01*
X104060862Y-111468856D01*
X103860044Y-111769401D01*
X103721718Y-112103350D01*
X103651200Y-112457868D01*
X103651200Y-112819332D01*
X103721718Y-113173850D01*
X103860044Y-113507799D01*
X104060862Y-113808344D01*
X104316456Y-114063938D01*
X104617001Y-114264756D01*
X104923689Y-114391790D01*
X104730367Y-114456754D01*
X104507714Y-114575764D01*
X104387826Y-114860620D01*
X105486200Y-115958995D01*
X106584574Y-114860620D01*
X106464686Y-114575764D01*
X106140990Y-114414901D01*
X106051510Y-114390631D01*
X106355399Y-114264756D01*
X106655944Y-114063938D01*
X106911538Y-113808344D01*
X107112356Y-113507799D01*
X107157588Y-113398600D01*
X108151678Y-113398600D01*
X108189000Y-113402276D01*
X108226322Y-113398600D01*
X108226333Y-113398600D01*
X108337986Y-113387603D01*
X108481247Y-113344146D01*
X108613276Y-113273574D01*
X108729001Y-113178601D01*
X108752804Y-113149597D01*
X108976001Y-112926400D01*
X110202422Y-112926400D01*
X110327125Y-113113032D01*
X110533968Y-113319875D01*
X110716134Y-113441595D01*
X110599245Y-113511222D01*
X110383012Y-113706131D01*
X110208959Y-113939480D01*
X110083775Y-114202301D01*
X110039124Y-114349510D01*
X110160445Y-114579400D01*
X111353600Y-114579400D01*
X111353600Y-114559400D01*
X111607600Y-114559400D01*
X111607600Y-114579400D01*
X112800755Y-114579400D01*
X112922076Y-114349510D01*
X112877425Y-114202301D01*
X112752241Y-113939480D01*
X112578188Y-113706131D01*
X112361955Y-113511222D01*
X112245066Y-113441595D01*
X112427232Y-113319875D01*
X112634075Y-113113032D01*
X112758778Y-112926400D01*
X113600540Y-112926400D01*
X113607599Y-112935001D01*
X113723324Y-113029974D01*
X113855353Y-113100546D01*
X113998614Y-113144003D01*
X114110267Y-113155000D01*
X114110276Y-113155000D01*
X114147599Y-113158676D01*
X114184922Y-113155000D01*
X116081113Y-113155000D01*
X115958523Y-113220526D01*
X115874883Y-113289168D01*
X115842799Y-113315499D01*
X115819001Y-113344497D01*
X114613271Y-114550228D01*
X113550000Y-114550228D01*
X113425518Y-114562488D01*
X113305820Y-114598798D01*
X113195506Y-114657763D01*
X113098815Y-114737115D01*
X113019463Y-114833806D01*
X112960498Y-114944120D01*
X112924188Y-115063818D01*
X112911928Y-115188300D01*
X112911928Y-116688300D01*
X112924188Y-116812782D01*
X112960498Y-116932480D01*
X113019463Y-117042794D01*
X113098815Y-117139485D01*
X113195506Y-117218837D01*
X113305820Y-117277802D01*
X113425518Y-117314112D01*
X113550000Y-117326372D01*
X115050000Y-117326372D01*
X115174482Y-117314112D01*
X115294180Y-117277802D01*
X115404494Y-117218837D01*
X115501185Y-117139485D01*
X115580537Y-117042794D01*
X115639502Y-116932480D01*
X115675812Y-116812782D01*
X115686445Y-116704817D01*
X115764201Y-116821186D01*
X115957114Y-117014099D01*
X116183957Y-117165671D01*
X116436011Y-117270075D01*
X116703589Y-117323300D01*
X116976411Y-117323300D01*
X117243989Y-117270075D01*
X117496043Y-117165671D01*
X117722886Y-117014099D01*
X117915799Y-116821186D01*
X118067371Y-116594343D01*
X118110000Y-116491427D01*
X118152629Y-116594343D01*
X118304201Y-116821186D01*
X118497114Y-117014099D01*
X118723957Y-117165671D01*
X118966426Y-117266105D01*
X118955723Y-117271826D01*
X118922509Y-117299085D01*
X118901532Y-117316300D01*
X118833561Y-117316300D01*
X118633602Y-117356074D01*
X118445244Y-117434095D01*
X118275726Y-117547363D01*
X118131563Y-117691526D01*
X118018295Y-117861044D01*
X117940274Y-118049402D01*
X117900500Y-118249361D01*
X117900500Y-118453239D01*
X117940274Y-118653198D01*
X118018295Y-118841556D01*
X118131563Y-119011074D01*
X118275726Y-119155237D01*
X118445244Y-119268505D01*
X118633602Y-119346526D01*
X118833561Y-119386300D01*
X119037439Y-119386300D01*
X119237398Y-119346526D01*
X119425756Y-119268505D01*
X119595274Y-119155237D01*
X119739437Y-119011074D01*
X119852705Y-118841556D01*
X119925092Y-118666800D01*
X124981478Y-118666800D01*
X125018800Y-118670476D01*
X125056122Y-118666800D01*
X125056133Y-118666800D01*
X125167786Y-118655803D01*
X125311047Y-118612346D01*
X125443076Y-118541774D01*
X125522247Y-118476800D01*
X130070528Y-118476800D01*
X130073600Y-118891050D01*
X130232350Y-119049800D01*
X131156600Y-119049800D01*
X131156600Y-118000550D01*
X130997850Y-117841800D01*
X130708600Y-117838728D01*
X130584118Y-117850988D01*
X130464420Y-117887298D01*
X130354106Y-117946263D01*
X130257415Y-118025615D01*
X130178063Y-118122306D01*
X130119098Y-118232620D01*
X130082788Y-118352318D01*
X130070528Y-118476800D01*
X125522247Y-118476800D01*
X125558801Y-118446801D01*
X125582604Y-118417797D01*
X126690181Y-117310221D01*
X126711184Y-117292984D01*
X126863589Y-117323300D01*
X127136411Y-117323300D01*
X127403989Y-117270075D01*
X127656043Y-117165671D01*
X127882886Y-117014099D01*
X128075799Y-116821186D01*
X128227371Y-116594343D01*
X128270000Y-116491427D01*
X128312629Y-116594343D01*
X128464201Y-116821186D01*
X128657114Y-117014099D01*
X128883957Y-117165671D01*
X129136011Y-117270075D01*
X129403589Y-117323300D01*
X129676411Y-117323300D01*
X129943989Y-117270075D01*
X130196043Y-117165671D01*
X130413704Y-117020234D01*
X130435498Y-117092080D01*
X130494463Y-117202394D01*
X130573815Y-117299085D01*
X130670506Y-117378437D01*
X130780820Y-117437402D01*
X130900518Y-117473712D01*
X131025000Y-117485972D01*
X131489250Y-117482900D01*
X131648000Y-117324150D01*
X131648000Y-116674900D01*
X131902000Y-116674900D01*
X131902000Y-117324150D01*
X132060750Y-117482900D01*
X132525000Y-117485972D01*
X132649482Y-117473712D01*
X132769180Y-117437402D01*
X132879494Y-117378437D01*
X132976185Y-117299085D01*
X133055537Y-117202394D01*
X133114502Y-117092080D01*
X133150812Y-116972382D01*
X133163072Y-116847900D01*
X133160000Y-116833650D01*
X133001250Y-116674900D01*
X131902000Y-116674900D01*
X131648000Y-116674900D01*
X131628000Y-116674900D01*
X131628000Y-116420900D01*
X131648000Y-116420900D01*
X131648000Y-116400900D01*
X131902000Y-116400900D01*
X131902000Y-116420900D01*
X133001250Y-116420900D01*
X133160000Y-116262150D01*
X133163072Y-116247900D01*
X133150812Y-116123418D01*
X133114502Y-116003720D01*
X133095572Y-115968306D01*
X133199276Y-115912874D01*
X133315001Y-115817901D01*
X133338804Y-115788897D01*
X134318300Y-114809401D01*
X134318301Y-115742588D01*
X134274363Y-115786526D01*
X134161095Y-115956044D01*
X134083074Y-116144402D01*
X134043300Y-116344361D01*
X134043300Y-116548239D01*
X134083074Y-116748198D01*
X134161095Y-116936556D01*
X134274363Y-117106074D01*
X134418526Y-117250237D01*
X134588044Y-117363505D01*
X134776402Y-117441526D01*
X134976361Y-117481300D01*
X135180239Y-117481300D01*
X135380198Y-117441526D01*
X135568556Y-117363505D01*
X135738074Y-117250237D01*
X135882237Y-117106074D01*
X135995505Y-116936556D01*
X136073526Y-116748198D01*
X136113300Y-116548239D01*
X136113300Y-116344361D01*
X136073526Y-116144402D01*
X135995505Y-115956044D01*
X135882237Y-115786526D01*
X135838300Y-115742589D01*
X135838300Y-114410501D01*
X137047700Y-113201102D01*
X137047701Y-116256568D01*
X137044024Y-116293900D01*
X137058698Y-116442885D01*
X137102154Y-116586146D01*
X137172726Y-116718176D01*
X137243901Y-116804902D01*
X137267700Y-116833901D01*
X137296698Y-116857699D01*
X138278602Y-117839603D01*
X138071750Y-117841800D01*
X137913000Y-118000550D01*
X137913000Y-119049800D01*
X137933000Y-119049800D01*
X137933000Y-119303800D01*
X137913000Y-119303800D01*
X137913000Y-119323800D01*
X137659000Y-119323800D01*
X137659000Y-119303800D01*
X137639000Y-119303800D01*
X137639000Y-119049800D01*
X137659000Y-119049800D01*
X137659000Y-118000550D01*
X137500250Y-117841800D01*
X137211000Y-117838728D01*
X137086518Y-117850988D01*
X136966820Y-117887298D01*
X136856506Y-117946263D01*
X136759815Y-118025615D01*
X136680463Y-118122306D01*
X136621498Y-118232620D01*
X136585188Y-118352318D01*
X136572928Y-118476800D01*
X136573096Y-118499514D01*
X136448947Y-118433154D01*
X136305686Y-118389697D01*
X136194033Y-118378700D01*
X136194022Y-118378700D01*
X136156700Y-118375024D01*
X136119378Y-118378700D01*
X134474663Y-118378700D01*
X134397005Y-118233413D01*
X134286562Y-118098838D01*
X134151987Y-117988395D01*
X133998451Y-117906328D01*
X133831855Y-117855792D01*
X133658601Y-117838728D01*
X133008599Y-117838728D01*
X132835345Y-117855792D01*
X132668749Y-117906328D01*
X132515213Y-117988395D01*
X132380638Y-118098838D01*
X132375258Y-118105394D01*
X132309785Y-118025615D01*
X132213094Y-117946263D01*
X132102780Y-117887298D01*
X131983082Y-117850988D01*
X131858600Y-117838728D01*
X131569350Y-117841800D01*
X131410600Y-118000550D01*
X131410600Y-119049800D01*
X131430600Y-119049800D01*
X131430600Y-119303800D01*
X131410600Y-119303800D01*
X131410600Y-119323800D01*
X131156600Y-119323800D01*
X131156600Y-119303800D01*
X130232350Y-119303800D01*
X130073600Y-119462550D01*
X130071278Y-119775700D01*
X104759602Y-119775700D01*
X103401400Y-118417499D01*
X103401400Y-117416580D01*
X104387826Y-117416580D01*
X104507714Y-117701436D01*
X104831410Y-117862299D01*
X105180269Y-117956922D01*
X105540884Y-117981667D01*
X105899398Y-117935585D01*
X106242033Y-117820446D01*
X106464686Y-117701436D01*
X106584574Y-117416580D01*
X105486200Y-116318205D01*
X104387826Y-117416580D01*
X103401400Y-117416580D01*
X103401400Y-116193284D01*
X103643133Y-116193284D01*
X103689215Y-116551798D01*
X103804354Y-116894433D01*
X103923364Y-117117086D01*
X104208220Y-117236974D01*
X105306595Y-116138600D01*
X105665805Y-116138600D01*
X106764180Y-117236974D01*
X107049036Y-117117086D01*
X107209899Y-116793390D01*
X107304522Y-116444531D01*
X107329267Y-116083916D01*
X107283185Y-115725402D01*
X107168046Y-115382767D01*
X107049036Y-115160114D01*
X106818981Y-115063290D01*
X110039124Y-115063290D01*
X110083775Y-115210499D01*
X110208959Y-115473320D01*
X110383012Y-115706669D01*
X110599245Y-115901578D01*
X110849348Y-116050557D01*
X111123709Y-116147881D01*
X111353600Y-116027214D01*
X111353600Y-114833400D01*
X111607600Y-114833400D01*
X111607600Y-116027214D01*
X111837491Y-116147881D01*
X112111852Y-116050557D01*
X112361955Y-115901578D01*
X112578188Y-115706669D01*
X112752241Y-115473320D01*
X112877425Y-115210499D01*
X112922076Y-115063290D01*
X112800755Y-114833400D01*
X111607600Y-114833400D01*
X111353600Y-114833400D01*
X110160445Y-114833400D01*
X110039124Y-115063290D01*
X106818981Y-115063290D01*
X106764180Y-115040226D01*
X105665805Y-116138600D01*
X105306595Y-116138600D01*
X104208220Y-115040226D01*
X103923364Y-115160114D01*
X103762501Y-115483810D01*
X103667878Y-115832669D01*
X103643133Y-116193284D01*
X103401400Y-116193284D01*
X103401400Y-106791601D01*
X103648128Y-106544874D01*
X103648128Y-106838600D01*
G36*
X123423995Y-110918387D02*
G01*
X123534438Y-111052962D01*
X123540994Y-111058342D01*
X123461215Y-111123815D01*
X123381863Y-111220506D01*
X123322898Y-111330820D01*
X123286588Y-111450518D01*
X123274328Y-111575000D01*
X123277400Y-111864250D01*
X123436150Y-112023000D01*
X124485400Y-112023000D01*
X124485400Y-112003000D01*
X124739400Y-112003000D01*
X124739400Y-112023000D01*
X125722150Y-112023000D01*
X125772950Y-112073800D01*
X126822200Y-112073800D01*
X126822200Y-112053800D01*
X127076200Y-112053800D01*
X127076200Y-112073800D01*
X127096200Y-112073800D01*
X127096200Y-112327800D01*
X127076200Y-112327800D01*
X127076200Y-112347800D01*
X126822200Y-112347800D01*
X126822200Y-112327800D01*
X125839450Y-112327800D01*
X125788650Y-112277000D01*
X124739400Y-112277000D01*
X124739400Y-112297000D01*
X124485400Y-112297000D01*
X124485400Y-112277000D01*
X123436150Y-112277000D01*
X123277400Y-112435750D01*
X123275519Y-112612900D01*
X122643122Y-112612900D01*
X122605799Y-112609224D01*
X122568476Y-112612900D01*
X122568467Y-112612900D01*
X122456814Y-112623897D01*
X122313553Y-112667354D01*
X122181524Y-112737926D01*
X122065799Y-112832899D01*
X122042000Y-112861898D01*
X121808399Y-113095500D01*
X120779382Y-113095500D01*
X120890674Y-113021137D01*
X121034837Y-112876974D01*
X121148105Y-112707456D01*
X121226126Y-112519098D01*
X121265900Y-112319139D01*
X121265900Y-112115261D01*
X121252939Y-112050100D01*
X121450878Y-112050100D01*
X121488200Y-112053776D01*
X121525522Y-112050100D01*
X121525533Y-112050100D01*
X121637186Y-112039103D01*
X121780447Y-111995646D01*
X121912476Y-111925074D01*
X122028201Y-111830101D01*
X122052004Y-111801097D01*
X122993102Y-110860000D01*
X123392786Y-110860000D01*
X123423995Y-110918387D01*
G37*
X123423995Y-110918387D02*
X123534438Y-111052962D01*
X123540994Y-111058342D01*
X123461215Y-111123815D01*
X123381863Y-111220506D01*
X123322898Y-111330820D01*
X123286588Y-111450518D01*
X123274328Y-111575000D01*
X123277400Y-111864250D01*
X123436150Y-112023000D01*
X124485400Y-112023000D01*
X124485400Y-112003000D01*
X124739400Y-112003000D01*
X124739400Y-112023000D01*
X125722150Y-112023000D01*
X125772950Y-112073800D01*
X126822200Y-112073800D01*
X126822200Y-112053800D01*
X127076200Y-112053800D01*
X127076200Y-112073800D01*
X127096200Y-112073800D01*
X127096200Y-112327800D01*
X127076200Y-112327800D01*
X127076200Y-112347800D01*
X126822200Y-112347800D01*
X126822200Y-112327800D01*
X125839450Y-112327800D01*
X125788650Y-112277000D01*
X124739400Y-112277000D01*
X124739400Y-112297000D01*
X124485400Y-112297000D01*
X124485400Y-112277000D01*
X123436150Y-112277000D01*
X123277400Y-112435750D01*
X123275519Y-112612900D01*
X122643122Y-112612900D01*
X122605799Y-112609224D01*
X122568476Y-112612900D01*
X122568467Y-112612900D01*
X122456814Y-112623897D01*
X122313553Y-112667354D01*
X122181524Y-112737926D01*
X122065799Y-112832899D01*
X122042000Y-112861898D01*
X121808399Y-113095500D01*
X120779382Y-113095500D01*
X120890674Y-113021137D01*
X121034837Y-112876974D01*
X121148105Y-112707456D01*
X121226126Y-112519098D01*
X121265900Y-112319139D01*
X121265900Y-112115261D01*
X121252939Y-112050100D01*
X121450878Y-112050100D01*
X121488200Y-112053776D01*
X121525522Y-112050100D01*
X121525533Y-112050100D01*
X121637186Y-112039103D01*
X121780447Y-111995646D01*
X121912476Y-111925074D01*
X122028201Y-111830101D01*
X122052004Y-111801097D01*
X122993102Y-110860000D01*
X123392786Y-110860000D01*
X123423995Y-110918387D01*
M02*
