G04 #@! TF.GenerationSoftware,KiCad,Pcbnew,5.1.5+dfsg1-2build2*
G04 #@! TF.CreationDate,2021-11-16T17:13:54-05:00*
G04 #@! TF.ProjectId,036INCH_5DIGIT,30333649-4e43-4485-9f35-44494749542e,rev?*
G04 #@! TF.SameCoordinates,Original*
G04 #@! TF.FileFunction,Soldermask,Top*
G04 #@! TF.FilePolarity,Negative*
%FSLAX46Y46*%
G04 Gerber Fmt 4.6, Leading zero omitted, Abs format (unit mm)*
G04 Created by KiCad (PCBNEW 5.1.5+dfsg1-2build2) date 2021-11-16 17:13:54*
%MOMM*%
%LPD*%
G04 APERTURE LIST*
%ADD10C,0.100000*%
G04 APERTURE END LIST*
D10*
G36*
X105851103Y-114935675D02*
G01*
X106078771Y-115029978D01*
X106283666Y-115166885D01*
X106457915Y-115341134D01*
X106594822Y-115546029D01*
X106689125Y-115773697D01*
X106737200Y-116015387D01*
X106737200Y-116261813D01*
X106689125Y-116503503D01*
X106594822Y-116731171D01*
X106457915Y-116936066D01*
X106283666Y-117110315D01*
X106078771Y-117247222D01*
X106078770Y-117247223D01*
X106078769Y-117247223D01*
X105851103Y-117341525D01*
X105609414Y-117389600D01*
X105362986Y-117389600D01*
X105121297Y-117341525D01*
X104893631Y-117247223D01*
X104893630Y-117247223D01*
X104893629Y-117247222D01*
X104688734Y-117110315D01*
X104514485Y-116936066D01*
X104377578Y-116731171D01*
X104283275Y-116503503D01*
X104235200Y-116261813D01*
X104235200Y-116015387D01*
X104283275Y-115773697D01*
X104377578Y-115546029D01*
X104514485Y-115341134D01*
X104688734Y-115166885D01*
X104893629Y-115029978D01*
X105121297Y-114935675D01*
X105362986Y-114887600D01*
X105609414Y-114887600D01*
X105851103Y-114935675D01*
G37*
G36*
X129773642Y-115168081D02*
G01*
X129919414Y-115228462D01*
X129919416Y-115228463D01*
X130050608Y-115316122D01*
X130162178Y-115427692D01*
X130241249Y-115546031D01*
X130249838Y-115558886D01*
X130310219Y-115704658D01*
X130341000Y-115859407D01*
X130341000Y-116017193D01*
X130310219Y-116171942D01*
X130249838Y-116317714D01*
X130249837Y-116317716D01*
X130162178Y-116448908D01*
X130050608Y-116560478D01*
X129919416Y-116648137D01*
X129919415Y-116648138D01*
X129919414Y-116648138D01*
X129773642Y-116708519D01*
X129618893Y-116739300D01*
X129461107Y-116739300D01*
X129306358Y-116708519D01*
X129160586Y-116648138D01*
X129160585Y-116648138D01*
X129160584Y-116648137D01*
X129029392Y-116560478D01*
X128917822Y-116448908D01*
X128830163Y-116317716D01*
X128830162Y-116317714D01*
X128769781Y-116171942D01*
X128739000Y-116017193D01*
X128739000Y-115859407D01*
X128769781Y-115704658D01*
X128830162Y-115558886D01*
X128838751Y-115546031D01*
X128917822Y-115427692D01*
X129029392Y-115316122D01*
X129160584Y-115228463D01*
X129160586Y-115228462D01*
X129306358Y-115168081D01*
X129461107Y-115137300D01*
X129618893Y-115137300D01*
X129773642Y-115168081D01*
G37*
G36*
X127233642Y-115168081D02*
G01*
X127379414Y-115228462D01*
X127379416Y-115228463D01*
X127510608Y-115316122D01*
X127622178Y-115427692D01*
X127701249Y-115546031D01*
X127709838Y-115558886D01*
X127770219Y-115704658D01*
X127801000Y-115859407D01*
X127801000Y-116017193D01*
X127770219Y-116171942D01*
X127709838Y-116317714D01*
X127709837Y-116317716D01*
X127622178Y-116448908D01*
X127510608Y-116560478D01*
X127379416Y-116648137D01*
X127379415Y-116648138D01*
X127379414Y-116648138D01*
X127233642Y-116708519D01*
X127078893Y-116739300D01*
X126921107Y-116739300D01*
X126766358Y-116708519D01*
X126620586Y-116648138D01*
X126620585Y-116648138D01*
X126620584Y-116648137D01*
X126489392Y-116560478D01*
X126377822Y-116448908D01*
X126290163Y-116317716D01*
X126290162Y-116317714D01*
X126229781Y-116171942D01*
X126199000Y-116017193D01*
X126199000Y-115859407D01*
X126229781Y-115704658D01*
X126290162Y-115558886D01*
X126298751Y-115546031D01*
X126377822Y-115427692D01*
X126489392Y-115316122D01*
X126620584Y-115228463D01*
X126620586Y-115228462D01*
X126766358Y-115168081D01*
X126921107Y-115137300D01*
X127078893Y-115137300D01*
X127233642Y-115168081D01*
G37*
G36*
X124693642Y-115168081D02*
G01*
X124839414Y-115228462D01*
X124839416Y-115228463D01*
X124970608Y-115316122D01*
X125082178Y-115427692D01*
X125161249Y-115546031D01*
X125169838Y-115558886D01*
X125230219Y-115704658D01*
X125261000Y-115859407D01*
X125261000Y-116017193D01*
X125230219Y-116171942D01*
X125169838Y-116317714D01*
X125169837Y-116317716D01*
X125082178Y-116448908D01*
X124970608Y-116560478D01*
X124839416Y-116648137D01*
X124839415Y-116648138D01*
X124839414Y-116648138D01*
X124693642Y-116708519D01*
X124538893Y-116739300D01*
X124381107Y-116739300D01*
X124226358Y-116708519D01*
X124080586Y-116648138D01*
X124080585Y-116648138D01*
X124080584Y-116648137D01*
X123949392Y-116560478D01*
X123837822Y-116448908D01*
X123750163Y-116317716D01*
X123750162Y-116317714D01*
X123689781Y-116171942D01*
X123659000Y-116017193D01*
X123659000Y-115859407D01*
X123689781Y-115704658D01*
X123750162Y-115558886D01*
X123758751Y-115546031D01*
X123837822Y-115427692D01*
X123949392Y-115316122D01*
X124080584Y-115228463D01*
X124080586Y-115228462D01*
X124226358Y-115168081D01*
X124381107Y-115137300D01*
X124538893Y-115137300D01*
X124693642Y-115168081D01*
G37*
G36*
X122153642Y-115168081D02*
G01*
X122299414Y-115228462D01*
X122299416Y-115228463D01*
X122430608Y-115316122D01*
X122542178Y-115427692D01*
X122621249Y-115546031D01*
X122629838Y-115558886D01*
X122690219Y-115704658D01*
X122721000Y-115859407D01*
X122721000Y-116017193D01*
X122690219Y-116171942D01*
X122629838Y-116317714D01*
X122629837Y-116317716D01*
X122542178Y-116448908D01*
X122430608Y-116560478D01*
X122299416Y-116648137D01*
X122299415Y-116648138D01*
X122299414Y-116648138D01*
X122153642Y-116708519D01*
X121998893Y-116739300D01*
X121841107Y-116739300D01*
X121686358Y-116708519D01*
X121540586Y-116648138D01*
X121540585Y-116648138D01*
X121540584Y-116648137D01*
X121409392Y-116560478D01*
X121297822Y-116448908D01*
X121210163Y-116317716D01*
X121210162Y-116317714D01*
X121149781Y-116171942D01*
X121119000Y-116017193D01*
X121119000Y-115859407D01*
X121149781Y-115704658D01*
X121210162Y-115558886D01*
X121218751Y-115546031D01*
X121297822Y-115427692D01*
X121409392Y-115316122D01*
X121540584Y-115228463D01*
X121540586Y-115228462D01*
X121686358Y-115168081D01*
X121841107Y-115137300D01*
X121998893Y-115137300D01*
X122153642Y-115168081D01*
G37*
G36*
X119613642Y-115168081D02*
G01*
X119759414Y-115228462D01*
X119759416Y-115228463D01*
X119890608Y-115316122D01*
X120002178Y-115427692D01*
X120081249Y-115546031D01*
X120089838Y-115558886D01*
X120150219Y-115704658D01*
X120181000Y-115859407D01*
X120181000Y-116017193D01*
X120150219Y-116171942D01*
X120089838Y-116317714D01*
X120089837Y-116317716D01*
X120002178Y-116448908D01*
X119890608Y-116560478D01*
X119759416Y-116648137D01*
X119759415Y-116648138D01*
X119759414Y-116648138D01*
X119613642Y-116708519D01*
X119458893Y-116739300D01*
X119301107Y-116739300D01*
X119146358Y-116708519D01*
X119000586Y-116648138D01*
X119000585Y-116648138D01*
X119000584Y-116648137D01*
X118869392Y-116560478D01*
X118757822Y-116448908D01*
X118670163Y-116317716D01*
X118670162Y-116317714D01*
X118609781Y-116171942D01*
X118579000Y-116017193D01*
X118579000Y-115859407D01*
X118609781Y-115704658D01*
X118670162Y-115558886D01*
X118678751Y-115546031D01*
X118757822Y-115427692D01*
X118869392Y-115316122D01*
X119000584Y-115228463D01*
X119000586Y-115228462D01*
X119146358Y-115168081D01*
X119301107Y-115137300D01*
X119458893Y-115137300D01*
X119613642Y-115168081D01*
G37*
G36*
X117073642Y-115168081D02*
G01*
X117219414Y-115228462D01*
X117219416Y-115228463D01*
X117350608Y-115316122D01*
X117462178Y-115427692D01*
X117541249Y-115546031D01*
X117549838Y-115558886D01*
X117610219Y-115704658D01*
X117641000Y-115859407D01*
X117641000Y-116017193D01*
X117610219Y-116171942D01*
X117549838Y-116317714D01*
X117549837Y-116317716D01*
X117462178Y-116448908D01*
X117350608Y-116560478D01*
X117219416Y-116648137D01*
X117219415Y-116648138D01*
X117219414Y-116648138D01*
X117073642Y-116708519D01*
X116918893Y-116739300D01*
X116761107Y-116739300D01*
X116606358Y-116708519D01*
X116460586Y-116648138D01*
X116460585Y-116648138D01*
X116460584Y-116648137D01*
X116329392Y-116560478D01*
X116217822Y-116448908D01*
X116130163Y-116317716D01*
X116130162Y-116317714D01*
X116069781Y-116171942D01*
X116039000Y-116017193D01*
X116039000Y-115859407D01*
X116069781Y-115704658D01*
X116130162Y-115558886D01*
X116138751Y-115546031D01*
X116217822Y-115427692D01*
X116329392Y-115316122D01*
X116460584Y-115228463D01*
X116460586Y-115228462D01*
X116606358Y-115168081D01*
X116761107Y-115137300D01*
X116918893Y-115137300D01*
X117073642Y-115168081D01*
G37*
G36*
X115101000Y-116739300D02*
G01*
X113499000Y-116739300D01*
X113499000Y-115137300D01*
X115101000Y-115137300D01*
X115101000Y-116739300D01*
G37*
G36*
X111594112Y-113810327D02*
G01*
X111743412Y-113840024D01*
X111907384Y-113907944D01*
X112054954Y-114006547D01*
X112180453Y-114132046D01*
X112279056Y-114279616D01*
X112346976Y-114443588D01*
X112381600Y-114617659D01*
X112381600Y-114795141D01*
X112346976Y-114969212D01*
X112279056Y-115133184D01*
X112180453Y-115280754D01*
X112054954Y-115406253D01*
X111907384Y-115504856D01*
X111743412Y-115572776D01*
X111594112Y-115602473D01*
X111569342Y-115607400D01*
X111391858Y-115607400D01*
X111367088Y-115602473D01*
X111217788Y-115572776D01*
X111053816Y-115504856D01*
X110906246Y-115406253D01*
X110780747Y-115280754D01*
X110682144Y-115133184D01*
X110614224Y-114969212D01*
X110579600Y-114795141D01*
X110579600Y-114617659D01*
X110614224Y-114443588D01*
X110682144Y-114279616D01*
X110780747Y-114132046D01*
X110906246Y-114006547D01*
X111053816Y-113907944D01*
X111217788Y-113840024D01*
X111367088Y-113810327D01*
X111391858Y-113805400D01*
X111569342Y-113805400D01*
X111594112Y-113810327D01*
G37*
G36*
X105851103Y-111435675D02*
G01*
X106078771Y-111529978D01*
X106283666Y-111666885D01*
X106457915Y-111841134D01*
X106594822Y-112046029D01*
X106689125Y-112273697D01*
X106737200Y-112515387D01*
X106737200Y-112761813D01*
X106689125Y-113003503D01*
X106594822Y-113231171D01*
X106457915Y-113436066D01*
X106283666Y-113610315D01*
X106078771Y-113747222D01*
X106078770Y-113747223D01*
X106078769Y-113747223D01*
X105851103Y-113841525D01*
X105609414Y-113889600D01*
X105362986Y-113889600D01*
X105121297Y-113841525D01*
X104893631Y-113747223D01*
X104893630Y-113747223D01*
X104893629Y-113747222D01*
X104688734Y-113610315D01*
X104514485Y-113436066D01*
X104377578Y-113231171D01*
X104283275Y-113003503D01*
X104235200Y-112761813D01*
X104235200Y-112515387D01*
X104283275Y-112273697D01*
X104377578Y-112046029D01*
X104514485Y-111841134D01*
X104688734Y-111666885D01*
X104893629Y-111529978D01*
X105121297Y-111435675D01*
X105362986Y-111387600D01*
X105609414Y-111387600D01*
X105851103Y-111435675D01*
G37*
G36*
X111594112Y-111270327D02*
G01*
X111743412Y-111300024D01*
X111907384Y-111367944D01*
X112054954Y-111466547D01*
X112180453Y-111592046D01*
X112279056Y-111739616D01*
X112346976Y-111903588D01*
X112381600Y-112077659D01*
X112381600Y-112255141D01*
X112346976Y-112429212D01*
X112279056Y-112593184D01*
X112180453Y-112740754D01*
X112054954Y-112866253D01*
X111907384Y-112964856D01*
X111743412Y-113032776D01*
X111594112Y-113062473D01*
X111569342Y-113067400D01*
X111391858Y-113067400D01*
X111367088Y-113062473D01*
X111217788Y-113032776D01*
X111053816Y-112964856D01*
X110906246Y-112866253D01*
X110780747Y-112740754D01*
X110682144Y-112593184D01*
X110614224Y-112429212D01*
X110579600Y-112255141D01*
X110579600Y-112077659D01*
X110614224Y-111903588D01*
X110682144Y-111739616D01*
X110780747Y-111592046D01*
X110906246Y-111466547D01*
X111053816Y-111367944D01*
X111217788Y-111300024D01*
X111367088Y-111270327D01*
X111391858Y-111265400D01*
X111569342Y-111265400D01*
X111594112Y-111270327D01*
G37*
G36*
X111594112Y-108730327D02*
G01*
X111743412Y-108760024D01*
X111907384Y-108827944D01*
X112054954Y-108926547D01*
X112180453Y-109052046D01*
X112279056Y-109199616D01*
X112346976Y-109363588D01*
X112381600Y-109537659D01*
X112381600Y-109715141D01*
X112346976Y-109889212D01*
X112279056Y-110053184D01*
X112180453Y-110200754D01*
X112054954Y-110326253D01*
X111907384Y-110424856D01*
X111743412Y-110492776D01*
X111594112Y-110522473D01*
X111569342Y-110527400D01*
X111391858Y-110527400D01*
X111367088Y-110522473D01*
X111217788Y-110492776D01*
X111053816Y-110424856D01*
X110906246Y-110326253D01*
X110780747Y-110200754D01*
X110682144Y-110053184D01*
X110614224Y-109889212D01*
X110579600Y-109715141D01*
X110579600Y-109537659D01*
X110614224Y-109363588D01*
X110682144Y-109199616D01*
X110780747Y-109052046D01*
X110906246Y-108926547D01*
X111053816Y-108827944D01*
X111217788Y-108760024D01*
X111367088Y-108730327D01*
X111391858Y-108725400D01*
X111569342Y-108725400D01*
X111594112Y-108730327D01*
G37*
G36*
X105851103Y-107935675D02*
G01*
X105975979Y-107987400D01*
X106078771Y-108029978D01*
X106283666Y-108166885D01*
X106457915Y-108341134D01*
X106457916Y-108341136D01*
X106594823Y-108546031D01*
X106689125Y-108773697D01*
X106737200Y-109015386D01*
X106737200Y-109261814D01*
X106689125Y-109503503D01*
X106601462Y-109715142D01*
X106594822Y-109731171D01*
X106457915Y-109936066D01*
X106283666Y-110110315D01*
X106078771Y-110247222D01*
X106078770Y-110247223D01*
X106078769Y-110247223D01*
X105851103Y-110341525D01*
X105609414Y-110389600D01*
X105362986Y-110389600D01*
X105121297Y-110341525D01*
X104893631Y-110247223D01*
X104893630Y-110247223D01*
X104893629Y-110247222D01*
X104688734Y-110110315D01*
X104514485Y-109936066D01*
X104377578Y-109731171D01*
X104370939Y-109715142D01*
X104283275Y-109503503D01*
X104235200Y-109261814D01*
X104235200Y-109015386D01*
X104283275Y-108773697D01*
X104377577Y-108546031D01*
X104514484Y-108341136D01*
X104514485Y-108341134D01*
X104688734Y-108166885D01*
X104893629Y-108029978D01*
X104996422Y-107987400D01*
X105121297Y-107935675D01*
X105362986Y-107887600D01*
X105609414Y-107887600D01*
X105851103Y-107935675D01*
G37*
G36*
X112381600Y-107987400D02*
G01*
X110579600Y-107987400D01*
X110579600Y-106185400D01*
X112381600Y-106185400D01*
X112381600Y-107987400D01*
G37*
G36*
X106737200Y-106889600D02*
G01*
X104235200Y-106889600D01*
X104235200Y-104387600D01*
X106737200Y-104387600D01*
X106737200Y-106889600D01*
G37*
G36*
X129773642Y-105008081D02*
G01*
X129919414Y-105068462D01*
X129919416Y-105068463D01*
X130050608Y-105156122D01*
X130162178Y-105267692D01*
X130249837Y-105398884D01*
X130249838Y-105398886D01*
X130310219Y-105544658D01*
X130341000Y-105699407D01*
X130341000Y-105857193D01*
X130310219Y-106011942D01*
X130249838Y-106157714D01*
X130249837Y-106157716D01*
X130162178Y-106288908D01*
X130050608Y-106400478D01*
X129919416Y-106488137D01*
X129919415Y-106488138D01*
X129919414Y-106488138D01*
X129773642Y-106548519D01*
X129618893Y-106579300D01*
X129461107Y-106579300D01*
X129306358Y-106548519D01*
X129160586Y-106488138D01*
X129160585Y-106488138D01*
X129160584Y-106488137D01*
X129029392Y-106400478D01*
X128917822Y-106288908D01*
X128830163Y-106157716D01*
X128830162Y-106157714D01*
X128769781Y-106011942D01*
X128739000Y-105857193D01*
X128739000Y-105699407D01*
X128769781Y-105544658D01*
X128830162Y-105398886D01*
X128830163Y-105398884D01*
X128917822Y-105267692D01*
X129029392Y-105156122D01*
X129160584Y-105068463D01*
X129160586Y-105068462D01*
X129306358Y-105008081D01*
X129461107Y-104977300D01*
X129618893Y-104977300D01*
X129773642Y-105008081D01*
G37*
G36*
X127233642Y-105008081D02*
G01*
X127379414Y-105068462D01*
X127379416Y-105068463D01*
X127510608Y-105156122D01*
X127622178Y-105267692D01*
X127709837Y-105398884D01*
X127709838Y-105398886D01*
X127770219Y-105544658D01*
X127801000Y-105699407D01*
X127801000Y-105857193D01*
X127770219Y-106011942D01*
X127709838Y-106157714D01*
X127709837Y-106157716D01*
X127622178Y-106288908D01*
X127510608Y-106400478D01*
X127379416Y-106488137D01*
X127379415Y-106488138D01*
X127379414Y-106488138D01*
X127233642Y-106548519D01*
X127078893Y-106579300D01*
X126921107Y-106579300D01*
X126766358Y-106548519D01*
X126620586Y-106488138D01*
X126620585Y-106488138D01*
X126620584Y-106488137D01*
X126489392Y-106400478D01*
X126377822Y-106288908D01*
X126290163Y-106157716D01*
X126290162Y-106157714D01*
X126229781Y-106011942D01*
X126199000Y-105857193D01*
X126199000Y-105699407D01*
X126229781Y-105544658D01*
X126290162Y-105398886D01*
X126290163Y-105398884D01*
X126377822Y-105267692D01*
X126489392Y-105156122D01*
X126620584Y-105068463D01*
X126620586Y-105068462D01*
X126766358Y-105008081D01*
X126921107Y-104977300D01*
X127078893Y-104977300D01*
X127233642Y-105008081D01*
G37*
G36*
X124693642Y-105008081D02*
G01*
X124839414Y-105068462D01*
X124839416Y-105068463D01*
X124970608Y-105156122D01*
X125082178Y-105267692D01*
X125169837Y-105398884D01*
X125169838Y-105398886D01*
X125230219Y-105544658D01*
X125261000Y-105699407D01*
X125261000Y-105857193D01*
X125230219Y-106011942D01*
X125169838Y-106157714D01*
X125169837Y-106157716D01*
X125082178Y-106288908D01*
X124970608Y-106400478D01*
X124839416Y-106488137D01*
X124839415Y-106488138D01*
X124839414Y-106488138D01*
X124693642Y-106548519D01*
X124538893Y-106579300D01*
X124381107Y-106579300D01*
X124226358Y-106548519D01*
X124080586Y-106488138D01*
X124080585Y-106488138D01*
X124080584Y-106488137D01*
X123949392Y-106400478D01*
X123837822Y-106288908D01*
X123750163Y-106157716D01*
X123750162Y-106157714D01*
X123689781Y-106011942D01*
X123659000Y-105857193D01*
X123659000Y-105699407D01*
X123689781Y-105544658D01*
X123750162Y-105398886D01*
X123750163Y-105398884D01*
X123837822Y-105267692D01*
X123949392Y-105156122D01*
X124080584Y-105068463D01*
X124080586Y-105068462D01*
X124226358Y-105008081D01*
X124381107Y-104977300D01*
X124538893Y-104977300D01*
X124693642Y-105008081D01*
G37*
G36*
X122153642Y-105008081D02*
G01*
X122299414Y-105068462D01*
X122299416Y-105068463D01*
X122430608Y-105156122D01*
X122542178Y-105267692D01*
X122629837Y-105398884D01*
X122629838Y-105398886D01*
X122690219Y-105544658D01*
X122721000Y-105699407D01*
X122721000Y-105857193D01*
X122690219Y-106011942D01*
X122629838Y-106157714D01*
X122629837Y-106157716D01*
X122542178Y-106288908D01*
X122430608Y-106400478D01*
X122299416Y-106488137D01*
X122299415Y-106488138D01*
X122299414Y-106488138D01*
X122153642Y-106548519D01*
X121998893Y-106579300D01*
X121841107Y-106579300D01*
X121686358Y-106548519D01*
X121540586Y-106488138D01*
X121540585Y-106488138D01*
X121540584Y-106488137D01*
X121409392Y-106400478D01*
X121297822Y-106288908D01*
X121210163Y-106157716D01*
X121210162Y-106157714D01*
X121149781Y-106011942D01*
X121119000Y-105857193D01*
X121119000Y-105699407D01*
X121149781Y-105544658D01*
X121210162Y-105398886D01*
X121210163Y-105398884D01*
X121297822Y-105267692D01*
X121409392Y-105156122D01*
X121540584Y-105068463D01*
X121540586Y-105068462D01*
X121686358Y-105008081D01*
X121841107Y-104977300D01*
X121998893Y-104977300D01*
X122153642Y-105008081D01*
G37*
G36*
X119613642Y-105008081D02*
G01*
X119759414Y-105068462D01*
X119759416Y-105068463D01*
X119890608Y-105156122D01*
X120002178Y-105267692D01*
X120089837Y-105398884D01*
X120089838Y-105398886D01*
X120150219Y-105544658D01*
X120181000Y-105699407D01*
X120181000Y-105857193D01*
X120150219Y-106011942D01*
X120089838Y-106157714D01*
X120089837Y-106157716D01*
X120002178Y-106288908D01*
X119890608Y-106400478D01*
X119759416Y-106488137D01*
X119759415Y-106488138D01*
X119759414Y-106488138D01*
X119613642Y-106548519D01*
X119458893Y-106579300D01*
X119301107Y-106579300D01*
X119146358Y-106548519D01*
X119000586Y-106488138D01*
X119000585Y-106488138D01*
X119000584Y-106488137D01*
X118869392Y-106400478D01*
X118757822Y-106288908D01*
X118670163Y-106157716D01*
X118670162Y-106157714D01*
X118609781Y-106011942D01*
X118579000Y-105857193D01*
X118579000Y-105699407D01*
X118609781Y-105544658D01*
X118670162Y-105398886D01*
X118670163Y-105398884D01*
X118757822Y-105267692D01*
X118869392Y-105156122D01*
X119000584Y-105068463D01*
X119000586Y-105068462D01*
X119146358Y-105008081D01*
X119301107Y-104977300D01*
X119458893Y-104977300D01*
X119613642Y-105008081D01*
G37*
G36*
X117073642Y-105008081D02*
G01*
X117219414Y-105068462D01*
X117219416Y-105068463D01*
X117350608Y-105156122D01*
X117462178Y-105267692D01*
X117549837Y-105398884D01*
X117549838Y-105398886D01*
X117610219Y-105544658D01*
X117641000Y-105699407D01*
X117641000Y-105857193D01*
X117610219Y-106011942D01*
X117549838Y-106157714D01*
X117549837Y-106157716D01*
X117462178Y-106288908D01*
X117350608Y-106400478D01*
X117219416Y-106488137D01*
X117219415Y-106488138D01*
X117219414Y-106488138D01*
X117073642Y-106548519D01*
X116918893Y-106579300D01*
X116761107Y-106579300D01*
X116606358Y-106548519D01*
X116460586Y-106488138D01*
X116460585Y-106488138D01*
X116460584Y-106488137D01*
X116329392Y-106400478D01*
X116217822Y-106288908D01*
X116130163Y-106157716D01*
X116130162Y-106157714D01*
X116069781Y-106011942D01*
X116039000Y-105857193D01*
X116039000Y-105699407D01*
X116069781Y-105544658D01*
X116130162Y-105398886D01*
X116130163Y-105398884D01*
X116217822Y-105267692D01*
X116329392Y-105156122D01*
X116460584Y-105068463D01*
X116460586Y-105068462D01*
X116606358Y-105008081D01*
X116761107Y-104977300D01*
X116918893Y-104977300D01*
X117073642Y-105008081D01*
G37*
G36*
X114533642Y-105008081D02*
G01*
X114679414Y-105068462D01*
X114679416Y-105068463D01*
X114810608Y-105156122D01*
X114922178Y-105267692D01*
X115009837Y-105398884D01*
X115009838Y-105398886D01*
X115070219Y-105544658D01*
X115101000Y-105699407D01*
X115101000Y-105857193D01*
X115070219Y-106011942D01*
X115009838Y-106157714D01*
X115009837Y-106157716D01*
X114922178Y-106288908D01*
X114810608Y-106400478D01*
X114679416Y-106488137D01*
X114679415Y-106488138D01*
X114679414Y-106488138D01*
X114533642Y-106548519D01*
X114378893Y-106579300D01*
X114221107Y-106579300D01*
X114066358Y-106548519D01*
X113920586Y-106488138D01*
X113920585Y-106488138D01*
X113920584Y-106488137D01*
X113789392Y-106400478D01*
X113677822Y-106288908D01*
X113590163Y-106157716D01*
X113590162Y-106157714D01*
X113529781Y-106011942D01*
X113499000Y-105857193D01*
X113499000Y-105699407D01*
X113529781Y-105544658D01*
X113590162Y-105398886D01*
X113590163Y-105398884D01*
X113677822Y-105267692D01*
X113789392Y-105156122D01*
X113920584Y-105068463D01*
X113920586Y-105068462D01*
X114066358Y-105008081D01*
X114221107Y-104977300D01*
X114378893Y-104977300D01*
X114533642Y-105008081D01*
G37*
M02*
