G04 #@! TF.GenerationSoftware,KiCad,Pcbnew,5.1.5+dfsg1-2build2*
G04 #@! TF.CreationDate,2021-11-16T17:13:54-05:00*
G04 #@! TF.ProjectId,036INCH_5DIGIT,30333649-4e43-4485-9f35-44494749542e,rev?*
G04 #@! TF.SameCoordinates,Original*
G04 #@! TF.FileFunction,Soldermask,Bot*
G04 #@! TF.FilePolarity,Negative*
%FSLAX46Y46*%
G04 Gerber Fmt 4.6, Leading zero omitted, Abs format (unit mm)*
G04 Created by KiCad (PCBNEW 5.1.5+dfsg1-2build2) date 2021-11-16 17:13:54*
%MOMM*%
%LPD*%
G04 APERTURE LIST*
%ADD10C,0.100000*%
G04 APERTURE END LIST*
D10*
G36*
X140299674Y-118430265D02*
G01*
X140337367Y-118441699D01*
X140372103Y-118460266D01*
X140402548Y-118485252D01*
X140427534Y-118515697D01*
X140446101Y-118550433D01*
X140457535Y-118588126D01*
X140462000Y-118633461D01*
X140462000Y-119720139D01*
X140457535Y-119765474D01*
X140446101Y-119803167D01*
X140427534Y-119837903D01*
X140402548Y-119868348D01*
X140372103Y-119893334D01*
X140337367Y-119911901D01*
X140299674Y-119923335D01*
X140254339Y-119927800D01*
X139417661Y-119927800D01*
X139372326Y-119923335D01*
X139334633Y-119911901D01*
X139299897Y-119893334D01*
X139269452Y-119868348D01*
X139244466Y-119837903D01*
X139225899Y-119803167D01*
X139214465Y-119765474D01*
X139210000Y-119720139D01*
X139210000Y-118633461D01*
X139214465Y-118588126D01*
X139225899Y-118550433D01*
X139244466Y-118515697D01*
X139269452Y-118485252D01*
X139299897Y-118460266D01*
X139334633Y-118441699D01*
X139372326Y-118430265D01*
X139417661Y-118425800D01*
X140254339Y-118425800D01*
X140299674Y-118430265D01*
G37*
G36*
X138249674Y-118430265D02*
G01*
X138287367Y-118441699D01*
X138322103Y-118460266D01*
X138352548Y-118485252D01*
X138377534Y-118515697D01*
X138396101Y-118550433D01*
X138407535Y-118588126D01*
X138412000Y-118633461D01*
X138412000Y-119720139D01*
X138407535Y-119765474D01*
X138396101Y-119803167D01*
X138377534Y-119837903D01*
X138352548Y-119868348D01*
X138322103Y-119893334D01*
X138287367Y-119911901D01*
X138249674Y-119923335D01*
X138204339Y-119927800D01*
X137367661Y-119927800D01*
X137322326Y-119923335D01*
X137284633Y-119911901D01*
X137249897Y-119893334D01*
X137219452Y-119868348D01*
X137194466Y-119837903D01*
X137175899Y-119803167D01*
X137164465Y-119765474D01*
X137160000Y-119720139D01*
X137160000Y-118633461D01*
X137164465Y-118588126D01*
X137175899Y-118550433D01*
X137194466Y-118515697D01*
X137219452Y-118485252D01*
X137249897Y-118460266D01*
X137284633Y-118441699D01*
X137322326Y-118430265D01*
X137367661Y-118425800D01*
X138204339Y-118425800D01*
X138249674Y-118430265D01*
G37*
G36*
X131747274Y-118430265D02*
G01*
X131784967Y-118441699D01*
X131819703Y-118460266D01*
X131850148Y-118485252D01*
X131875134Y-118515697D01*
X131893701Y-118550433D01*
X131905135Y-118588126D01*
X131909600Y-118633461D01*
X131909600Y-119720139D01*
X131905135Y-119765474D01*
X131893701Y-119803167D01*
X131875134Y-119837903D01*
X131850148Y-119868348D01*
X131819703Y-119893334D01*
X131784967Y-119911901D01*
X131747274Y-119923335D01*
X131701939Y-119927800D01*
X130865261Y-119927800D01*
X130819926Y-119923335D01*
X130782233Y-119911901D01*
X130747497Y-119893334D01*
X130717052Y-119868348D01*
X130692066Y-119837903D01*
X130673499Y-119803167D01*
X130662065Y-119765474D01*
X130657600Y-119720139D01*
X130657600Y-118633461D01*
X130662065Y-118588126D01*
X130673499Y-118550433D01*
X130692066Y-118515697D01*
X130717052Y-118485252D01*
X130747497Y-118460266D01*
X130782233Y-118441699D01*
X130819926Y-118430265D01*
X130865261Y-118425800D01*
X131701939Y-118425800D01*
X131747274Y-118430265D01*
G37*
G36*
X133797274Y-118430265D02*
G01*
X133834967Y-118441699D01*
X133869703Y-118460266D01*
X133900148Y-118485252D01*
X133925134Y-118515697D01*
X133943701Y-118550433D01*
X133955135Y-118588126D01*
X133959600Y-118633461D01*
X133959600Y-119720139D01*
X133955135Y-119765474D01*
X133943701Y-119803167D01*
X133925134Y-119837903D01*
X133900148Y-119868348D01*
X133869703Y-119893334D01*
X133834967Y-119911901D01*
X133797274Y-119923335D01*
X133751939Y-119927800D01*
X132915261Y-119927800D01*
X132869926Y-119923335D01*
X132832233Y-119911901D01*
X132797497Y-119893334D01*
X132767052Y-119868348D01*
X132742066Y-119837903D01*
X132723499Y-119803167D01*
X132712065Y-119765474D01*
X132707600Y-119720139D01*
X132707600Y-118633461D01*
X132712065Y-118588126D01*
X132723499Y-118550433D01*
X132742066Y-118515697D01*
X132767052Y-118485252D01*
X132797497Y-118460266D01*
X132832233Y-118441699D01*
X132869926Y-118430265D01*
X132915261Y-118425800D01*
X133751939Y-118425800D01*
X133797274Y-118430265D01*
G37*
G36*
X105806988Y-114926900D02*
G01*
X105851103Y-114935675D01*
X106078771Y-115029978D01*
X106283666Y-115166885D01*
X106457915Y-115341134D01*
X106594822Y-115546029D01*
X106689125Y-115773697D01*
X106737200Y-116015387D01*
X106737200Y-116261813D01*
X106689125Y-116503503D01*
X106594822Y-116731171D01*
X106457915Y-116936066D01*
X106283666Y-117110315D01*
X106078771Y-117247222D01*
X106078770Y-117247223D01*
X106078769Y-117247223D01*
X105851103Y-117341525D01*
X105609414Y-117389600D01*
X105362986Y-117389600D01*
X105121297Y-117341525D01*
X104893631Y-117247223D01*
X104893630Y-117247223D01*
X104893629Y-117247222D01*
X104688734Y-117110315D01*
X104514485Y-116936066D01*
X104377578Y-116731171D01*
X104283275Y-116503503D01*
X104235200Y-116261813D01*
X104235200Y-116015387D01*
X104283275Y-115773697D01*
X104377578Y-115546029D01*
X104514485Y-115341134D01*
X104688734Y-115166885D01*
X104893629Y-115029978D01*
X105121297Y-114935675D01*
X105165412Y-114926900D01*
X105362986Y-114887600D01*
X105609414Y-114887600D01*
X105806988Y-114926900D01*
G37*
G36*
X132576000Y-116898900D02*
G01*
X130974000Y-116898900D01*
X130974000Y-116196900D01*
X132576000Y-116196900D01*
X132576000Y-116898900D01*
G37*
G36*
X142076000Y-116898900D02*
G01*
X140474000Y-116898900D01*
X140474000Y-116196900D01*
X142076000Y-116196900D01*
X142076000Y-116898900D01*
G37*
G36*
X127233642Y-115168081D02*
G01*
X127379414Y-115228462D01*
X127379416Y-115228463D01*
X127510608Y-115316122D01*
X127622178Y-115427692D01*
X127701249Y-115546031D01*
X127709838Y-115558886D01*
X127770219Y-115704658D01*
X127801000Y-115859407D01*
X127801000Y-116017193D01*
X127770219Y-116171942D01*
X127709838Y-116317714D01*
X127709837Y-116317716D01*
X127622178Y-116448908D01*
X127510608Y-116560478D01*
X127379416Y-116648137D01*
X127379415Y-116648138D01*
X127379414Y-116648138D01*
X127233642Y-116708519D01*
X127078893Y-116739300D01*
X126921107Y-116739300D01*
X126766358Y-116708519D01*
X126620586Y-116648138D01*
X126620585Y-116648138D01*
X126620584Y-116648137D01*
X126489392Y-116560478D01*
X126377822Y-116448908D01*
X126290163Y-116317716D01*
X126290162Y-116317714D01*
X126229781Y-116171942D01*
X126199000Y-116017193D01*
X126199000Y-115859407D01*
X126229781Y-115704658D01*
X126290162Y-115558886D01*
X126298751Y-115546031D01*
X126377822Y-115427692D01*
X126489392Y-115316122D01*
X126620584Y-115228463D01*
X126620586Y-115228462D01*
X126766358Y-115168081D01*
X126921107Y-115137300D01*
X127078893Y-115137300D01*
X127233642Y-115168081D01*
G37*
G36*
X129773642Y-115168081D02*
G01*
X129919414Y-115228462D01*
X129919416Y-115228463D01*
X130050608Y-115316122D01*
X130162178Y-115427692D01*
X130241249Y-115546031D01*
X130249838Y-115558886D01*
X130310219Y-115704658D01*
X130341000Y-115859407D01*
X130341000Y-116017193D01*
X130310219Y-116171942D01*
X130249838Y-116317714D01*
X130249837Y-116317716D01*
X130162178Y-116448908D01*
X130050608Y-116560478D01*
X129919416Y-116648137D01*
X129919415Y-116648138D01*
X129919414Y-116648138D01*
X129773642Y-116708519D01*
X129618893Y-116739300D01*
X129461107Y-116739300D01*
X129306358Y-116708519D01*
X129160586Y-116648138D01*
X129160585Y-116648138D01*
X129160584Y-116648137D01*
X129029392Y-116560478D01*
X128917822Y-116448908D01*
X128830163Y-116317716D01*
X128830162Y-116317714D01*
X128769781Y-116171942D01*
X128739000Y-116017193D01*
X128739000Y-115859407D01*
X128769781Y-115704658D01*
X128830162Y-115558886D01*
X128838751Y-115546031D01*
X128917822Y-115427692D01*
X129029392Y-115316122D01*
X129160584Y-115228463D01*
X129160586Y-115228462D01*
X129306358Y-115168081D01*
X129461107Y-115137300D01*
X129618893Y-115137300D01*
X129773642Y-115168081D01*
G37*
G36*
X122153642Y-115168081D02*
G01*
X122299414Y-115228462D01*
X122299416Y-115228463D01*
X122430608Y-115316122D01*
X122542178Y-115427692D01*
X122621249Y-115546031D01*
X122629838Y-115558886D01*
X122690219Y-115704658D01*
X122721000Y-115859407D01*
X122721000Y-116017193D01*
X122690219Y-116171942D01*
X122629838Y-116317714D01*
X122629837Y-116317716D01*
X122542178Y-116448908D01*
X122430608Y-116560478D01*
X122299416Y-116648137D01*
X122299415Y-116648138D01*
X122299414Y-116648138D01*
X122153642Y-116708519D01*
X121998893Y-116739300D01*
X121841107Y-116739300D01*
X121686358Y-116708519D01*
X121540586Y-116648138D01*
X121540585Y-116648138D01*
X121540584Y-116648137D01*
X121409392Y-116560478D01*
X121297822Y-116448908D01*
X121210163Y-116317716D01*
X121210162Y-116317714D01*
X121149781Y-116171942D01*
X121119000Y-116017193D01*
X121119000Y-115859407D01*
X121149781Y-115704658D01*
X121210162Y-115558886D01*
X121218751Y-115546031D01*
X121297822Y-115427692D01*
X121409392Y-115316122D01*
X121540584Y-115228463D01*
X121540586Y-115228462D01*
X121686358Y-115168081D01*
X121841107Y-115137300D01*
X121998893Y-115137300D01*
X122153642Y-115168081D01*
G37*
G36*
X119613642Y-115168081D02*
G01*
X119759414Y-115228462D01*
X119759416Y-115228463D01*
X119890608Y-115316122D01*
X120002178Y-115427692D01*
X120081249Y-115546031D01*
X120089838Y-115558886D01*
X120150219Y-115704658D01*
X120181000Y-115859407D01*
X120181000Y-116017193D01*
X120150219Y-116171942D01*
X120089838Y-116317714D01*
X120089837Y-116317716D01*
X120002178Y-116448908D01*
X119890608Y-116560478D01*
X119759416Y-116648137D01*
X119759415Y-116648138D01*
X119759414Y-116648138D01*
X119613642Y-116708519D01*
X119458893Y-116739300D01*
X119301107Y-116739300D01*
X119146358Y-116708519D01*
X119000586Y-116648138D01*
X119000585Y-116648138D01*
X119000584Y-116648137D01*
X118869392Y-116560478D01*
X118757822Y-116448908D01*
X118670163Y-116317716D01*
X118670162Y-116317714D01*
X118609781Y-116171942D01*
X118579000Y-116017193D01*
X118579000Y-115859407D01*
X118609781Y-115704658D01*
X118670162Y-115558886D01*
X118678751Y-115546031D01*
X118757822Y-115427692D01*
X118869392Y-115316122D01*
X119000584Y-115228463D01*
X119000586Y-115228462D01*
X119146358Y-115168081D01*
X119301107Y-115137300D01*
X119458893Y-115137300D01*
X119613642Y-115168081D01*
G37*
G36*
X117073642Y-115168081D02*
G01*
X117219414Y-115228462D01*
X117219416Y-115228463D01*
X117350608Y-115316122D01*
X117462178Y-115427692D01*
X117541249Y-115546031D01*
X117549838Y-115558886D01*
X117610219Y-115704658D01*
X117641000Y-115859407D01*
X117641000Y-116017193D01*
X117610219Y-116171942D01*
X117549838Y-116317714D01*
X117549837Y-116317716D01*
X117462178Y-116448908D01*
X117350608Y-116560478D01*
X117219416Y-116648137D01*
X117219415Y-116648138D01*
X117219414Y-116648138D01*
X117073642Y-116708519D01*
X116918893Y-116739300D01*
X116761107Y-116739300D01*
X116606358Y-116708519D01*
X116460586Y-116648138D01*
X116460585Y-116648138D01*
X116460584Y-116648137D01*
X116329392Y-116560478D01*
X116217822Y-116448908D01*
X116130163Y-116317716D01*
X116130162Y-116317714D01*
X116069781Y-116171942D01*
X116039000Y-116017193D01*
X116039000Y-115859407D01*
X116069781Y-115704658D01*
X116130162Y-115558886D01*
X116138751Y-115546031D01*
X116217822Y-115427692D01*
X116329392Y-115316122D01*
X116460584Y-115228463D01*
X116460586Y-115228462D01*
X116606358Y-115168081D01*
X116761107Y-115137300D01*
X116918893Y-115137300D01*
X117073642Y-115168081D01*
G37*
G36*
X115101000Y-116739300D02*
G01*
X113499000Y-116739300D01*
X113499000Y-115137300D01*
X115101000Y-115137300D01*
X115101000Y-116739300D01*
G37*
G36*
X124693642Y-115168081D02*
G01*
X124839414Y-115228462D01*
X124839416Y-115228463D01*
X124970608Y-115316122D01*
X125082178Y-115427692D01*
X125161249Y-115546031D01*
X125169838Y-115558886D01*
X125230219Y-115704658D01*
X125261000Y-115859407D01*
X125261000Y-116017193D01*
X125230219Y-116171942D01*
X125169838Y-116317714D01*
X125169837Y-116317716D01*
X125082178Y-116448908D01*
X124970608Y-116560478D01*
X124839416Y-116648137D01*
X124839415Y-116648138D01*
X124839414Y-116648138D01*
X124693642Y-116708519D01*
X124538893Y-116739300D01*
X124381107Y-116739300D01*
X124226358Y-116708519D01*
X124080586Y-116648138D01*
X124080585Y-116648138D01*
X124080584Y-116648137D01*
X123949392Y-116560478D01*
X123837822Y-116448908D01*
X123750163Y-116317716D01*
X123750162Y-116317714D01*
X123689781Y-116171942D01*
X123659000Y-116017193D01*
X123659000Y-115859407D01*
X123689781Y-115704658D01*
X123750162Y-115558886D01*
X123758751Y-115546031D01*
X123837822Y-115427692D01*
X123949392Y-115316122D01*
X124080584Y-115228463D01*
X124080586Y-115228462D01*
X124226358Y-115168081D01*
X124381107Y-115137300D01*
X124538893Y-115137300D01*
X124693642Y-115168081D01*
G37*
G36*
X132576000Y-115628900D02*
G01*
X130974000Y-115628900D01*
X130974000Y-114926900D01*
X132576000Y-114926900D01*
X132576000Y-115628900D01*
G37*
G36*
X142076000Y-115628900D02*
G01*
X140474000Y-115628900D01*
X140474000Y-114926900D01*
X142076000Y-114926900D01*
X142076000Y-115628900D01*
G37*
G36*
X111594112Y-113810327D02*
G01*
X111743412Y-113840024D01*
X111907384Y-113907944D01*
X112054954Y-114006547D01*
X112180453Y-114132046D01*
X112279056Y-114279616D01*
X112346976Y-114443588D01*
X112381600Y-114617659D01*
X112381600Y-114795141D01*
X112346976Y-114969212D01*
X112279056Y-115133184D01*
X112180453Y-115280754D01*
X112054954Y-115406253D01*
X111907384Y-115504856D01*
X111743412Y-115572776D01*
X111594112Y-115602473D01*
X111569342Y-115607400D01*
X111391858Y-115607400D01*
X111367088Y-115602473D01*
X111217788Y-115572776D01*
X111053816Y-115504856D01*
X110906246Y-115406253D01*
X110780747Y-115280754D01*
X110682144Y-115133184D01*
X110614224Y-114969212D01*
X110579600Y-114795141D01*
X110579600Y-114617659D01*
X110614224Y-114443588D01*
X110682144Y-114279616D01*
X110780747Y-114132046D01*
X110906246Y-114006547D01*
X111053816Y-113907944D01*
X111217788Y-113840024D01*
X111367088Y-113810327D01*
X111391858Y-113805400D01*
X111569342Y-113805400D01*
X111594112Y-113810327D01*
G37*
G36*
X142076000Y-114358900D02*
G01*
X140474000Y-114358900D01*
X140474000Y-113656900D01*
X142076000Y-113656900D01*
X142076000Y-114358900D01*
G37*
G36*
X132576000Y-114358900D02*
G01*
X130974000Y-114358900D01*
X130974000Y-113656900D01*
X132576000Y-113656900D01*
X132576000Y-114358900D01*
G37*
G36*
X105851103Y-111435675D02*
G01*
X106076966Y-111529230D01*
X106078771Y-111529978D01*
X106283666Y-111666885D01*
X106457915Y-111841134D01*
X106499646Y-111903589D01*
X106594823Y-112046031D01*
X106689125Y-112273697D01*
X106737200Y-112515386D01*
X106737200Y-112761814D01*
X106689125Y-113003503D01*
X106653753Y-113088900D01*
X106594822Y-113231171D01*
X106457915Y-113436066D01*
X106283666Y-113610315D01*
X106078771Y-113747222D01*
X106078770Y-113747223D01*
X106078769Y-113747223D01*
X105851103Y-113841525D01*
X105609414Y-113889600D01*
X105362986Y-113889600D01*
X105121297Y-113841525D01*
X104893631Y-113747223D01*
X104893630Y-113747223D01*
X104893629Y-113747222D01*
X104688734Y-113610315D01*
X104514485Y-113436066D01*
X104377578Y-113231171D01*
X104318648Y-113088900D01*
X104283275Y-113003503D01*
X104235200Y-112761814D01*
X104235200Y-112515386D01*
X104283275Y-112273697D01*
X104377577Y-112046031D01*
X104472754Y-111903589D01*
X104514485Y-111841134D01*
X104688734Y-111666885D01*
X104893629Y-111529978D01*
X104895435Y-111529230D01*
X105121297Y-111435675D01*
X105362986Y-111387600D01*
X105609414Y-111387600D01*
X105851103Y-111435675D01*
G37*
G36*
X132576000Y-113088900D02*
G01*
X130974000Y-113088900D01*
X130974000Y-112386900D01*
X132576000Y-112386900D01*
X132576000Y-113088900D01*
G37*
G36*
X142076000Y-113088900D02*
G01*
X140474000Y-113088900D01*
X140474000Y-112386900D01*
X142076000Y-112386900D01*
X142076000Y-113088900D01*
G37*
G36*
X111594112Y-111270327D02*
G01*
X111743412Y-111300024D01*
X111907384Y-111367944D01*
X112054954Y-111466547D01*
X112180453Y-111592046D01*
X112279056Y-111739616D01*
X112346976Y-111903588D01*
X112381600Y-112077659D01*
X112381600Y-112255141D01*
X112346976Y-112429212D01*
X112279056Y-112593184D01*
X112180453Y-112740754D01*
X112054954Y-112866253D01*
X111907384Y-112964856D01*
X111743412Y-113032776D01*
X111594112Y-113062473D01*
X111569342Y-113067400D01*
X111391858Y-113067400D01*
X111367088Y-113062473D01*
X111217788Y-113032776D01*
X111053816Y-112964856D01*
X110906246Y-112866253D01*
X110780747Y-112740754D01*
X110682144Y-112593184D01*
X110614224Y-112429212D01*
X110579600Y-112255141D01*
X110579600Y-112077659D01*
X110614224Y-111903588D01*
X110682144Y-111739616D01*
X110780747Y-111592046D01*
X110906246Y-111466547D01*
X111053816Y-111367944D01*
X111217788Y-111300024D01*
X111367088Y-111270327D01*
X111391858Y-111265400D01*
X111569342Y-111265400D01*
X111594112Y-111270327D01*
G37*
G36*
X127537874Y-111579265D02*
G01*
X127575567Y-111590699D01*
X127610303Y-111609266D01*
X127640748Y-111634252D01*
X127665734Y-111664697D01*
X127684301Y-111699433D01*
X127695735Y-111737126D01*
X127700200Y-111782461D01*
X127700200Y-112619139D01*
X127695735Y-112664474D01*
X127684301Y-112702167D01*
X127665734Y-112736903D01*
X127640748Y-112767348D01*
X127610303Y-112792334D01*
X127575567Y-112810901D01*
X127537874Y-112822335D01*
X127492539Y-112826800D01*
X126405861Y-112826800D01*
X126360526Y-112822335D01*
X126322833Y-112810901D01*
X126288097Y-112792334D01*
X126257652Y-112767348D01*
X126232666Y-112736903D01*
X126214099Y-112702167D01*
X126202665Y-112664474D01*
X126198200Y-112619139D01*
X126198200Y-111782461D01*
X126202665Y-111737126D01*
X126214099Y-111699433D01*
X126232666Y-111664697D01*
X126257652Y-111634252D01*
X126288097Y-111609266D01*
X126322833Y-111590699D01*
X126360526Y-111579265D01*
X126405861Y-111574800D01*
X127492539Y-111574800D01*
X127537874Y-111579265D01*
G37*
G36*
X125201074Y-111528465D02*
G01*
X125238767Y-111539899D01*
X125273503Y-111558466D01*
X125303948Y-111583452D01*
X125328934Y-111613897D01*
X125347501Y-111648633D01*
X125358935Y-111686326D01*
X125363400Y-111731661D01*
X125363400Y-112568339D01*
X125358935Y-112613674D01*
X125347501Y-112651367D01*
X125328934Y-112686103D01*
X125303948Y-112716548D01*
X125273503Y-112741534D01*
X125238767Y-112760101D01*
X125201074Y-112771535D01*
X125155739Y-112776000D01*
X124069061Y-112776000D01*
X124023726Y-112771535D01*
X123986033Y-112760101D01*
X123951297Y-112741534D01*
X123920852Y-112716548D01*
X123895866Y-112686103D01*
X123877299Y-112651367D01*
X123865865Y-112613674D01*
X123861400Y-112568339D01*
X123861400Y-111731661D01*
X123865865Y-111686326D01*
X123877299Y-111648633D01*
X123895866Y-111613897D01*
X123920852Y-111583452D01*
X123951297Y-111558466D01*
X123986033Y-111539899D01*
X124023726Y-111528465D01*
X124069061Y-111524000D01*
X125155739Y-111524000D01*
X125201074Y-111528465D01*
G37*
G36*
X142076000Y-111818900D02*
G01*
X140474000Y-111818900D01*
X140474000Y-111116900D01*
X142076000Y-111116900D01*
X142076000Y-111818900D01*
G37*
G36*
X132576000Y-111818900D02*
G01*
X130974000Y-111818900D01*
X130974000Y-111116900D01*
X132576000Y-111116900D01*
X132576000Y-111818900D01*
G37*
G36*
X127537874Y-109529265D02*
G01*
X127575567Y-109540699D01*
X127610303Y-109559266D01*
X127640748Y-109584252D01*
X127665734Y-109614697D01*
X127684301Y-109649433D01*
X127695735Y-109687126D01*
X127700200Y-109732461D01*
X127700200Y-110569139D01*
X127695735Y-110614474D01*
X127684301Y-110652167D01*
X127665734Y-110686903D01*
X127640748Y-110717348D01*
X127610303Y-110742334D01*
X127575567Y-110760901D01*
X127537874Y-110772335D01*
X127492539Y-110776800D01*
X126405861Y-110776800D01*
X126360526Y-110772335D01*
X126322833Y-110760901D01*
X126288097Y-110742334D01*
X126257652Y-110717348D01*
X126232666Y-110686903D01*
X126214099Y-110652167D01*
X126202665Y-110614474D01*
X126198200Y-110569139D01*
X126198200Y-109732461D01*
X126202665Y-109687126D01*
X126214099Y-109649433D01*
X126232666Y-109614697D01*
X126257652Y-109584252D01*
X126288097Y-109559266D01*
X126322833Y-109540699D01*
X126360526Y-109529265D01*
X126405861Y-109524800D01*
X127492539Y-109524800D01*
X127537874Y-109529265D01*
G37*
G36*
X125201074Y-109478465D02*
G01*
X125238767Y-109489899D01*
X125273503Y-109508466D01*
X125303948Y-109533452D01*
X125328934Y-109563897D01*
X125347501Y-109598633D01*
X125358935Y-109636326D01*
X125363400Y-109681661D01*
X125363400Y-110518339D01*
X125358935Y-110563674D01*
X125347501Y-110601367D01*
X125328934Y-110636103D01*
X125303948Y-110666548D01*
X125273503Y-110691534D01*
X125238767Y-110710101D01*
X125201074Y-110721535D01*
X125155739Y-110726000D01*
X124069061Y-110726000D01*
X124023726Y-110721535D01*
X123986033Y-110710101D01*
X123951297Y-110691534D01*
X123920852Y-110666548D01*
X123895866Y-110636103D01*
X123877299Y-110601367D01*
X123865865Y-110563674D01*
X123861400Y-110518339D01*
X123861400Y-109681661D01*
X123865865Y-109636326D01*
X123877299Y-109598633D01*
X123895866Y-109563897D01*
X123920852Y-109533452D01*
X123951297Y-109508466D01*
X123986033Y-109489899D01*
X124023726Y-109478465D01*
X124069061Y-109474000D01*
X125155739Y-109474000D01*
X125201074Y-109478465D01*
G37*
G36*
X115891974Y-109331365D02*
G01*
X115929667Y-109342799D01*
X115964403Y-109361366D01*
X115994848Y-109386352D01*
X116019834Y-109416797D01*
X116038401Y-109451533D01*
X116049835Y-109489226D01*
X116054300Y-109534561D01*
X116054300Y-110371239D01*
X116049835Y-110416574D01*
X116038401Y-110454267D01*
X116019834Y-110489003D01*
X115994848Y-110519448D01*
X115964403Y-110544434D01*
X115929667Y-110563001D01*
X115891974Y-110574435D01*
X115846639Y-110578900D01*
X114759961Y-110578900D01*
X114714626Y-110574435D01*
X114676933Y-110563001D01*
X114642197Y-110544434D01*
X114611752Y-110519448D01*
X114586766Y-110489003D01*
X114568199Y-110454267D01*
X114556765Y-110416574D01*
X114552300Y-110371239D01*
X114552300Y-109534561D01*
X114556765Y-109489226D01*
X114568199Y-109451533D01*
X114586766Y-109416797D01*
X114611752Y-109386352D01*
X114642197Y-109361366D01*
X114676933Y-109342799D01*
X114714626Y-109331365D01*
X114759961Y-109326900D01*
X115846639Y-109326900D01*
X115891974Y-109331365D01*
G37*
G36*
X118228774Y-109305965D02*
G01*
X118266467Y-109317399D01*
X118301203Y-109335966D01*
X118331648Y-109360952D01*
X118356634Y-109391397D01*
X118375201Y-109426133D01*
X118386635Y-109463826D01*
X118391100Y-109509161D01*
X118391100Y-110345839D01*
X118386635Y-110391174D01*
X118375201Y-110428867D01*
X118356634Y-110463603D01*
X118331648Y-110494048D01*
X118301203Y-110519034D01*
X118266467Y-110537601D01*
X118228774Y-110549035D01*
X118183439Y-110553500D01*
X117096761Y-110553500D01*
X117051426Y-110549035D01*
X117013733Y-110537601D01*
X116978997Y-110519034D01*
X116948552Y-110494048D01*
X116923566Y-110463603D01*
X116904999Y-110428867D01*
X116893565Y-110391174D01*
X116889100Y-110345839D01*
X116889100Y-109509161D01*
X116893565Y-109463826D01*
X116904999Y-109426133D01*
X116923566Y-109391397D01*
X116948552Y-109360952D01*
X116978997Y-109335966D01*
X117013733Y-109317399D01*
X117051426Y-109305965D01*
X117096761Y-109301500D01*
X118183439Y-109301500D01*
X118228774Y-109305965D01*
G37*
G36*
X132576000Y-110548900D02*
G01*
X130974000Y-110548900D01*
X130974000Y-109846900D01*
X132576000Y-109846900D01*
X132576000Y-110548900D01*
G37*
G36*
X142076000Y-110548900D02*
G01*
X140474000Y-110548900D01*
X140474000Y-109846900D01*
X142076000Y-109846900D01*
X142076000Y-110548900D01*
G37*
G36*
X111594112Y-108730327D02*
G01*
X111743412Y-108760024D01*
X111907384Y-108827944D01*
X112054954Y-108926547D01*
X112180453Y-109052046D01*
X112279056Y-109199616D01*
X112346976Y-109363588D01*
X112369826Y-109478465D01*
X112379931Y-109529265D01*
X112381600Y-109537659D01*
X112381600Y-109715141D01*
X112346976Y-109889212D01*
X112279056Y-110053184D01*
X112180453Y-110200754D01*
X112054954Y-110326253D01*
X111907384Y-110424856D01*
X111743412Y-110492776D01*
X111609319Y-110519448D01*
X111569342Y-110527400D01*
X111391858Y-110527400D01*
X111351881Y-110519448D01*
X111217788Y-110492776D01*
X111053816Y-110424856D01*
X110906246Y-110326253D01*
X110780747Y-110200754D01*
X110682144Y-110053184D01*
X110614224Y-109889212D01*
X110579600Y-109715141D01*
X110579600Y-109537659D01*
X110581270Y-109529265D01*
X110591374Y-109478465D01*
X110614224Y-109363588D01*
X110682144Y-109199616D01*
X110780747Y-109052046D01*
X110906246Y-108926547D01*
X111053816Y-108827944D01*
X111217788Y-108760024D01*
X111367088Y-108730327D01*
X111391858Y-108725400D01*
X111569342Y-108725400D01*
X111594112Y-108730327D01*
G37*
G36*
X105851103Y-107935675D02*
G01*
X105975979Y-107987400D01*
X106078771Y-108029978D01*
X106283666Y-108166885D01*
X106457915Y-108341134D01*
X106594822Y-108546029D01*
X106594823Y-108546031D01*
X106689125Y-108773697D01*
X106737200Y-109015386D01*
X106737200Y-109261814D01*
X106689125Y-109503503D01*
X106601462Y-109715142D01*
X106594822Y-109731171D01*
X106457915Y-109936066D01*
X106283666Y-110110315D01*
X106078771Y-110247222D01*
X106078770Y-110247223D01*
X106078769Y-110247223D01*
X105851103Y-110341525D01*
X105609414Y-110389600D01*
X105362986Y-110389600D01*
X105121297Y-110341525D01*
X104893631Y-110247223D01*
X104893630Y-110247223D01*
X104893629Y-110247222D01*
X104688734Y-110110315D01*
X104514485Y-109936066D01*
X104377578Y-109731171D01*
X104370939Y-109715142D01*
X104283275Y-109503503D01*
X104235200Y-109261814D01*
X104235200Y-109015386D01*
X104283275Y-108773697D01*
X104377577Y-108546031D01*
X104377578Y-108546029D01*
X104514485Y-108341134D01*
X104688734Y-108166885D01*
X104893629Y-108029978D01*
X104996422Y-107987400D01*
X105121297Y-107935675D01*
X105362986Y-107887600D01*
X105609414Y-107887600D01*
X105851103Y-107935675D01*
G37*
G36*
X142076000Y-109278900D02*
G01*
X140474000Y-109278900D01*
X140474000Y-108576900D01*
X142076000Y-108576900D01*
X142076000Y-109278900D01*
G37*
G36*
X132576000Y-109278900D02*
G01*
X130974000Y-109278900D01*
X130974000Y-108576900D01*
X132576000Y-108576900D01*
X132576000Y-109278900D01*
G37*
G36*
X115891974Y-107281365D02*
G01*
X115929667Y-107292799D01*
X115964403Y-107311366D01*
X115994848Y-107336352D01*
X116019834Y-107366797D01*
X116038401Y-107401533D01*
X116049835Y-107439226D01*
X116054300Y-107484561D01*
X116054300Y-108321239D01*
X116049835Y-108366574D01*
X116038401Y-108404267D01*
X116019834Y-108439003D01*
X115994848Y-108469448D01*
X115964403Y-108494434D01*
X115929667Y-108513001D01*
X115891974Y-108524435D01*
X115846639Y-108528900D01*
X114759961Y-108528900D01*
X114714626Y-108524435D01*
X114676933Y-108513001D01*
X114642197Y-108494434D01*
X114611752Y-108469448D01*
X114586766Y-108439003D01*
X114568199Y-108404267D01*
X114556765Y-108366574D01*
X114552300Y-108321239D01*
X114552300Y-107484561D01*
X114556765Y-107439226D01*
X114568199Y-107401533D01*
X114586766Y-107366797D01*
X114611752Y-107336352D01*
X114642197Y-107311366D01*
X114676933Y-107292799D01*
X114714626Y-107281365D01*
X114759961Y-107276900D01*
X115846639Y-107276900D01*
X115891974Y-107281365D01*
G37*
G36*
X118228774Y-107255965D02*
G01*
X118266467Y-107267399D01*
X118301203Y-107285966D01*
X118331648Y-107310952D01*
X118356634Y-107341397D01*
X118375201Y-107376133D01*
X118386635Y-107413826D01*
X118391100Y-107459161D01*
X118391100Y-108295839D01*
X118386635Y-108341174D01*
X118375201Y-108378867D01*
X118356634Y-108413603D01*
X118331648Y-108444048D01*
X118301203Y-108469034D01*
X118266467Y-108487601D01*
X118228774Y-108499035D01*
X118183439Y-108503500D01*
X117096761Y-108503500D01*
X117051426Y-108499035D01*
X117013733Y-108487601D01*
X116978997Y-108469034D01*
X116948552Y-108444048D01*
X116923566Y-108413603D01*
X116904999Y-108378867D01*
X116893565Y-108341174D01*
X116889100Y-108295839D01*
X116889100Y-107459161D01*
X116893565Y-107413826D01*
X116904999Y-107376133D01*
X116923566Y-107341397D01*
X116948552Y-107310952D01*
X116978997Y-107285966D01*
X117013733Y-107267399D01*
X117051426Y-107255965D01*
X117096761Y-107251500D01*
X118183439Y-107251500D01*
X118228774Y-107255965D01*
G37*
G36*
X132576000Y-108008900D02*
G01*
X130974000Y-108008900D01*
X130974000Y-107306900D01*
X132576000Y-107306900D01*
X132576000Y-108008900D01*
G37*
G36*
X142076000Y-108008900D02*
G01*
X140474000Y-108008900D01*
X140474000Y-107306900D01*
X142076000Y-107306900D01*
X142076000Y-108008900D01*
G37*
G36*
X112381600Y-107987400D02*
G01*
X110579600Y-107987400D01*
X110579600Y-106185400D01*
X112381600Y-106185400D01*
X112381600Y-107987400D01*
G37*
G36*
X106737200Y-106889600D02*
G01*
X104235200Y-106889600D01*
X104235200Y-104387600D01*
X106737200Y-104387600D01*
X106737200Y-106889600D01*
G37*
G36*
X142076000Y-106738900D02*
G01*
X140474000Y-106738900D01*
X140474000Y-106036900D01*
X142076000Y-106036900D01*
X142076000Y-106738900D01*
G37*
G36*
X132576000Y-106738900D02*
G01*
X130974000Y-106738900D01*
X130974000Y-106036900D01*
X132576000Y-106036900D01*
X132576000Y-106738900D01*
G37*
G36*
X127233642Y-105008081D02*
G01*
X127379414Y-105068462D01*
X127379416Y-105068463D01*
X127510608Y-105156122D01*
X127622178Y-105267692D01*
X127709837Y-105398884D01*
X127709838Y-105398886D01*
X127770219Y-105544658D01*
X127801000Y-105699407D01*
X127801000Y-105857193D01*
X127770219Y-106011942D01*
X127709838Y-106157714D01*
X127709837Y-106157716D01*
X127622178Y-106288908D01*
X127510608Y-106400478D01*
X127379416Y-106488137D01*
X127379415Y-106488138D01*
X127379414Y-106488138D01*
X127233642Y-106548519D01*
X127078893Y-106579300D01*
X126921107Y-106579300D01*
X126766358Y-106548519D01*
X126620586Y-106488138D01*
X126620585Y-106488138D01*
X126620584Y-106488137D01*
X126489392Y-106400478D01*
X126377822Y-106288908D01*
X126290163Y-106157716D01*
X126290162Y-106157714D01*
X126229781Y-106011942D01*
X126199000Y-105857193D01*
X126199000Y-105699407D01*
X126229781Y-105544658D01*
X126290162Y-105398886D01*
X126290163Y-105398884D01*
X126377822Y-105267692D01*
X126489392Y-105156122D01*
X126620584Y-105068463D01*
X126620586Y-105068462D01*
X126766358Y-105008081D01*
X126921107Y-104977300D01*
X127078893Y-104977300D01*
X127233642Y-105008081D01*
G37*
G36*
X124693642Y-105008081D02*
G01*
X124839414Y-105068462D01*
X124839416Y-105068463D01*
X124970608Y-105156122D01*
X125082178Y-105267692D01*
X125169837Y-105398884D01*
X125169838Y-105398886D01*
X125230219Y-105544658D01*
X125261000Y-105699407D01*
X125261000Y-105857193D01*
X125230219Y-106011942D01*
X125169838Y-106157714D01*
X125169837Y-106157716D01*
X125082178Y-106288908D01*
X124970608Y-106400478D01*
X124839416Y-106488137D01*
X124839415Y-106488138D01*
X124839414Y-106488138D01*
X124693642Y-106548519D01*
X124538893Y-106579300D01*
X124381107Y-106579300D01*
X124226358Y-106548519D01*
X124080586Y-106488138D01*
X124080585Y-106488138D01*
X124080584Y-106488137D01*
X123949392Y-106400478D01*
X123837822Y-106288908D01*
X123750163Y-106157716D01*
X123750162Y-106157714D01*
X123689781Y-106011942D01*
X123659000Y-105857193D01*
X123659000Y-105699407D01*
X123689781Y-105544658D01*
X123750162Y-105398886D01*
X123750163Y-105398884D01*
X123837822Y-105267692D01*
X123949392Y-105156122D01*
X124080584Y-105068463D01*
X124080586Y-105068462D01*
X124226358Y-105008081D01*
X124381107Y-104977300D01*
X124538893Y-104977300D01*
X124693642Y-105008081D01*
G37*
G36*
X122153642Y-105008081D02*
G01*
X122299414Y-105068462D01*
X122299416Y-105068463D01*
X122430608Y-105156122D01*
X122542178Y-105267692D01*
X122629837Y-105398884D01*
X122629838Y-105398886D01*
X122690219Y-105544658D01*
X122721000Y-105699407D01*
X122721000Y-105857193D01*
X122690219Y-106011942D01*
X122629838Y-106157714D01*
X122629837Y-106157716D01*
X122542178Y-106288908D01*
X122430608Y-106400478D01*
X122299416Y-106488137D01*
X122299415Y-106488138D01*
X122299414Y-106488138D01*
X122153642Y-106548519D01*
X121998893Y-106579300D01*
X121841107Y-106579300D01*
X121686358Y-106548519D01*
X121540586Y-106488138D01*
X121540585Y-106488138D01*
X121540584Y-106488137D01*
X121409392Y-106400478D01*
X121297822Y-106288908D01*
X121210163Y-106157716D01*
X121210162Y-106157714D01*
X121149781Y-106011942D01*
X121119000Y-105857193D01*
X121119000Y-105699407D01*
X121149781Y-105544658D01*
X121210162Y-105398886D01*
X121210163Y-105398884D01*
X121297822Y-105267692D01*
X121409392Y-105156122D01*
X121540584Y-105068463D01*
X121540586Y-105068462D01*
X121686358Y-105008081D01*
X121841107Y-104977300D01*
X121998893Y-104977300D01*
X122153642Y-105008081D01*
G37*
G36*
X119613642Y-105008081D02*
G01*
X119759414Y-105068462D01*
X119759416Y-105068463D01*
X119890608Y-105156122D01*
X120002178Y-105267692D01*
X120089837Y-105398884D01*
X120089838Y-105398886D01*
X120150219Y-105544658D01*
X120181000Y-105699407D01*
X120181000Y-105857193D01*
X120150219Y-106011942D01*
X120089838Y-106157714D01*
X120089837Y-106157716D01*
X120002178Y-106288908D01*
X119890608Y-106400478D01*
X119759416Y-106488137D01*
X119759415Y-106488138D01*
X119759414Y-106488138D01*
X119613642Y-106548519D01*
X119458893Y-106579300D01*
X119301107Y-106579300D01*
X119146358Y-106548519D01*
X119000586Y-106488138D01*
X119000585Y-106488138D01*
X119000584Y-106488137D01*
X118869392Y-106400478D01*
X118757822Y-106288908D01*
X118670163Y-106157716D01*
X118670162Y-106157714D01*
X118609781Y-106011942D01*
X118579000Y-105857193D01*
X118579000Y-105699407D01*
X118609781Y-105544658D01*
X118670162Y-105398886D01*
X118670163Y-105398884D01*
X118757822Y-105267692D01*
X118869392Y-105156122D01*
X119000584Y-105068463D01*
X119000586Y-105068462D01*
X119146358Y-105008081D01*
X119301107Y-104977300D01*
X119458893Y-104977300D01*
X119613642Y-105008081D01*
G37*
G36*
X117073642Y-105008081D02*
G01*
X117219414Y-105068462D01*
X117219416Y-105068463D01*
X117350608Y-105156122D01*
X117462178Y-105267692D01*
X117549837Y-105398884D01*
X117549838Y-105398886D01*
X117610219Y-105544658D01*
X117641000Y-105699407D01*
X117641000Y-105857193D01*
X117610219Y-106011942D01*
X117549838Y-106157714D01*
X117549837Y-106157716D01*
X117462178Y-106288908D01*
X117350608Y-106400478D01*
X117219416Y-106488137D01*
X117219415Y-106488138D01*
X117219414Y-106488138D01*
X117073642Y-106548519D01*
X116918893Y-106579300D01*
X116761107Y-106579300D01*
X116606358Y-106548519D01*
X116460586Y-106488138D01*
X116460585Y-106488138D01*
X116460584Y-106488137D01*
X116329392Y-106400478D01*
X116217822Y-106288908D01*
X116130163Y-106157716D01*
X116130162Y-106157714D01*
X116069781Y-106011942D01*
X116039000Y-105857193D01*
X116039000Y-105699407D01*
X116069781Y-105544658D01*
X116130162Y-105398886D01*
X116130163Y-105398884D01*
X116217822Y-105267692D01*
X116329392Y-105156122D01*
X116460584Y-105068463D01*
X116460586Y-105068462D01*
X116606358Y-105008081D01*
X116761107Y-104977300D01*
X116918893Y-104977300D01*
X117073642Y-105008081D01*
G37*
G36*
X114533642Y-105008081D02*
G01*
X114679414Y-105068462D01*
X114679416Y-105068463D01*
X114810608Y-105156122D01*
X114922178Y-105267692D01*
X115009837Y-105398884D01*
X115009838Y-105398886D01*
X115070219Y-105544658D01*
X115101000Y-105699407D01*
X115101000Y-105857193D01*
X115070219Y-106011942D01*
X115009838Y-106157714D01*
X115009837Y-106157716D01*
X114922178Y-106288908D01*
X114810608Y-106400478D01*
X114679416Y-106488137D01*
X114679415Y-106488138D01*
X114679414Y-106488138D01*
X114533642Y-106548519D01*
X114378893Y-106579300D01*
X114221107Y-106579300D01*
X114066358Y-106548519D01*
X113920586Y-106488138D01*
X113920585Y-106488138D01*
X113920584Y-106488137D01*
X113789392Y-106400478D01*
X113677822Y-106288908D01*
X113590163Y-106157716D01*
X113590162Y-106157714D01*
X113529781Y-106011942D01*
X113499000Y-105857193D01*
X113499000Y-105699407D01*
X113529781Y-105544658D01*
X113590162Y-105398886D01*
X113590163Y-105398884D01*
X113677822Y-105267692D01*
X113789392Y-105156122D01*
X113920584Y-105068463D01*
X113920586Y-105068462D01*
X114066358Y-105008081D01*
X114221107Y-104977300D01*
X114378893Y-104977300D01*
X114533642Y-105008081D01*
G37*
G36*
X129773642Y-105008081D02*
G01*
X129919414Y-105068462D01*
X129919416Y-105068463D01*
X130050608Y-105156122D01*
X130162178Y-105267692D01*
X130249837Y-105398884D01*
X130249838Y-105398886D01*
X130310219Y-105544658D01*
X130341000Y-105699407D01*
X130341000Y-105857193D01*
X130310219Y-106011942D01*
X130249838Y-106157714D01*
X130249837Y-106157716D01*
X130162178Y-106288908D01*
X130050608Y-106400478D01*
X129919416Y-106488137D01*
X129919415Y-106488138D01*
X129919414Y-106488138D01*
X129773642Y-106548519D01*
X129618893Y-106579300D01*
X129461107Y-106579300D01*
X129306358Y-106548519D01*
X129160586Y-106488138D01*
X129160585Y-106488138D01*
X129160584Y-106488137D01*
X129029392Y-106400478D01*
X128917822Y-106288908D01*
X128830163Y-106157716D01*
X128830162Y-106157714D01*
X128769781Y-106011942D01*
X128739000Y-105857193D01*
X128739000Y-105699407D01*
X128769781Y-105544658D01*
X128830162Y-105398886D01*
X128830163Y-105398884D01*
X128917822Y-105267692D01*
X129029392Y-105156122D01*
X129160584Y-105068463D01*
X129160586Y-105068462D01*
X129306358Y-105008081D01*
X129461107Y-104977300D01*
X129618893Y-104977300D01*
X129773642Y-105008081D01*
G37*
G36*
X142076000Y-105468900D02*
G01*
X140474000Y-105468900D01*
X140474000Y-104766900D01*
X142076000Y-104766900D01*
X142076000Y-105468900D01*
G37*
G36*
X132576000Y-105468900D02*
G01*
X130974000Y-105468900D01*
X130974000Y-104766900D01*
X132576000Y-104766900D01*
X132576000Y-105468900D01*
G37*
M02*
