G04 #@! TF.GenerationSoftware,KiCad,Pcbnew,5.1.5+dfsg1-2build2*
G04 #@! TF.CreationDate,2021-11-16T18:40:55-05:00*
G04 #@! TF.ProjectId,028INCH_8DIGIT,30323849-4e43-4485-9f38-44494749542e,rev?*
G04 #@! TF.SameCoordinates,Original*
G04 #@! TF.FileFunction,Copper,L2,Bot*
G04 #@! TF.FilePolarity,Positive*
%FSLAX46Y46*%
G04 Gerber Fmt 4.6, Leading zero omitted, Abs format (unit mm)*
G04 Created by KiCad (PCBNEW 5.1.5+dfsg1-2build2) date 2021-11-16 18:40:55*
%MOMM*%
%LPD*%
G04 APERTURE LIST*
%ADD10R,1.500000X1.500000*%
%ADD11C,1.500000*%
%ADD12C,0.100000*%
%ADD13O,1.700000X1.700000*%
%ADD14R,1.700000X1.700000*%
%ADD15C,2.400000*%
%ADD16R,2.400000X2.400000*%
%ADD17C,0.800000*%
%ADD18C,0.250000*%
%ADD19C,0.254000*%
G04 APERTURE END LIST*
D10*
X115138000Y-109100000D03*
D11*
X117678000Y-109100000D03*
X120218000Y-109100000D03*
X122758000Y-109100000D03*
X125298000Y-109100000D03*
X127838000Y-109100000D03*
X127838000Y-101480000D03*
X125298000Y-101480000D03*
X122758000Y-101480000D03*
X120218000Y-101480000D03*
X117678000Y-101480000D03*
X115138000Y-101480000D03*
D10*
X115138000Y-119520000D03*
D11*
X117678000Y-119520000D03*
X120218000Y-119520000D03*
X122758000Y-119520000D03*
X125298000Y-119520000D03*
X127838000Y-119520000D03*
X127838000Y-111900000D03*
X125298000Y-111900000D03*
X122758000Y-111900000D03*
X120218000Y-111900000D03*
X117678000Y-111900000D03*
X115138000Y-111900000D03*
G04 #@! TA.AperFunction,SMDPad,CuDef*
D12*
G36*
X141505703Y-117099722D02*
G01*
X141520264Y-117101882D01*
X141534543Y-117105459D01*
X141548403Y-117110418D01*
X141561710Y-117116712D01*
X141574336Y-117124280D01*
X141586159Y-117133048D01*
X141597066Y-117142934D01*
X141606952Y-117153841D01*
X141615720Y-117165664D01*
X141623288Y-117178290D01*
X141629582Y-117191597D01*
X141634541Y-117205457D01*
X141638118Y-117219736D01*
X141640278Y-117234297D01*
X141641000Y-117249000D01*
X141641000Y-117549000D01*
X141640278Y-117563703D01*
X141638118Y-117578264D01*
X141634541Y-117592543D01*
X141629582Y-117606403D01*
X141623288Y-117619710D01*
X141615720Y-117632336D01*
X141606952Y-117644159D01*
X141597066Y-117655066D01*
X141586159Y-117664952D01*
X141574336Y-117673720D01*
X141561710Y-117681288D01*
X141548403Y-117687582D01*
X141534543Y-117692541D01*
X141520264Y-117696118D01*
X141505703Y-117698278D01*
X141491000Y-117699000D01*
X139741000Y-117699000D01*
X139726297Y-117698278D01*
X139711736Y-117696118D01*
X139697457Y-117692541D01*
X139683597Y-117687582D01*
X139670290Y-117681288D01*
X139657664Y-117673720D01*
X139645841Y-117664952D01*
X139634934Y-117655066D01*
X139625048Y-117644159D01*
X139616280Y-117632336D01*
X139608712Y-117619710D01*
X139602418Y-117606403D01*
X139597459Y-117592543D01*
X139593882Y-117578264D01*
X139591722Y-117563703D01*
X139591000Y-117549000D01*
X139591000Y-117249000D01*
X139591722Y-117234297D01*
X139593882Y-117219736D01*
X139597459Y-117205457D01*
X139602418Y-117191597D01*
X139608712Y-117178290D01*
X139616280Y-117165664D01*
X139625048Y-117153841D01*
X139634934Y-117142934D01*
X139645841Y-117133048D01*
X139657664Y-117124280D01*
X139670290Y-117116712D01*
X139683597Y-117110418D01*
X139697457Y-117105459D01*
X139711736Y-117101882D01*
X139726297Y-117099722D01*
X139741000Y-117099000D01*
X141491000Y-117099000D01*
X141505703Y-117099722D01*
G37*
G04 #@! TD.AperFunction*
G04 #@! TA.AperFunction,SMDPad,CuDef*
G36*
X141505703Y-115829722D02*
G01*
X141520264Y-115831882D01*
X141534543Y-115835459D01*
X141548403Y-115840418D01*
X141561710Y-115846712D01*
X141574336Y-115854280D01*
X141586159Y-115863048D01*
X141597066Y-115872934D01*
X141606952Y-115883841D01*
X141615720Y-115895664D01*
X141623288Y-115908290D01*
X141629582Y-115921597D01*
X141634541Y-115935457D01*
X141638118Y-115949736D01*
X141640278Y-115964297D01*
X141641000Y-115979000D01*
X141641000Y-116279000D01*
X141640278Y-116293703D01*
X141638118Y-116308264D01*
X141634541Y-116322543D01*
X141629582Y-116336403D01*
X141623288Y-116349710D01*
X141615720Y-116362336D01*
X141606952Y-116374159D01*
X141597066Y-116385066D01*
X141586159Y-116394952D01*
X141574336Y-116403720D01*
X141561710Y-116411288D01*
X141548403Y-116417582D01*
X141534543Y-116422541D01*
X141520264Y-116426118D01*
X141505703Y-116428278D01*
X141491000Y-116429000D01*
X139741000Y-116429000D01*
X139726297Y-116428278D01*
X139711736Y-116426118D01*
X139697457Y-116422541D01*
X139683597Y-116417582D01*
X139670290Y-116411288D01*
X139657664Y-116403720D01*
X139645841Y-116394952D01*
X139634934Y-116385066D01*
X139625048Y-116374159D01*
X139616280Y-116362336D01*
X139608712Y-116349710D01*
X139602418Y-116336403D01*
X139597459Y-116322543D01*
X139593882Y-116308264D01*
X139591722Y-116293703D01*
X139591000Y-116279000D01*
X139591000Y-115979000D01*
X139591722Y-115964297D01*
X139593882Y-115949736D01*
X139597459Y-115935457D01*
X139602418Y-115921597D01*
X139608712Y-115908290D01*
X139616280Y-115895664D01*
X139625048Y-115883841D01*
X139634934Y-115872934D01*
X139645841Y-115863048D01*
X139657664Y-115854280D01*
X139670290Y-115846712D01*
X139683597Y-115840418D01*
X139697457Y-115835459D01*
X139711736Y-115831882D01*
X139726297Y-115829722D01*
X139741000Y-115829000D01*
X141491000Y-115829000D01*
X141505703Y-115829722D01*
G37*
G04 #@! TD.AperFunction*
G04 #@! TA.AperFunction,SMDPad,CuDef*
G36*
X141505703Y-114559722D02*
G01*
X141520264Y-114561882D01*
X141534543Y-114565459D01*
X141548403Y-114570418D01*
X141561710Y-114576712D01*
X141574336Y-114584280D01*
X141586159Y-114593048D01*
X141597066Y-114602934D01*
X141606952Y-114613841D01*
X141615720Y-114625664D01*
X141623288Y-114638290D01*
X141629582Y-114651597D01*
X141634541Y-114665457D01*
X141638118Y-114679736D01*
X141640278Y-114694297D01*
X141641000Y-114709000D01*
X141641000Y-115009000D01*
X141640278Y-115023703D01*
X141638118Y-115038264D01*
X141634541Y-115052543D01*
X141629582Y-115066403D01*
X141623288Y-115079710D01*
X141615720Y-115092336D01*
X141606952Y-115104159D01*
X141597066Y-115115066D01*
X141586159Y-115124952D01*
X141574336Y-115133720D01*
X141561710Y-115141288D01*
X141548403Y-115147582D01*
X141534543Y-115152541D01*
X141520264Y-115156118D01*
X141505703Y-115158278D01*
X141491000Y-115159000D01*
X139741000Y-115159000D01*
X139726297Y-115158278D01*
X139711736Y-115156118D01*
X139697457Y-115152541D01*
X139683597Y-115147582D01*
X139670290Y-115141288D01*
X139657664Y-115133720D01*
X139645841Y-115124952D01*
X139634934Y-115115066D01*
X139625048Y-115104159D01*
X139616280Y-115092336D01*
X139608712Y-115079710D01*
X139602418Y-115066403D01*
X139597459Y-115052543D01*
X139593882Y-115038264D01*
X139591722Y-115023703D01*
X139591000Y-115009000D01*
X139591000Y-114709000D01*
X139591722Y-114694297D01*
X139593882Y-114679736D01*
X139597459Y-114665457D01*
X139602418Y-114651597D01*
X139608712Y-114638290D01*
X139616280Y-114625664D01*
X139625048Y-114613841D01*
X139634934Y-114602934D01*
X139645841Y-114593048D01*
X139657664Y-114584280D01*
X139670290Y-114576712D01*
X139683597Y-114570418D01*
X139697457Y-114565459D01*
X139711736Y-114561882D01*
X139726297Y-114559722D01*
X139741000Y-114559000D01*
X141491000Y-114559000D01*
X141505703Y-114559722D01*
G37*
G04 #@! TD.AperFunction*
G04 #@! TA.AperFunction,SMDPad,CuDef*
G36*
X141505703Y-113289722D02*
G01*
X141520264Y-113291882D01*
X141534543Y-113295459D01*
X141548403Y-113300418D01*
X141561710Y-113306712D01*
X141574336Y-113314280D01*
X141586159Y-113323048D01*
X141597066Y-113332934D01*
X141606952Y-113343841D01*
X141615720Y-113355664D01*
X141623288Y-113368290D01*
X141629582Y-113381597D01*
X141634541Y-113395457D01*
X141638118Y-113409736D01*
X141640278Y-113424297D01*
X141641000Y-113439000D01*
X141641000Y-113739000D01*
X141640278Y-113753703D01*
X141638118Y-113768264D01*
X141634541Y-113782543D01*
X141629582Y-113796403D01*
X141623288Y-113809710D01*
X141615720Y-113822336D01*
X141606952Y-113834159D01*
X141597066Y-113845066D01*
X141586159Y-113854952D01*
X141574336Y-113863720D01*
X141561710Y-113871288D01*
X141548403Y-113877582D01*
X141534543Y-113882541D01*
X141520264Y-113886118D01*
X141505703Y-113888278D01*
X141491000Y-113889000D01*
X139741000Y-113889000D01*
X139726297Y-113888278D01*
X139711736Y-113886118D01*
X139697457Y-113882541D01*
X139683597Y-113877582D01*
X139670290Y-113871288D01*
X139657664Y-113863720D01*
X139645841Y-113854952D01*
X139634934Y-113845066D01*
X139625048Y-113834159D01*
X139616280Y-113822336D01*
X139608712Y-113809710D01*
X139602418Y-113796403D01*
X139597459Y-113782543D01*
X139593882Y-113768264D01*
X139591722Y-113753703D01*
X139591000Y-113739000D01*
X139591000Y-113439000D01*
X139591722Y-113424297D01*
X139593882Y-113409736D01*
X139597459Y-113395457D01*
X139602418Y-113381597D01*
X139608712Y-113368290D01*
X139616280Y-113355664D01*
X139625048Y-113343841D01*
X139634934Y-113332934D01*
X139645841Y-113323048D01*
X139657664Y-113314280D01*
X139670290Y-113306712D01*
X139683597Y-113300418D01*
X139697457Y-113295459D01*
X139711736Y-113291882D01*
X139726297Y-113289722D01*
X139741000Y-113289000D01*
X141491000Y-113289000D01*
X141505703Y-113289722D01*
G37*
G04 #@! TD.AperFunction*
G04 #@! TA.AperFunction,SMDPad,CuDef*
G36*
X141505703Y-112019722D02*
G01*
X141520264Y-112021882D01*
X141534543Y-112025459D01*
X141548403Y-112030418D01*
X141561710Y-112036712D01*
X141574336Y-112044280D01*
X141586159Y-112053048D01*
X141597066Y-112062934D01*
X141606952Y-112073841D01*
X141615720Y-112085664D01*
X141623288Y-112098290D01*
X141629582Y-112111597D01*
X141634541Y-112125457D01*
X141638118Y-112139736D01*
X141640278Y-112154297D01*
X141641000Y-112169000D01*
X141641000Y-112469000D01*
X141640278Y-112483703D01*
X141638118Y-112498264D01*
X141634541Y-112512543D01*
X141629582Y-112526403D01*
X141623288Y-112539710D01*
X141615720Y-112552336D01*
X141606952Y-112564159D01*
X141597066Y-112575066D01*
X141586159Y-112584952D01*
X141574336Y-112593720D01*
X141561710Y-112601288D01*
X141548403Y-112607582D01*
X141534543Y-112612541D01*
X141520264Y-112616118D01*
X141505703Y-112618278D01*
X141491000Y-112619000D01*
X139741000Y-112619000D01*
X139726297Y-112618278D01*
X139711736Y-112616118D01*
X139697457Y-112612541D01*
X139683597Y-112607582D01*
X139670290Y-112601288D01*
X139657664Y-112593720D01*
X139645841Y-112584952D01*
X139634934Y-112575066D01*
X139625048Y-112564159D01*
X139616280Y-112552336D01*
X139608712Y-112539710D01*
X139602418Y-112526403D01*
X139597459Y-112512543D01*
X139593882Y-112498264D01*
X139591722Y-112483703D01*
X139591000Y-112469000D01*
X139591000Y-112169000D01*
X139591722Y-112154297D01*
X139593882Y-112139736D01*
X139597459Y-112125457D01*
X139602418Y-112111597D01*
X139608712Y-112098290D01*
X139616280Y-112085664D01*
X139625048Y-112073841D01*
X139634934Y-112062934D01*
X139645841Y-112053048D01*
X139657664Y-112044280D01*
X139670290Y-112036712D01*
X139683597Y-112030418D01*
X139697457Y-112025459D01*
X139711736Y-112021882D01*
X139726297Y-112019722D01*
X139741000Y-112019000D01*
X141491000Y-112019000D01*
X141505703Y-112019722D01*
G37*
G04 #@! TD.AperFunction*
G04 #@! TA.AperFunction,SMDPad,CuDef*
G36*
X141505703Y-110749722D02*
G01*
X141520264Y-110751882D01*
X141534543Y-110755459D01*
X141548403Y-110760418D01*
X141561710Y-110766712D01*
X141574336Y-110774280D01*
X141586159Y-110783048D01*
X141597066Y-110792934D01*
X141606952Y-110803841D01*
X141615720Y-110815664D01*
X141623288Y-110828290D01*
X141629582Y-110841597D01*
X141634541Y-110855457D01*
X141638118Y-110869736D01*
X141640278Y-110884297D01*
X141641000Y-110899000D01*
X141641000Y-111199000D01*
X141640278Y-111213703D01*
X141638118Y-111228264D01*
X141634541Y-111242543D01*
X141629582Y-111256403D01*
X141623288Y-111269710D01*
X141615720Y-111282336D01*
X141606952Y-111294159D01*
X141597066Y-111305066D01*
X141586159Y-111314952D01*
X141574336Y-111323720D01*
X141561710Y-111331288D01*
X141548403Y-111337582D01*
X141534543Y-111342541D01*
X141520264Y-111346118D01*
X141505703Y-111348278D01*
X141491000Y-111349000D01*
X139741000Y-111349000D01*
X139726297Y-111348278D01*
X139711736Y-111346118D01*
X139697457Y-111342541D01*
X139683597Y-111337582D01*
X139670290Y-111331288D01*
X139657664Y-111323720D01*
X139645841Y-111314952D01*
X139634934Y-111305066D01*
X139625048Y-111294159D01*
X139616280Y-111282336D01*
X139608712Y-111269710D01*
X139602418Y-111256403D01*
X139597459Y-111242543D01*
X139593882Y-111228264D01*
X139591722Y-111213703D01*
X139591000Y-111199000D01*
X139591000Y-110899000D01*
X139591722Y-110884297D01*
X139593882Y-110869736D01*
X139597459Y-110855457D01*
X139602418Y-110841597D01*
X139608712Y-110828290D01*
X139616280Y-110815664D01*
X139625048Y-110803841D01*
X139634934Y-110792934D01*
X139645841Y-110783048D01*
X139657664Y-110774280D01*
X139670290Y-110766712D01*
X139683597Y-110760418D01*
X139697457Y-110755459D01*
X139711736Y-110751882D01*
X139726297Y-110749722D01*
X139741000Y-110749000D01*
X141491000Y-110749000D01*
X141505703Y-110749722D01*
G37*
G04 #@! TD.AperFunction*
G04 #@! TA.AperFunction,SMDPad,CuDef*
G36*
X141505703Y-109479722D02*
G01*
X141520264Y-109481882D01*
X141534543Y-109485459D01*
X141548403Y-109490418D01*
X141561710Y-109496712D01*
X141574336Y-109504280D01*
X141586159Y-109513048D01*
X141597066Y-109522934D01*
X141606952Y-109533841D01*
X141615720Y-109545664D01*
X141623288Y-109558290D01*
X141629582Y-109571597D01*
X141634541Y-109585457D01*
X141638118Y-109599736D01*
X141640278Y-109614297D01*
X141641000Y-109629000D01*
X141641000Y-109929000D01*
X141640278Y-109943703D01*
X141638118Y-109958264D01*
X141634541Y-109972543D01*
X141629582Y-109986403D01*
X141623288Y-109999710D01*
X141615720Y-110012336D01*
X141606952Y-110024159D01*
X141597066Y-110035066D01*
X141586159Y-110044952D01*
X141574336Y-110053720D01*
X141561710Y-110061288D01*
X141548403Y-110067582D01*
X141534543Y-110072541D01*
X141520264Y-110076118D01*
X141505703Y-110078278D01*
X141491000Y-110079000D01*
X139741000Y-110079000D01*
X139726297Y-110078278D01*
X139711736Y-110076118D01*
X139697457Y-110072541D01*
X139683597Y-110067582D01*
X139670290Y-110061288D01*
X139657664Y-110053720D01*
X139645841Y-110044952D01*
X139634934Y-110035066D01*
X139625048Y-110024159D01*
X139616280Y-110012336D01*
X139608712Y-109999710D01*
X139602418Y-109986403D01*
X139597459Y-109972543D01*
X139593882Y-109958264D01*
X139591722Y-109943703D01*
X139591000Y-109929000D01*
X139591000Y-109629000D01*
X139591722Y-109614297D01*
X139593882Y-109599736D01*
X139597459Y-109585457D01*
X139602418Y-109571597D01*
X139608712Y-109558290D01*
X139616280Y-109545664D01*
X139625048Y-109533841D01*
X139634934Y-109522934D01*
X139645841Y-109513048D01*
X139657664Y-109504280D01*
X139670290Y-109496712D01*
X139683597Y-109490418D01*
X139697457Y-109485459D01*
X139711736Y-109481882D01*
X139726297Y-109479722D01*
X139741000Y-109479000D01*
X141491000Y-109479000D01*
X141505703Y-109479722D01*
G37*
G04 #@! TD.AperFunction*
G04 #@! TA.AperFunction,SMDPad,CuDef*
G36*
X141505703Y-108209722D02*
G01*
X141520264Y-108211882D01*
X141534543Y-108215459D01*
X141548403Y-108220418D01*
X141561710Y-108226712D01*
X141574336Y-108234280D01*
X141586159Y-108243048D01*
X141597066Y-108252934D01*
X141606952Y-108263841D01*
X141615720Y-108275664D01*
X141623288Y-108288290D01*
X141629582Y-108301597D01*
X141634541Y-108315457D01*
X141638118Y-108329736D01*
X141640278Y-108344297D01*
X141641000Y-108359000D01*
X141641000Y-108659000D01*
X141640278Y-108673703D01*
X141638118Y-108688264D01*
X141634541Y-108702543D01*
X141629582Y-108716403D01*
X141623288Y-108729710D01*
X141615720Y-108742336D01*
X141606952Y-108754159D01*
X141597066Y-108765066D01*
X141586159Y-108774952D01*
X141574336Y-108783720D01*
X141561710Y-108791288D01*
X141548403Y-108797582D01*
X141534543Y-108802541D01*
X141520264Y-108806118D01*
X141505703Y-108808278D01*
X141491000Y-108809000D01*
X139741000Y-108809000D01*
X139726297Y-108808278D01*
X139711736Y-108806118D01*
X139697457Y-108802541D01*
X139683597Y-108797582D01*
X139670290Y-108791288D01*
X139657664Y-108783720D01*
X139645841Y-108774952D01*
X139634934Y-108765066D01*
X139625048Y-108754159D01*
X139616280Y-108742336D01*
X139608712Y-108729710D01*
X139602418Y-108716403D01*
X139597459Y-108702543D01*
X139593882Y-108688264D01*
X139591722Y-108673703D01*
X139591000Y-108659000D01*
X139591000Y-108359000D01*
X139591722Y-108344297D01*
X139593882Y-108329736D01*
X139597459Y-108315457D01*
X139602418Y-108301597D01*
X139608712Y-108288290D01*
X139616280Y-108275664D01*
X139625048Y-108263841D01*
X139634934Y-108252934D01*
X139645841Y-108243048D01*
X139657664Y-108234280D01*
X139670290Y-108226712D01*
X139683597Y-108220418D01*
X139697457Y-108215459D01*
X139711736Y-108211882D01*
X139726297Y-108209722D01*
X139741000Y-108209000D01*
X141491000Y-108209000D01*
X141505703Y-108209722D01*
G37*
G04 #@! TD.AperFunction*
G04 #@! TA.AperFunction,SMDPad,CuDef*
G36*
X141505703Y-106939722D02*
G01*
X141520264Y-106941882D01*
X141534543Y-106945459D01*
X141548403Y-106950418D01*
X141561710Y-106956712D01*
X141574336Y-106964280D01*
X141586159Y-106973048D01*
X141597066Y-106982934D01*
X141606952Y-106993841D01*
X141615720Y-107005664D01*
X141623288Y-107018290D01*
X141629582Y-107031597D01*
X141634541Y-107045457D01*
X141638118Y-107059736D01*
X141640278Y-107074297D01*
X141641000Y-107089000D01*
X141641000Y-107389000D01*
X141640278Y-107403703D01*
X141638118Y-107418264D01*
X141634541Y-107432543D01*
X141629582Y-107446403D01*
X141623288Y-107459710D01*
X141615720Y-107472336D01*
X141606952Y-107484159D01*
X141597066Y-107495066D01*
X141586159Y-107504952D01*
X141574336Y-107513720D01*
X141561710Y-107521288D01*
X141548403Y-107527582D01*
X141534543Y-107532541D01*
X141520264Y-107536118D01*
X141505703Y-107538278D01*
X141491000Y-107539000D01*
X139741000Y-107539000D01*
X139726297Y-107538278D01*
X139711736Y-107536118D01*
X139697457Y-107532541D01*
X139683597Y-107527582D01*
X139670290Y-107521288D01*
X139657664Y-107513720D01*
X139645841Y-107504952D01*
X139634934Y-107495066D01*
X139625048Y-107484159D01*
X139616280Y-107472336D01*
X139608712Y-107459710D01*
X139602418Y-107446403D01*
X139597459Y-107432543D01*
X139593882Y-107418264D01*
X139591722Y-107403703D01*
X139591000Y-107389000D01*
X139591000Y-107089000D01*
X139591722Y-107074297D01*
X139593882Y-107059736D01*
X139597459Y-107045457D01*
X139602418Y-107031597D01*
X139608712Y-107018290D01*
X139616280Y-107005664D01*
X139625048Y-106993841D01*
X139634934Y-106982934D01*
X139645841Y-106973048D01*
X139657664Y-106964280D01*
X139670290Y-106956712D01*
X139683597Y-106950418D01*
X139697457Y-106945459D01*
X139711736Y-106941882D01*
X139726297Y-106939722D01*
X139741000Y-106939000D01*
X141491000Y-106939000D01*
X141505703Y-106939722D01*
G37*
G04 #@! TD.AperFunction*
G04 #@! TA.AperFunction,SMDPad,CuDef*
G36*
X141505703Y-105669722D02*
G01*
X141520264Y-105671882D01*
X141534543Y-105675459D01*
X141548403Y-105680418D01*
X141561710Y-105686712D01*
X141574336Y-105694280D01*
X141586159Y-105703048D01*
X141597066Y-105712934D01*
X141606952Y-105723841D01*
X141615720Y-105735664D01*
X141623288Y-105748290D01*
X141629582Y-105761597D01*
X141634541Y-105775457D01*
X141638118Y-105789736D01*
X141640278Y-105804297D01*
X141641000Y-105819000D01*
X141641000Y-106119000D01*
X141640278Y-106133703D01*
X141638118Y-106148264D01*
X141634541Y-106162543D01*
X141629582Y-106176403D01*
X141623288Y-106189710D01*
X141615720Y-106202336D01*
X141606952Y-106214159D01*
X141597066Y-106225066D01*
X141586159Y-106234952D01*
X141574336Y-106243720D01*
X141561710Y-106251288D01*
X141548403Y-106257582D01*
X141534543Y-106262541D01*
X141520264Y-106266118D01*
X141505703Y-106268278D01*
X141491000Y-106269000D01*
X139741000Y-106269000D01*
X139726297Y-106268278D01*
X139711736Y-106266118D01*
X139697457Y-106262541D01*
X139683597Y-106257582D01*
X139670290Y-106251288D01*
X139657664Y-106243720D01*
X139645841Y-106234952D01*
X139634934Y-106225066D01*
X139625048Y-106214159D01*
X139616280Y-106202336D01*
X139608712Y-106189710D01*
X139602418Y-106176403D01*
X139597459Y-106162543D01*
X139593882Y-106148264D01*
X139591722Y-106133703D01*
X139591000Y-106119000D01*
X139591000Y-105819000D01*
X139591722Y-105804297D01*
X139593882Y-105789736D01*
X139597459Y-105775457D01*
X139602418Y-105761597D01*
X139608712Y-105748290D01*
X139616280Y-105735664D01*
X139625048Y-105723841D01*
X139634934Y-105712934D01*
X139645841Y-105703048D01*
X139657664Y-105694280D01*
X139670290Y-105686712D01*
X139683597Y-105680418D01*
X139697457Y-105675459D01*
X139711736Y-105671882D01*
X139726297Y-105669722D01*
X139741000Y-105669000D01*
X141491000Y-105669000D01*
X141505703Y-105669722D01*
G37*
G04 #@! TD.AperFunction*
G04 #@! TA.AperFunction,SMDPad,CuDef*
G36*
X141505703Y-104399722D02*
G01*
X141520264Y-104401882D01*
X141534543Y-104405459D01*
X141548403Y-104410418D01*
X141561710Y-104416712D01*
X141574336Y-104424280D01*
X141586159Y-104433048D01*
X141597066Y-104442934D01*
X141606952Y-104453841D01*
X141615720Y-104465664D01*
X141623288Y-104478290D01*
X141629582Y-104491597D01*
X141634541Y-104505457D01*
X141638118Y-104519736D01*
X141640278Y-104534297D01*
X141641000Y-104549000D01*
X141641000Y-104849000D01*
X141640278Y-104863703D01*
X141638118Y-104878264D01*
X141634541Y-104892543D01*
X141629582Y-104906403D01*
X141623288Y-104919710D01*
X141615720Y-104932336D01*
X141606952Y-104944159D01*
X141597066Y-104955066D01*
X141586159Y-104964952D01*
X141574336Y-104973720D01*
X141561710Y-104981288D01*
X141548403Y-104987582D01*
X141534543Y-104992541D01*
X141520264Y-104996118D01*
X141505703Y-104998278D01*
X141491000Y-104999000D01*
X139741000Y-104999000D01*
X139726297Y-104998278D01*
X139711736Y-104996118D01*
X139697457Y-104992541D01*
X139683597Y-104987582D01*
X139670290Y-104981288D01*
X139657664Y-104973720D01*
X139645841Y-104964952D01*
X139634934Y-104955066D01*
X139625048Y-104944159D01*
X139616280Y-104932336D01*
X139608712Y-104919710D01*
X139602418Y-104906403D01*
X139597459Y-104892543D01*
X139593882Y-104878264D01*
X139591722Y-104863703D01*
X139591000Y-104849000D01*
X139591000Y-104549000D01*
X139591722Y-104534297D01*
X139593882Y-104519736D01*
X139597459Y-104505457D01*
X139602418Y-104491597D01*
X139608712Y-104478290D01*
X139616280Y-104465664D01*
X139625048Y-104453841D01*
X139634934Y-104442934D01*
X139645841Y-104433048D01*
X139657664Y-104424280D01*
X139670290Y-104416712D01*
X139683597Y-104410418D01*
X139697457Y-104405459D01*
X139711736Y-104401882D01*
X139726297Y-104399722D01*
X139741000Y-104399000D01*
X141491000Y-104399000D01*
X141505703Y-104399722D01*
G37*
G04 #@! TD.AperFunction*
G04 #@! TA.AperFunction,SMDPad,CuDef*
G36*
X141505703Y-103129722D02*
G01*
X141520264Y-103131882D01*
X141534543Y-103135459D01*
X141548403Y-103140418D01*
X141561710Y-103146712D01*
X141574336Y-103154280D01*
X141586159Y-103163048D01*
X141597066Y-103172934D01*
X141606952Y-103183841D01*
X141615720Y-103195664D01*
X141623288Y-103208290D01*
X141629582Y-103221597D01*
X141634541Y-103235457D01*
X141638118Y-103249736D01*
X141640278Y-103264297D01*
X141641000Y-103279000D01*
X141641000Y-103579000D01*
X141640278Y-103593703D01*
X141638118Y-103608264D01*
X141634541Y-103622543D01*
X141629582Y-103636403D01*
X141623288Y-103649710D01*
X141615720Y-103662336D01*
X141606952Y-103674159D01*
X141597066Y-103685066D01*
X141586159Y-103694952D01*
X141574336Y-103703720D01*
X141561710Y-103711288D01*
X141548403Y-103717582D01*
X141534543Y-103722541D01*
X141520264Y-103726118D01*
X141505703Y-103728278D01*
X141491000Y-103729000D01*
X139741000Y-103729000D01*
X139726297Y-103728278D01*
X139711736Y-103726118D01*
X139697457Y-103722541D01*
X139683597Y-103717582D01*
X139670290Y-103711288D01*
X139657664Y-103703720D01*
X139645841Y-103694952D01*
X139634934Y-103685066D01*
X139625048Y-103674159D01*
X139616280Y-103662336D01*
X139608712Y-103649710D01*
X139602418Y-103636403D01*
X139597459Y-103622543D01*
X139593882Y-103608264D01*
X139591722Y-103593703D01*
X139591000Y-103579000D01*
X139591000Y-103279000D01*
X139591722Y-103264297D01*
X139593882Y-103249736D01*
X139597459Y-103235457D01*
X139602418Y-103221597D01*
X139608712Y-103208290D01*
X139616280Y-103195664D01*
X139625048Y-103183841D01*
X139634934Y-103172934D01*
X139645841Y-103163048D01*
X139657664Y-103154280D01*
X139670290Y-103146712D01*
X139683597Y-103140418D01*
X139697457Y-103135459D01*
X139711736Y-103131882D01*
X139726297Y-103129722D01*
X139741000Y-103129000D01*
X141491000Y-103129000D01*
X141505703Y-103129722D01*
G37*
G04 #@! TD.AperFunction*
G04 #@! TA.AperFunction,SMDPad,CuDef*
G36*
X132205703Y-103129722D02*
G01*
X132220264Y-103131882D01*
X132234543Y-103135459D01*
X132248403Y-103140418D01*
X132261710Y-103146712D01*
X132274336Y-103154280D01*
X132286159Y-103163048D01*
X132297066Y-103172934D01*
X132306952Y-103183841D01*
X132315720Y-103195664D01*
X132323288Y-103208290D01*
X132329582Y-103221597D01*
X132334541Y-103235457D01*
X132338118Y-103249736D01*
X132340278Y-103264297D01*
X132341000Y-103279000D01*
X132341000Y-103579000D01*
X132340278Y-103593703D01*
X132338118Y-103608264D01*
X132334541Y-103622543D01*
X132329582Y-103636403D01*
X132323288Y-103649710D01*
X132315720Y-103662336D01*
X132306952Y-103674159D01*
X132297066Y-103685066D01*
X132286159Y-103694952D01*
X132274336Y-103703720D01*
X132261710Y-103711288D01*
X132248403Y-103717582D01*
X132234543Y-103722541D01*
X132220264Y-103726118D01*
X132205703Y-103728278D01*
X132191000Y-103729000D01*
X130441000Y-103729000D01*
X130426297Y-103728278D01*
X130411736Y-103726118D01*
X130397457Y-103722541D01*
X130383597Y-103717582D01*
X130370290Y-103711288D01*
X130357664Y-103703720D01*
X130345841Y-103694952D01*
X130334934Y-103685066D01*
X130325048Y-103674159D01*
X130316280Y-103662336D01*
X130308712Y-103649710D01*
X130302418Y-103636403D01*
X130297459Y-103622543D01*
X130293882Y-103608264D01*
X130291722Y-103593703D01*
X130291000Y-103579000D01*
X130291000Y-103279000D01*
X130291722Y-103264297D01*
X130293882Y-103249736D01*
X130297459Y-103235457D01*
X130302418Y-103221597D01*
X130308712Y-103208290D01*
X130316280Y-103195664D01*
X130325048Y-103183841D01*
X130334934Y-103172934D01*
X130345841Y-103163048D01*
X130357664Y-103154280D01*
X130370290Y-103146712D01*
X130383597Y-103140418D01*
X130397457Y-103135459D01*
X130411736Y-103131882D01*
X130426297Y-103129722D01*
X130441000Y-103129000D01*
X132191000Y-103129000D01*
X132205703Y-103129722D01*
G37*
G04 #@! TD.AperFunction*
G04 #@! TA.AperFunction,SMDPad,CuDef*
G36*
X132205703Y-104399722D02*
G01*
X132220264Y-104401882D01*
X132234543Y-104405459D01*
X132248403Y-104410418D01*
X132261710Y-104416712D01*
X132274336Y-104424280D01*
X132286159Y-104433048D01*
X132297066Y-104442934D01*
X132306952Y-104453841D01*
X132315720Y-104465664D01*
X132323288Y-104478290D01*
X132329582Y-104491597D01*
X132334541Y-104505457D01*
X132338118Y-104519736D01*
X132340278Y-104534297D01*
X132341000Y-104549000D01*
X132341000Y-104849000D01*
X132340278Y-104863703D01*
X132338118Y-104878264D01*
X132334541Y-104892543D01*
X132329582Y-104906403D01*
X132323288Y-104919710D01*
X132315720Y-104932336D01*
X132306952Y-104944159D01*
X132297066Y-104955066D01*
X132286159Y-104964952D01*
X132274336Y-104973720D01*
X132261710Y-104981288D01*
X132248403Y-104987582D01*
X132234543Y-104992541D01*
X132220264Y-104996118D01*
X132205703Y-104998278D01*
X132191000Y-104999000D01*
X130441000Y-104999000D01*
X130426297Y-104998278D01*
X130411736Y-104996118D01*
X130397457Y-104992541D01*
X130383597Y-104987582D01*
X130370290Y-104981288D01*
X130357664Y-104973720D01*
X130345841Y-104964952D01*
X130334934Y-104955066D01*
X130325048Y-104944159D01*
X130316280Y-104932336D01*
X130308712Y-104919710D01*
X130302418Y-104906403D01*
X130297459Y-104892543D01*
X130293882Y-104878264D01*
X130291722Y-104863703D01*
X130291000Y-104849000D01*
X130291000Y-104549000D01*
X130291722Y-104534297D01*
X130293882Y-104519736D01*
X130297459Y-104505457D01*
X130302418Y-104491597D01*
X130308712Y-104478290D01*
X130316280Y-104465664D01*
X130325048Y-104453841D01*
X130334934Y-104442934D01*
X130345841Y-104433048D01*
X130357664Y-104424280D01*
X130370290Y-104416712D01*
X130383597Y-104410418D01*
X130397457Y-104405459D01*
X130411736Y-104401882D01*
X130426297Y-104399722D01*
X130441000Y-104399000D01*
X132191000Y-104399000D01*
X132205703Y-104399722D01*
G37*
G04 #@! TD.AperFunction*
G04 #@! TA.AperFunction,SMDPad,CuDef*
G36*
X132205703Y-105669722D02*
G01*
X132220264Y-105671882D01*
X132234543Y-105675459D01*
X132248403Y-105680418D01*
X132261710Y-105686712D01*
X132274336Y-105694280D01*
X132286159Y-105703048D01*
X132297066Y-105712934D01*
X132306952Y-105723841D01*
X132315720Y-105735664D01*
X132323288Y-105748290D01*
X132329582Y-105761597D01*
X132334541Y-105775457D01*
X132338118Y-105789736D01*
X132340278Y-105804297D01*
X132341000Y-105819000D01*
X132341000Y-106119000D01*
X132340278Y-106133703D01*
X132338118Y-106148264D01*
X132334541Y-106162543D01*
X132329582Y-106176403D01*
X132323288Y-106189710D01*
X132315720Y-106202336D01*
X132306952Y-106214159D01*
X132297066Y-106225066D01*
X132286159Y-106234952D01*
X132274336Y-106243720D01*
X132261710Y-106251288D01*
X132248403Y-106257582D01*
X132234543Y-106262541D01*
X132220264Y-106266118D01*
X132205703Y-106268278D01*
X132191000Y-106269000D01*
X130441000Y-106269000D01*
X130426297Y-106268278D01*
X130411736Y-106266118D01*
X130397457Y-106262541D01*
X130383597Y-106257582D01*
X130370290Y-106251288D01*
X130357664Y-106243720D01*
X130345841Y-106234952D01*
X130334934Y-106225066D01*
X130325048Y-106214159D01*
X130316280Y-106202336D01*
X130308712Y-106189710D01*
X130302418Y-106176403D01*
X130297459Y-106162543D01*
X130293882Y-106148264D01*
X130291722Y-106133703D01*
X130291000Y-106119000D01*
X130291000Y-105819000D01*
X130291722Y-105804297D01*
X130293882Y-105789736D01*
X130297459Y-105775457D01*
X130302418Y-105761597D01*
X130308712Y-105748290D01*
X130316280Y-105735664D01*
X130325048Y-105723841D01*
X130334934Y-105712934D01*
X130345841Y-105703048D01*
X130357664Y-105694280D01*
X130370290Y-105686712D01*
X130383597Y-105680418D01*
X130397457Y-105675459D01*
X130411736Y-105671882D01*
X130426297Y-105669722D01*
X130441000Y-105669000D01*
X132191000Y-105669000D01*
X132205703Y-105669722D01*
G37*
G04 #@! TD.AperFunction*
G04 #@! TA.AperFunction,SMDPad,CuDef*
G36*
X132205703Y-106939722D02*
G01*
X132220264Y-106941882D01*
X132234543Y-106945459D01*
X132248403Y-106950418D01*
X132261710Y-106956712D01*
X132274336Y-106964280D01*
X132286159Y-106973048D01*
X132297066Y-106982934D01*
X132306952Y-106993841D01*
X132315720Y-107005664D01*
X132323288Y-107018290D01*
X132329582Y-107031597D01*
X132334541Y-107045457D01*
X132338118Y-107059736D01*
X132340278Y-107074297D01*
X132341000Y-107089000D01*
X132341000Y-107389000D01*
X132340278Y-107403703D01*
X132338118Y-107418264D01*
X132334541Y-107432543D01*
X132329582Y-107446403D01*
X132323288Y-107459710D01*
X132315720Y-107472336D01*
X132306952Y-107484159D01*
X132297066Y-107495066D01*
X132286159Y-107504952D01*
X132274336Y-107513720D01*
X132261710Y-107521288D01*
X132248403Y-107527582D01*
X132234543Y-107532541D01*
X132220264Y-107536118D01*
X132205703Y-107538278D01*
X132191000Y-107539000D01*
X130441000Y-107539000D01*
X130426297Y-107538278D01*
X130411736Y-107536118D01*
X130397457Y-107532541D01*
X130383597Y-107527582D01*
X130370290Y-107521288D01*
X130357664Y-107513720D01*
X130345841Y-107504952D01*
X130334934Y-107495066D01*
X130325048Y-107484159D01*
X130316280Y-107472336D01*
X130308712Y-107459710D01*
X130302418Y-107446403D01*
X130297459Y-107432543D01*
X130293882Y-107418264D01*
X130291722Y-107403703D01*
X130291000Y-107389000D01*
X130291000Y-107089000D01*
X130291722Y-107074297D01*
X130293882Y-107059736D01*
X130297459Y-107045457D01*
X130302418Y-107031597D01*
X130308712Y-107018290D01*
X130316280Y-107005664D01*
X130325048Y-106993841D01*
X130334934Y-106982934D01*
X130345841Y-106973048D01*
X130357664Y-106964280D01*
X130370290Y-106956712D01*
X130383597Y-106950418D01*
X130397457Y-106945459D01*
X130411736Y-106941882D01*
X130426297Y-106939722D01*
X130441000Y-106939000D01*
X132191000Y-106939000D01*
X132205703Y-106939722D01*
G37*
G04 #@! TD.AperFunction*
G04 #@! TA.AperFunction,SMDPad,CuDef*
G36*
X132205703Y-108209722D02*
G01*
X132220264Y-108211882D01*
X132234543Y-108215459D01*
X132248403Y-108220418D01*
X132261710Y-108226712D01*
X132274336Y-108234280D01*
X132286159Y-108243048D01*
X132297066Y-108252934D01*
X132306952Y-108263841D01*
X132315720Y-108275664D01*
X132323288Y-108288290D01*
X132329582Y-108301597D01*
X132334541Y-108315457D01*
X132338118Y-108329736D01*
X132340278Y-108344297D01*
X132341000Y-108359000D01*
X132341000Y-108659000D01*
X132340278Y-108673703D01*
X132338118Y-108688264D01*
X132334541Y-108702543D01*
X132329582Y-108716403D01*
X132323288Y-108729710D01*
X132315720Y-108742336D01*
X132306952Y-108754159D01*
X132297066Y-108765066D01*
X132286159Y-108774952D01*
X132274336Y-108783720D01*
X132261710Y-108791288D01*
X132248403Y-108797582D01*
X132234543Y-108802541D01*
X132220264Y-108806118D01*
X132205703Y-108808278D01*
X132191000Y-108809000D01*
X130441000Y-108809000D01*
X130426297Y-108808278D01*
X130411736Y-108806118D01*
X130397457Y-108802541D01*
X130383597Y-108797582D01*
X130370290Y-108791288D01*
X130357664Y-108783720D01*
X130345841Y-108774952D01*
X130334934Y-108765066D01*
X130325048Y-108754159D01*
X130316280Y-108742336D01*
X130308712Y-108729710D01*
X130302418Y-108716403D01*
X130297459Y-108702543D01*
X130293882Y-108688264D01*
X130291722Y-108673703D01*
X130291000Y-108659000D01*
X130291000Y-108359000D01*
X130291722Y-108344297D01*
X130293882Y-108329736D01*
X130297459Y-108315457D01*
X130302418Y-108301597D01*
X130308712Y-108288290D01*
X130316280Y-108275664D01*
X130325048Y-108263841D01*
X130334934Y-108252934D01*
X130345841Y-108243048D01*
X130357664Y-108234280D01*
X130370290Y-108226712D01*
X130383597Y-108220418D01*
X130397457Y-108215459D01*
X130411736Y-108211882D01*
X130426297Y-108209722D01*
X130441000Y-108209000D01*
X132191000Y-108209000D01*
X132205703Y-108209722D01*
G37*
G04 #@! TD.AperFunction*
G04 #@! TA.AperFunction,SMDPad,CuDef*
G36*
X132205703Y-109479722D02*
G01*
X132220264Y-109481882D01*
X132234543Y-109485459D01*
X132248403Y-109490418D01*
X132261710Y-109496712D01*
X132274336Y-109504280D01*
X132286159Y-109513048D01*
X132297066Y-109522934D01*
X132306952Y-109533841D01*
X132315720Y-109545664D01*
X132323288Y-109558290D01*
X132329582Y-109571597D01*
X132334541Y-109585457D01*
X132338118Y-109599736D01*
X132340278Y-109614297D01*
X132341000Y-109629000D01*
X132341000Y-109929000D01*
X132340278Y-109943703D01*
X132338118Y-109958264D01*
X132334541Y-109972543D01*
X132329582Y-109986403D01*
X132323288Y-109999710D01*
X132315720Y-110012336D01*
X132306952Y-110024159D01*
X132297066Y-110035066D01*
X132286159Y-110044952D01*
X132274336Y-110053720D01*
X132261710Y-110061288D01*
X132248403Y-110067582D01*
X132234543Y-110072541D01*
X132220264Y-110076118D01*
X132205703Y-110078278D01*
X132191000Y-110079000D01*
X130441000Y-110079000D01*
X130426297Y-110078278D01*
X130411736Y-110076118D01*
X130397457Y-110072541D01*
X130383597Y-110067582D01*
X130370290Y-110061288D01*
X130357664Y-110053720D01*
X130345841Y-110044952D01*
X130334934Y-110035066D01*
X130325048Y-110024159D01*
X130316280Y-110012336D01*
X130308712Y-109999710D01*
X130302418Y-109986403D01*
X130297459Y-109972543D01*
X130293882Y-109958264D01*
X130291722Y-109943703D01*
X130291000Y-109929000D01*
X130291000Y-109629000D01*
X130291722Y-109614297D01*
X130293882Y-109599736D01*
X130297459Y-109585457D01*
X130302418Y-109571597D01*
X130308712Y-109558290D01*
X130316280Y-109545664D01*
X130325048Y-109533841D01*
X130334934Y-109522934D01*
X130345841Y-109513048D01*
X130357664Y-109504280D01*
X130370290Y-109496712D01*
X130383597Y-109490418D01*
X130397457Y-109485459D01*
X130411736Y-109481882D01*
X130426297Y-109479722D01*
X130441000Y-109479000D01*
X132191000Y-109479000D01*
X132205703Y-109479722D01*
G37*
G04 #@! TD.AperFunction*
G04 #@! TA.AperFunction,SMDPad,CuDef*
G36*
X132205703Y-110749722D02*
G01*
X132220264Y-110751882D01*
X132234543Y-110755459D01*
X132248403Y-110760418D01*
X132261710Y-110766712D01*
X132274336Y-110774280D01*
X132286159Y-110783048D01*
X132297066Y-110792934D01*
X132306952Y-110803841D01*
X132315720Y-110815664D01*
X132323288Y-110828290D01*
X132329582Y-110841597D01*
X132334541Y-110855457D01*
X132338118Y-110869736D01*
X132340278Y-110884297D01*
X132341000Y-110899000D01*
X132341000Y-111199000D01*
X132340278Y-111213703D01*
X132338118Y-111228264D01*
X132334541Y-111242543D01*
X132329582Y-111256403D01*
X132323288Y-111269710D01*
X132315720Y-111282336D01*
X132306952Y-111294159D01*
X132297066Y-111305066D01*
X132286159Y-111314952D01*
X132274336Y-111323720D01*
X132261710Y-111331288D01*
X132248403Y-111337582D01*
X132234543Y-111342541D01*
X132220264Y-111346118D01*
X132205703Y-111348278D01*
X132191000Y-111349000D01*
X130441000Y-111349000D01*
X130426297Y-111348278D01*
X130411736Y-111346118D01*
X130397457Y-111342541D01*
X130383597Y-111337582D01*
X130370290Y-111331288D01*
X130357664Y-111323720D01*
X130345841Y-111314952D01*
X130334934Y-111305066D01*
X130325048Y-111294159D01*
X130316280Y-111282336D01*
X130308712Y-111269710D01*
X130302418Y-111256403D01*
X130297459Y-111242543D01*
X130293882Y-111228264D01*
X130291722Y-111213703D01*
X130291000Y-111199000D01*
X130291000Y-110899000D01*
X130291722Y-110884297D01*
X130293882Y-110869736D01*
X130297459Y-110855457D01*
X130302418Y-110841597D01*
X130308712Y-110828290D01*
X130316280Y-110815664D01*
X130325048Y-110803841D01*
X130334934Y-110792934D01*
X130345841Y-110783048D01*
X130357664Y-110774280D01*
X130370290Y-110766712D01*
X130383597Y-110760418D01*
X130397457Y-110755459D01*
X130411736Y-110751882D01*
X130426297Y-110749722D01*
X130441000Y-110749000D01*
X132191000Y-110749000D01*
X132205703Y-110749722D01*
G37*
G04 #@! TD.AperFunction*
G04 #@! TA.AperFunction,SMDPad,CuDef*
G36*
X132205703Y-112019722D02*
G01*
X132220264Y-112021882D01*
X132234543Y-112025459D01*
X132248403Y-112030418D01*
X132261710Y-112036712D01*
X132274336Y-112044280D01*
X132286159Y-112053048D01*
X132297066Y-112062934D01*
X132306952Y-112073841D01*
X132315720Y-112085664D01*
X132323288Y-112098290D01*
X132329582Y-112111597D01*
X132334541Y-112125457D01*
X132338118Y-112139736D01*
X132340278Y-112154297D01*
X132341000Y-112169000D01*
X132341000Y-112469000D01*
X132340278Y-112483703D01*
X132338118Y-112498264D01*
X132334541Y-112512543D01*
X132329582Y-112526403D01*
X132323288Y-112539710D01*
X132315720Y-112552336D01*
X132306952Y-112564159D01*
X132297066Y-112575066D01*
X132286159Y-112584952D01*
X132274336Y-112593720D01*
X132261710Y-112601288D01*
X132248403Y-112607582D01*
X132234543Y-112612541D01*
X132220264Y-112616118D01*
X132205703Y-112618278D01*
X132191000Y-112619000D01*
X130441000Y-112619000D01*
X130426297Y-112618278D01*
X130411736Y-112616118D01*
X130397457Y-112612541D01*
X130383597Y-112607582D01*
X130370290Y-112601288D01*
X130357664Y-112593720D01*
X130345841Y-112584952D01*
X130334934Y-112575066D01*
X130325048Y-112564159D01*
X130316280Y-112552336D01*
X130308712Y-112539710D01*
X130302418Y-112526403D01*
X130297459Y-112512543D01*
X130293882Y-112498264D01*
X130291722Y-112483703D01*
X130291000Y-112469000D01*
X130291000Y-112169000D01*
X130291722Y-112154297D01*
X130293882Y-112139736D01*
X130297459Y-112125457D01*
X130302418Y-112111597D01*
X130308712Y-112098290D01*
X130316280Y-112085664D01*
X130325048Y-112073841D01*
X130334934Y-112062934D01*
X130345841Y-112053048D01*
X130357664Y-112044280D01*
X130370290Y-112036712D01*
X130383597Y-112030418D01*
X130397457Y-112025459D01*
X130411736Y-112021882D01*
X130426297Y-112019722D01*
X130441000Y-112019000D01*
X132191000Y-112019000D01*
X132205703Y-112019722D01*
G37*
G04 #@! TD.AperFunction*
G04 #@! TA.AperFunction,SMDPad,CuDef*
G36*
X132205703Y-113289722D02*
G01*
X132220264Y-113291882D01*
X132234543Y-113295459D01*
X132248403Y-113300418D01*
X132261710Y-113306712D01*
X132274336Y-113314280D01*
X132286159Y-113323048D01*
X132297066Y-113332934D01*
X132306952Y-113343841D01*
X132315720Y-113355664D01*
X132323288Y-113368290D01*
X132329582Y-113381597D01*
X132334541Y-113395457D01*
X132338118Y-113409736D01*
X132340278Y-113424297D01*
X132341000Y-113439000D01*
X132341000Y-113739000D01*
X132340278Y-113753703D01*
X132338118Y-113768264D01*
X132334541Y-113782543D01*
X132329582Y-113796403D01*
X132323288Y-113809710D01*
X132315720Y-113822336D01*
X132306952Y-113834159D01*
X132297066Y-113845066D01*
X132286159Y-113854952D01*
X132274336Y-113863720D01*
X132261710Y-113871288D01*
X132248403Y-113877582D01*
X132234543Y-113882541D01*
X132220264Y-113886118D01*
X132205703Y-113888278D01*
X132191000Y-113889000D01*
X130441000Y-113889000D01*
X130426297Y-113888278D01*
X130411736Y-113886118D01*
X130397457Y-113882541D01*
X130383597Y-113877582D01*
X130370290Y-113871288D01*
X130357664Y-113863720D01*
X130345841Y-113854952D01*
X130334934Y-113845066D01*
X130325048Y-113834159D01*
X130316280Y-113822336D01*
X130308712Y-113809710D01*
X130302418Y-113796403D01*
X130297459Y-113782543D01*
X130293882Y-113768264D01*
X130291722Y-113753703D01*
X130291000Y-113739000D01*
X130291000Y-113439000D01*
X130291722Y-113424297D01*
X130293882Y-113409736D01*
X130297459Y-113395457D01*
X130302418Y-113381597D01*
X130308712Y-113368290D01*
X130316280Y-113355664D01*
X130325048Y-113343841D01*
X130334934Y-113332934D01*
X130345841Y-113323048D01*
X130357664Y-113314280D01*
X130370290Y-113306712D01*
X130383597Y-113300418D01*
X130397457Y-113295459D01*
X130411736Y-113291882D01*
X130426297Y-113289722D01*
X130441000Y-113289000D01*
X132191000Y-113289000D01*
X132205703Y-113289722D01*
G37*
G04 #@! TD.AperFunction*
G04 #@! TA.AperFunction,SMDPad,CuDef*
G36*
X132205703Y-114559722D02*
G01*
X132220264Y-114561882D01*
X132234543Y-114565459D01*
X132248403Y-114570418D01*
X132261710Y-114576712D01*
X132274336Y-114584280D01*
X132286159Y-114593048D01*
X132297066Y-114602934D01*
X132306952Y-114613841D01*
X132315720Y-114625664D01*
X132323288Y-114638290D01*
X132329582Y-114651597D01*
X132334541Y-114665457D01*
X132338118Y-114679736D01*
X132340278Y-114694297D01*
X132341000Y-114709000D01*
X132341000Y-115009000D01*
X132340278Y-115023703D01*
X132338118Y-115038264D01*
X132334541Y-115052543D01*
X132329582Y-115066403D01*
X132323288Y-115079710D01*
X132315720Y-115092336D01*
X132306952Y-115104159D01*
X132297066Y-115115066D01*
X132286159Y-115124952D01*
X132274336Y-115133720D01*
X132261710Y-115141288D01*
X132248403Y-115147582D01*
X132234543Y-115152541D01*
X132220264Y-115156118D01*
X132205703Y-115158278D01*
X132191000Y-115159000D01*
X130441000Y-115159000D01*
X130426297Y-115158278D01*
X130411736Y-115156118D01*
X130397457Y-115152541D01*
X130383597Y-115147582D01*
X130370290Y-115141288D01*
X130357664Y-115133720D01*
X130345841Y-115124952D01*
X130334934Y-115115066D01*
X130325048Y-115104159D01*
X130316280Y-115092336D01*
X130308712Y-115079710D01*
X130302418Y-115066403D01*
X130297459Y-115052543D01*
X130293882Y-115038264D01*
X130291722Y-115023703D01*
X130291000Y-115009000D01*
X130291000Y-114709000D01*
X130291722Y-114694297D01*
X130293882Y-114679736D01*
X130297459Y-114665457D01*
X130302418Y-114651597D01*
X130308712Y-114638290D01*
X130316280Y-114625664D01*
X130325048Y-114613841D01*
X130334934Y-114602934D01*
X130345841Y-114593048D01*
X130357664Y-114584280D01*
X130370290Y-114576712D01*
X130383597Y-114570418D01*
X130397457Y-114565459D01*
X130411736Y-114561882D01*
X130426297Y-114559722D01*
X130441000Y-114559000D01*
X132191000Y-114559000D01*
X132205703Y-114559722D01*
G37*
G04 #@! TD.AperFunction*
G04 #@! TA.AperFunction,SMDPad,CuDef*
G36*
X132205703Y-115829722D02*
G01*
X132220264Y-115831882D01*
X132234543Y-115835459D01*
X132248403Y-115840418D01*
X132261710Y-115846712D01*
X132274336Y-115854280D01*
X132286159Y-115863048D01*
X132297066Y-115872934D01*
X132306952Y-115883841D01*
X132315720Y-115895664D01*
X132323288Y-115908290D01*
X132329582Y-115921597D01*
X132334541Y-115935457D01*
X132338118Y-115949736D01*
X132340278Y-115964297D01*
X132341000Y-115979000D01*
X132341000Y-116279000D01*
X132340278Y-116293703D01*
X132338118Y-116308264D01*
X132334541Y-116322543D01*
X132329582Y-116336403D01*
X132323288Y-116349710D01*
X132315720Y-116362336D01*
X132306952Y-116374159D01*
X132297066Y-116385066D01*
X132286159Y-116394952D01*
X132274336Y-116403720D01*
X132261710Y-116411288D01*
X132248403Y-116417582D01*
X132234543Y-116422541D01*
X132220264Y-116426118D01*
X132205703Y-116428278D01*
X132191000Y-116429000D01*
X130441000Y-116429000D01*
X130426297Y-116428278D01*
X130411736Y-116426118D01*
X130397457Y-116422541D01*
X130383597Y-116417582D01*
X130370290Y-116411288D01*
X130357664Y-116403720D01*
X130345841Y-116394952D01*
X130334934Y-116385066D01*
X130325048Y-116374159D01*
X130316280Y-116362336D01*
X130308712Y-116349710D01*
X130302418Y-116336403D01*
X130297459Y-116322543D01*
X130293882Y-116308264D01*
X130291722Y-116293703D01*
X130291000Y-116279000D01*
X130291000Y-115979000D01*
X130291722Y-115964297D01*
X130293882Y-115949736D01*
X130297459Y-115935457D01*
X130302418Y-115921597D01*
X130308712Y-115908290D01*
X130316280Y-115895664D01*
X130325048Y-115883841D01*
X130334934Y-115872934D01*
X130345841Y-115863048D01*
X130357664Y-115854280D01*
X130370290Y-115846712D01*
X130383597Y-115840418D01*
X130397457Y-115835459D01*
X130411736Y-115831882D01*
X130426297Y-115829722D01*
X130441000Y-115829000D01*
X132191000Y-115829000D01*
X132205703Y-115829722D01*
G37*
G04 #@! TD.AperFunction*
G04 #@! TA.AperFunction,SMDPad,CuDef*
G36*
X132205703Y-117099722D02*
G01*
X132220264Y-117101882D01*
X132234543Y-117105459D01*
X132248403Y-117110418D01*
X132261710Y-117116712D01*
X132274336Y-117124280D01*
X132286159Y-117133048D01*
X132297066Y-117142934D01*
X132306952Y-117153841D01*
X132315720Y-117165664D01*
X132323288Y-117178290D01*
X132329582Y-117191597D01*
X132334541Y-117205457D01*
X132338118Y-117219736D01*
X132340278Y-117234297D01*
X132341000Y-117249000D01*
X132341000Y-117549000D01*
X132340278Y-117563703D01*
X132338118Y-117578264D01*
X132334541Y-117592543D01*
X132329582Y-117606403D01*
X132323288Y-117619710D01*
X132315720Y-117632336D01*
X132306952Y-117644159D01*
X132297066Y-117655066D01*
X132286159Y-117664952D01*
X132274336Y-117673720D01*
X132261710Y-117681288D01*
X132248403Y-117687582D01*
X132234543Y-117692541D01*
X132220264Y-117696118D01*
X132205703Y-117698278D01*
X132191000Y-117699000D01*
X130441000Y-117699000D01*
X130426297Y-117698278D01*
X130411736Y-117696118D01*
X130397457Y-117692541D01*
X130383597Y-117687582D01*
X130370290Y-117681288D01*
X130357664Y-117673720D01*
X130345841Y-117664952D01*
X130334934Y-117655066D01*
X130325048Y-117644159D01*
X130316280Y-117632336D01*
X130308712Y-117619710D01*
X130302418Y-117606403D01*
X130297459Y-117592543D01*
X130293882Y-117578264D01*
X130291722Y-117563703D01*
X130291000Y-117549000D01*
X130291000Y-117249000D01*
X130291722Y-117234297D01*
X130293882Y-117219736D01*
X130297459Y-117205457D01*
X130302418Y-117191597D01*
X130308712Y-117178290D01*
X130316280Y-117165664D01*
X130325048Y-117153841D01*
X130334934Y-117142934D01*
X130345841Y-117133048D01*
X130357664Y-117124280D01*
X130370290Y-117116712D01*
X130383597Y-117110418D01*
X130397457Y-117105459D01*
X130411736Y-117101882D01*
X130426297Y-117099722D01*
X130441000Y-117099000D01*
X132191000Y-117099000D01*
X132205703Y-117099722D01*
G37*
G04 #@! TD.AperFunction*
G04 #@! TA.AperFunction,SMDPad,CuDef*
G36*
X138077505Y-100583204D02*
G01*
X138101773Y-100586804D01*
X138125572Y-100592765D01*
X138148671Y-100601030D01*
X138170850Y-100611520D01*
X138191893Y-100624132D01*
X138211599Y-100638747D01*
X138229777Y-100655223D01*
X138246253Y-100673401D01*
X138260868Y-100693107D01*
X138273480Y-100714150D01*
X138283970Y-100736329D01*
X138292235Y-100759428D01*
X138298196Y-100783227D01*
X138301796Y-100807495D01*
X138303000Y-100831999D01*
X138303000Y-101732001D01*
X138301796Y-101756505D01*
X138298196Y-101780773D01*
X138292235Y-101804572D01*
X138283970Y-101827671D01*
X138273480Y-101849850D01*
X138260868Y-101870893D01*
X138246253Y-101890599D01*
X138229777Y-101908777D01*
X138211599Y-101925253D01*
X138191893Y-101939868D01*
X138170850Y-101952480D01*
X138148671Y-101962970D01*
X138125572Y-101971235D01*
X138101773Y-101977196D01*
X138077505Y-101980796D01*
X138053001Y-101982000D01*
X137402999Y-101982000D01*
X137378495Y-101980796D01*
X137354227Y-101977196D01*
X137330428Y-101971235D01*
X137307329Y-101962970D01*
X137285150Y-101952480D01*
X137264107Y-101939868D01*
X137244401Y-101925253D01*
X137226223Y-101908777D01*
X137209747Y-101890599D01*
X137195132Y-101870893D01*
X137182520Y-101849850D01*
X137172030Y-101827671D01*
X137163765Y-101804572D01*
X137157804Y-101780773D01*
X137154204Y-101756505D01*
X137153000Y-101732001D01*
X137153000Y-100831999D01*
X137154204Y-100807495D01*
X137157804Y-100783227D01*
X137163765Y-100759428D01*
X137172030Y-100736329D01*
X137182520Y-100714150D01*
X137195132Y-100693107D01*
X137209747Y-100673401D01*
X137226223Y-100655223D01*
X137244401Y-100638747D01*
X137264107Y-100624132D01*
X137285150Y-100611520D01*
X137307329Y-100601030D01*
X137330428Y-100592765D01*
X137354227Y-100586804D01*
X137378495Y-100583204D01*
X137402999Y-100582000D01*
X138053001Y-100582000D01*
X138077505Y-100583204D01*
G37*
G04 #@! TD.AperFunction*
G04 #@! TA.AperFunction,SMDPad,CuDef*
G36*
X136027505Y-100583204D02*
G01*
X136051773Y-100586804D01*
X136075572Y-100592765D01*
X136098671Y-100601030D01*
X136120850Y-100611520D01*
X136141893Y-100624132D01*
X136161599Y-100638747D01*
X136179777Y-100655223D01*
X136196253Y-100673401D01*
X136210868Y-100693107D01*
X136223480Y-100714150D01*
X136233970Y-100736329D01*
X136242235Y-100759428D01*
X136248196Y-100783227D01*
X136251796Y-100807495D01*
X136253000Y-100831999D01*
X136253000Y-101732001D01*
X136251796Y-101756505D01*
X136248196Y-101780773D01*
X136242235Y-101804572D01*
X136233970Y-101827671D01*
X136223480Y-101849850D01*
X136210868Y-101870893D01*
X136196253Y-101890599D01*
X136179777Y-101908777D01*
X136161599Y-101925253D01*
X136141893Y-101939868D01*
X136120850Y-101952480D01*
X136098671Y-101962970D01*
X136075572Y-101971235D01*
X136051773Y-101977196D01*
X136027505Y-101980796D01*
X136003001Y-101982000D01*
X135352999Y-101982000D01*
X135328495Y-101980796D01*
X135304227Y-101977196D01*
X135280428Y-101971235D01*
X135257329Y-101962970D01*
X135235150Y-101952480D01*
X135214107Y-101939868D01*
X135194401Y-101925253D01*
X135176223Y-101908777D01*
X135159747Y-101890599D01*
X135145132Y-101870893D01*
X135132520Y-101849850D01*
X135122030Y-101827671D01*
X135113765Y-101804572D01*
X135107804Y-101780773D01*
X135104204Y-101756505D01*
X135103000Y-101732001D01*
X135103000Y-100831999D01*
X135104204Y-100807495D01*
X135107804Y-100783227D01*
X135113765Y-100759428D01*
X135122030Y-100736329D01*
X135132520Y-100714150D01*
X135145132Y-100693107D01*
X135159747Y-100673401D01*
X135176223Y-100655223D01*
X135194401Y-100638747D01*
X135214107Y-100624132D01*
X135235150Y-100611520D01*
X135257329Y-100601030D01*
X135280428Y-100592765D01*
X135304227Y-100586804D01*
X135328495Y-100583204D01*
X135352999Y-100582000D01*
X136003001Y-100582000D01*
X136027505Y-100583204D01*
G37*
G04 #@! TD.AperFunction*
D13*
X112649000Y-115580000D03*
X112649000Y-113040000D03*
X112649000Y-110500000D03*
X112649000Y-107960000D03*
D14*
X112649000Y-105420000D03*
D15*
X106667000Y-117500000D03*
X106667000Y-114000000D03*
X106667000Y-110500000D03*
X106667000Y-107000000D03*
D16*
X106667000Y-103500000D03*
D17*
X128873200Y-104613700D03*
X134380700Y-115601600D03*
X133035700Y-109032400D03*
X136636400Y-103529700D03*
X133108500Y-106531000D03*
X136848900Y-120384700D03*
X138764500Y-110711900D03*
X137135300Y-107805000D03*
X122111300Y-105369200D03*
X133083800Y-105339000D03*
D18*
X131316000Y-104699000D02*
X128958500Y-104699000D01*
X128958500Y-104699000D02*
X128873200Y-104613700D01*
X131316000Y-105969000D02*
X129431800Y-105969000D01*
X129431800Y-105969000D02*
X126568000Y-108832800D01*
X126568000Y-108832800D02*
X126568000Y-109375700D01*
X126568000Y-109375700D02*
X125443700Y-110500000D01*
X125443700Y-110500000D02*
X124158000Y-110500000D01*
X124158000Y-110500000D02*
X122758000Y-111900000D01*
X131316000Y-108509000D02*
X132289600Y-108509000D01*
X132289600Y-108509000D02*
X132513800Y-108284800D01*
X132513800Y-108284800D02*
X133420200Y-108284800D01*
X133420200Y-108284800D02*
X134380700Y-109245300D01*
X134380700Y-109245300D02*
X134380700Y-115601600D01*
X131316000Y-109779000D02*
X128517000Y-109779000D01*
X128517000Y-109779000D02*
X127838000Y-109100000D01*
X133035700Y-109032400D02*
X133035700Y-109811000D01*
X133035700Y-109811000D02*
X131797700Y-111049000D01*
X131797700Y-111049000D02*
X131316000Y-111049000D01*
X131316000Y-112319000D02*
X131047900Y-112319000D01*
X131047900Y-112319000D02*
X130403900Y-112963000D01*
X130403900Y-112963000D02*
X130403900Y-112963100D01*
X130403900Y-112963100D02*
X129977300Y-112963100D01*
X129977300Y-112963100D02*
X129889600Y-113050800D01*
X129889600Y-113050800D02*
X126448800Y-113050800D01*
X126448800Y-113050800D02*
X125298000Y-111900000D01*
X131316000Y-114859000D02*
X118097000Y-114859000D01*
X118097000Y-114859000D02*
X115138000Y-111900000D01*
X131316000Y-116129000D02*
X132341000Y-116129000D01*
X128209332Y-115989100D02*
X115653800Y-115989100D01*
X113289700Y-101480000D02*
X114077340Y-101480000D01*
X132341000Y-116129000D02*
X132711100Y-116499100D01*
X132711100Y-116499100D02*
X132711100Y-117700668D01*
X130558832Y-118338600D02*
X128209332Y-115989100D01*
X132711100Y-117700668D02*
X132073168Y-118338600D01*
X114077340Y-101480000D02*
X115138000Y-101480000D01*
X132073168Y-118338600D02*
X130558832Y-118338600D01*
X115653800Y-115989100D02*
X113974700Y-114310000D01*
X110197900Y-104571800D02*
X113289700Y-101480000D01*
X110197900Y-112725200D02*
X110197900Y-104571800D01*
X113974700Y-114310000D02*
X111782700Y-114310000D01*
X111782700Y-114310000D02*
X110197900Y-112725200D01*
X140616000Y-104699000D02*
X137805700Y-104699000D01*
X137805700Y-104699000D02*
X136636400Y-103529700D01*
X116600000Y-110822000D02*
X117678000Y-111900000D01*
X114515800Y-110822000D02*
X116600000Y-110822000D01*
X111697100Y-111709800D02*
X113628000Y-111709800D01*
X111000900Y-111013600D02*
X111697100Y-111709800D01*
X113628000Y-111709800D02*
X114515800Y-110822000D01*
X111000900Y-104861900D02*
X111000900Y-111013600D01*
X113087800Y-102775000D02*
X111000900Y-104861900D01*
X116383000Y-102775000D02*
X113087800Y-102775000D01*
X117678000Y-101480000D02*
X116383000Y-102775000D01*
X133580500Y-116364100D02*
X133580500Y-115355100D01*
X133580500Y-115355100D02*
X131814400Y-113589000D01*
X131814400Y-113589000D02*
X131316000Y-113589000D01*
X133580500Y-117467679D02*
X133580500Y-116364100D01*
X132125379Y-118922800D02*
X133580500Y-117467679D01*
X130506621Y-118922800D02*
X132125379Y-118922800D01*
X128119021Y-116535200D02*
X130506621Y-118922800D01*
X113604200Y-116535200D02*
X128119021Y-116535200D01*
X112649000Y-115580000D02*
X113604200Y-116535200D01*
X135445500Y-109423200D02*
X133353700Y-107331400D01*
X133353700Y-107331400D02*
X131408400Y-107331400D01*
X134816500Y-116364100D02*
X135445500Y-115735100D01*
X131408400Y-107331400D02*
X131316000Y-107239000D01*
X135445500Y-115735100D02*
X135445500Y-109423200D01*
X133580500Y-116364100D02*
X134816500Y-116364100D01*
X113824300Y-113040000D02*
X112649000Y-113040000D01*
X116151100Y-115366800D02*
X113824300Y-113040000D01*
X128487200Y-115366800D02*
X116151100Y-115366800D01*
X130519400Y-117399000D02*
X128487200Y-115366800D01*
X131316000Y-117399000D02*
X130519400Y-117399000D01*
X116457600Y-103962200D02*
X127749000Y-103962200D01*
X129171400Y-102539800D02*
X139726800Y-102539800D01*
X127749000Y-103962200D02*
X129171400Y-102539800D01*
X112302400Y-106595400D02*
X113824400Y-106595400D01*
X111451300Y-107446500D02*
X112302400Y-106595400D01*
X111451300Y-108494300D02*
X111451300Y-107446500D01*
X112281700Y-109324700D02*
X111451300Y-108494300D01*
X139726800Y-102539800D02*
X140616000Y-103429000D01*
X112649000Y-109324700D02*
X112281700Y-109324700D01*
X113824400Y-106595400D02*
X116457600Y-103962200D01*
X112649000Y-110500000D02*
X112649000Y-109324700D01*
X113824300Y-107960000D02*
X117154300Y-104630000D01*
X117154300Y-104630000D02*
X127831200Y-104630000D01*
X127831200Y-104630000D02*
X129032200Y-103429000D01*
X129032200Y-103429000D02*
X131316000Y-103429000D01*
X112649000Y-107960000D02*
X113824300Y-107960000D01*
X112649000Y-105420000D02*
X113824300Y-105420000D01*
X113824300Y-105420000D02*
X115942700Y-103301600D01*
X115942700Y-103301600D02*
X127659500Y-103301600D01*
X127659500Y-103301600D02*
X129679100Y-101282000D01*
X129679100Y-101282000D02*
X135678000Y-101282000D01*
X133353400Y-106531000D02*
X133108500Y-106531000D01*
X138404600Y-111582200D02*
X133353400Y-106531000D01*
X138920000Y-111582200D02*
X138404600Y-111582200D01*
X139453200Y-111049000D02*
X138920000Y-111582200D01*
X140616000Y-111049000D02*
X139453200Y-111049000D01*
X141180700Y-109779000D02*
X140616000Y-109779000D01*
X142062200Y-108897500D02*
X141180700Y-109779000D01*
X142062200Y-102704900D02*
X142062200Y-108897500D01*
X140639300Y-101282000D02*
X142062200Y-102704900D01*
X137728000Y-101282000D02*
X140639300Y-101282000D01*
X140616000Y-116129000D02*
X140109400Y-116129000D01*
X140109400Y-116129000D02*
X136848900Y-119389500D01*
X136848900Y-119389500D02*
X136848900Y-120384700D01*
X120218000Y-119520000D02*
X121362600Y-120664600D01*
X121362600Y-120664600D02*
X134096200Y-120664600D01*
X134096200Y-120664600D02*
X139901800Y-114859000D01*
X139901800Y-114859000D02*
X140616000Y-114859000D01*
X139844600Y-113589000D02*
X140616000Y-113589000D01*
X133405900Y-120027700D02*
X139844600Y-113589000D01*
X130027900Y-120027700D02*
X133405900Y-120027700D01*
X127767300Y-117767100D02*
X130027900Y-120027700D01*
X117831800Y-117767100D02*
X127767300Y-117767100D01*
X116213300Y-119385600D02*
X117831800Y-117767100D01*
X116213300Y-119520000D02*
X116213300Y-119385600D01*
X115138000Y-119520000D02*
X116213300Y-119520000D01*
X139973600Y-112319000D02*
X140616000Y-112319000D01*
X121576600Y-118338600D02*
X119570500Y-118338600D01*
X119570500Y-118338600D02*
X118960900Y-118948200D01*
X118351310Y-120649990D02*
X114240590Y-120649990D01*
X118960900Y-118948200D02*
X118960900Y-120040400D01*
X118960900Y-120040400D02*
X118351310Y-120649990D01*
X114240590Y-120649990D02*
X113753900Y-120163300D01*
X113753900Y-120163300D02*
X113753900Y-118668800D01*
X113753900Y-118668800D02*
X115265200Y-117157500D01*
X115265200Y-117157500D02*
X127946700Y-117157500D01*
X122758000Y-119520000D02*
X121576600Y-118338600D01*
X127946700Y-117157500D02*
X130258100Y-119468900D01*
X130258100Y-119468900D02*
X132823700Y-119468900D01*
X132823700Y-119468900D02*
X139973600Y-112319000D01*
X140616000Y-108509000D02*
X140124100Y-108509000D01*
X140124100Y-108509000D02*
X138764500Y-109868600D01*
X138764500Y-109868600D02*
X138764500Y-110711900D01*
X140616000Y-107239000D02*
X137701300Y-107239000D01*
X137701300Y-107239000D02*
X137135300Y-107805000D01*
X120218000Y-111900000D02*
X121488000Y-110630000D01*
X121488000Y-110630000D02*
X121488000Y-105992500D01*
X121488000Y-105992500D02*
X122111300Y-105369200D01*
X140616000Y-105969000D02*
X133713800Y-105969000D01*
X133713800Y-105969000D02*
X133083800Y-105339000D01*
D19*
G36*
X113980091Y-100720000D02*
G01*
X113327022Y-100720000D01*
X113289699Y-100716324D01*
X113252376Y-100720000D01*
X113252367Y-100720000D01*
X113140714Y-100730997D01*
X112997453Y-100774454D01*
X112865424Y-100845026D01*
X112865422Y-100845027D01*
X112865423Y-100845027D01*
X112778696Y-100916201D01*
X112778692Y-100916205D01*
X112749699Y-100939999D01*
X112725905Y-100968992D01*
X109686898Y-104008001D01*
X109657900Y-104031799D01*
X109634102Y-104060797D01*
X109634101Y-104060798D01*
X109562926Y-104147524D01*
X109492354Y-104279554D01*
X109448898Y-104422815D01*
X109434224Y-104571800D01*
X109437901Y-104609132D01*
X109437900Y-112687878D01*
X109434224Y-112725200D01*
X109437900Y-112762522D01*
X109437900Y-112762532D01*
X109448897Y-112874185D01*
X109479721Y-112975799D01*
X109492354Y-113017446D01*
X109562926Y-113149476D01*
X109601997Y-113197084D01*
X109657899Y-113265201D01*
X109686903Y-113289004D01*
X111218900Y-114821002D01*
X111242699Y-114850001D01*
X111326871Y-114919079D01*
X111252175Y-115075901D01*
X111207524Y-115223110D01*
X111328845Y-115453000D01*
X112522000Y-115453000D01*
X112522000Y-115433000D01*
X112776000Y-115433000D01*
X112776000Y-115453000D01*
X113969155Y-115453000D01*
X113994629Y-115404730D01*
X115025816Y-116435918D01*
X114972953Y-116451954D01*
X114840923Y-116522526D01*
X114757283Y-116591168D01*
X114725199Y-116617499D01*
X114701401Y-116646497D01*
X113242898Y-118105001D01*
X113213900Y-118128799D01*
X113190102Y-118157797D01*
X113190101Y-118157798D01*
X113118926Y-118244524D01*
X113048354Y-118376554D01*
X113026175Y-118449671D01*
X113004898Y-118519814D01*
X113004180Y-118527100D01*
X112990224Y-118668800D01*
X112993901Y-118706132D01*
X112993900Y-120125977D01*
X112990224Y-120163300D01*
X112993900Y-120200622D01*
X112993900Y-120200632D01*
X113004897Y-120312285D01*
X113013304Y-120340000D01*
X101960000Y-120340000D01*
X101960000Y-118777980D01*
X105568626Y-118777980D01*
X105688514Y-119062836D01*
X106012210Y-119223699D01*
X106361069Y-119318322D01*
X106721684Y-119343067D01*
X107080198Y-119296985D01*
X107422833Y-119181846D01*
X107645486Y-119062836D01*
X107765374Y-118777980D01*
X106667000Y-117679605D01*
X105568626Y-118777980D01*
X101960000Y-118777980D01*
X101960000Y-117554684D01*
X104823933Y-117554684D01*
X104870015Y-117913198D01*
X104985154Y-118255833D01*
X105104164Y-118478486D01*
X105389020Y-118598374D01*
X106487395Y-117500000D01*
X106846605Y-117500000D01*
X107944980Y-118598374D01*
X108229836Y-118478486D01*
X108390699Y-118154790D01*
X108485322Y-117805931D01*
X108510067Y-117445316D01*
X108463985Y-117086802D01*
X108348846Y-116744167D01*
X108229836Y-116521514D01*
X107944980Y-116401626D01*
X106846605Y-117500000D01*
X106487395Y-117500000D01*
X105389020Y-116401626D01*
X105104164Y-116521514D01*
X104943301Y-116845210D01*
X104848678Y-117194069D01*
X104823933Y-117554684D01*
X101960000Y-117554684D01*
X101960000Y-113032419D01*
X101963193Y-113000000D01*
X101950450Y-112870617D01*
X101912710Y-112746207D01*
X101851425Y-112631550D01*
X101768948Y-112531052D01*
X101668450Y-112448575D01*
X101553793Y-112387290D01*
X101429383Y-112349550D01*
X101392080Y-112345876D01*
X101300000Y-112336807D01*
X101267581Y-112340000D01*
X100660000Y-112340000D01*
X100660000Y-108660000D01*
X101267581Y-108660000D01*
X101300000Y-108663193D01*
X101332419Y-108660000D01*
X101429383Y-108650450D01*
X101553793Y-108612710D01*
X101668450Y-108551425D01*
X101768948Y-108468948D01*
X101851425Y-108368450D01*
X101912710Y-108253793D01*
X101950450Y-108129383D01*
X101963193Y-108000000D01*
X101960000Y-107967581D01*
X101960000Y-102300000D01*
X104828928Y-102300000D01*
X104828928Y-104700000D01*
X104841188Y-104824482D01*
X104877498Y-104944180D01*
X104936463Y-105054494D01*
X105015815Y-105151185D01*
X105112506Y-105230537D01*
X105222820Y-105289502D01*
X105342518Y-105325812D01*
X105467000Y-105338072D01*
X105884162Y-105338072D01*
X105797801Y-105373844D01*
X105497256Y-105574662D01*
X105241662Y-105830256D01*
X105040844Y-106130801D01*
X104902518Y-106464750D01*
X104832000Y-106819268D01*
X104832000Y-107180732D01*
X104902518Y-107535250D01*
X105040844Y-107869199D01*
X105241662Y-108169744D01*
X105497256Y-108425338D01*
X105797801Y-108626156D01*
X106096787Y-108750000D01*
X105797801Y-108873844D01*
X105497256Y-109074662D01*
X105241662Y-109330256D01*
X105040844Y-109630801D01*
X104902518Y-109964750D01*
X104832000Y-110319268D01*
X104832000Y-110680732D01*
X104902518Y-111035250D01*
X105040844Y-111369199D01*
X105241662Y-111669744D01*
X105497256Y-111925338D01*
X105797801Y-112126156D01*
X106096787Y-112250000D01*
X105797801Y-112373844D01*
X105497256Y-112574662D01*
X105241662Y-112830256D01*
X105040844Y-113130801D01*
X104902518Y-113464750D01*
X104832000Y-113819268D01*
X104832000Y-114180732D01*
X104902518Y-114535250D01*
X105040844Y-114869199D01*
X105241662Y-115169744D01*
X105497256Y-115425338D01*
X105797801Y-115626156D01*
X106104489Y-115753190D01*
X105911167Y-115818154D01*
X105688514Y-115937164D01*
X105568626Y-116222020D01*
X106667000Y-117320395D01*
X107765374Y-116222020D01*
X107645486Y-115937164D01*
X107644935Y-115936890D01*
X111207524Y-115936890D01*
X111252175Y-116084099D01*
X111377359Y-116346920D01*
X111551412Y-116580269D01*
X111767645Y-116775178D01*
X112017748Y-116924157D01*
X112292109Y-117021481D01*
X112522000Y-116900814D01*
X112522000Y-115707000D01*
X112776000Y-115707000D01*
X112776000Y-116900814D01*
X113005891Y-117021481D01*
X113280252Y-116924157D01*
X113530355Y-116775178D01*
X113746588Y-116580269D01*
X113920641Y-116346920D01*
X114045825Y-116084099D01*
X114090476Y-115936890D01*
X113969155Y-115707000D01*
X112776000Y-115707000D01*
X112522000Y-115707000D01*
X111328845Y-115707000D01*
X111207524Y-115936890D01*
X107644935Y-115936890D01*
X107321790Y-115776301D01*
X107232310Y-115752031D01*
X107536199Y-115626156D01*
X107836744Y-115425338D01*
X108092338Y-115169744D01*
X108293156Y-114869199D01*
X108431482Y-114535250D01*
X108502000Y-114180732D01*
X108502000Y-113819268D01*
X108431482Y-113464750D01*
X108293156Y-113130801D01*
X108092338Y-112830256D01*
X107836744Y-112574662D01*
X107536199Y-112373844D01*
X107237213Y-112250000D01*
X107536199Y-112126156D01*
X107836744Y-111925338D01*
X108092338Y-111669744D01*
X108293156Y-111369199D01*
X108431482Y-111035250D01*
X108502000Y-110680732D01*
X108502000Y-110319268D01*
X108431482Y-109964750D01*
X108293156Y-109630801D01*
X108092338Y-109330256D01*
X107836744Y-109074662D01*
X107536199Y-108873844D01*
X107237213Y-108750000D01*
X107536199Y-108626156D01*
X107836744Y-108425338D01*
X108092338Y-108169744D01*
X108293156Y-107869199D01*
X108431482Y-107535250D01*
X108502000Y-107180732D01*
X108502000Y-106819268D01*
X108431482Y-106464750D01*
X108293156Y-106130801D01*
X108092338Y-105830256D01*
X107836744Y-105574662D01*
X107536199Y-105373844D01*
X107449838Y-105338072D01*
X107867000Y-105338072D01*
X107991482Y-105325812D01*
X108111180Y-105289502D01*
X108221494Y-105230537D01*
X108318185Y-105151185D01*
X108397537Y-105054494D01*
X108456502Y-104944180D01*
X108492812Y-104824482D01*
X108505072Y-104700000D01*
X108505072Y-102300000D01*
X108492812Y-102175518D01*
X108456502Y-102055820D01*
X108397537Y-101945506D01*
X108318185Y-101848815D01*
X108221494Y-101769463D01*
X108111180Y-101710498D01*
X107991482Y-101674188D01*
X107867000Y-101661928D01*
X105467000Y-101661928D01*
X105342518Y-101674188D01*
X105222820Y-101710498D01*
X105112506Y-101769463D01*
X105015815Y-101848815D01*
X104936463Y-101945506D01*
X104877498Y-102055820D01*
X104841188Y-102175518D01*
X104828928Y-102300000D01*
X101960000Y-102300000D01*
X101960000Y-100660000D01*
X114020182Y-100660000D01*
X113980091Y-100720000D01*
G37*
X113980091Y-100720000D02*
X113327022Y-100720000D01*
X113289699Y-100716324D01*
X113252376Y-100720000D01*
X113252367Y-100720000D01*
X113140714Y-100730997D01*
X112997453Y-100774454D01*
X112865424Y-100845026D01*
X112865422Y-100845027D01*
X112865423Y-100845027D01*
X112778696Y-100916201D01*
X112778692Y-100916205D01*
X112749699Y-100939999D01*
X112725905Y-100968992D01*
X109686898Y-104008001D01*
X109657900Y-104031799D01*
X109634102Y-104060797D01*
X109634101Y-104060798D01*
X109562926Y-104147524D01*
X109492354Y-104279554D01*
X109448898Y-104422815D01*
X109434224Y-104571800D01*
X109437901Y-104609132D01*
X109437900Y-112687878D01*
X109434224Y-112725200D01*
X109437900Y-112762522D01*
X109437900Y-112762532D01*
X109448897Y-112874185D01*
X109479721Y-112975799D01*
X109492354Y-113017446D01*
X109562926Y-113149476D01*
X109601997Y-113197084D01*
X109657899Y-113265201D01*
X109686903Y-113289004D01*
X111218900Y-114821002D01*
X111242699Y-114850001D01*
X111326871Y-114919079D01*
X111252175Y-115075901D01*
X111207524Y-115223110D01*
X111328845Y-115453000D01*
X112522000Y-115453000D01*
X112522000Y-115433000D01*
X112776000Y-115433000D01*
X112776000Y-115453000D01*
X113969155Y-115453000D01*
X113994629Y-115404730D01*
X115025816Y-116435918D01*
X114972953Y-116451954D01*
X114840923Y-116522526D01*
X114757283Y-116591168D01*
X114725199Y-116617499D01*
X114701401Y-116646497D01*
X113242898Y-118105001D01*
X113213900Y-118128799D01*
X113190102Y-118157797D01*
X113190101Y-118157798D01*
X113118926Y-118244524D01*
X113048354Y-118376554D01*
X113026175Y-118449671D01*
X113004898Y-118519814D01*
X113004180Y-118527100D01*
X112990224Y-118668800D01*
X112993901Y-118706132D01*
X112993900Y-120125977D01*
X112990224Y-120163300D01*
X112993900Y-120200622D01*
X112993900Y-120200632D01*
X113004897Y-120312285D01*
X113013304Y-120340000D01*
X101960000Y-120340000D01*
X101960000Y-118777980D01*
X105568626Y-118777980D01*
X105688514Y-119062836D01*
X106012210Y-119223699D01*
X106361069Y-119318322D01*
X106721684Y-119343067D01*
X107080198Y-119296985D01*
X107422833Y-119181846D01*
X107645486Y-119062836D01*
X107765374Y-118777980D01*
X106667000Y-117679605D01*
X105568626Y-118777980D01*
X101960000Y-118777980D01*
X101960000Y-117554684D01*
X104823933Y-117554684D01*
X104870015Y-117913198D01*
X104985154Y-118255833D01*
X105104164Y-118478486D01*
X105389020Y-118598374D01*
X106487395Y-117500000D01*
X106846605Y-117500000D01*
X107944980Y-118598374D01*
X108229836Y-118478486D01*
X108390699Y-118154790D01*
X108485322Y-117805931D01*
X108510067Y-117445316D01*
X108463985Y-117086802D01*
X108348846Y-116744167D01*
X108229836Y-116521514D01*
X107944980Y-116401626D01*
X106846605Y-117500000D01*
X106487395Y-117500000D01*
X105389020Y-116401626D01*
X105104164Y-116521514D01*
X104943301Y-116845210D01*
X104848678Y-117194069D01*
X104823933Y-117554684D01*
X101960000Y-117554684D01*
X101960000Y-113032419D01*
X101963193Y-113000000D01*
X101950450Y-112870617D01*
X101912710Y-112746207D01*
X101851425Y-112631550D01*
X101768948Y-112531052D01*
X101668450Y-112448575D01*
X101553793Y-112387290D01*
X101429383Y-112349550D01*
X101392080Y-112345876D01*
X101300000Y-112336807D01*
X101267581Y-112340000D01*
X100660000Y-112340000D01*
X100660000Y-108660000D01*
X101267581Y-108660000D01*
X101300000Y-108663193D01*
X101332419Y-108660000D01*
X101429383Y-108650450D01*
X101553793Y-108612710D01*
X101668450Y-108551425D01*
X101768948Y-108468948D01*
X101851425Y-108368450D01*
X101912710Y-108253793D01*
X101950450Y-108129383D01*
X101963193Y-108000000D01*
X101960000Y-107967581D01*
X101960000Y-102300000D01*
X104828928Y-102300000D01*
X104828928Y-104700000D01*
X104841188Y-104824482D01*
X104877498Y-104944180D01*
X104936463Y-105054494D01*
X105015815Y-105151185D01*
X105112506Y-105230537D01*
X105222820Y-105289502D01*
X105342518Y-105325812D01*
X105467000Y-105338072D01*
X105884162Y-105338072D01*
X105797801Y-105373844D01*
X105497256Y-105574662D01*
X105241662Y-105830256D01*
X105040844Y-106130801D01*
X104902518Y-106464750D01*
X104832000Y-106819268D01*
X104832000Y-107180732D01*
X104902518Y-107535250D01*
X105040844Y-107869199D01*
X105241662Y-108169744D01*
X105497256Y-108425338D01*
X105797801Y-108626156D01*
X106096787Y-108750000D01*
X105797801Y-108873844D01*
X105497256Y-109074662D01*
X105241662Y-109330256D01*
X105040844Y-109630801D01*
X104902518Y-109964750D01*
X104832000Y-110319268D01*
X104832000Y-110680732D01*
X104902518Y-111035250D01*
X105040844Y-111369199D01*
X105241662Y-111669744D01*
X105497256Y-111925338D01*
X105797801Y-112126156D01*
X106096787Y-112250000D01*
X105797801Y-112373844D01*
X105497256Y-112574662D01*
X105241662Y-112830256D01*
X105040844Y-113130801D01*
X104902518Y-113464750D01*
X104832000Y-113819268D01*
X104832000Y-114180732D01*
X104902518Y-114535250D01*
X105040844Y-114869199D01*
X105241662Y-115169744D01*
X105497256Y-115425338D01*
X105797801Y-115626156D01*
X106104489Y-115753190D01*
X105911167Y-115818154D01*
X105688514Y-115937164D01*
X105568626Y-116222020D01*
X106667000Y-117320395D01*
X107765374Y-116222020D01*
X107645486Y-115937164D01*
X107644935Y-115936890D01*
X111207524Y-115936890D01*
X111252175Y-116084099D01*
X111377359Y-116346920D01*
X111551412Y-116580269D01*
X111767645Y-116775178D01*
X112017748Y-116924157D01*
X112292109Y-117021481D01*
X112522000Y-116900814D01*
X112522000Y-115707000D01*
X112776000Y-115707000D01*
X112776000Y-116900814D01*
X113005891Y-117021481D01*
X113280252Y-116924157D01*
X113530355Y-116775178D01*
X113746588Y-116580269D01*
X113920641Y-116346920D01*
X114045825Y-116084099D01*
X114090476Y-115936890D01*
X113969155Y-115707000D01*
X112776000Y-115707000D01*
X112522000Y-115707000D01*
X111328845Y-115707000D01*
X111207524Y-115936890D01*
X107644935Y-115936890D01*
X107321790Y-115776301D01*
X107232310Y-115752031D01*
X107536199Y-115626156D01*
X107836744Y-115425338D01*
X108092338Y-115169744D01*
X108293156Y-114869199D01*
X108431482Y-114535250D01*
X108502000Y-114180732D01*
X108502000Y-113819268D01*
X108431482Y-113464750D01*
X108293156Y-113130801D01*
X108092338Y-112830256D01*
X107836744Y-112574662D01*
X107536199Y-112373844D01*
X107237213Y-112250000D01*
X107536199Y-112126156D01*
X107836744Y-111925338D01*
X108092338Y-111669744D01*
X108293156Y-111369199D01*
X108431482Y-111035250D01*
X108502000Y-110680732D01*
X108502000Y-110319268D01*
X108431482Y-109964750D01*
X108293156Y-109630801D01*
X108092338Y-109330256D01*
X107836744Y-109074662D01*
X107536199Y-108873844D01*
X107237213Y-108750000D01*
X107536199Y-108626156D01*
X107836744Y-108425338D01*
X108092338Y-108169744D01*
X108293156Y-107869199D01*
X108431482Y-107535250D01*
X108502000Y-107180732D01*
X108502000Y-106819268D01*
X108431482Y-106464750D01*
X108293156Y-106130801D01*
X108092338Y-105830256D01*
X107836744Y-105574662D01*
X107536199Y-105373844D01*
X107449838Y-105338072D01*
X107867000Y-105338072D01*
X107991482Y-105325812D01*
X108111180Y-105289502D01*
X108221494Y-105230537D01*
X108318185Y-105151185D01*
X108397537Y-105054494D01*
X108456502Y-104944180D01*
X108492812Y-104824482D01*
X108505072Y-104700000D01*
X108505072Y-102300000D01*
X108492812Y-102175518D01*
X108456502Y-102055820D01*
X108397537Y-101945506D01*
X108318185Y-101848815D01*
X108221494Y-101769463D01*
X108111180Y-101710498D01*
X107991482Y-101674188D01*
X107867000Y-101661928D01*
X105467000Y-101661928D01*
X105342518Y-101674188D01*
X105222820Y-101710498D01*
X105112506Y-101769463D01*
X105015815Y-101848815D01*
X104936463Y-101945506D01*
X104877498Y-102055820D01*
X104841188Y-102175518D01*
X104828928Y-102300000D01*
X101960000Y-102300000D01*
X101960000Y-100660000D01*
X114020182Y-100660000D01*
X113980091Y-100720000D01*
G36*
X133620701Y-114897888D02*
G01*
X133576763Y-114941826D01*
X133463495Y-115111344D01*
X133385474Y-115299702D01*
X133345700Y-115499661D01*
X133345700Y-115703539D01*
X133385474Y-115903498D01*
X133463495Y-116091856D01*
X133576763Y-116261374D01*
X133720926Y-116405537D01*
X133890444Y-116518805D01*
X134078802Y-116596826D01*
X134278761Y-116636600D01*
X134482639Y-116636600D01*
X134605671Y-116612128D01*
X133470150Y-117747649D01*
X133471100Y-117738001D01*
X133471100Y-117737992D01*
X133474776Y-117700669D01*
X133471100Y-117663346D01*
X133471100Y-116536422D01*
X133474776Y-116499099D01*
X133471100Y-116461776D01*
X133471100Y-116461767D01*
X133460103Y-116350114D01*
X133416646Y-116206853D01*
X133346074Y-116074824D01*
X133251101Y-115959099D01*
X133222103Y-115935301D01*
X132904803Y-115618002D01*
X132881001Y-115588999D01*
X132864650Y-115575580D01*
X132846258Y-115541171D01*
X132807546Y-115494000D01*
X132846258Y-115446829D01*
X132919084Y-115310582D01*
X132963929Y-115162745D01*
X132979072Y-115009000D01*
X132979072Y-114709000D01*
X132963929Y-114555255D01*
X132919084Y-114407418D01*
X132847270Y-114273064D01*
X132871537Y-114243494D01*
X132930502Y-114133180D01*
X132966812Y-114013482D01*
X132979072Y-113889000D01*
X132976000Y-113874750D01*
X132817250Y-113716000D01*
X131443000Y-113716000D01*
X131443000Y-113736000D01*
X131189000Y-113736000D01*
X131189000Y-113716000D01*
X131169000Y-113716000D01*
X131169000Y-113462000D01*
X131189000Y-113462000D01*
X131189000Y-113442000D01*
X131443000Y-113442000D01*
X131443000Y-113462000D01*
X132817250Y-113462000D01*
X132976000Y-113303250D01*
X132979072Y-113289000D01*
X132966812Y-113164518D01*
X132930502Y-113044820D01*
X132871537Y-112934506D01*
X132847270Y-112904936D01*
X132919084Y-112770582D01*
X132963929Y-112622745D01*
X132979072Y-112469000D01*
X132979072Y-112169000D01*
X132963929Y-112015255D01*
X132919084Y-111867418D01*
X132846258Y-111731171D01*
X132807546Y-111684000D01*
X132846258Y-111636829D01*
X132919084Y-111500582D01*
X132963929Y-111352745D01*
X132979072Y-111199000D01*
X132979072Y-110942430D01*
X133546708Y-110374795D01*
X133575701Y-110351001D01*
X133599495Y-110322008D01*
X133599499Y-110322004D01*
X133620700Y-110296170D01*
X133620701Y-114897888D01*
G37*
X133620701Y-114897888D02*
X133576763Y-114941826D01*
X133463495Y-115111344D01*
X133385474Y-115299702D01*
X133345700Y-115499661D01*
X133345700Y-115703539D01*
X133385474Y-115903498D01*
X133463495Y-116091856D01*
X133576763Y-116261374D01*
X133720926Y-116405537D01*
X133890444Y-116518805D01*
X134078802Y-116596826D01*
X134278761Y-116636600D01*
X134482639Y-116636600D01*
X134605671Y-116612128D01*
X133470150Y-117747649D01*
X133471100Y-117738001D01*
X133471100Y-117737992D01*
X133474776Y-117700669D01*
X133471100Y-117663346D01*
X133471100Y-116536422D01*
X133474776Y-116499099D01*
X133471100Y-116461776D01*
X133471100Y-116461767D01*
X133460103Y-116350114D01*
X133416646Y-116206853D01*
X133346074Y-116074824D01*
X133251101Y-115959099D01*
X133222103Y-115935301D01*
X132904803Y-115618002D01*
X132881001Y-115588999D01*
X132864650Y-115575580D01*
X132846258Y-115541171D01*
X132807546Y-115494000D01*
X132846258Y-115446829D01*
X132919084Y-115310582D01*
X132963929Y-115162745D01*
X132979072Y-115009000D01*
X132979072Y-114709000D01*
X132963929Y-114555255D01*
X132919084Y-114407418D01*
X132847270Y-114273064D01*
X132871537Y-114243494D01*
X132930502Y-114133180D01*
X132966812Y-114013482D01*
X132979072Y-113889000D01*
X132976000Y-113874750D01*
X132817250Y-113716000D01*
X131443000Y-113716000D01*
X131443000Y-113736000D01*
X131189000Y-113736000D01*
X131189000Y-113716000D01*
X131169000Y-113716000D01*
X131169000Y-113462000D01*
X131189000Y-113462000D01*
X131189000Y-113442000D01*
X131443000Y-113442000D01*
X131443000Y-113462000D01*
X132817250Y-113462000D01*
X132976000Y-113303250D01*
X132979072Y-113289000D01*
X132966812Y-113164518D01*
X132930502Y-113044820D01*
X132871537Y-112934506D01*
X132847270Y-112904936D01*
X132919084Y-112770582D01*
X132963929Y-112622745D01*
X132979072Y-112469000D01*
X132979072Y-112169000D01*
X132963929Y-112015255D01*
X132919084Y-111867418D01*
X132846258Y-111731171D01*
X132807546Y-111684000D01*
X132846258Y-111636829D01*
X132919084Y-111500582D01*
X132963929Y-111352745D01*
X132979072Y-111199000D01*
X132979072Y-110942430D01*
X133546708Y-110374795D01*
X133575701Y-110351001D01*
X133599495Y-110322008D01*
X133599499Y-110322004D01*
X133620700Y-110296170D01*
X133620701Y-114897888D01*
G36*
X137840801Y-112093203D02*
G01*
X137864599Y-112122201D01*
X137893597Y-112145999D01*
X137980324Y-112217174D01*
X138112353Y-112287746D01*
X138255614Y-112331203D01*
X138404600Y-112345877D01*
X138441933Y-112342200D01*
X138875598Y-112342200D01*
X135391228Y-115826571D01*
X135415700Y-115703539D01*
X135415700Y-115499661D01*
X135375926Y-115299702D01*
X135297905Y-115111344D01*
X135184637Y-114941826D01*
X135140700Y-114897889D01*
X135140700Y-109393101D01*
X137840801Y-112093203D01*
G37*
X137840801Y-112093203D02*
X137864599Y-112122201D01*
X137893597Y-112145999D01*
X137980324Y-112217174D01*
X138112353Y-112287746D01*
X138255614Y-112331203D01*
X138404600Y-112345877D01*
X138441933Y-112342200D01*
X138875598Y-112342200D01*
X135391228Y-115826571D01*
X135415700Y-115703539D01*
X135415700Y-115499661D01*
X135375926Y-115299702D01*
X135297905Y-115111344D01*
X135184637Y-114941826D01*
X135140700Y-114897889D01*
X135140700Y-109393101D01*
X137840801Y-112093203D01*
G36*
X129665188Y-106814518D02*
G01*
X129652928Y-106939000D01*
X129656000Y-106953250D01*
X129814750Y-107112000D01*
X131189000Y-107112000D01*
X131189000Y-107092000D01*
X131443000Y-107092000D01*
X131443000Y-107112000D01*
X131463000Y-107112000D01*
X131463000Y-107366000D01*
X131443000Y-107366000D01*
X131443000Y-107386000D01*
X131189000Y-107386000D01*
X131189000Y-107366000D01*
X129814750Y-107366000D01*
X129656000Y-107524750D01*
X129652928Y-107539000D01*
X129665188Y-107663482D01*
X129701498Y-107783180D01*
X129760463Y-107893494D01*
X129784730Y-107923064D01*
X129712916Y-108057418D01*
X129668071Y-108205255D01*
X129652928Y-108359000D01*
X129652928Y-108659000D01*
X129668071Y-108812745D01*
X129712916Y-108960582D01*
X129744141Y-109019000D01*
X129223000Y-109019000D01*
X129223000Y-108963589D01*
X129169775Y-108696011D01*
X129065371Y-108443957D01*
X128913799Y-108217114D01*
X128720886Y-108024201D01*
X128559341Y-107916260D01*
X129666975Y-106808627D01*
X129665188Y-106814518D01*
G37*
X129665188Y-106814518D02*
X129652928Y-106939000D01*
X129656000Y-106953250D01*
X129814750Y-107112000D01*
X131189000Y-107112000D01*
X131189000Y-107092000D01*
X131443000Y-107092000D01*
X131443000Y-107112000D01*
X131463000Y-107112000D01*
X131463000Y-107366000D01*
X131443000Y-107366000D01*
X131443000Y-107386000D01*
X131189000Y-107386000D01*
X131189000Y-107366000D01*
X129814750Y-107366000D01*
X129656000Y-107524750D01*
X129652928Y-107539000D01*
X129665188Y-107663482D01*
X129701498Y-107783180D01*
X129760463Y-107893494D01*
X129784730Y-107923064D01*
X129712916Y-108057418D01*
X129668071Y-108205255D01*
X129652928Y-108359000D01*
X129652928Y-108659000D01*
X129668071Y-108812745D01*
X129712916Y-108960582D01*
X129744141Y-109019000D01*
X129223000Y-109019000D01*
X129223000Y-108963589D01*
X129169775Y-108696011D01*
X129065371Y-108443957D01*
X128913799Y-108217114D01*
X128720886Y-108024201D01*
X128559341Y-107916260D01*
X129666975Y-106808627D01*
X129665188Y-106814518D01*
M02*
