M48
; DRILL file {KiCad 5.1.5+dfsg1-2build2} date mar 16 nov 2021 18:40:44
; FORMAT={-:-/ absolute / metric / decimal}
; #@! TF.CreationDate,2021-11-16T18:40:44-05:00
; #@! TF.GenerationSoftware,Kicad,Pcbnew,5.1.5+dfsg1-2build2
; #@! TF.FileFunction,Plated,1,2,PTH
FMAT,2
METRIC
T1C0.400
T2C1.000
T3C1.200
%
G90
G05
T1
X122.111Y-105.369
X128.873Y-104.614
X133.036Y-109.032
X133.084Y-105.339
X133.108Y-106.531
X134.381Y-115.602
X136.636Y-103.53
X136.849Y-120.385
X137.135Y-107.805
X138.764Y-110.712
T2
X115.138Y-101.48
X115.138Y-109.1
X117.678Y-101.48
X117.678Y-109.1
X120.218Y-101.48
X120.218Y-109.1
X122.758Y-101.48
X122.758Y-109.1
X125.298Y-101.48
X125.298Y-109.1
X127.838Y-101.48
X127.838Y-109.1
X115.138Y-111.9
X115.138Y-119.52
X117.678Y-111.9
X117.678Y-119.52
X120.218Y-111.9
X120.218Y-119.52
X122.758Y-111.9
X122.758Y-119.52
X125.298Y-111.9
X125.298Y-119.52
X127.838Y-111.9
X127.838Y-119.52
X112.649Y-105.42
X112.649Y-107.96
X112.649Y-110.5
X112.649Y-113.04
X112.649Y-115.58
T3
X106.667Y-103.5
X106.667Y-107.0
X106.667Y-110.5
X106.667Y-114.0
X106.667Y-117.5
T0
M30
