G04 #@! TF.GenerationSoftware,KiCad,Pcbnew,5.1.5+dfsg1-2build2*
G04 #@! TF.CreationDate,2021-11-16T18:40:55-05:00*
G04 #@! TF.ProjectId,028INCH_8DIGIT,30323849-4e43-4485-9f38-44494749542e,rev?*
G04 #@! TF.SameCoordinates,Original*
G04 #@! TF.FileFunction,Legend,Bot*
G04 #@! TF.FilePolarity,Positive*
%FSLAX46Y46*%
G04 Gerber Fmt 4.6, Leading zero omitted, Abs format (unit mm)*
G04 Created by KiCad (PCBNEW 5.1.5+dfsg1-2build2) date 2021-11-16 18:40:55*
%MOMM*%
%LPD*%
G04 APERTURE LIST*
%ADD10C,0.250000*%
%ADD11C,0.150000*%
%ADD12C,0.120000*%
G04 APERTURE END LIST*
D10*
X102344528Y-103475709D02*
X102344528Y-104237614D01*
X102725480Y-103856661D02*
X101963576Y-103856661D01*
X102725480Y-107475709D02*
X102725480Y-106999519D01*
X101725480Y-106999519D01*
X102630242Y-110666185D02*
X102677861Y-110618566D01*
X102725480Y-110475709D01*
X102725480Y-110380471D01*
X102677861Y-110237614D01*
X102582623Y-110142376D01*
X102487385Y-110094757D01*
X102296909Y-110047138D01*
X102154052Y-110047138D01*
X101963576Y-110094757D01*
X101868338Y-110142376D01*
X101773100Y-110237614D01*
X101725480Y-110380471D01*
X101725480Y-110475709D01*
X101773100Y-110618566D01*
X101820719Y-110666185D01*
X102725480Y-113380471D02*
X101725480Y-113380471D01*
X101725480Y-113618566D01*
X101773100Y-113761423D01*
X101868338Y-113856661D01*
X101963576Y-113904280D01*
X102154052Y-113951900D01*
X102296909Y-113951900D01*
X102487385Y-113904280D01*
X102582623Y-113856661D01*
X102677861Y-113761423D01*
X102725480Y-113618566D01*
X102725480Y-113380471D01*
X102344528Y-116666185D02*
X102344528Y-117428090D01*
D11*
X109800638Y-100137980D02*
X109705400Y-100137980D01*
X109610161Y-100185600D01*
X109562542Y-100233219D01*
X109514923Y-100328457D01*
X109467304Y-100518933D01*
X109467304Y-100757028D01*
X109514923Y-100947504D01*
X109562542Y-101042742D01*
X109610161Y-101090361D01*
X109705400Y-101137980D01*
X109800638Y-101137980D01*
X109895876Y-101090361D01*
X109943495Y-101042742D01*
X109991114Y-100947504D01*
X110038733Y-100757028D01*
X110038733Y-100518933D01*
X109991114Y-100328457D01*
X109943495Y-100233219D01*
X109895876Y-100185600D01*
X109800638Y-100137980D01*
X109086352Y-100233219D02*
X109038733Y-100185600D01*
X108943495Y-100137980D01*
X108705400Y-100137980D01*
X108610161Y-100185600D01*
X108562542Y-100233219D01*
X108514923Y-100328457D01*
X108514923Y-100423695D01*
X108562542Y-100566552D01*
X109133971Y-101137980D01*
X108514923Y-101137980D01*
X107943495Y-100566552D02*
X108038733Y-100518933D01*
X108086352Y-100471314D01*
X108133971Y-100376076D01*
X108133971Y-100328457D01*
X108086352Y-100233219D01*
X108038733Y-100185600D01*
X107943495Y-100137980D01*
X107753019Y-100137980D01*
X107657780Y-100185600D01*
X107610161Y-100233219D01*
X107562542Y-100328457D01*
X107562542Y-100376076D01*
X107610161Y-100471314D01*
X107657780Y-100518933D01*
X107753019Y-100566552D01*
X107943495Y-100566552D01*
X108038733Y-100614171D01*
X108086352Y-100661790D01*
X108133971Y-100757028D01*
X108133971Y-100947504D01*
X108086352Y-101042742D01*
X108038733Y-101090361D01*
X107943495Y-101137980D01*
X107753019Y-101137980D01*
X107657780Y-101090361D01*
X107610161Y-101042742D01*
X107562542Y-100947504D01*
X107562542Y-100757028D01*
X107610161Y-100661790D01*
X107657780Y-100614171D01*
X107753019Y-100566552D01*
X107372066Y-101233219D02*
X106610161Y-101233219D01*
X106229209Y-100566552D02*
X106324447Y-100518933D01*
X106372066Y-100471314D01*
X106419685Y-100376076D01*
X106419685Y-100328457D01*
X106372066Y-100233219D01*
X106324447Y-100185600D01*
X106229209Y-100137980D01*
X106038733Y-100137980D01*
X105943495Y-100185600D01*
X105895876Y-100233219D01*
X105848257Y-100328457D01*
X105848257Y-100376076D01*
X105895876Y-100471314D01*
X105943495Y-100518933D01*
X106038733Y-100566552D01*
X106229209Y-100566552D01*
X106324447Y-100614171D01*
X106372066Y-100661790D01*
X106419685Y-100757028D01*
X106419685Y-100947504D01*
X106372066Y-101042742D01*
X106324447Y-101090361D01*
X106229209Y-101137980D01*
X106038733Y-101137980D01*
X105943495Y-101090361D01*
X105895876Y-101042742D01*
X105848257Y-100947504D01*
X105848257Y-100757028D01*
X105895876Y-100661790D01*
X105943495Y-100614171D01*
X106038733Y-100566552D01*
X105419685Y-101137980D02*
X105419685Y-100137980D01*
X105181590Y-100137980D01*
X105038733Y-100185600D01*
X104943495Y-100280838D01*
X104895876Y-100376076D01*
X104848257Y-100566552D01*
X104848257Y-100709409D01*
X104895876Y-100899885D01*
X104943495Y-100995123D01*
X105038733Y-101090361D01*
X105181590Y-101137980D01*
X105419685Y-101137980D01*
X104419685Y-101137980D02*
X104419685Y-100137980D01*
X103419685Y-100185600D02*
X103514923Y-100137980D01*
X103657780Y-100137980D01*
X103800638Y-100185600D01*
X103895876Y-100280838D01*
X103943495Y-100376076D01*
X103991114Y-100566552D01*
X103991114Y-100709409D01*
X103943495Y-100899885D01*
X103895876Y-100995123D01*
X103800638Y-101090361D01*
X103657780Y-101137980D01*
X103562542Y-101137980D01*
X103419685Y-101090361D01*
X103372066Y-101042742D01*
X103372066Y-100709409D01*
X103562542Y-100709409D01*
D12*
X132106000Y-117959000D02*
X130291000Y-117959000D01*
X132106000Y-118224000D02*
X132106000Y-117959000D01*
X135966000Y-118224000D02*
X132106000Y-118224000D01*
X139826000Y-118224000D02*
X139826000Y-117959000D01*
X135966000Y-118224000D02*
X139826000Y-118224000D01*
X132106000Y-102604000D02*
X132106000Y-102869000D01*
X135966000Y-102604000D02*
X132106000Y-102604000D01*
X139826000Y-102604000D02*
X139826000Y-102869000D01*
X135966000Y-102604000D02*
X139826000Y-102604000D01*
X136441748Y-100572000D02*
X136964252Y-100572000D01*
X136441748Y-101992000D02*
X136964252Y-101992000D01*
X113979000Y-104090000D02*
X112649000Y-104090000D01*
X113979000Y-105420000D02*
X113979000Y-104090000D01*
X113979000Y-106690000D02*
X111319000Y-106690000D01*
X111319000Y-106690000D02*
X111319000Y-116910000D01*
X113979000Y-106690000D02*
X113979000Y-116910000D01*
X113979000Y-116910000D02*
X111319000Y-116910000D01*
X110567000Y-101100000D02*
X110567000Y-102600000D01*
X108827000Y-101100000D02*
X110567000Y-101100000D01*
X103207000Y-119660000D02*
X110327000Y-119660000D01*
X103207000Y-101340000D02*
X110327000Y-101340000D01*
X110327000Y-101340000D02*
X110327000Y-119660000D01*
X103207000Y-101340000D02*
X103207000Y-119660000D01*
X108767000Y-101340000D02*
X108767000Y-119660000D01*
X108222000Y-117500000D02*
G75*
G03X108222000Y-117500000I-1555000J0D01*
G01*
X108222000Y-114000000D02*
G75*
G03X108222000Y-114000000I-1555000J0D01*
G01*
X108222000Y-110500000D02*
G75*
G03X108222000Y-110500000I-1555000J0D01*
G01*
X108222000Y-107000000D02*
G75*
G03X108222000Y-107000000I-1555000J0D01*
G01*
X108222492Y-103527011D02*
G75*
G03X108099000Y-102892000I-1555492J27011D01*
G01*
X107274742Y-102067891D02*
G75*
G03X106059000Y-102068000I-607742J-1432109D01*
G01*
X105234891Y-102892258D02*
G75*
G03X105235000Y-104108000I1432109J-607742D01*
G01*
X106059258Y-104932109D02*
G75*
G03X107275000Y-104932000I607742J1432109D01*
G01*
X108098385Y-104107587D02*
G75*
G03X108222000Y-103500000I-1431385J607587D01*
G01*
D11*
X136727904Y-118516380D02*
X136727904Y-119325904D01*
X136680285Y-119421142D01*
X136632666Y-119468761D01*
X136537428Y-119516380D01*
X136346952Y-119516380D01*
X136251714Y-119468761D01*
X136204095Y-119421142D01*
X136156476Y-119325904D01*
X136156476Y-118516380D01*
X135156476Y-119516380D02*
X135727904Y-119516380D01*
X135442190Y-119516380D02*
X135442190Y-118516380D01*
X135537428Y-118659238D01*
X135632666Y-118754476D01*
X135727904Y-118802095D01*
X133656366Y-101785680D02*
X133989700Y-101309490D01*
X134227795Y-101785680D02*
X134227795Y-100785680D01*
X133846842Y-100785680D01*
X133751604Y-100833300D01*
X133703985Y-100880919D01*
X133656366Y-100976157D01*
X133656366Y-101119014D01*
X133703985Y-101214252D01*
X133751604Y-101261871D01*
X133846842Y-101309490D01*
X134227795Y-101309490D01*
X132703985Y-101785680D02*
X133275414Y-101785680D01*
X132989700Y-101785680D02*
X132989700Y-100785680D01*
X133084938Y-100928538D01*
X133180176Y-101023776D01*
X133275414Y-101071395D01*
X112931533Y-117638580D02*
X112931533Y-118352866D01*
X112979152Y-118495723D01*
X113074390Y-118590961D01*
X113217247Y-118638580D01*
X113312485Y-118638580D01*
X112502961Y-117733819D02*
X112455342Y-117686200D01*
X112360104Y-117638580D01*
X112122009Y-117638580D01*
X112026771Y-117686200D01*
X111979152Y-117733819D01*
X111931533Y-117829057D01*
X111931533Y-117924295D01*
X111979152Y-118067152D01*
X112550580Y-118638580D01*
X111931533Y-118638580D01*
X102758833Y-119683280D02*
X102758833Y-120397566D01*
X102806452Y-120540423D01*
X102901690Y-120635661D01*
X103044547Y-120683280D01*
X103139785Y-120683280D01*
X101758833Y-120683280D02*
X102330261Y-120683280D01*
X102044547Y-120683280D02*
X102044547Y-119683280D01*
X102139785Y-119826138D01*
X102235023Y-119921376D01*
X102330261Y-119968995D01*
M02*
