M48
; DRILL file {KiCad 5.1.5+dfsg1-2build2} date mar 16 nov 2021 18:46:40
; FORMAT={-:-/ absolute / metric / decimal}
; #@! TF.CreationDate,2021-11-16T18:46:40-05:00
; #@! TF.GenerationSoftware,Kicad,Pcbnew,5.1.5+dfsg1-2build2
; #@! TF.FileFunction,Plated,1,2,PTH
FMAT,2
METRIC
T1C0.400
T2C1.000
T3C1.200
%
G90
G05
T1
X126.493Y-51.712
X126.493Y-72.712
X126.493Y-93.712
X126.493Y-114.712
X133.255Y-50.956
X133.255Y-71.956
X133.255Y-92.956
X133.255Y-113.956
X137.417Y-55.375
X137.417Y-76.375
X137.417Y-97.375
X137.417Y-118.375
X137.465Y-51.681
X137.465Y-72.681
X137.465Y-93.681
X137.465Y-114.681
X137.49Y-52.873
X137.49Y-73.873
X137.49Y-94.873
X137.49Y-115.873
X138.762Y-61.944
X138.762Y-82.944
X138.762Y-103.944
X138.762Y-124.944
X141.018Y-49.872
X141.018Y-70.872
X141.018Y-91.872
X141.018Y-112.872
X141.23Y-66.727
X141.23Y-87.727
X141.23Y-108.727
X141.23Y-129.727
X141.517Y-54.148
X141.517Y-75.147
X141.517Y-96.147
X141.517Y-117.147
X143.146Y-57.054
X143.146Y-78.054
X143.146Y-99.054
X143.146Y-120.054
X170.293Y-51.712
X170.293Y-72.712
X170.293Y-93.712
X170.293Y-114.712
X177.055Y-50.956
X177.055Y-71.956
X177.055Y-92.956
X177.055Y-113.956
X181.217Y-55.375
X181.217Y-76.375
X181.217Y-97.375
X181.217Y-118.375
X181.265Y-51.681
X181.265Y-72.681
X181.265Y-93.681
X181.265Y-114.681
X181.29Y-52.873
X181.29Y-73.873
X181.29Y-94.873
X181.29Y-115.873
X182.562Y-61.944
X182.562Y-82.944
X182.562Y-103.944
X182.562Y-124.944
X184.818Y-49.872
X184.818Y-70.872
X184.818Y-91.872
X184.818Y-112.872
X185.03Y-66.727
X185.03Y-87.727
X185.03Y-108.727
X185.03Y-129.727
X185.317Y-54.148
X185.317Y-75.147
X185.317Y-96.147
X185.317Y-117.147
X186.946Y-57.054
X186.946Y-78.054
X186.946Y-99.054
X186.946Y-120.054
T2
X119.519Y-79.242
X119.519Y-86.862
X122.059Y-79.242
X122.059Y-86.862
X124.599Y-79.242
X124.599Y-86.862
X127.139Y-79.242
X127.139Y-86.862
X129.679Y-79.242
X129.679Y-86.862
X132.219Y-79.242
X132.219Y-86.862
X163.32Y-110.822
X163.32Y-118.442
X165.859Y-110.822
X165.859Y-118.442
X168.399Y-110.822
X168.399Y-118.442
X170.939Y-110.822
X170.939Y-118.442
X173.48Y-110.822
X173.48Y-118.442
X176.019Y-110.822
X176.019Y-118.442
X163.32Y-121.242
X163.32Y-128.862
X165.859Y-121.242
X165.859Y-128.862
X168.399Y-121.242
X168.399Y-128.862
X170.939Y-121.242
X170.939Y-128.862
X173.48Y-121.242
X173.48Y-128.862
X176.019Y-121.242
X176.019Y-128.862
X160.831Y-51.762
X160.831Y-54.302
X160.831Y-56.842
X160.831Y-59.383
X160.831Y-61.922
X117.03Y-51.762
X117.03Y-54.302
X117.03Y-56.842
X117.03Y-59.383
X117.03Y-61.922
X119.519Y-89.822
X119.519Y-97.442
X122.059Y-89.822
X122.059Y-97.442
X124.599Y-89.822
X124.599Y-97.442
X127.139Y-89.822
X127.139Y-97.442
X129.679Y-89.822
X129.679Y-97.442
X132.219Y-89.822
X132.219Y-97.442
X119.519Y-100.242
X119.519Y-107.862
X122.059Y-100.242
X122.059Y-107.862
X124.599Y-100.242
X124.599Y-107.862
X127.139Y-100.242
X127.139Y-107.862
X129.679Y-100.242
X129.679Y-107.862
X132.219Y-100.242
X132.219Y-107.862
X117.03Y-72.763
X117.03Y-75.302
X117.03Y-77.843
X117.03Y-80.382
X117.03Y-82.922
X163.32Y-47.822
X163.32Y-55.442
X165.859Y-47.822
X165.859Y-55.442
X168.399Y-47.822
X168.399Y-55.442
X170.939Y-47.822
X170.939Y-55.442
X173.48Y-47.822
X173.48Y-55.442
X176.019Y-47.822
X176.019Y-55.442
X163.32Y-58.242
X163.32Y-65.862
X165.859Y-58.242
X165.859Y-65.862
X168.399Y-58.242
X168.399Y-65.862
X170.939Y-58.242
X170.939Y-65.862
X173.48Y-58.242
X173.48Y-65.862
X176.019Y-58.242
X176.019Y-65.862
X160.831Y-93.763
X160.831Y-96.302
X160.831Y-98.843
X160.831Y-101.382
X160.831Y-103.922
X160.831Y-114.762
X160.831Y-117.302
X160.831Y-119.843
X160.831Y-122.382
X160.831Y-124.922
X119.519Y-110.822
X119.519Y-118.442
X122.059Y-110.822
X122.059Y-118.442
X124.599Y-110.822
X124.599Y-118.442
X127.139Y-110.822
X127.139Y-118.442
X129.679Y-110.822
X129.679Y-118.442
X132.219Y-110.822
X132.219Y-118.442
X119.519Y-121.242
X119.519Y-128.862
X122.059Y-121.242
X122.059Y-128.862
X124.599Y-121.242
X124.599Y-128.862
X127.139Y-121.242
X127.139Y-128.862
X129.679Y-121.242
X129.679Y-128.862
X132.219Y-121.242
X132.219Y-128.862
X163.32Y-68.822
X163.32Y-76.442
X165.859Y-68.822
X165.859Y-76.442
X168.399Y-68.822
X168.399Y-76.442
X170.939Y-68.822
X170.939Y-76.442
X173.48Y-68.822
X173.48Y-76.442
X176.019Y-68.822
X176.019Y-76.442
X163.32Y-79.242
X163.32Y-86.862
X165.859Y-79.242
X165.859Y-86.862
X168.399Y-79.242
X168.399Y-86.862
X170.939Y-79.242
X170.939Y-86.862
X173.48Y-79.242
X173.48Y-86.862
X176.019Y-79.242
X176.019Y-86.862
X117.03Y-114.762
X117.03Y-117.302
X117.03Y-119.843
X117.03Y-122.382
X117.03Y-124.922
X119.519Y-58.242
X119.519Y-65.862
X122.059Y-58.242
X122.059Y-65.862
X124.599Y-58.242
X124.599Y-65.862
X127.139Y-58.242
X127.139Y-65.862
X129.679Y-58.242
X129.679Y-65.862
X132.219Y-58.242
X132.219Y-65.862
X119.519Y-47.822
X119.519Y-55.442
X122.059Y-47.822
X122.059Y-55.442
X124.599Y-47.822
X124.599Y-55.442
X127.139Y-47.822
X127.139Y-55.442
X129.679Y-47.822
X129.679Y-55.442
X132.219Y-47.822
X132.219Y-55.442
X163.32Y-89.822
X163.32Y-97.442
X165.859Y-89.822
X165.859Y-97.442
X168.399Y-89.822
X168.399Y-97.442
X170.939Y-89.822
X170.939Y-97.442
X173.48Y-89.822
X173.48Y-97.442
X176.019Y-89.822
X176.019Y-97.442
X117.03Y-93.763
X117.03Y-96.302
X117.03Y-98.843
X117.03Y-101.382
X117.03Y-103.922
X163.32Y-100.242
X163.32Y-107.862
X165.859Y-100.242
X165.859Y-107.862
X168.399Y-100.242
X168.399Y-107.862
X170.939Y-100.242
X170.939Y-107.862
X173.48Y-100.242
X173.48Y-107.862
X176.019Y-100.242
X176.019Y-107.862
X160.831Y-72.763
X160.831Y-75.302
X160.831Y-77.843
X160.831Y-80.382
X160.831Y-82.922
X119.519Y-68.822
X119.519Y-76.442
X122.059Y-68.822
X122.059Y-76.442
X124.599Y-68.822
X124.599Y-76.442
X127.139Y-68.822
X127.139Y-76.442
X129.679Y-68.822
X129.679Y-76.442
X132.219Y-68.822
X132.219Y-76.442
T3
X154.849Y-91.843
X154.849Y-95.343
X154.849Y-98.843
X154.849Y-102.343
X154.849Y-105.843
X154.849Y-49.843
X154.849Y-53.343
X154.849Y-56.842
X154.849Y-60.342
X154.849Y-63.842
X154.849Y-112.843
X154.849Y-116.343
X154.849Y-119.843
X154.849Y-123.343
X154.849Y-126.843
X111.048Y-49.843
X111.048Y-53.343
X111.048Y-56.842
X111.048Y-60.342
X111.048Y-63.842
X111.048Y-91.843
X111.048Y-95.343
X111.048Y-98.843
X111.048Y-102.343
X111.048Y-105.843
X111.048Y-70.843
X111.048Y-74.343
X111.048Y-77.843
X111.048Y-81.343
X111.048Y-84.843
X111.048Y-112.843
X111.048Y-116.343
X111.048Y-119.843
X111.048Y-123.343
X111.048Y-126.843
X154.849Y-70.843
X154.849Y-74.343
X154.849Y-77.843
X154.849Y-81.343
X154.849Y-84.843
T0
M30
