G04 #@! TF.GenerationSoftware,KiCad,Pcbnew,5.1.5+dfsg1-2build2*
G04 #@! TF.CreationDate,2021-11-16T18:46:50-05:00*
G04 #@! TF.ProjectId,,58585858-5858-4585-9858-585858585858,rev?*
G04 #@! TF.SameCoordinates,Original*
G04 #@! TF.FileFunction,Copper,L1,Top*
G04 #@! TF.FilePolarity,Positive*
%FSLAX46Y46*%
G04 Gerber Fmt 4.6, Leading zero omitted, Abs format (unit mm)*
G04 Created by KiCad (PCBNEW 5.1.5+dfsg1-2build2) date 2021-11-16 18:46:50*
%MOMM*%
%LPD*%
G04 APERTURE LIST*
%ADD10C,1.500000*%
%ADD11R,1.500000X1.500000*%
%ADD12R,2.400000X2.400000*%
%ADD13C,2.400000*%
%ADD14R,1.700000X1.700000*%
%ADD15O,1.700000X1.700000*%
%ADD16C,0.800000*%
%ADD17C,0.250000*%
%ADD18C,0.254000*%
G04 APERTURE END LIST*
D10*
X163319500Y-110822500D03*
X165859500Y-110822500D03*
X168399500Y-110822500D03*
X170939500Y-110822500D03*
X173479500Y-110822500D03*
X176019500Y-110822500D03*
X176019500Y-118442500D03*
X173479500Y-118442500D03*
X170939500Y-118442500D03*
X168399500Y-118442500D03*
X165859500Y-118442500D03*
D11*
X163319500Y-118442500D03*
D10*
X119519500Y-110822500D03*
X122059500Y-110822500D03*
X124599500Y-110822500D03*
X127139500Y-110822500D03*
X129679500Y-110822500D03*
X132219500Y-110822500D03*
X132219500Y-118442500D03*
X129679500Y-118442500D03*
X127139500Y-118442500D03*
X124599500Y-118442500D03*
X122059500Y-118442500D03*
D11*
X119519500Y-118442500D03*
D10*
X163319500Y-89822500D03*
X165859500Y-89822500D03*
X168399500Y-89822500D03*
X170939500Y-89822500D03*
X173479500Y-89822500D03*
X176019500Y-89822500D03*
X176019500Y-97442500D03*
X173479500Y-97442500D03*
X170939500Y-97442500D03*
X168399500Y-97442500D03*
X165859500Y-97442500D03*
D11*
X163319500Y-97442500D03*
D10*
X119519500Y-89822500D03*
X122059500Y-89822500D03*
X124599500Y-89822500D03*
X127139500Y-89822500D03*
X129679500Y-89822500D03*
X132219500Y-89822500D03*
X132219500Y-97442500D03*
X129679500Y-97442500D03*
X127139500Y-97442500D03*
X124599500Y-97442500D03*
X122059500Y-97442500D03*
D11*
X119519500Y-97442500D03*
D10*
X163319500Y-68822500D03*
X165859500Y-68822500D03*
X168399500Y-68822500D03*
X170939500Y-68822500D03*
X173479500Y-68822500D03*
X176019500Y-68822500D03*
X176019500Y-76442500D03*
X173479500Y-76442500D03*
X170939500Y-76442500D03*
X168399500Y-76442500D03*
X165859500Y-76442500D03*
D11*
X163319500Y-76442500D03*
D10*
X119519500Y-68822500D03*
X122059500Y-68822500D03*
X124599500Y-68822500D03*
X127139500Y-68822500D03*
X129679500Y-68822500D03*
X132219500Y-68822500D03*
X132219500Y-76442500D03*
X129679500Y-76442500D03*
X127139500Y-76442500D03*
X124599500Y-76442500D03*
X122059500Y-76442500D03*
D11*
X119519500Y-76442500D03*
D10*
X163319500Y-47822500D03*
X165859500Y-47822500D03*
X168399500Y-47822500D03*
X170939500Y-47822500D03*
X173479500Y-47822500D03*
X176019500Y-47822500D03*
X176019500Y-55442500D03*
X173479500Y-55442500D03*
X170939500Y-55442500D03*
X168399500Y-55442500D03*
X165859500Y-55442500D03*
D11*
X163319500Y-55442500D03*
D10*
X163319500Y-121242500D03*
X165859500Y-121242500D03*
X168399500Y-121242500D03*
X170939500Y-121242500D03*
X173479500Y-121242500D03*
X176019500Y-121242500D03*
X176019500Y-128862500D03*
X173479500Y-128862500D03*
X170939500Y-128862500D03*
X168399500Y-128862500D03*
X165859500Y-128862500D03*
D11*
X163319500Y-128862500D03*
D10*
X119519500Y-121242500D03*
X122059500Y-121242500D03*
X124599500Y-121242500D03*
X127139500Y-121242500D03*
X129679500Y-121242500D03*
X132219500Y-121242500D03*
X132219500Y-128862500D03*
X129679500Y-128862500D03*
X127139500Y-128862500D03*
X124599500Y-128862500D03*
X122059500Y-128862500D03*
D11*
X119519500Y-128862500D03*
D10*
X163319500Y-100242500D03*
X165859500Y-100242500D03*
X168399500Y-100242500D03*
X170939500Y-100242500D03*
X173479500Y-100242500D03*
X176019500Y-100242500D03*
X176019500Y-107862500D03*
X173479500Y-107862500D03*
X170939500Y-107862500D03*
X168399500Y-107862500D03*
X165859500Y-107862500D03*
D11*
X163319500Y-107862500D03*
D10*
X119519500Y-100242500D03*
X122059500Y-100242500D03*
X124599500Y-100242500D03*
X127139500Y-100242500D03*
X129679500Y-100242500D03*
X132219500Y-100242500D03*
X132219500Y-107862500D03*
X129679500Y-107862500D03*
X127139500Y-107862500D03*
X124599500Y-107862500D03*
X122059500Y-107862500D03*
D11*
X119519500Y-107862500D03*
D10*
X163319500Y-79242500D03*
X165859500Y-79242500D03*
X168399500Y-79242500D03*
X170939500Y-79242500D03*
X173479500Y-79242500D03*
X176019500Y-79242500D03*
X176019500Y-86862500D03*
X173479500Y-86862500D03*
X170939500Y-86862500D03*
X168399500Y-86862500D03*
X165859500Y-86862500D03*
D11*
X163319500Y-86862500D03*
D10*
X119519500Y-79242500D03*
X122059500Y-79242500D03*
X124599500Y-79242500D03*
X127139500Y-79242500D03*
X129679500Y-79242500D03*
X132219500Y-79242500D03*
X132219500Y-86862500D03*
X129679500Y-86862500D03*
X127139500Y-86862500D03*
X124599500Y-86862500D03*
X122059500Y-86862500D03*
D11*
X119519500Y-86862500D03*
D10*
X163319500Y-58242500D03*
X165859500Y-58242500D03*
X168399500Y-58242500D03*
X170939500Y-58242500D03*
X173479500Y-58242500D03*
X176019500Y-58242500D03*
X176019500Y-65862500D03*
X173479500Y-65862500D03*
X170939500Y-65862500D03*
X168399500Y-65862500D03*
X165859500Y-65862500D03*
D11*
X163319500Y-65862500D03*
D12*
X154848500Y-112842500D03*
D13*
X154848500Y-116342500D03*
X154848500Y-119842500D03*
X154848500Y-123342500D03*
X154848500Y-126842500D03*
D12*
X111048500Y-112842500D03*
D13*
X111048500Y-116342500D03*
X111048500Y-119842500D03*
X111048500Y-123342500D03*
X111048500Y-126842500D03*
D12*
X154848500Y-91842500D03*
D13*
X154848500Y-95342500D03*
X154848500Y-98842500D03*
X154848500Y-102342500D03*
X154848500Y-105842500D03*
D12*
X111048500Y-91842500D03*
D13*
X111048500Y-95342500D03*
X111048500Y-98842500D03*
X111048500Y-102342500D03*
X111048500Y-105842500D03*
D12*
X154848500Y-70842500D03*
D13*
X154848500Y-74342500D03*
X154848500Y-77842500D03*
X154848500Y-81342500D03*
X154848500Y-84842500D03*
D12*
X111048500Y-70842500D03*
D13*
X111048500Y-74342500D03*
X111048500Y-77842500D03*
X111048500Y-81342500D03*
X111048500Y-84842500D03*
D12*
X154848500Y-49842500D03*
D13*
X154848500Y-53342500D03*
X154848500Y-56842500D03*
X154848500Y-60342500D03*
X154848500Y-63842500D03*
D14*
X160830500Y-114762500D03*
D15*
X160830500Y-117302500D03*
X160830500Y-119842500D03*
X160830500Y-122382500D03*
X160830500Y-124922500D03*
D14*
X117030500Y-114762500D03*
D15*
X117030500Y-117302500D03*
X117030500Y-119842500D03*
X117030500Y-122382500D03*
X117030500Y-124922500D03*
D14*
X160830500Y-93762500D03*
D15*
X160830500Y-96302500D03*
X160830500Y-98842500D03*
X160830500Y-101382500D03*
X160830500Y-103922500D03*
D14*
X117030500Y-93762500D03*
D15*
X117030500Y-96302500D03*
X117030500Y-98842500D03*
X117030500Y-101382500D03*
X117030500Y-103922500D03*
D14*
X160830500Y-72762500D03*
D15*
X160830500Y-75302500D03*
X160830500Y-77842500D03*
X160830500Y-80382500D03*
X160830500Y-82922500D03*
D14*
X117030500Y-72762500D03*
D15*
X117030500Y-75302500D03*
X117030500Y-77842500D03*
X117030500Y-80382500D03*
X117030500Y-82922500D03*
D14*
X160830500Y-51762500D03*
D15*
X160830500Y-54302500D03*
X160830500Y-56842500D03*
X160830500Y-59382500D03*
X160830500Y-61922500D03*
D11*
X119519500Y-55442500D03*
D10*
X122059500Y-55442500D03*
X124599500Y-55442500D03*
X127139500Y-55442500D03*
X129679500Y-55442500D03*
X132219500Y-55442500D03*
X132219500Y-47822500D03*
X129679500Y-47822500D03*
X127139500Y-47822500D03*
X124599500Y-47822500D03*
X122059500Y-47822500D03*
X119519500Y-47822500D03*
D11*
X119519500Y-65862500D03*
D10*
X122059500Y-65862500D03*
X124599500Y-65862500D03*
X127139500Y-65862500D03*
X129679500Y-65862500D03*
X132219500Y-65862500D03*
X132219500Y-58242500D03*
X129679500Y-58242500D03*
X127139500Y-58242500D03*
X124599500Y-58242500D03*
X122059500Y-58242500D03*
X119519500Y-58242500D03*
D15*
X117030500Y-61922500D03*
X117030500Y-59382500D03*
X117030500Y-56842500D03*
X117030500Y-54302500D03*
D14*
X117030500Y-51762500D03*
D13*
X111048500Y-63842500D03*
X111048500Y-60342500D03*
X111048500Y-56842500D03*
X111048500Y-53342500D03*
D12*
X111048500Y-49842500D03*
D16*
X133254700Y-50956200D03*
X177054700Y-50956200D03*
X133254700Y-71956200D03*
X177054700Y-71956200D03*
X133254700Y-92956200D03*
X177054700Y-92956200D03*
X133254700Y-113956200D03*
X177054700Y-113956200D03*
X138762200Y-61944100D03*
X182562200Y-61944100D03*
X138762200Y-82944100D03*
X182562200Y-82944100D03*
X138762200Y-103944100D03*
X182562200Y-103944100D03*
X138762200Y-124944100D03*
X182562200Y-124944100D03*
X137417200Y-55374900D03*
X181217200Y-55374900D03*
X137417200Y-76374900D03*
X181217200Y-76374900D03*
X137417200Y-97374900D03*
X181217200Y-97374900D03*
X137417200Y-118374900D03*
X181217200Y-118374900D03*
X141017900Y-49872200D03*
X184817900Y-49872200D03*
X141017900Y-70872200D03*
X184817900Y-70872200D03*
X141017900Y-91872200D03*
X184817900Y-91872200D03*
X141017900Y-112872200D03*
X184817900Y-112872200D03*
X137490000Y-52873500D03*
X181290000Y-52873500D03*
X137490000Y-73873500D03*
X181290000Y-73873500D03*
X137490000Y-94873500D03*
X181290000Y-94873500D03*
X137490000Y-115873500D03*
X181290000Y-115873500D03*
X141230400Y-66727200D03*
X185030400Y-66727200D03*
X141230400Y-87727200D03*
X185030400Y-87727200D03*
X141230400Y-108727200D03*
X185030400Y-108727200D03*
X141230400Y-129727200D03*
X185030400Y-129727200D03*
X143146000Y-57054400D03*
X186946000Y-57054400D03*
X143146000Y-78054400D03*
X186946000Y-78054400D03*
X143146000Y-99054400D03*
X186946000Y-99054400D03*
X143146000Y-120054400D03*
X186946000Y-120054400D03*
X141516800Y-54147500D03*
X185316800Y-54147500D03*
X141516800Y-75147500D03*
X185316800Y-75147500D03*
X141516800Y-96147500D03*
X185316800Y-96147500D03*
X141516800Y-117147500D03*
X185316800Y-117147500D03*
X126492800Y-51711700D03*
X137465300Y-51681500D03*
X181265300Y-51681500D03*
X137465300Y-72681500D03*
X181265300Y-72681500D03*
X137465300Y-93681500D03*
X181265300Y-93681500D03*
X137465300Y-114681500D03*
X181265300Y-114681500D03*
X170292800Y-51711700D03*
X126492800Y-72711700D03*
X170292800Y-72711700D03*
X126492800Y-93711700D03*
X170292800Y-93711700D03*
X126492800Y-114711700D03*
X170292800Y-114711700D03*
D17*
X133254700Y-50956200D02*
X130273200Y-50956200D01*
X130273200Y-50956200D02*
X127139500Y-47822500D01*
X177054700Y-50956200D02*
X174073200Y-50956200D01*
X133254700Y-71956200D02*
X130273200Y-71956200D01*
X177054700Y-71956200D02*
X174073200Y-71956200D01*
X133254700Y-92956200D02*
X130273200Y-92956200D01*
X177054700Y-92956200D02*
X174073200Y-92956200D01*
X133254700Y-113956200D02*
X130273200Y-113956200D01*
X177054700Y-113956200D02*
X174073200Y-113956200D01*
X174073200Y-50956200D02*
X170939500Y-47822500D01*
X130273200Y-71956200D02*
X127139500Y-68822500D01*
X174073200Y-71956200D02*
X170939500Y-68822500D01*
X130273200Y-92956200D02*
X127139500Y-89822500D01*
X174073200Y-92956200D02*
X170939500Y-89822500D01*
X130273200Y-113956200D02*
X127139500Y-110822500D01*
X174073200Y-113956200D02*
X170939500Y-110822500D01*
X138762200Y-61944100D02*
X136137900Y-61944100D01*
X136137900Y-61944100D02*
X132219500Y-65862500D01*
X179937900Y-61944100D02*
X176019500Y-65862500D01*
X136137900Y-82944100D02*
X132219500Y-86862500D01*
X179937900Y-82944100D02*
X176019500Y-86862500D01*
X136137900Y-103944100D02*
X132219500Y-107862500D01*
X179937900Y-103944100D02*
X176019500Y-107862500D01*
X136137900Y-124944100D02*
X132219500Y-128862500D01*
X179937900Y-124944100D02*
X176019500Y-128862500D01*
X182562200Y-61944100D02*
X179937900Y-61944100D01*
X138762200Y-82944100D02*
X136137900Y-82944100D01*
X182562200Y-82944100D02*
X179937900Y-82944100D01*
X138762200Y-103944100D02*
X136137900Y-103944100D01*
X182562200Y-103944100D02*
X179937900Y-103944100D01*
X138762200Y-124944100D02*
X136137900Y-124944100D01*
X182562200Y-124944100D02*
X179937900Y-124944100D01*
X129679500Y-47822500D02*
X131835300Y-49978300D01*
X131835300Y-49978300D02*
X136790500Y-49978300D01*
X136790500Y-49978300D02*
X138253400Y-51441200D01*
X138253400Y-51441200D02*
X138253400Y-54538700D01*
X138253400Y-54538700D02*
X137417200Y-55374900D01*
X182053400Y-54538700D02*
X181217200Y-55374900D01*
X138253400Y-75538700D02*
X137417200Y-76374900D01*
X182053400Y-75538700D02*
X181217200Y-76374900D01*
X138253400Y-96538700D02*
X137417200Y-97374900D01*
X182053400Y-96538700D02*
X181217200Y-97374900D01*
X138253400Y-117538700D02*
X137417200Y-118374900D01*
X182053400Y-117538700D02*
X181217200Y-118374900D01*
X175635300Y-49978300D02*
X180590500Y-49978300D01*
X131835300Y-70978300D02*
X136790500Y-70978300D01*
X175635300Y-70978300D02*
X180590500Y-70978300D01*
X131835300Y-91978300D02*
X136790500Y-91978300D01*
X175635300Y-91978300D02*
X180590500Y-91978300D01*
X131835300Y-112978300D02*
X136790500Y-112978300D01*
X175635300Y-112978300D02*
X180590500Y-112978300D01*
X182053400Y-51441200D02*
X182053400Y-54538700D01*
X138253400Y-72441200D02*
X138253400Y-75538700D01*
X182053400Y-72441200D02*
X182053400Y-75538700D01*
X138253400Y-93441200D02*
X138253400Y-96538700D01*
X182053400Y-93441200D02*
X182053400Y-96538700D01*
X138253400Y-114441200D02*
X138253400Y-117538700D01*
X182053400Y-114441200D02*
X182053400Y-117538700D01*
X173479500Y-47822500D02*
X175635300Y-49978300D01*
X129679500Y-68822500D02*
X131835300Y-70978300D01*
X173479500Y-68822500D02*
X175635300Y-70978300D01*
X129679500Y-89822500D02*
X131835300Y-91978300D01*
X173479500Y-89822500D02*
X175635300Y-91978300D01*
X129679500Y-110822500D02*
X131835300Y-112978300D01*
X173479500Y-110822500D02*
X175635300Y-112978300D01*
X180590500Y-49978300D02*
X182053400Y-51441200D01*
X136790500Y-70978300D02*
X138253400Y-72441200D01*
X180590500Y-70978300D02*
X182053400Y-72441200D01*
X136790500Y-91978300D02*
X138253400Y-93441200D01*
X180590500Y-91978300D02*
X182053400Y-93441200D01*
X136790500Y-112978300D02*
X138253400Y-114441200D01*
X180590500Y-112978300D02*
X182053400Y-114441200D01*
X141017900Y-49872200D02*
X137892800Y-46747100D01*
X137892800Y-46747100D02*
X123134900Y-46747100D01*
X123134900Y-46747100D02*
X122059500Y-47822500D01*
X184817900Y-49872200D02*
X181692800Y-46747100D01*
X141017900Y-70872200D02*
X137892800Y-67747100D01*
X184817900Y-70872200D02*
X181692800Y-67747100D01*
X141017900Y-91872200D02*
X137892800Y-88747100D01*
X184817900Y-91872200D02*
X181692800Y-88747100D01*
X141017900Y-112872200D02*
X137892800Y-109747100D01*
X184817900Y-112872200D02*
X181692800Y-109747100D01*
X181692800Y-46747100D02*
X166934900Y-46747100D01*
X137892800Y-67747100D02*
X123134900Y-67747100D01*
X181692800Y-67747100D02*
X166934900Y-67747100D01*
X137892800Y-88747100D02*
X123134900Y-88747100D01*
X181692800Y-88747100D02*
X166934900Y-88747100D01*
X137892800Y-109747100D02*
X123134900Y-109747100D01*
X181692800Y-109747100D02*
X166934900Y-109747100D01*
X166934900Y-46747100D02*
X165859500Y-47822500D01*
X123134900Y-67747100D02*
X122059500Y-68822500D01*
X166934900Y-67747100D02*
X165859500Y-68822500D01*
X123134900Y-88747100D02*
X122059500Y-89822500D01*
X166934900Y-88747100D02*
X165859500Y-89822500D01*
X123134900Y-109747100D02*
X122059500Y-110822500D01*
X166934900Y-109747100D02*
X165859500Y-110822500D01*
X117030500Y-61922500D02*
X115855200Y-61922500D01*
X111048500Y-63842500D02*
X113935200Y-63842500D01*
X113935200Y-63842500D02*
X115855200Y-61922500D01*
X160830500Y-61922500D02*
X159655200Y-61922500D01*
X117030500Y-82922500D02*
X115855200Y-82922500D01*
X160830500Y-82922500D02*
X159655200Y-82922500D01*
X117030500Y-103922500D02*
X115855200Y-103922500D01*
X160830500Y-103922500D02*
X159655200Y-103922500D01*
X117030500Y-124922500D02*
X115855200Y-124922500D01*
X160830500Y-124922500D02*
X159655200Y-124922500D01*
X154848500Y-63842500D02*
X157735200Y-63842500D01*
X111048500Y-84842500D02*
X113935200Y-84842500D01*
X154848500Y-84842500D02*
X157735200Y-84842500D01*
X111048500Y-105842500D02*
X113935200Y-105842500D01*
X154848500Y-105842500D02*
X157735200Y-105842500D01*
X111048500Y-126842500D02*
X113935200Y-126842500D01*
X154848500Y-126842500D02*
X157735200Y-126842500D01*
X157735200Y-63842500D02*
X159655200Y-61922500D01*
X113935200Y-84842500D02*
X115855200Y-82922500D01*
X157735200Y-84842500D02*
X159655200Y-82922500D01*
X113935200Y-105842500D02*
X115855200Y-103922500D01*
X157735200Y-105842500D02*
X159655200Y-103922500D01*
X113935200Y-126842500D02*
X115855200Y-124922500D01*
X157735200Y-126842500D02*
X159655200Y-124922500D01*
X117030500Y-59382500D02*
X115855200Y-59382500D01*
X111048500Y-60342500D02*
X114895200Y-60342500D01*
X114895200Y-60342500D02*
X115855200Y-59382500D01*
X154848500Y-60342500D02*
X158695200Y-60342500D01*
X111048500Y-81342500D02*
X114895200Y-81342500D01*
X154848500Y-81342500D02*
X158695200Y-81342500D01*
X111048500Y-102342500D02*
X114895200Y-102342500D01*
X154848500Y-102342500D02*
X158695200Y-102342500D01*
X111048500Y-123342500D02*
X114895200Y-123342500D01*
X154848500Y-123342500D02*
X158695200Y-123342500D01*
X158695200Y-60342500D02*
X159655200Y-59382500D01*
X114895200Y-81342500D02*
X115855200Y-80382500D01*
X158695200Y-81342500D02*
X159655200Y-80382500D01*
X114895200Y-102342500D02*
X115855200Y-101382500D01*
X158695200Y-102342500D02*
X159655200Y-101382500D01*
X114895200Y-123342500D02*
X115855200Y-122382500D01*
X158695200Y-123342500D02*
X159655200Y-122382500D01*
X160830500Y-59382500D02*
X159655200Y-59382500D01*
X117030500Y-80382500D02*
X115855200Y-80382500D01*
X160830500Y-80382500D02*
X159655200Y-80382500D01*
X117030500Y-101382500D02*
X115855200Y-101382500D01*
X160830500Y-101382500D02*
X159655200Y-101382500D01*
X117030500Y-122382500D02*
X115855200Y-122382500D01*
X160830500Y-122382500D02*
X159655200Y-122382500D01*
X111048500Y-56842500D02*
X117030500Y-56842500D01*
X154848500Y-56842500D02*
X160830500Y-56842500D01*
X111048500Y-77842500D02*
X117030500Y-77842500D01*
X154848500Y-77842500D02*
X160830500Y-77842500D01*
X111048500Y-98842500D02*
X117030500Y-98842500D01*
X154848500Y-98842500D02*
X160830500Y-98842500D01*
X111048500Y-119842500D02*
X117030500Y-119842500D01*
X154848500Y-119842500D02*
X160830500Y-119842500D01*
X117030500Y-54302500D02*
X115855200Y-54302500D01*
X111048500Y-53342500D02*
X114895200Y-53342500D01*
X114895200Y-53342500D02*
X115855200Y-54302500D01*
X154848500Y-53342500D02*
X158695200Y-53342500D01*
X111048500Y-74342500D02*
X114895200Y-74342500D01*
X154848500Y-74342500D02*
X158695200Y-74342500D01*
X111048500Y-95342500D02*
X114895200Y-95342500D01*
X154848500Y-95342500D02*
X158695200Y-95342500D01*
X111048500Y-116342500D02*
X114895200Y-116342500D01*
X154848500Y-116342500D02*
X158695200Y-116342500D01*
X158695200Y-53342500D02*
X159655200Y-54302500D01*
X114895200Y-74342500D02*
X115855200Y-75302500D01*
X158695200Y-74342500D02*
X159655200Y-75302500D01*
X114895200Y-95342500D02*
X115855200Y-96302500D01*
X158695200Y-95342500D02*
X159655200Y-96302500D01*
X114895200Y-116342500D02*
X115855200Y-117302500D01*
X158695200Y-116342500D02*
X159655200Y-117302500D01*
X160830500Y-54302500D02*
X159655200Y-54302500D01*
X117030500Y-75302500D02*
X115855200Y-75302500D01*
X160830500Y-75302500D02*
X159655200Y-75302500D01*
X117030500Y-96302500D02*
X115855200Y-96302500D01*
X160830500Y-96302500D02*
X159655200Y-96302500D01*
X117030500Y-117302500D02*
X115855200Y-117302500D01*
X160830500Y-117302500D02*
X159655200Y-117302500D01*
X118205800Y-51762500D02*
X119316800Y-52873500D01*
X119316800Y-52873500D02*
X137490000Y-52873500D01*
X117030500Y-51762500D02*
X115855200Y-51762500D01*
X111048500Y-49842500D02*
X113935200Y-49842500D01*
X113935200Y-49842500D02*
X115855200Y-51762500D01*
X117030500Y-51762500D02*
X118205800Y-51762500D01*
X163116800Y-52873500D02*
X181290000Y-52873500D01*
X119316800Y-73873500D02*
X137490000Y-73873500D01*
X163116800Y-73873500D02*
X181290000Y-73873500D01*
X119316800Y-94873500D02*
X137490000Y-94873500D01*
X163116800Y-94873500D02*
X181290000Y-94873500D01*
X119316800Y-115873500D02*
X137490000Y-115873500D01*
X163116800Y-115873500D02*
X181290000Y-115873500D01*
X160830500Y-51762500D02*
X159655200Y-51762500D01*
X117030500Y-72762500D02*
X115855200Y-72762500D01*
X160830500Y-72762500D02*
X159655200Y-72762500D01*
X117030500Y-93762500D02*
X115855200Y-93762500D01*
X160830500Y-93762500D02*
X159655200Y-93762500D01*
X117030500Y-114762500D02*
X115855200Y-114762500D01*
X160830500Y-114762500D02*
X159655200Y-114762500D01*
X154848500Y-49842500D02*
X157735200Y-49842500D01*
X111048500Y-70842500D02*
X113935200Y-70842500D01*
X154848500Y-70842500D02*
X157735200Y-70842500D01*
X111048500Y-91842500D02*
X113935200Y-91842500D01*
X154848500Y-91842500D02*
X157735200Y-91842500D01*
X111048500Y-112842500D02*
X113935200Y-112842500D01*
X154848500Y-112842500D02*
X157735200Y-112842500D01*
X157735200Y-49842500D02*
X159655200Y-51762500D01*
X113935200Y-70842500D02*
X115855200Y-72762500D01*
X157735200Y-70842500D02*
X159655200Y-72762500D01*
X113935200Y-91842500D02*
X115855200Y-93762500D01*
X157735200Y-91842500D02*
X159655200Y-93762500D01*
X113935200Y-112842500D02*
X115855200Y-114762500D01*
X157735200Y-112842500D02*
X159655200Y-114762500D01*
X160830500Y-51762500D02*
X162005800Y-51762500D01*
X117030500Y-72762500D02*
X118205800Y-72762500D01*
X160830500Y-72762500D02*
X162005800Y-72762500D01*
X117030500Y-93762500D02*
X118205800Y-93762500D01*
X160830500Y-93762500D02*
X162005800Y-93762500D01*
X117030500Y-114762500D02*
X118205800Y-114762500D01*
X160830500Y-114762500D02*
X162005800Y-114762500D01*
X162005800Y-51762500D02*
X163116800Y-52873500D01*
X118205800Y-72762500D02*
X119316800Y-73873500D01*
X162005800Y-72762500D02*
X163116800Y-73873500D01*
X118205800Y-93762500D02*
X119316800Y-94873500D01*
X162005800Y-93762500D02*
X163116800Y-94873500D01*
X118205800Y-114762500D02*
X119316800Y-115873500D01*
X162005800Y-114762500D02*
X163116800Y-115873500D01*
X122059500Y-55442500D02*
X120961000Y-56541000D01*
X120961000Y-56541000D02*
X120961000Y-64764000D01*
X120961000Y-64764000D02*
X122059500Y-65862500D01*
X141230400Y-66727200D02*
X141019700Y-66937900D01*
X141019700Y-66937900D02*
X123134900Y-66937900D01*
X123134900Y-66937900D02*
X122059500Y-65862500D01*
X165859500Y-55442500D02*
X164761000Y-56541000D01*
X122059500Y-76442500D02*
X120961000Y-77541000D01*
X165859500Y-76442500D02*
X164761000Y-77541000D01*
X122059500Y-97442500D02*
X120961000Y-98541000D01*
X165859500Y-97442500D02*
X164761000Y-98541000D01*
X122059500Y-118442500D02*
X120961000Y-119541000D01*
X165859500Y-118442500D02*
X164761000Y-119541000D01*
X184819700Y-66937900D02*
X166934900Y-66937900D01*
X141019700Y-87937900D02*
X123134900Y-87937900D01*
X184819700Y-87937900D02*
X166934900Y-87937900D01*
X141019700Y-108937900D02*
X123134900Y-108937900D01*
X184819700Y-108937900D02*
X166934900Y-108937900D01*
X141019700Y-129937900D02*
X123134900Y-129937900D01*
X184819700Y-129937900D02*
X166934900Y-129937900D01*
X164761000Y-64764000D02*
X165859500Y-65862500D01*
X120961000Y-85764000D02*
X122059500Y-86862500D01*
X164761000Y-85764000D02*
X165859500Y-86862500D01*
X120961000Y-106764000D02*
X122059500Y-107862500D01*
X164761000Y-106764000D02*
X165859500Y-107862500D01*
X120961000Y-127764000D02*
X122059500Y-128862500D01*
X164761000Y-127764000D02*
X165859500Y-128862500D01*
X185030400Y-66727200D02*
X184819700Y-66937900D01*
X141230400Y-87727200D02*
X141019700Y-87937900D01*
X185030400Y-87727200D02*
X184819700Y-87937900D01*
X141230400Y-108727200D02*
X141019700Y-108937900D01*
X185030400Y-108727200D02*
X184819700Y-108937900D01*
X141230400Y-129727200D02*
X141019700Y-129937900D01*
X185030400Y-129727200D02*
X184819700Y-129937900D01*
X166934900Y-66937900D02*
X165859500Y-65862500D01*
X123134900Y-87937900D02*
X122059500Y-86862500D01*
X166934900Y-87937900D02*
X165859500Y-86862500D01*
X123134900Y-108937900D02*
X122059500Y-107862500D01*
X166934900Y-108937900D02*
X165859500Y-107862500D01*
X123134900Y-129937900D02*
X122059500Y-128862500D01*
X166934900Y-129937900D02*
X165859500Y-128862500D01*
X164761000Y-56541000D02*
X164761000Y-64764000D01*
X120961000Y-77541000D02*
X120961000Y-85764000D01*
X164761000Y-77541000D02*
X164761000Y-85764000D01*
X120961000Y-98541000D02*
X120961000Y-106764000D01*
X164761000Y-98541000D02*
X164761000Y-106764000D01*
X120961000Y-119541000D02*
X120961000Y-127764000D01*
X164761000Y-119541000D02*
X164761000Y-127764000D01*
X124599500Y-55442500D02*
X123488200Y-56553800D01*
X123488200Y-56553800D02*
X123488200Y-64751200D01*
X123488200Y-64751200D02*
X124599500Y-65862500D01*
X168399500Y-55442500D02*
X167288200Y-56553800D01*
X124599500Y-76442500D02*
X123488200Y-77553800D01*
X168399500Y-76442500D02*
X167288200Y-77553800D01*
X124599500Y-97442500D02*
X123488200Y-98553800D01*
X168399500Y-97442500D02*
X167288200Y-98553800D01*
X124599500Y-118442500D02*
X123488200Y-119553800D01*
X168399500Y-118442500D02*
X167288200Y-119553800D01*
X167288200Y-56553800D02*
X167288200Y-64751200D01*
X123488200Y-77553800D02*
X123488200Y-85751200D01*
X167288200Y-77553800D02*
X167288200Y-85751200D01*
X123488200Y-98553800D02*
X123488200Y-106751200D01*
X167288200Y-98553800D02*
X167288200Y-106751200D01*
X123488200Y-119553800D02*
X123488200Y-127751200D01*
X167288200Y-119553800D02*
X167288200Y-127751200D01*
X167288200Y-64751200D02*
X168399500Y-65862500D01*
X123488200Y-85751200D02*
X124599500Y-86862500D01*
X167288200Y-85751200D02*
X168399500Y-86862500D01*
X123488200Y-106751200D02*
X124599500Y-107862500D01*
X167288200Y-106751200D02*
X168399500Y-107862500D01*
X123488200Y-127751200D02*
X124599500Y-128862500D01*
X167288200Y-127751200D02*
X168399500Y-128862500D01*
X119519500Y-55442500D02*
X119519500Y-56517800D01*
X119519500Y-65862500D02*
X119519500Y-64787200D01*
X119519500Y-64787200D02*
X118444200Y-63711900D01*
X118444200Y-63711900D02*
X118444200Y-57593100D01*
X118444200Y-57593100D02*
X119519500Y-56517800D01*
X163319500Y-65862500D02*
X163319500Y-64787200D01*
X119519500Y-86862500D02*
X119519500Y-85787200D01*
X163319500Y-86862500D02*
X163319500Y-85787200D01*
X119519500Y-107862500D02*
X119519500Y-106787200D01*
X163319500Y-107862500D02*
X163319500Y-106787200D01*
X119519500Y-128862500D02*
X119519500Y-127787200D01*
X163319500Y-128862500D02*
X163319500Y-127787200D01*
X163319500Y-64787200D02*
X162244200Y-63711900D01*
X119519500Y-85787200D02*
X118444200Y-84711900D01*
X163319500Y-85787200D02*
X162244200Y-84711900D01*
X119519500Y-106787200D02*
X118444200Y-105711900D01*
X163319500Y-106787200D02*
X162244200Y-105711900D01*
X119519500Y-127787200D02*
X118444200Y-126711900D01*
X163319500Y-127787200D02*
X162244200Y-126711900D01*
X162244200Y-63711900D02*
X162244200Y-57593100D01*
X118444200Y-84711900D02*
X118444200Y-78593100D01*
X162244200Y-84711900D02*
X162244200Y-78593100D01*
X118444200Y-105711900D02*
X118444200Y-99593100D01*
X162244200Y-105711900D02*
X162244200Y-99593100D01*
X118444200Y-126711900D02*
X118444200Y-120593100D01*
X162244200Y-126711900D02*
X162244200Y-120593100D01*
X162244200Y-57593100D02*
X163319500Y-56517800D01*
X118444200Y-78593100D02*
X119519500Y-77517800D01*
X162244200Y-78593100D02*
X163319500Y-77517800D01*
X118444200Y-99593100D02*
X119519500Y-98517800D01*
X162244200Y-99593100D02*
X163319500Y-98517800D01*
X118444200Y-120593100D02*
X119519500Y-119517800D01*
X162244200Y-120593100D02*
X163319500Y-119517800D01*
X163319500Y-55442500D02*
X163319500Y-56517800D01*
X119519500Y-76442500D02*
X119519500Y-77517800D01*
X163319500Y-76442500D02*
X163319500Y-77517800D01*
X119519500Y-97442500D02*
X119519500Y-98517800D01*
X163319500Y-97442500D02*
X163319500Y-98517800D01*
X119519500Y-118442500D02*
X119519500Y-119517800D01*
X163319500Y-118442500D02*
X163319500Y-119517800D01*
X127139500Y-65862500D02*
X126028200Y-64751200D01*
X126028200Y-64751200D02*
X126028200Y-56553800D01*
X126028200Y-56553800D02*
X127139500Y-55442500D01*
X170939500Y-65862500D02*
X169828200Y-64751200D01*
X127139500Y-86862500D02*
X126028200Y-85751200D01*
X170939500Y-86862500D02*
X169828200Y-85751200D01*
X127139500Y-107862500D02*
X126028200Y-106751200D01*
X170939500Y-107862500D02*
X169828200Y-106751200D01*
X127139500Y-128862500D02*
X126028200Y-127751200D01*
X170939500Y-128862500D02*
X169828200Y-127751200D01*
X169828200Y-56553800D02*
X170939500Y-55442500D01*
X126028200Y-77553800D02*
X127139500Y-76442500D01*
X169828200Y-77553800D02*
X170939500Y-76442500D01*
X126028200Y-98553800D02*
X127139500Y-97442500D01*
X169828200Y-98553800D02*
X170939500Y-97442500D01*
X126028200Y-119553800D02*
X127139500Y-118442500D01*
X169828200Y-119553800D02*
X170939500Y-118442500D01*
X169828200Y-64751200D02*
X169828200Y-56553800D01*
X126028200Y-85751200D02*
X126028200Y-77553800D01*
X169828200Y-85751200D02*
X169828200Y-77553800D01*
X126028200Y-106751200D02*
X126028200Y-98553800D01*
X169828200Y-106751200D02*
X169828200Y-98553800D01*
X126028200Y-127751200D02*
X126028200Y-119553800D01*
X169828200Y-127751200D02*
X169828200Y-119553800D01*
X131737800Y-59320400D02*
X130949500Y-58532100D01*
X130949500Y-58532100D02*
X130949500Y-56712500D01*
X130949500Y-56712500D02*
X129679500Y-55442500D01*
X143146000Y-57054400D02*
X140880000Y-59320400D01*
X140880000Y-59320400D02*
X131737800Y-59320400D01*
X131737800Y-59320400D02*
X131737800Y-63804200D01*
X131737800Y-63804200D02*
X129679500Y-65862500D01*
X175537800Y-63804200D02*
X173479500Y-65862500D01*
X131737800Y-84804200D02*
X129679500Y-86862500D01*
X175537800Y-84804200D02*
X173479500Y-86862500D01*
X131737800Y-105804200D02*
X129679500Y-107862500D01*
X175537800Y-105804200D02*
X173479500Y-107862500D01*
X131737800Y-126804200D02*
X129679500Y-128862500D01*
X175537800Y-126804200D02*
X173479500Y-128862500D01*
X174749500Y-58532100D02*
X174749500Y-56712500D01*
X130949500Y-79532100D02*
X130949500Y-77712500D01*
X174749500Y-79532100D02*
X174749500Y-77712500D01*
X130949500Y-100532100D02*
X130949500Y-98712500D01*
X174749500Y-100532100D02*
X174749500Y-98712500D01*
X130949500Y-121532100D02*
X130949500Y-119712500D01*
X174749500Y-121532100D02*
X174749500Y-119712500D01*
X174749500Y-56712500D02*
X173479500Y-55442500D01*
X130949500Y-77712500D02*
X129679500Y-76442500D01*
X174749500Y-77712500D02*
X173479500Y-76442500D01*
X130949500Y-98712500D02*
X129679500Y-97442500D01*
X174749500Y-98712500D02*
X173479500Y-97442500D01*
X130949500Y-119712500D02*
X129679500Y-118442500D01*
X174749500Y-119712500D02*
X173479500Y-118442500D01*
X186946000Y-57054400D02*
X184680000Y-59320400D01*
X143146000Y-78054400D02*
X140880000Y-80320400D01*
X186946000Y-78054400D02*
X184680000Y-80320400D01*
X143146000Y-99054400D02*
X140880000Y-101320400D01*
X186946000Y-99054400D02*
X184680000Y-101320400D01*
X143146000Y-120054400D02*
X140880000Y-122320400D01*
X186946000Y-120054400D02*
X184680000Y-122320400D01*
X175537800Y-59320400D02*
X174749500Y-58532100D01*
X131737800Y-80320400D02*
X130949500Y-79532100D01*
X175537800Y-80320400D02*
X174749500Y-79532100D01*
X131737800Y-101320400D02*
X130949500Y-100532100D01*
X175537800Y-101320400D02*
X174749500Y-100532100D01*
X131737800Y-122320400D02*
X130949500Y-121532100D01*
X175537800Y-122320400D02*
X174749500Y-121532100D01*
X184680000Y-59320400D02*
X175537800Y-59320400D01*
X140880000Y-80320400D02*
X131737800Y-80320400D01*
X184680000Y-80320400D02*
X175537800Y-80320400D01*
X140880000Y-101320400D02*
X131737800Y-101320400D01*
X184680000Y-101320400D02*
X175537800Y-101320400D01*
X140880000Y-122320400D02*
X131737800Y-122320400D01*
X184680000Y-122320400D02*
X175537800Y-122320400D01*
X175537800Y-59320400D02*
X175537800Y-63804200D01*
X131737800Y-80320400D02*
X131737800Y-84804200D01*
X175537800Y-80320400D02*
X175537800Y-84804200D01*
X131737800Y-101320400D02*
X131737800Y-105804200D01*
X175537800Y-101320400D02*
X175537800Y-105804200D01*
X131737800Y-122320400D02*
X131737800Y-126804200D01*
X175537800Y-122320400D02*
X175537800Y-126804200D01*
X141516800Y-54147500D02*
X141516800Y-53988200D01*
X141516800Y-53988200D02*
X135351100Y-47822500D01*
X135351100Y-47822500D02*
X132219500Y-47822500D01*
X132219500Y-58242500D02*
X137421800Y-58242500D01*
X137421800Y-58242500D02*
X141516800Y-54147500D01*
X179151100Y-47822500D02*
X176019500Y-47822500D01*
X135351100Y-68822500D02*
X132219500Y-68822500D01*
X179151100Y-68822500D02*
X176019500Y-68822500D01*
X135351100Y-89822500D02*
X132219500Y-89822500D01*
X179151100Y-89822500D02*
X176019500Y-89822500D01*
X135351100Y-110822500D02*
X132219500Y-110822500D01*
X179151100Y-110822500D02*
X176019500Y-110822500D01*
X176019500Y-58242500D02*
X181221800Y-58242500D01*
X132219500Y-79242500D02*
X137421800Y-79242500D01*
X176019500Y-79242500D02*
X181221800Y-79242500D01*
X132219500Y-100242500D02*
X137421800Y-100242500D01*
X176019500Y-100242500D02*
X181221800Y-100242500D01*
X132219500Y-121242500D02*
X137421800Y-121242500D01*
X176019500Y-121242500D02*
X181221800Y-121242500D01*
X185316800Y-54147500D02*
X185316800Y-53988200D01*
X141516800Y-75147500D02*
X141516800Y-74988200D01*
X185316800Y-75147500D02*
X185316800Y-74988200D01*
X141516800Y-96147500D02*
X141516800Y-95988200D01*
X185316800Y-96147500D02*
X185316800Y-95988200D01*
X141516800Y-117147500D02*
X141516800Y-116988200D01*
X185316800Y-117147500D02*
X185316800Y-116988200D01*
X185316800Y-53988200D02*
X179151100Y-47822500D01*
X141516800Y-74988200D02*
X135351100Y-68822500D01*
X185316800Y-74988200D02*
X179151100Y-68822500D01*
X141516800Y-95988200D02*
X135351100Y-89822500D01*
X185316800Y-95988200D02*
X179151100Y-89822500D01*
X141516800Y-116988200D02*
X135351100Y-110822500D01*
X185316800Y-116988200D02*
X179151100Y-110822500D01*
X181221800Y-58242500D02*
X185316800Y-54147500D01*
X137421800Y-79242500D02*
X141516800Y-75147500D01*
X181221800Y-79242500D02*
X185316800Y-75147500D01*
X137421800Y-100242500D02*
X141516800Y-96147500D01*
X181221800Y-100242500D02*
X185316800Y-96147500D01*
X137421800Y-121242500D02*
X141516800Y-117147500D01*
X181221800Y-121242500D02*
X185316800Y-117147500D01*
X126523000Y-51681500D02*
X126492800Y-51711700D01*
X126523000Y-51681500D02*
X124599500Y-49758000D01*
X124599500Y-49758000D02*
X124599500Y-47822500D01*
X137465300Y-51681500D02*
X126523000Y-51681500D01*
X170323000Y-51681500D02*
X170292800Y-51711700D01*
X126523000Y-72681500D02*
X126492800Y-72711700D01*
X170323000Y-72681500D02*
X170292800Y-72711700D01*
X126523000Y-93681500D02*
X126492800Y-93711700D01*
X170323000Y-93681500D02*
X170292800Y-93711700D01*
X126523000Y-114681500D02*
X126492800Y-114711700D01*
X170323000Y-114681500D02*
X170292800Y-114711700D01*
X170323000Y-51681500D02*
X168399500Y-49758000D01*
X126523000Y-72681500D02*
X124599500Y-70758000D01*
X170323000Y-72681500D02*
X168399500Y-70758000D01*
X126523000Y-93681500D02*
X124599500Y-91758000D01*
X170323000Y-93681500D02*
X168399500Y-91758000D01*
X126523000Y-114681500D02*
X124599500Y-112758000D01*
X170323000Y-114681500D02*
X168399500Y-112758000D01*
X181265300Y-51681500D02*
X170323000Y-51681500D01*
X137465300Y-72681500D02*
X126523000Y-72681500D01*
X181265300Y-72681500D02*
X170323000Y-72681500D01*
X137465300Y-93681500D02*
X126523000Y-93681500D01*
X181265300Y-93681500D02*
X170323000Y-93681500D01*
X137465300Y-114681500D02*
X126523000Y-114681500D01*
X181265300Y-114681500D02*
X170323000Y-114681500D01*
X168399500Y-49758000D02*
X168399500Y-47822500D01*
X124599500Y-70758000D02*
X124599500Y-68822500D01*
X168399500Y-70758000D02*
X168399500Y-68822500D01*
X124599500Y-91758000D02*
X124599500Y-89822500D01*
X168399500Y-91758000D02*
X168399500Y-89822500D01*
X124599500Y-112758000D02*
X124599500Y-110822500D01*
X168399500Y-112758000D02*
X168399500Y-110822500D01*
D18*
G36*
X118292129Y-68166457D02*
G01*
X118191066Y-68410444D01*
X106341500Y-68432493D01*
X106341500Y-68002500D01*
X118401682Y-68002500D01*
X118292129Y-68166457D01*
G37*
X118292129Y-68166457D02*
X118191066Y-68410444D01*
X106341500Y-68432493D01*
X106341500Y-68002500D01*
X118401682Y-68002500D01*
X118292129Y-68166457D01*
G36*
X118292129Y-47166457D02*
G01*
X118187725Y-47418511D01*
X118134500Y-47686089D01*
X118134500Y-47958911D01*
X118187725Y-48226489D01*
X118292129Y-48478543D01*
X118443701Y-48705386D01*
X118636614Y-48898299D01*
X118863457Y-49049871D01*
X119115511Y-49154275D01*
X119383089Y-49207500D01*
X119655911Y-49207500D01*
X119923489Y-49154275D01*
X120175543Y-49049871D01*
X120402386Y-48898299D01*
X120595299Y-48705386D01*
X120746871Y-48478543D01*
X120789500Y-48375627D01*
X120832129Y-48478543D01*
X120983701Y-48705386D01*
X121176614Y-48898299D01*
X121403457Y-49049871D01*
X121655511Y-49154275D01*
X121923089Y-49207500D01*
X122195911Y-49207500D01*
X122463489Y-49154275D01*
X122715543Y-49049871D01*
X122942386Y-48898299D01*
X123135299Y-48705386D01*
X123286871Y-48478543D01*
X123329500Y-48375627D01*
X123372129Y-48478543D01*
X123523701Y-48705386D01*
X123716614Y-48898299D01*
X123839500Y-48980409D01*
X123839500Y-49720677D01*
X123835824Y-49758000D01*
X123839500Y-49795322D01*
X123839500Y-49795332D01*
X123850497Y-49906985D01*
X123876130Y-49991486D01*
X123893954Y-50050246D01*
X123964526Y-50182276D01*
X124004371Y-50230826D01*
X124059499Y-50298001D01*
X124088503Y-50321804D01*
X125457800Y-51691102D01*
X125457800Y-51813639D01*
X125497574Y-52013598D01*
X125538955Y-52113500D01*
X119631602Y-52113500D01*
X118769604Y-51251502D01*
X118745801Y-51222499D01*
X118630076Y-51127526D01*
X118518572Y-51067925D01*
X118518572Y-50912500D01*
X118506312Y-50788018D01*
X118470002Y-50668320D01*
X118411037Y-50558006D01*
X118331685Y-50461315D01*
X118234994Y-50381963D01*
X118124680Y-50322998D01*
X118004982Y-50286688D01*
X117880500Y-50274428D01*
X116180500Y-50274428D01*
X116056018Y-50286688D01*
X115936320Y-50322998D01*
X115826006Y-50381963D01*
X115729315Y-50461315D01*
X115684015Y-50516513D01*
X114499004Y-49331503D01*
X114475201Y-49302499D01*
X114359476Y-49207526D01*
X114227447Y-49136954D01*
X114084186Y-49093497D01*
X113972533Y-49082500D01*
X113972522Y-49082500D01*
X113935200Y-49078824D01*
X113897878Y-49082500D01*
X112886572Y-49082500D01*
X112886572Y-48642500D01*
X112874312Y-48518018D01*
X112838002Y-48398320D01*
X112779037Y-48288006D01*
X112699685Y-48191315D01*
X112602994Y-48111963D01*
X112492680Y-48052998D01*
X112372982Y-48016688D01*
X112248500Y-48004428D01*
X109848500Y-48004428D01*
X109724018Y-48016688D01*
X109604320Y-48052998D01*
X109494006Y-48111963D01*
X109397315Y-48191315D01*
X109317963Y-48288006D01*
X109258998Y-48398320D01*
X109222688Y-48518018D01*
X109210428Y-48642500D01*
X109210428Y-51042500D01*
X109222688Y-51166982D01*
X109258998Y-51286680D01*
X109317963Y-51396994D01*
X109397315Y-51493685D01*
X109494006Y-51573037D01*
X109604320Y-51632002D01*
X109724018Y-51668312D01*
X109848500Y-51680572D01*
X110265662Y-51680572D01*
X110179301Y-51716344D01*
X109878756Y-51917162D01*
X109623162Y-52172756D01*
X109422344Y-52473301D01*
X109284018Y-52807250D01*
X109213500Y-53161768D01*
X109213500Y-53523232D01*
X109284018Y-53877750D01*
X109422344Y-54211699D01*
X109623162Y-54512244D01*
X109878756Y-54767838D01*
X110179301Y-54968656D01*
X110478287Y-55092500D01*
X110179301Y-55216344D01*
X109878756Y-55417162D01*
X109623162Y-55672756D01*
X109422344Y-55973301D01*
X109284018Y-56307250D01*
X109213500Y-56661768D01*
X109213500Y-57023232D01*
X109284018Y-57377750D01*
X109422344Y-57711699D01*
X109623162Y-58012244D01*
X109878756Y-58267838D01*
X110179301Y-58468656D01*
X110478287Y-58592500D01*
X110179301Y-58716344D01*
X109878756Y-58917162D01*
X109623162Y-59172756D01*
X109422344Y-59473301D01*
X109284018Y-59807250D01*
X109213500Y-60161768D01*
X109213500Y-60523232D01*
X109284018Y-60877750D01*
X109422344Y-61211699D01*
X109623162Y-61512244D01*
X109878756Y-61767838D01*
X110179301Y-61968656D01*
X110485989Y-62095690D01*
X110292667Y-62160654D01*
X110070014Y-62279664D01*
X109950126Y-62564520D01*
X111048500Y-63662895D01*
X112146874Y-62564520D01*
X112026986Y-62279664D01*
X112026435Y-62279390D01*
X115589024Y-62279390D01*
X115633675Y-62426599D01*
X115758859Y-62689420D01*
X115932912Y-62922769D01*
X116149145Y-63117678D01*
X116399248Y-63266657D01*
X116673609Y-63363981D01*
X116903500Y-63243314D01*
X116903500Y-62049500D01*
X115710345Y-62049500D01*
X115589024Y-62279390D01*
X112026435Y-62279390D01*
X111703290Y-62118801D01*
X111613810Y-62094531D01*
X111917699Y-61968656D01*
X112218244Y-61767838D01*
X112473838Y-61512244D01*
X112674656Y-61211699D01*
X112719888Y-61102500D01*
X114857878Y-61102500D01*
X114895200Y-61106176D01*
X114932522Y-61102500D01*
X114932533Y-61102500D01*
X115044186Y-61091503D01*
X115187447Y-61048046D01*
X115319476Y-60977474D01*
X115435201Y-60882501D01*
X115459004Y-60853498D01*
X115930197Y-60382304D01*
X116083868Y-60535975D01*
X116266034Y-60657695D01*
X116149145Y-60727322D01*
X115932912Y-60922231D01*
X115758859Y-61155580D01*
X115633675Y-61418401D01*
X115589024Y-61565610D01*
X115710345Y-61795500D01*
X116903500Y-61795500D01*
X116903500Y-61775500D01*
X117157500Y-61775500D01*
X117157500Y-61795500D01*
X117177500Y-61795500D01*
X117177500Y-62049500D01*
X117157500Y-62049500D01*
X117157500Y-63243314D01*
X117387391Y-63363981D01*
X117661752Y-63266657D01*
X117684200Y-63253285D01*
X117684200Y-63674577D01*
X117680524Y-63711900D01*
X117684200Y-63749222D01*
X117684200Y-63749232D01*
X117695197Y-63860885D01*
X117723196Y-63953186D01*
X117738654Y-64004146D01*
X117809226Y-64136176D01*
X117849071Y-64184726D01*
X117904199Y-64251901D01*
X117933202Y-64275704D01*
X118318589Y-64661090D01*
X118318315Y-64661315D01*
X118238963Y-64758006D01*
X118179998Y-64868320D01*
X118143688Y-64988018D01*
X118131428Y-65112500D01*
X118131428Y-66612500D01*
X118138322Y-66682500D01*
X106341500Y-66682500D01*
X106341500Y-65120480D01*
X109950126Y-65120480D01*
X110070014Y-65405336D01*
X110393710Y-65566199D01*
X110742569Y-65660822D01*
X111103184Y-65685567D01*
X111461698Y-65639485D01*
X111804333Y-65524346D01*
X112026986Y-65405336D01*
X112146874Y-65120480D01*
X111048500Y-64022105D01*
X109950126Y-65120480D01*
X106341500Y-65120480D01*
X106341500Y-63897184D01*
X109205433Y-63897184D01*
X109251515Y-64255698D01*
X109366654Y-64598333D01*
X109485664Y-64820986D01*
X109770520Y-64940874D01*
X110868895Y-63842500D01*
X111228105Y-63842500D01*
X112326480Y-64940874D01*
X112611336Y-64820986D01*
X112772199Y-64497290D01*
X112866822Y-64148431D01*
X112891567Y-63787816D01*
X112845485Y-63429302D01*
X112730346Y-63086667D01*
X112611336Y-62864014D01*
X112326480Y-62744126D01*
X111228105Y-63842500D01*
X110868895Y-63842500D01*
X109770520Y-62744126D01*
X109485664Y-62864014D01*
X109324801Y-63187710D01*
X109230178Y-63536569D01*
X109205433Y-63897184D01*
X106341500Y-63897184D01*
X106341500Y-59374919D01*
X106344693Y-59342500D01*
X106331950Y-59213117D01*
X106294210Y-59088707D01*
X106232925Y-58974050D01*
X106150448Y-58873552D01*
X106049950Y-58791075D01*
X105935293Y-58729790D01*
X105810883Y-58692050D01*
X105713919Y-58682500D01*
X105681500Y-58679307D01*
X105649081Y-58682500D01*
X105041500Y-58682500D01*
X105041500Y-55002500D01*
X105649081Y-55002500D01*
X105681500Y-55005693D01*
X105713919Y-55002500D01*
X105810883Y-54992950D01*
X105935293Y-54955210D01*
X106049950Y-54893925D01*
X106150448Y-54811448D01*
X106232925Y-54710950D01*
X106294210Y-54596293D01*
X106331950Y-54471883D01*
X106344693Y-54342500D01*
X106341500Y-54310081D01*
X106341500Y-47002500D01*
X118401682Y-47002500D01*
X118292129Y-47166457D01*
G37*
X118292129Y-47166457D02*
X118187725Y-47418511D01*
X118134500Y-47686089D01*
X118134500Y-47958911D01*
X118187725Y-48226489D01*
X118292129Y-48478543D01*
X118443701Y-48705386D01*
X118636614Y-48898299D01*
X118863457Y-49049871D01*
X119115511Y-49154275D01*
X119383089Y-49207500D01*
X119655911Y-49207500D01*
X119923489Y-49154275D01*
X120175543Y-49049871D01*
X120402386Y-48898299D01*
X120595299Y-48705386D01*
X120746871Y-48478543D01*
X120789500Y-48375627D01*
X120832129Y-48478543D01*
X120983701Y-48705386D01*
X121176614Y-48898299D01*
X121403457Y-49049871D01*
X121655511Y-49154275D01*
X121923089Y-49207500D01*
X122195911Y-49207500D01*
X122463489Y-49154275D01*
X122715543Y-49049871D01*
X122942386Y-48898299D01*
X123135299Y-48705386D01*
X123286871Y-48478543D01*
X123329500Y-48375627D01*
X123372129Y-48478543D01*
X123523701Y-48705386D01*
X123716614Y-48898299D01*
X123839500Y-48980409D01*
X123839500Y-49720677D01*
X123835824Y-49758000D01*
X123839500Y-49795322D01*
X123839500Y-49795332D01*
X123850497Y-49906985D01*
X123876130Y-49991486D01*
X123893954Y-50050246D01*
X123964526Y-50182276D01*
X124004371Y-50230826D01*
X124059499Y-50298001D01*
X124088503Y-50321804D01*
X125457800Y-51691102D01*
X125457800Y-51813639D01*
X125497574Y-52013598D01*
X125538955Y-52113500D01*
X119631602Y-52113500D01*
X118769604Y-51251502D01*
X118745801Y-51222499D01*
X118630076Y-51127526D01*
X118518572Y-51067925D01*
X118518572Y-50912500D01*
X118506312Y-50788018D01*
X118470002Y-50668320D01*
X118411037Y-50558006D01*
X118331685Y-50461315D01*
X118234994Y-50381963D01*
X118124680Y-50322998D01*
X118004982Y-50286688D01*
X117880500Y-50274428D01*
X116180500Y-50274428D01*
X116056018Y-50286688D01*
X115936320Y-50322998D01*
X115826006Y-50381963D01*
X115729315Y-50461315D01*
X115684015Y-50516513D01*
X114499004Y-49331503D01*
X114475201Y-49302499D01*
X114359476Y-49207526D01*
X114227447Y-49136954D01*
X114084186Y-49093497D01*
X113972533Y-49082500D01*
X113972522Y-49082500D01*
X113935200Y-49078824D01*
X113897878Y-49082500D01*
X112886572Y-49082500D01*
X112886572Y-48642500D01*
X112874312Y-48518018D01*
X112838002Y-48398320D01*
X112779037Y-48288006D01*
X112699685Y-48191315D01*
X112602994Y-48111963D01*
X112492680Y-48052998D01*
X112372982Y-48016688D01*
X112248500Y-48004428D01*
X109848500Y-48004428D01*
X109724018Y-48016688D01*
X109604320Y-48052998D01*
X109494006Y-48111963D01*
X109397315Y-48191315D01*
X109317963Y-48288006D01*
X109258998Y-48398320D01*
X109222688Y-48518018D01*
X109210428Y-48642500D01*
X109210428Y-51042500D01*
X109222688Y-51166982D01*
X109258998Y-51286680D01*
X109317963Y-51396994D01*
X109397315Y-51493685D01*
X109494006Y-51573037D01*
X109604320Y-51632002D01*
X109724018Y-51668312D01*
X109848500Y-51680572D01*
X110265662Y-51680572D01*
X110179301Y-51716344D01*
X109878756Y-51917162D01*
X109623162Y-52172756D01*
X109422344Y-52473301D01*
X109284018Y-52807250D01*
X109213500Y-53161768D01*
X109213500Y-53523232D01*
X109284018Y-53877750D01*
X109422344Y-54211699D01*
X109623162Y-54512244D01*
X109878756Y-54767838D01*
X110179301Y-54968656D01*
X110478287Y-55092500D01*
X110179301Y-55216344D01*
X109878756Y-55417162D01*
X109623162Y-55672756D01*
X109422344Y-55973301D01*
X109284018Y-56307250D01*
X109213500Y-56661768D01*
X109213500Y-57023232D01*
X109284018Y-57377750D01*
X109422344Y-57711699D01*
X109623162Y-58012244D01*
X109878756Y-58267838D01*
X110179301Y-58468656D01*
X110478287Y-58592500D01*
X110179301Y-58716344D01*
X109878756Y-58917162D01*
X109623162Y-59172756D01*
X109422344Y-59473301D01*
X109284018Y-59807250D01*
X109213500Y-60161768D01*
X109213500Y-60523232D01*
X109284018Y-60877750D01*
X109422344Y-61211699D01*
X109623162Y-61512244D01*
X109878756Y-61767838D01*
X110179301Y-61968656D01*
X110485989Y-62095690D01*
X110292667Y-62160654D01*
X110070014Y-62279664D01*
X109950126Y-62564520D01*
X111048500Y-63662895D01*
X112146874Y-62564520D01*
X112026986Y-62279664D01*
X112026435Y-62279390D01*
X115589024Y-62279390D01*
X115633675Y-62426599D01*
X115758859Y-62689420D01*
X115932912Y-62922769D01*
X116149145Y-63117678D01*
X116399248Y-63266657D01*
X116673609Y-63363981D01*
X116903500Y-63243314D01*
X116903500Y-62049500D01*
X115710345Y-62049500D01*
X115589024Y-62279390D01*
X112026435Y-62279390D01*
X111703290Y-62118801D01*
X111613810Y-62094531D01*
X111917699Y-61968656D01*
X112218244Y-61767838D01*
X112473838Y-61512244D01*
X112674656Y-61211699D01*
X112719888Y-61102500D01*
X114857878Y-61102500D01*
X114895200Y-61106176D01*
X114932522Y-61102500D01*
X114932533Y-61102500D01*
X115044186Y-61091503D01*
X115187447Y-61048046D01*
X115319476Y-60977474D01*
X115435201Y-60882501D01*
X115459004Y-60853498D01*
X115930197Y-60382304D01*
X116083868Y-60535975D01*
X116266034Y-60657695D01*
X116149145Y-60727322D01*
X115932912Y-60922231D01*
X115758859Y-61155580D01*
X115633675Y-61418401D01*
X115589024Y-61565610D01*
X115710345Y-61795500D01*
X116903500Y-61795500D01*
X116903500Y-61775500D01*
X117157500Y-61775500D01*
X117157500Y-61795500D01*
X117177500Y-61795500D01*
X117177500Y-62049500D01*
X117157500Y-62049500D01*
X117157500Y-63243314D01*
X117387391Y-63363981D01*
X117661752Y-63266657D01*
X117684200Y-63253285D01*
X117684200Y-63674577D01*
X117680524Y-63711900D01*
X117684200Y-63749222D01*
X117684200Y-63749232D01*
X117695197Y-63860885D01*
X117723196Y-63953186D01*
X117738654Y-64004146D01*
X117809226Y-64136176D01*
X117849071Y-64184726D01*
X117904199Y-64251901D01*
X117933202Y-64275704D01*
X118318589Y-64661090D01*
X118318315Y-64661315D01*
X118238963Y-64758006D01*
X118179998Y-64868320D01*
X118143688Y-64988018D01*
X118131428Y-65112500D01*
X118131428Y-66612500D01*
X118138322Y-66682500D01*
X106341500Y-66682500D01*
X106341500Y-65120480D01*
X109950126Y-65120480D01*
X110070014Y-65405336D01*
X110393710Y-65566199D01*
X110742569Y-65660822D01*
X111103184Y-65685567D01*
X111461698Y-65639485D01*
X111804333Y-65524346D01*
X112026986Y-65405336D01*
X112146874Y-65120480D01*
X111048500Y-64022105D01*
X109950126Y-65120480D01*
X106341500Y-65120480D01*
X106341500Y-63897184D01*
X109205433Y-63897184D01*
X109251515Y-64255698D01*
X109366654Y-64598333D01*
X109485664Y-64820986D01*
X109770520Y-64940874D01*
X110868895Y-63842500D01*
X111228105Y-63842500D01*
X112326480Y-64940874D01*
X112611336Y-64820986D01*
X112772199Y-64497290D01*
X112866822Y-64148431D01*
X112891567Y-63787816D01*
X112845485Y-63429302D01*
X112730346Y-63086667D01*
X112611336Y-62864014D01*
X112326480Y-62744126D01*
X111228105Y-63842500D01*
X110868895Y-63842500D01*
X109770520Y-62744126D01*
X109485664Y-62864014D01*
X109324801Y-63187710D01*
X109230178Y-63536569D01*
X109205433Y-63897184D01*
X106341500Y-63897184D01*
X106341500Y-59374919D01*
X106344693Y-59342500D01*
X106331950Y-59213117D01*
X106294210Y-59088707D01*
X106232925Y-58974050D01*
X106150448Y-58873552D01*
X106049950Y-58791075D01*
X105935293Y-58729790D01*
X105810883Y-58692050D01*
X105713919Y-58682500D01*
X105681500Y-58679307D01*
X105649081Y-58682500D01*
X105041500Y-58682500D01*
X105041500Y-55002500D01*
X105649081Y-55002500D01*
X105681500Y-55005693D01*
X105713919Y-55002500D01*
X105810883Y-54992950D01*
X105935293Y-54955210D01*
X106049950Y-54893925D01*
X106150448Y-54811448D01*
X106232925Y-54710950D01*
X106294210Y-54596293D01*
X106331950Y-54471883D01*
X106344693Y-54342500D01*
X106341500Y-54310081D01*
X106341500Y-47002500D01*
X118401682Y-47002500D01*
X118292129Y-47166457D01*
G36*
X149796500Y-58762506D02*
G01*
X149735293Y-58729790D01*
X149610883Y-58692050D01*
X149513919Y-58682500D01*
X149481500Y-58679307D01*
X149449081Y-58682500D01*
X148841500Y-58682500D01*
X148841500Y-55002500D01*
X149449081Y-55002500D01*
X149481500Y-55005693D01*
X149513919Y-55002500D01*
X149610883Y-54992950D01*
X149735293Y-54955210D01*
X149796500Y-54922494D01*
X149796500Y-58762506D01*
G37*
X149796500Y-58762506D02*
X149735293Y-58729790D01*
X149610883Y-58692050D01*
X149513919Y-58682500D01*
X149481500Y-58679307D01*
X149449081Y-58682500D01*
X148841500Y-58682500D01*
X148841500Y-55002500D01*
X149449081Y-55002500D01*
X149481500Y-55005693D01*
X149513919Y-55002500D01*
X149610883Y-54992950D01*
X149735293Y-54955210D01*
X149796500Y-54922494D01*
X149796500Y-58762506D01*
G36*
X162092129Y-68166457D02*
G01*
X161991066Y-68410444D01*
X150141500Y-68432493D01*
X150141500Y-68002500D01*
X162201682Y-68002500D01*
X162092129Y-68166457D01*
G37*
X162092129Y-68166457D02*
X161991066Y-68410444D01*
X150141500Y-68432493D01*
X150141500Y-68002500D01*
X162201682Y-68002500D01*
X162092129Y-68166457D01*
G36*
X162092129Y-47166457D02*
G01*
X161987725Y-47418511D01*
X161934500Y-47686089D01*
X161934500Y-47958911D01*
X161987725Y-48226489D01*
X162092129Y-48478543D01*
X162243701Y-48705386D01*
X162436614Y-48898299D01*
X162663457Y-49049871D01*
X162915511Y-49154275D01*
X163183089Y-49207500D01*
X163455911Y-49207500D01*
X163723489Y-49154275D01*
X163975543Y-49049871D01*
X164202386Y-48898299D01*
X164395299Y-48705386D01*
X164546871Y-48478543D01*
X164589500Y-48375627D01*
X164632129Y-48478543D01*
X164783701Y-48705386D01*
X164976614Y-48898299D01*
X165203457Y-49049871D01*
X165455511Y-49154275D01*
X165723089Y-49207500D01*
X165995911Y-49207500D01*
X166263489Y-49154275D01*
X166515543Y-49049871D01*
X166742386Y-48898299D01*
X166935299Y-48705386D01*
X167086871Y-48478543D01*
X167129500Y-48375627D01*
X167172129Y-48478543D01*
X167323701Y-48705386D01*
X167516614Y-48898299D01*
X167639500Y-48980409D01*
X167639500Y-49720677D01*
X167635824Y-49758000D01*
X167639500Y-49795322D01*
X167639500Y-49795332D01*
X167650497Y-49906985D01*
X167676130Y-49991486D01*
X167693954Y-50050246D01*
X167764526Y-50182276D01*
X167804371Y-50230826D01*
X167859499Y-50298001D01*
X167888503Y-50321804D01*
X169257800Y-51691102D01*
X169257800Y-51813639D01*
X169297574Y-52013598D01*
X169338955Y-52113500D01*
X163431602Y-52113500D01*
X162569604Y-51251502D01*
X162545801Y-51222499D01*
X162430076Y-51127526D01*
X162318572Y-51067925D01*
X162318572Y-50912500D01*
X162306312Y-50788018D01*
X162270002Y-50668320D01*
X162211037Y-50558006D01*
X162131685Y-50461315D01*
X162034994Y-50381963D01*
X161924680Y-50322998D01*
X161804982Y-50286688D01*
X161680500Y-50274428D01*
X159980500Y-50274428D01*
X159856018Y-50286688D01*
X159736320Y-50322998D01*
X159626006Y-50381963D01*
X159529315Y-50461315D01*
X159484015Y-50516513D01*
X158299004Y-49331503D01*
X158275201Y-49302499D01*
X158159476Y-49207526D01*
X158027447Y-49136954D01*
X157884186Y-49093497D01*
X157772533Y-49082500D01*
X157772522Y-49082500D01*
X157735200Y-49078824D01*
X157697878Y-49082500D01*
X156686572Y-49082500D01*
X156686572Y-48642500D01*
X156674312Y-48518018D01*
X156638002Y-48398320D01*
X156579037Y-48288006D01*
X156499685Y-48191315D01*
X156402994Y-48111963D01*
X156292680Y-48052998D01*
X156172982Y-48016688D01*
X156048500Y-48004428D01*
X153648500Y-48004428D01*
X153524018Y-48016688D01*
X153404320Y-48052998D01*
X153294006Y-48111963D01*
X153197315Y-48191315D01*
X153117963Y-48288006D01*
X153058998Y-48398320D01*
X153022688Y-48518018D01*
X153010428Y-48642500D01*
X153010428Y-51042500D01*
X153022688Y-51166982D01*
X153058998Y-51286680D01*
X153117963Y-51396994D01*
X153197315Y-51493685D01*
X153294006Y-51573037D01*
X153404320Y-51632002D01*
X153524018Y-51668312D01*
X153648500Y-51680572D01*
X154065662Y-51680572D01*
X153979301Y-51716344D01*
X153678756Y-51917162D01*
X153423162Y-52172756D01*
X153222344Y-52473301D01*
X153084018Y-52807250D01*
X153013500Y-53161768D01*
X153013500Y-53523232D01*
X153084018Y-53877750D01*
X153222344Y-54211699D01*
X153423162Y-54512244D01*
X153678756Y-54767838D01*
X153979301Y-54968656D01*
X154278287Y-55092500D01*
X153979301Y-55216344D01*
X153678756Y-55417162D01*
X153423162Y-55672756D01*
X153222344Y-55973301D01*
X153084018Y-56307250D01*
X153013500Y-56661768D01*
X153013500Y-57023232D01*
X153084018Y-57377750D01*
X153222344Y-57711699D01*
X153423162Y-58012244D01*
X153678756Y-58267838D01*
X153979301Y-58468656D01*
X154278287Y-58592500D01*
X153979301Y-58716344D01*
X153678756Y-58917162D01*
X153423162Y-59172756D01*
X153222344Y-59473301D01*
X153084018Y-59807250D01*
X153013500Y-60161768D01*
X153013500Y-60523232D01*
X153084018Y-60877750D01*
X153222344Y-61211699D01*
X153423162Y-61512244D01*
X153678756Y-61767838D01*
X153979301Y-61968656D01*
X154285989Y-62095690D01*
X154092667Y-62160654D01*
X153870014Y-62279664D01*
X153750126Y-62564520D01*
X154848500Y-63662895D01*
X155946874Y-62564520D01*
X155826986Y-62279664D01*
X155826435Y-62279390D01*
X159389024Y-62279390D01*
X159433675Y-62426599D01*
X159558859Y-62689420D01*
X159732912Y-62922769D01*
X159949145Y-63117678D01*
X160199248Y-63266657D01*
X160473609Y-63363981D01*
X160703500Y-63243314D01*
X160703500Y-62049500D01*
X159510345Y-62049500D01*
X159389024Y-62279390D01*
X155826435Y-62279390D01*
X155503290Y-62118801D01*
X155413810Y-62094531D01*
X155717699Y-61968656D01*
X156018244Y-61767838D01*
X156273838Y-61512244D01*
X156474656Y-61211699D01*
X156519888Y-61102500D01*
X158657878Y-61102500D01*
X158695200Y-61106176D01*
X158732522Y-61102500D01*
X158732533Y-61102500D01*
X158844186Y-61091503D01*
X158987447Y-61048046D01*
X159119476Y-60977474D01*
X159235201Y-60882501D01*
X159259004Y-60853498D01*
X159730197Y-60382304D01*
X159883868Y-60535975D01*
X160066034Y-60657695D01*
X159949145Y-60727322D01*
X159732912Y-60922231D01*
X159558859Y-61155580D01*
X159433675Y-61418401D01*
X159389024Y-61565610D01*
X159510345Y-61795500D01*
X160703500Y-61795500D01*
X160703500Y-61775500D01*
X160957500Y-61775500D01*
X160957500Y-61795500D01*
X160977500Y-61795500D01*
X160977500Y-62049500D01*
X160957500Y-62049500D01*
X160957500Y-63243314D01*
X161187391Y-63363981D01*
X161461752Y-63266657D01*
X161484200Y-63253285D01*
X161484200Y-63674577D01*
X161480524Y-63711900D01*
X161484200Y-63749222D01*
X161484200Y-63749232D01*
X161495197Y-63860885D01*
X161523196Y-63953186D01*
X161538654Y-64004146D01*
X161609226Y-64136176D01*
X161649071Y-64184726D01*
X161704199Y-64251901D01*
X161733202Y-64275704D01*
X162118589Y-64661090D01*
X162118315Y-64661315D01*
X162038963Y-64758006D01*
X161979998Y-64868320D01*
X161943688Y-64988018D01*
X161931428Y-65112500D01*
X161931428Y-66612500D01*
X161938322Y-66682500D01*
X150141500Y-66682500D01*
X150141500Y-65120480D01*
X153750126Y-65120480D01*
X153870014Y-65405336D01*
X154193710Y-65566199D01*
X154542569Y-65660822D01*
X154903184Y-65685567D01*
X155261698Y-65639485D01*
X155604333Y-65524346D01*
X155826986Y-65405336D01*
X155946874Y-65120480D01*
X154848500Y-64022105D01*
X153750126Y-65120480D01*
X150141500Y-65120480D01*
X150141500Y-63897184D01*
X153005433Y-63897184D01*
X153051515Y-64255698D01*
X153166654Y-64598333D01*
X153285664Y-64820986D01*
X153570520Y-64940874D01*
X154668895Y-63842500D01*
X155028105Y-63842500D01*
X156126480Y-64940874D01*
X156411336Y-64820986D01*
X156572199Y-64497290D01*
X156666822Y-64148431D01*
X156691567Y-63787816D01*
X156645485Y-63429302D01*
X156530346Y-63086667D01*
X156411336Y-62864014D01*
X156126480Y-62744126D01*
X155028105Y-63842500D01*
X154668895Y-63842500D01*
X153570520Y-62744126D01*
X153285664Y-62864014D01*
X153124801Y-63187710D01*
X153030178Y-63536569D01*
X153005433Y-63897184D01*
X150141500Y-63897184D01*
X150141500Y-59374919D01*
X150144693Y-59342500D01*
X150131950Y-59213117D01*
X150094210Y-59088707D01*
X150032925Y-58974050D01*
X149950448Y-58873552D01*
X149849950Y-58791075D01*
X149735293Y-58729790D01*
X149610883Y-58692050D01*
X149513919Y-58682500D01*
X149481500Y-58679307D01*
X149449081Y-58682500D01*
X148841500Y-58682500D01*
X148841500Y-55002500D01*
X149449081Y-55002500D01*
X149481500Y-55005693D01*
X149513919Y-55002500D01*
X149610883Y-54992950D01*
X149735293Y-54955210D01*
X149849950Y-54893925D01*
X149950448Y-54811448D01*
X150032925Y-54710950D01*
X150094210Y-54596293D01*
X150131950Y-54471883D01*
X150144693Y-54342500D01*
X150141500Y-54310081D01*
X150141500Y-47002500D01*
X162201682Y-47002500D01*
X162092129Y-47166457D01*
G37*
X162092129Y-47166457D02*
X161987725Y-47418511D01*
X161934500Y-47686089D01*
X161934500Y-47958911D01*
X161987725Y-48226489D01*
X162092129Y-48478543D01*
X162243701Y-48705386D01*
X162436614Y-48898299D01*
X162663457Y-49049871D01*
X162915511Y-49154275D01*
X163183089Y-49207500D01*
X163455911Y-49207500D01*
X163723489Y-49154275D01*
X163975543Y-49049871D01*
X164202386Y-48898299D01*
X164395299Y-48705386D01*
X164546871Y-48478543D01*
X164589500Y-48375627D01*
X164632129Y-48478543D01*
X164783701Y-48705386D01*
X164976614Y-48898299D01*
X165203457Y-49049871D01*
X165455511Y-49154275D01*
X165723089Y-49207500D01*
X165995911Y-49207500D01*
X166263489Y-49154275D01*
X166515543Y-49049871D01*
X166742386Y-48898299D01*
X166935299Y-48705386D01*
X167086871Y-48478543D01*
X167129500Y-48375627D01*
X167172129Y-48478543D01*
X167323701Y-48705386D01*
X167516614Y-48898299D01*
X167639500Y-48980409D01*
X167639500Y-49720677D01*
X167635824Y-49758000D01*
X167639500Y-49795322D01*
X167639500Y-49795332D01*
X167650497Y-49906985D01*
X167676130Y-49991486D01*
X167693954Y-50050246D01*
X167764526Y-50182276D01*
X167804371Y-50230826D01*
X167859499Y-50298001D01*
X167888503Y-50321804D01*
X169257800Y-51691102D01*
X169257800Y-51813639D01*
X169297574Y-52013598D01*
X169338955Y-52113500D01*
X163431602Y-52113500D01*
X162569604Y-51251502D01*
X162545801Y-51222499D01*
X162430076Y-51127526D01*
X162318572Y-51067925D01*
X162318572Y-50912500D01*
X162306312Y-50788018D01*
X162270002Y-50668320D01*
X162211037Y-50558006D01*
X162131685Y-50461315D01*
X162034994Y-50381963D01*
X161924680Y-50322998D01*
X161804982Y-50286688D01*
X161680500Y-50274428D01*
X159980500Y-50274428D01*
X159856018Y-50286688D01*
X159736320Y-50322998D01*
X159626006Y-50381963D01*
X159529315Y-50461315D01*
X159484015Y-50516513D01*
X158299004Y-49331503D01*
X158275201Y-49302499D01*
X158159476Y-49207526D01*
X158027447Y-49136954D01*
X157884186Y-49093497D01*
X157772533Y-49082500D01*
X157772522Y-49082500D01*
X157735200Y-49078824D01*
X157697878Y-49082500D01*
X156686572Y-49082500D01*
X156686572Y-48642500D01*
X156674312Y-48518018D01*
X156638002Y-48398320D01*
X156579037Y-48288006D01*
X156499685Y-48191315D01*
X156402994Y-48111963D01*
X156292680Y-48052998D01*
X156172982Y-48016688D01*
X156048500Y-48004428D01*
X153648500Y-48004428D01*
X153524018Y-48016688D01*
X153404320Y-48052998D01*
X153294006Y-48111963D01*
X153197315Y-48191315D01*
X153117963Y-48288006D01*
X153058998Y-48398320D01*
X153022688Y-48518018D01*
X153010428Y-48642500D01*
X153010428Y-51042500D01*
X153022688Y-51166982D01*
X153058998Y-51286680D01*
X153117963Y-51396994D01*
X153197315Y-51493685D01*
X153294006Y-51573037D01*
X153404320Y-51632002D01*
X153524018Y-51668312D01*
X153648500Y-51680572D01*
X154065662Y-51680572D01*
X153979301Y-51716344D01*
X153678756Y-51917162D01*
X153423162Y-52172756D01*
X153222344Y-52473301D01*
X153084018Y-52807250D01*
X153013500Y-53161768D01*
X153013500Y-53523232D01*
X153084018Y-53877750D01*
X153222344Y-54211699D01*
X153423162Y-54512244D01*
X153678756Y-54767838D01*
X153979301Y-54968656D01*
X154278287Y-55092500D01*
X153979301Y-55216344D01*
X153678756Y-55417162D01*
X153423162Y-55672756D01*
X153222344Y-55973301D01*
X153084018Y-56307250D01*
X153013500Y-56661768D01*
X153013500Y-57023232D01*
X153084018Y-57377750D01*
X153222344Y-57711699D01*
X153423162Y-58012244D01*
X153678756Y-58267838D01*
X153979301Y-58468656D01*
X154278287Y-58592500D01*
X153979301Y-58716344D01*
X153678756Y-58917162D01*
X153423162Y-59172756D01*
X153222344Y-59473301D01*
X153084018Y-59807250D01*
X153013500Y-60161768D01*
X153013500Y-60523232D01*
X153084018Y-60877750D01*
X153222344Y-61211699D01*
X153423162Y-61512244D01*
X153678756Y-61767838D01*
X153979301Y-61968656D01*
X154285989Y-62095690D01*
X154092667Y-62160654D01*
X153870014Y-62279664D01*
X153750126Y-62564520D01*
X154848500Y-63662895D01*
X155946874Y-62564520D01*
X155826986Y-62279664D01*
X155826435Y-62279390D01*
X159389024Y-62279390D01*
X159433675Y-62426599D01*
X159558859Y-62689420D01*
X159732912Y-62922769D01*
X159949145Y-63117678D01*
X160199248Y-63266657D01*
X160473609Y-63363981D01*
X160703500Y-63243314D01*
X160703500Y-62049500D01*
X159510345Y-62049500D01*
X159389024Y-62279390D01*
X155826435Y-62279390D01*
X155503290Y-62118801D01*
X155413810Y-62094531D01*
X155717699Y-61968656D01*
X156018244Y-61767838D01*
X156273838Y-61512244D01*
X156474656Y-61211699D01*
X156519888Y-61102500D01*
X158657878Y-61102500D01*
X158695200Y-61106176D01*
X158732522Y-61102500D01*
X158732533Y-61102500D01*
X158844186Y-61091503D01*
X158987447Y-61048046D01*
X159119476Y-60977474D01*
X159235201Y-60882501D01*
X159259004Y-60853498D01*
X159730197Y-60382304D01*
X159883868Y-60535975D01*
X160066034Y-60657695D01*
X159949145Y-60727322D01*
X159732912Y-60922231D01*
X159558859Y-61155580D01*
X159433675Y-61418401D01*
X159389024Y-61565610D01*
X159510345Y-61795500D01*
X160703500Y-61795500D01*
X160703500Y-61775500D01*
X160957500Y-61775500D01*
X160957500Y-61795500D01*
X160977500Y-61795500D01*
X160977500Y-62049500D01*
X160957500Y-62049500D01*
X160957500Y-63243314D01*
X161187391Y-63363981D01*
X161461752Y-63266657D01*
X161484200Y-63253285D01*
X161484200Y-63674577D01*
X161480524Y-63711900D01*
X161484200Y-63749222D01*
X161484200Y-63749232D01*
X161495197Y-63860885D01*
X161523196Y-63953186D01*
X161538654Y-64004146D01*
X161609226Y-64136176D01*
X161649071Y-64184726D01*
X161704199Y-64251901D01*
X161733202Y-64275704D01*
X162118589Y-64661090D01*
X162118315Y-64661315D01*
X162038963Y-64758006D01*
X161979998Y-64868320D01*
X161943688Y-64988018D01*
X161931428Y-65112500D01*
X161931428Y-66612500D01*
X161938322Y-66682500D01*
X150141500Y-66682500D01*
X150141500Y-65120480D01*
X153750126Y-65120480D01*
X153870014Y-65405336D01*
X154193710Y-65566199D01*
X154542569Y-65660822D01*
X154903184Y-65685567D01*
X155261698Y-65639485D01*
X155604333Y-65524346D01*
X155826986Y-65405336D01*
X155946874Y-65120480D01*
X154848500Y-64022105D01*
X153750126Y-65120480D01*
X150141500Y-65120480D01*
X150141500Y-63897184D01*
X153005433Y-63897184D01*
X153051515Y-64255698D01*
X153166654Y-64598333D01*
X153285664Y-64820986D01*
X153570520Y-64940874D01*
X154668895Y-63842500D01*
X155028105Y-63842500D01*
X156126480Y-64940874D01*
X156411336Y-64820986D01*
X156572199Y-64497290D01*
X156666822Y-64148431D01*
X156691567Y-63787816D01*
X156645485Y-63429302D01*
X156530346Y-63086667D01*
X156411336Y-62864014D01*
X156126480Y-62744126D01*
X155028105Y-63842500D01*
X154668895Y-63842500D01*
X153570520Y-62744126D01*
X153285664Y-62864014D01*
X153124801Y-63187710D01*
X153030178Y-63536569D01*
X153005433Y-63897184D01*
X150141500Y-63897184D01*
X150141500Y-59374919D01*
X150144693Y-59342500D01*
X150131950Y-59213117D01*
X150094210Y-59088707D01*
X150032925Y-58974050D01*
X149950448Y-58873552D01*
X149849950Y-58791075D01*
X149735293Y-58729790D01*
X149610883Y-58692050D01*
X149513919Y-58682500D01*
X149481500Y-58679307D01*
X149449081Y-58682500D01*
X148841500Y-58682500D01*
X148841500Y-55002500D01*
X149449081Y-55002500D01*
X149481500Y-55005693D01*
X149513919Y-55002500D01*
X149610883Y-54992950D01*
X149735293Y-54955210D01*
X149849950Y-54893925D01*
X149950448Y-54811448D01*
X150032925Y-54710950D01*
X150094210Y-54596293D01*
X150131950Y-54471883D01*
X150144693Y-54342500D01*
X150141500Y-54310081D01*
X150141500Y-47002500D01*
X162201682Y-47002500D01*
X162092129Y-47166457D01*
G36*
X118292129Y-89166457D02*
G01*
X118191066Y-89410444D01*
X106341500Y-89432493D01*
X106341500Y-89002500D01*
X118401682Y-89002500D01*
X118292129Y-89166457D01*
G37*
X118292129Y-89166457D02*
X118191066Y-89410444D01*
X106341500Y-89432493D01*
X106341500Y-89002500D01*
X118401682Y-89002500D01*
X118292129Y-89166457D01*
G36*
X118292129Y-68166457D02*
G01*
X118187725Y-68418511D01*
X118134500Y-68686089D01*
X118134500Y-68958911D01*
X118187725Y-69226489D01*
X118292129Y-69478543D01*
X118443701Y-69705386D01*
X118636614Y-69898299D01*
X118863457Y-70049871D01*
X119115511Y-70154275D01*
X119383089Y-70207500D01*
X119655911Y-70207500D01*
X119923489Y-70154275D01*
X120175543Y-70049871D01*
X120402386Y-69898299D01*
X120595299Y-69705386D01*
X120746871Y-69478543D01*
X120789500Y-69375627D01*
X120832129Y-69478543D01*
X120983701Y-69705386D01*
X121176614Y-69898299D01*
X121403457Y-70049871D01*
X121655511Y-70154275D01*
X121923089Y-70207500D01*
X122195911Y-70207500D01*
X122463489Y-70154275D01*
X122715543Y-70049871D01*
X122942386Y-69898299D01*
X123135299Y-69705386D01*
X123286871Y-69478543D01*
X123329500Y-69375627D01*
X123372129Y-69478543D01*
X123523701Y-69705386D01*
X123716614Y-69898299D01*
X123839500Y-69980409D01*
X123839500Y-70720677D01*
X123835824Y-70758000D01*
X123839500Y-70795322D01*
X123839500Y-70795332D01*
X123850497Y-70906985D01*
X123876130Y-70991486D01*
X123893954Y-71050246D01*
X123964526Y-71182276D01*
X124004371Y-71230826D01*
X124059499Y-71298001D01*
X124088503Y-71321804D01*
X125457800Y-72691102D01*
X125457800Y-72813639D01*
X125497574Y-73013598D01*
X125538955Y-73113500D01*
X119631602Y-73113500D01*
X118769604Y-72251502D01*
X118745801Y-72222499D01*
X118630076Y-72127526D01*
X118518572Y-72067925D01*
X118518572Y-71912500D01*
X118506312Y-71788018D01*
X118470002Y-71668320D01*
X118411037Y-71558006D01*
X118331685Y-71461315D01*
X118234994Y-71381963D01*
X118124680Y-71322998D01*
X118004982Y-71286688D01*
X117880500Y-71274428D01*
X116180500Y-71274428D01*
X116056018Y-71286688D01*
X115936320Y-71322998D01*
X115826006Y-71381963D01*
X115729315Y-71461315D01*
X115684015Y-71516513D01*
X114499004Y-70331503D01*
X114475201Y-70302499D01*
X114359476Y-70207526D01*
X114227447Y-70136954D01*
X114084186Y-70093497D01*
X113972533Y-70082500D01*
X113972522Y-70082500D01*
X113935200Y-70078824D01*
X113897878Y-70082500D01*
X112886572Y-70082500D01*
X112886572Y-69642500D01*
X112874312Y-69518018D01*
X112838002Y-69398320D01*
X112779037Y-69288006D01*
X112699685Y-69191315D01*
X112602994Y-69111963D01*
X112492680Y-69052998D01*
X112372982Y-69016688D01*
X112248500Y-69004428D01*
X109848500Y-69004428D01*
X109724018Y-69016688D01*
X109604320Y-69052998D01*
X109494006Y-69111963D01*
X109397315Y-69191315D01*
X109317963Y-69288006D01*
X109258998Y-69398320D01*
X109222688Y-69518018D01*
X109210428Y-69642500D01*
X109210428Y-72042500D01*
X109222688Y-72166982D01*
X109258998Y-72286680D01*
X109317963Y-72396994D01*
X109397315Y-72493685D01*
X109494006Y-72573037D01*
X109604320Y-72632002D01*
X109724018Y-72668312D01*
X109848500Y-72680572D01*
X110265662Y-72680572D01*
X110179301Y-72716344D01*
X109878756Y-72917162D01*
X109623162Y-73172756D01*
X109422344Y-73473301D01*
X109284018Y-73807250D01*
X109213500Y-74161768D01*
X109213500Y-74523232D01*
X109284018Y-74877750D01*
X109422344Y-75211699D01*
X109623162Y-75512244D01*
X109878756Y-75767838D01*
X110179301Y-75968656D01*
X110478287Y-76092500D01*
X110179301Y-76216344D01*
X109878756Y-76417162D01*
X109623162Y-76672756D01*
X109422344Y-76973301D01*
X109284018Y-77307250D01*
X109213500Y-77661768D01*
X109213500Y-78023232D01*
X109284018Y-78377750D01*
X109422344Y-78711699D01*
X109623162Y-79012244D01*
X109878756Y-79267838D01*
X110179301Y-79468656D01*
X110478287Y-79592500D01*
X110179301Y-79716344D01*
X109878756Y-79917162D01*
X109623162Y-80172756D01*
X109422344Y-80473301D01*
X109284018Y-80807250D01*
X109213500Y-81161768D01*
X109213500Y-81523232D01*
X109284018Y-81877750D01*
X109422344Y-82211699D01*
X109623162Y-82512244D01*
X109878756Y-82767838D01*
X110179301Y-82968656D01*
X110485989Y-83095690D01*
X110292667Y-83160654D01*
X110070014Y-83279664D01*
X109950126Y-83564520D01*
X111048500Y-84662895D01*
X112146874Y-83564520D01*
X112026986Y-83279664D01*
X112026435Y-83279390D01*
X115589024Y-83279390D01*
X115633675Y-83426599D01*
X115758859Y-83689420D01*
X115932912Y-83922769D01*
X116149145Y-84117678D01*
X116399248Y-84266657D01*
X116673609Y-84363981D01*
X116903500Y-84243314D01*
X116903500Y-83049500D01*
X115710345Y-83049500D01*
X115589024Y-83279390D01*
X112026435Y-83279390D01*
X111703290Y-83118801D01*
X111613810Y-83094531D01*
X111917699Y-82968656D01*
X112218244Y-82767838D01*
X112473838Y-82512244D01*
X112674656Y-82211699D01*
X112719888Y-82102500D01*
X114857878Y-82102500D01*
X114895200Y-82106176D01*
X114932522Y-82102500D01*
X114932533Y-82102500D01*
X115044186Y-82091503D01*
X115187447Y-82048046D01*
X115319476Y-81977474D01*
X115435201Y-81882501D01*
X115459004Y-81853498D01*
X115930197Y-81382304D01*
X116083868Y-81535975D01*
X116266034Y-81657695D01*
X116149145Y-81727322D01*
X115932912Y-81922231D01*
X115758859Y-82155580D01*
X115633675Y-82418401D01*
X115589024Y-82565610D01*
X115710345Y-82795500D01*
X116903500Y-82795500D01*
X116903500Y-82775500D01*
X117157500Y-82775500D01*
X117157500Y-82795500D01*
X117177500Y-82795500D01*
X117177500Y-83049500D01*
X117157500Y-83049500D01*
X117157500Y-84243314D01*
X117387391Y-84363981D01*
X117661752Y-84266657D01*
X117684200Y-84253285D01*
X117684200Y-84674577D01*
X117680524Y-84711900D01*
X117684200Y-84749222D01*
X117684200Y-84749232D01*
X117695197Y-84860885D01*
X117723196Y-84953186D01*
X117738654Y-85004146D01*
X117809226Y-85136176D01*
X117849071Y-85184726D01*
X117904199Y-85251901D01*
X117933202Y-85275704D01*
X118318589Y-85661090D01*
X118318315Y-85661315D01*
X118238963Y-85758006D01*
X118179998Y-85868320D01*
X118143688Y-85988018D01*
X118131428Y-86112500D01*
X118131428Y-87612500D01*
X118138322Y-87682500D01*
X106341500Y-87682500D01*
X106341500Y-86120480D01*
X109950126Y-86120480D01*
X110070014Y-86405336D01*
X110393710Y-86566199D01*
X110742569Y-86660822D01*
X111103184Y-86685567D01*
X111461698Y-86639485D01*
X111804333Y-86524346D01*
X112026986Y-86405336D01*
X112146874Y-86120480D01*
X111048500Y-85022105D01*
X109950126Y-86120480D01*
X106341500Y-86120480D01*
X106341500Y-84897184D01*
X109205433Y-84897184D01*
X109251515Y-85255698D01*
X109366654Y-85598333D01*
X109485664Y-85820986D01*
X109770520Y-85940874D01*
X110868895Y-84842500D01*
X111228105Y-84842500D01*
X112326480Y-85940874D01*
X112611336Y-85820986D01*
X112772199Y-85497290D01*
X112866822Y-85148431D01*
X112891567Y-84787816D01*
X112845485Y-84429302D01*
X112730346Y-84086667D01*
X112611336Y-83864014D01*
X112326480Y-83744126D01*
X111228105Y-84842500D01*
X110868895Y-84842500D01*
X109770520Y-83744126D01*
X109485664Y-83864014D01*
X109324801Y-84187710D01*
X109230178Y-84536569D01*
X109205433Y-84897184D01*
X106341500Y-84897184D01*
X106341500Y-80374919D01*
X106344693Y-80342500D01*
X106331950Y-80213117D01*
X106294210Y-80088707D01*
X106232925Y-79974050D01*
X106150448Y-79873552D01*
X106049950Y-79791075D01*
X105935293Y-79729790D01*
X105810883Y-79692050D01*
X105713919Y-79682500D01*
X105681500Y-79679307D01*
X105649081Y-79682500D01*
X105041500Y-79682500D01*
X105041500Y-76002500D01*
X105649081Y-76002500D01*
X105681500Y-76005693D01*
X105713919Y-76002500D01*
X105810883Y-75992950D01*
X105935293Y-75955210D01*
X106049950Y-75893925D01*
X106150448Y-75811448D01*
X106232925Y-75710950D01*
X106294210Y-75596293D01*
X106331950Y-75471883D01*
X106344693Y-75342500D01*
X106341500Y-75310081D01*
X106341500Y-68002500D01*
X118401682Y-68002500D01*
X118292129Y-68166457D01*
G37*
X118292129Y-68166457D02*
X118187725Y-68418511D01*
X118134500Y-68686089D01*
X118134500Y-68958911D01*
X118187725Y-69226489D01*
X118292129Y-69478543D01*
X118443701Y-69705386D01*
X118636614Y-69898299D01*
X118863457Y-70049871D01*
X119115511Y-70154275D01*
X119383089Y-70207500D01*
X119655911Y-70207500D01*
X119923489Y-70154275D01*
X120175543Y-70049871D01*
X120402386Y-69898299D01*
X120595299Y-69705386D01*
X120746871Y-69478543D01*
X120789500Y-69375627D01*
X120832129Y-69478543D01*
X120983701Y-69705386D01*
X121176614Y-69898299D01*
X121403457Y-70049871D01*
X121655511Y-70154275D01*
X121923089Y-70207500D01*
X122195911Y-70207500D01*
X122463489Y-70154275D01*
X122715543Y-70049871D01*
X122942386Y-69898299D01*
X123135299Y-69705386D01*
X123286871Y-69478543D01*
X123329500Y-69375627D01*
X123372129Y-69478543D01*
X123523701Y-69705386D01*
X123716614Y-69898299D01*
X123839500Y-69980409D01*
X123839500Y-70720677D01*
X123835824Y-70758000D01*
X123839500Y-70795322D01*
X123839500Y-70795332D01*
X123850497Y-70906985D01*
X123876130Y-70991486D01*
X123893954Y-71050246D01*
X123964526Y-71182276D01*
X124004371Y-71230826D01*
X124059499Y-71298001D01*
X124088503Y-71321804D01*
X125457800Y-72691102D01*
X125457800Y-72813639D01*
X125497574Y-73013598D01*
X125538955Y-73113500D01*
X119631602Y-73113500D01*
X118769604Y-72251502D01*
X118745801Y-72222499D01*
X118630076Y-72127526D01*
X118518572Y-72067925D01*
X118518572Y-71912500D01*
X118506312Y-71788018D01*
X118470002Y-71668320D01*
X118411037Y-71558006D01*
X118331685Y-71461315D01*
X118234994Y-71381963D01*
X118124680Y-71322998D01*
X118004982Y-71286688D01*
X117880500Y-71274428D01*
X116180500Y-71274428D01*
X116056018Y-71286688D01*
X115936320Y-71322998D01*
X115826006Y-71381963D01*
X115729315Y-71461315D01*
X115684015Y-71516513D01*
X114499004Y-70331503D01*
X114475201Y-70302499D01*
X114359476Y-70207526D01*
X114227447Y-70136954D01*
X114084186Y-70093497D01*
X113972533Y-70082500D01*
X113972522Y-70082500D01*
X113935200Y-70078824D01*
X113897878Y-70082500D01*
X112886572Y-70082500D01*
X112886572Y-69642500D01*
X112874312Y-69518018D01*
X112838002Y-69398320D01*
X112779037Y-69288006D01*
X112699685Y-69191315D01*
X112602994Y-69111963D01*
X112492680Y-69052998D01*
X112372982Y-69016688D01*
X112248500Y-69004428D01*
X109848500Y-69004428D01*
X109724018Y-69016688D01*
X109604320Y-69052998D01*
X109494006Y-69111963D01*
X109397315Y-69191315D01*
X109317963Y-69288006D01*
X109258998Y-69398320D01*
X109222688Y-69518018D01*
X109210428Y-69642500D01*
X109210428Y-72042500D01*
X109222688Y-72166982D01*
X109258998Y-72286680D01*
X109317963Y-72396994D01*
X109397315Y-72493685D01*
X109494006Y-72573037D01*
X109604320Y-72632002D01*
X109724018Y-72668312D01*
X109848500Y-72680572D01*
X110265662Y-72680572D01*
X110179301Y-72716344D01*
X109878756Y-72917162D01*
X109623162Y-73172756D01*
X109422344Y-73473301D01*
X109284018Y-73807250D01*
X109213500Y-74161768D01*
X109213500Y-74523232D01*
X109284018Y-74877750D01*
X109422344Y-75211699D01*
X109623162Y-75512244D01*
X109878756Y-75767838D01*
X110179301Y-75968656D01*
X110478287Y-76092500D01*
X110179301Y-76216344D01*
X109878756Y-76417162D01*
X109623162Y-76672756D01*
X109422344Y-76973301D01*
X109284018Y-77307250D01*
X109213500Y-77661768D01*
X109213500Y-78023232D01*
X109284018Y-78377750D01*
X109422344Y-78711699D01*
X109623162Y-79012244D01*
X109878756Y-79267838D01*
X110179301Y-79468656D01*
X110478287Y-79592500D01*
X110179301Y-79716344D01*
X109878756Y-79917162D01*
X109623162Y-80172756D01*
X109422344Y-80473301D01*
X109284018Y-80807250D01*
X109213500Y-81161768D01*
X109213500Y-81523232D01*
X109284018Y-81877750D01*
X109422344Y-82211699D01*
X109623162Y-82512244D01*
X109878756Y-82767838D01*
X110179301Y-82968656D01*
X110485989Y-83095690D01*
X110292667Y-83160654D01*
X110070014Y-83279664D01*
X109950126Y-83564520D01*
X111048500Y-84662895D01*
X112146874Y-83564520D01*
X112026986Y-83279664D01*
X112026435Y-83279390D01*
X115589024Y-83279390D01*
X115633675Y-83426599D01*
X115758859Y-83689420D01*
X115932912Y-83922769D01*
X116149145Y-84117678D01*
X116399248Y-84266657D01*
X116673609Y-84363981D01*
X116903500Y-84243314D01*
X116903500Y-83049500D01*
X115710345Y-83049500D01*
X115589024Y-83279390D01*
X112026435Y-83279390D01*
X111703290Y-83118801D01*
X111613810Y-83094531D01*
X111917699Y-82968656D01*
X112218244Y-82767838D01*
X112473838Y-82512244D01*
X112674656Y-82211699D01*
X112719888Y-82102500D01*
X114857878Y-82102500D01*
X114895200Y-82106176D01*
X114932522Y-82102500D01*
X114932533Y-82102500D01*
X115044186Y-82091503D01*
X115187447Y-82048046D01*
X115319476Y-81977474D01*
X115435201Y-81882501D01*
X115459004Y-81853498D01*
X115930197Y-81382304D01*
X116083868Y-81535975D01*
X116266034Y-81657695D01*
X116149145Y-81727322D01*
X115932912Y-81922231D01*
X115758859Y-82155580D01*
X115633675Y-82418401D01*
X115589024Y-82565610D01*
X115710345Y-82795500D01*
X116903500Y-82795500D01*
X116903500Y-82775500D01*
X117157500Y-82775500D01*
X117157500Y-82795500D01*
X117177500Y-82795500D01*
X117177500Y-83049500D01*
X117157500Y-83049500D01*
X117157500Y-84243314D01*
X117387391Y-84363981D01*
X117661752Y-84266657D01*
X117684200Y-84253285D01*
X117684200Y-84674577D01*
X117680524Y-84711900D01*
X117684200Y-84749222D01*
X117684200Y-84749232D01*
X117695197Y-84860885D01*
X117723196Y-84953186D01*
X117738654Y-85004146D01*
X117809226Y-85136176D01*
X117849071Y-85184726D01*
X117904199Y-85251901D01*
X117933202Y-85275704D01*
X118318589Y-85661090D01*
X118318315Y-85661315D01*
X118238963Y-85758006D01*
X118179998Y-85868320D01*
X118143688Y-85988018D01*
X118131428Y-86112500D01*
X118131428Y-87612500D01*
X118138322Y-87682500D01*
X106341500Y-87682500D01*
X106341500Y-86120480D01*
X109950126Y-86120480D01*
X110070014Y-86405336D01*
X110393710Y-86566199D01*
X110742569Y-86660822D01*
X111103184Y-86685567D01*
X111461698Y-86639485D01*
X111804333Y-86524346D01*
X112026986Y-86405336D01*
X112146874Y-86120480D01*
X111048500Y-85022105D01*
X109950126Y-86120480D01*
X106341500Y-86120480D01*
X106341500Y-84897184D01*
X109205433Y-84897184D01*
X109251515Y-85255698D01*
X109366654Y-85598333D01*
X109485664Y-85820986D01*
X109770520Y-85940874D01*
X110868895Y-84842500D01*
X111228105Y-84842500D01*
X112326480Y-85940874D01*
X112611336Y-85820986D01*
X112772199Y-85497290D01*
X112866822Y-85148431D01*
X112891567Y-84787816D01*
X112845485Y-84429302D01*
X112730346Y-84086667D01*
X112611336Y-83864014D01*
X112326480Y-83744126D01*
X111228105Y-84842500D01*
X110868895Y-84842500D01*
X109770520Y-83744126D01*
X109485664Y-83864014D01*
X109324801Y-84187710D01*
X109230178Y-84536569D01*
X109205433Y-84897184D01*
X106341500Y-84897184D01*
X106341500Y-80374919D01*
X106344693Y-80342500D01*
X106331950Y-80213117D01*
X106294210Y-80088707D01*
X106232925Y-79974050D01*
X106150448Y-79873552D01*
X106049950Y-79791075D01*
X105935293Y-79729790D01*
X105810883Y-79692050D01*
X105713919Y-79682500D01*
X105681500Y-79679307D01*
X105649081Y-79682500D01*
X105041500Y-79682500D01*
X105041500Y-76002500D01*
X105649081Y-76002500D01*
X105681500Y-76005693D01*
X105713919Y-76002500D01*
X105810883Y-75992950D01*
X105935293Y-75955210D01*
X106049950Y-75893925D01*
X106150448Y-75811448D01*
X106232925Y-75710950D01*
X106294210Y-75596293D01*
X106331950Y-75471883D01*
X106344693Y-75342500D01*
X106341500Y-75310081D01*
X106341500Y-68002500D01*
X118401682Y-68002500D01*
X118292129Y-68166457D01*
G36*
X149796500Y-79762506D02*
G01*
X149735293Y-79729790D01*
X149610883Y-79692050D01*
X149513919Y-79682500D01*
X149481500Y-79679307D01*
X149449081Y-79682500D01*
X148841500Y-79682500D01*
X148841500Y-76002500D01*
X149449081Y-76002500D01*
X149481500Y-76005693D01*
X149513919Y-76002500D01*
X149610883Y-75992950D01*
X149735293Y-75955210D01*
X149796500Y-75922494D01*
X149796500Y-79762506D01*
G37*
X149796500Y-79762506D02*
X149735293Y-79729790D01*
X149610883Y-79692050D01*
X149513919Y-79682500D01*
X149481500Y-79679307D01*
X149449081Y-79682500D01*
X148841500Y-79682500D01*
X148841500Y-76002500D01*
X149449081Y-76002500D01*
X149481500Y-76005693D01*
X149513919Y-76002500D01*
X149610883Y-75992950D01*
X149735293Y-75955210D01*
X149796500Y-75922494D01*
X149796500Y-79762506D01*
G36*
X118131428Y-66612500D02*
G01*
X118138322Y-66682500D01*
X106341500Y-66682500D01*
X106341500Y-66527155D01*
X118131428Y-66520565D01*
X118131428Y-66612500D01*
G37*
X118131428Y-66612500D02*
X118138322Y-66682500D01*
X106341500Y-66682500D01*
X106341500Y-66527155D01*
X118131428Y-66520565D01*
X118131428Y-66612500D01*
G36*
X162092129Y-89166457D02*
G01*
X161991066Y-89410444D01*
X150141500Y-89432493D01*
X150141500Y-89002500D01*
X162201682Y-89002500D01*
X162092129Y-89166457D01*
G37*
X162092129Y-89166457D02*
X161991066Y-89410444D01*
X150141500Y-89432493D01*
X150141500Y-89002500D01*
X162201682Y-89002500D01*
X162092129Y-89166457D01*
G36*
X162092129Y-68166457D02*
G01*
X161987725Y-68418511D01*
X161934500Y-68686089D01*
X161934500Y-68958911D01*
X161987725Y-69226489D01*
X162092129Y-69478543D01*
X162243701Y-69705386D01*
X162436614Y-69898299D01*
X162663457Y-70049871D01*
X162915511Y-70154275D01*
X163183089Y-70207500D01*
X163455911Y-70207500D01*
X163723489Y-70154275D01*
X163975543Y-70049871D01*
X164202386Y-69898299D01*
X164395299Y-69705386D01*
X164546871Y-69478543D01*
X164589500Y-69375627D01*
X164632129Y-69478543D01*
X164783701Y-69705386D01*
X164976614Y-69898299D01*
X165203457Y-70049871D01*
X165455511Y-70154275D01*
X165723089Y-70207500D01*
X165995911Y-70207500D01*
X166263489Y-70154275D01*
X166515543Y-70049871D01*
X166742386Y-69898299D01*
X166935299Y-69705386D01*
X167086871Y-69478543D01*
X167129500Y-69375627D01*
X167172129Y-69478543D01*
X167323701Y-69705386D01*
X167516614Y-69898299D01*
X167639500Y-69980409D01*
X167639500Y-70720677D01*
X167635824Y-70758000D01*
X167639500Y-70795322D01*
X167639500Y-70795332D01*
X167650497Y-70906985D01*
X167676130Y-70991486D01*
X167693954Y-71050246D01*
X167764526Y-71182276D01*
X167804371Y-71230826D01*
X167859499Y-71298001D01*
X167888503Y-71321804D01*
X169257800Y-72691102D01*
X169257800Y-72813639D01*
X169297574Y-73013598D01*
X169338955Y-73113500D01*
X163431602Y-73113500D01*
X162569604Y-72251502D01*
X162545801Y-72222499D01*
X162430076Y-72127526D01*
X162318572Y-72067925D01*
X162318572Y-71912500D01*
X162306312Y-71788018D01*
X162270002Y-71668320D01*
X162211037Y-71558006D01*
X162131685Y-71461315D01*
X162034994Y-71381963D01*
X161924680Y-71322998D01*
X161804982Y-71286688D01*
X161680500Y-71274428D01*
X159980500Y-71274428D01*
X159856018Y-71286688D01*
X159736320Y-71322998D01*
X159626006Y-71381963D01*
X159529315Y-71461315D01*
X159484015Y-71516513D01*
X158299004Y-70331503D01*
X158275201Y-70302499D01*
X158159476Y-70207526D01*
X158027447Y-70136954D01*
X157884186Y-70093497D01*
X157772533Y-70082500D01*
X157772522Y-70082500D01*
X157735200Y-70078824D01*
X157697878Y-70082500D01*
X156686572Y-70082500D01*
X156686572Y-69642500D01*
X156674312Y-69518018D01*
X156638002Y-69398320D01*
X156579037Y-69288006D01*
X156499685Y-69191315D01*
X156402994Y-69111963D01*
X156292680Y-69052998D01*
X156172982Y-69016688D01*
X156048500Y-69004428D01*
X153648500Y-69004428D01*
X153524018Y-69016688D01*
X153404320Y-69052998D01*
X153294006Y-69111963D01*
X153197315Y-69191315D01*
X153117963Y-69288006D01*
X153058998Y-69398320D01*
X153022688Y-69518018D01*
X153010428Y-69642500D01*
X153010428Y-72042500D01*
X153022688Y-72166982D01*
X153058998Y-72286680D01*
X153117963Y-72396994D01*
X153197315Y-72493685D01*
X153294006Y-72573037D01*
X153404320Y-72632002D01*
X153524018Y-72668312D01*
X153648500Y-72680572D01*
X154065662Y-72680572D01*
X153979301Y-72716344D01*
X153678756Y-72917162D01*
X153423162Y-73172756D01*
X153222344Y-73473301D01*
X153084018Y-73807250D01*
X153013500Y-74161768D01*
X153013500Y-74523232D01*
X153084018Y-74877750D01*
X153222344Y-75211699D01*
X153423162Y-75512244D01*
X153678756Y-75767838D01*
X153979301Y-75968656D01*
X154278287Y-76092500D01*
X153979301Y-76216344D01*
X153678756Y-76417162D01*
X153423162Y-76672756D01*
X153222344Y-76973301D01*
X153084018Y-77307250D01*
X153013500Y-77661768D01*
X153013500Y-78023232D01*
X153084018Y-78377750D01*
X153222344Y-78711699D01*
X153423162Y-79012244D01*
X153678756Y-79267838D01*
X153979301Y-79468656D01*
X154278287Y-79592500D01*
X153979301Y-79716344D01*
X153678756Y-79917162D01*
X153423162Y-80172756D01*
X153222344Y-80473301D01*
X153084018Y-80807250D01*
X153013500Y-81161768D01*
X153013500Y-81523232D01*
X153084018Y-81877750D01*
X153222344Y-82211699D01*
X153423162Y-82512244D01*
X153678756Y-82767838D01*
X153979301Y-82968656D01*
X154285989Y-83095690D01*
X154092667Y-83160654D01*
X153870014Y-83279664D01*
X153750126Y-83564520D01*
X154848500Y-84662895D01*
X155946874Y-83564520D01*
X155826986Y-83279664D01*
X155826435Y-83279390D01*
X159389024Y-83279390D01*
X159433675Y-83426599D01*
X159558859Y-83689420D01*
X159732912Y-83922769D01*
X159949145Y-84117678D01*
X160199248Y-84266657D01*
X160473609Y-84363981D01*
X160703500Y-84243314D01*
X160703500Y-83049500D01*
X159510345Y-83049500D01*
X159389024Y-83279390D01*
X155826435Y-83279390D01*
X155503290Y-83118801D01*
X155413810Y-83094531D01*
X155717699Y-82968656D01*
X156018244Y-82767838D01*
X156273838Y-82512244D01*
X156474656Y-82211699D01*
X156519888Y-82102500D01*
X158657878Y-82102500D01*
X158695200Y-82106176D01*
X158732522Y-82102500D01*
X158732533Y-82102500D01*
X158844186Y-82091503D01*
X158987447Y-82048046D01*
X159119476Y-81977474D01*
X159235201Y-81882501D01*
X159259004Y-81853498D01*
X159730197Y-81382304D01*
X159883868Y-81535975D01*
X160066034Y-81657695D01*
X159949145Y-81727322D01*
X159732912Y-81922231D01*
X159558859Y-82155580D01*
X159433675Y-82418401D01*
X159389024Y-82565610D01*
X159510345Y-82795500D01*
X160703500Y-82795500D01*
X160703500Y-82775500D01*
X160957500Y-82775500D01*
X160957500Y-82795500D01*
X160977500Y-82795500D01*
X160977500Y-83049500D01*
X160957500Y-83049500D01*
X160957500Y-84243314D01*
X161187391Y-84363981D01*
X161461752Y-84266657D01*
X161484200Y-84253285D01*
X161484200Y-84674577D01*
X161480524Y-84711900D01*
X161484200Y-84749222D01*
X161484200Y-84749232D01*
X161495197Y-84860885D01*
X161523196Y-84953186D01*
X161538654Y-85004146D01*
X161609226Y-85136176D01*
X161649071Y-85184726D01*
X161704199Y-85251901D01*
X161733202Y-85275704D01*
X162118589Y-85661090D01*
X162118315Y-85661315D01*
X162038963Y-85758006D01*
X161979998Y-85868320D01*
X161943688Y-85988018D01*
X161931428Y-86112500D01*
X161931428Y-87612500D01*
X161938322Y-87682500D01*
X150141500Y-87682500D01*
X150141500Y-86120480D01*
X153750126Y-86120480D01*
X153870014Y-86405336D01*
X154193710Y-86566199D01*
X154542569Y-86660822D01*
X154903184Y-86685567D01*
X155261698Y-86639485D01*
X155604333Y-86524346D01*
X155826986Y-86405336D01*
X155946874Y-86120480D01*
X154848500Y-85022105D01*
X153750126Y-86120480D01*
X150141500Y-86120480D01*
X150141500Y-84897184D01*
X153005433Y-84897184D01*
X153051515Y-85255698D01*
X153166654Y-85598333D01*
X153285664Y-85820986D01*
X153570520Y-85940874D01*
X154668895Y-84842500D01*
X155028105Y-84842500D01*
X156126480Y-85940874D01*
X156411336Y-85820986D01*
X156572199Y-85497290D01*
X156666822Y-85148431D01*
X156691567Y-84787816D01*
X156645485Y-84429302D01*
X156530346Y-84086667D01*
X156411336Y-83864014D01*
X156126480Y-83744126D01*
X155028105Y-84842500D01*
X154668895Y-84842500D01*
X153570520Y-83744126D01*
X153285664Y-83864014D01*
X153124801Y-84187710D01*
X153030178Y-84536569D01*
X153005433Y-84897184D01*
X150141500Y-84897184D01*
X150141500Y-80374919D01*
X150144693Y-80342500D01*
X150131950Y-80213117D01*
X150094210Y-80088707D01*
X150032925Y-79974050D01*
X149950448Y-79873552D01*
X149849950Y-79791075D01*
X149735293Y-79729790D01*
X149610883Y-79692050D01*
X149513919Y-79682500D01*
X149481500Y-79679307D01*
X149449081Y-79682500D01*
X148841500Y-79682500D01*
X148841500Y-76002500D01*
X149449081Y-76002500D01*
X149481500Y-76005693D01*
X149513919Y-76002500D01*
X149610883Y-75992950D01*
X149735293Y-75955210D01*
X149849950Y-75893925D01*
X149950448Y-75811448D01*
X150032925Y-75710950D01*
X150094210Y-75596293D01*
X150131950Y-75471883D01*
X150144693Y-75342500D01*
X150141500Y-75310081D01*
X150141500Y-68002500D01*
X162201682Y-68002500D01*
X162092129Y-68166457D01*
G37*
X162092129Y-68166457D02*
X161987725Y-68418511D01*
X161934500Y-68686089D01*
X161934500Y-68958911D01*
X161987725Y-69226489D01*
X162092129Y-69478543D01*
X162243701Y-69705386D01*
X162436614Y-69898299D01*
X162663457Y-70049871D01*
X162915511Y-70154275D01*
X163183089Y-70207500D01*
X163455911Y-70207500D01*
X163723489Y-70154275D01*
X163975543Y-70049871D01*
X164202386Y-69898299D01*
X164395299Y-69705386D01*
X164546871Y-69478543D01*
X164589500Y-69375627D01*
X164632129Y-69478543D01*
X164783701Y-69705386D01*
X164976614Y-69898299D01*
X165203457Y-70049871D01*
X165455511Y-70154275D01*
X165723089Y-70207500D01*
X165995911Y-70207500D01*
X166263489Y-70154275D01*
X166515543Y-70049871D01*
X166742386Y-69898299D01*
X166935299Y-69705386D01*
X167086871Y-69478543D01*
X167129500Y-69375627D01*
X167172129Y-69478543D01*
X167323701Y-69705386D01*
X167516614Y-69898299D01*
X167639500Y-69980409D01*
X167639500Y-70720677D01*
X167635824Y-70758000D01*
X167639500Y-70795322D01*
X167639500Y-70795332D01*
X167650497Y-70906985D01*
X167676130Y-70991486D01*
X167693954Y-71050246D01*
X167764526Y-71182276D01*
X167804371Y-71230826D01*
X167859499Y-71298001D01*
X167888503Y-71321804D01*
X169257800Y-72691102D01*
X169257800Y-72813639D01*
X169297574Y-73013598D01*
X169338955Y-73113500D01*
X163431602Y-73113500D01*
X162569604Y-72251502D01*
X162545801Y-72222499D01*
X162430076Y-72127526D01*
X162318572Y-72067925D01*
X162318572Y-71912500D01*
X162306312Y-71788018D01*
X162270002Y-71668320D01*
X162211037Y-71558006D01*
X162131685Y-71461315D01*
X162034994Y-71381963D01*
X161924680Y-71322998D01*
X161804982Y-71286688D01*
X161680500Y-71274428D01*
X159980500Y-71274428D01*
X159856018Y-71286688D01*
X159736320Y-71322998D01*
X159626006Y-71381963D01*
X159529315Y-71461315D01*
X159484015Y-71516513D01*
X158299004Y-70331503D01*
X158275201Y-70302499D01*
X158159476Y-70207526D01*
X158027447Y-70136954D01*
X157884186Y-70093497D01*
X157772533Y-70082500D01*
X157772522Y-70082500D01*
X157735200Y-70078824D01*
X157697878Y-70082500D01*
X156686572Y-70082500D01*
X156686572Y-69642500D01*
X156674312Y-69518018D01*
X156638002Y-69398320D01*
X156579037Y-69288006D01*
X156499685Y-69191315D01*
X156402994Y-69111963D01*
X156292680Y-69052998D01*
X156172982Y-69016688D01*
X156048500Y-69004428D01*
X153648500Y-69004428D01*
X153524018Y-69016688D01*
X153404320Y-69052998D01*
X153294006Y-69111963D01*
X153197315Y-69191315D01*
X153117963Y-69288006D01*
X153058998Y-69398320D01*
X153022688Y-69518018D01*
X153010428Y-69642500D01*
X153010428Y-72042500D01*
X153022688Y-72166982D01*
X153058998Y-72286680D01*
X153117963Y-72396994D01*
X153197315Y-72493685D01*
X153294006Y-72573037D01*
X153404320Y-72632002D01*
X153524018Y-72668312D01*
X153648500Y-72680572D01*
X154065662Y-72680572D01*
X153979301Y-72716344D01*
X153678756Y-72917162D01*
X153423162Y-73172756D01*
X153222344Y-73473301D01*
X153084018Y-73807250D01*
X153013500Y-74161768D01*
X153013500Y-74523232D01*
X153084018Y-74877750D01*
X153222344Y-75211699D01*
X153423162Y-75512244D01*
X153678756Y-75767838D01*
X153979301Y-75968656D01*
X154278287Y-76092500D01*
X153979301Y-76216344D01*
X153678756Y-76417162D01*
X153423162Y-76672756D01*
X153222344Y-76973301D01*
X153084018Y-77307250D01*
X153013500Y-77661768D01*
X153013500Y-78023232D01*
X153084018Y-78377750D01*
X153222344Y-78711699D01*
X153423162Y-79012244D01*
X153678756Y-79267838D01*
X153979301Y-79468656D01*
X154278287Y-79592500D01*
X153979301Y-79716344D01*
X153678756Y-79917162D01*
X153423162Y-80172756D01*
X153222344Y-80473301D01*
X153084018Y-80807250D01*
X153013500Y-81161768D01*
X153013500Y-81523232D01*
X153084018Y-81877750D01*
X153222344Y-82211699D01*
X153423162Y-82512244D01*
X153678756Y-82767838D01*
X153979301Y-82968656D01*
X154285989Y-83095690D01*
X154092667Y-83160654D01*
X153870014Y-83279664D01*
X153750126Y-83564520D01*
X154848500Y-84662895D01*
X155946874Y-83564520D01*
X155826986Y-83279664D01*
X155826435Y-83279390D01*
X159389024Y-83279390D01*
X159433675Y-83426599D01*
X159558859Y-83689420D01*
X159732912Y-83922769D01*
X159949145Y-84117678D01*
X160199248Y-84266657D01*
X160473609Y-84363981D01*
X160703500Y-84243314D01*
X160703500Y-83049500D01*
X159510345Y-83049500D01*
X159389024Y-83279390D01*
X155826435Y-83279390D01*
X155503290Y-83118801D01*
X155413810Y-83094531D01*
X155717699Y-82968656D01*
X156018244Y-82767838D01*
X156273838Y-82512244D01*
X156474656Y-82211699D01*
X156519888Y-82102500D01*
X158657878Y-82102500D01*
X158695200Y-82106176D01*
X158732522Y-82102500D01*
X158732533Y-82102500D01*
X158844186Y-82091503D01*
X158987447Y-82048046D01*
X159119476Y-81977474D01*
X159235201Y-81882501D01*
X159259004Y-81853498D01*
X159730197Y-81382304D01*
X159883868Y-81535975D01*
X160066034Y-81657695D01*
X159949145Y-81727322D01*
X159732912Y-81922231D01*
X159558859Y-82155580D01*
X159433675Y-82418401D01*
X159389024Y-82565610D01*
X159510345Y-82795500D01*
X160703500Y-82795500D01*
X160703500Y-82775500D01*
X160957500Y-82775500D01*
X160957500Y-82795500D01*
X160977500Y-82795500D01*
X160977500Y-83049500D01*
X160957500Y-83049500D01*
X160957500Y-84243314D01*
X161187391Y-84363981D01*
X161461752Y-84266657D01*
X161484200Y-84253285D01*
X161484200Y-84674577D01*
X161480524Y-84711900D01*
X161484200Y-84749222D01*
X161484200Y-84749232D01*
X161495197Y-84860885D01*
X161523196Y-84953186D01*
X161538654Y-85004146D01*
X161609226Y-85136176D01*
X161649071Y-85184726D01*
X161704199Y-85251901D01*
X161733202Y-85275704D01*
X162118589Y-85661090D01*
X162118315Y-85661315D01*
X162038963Y-85758006D01*
X161979998Y-85868320D01*
X161943688Y-85988018D01*
X161931428Y-86112500D01*
X161931428Y-87612500D01*
X161938322Y-87682500D01*
X150141500Y-87682500D01*
X150141500Y-86120480D01*
X153750126Y-86120480D01*
X153870014Y-86405336D01*
X154193710Y-86566199D01*
X154542569Y-86660822D01*
X154903184Y-86685567D01*
X155261698Y-86639485D01*
X155604333Y-86524346D01*
X155826986Y-86405336D01*
X155946874Y-86120480D01*
X154848500Y-85022105D01*
X153750126Y-86120480D01*
X150141500Y-86120480D01*
X150141500Y-84897184D01*
X153005433Y-84897184D01*
X153051515Y-85255698D01*
X153166654Y-85598333D01*
X153285664Y-85820986D01*
X153570520Y-85940874D01*
X154668895Y-84842500D01*
X155028105Y-84842500D01*
X156126480Y-85940874D01*
X156411336Y-85820986D01*
X156572199Y-85497290D01*
X156666822Y-85148431D01*
X156691567Y-84787816D01*
X156645485Y-84429302D01*
X156530346Y-84086667D01*
X156411336Y-83864014D01*
X156126480Y-83744126D01*
X155028105Y-84842500D01*
X154668895Y-84842500D01*
X153570520Y-83744126D01*
X153285664Y-83864014D01*
X153124801Y-84187710D01*
X153030178Y-84536569D01*
X153005433Y-84897184D01*
X150141500Y-84897184D01*
X150141500Y-80374919D01*
X150144693Y-80342500D01*
X150131950Y-80213117D01*
X150094210Y-80088707D01*
X150032925Y-79974050D01*
X149950448Y-79873552D01*
X149849950Y-79791075D01*
X149735293Y-79729790D01*
X149610883Y-79692050D01*
X149513919Y-79682500D01*
X149481500Y-79679307D01*
X149449081Y-79682500D01*
X148841500Y-79682500D01*
X148841500Y-76002500D01*
X149449081Y-76002500D01*
X149481500Y-76005693D01*
X149513919Y-76002500D01*
X149610883Y-75992950D01*
X149735293Y-75955210D01*
X149849950Y-75893925D01*
X149950448Y-75811448D01*
X150032925Y-75710950D01*
X150094210Y-75596293D01*
X150131950Y-75471883D01*
X150144693Y-75342500D01*
X150141500Y-75310081D01*
X150141500Y-68002500D01*
X162201682Y-68002500D01*
X162092129Y-68166457D01*
G36*
X161931428Y-66612500D02*
G01*
X161938322Y-66682500D01*
X150141500Y-66682500D01*
X150141500Y-66527155D01*
X161931428Y-66520565D01*
X161931428Y-66612500D01*
G37*
X161931428Y-66612500D02*
X161938322Y-66682500D01*
X150141500Y-66682500D01*
X150141500Y-66527155D01*
X161931428Y-66520565D01*
X161931428Y-66612500D01*
G36*
X118292129Y-110166457D02*
G01*
X118191066Y-110410444D01*
X106341500Y-110432493D01*
X106341500Y-110002500D01*
X118401682Y-110002500D01*
X118292129Y-110166457D01*
G37*
X118292129Y-110166457D02*
X118191066Y-110410444D01*
X106341500Y-110432493D01*
X106341500Y-110002500D01*
X118401682Y-110002500D01*
X118292129Y-110166457D01*
G36*
X118292129Y-89166457D02*
G01*
X118187725Y-89418511D01*
X118134500Y-89686089D01*
X118134500Y-89958911D01*
X118187725Y-90226489D01*
X118292129Y-90478543D01*
X118443701Y-90705386D01*
X118636614Y-90898299D01*
X118863457Y-91049871D01*
X119115511Y-91154275D01*
X119383089Y-91207500D01*
X119655911Y-91207500D01*
X119923489Y-91154275D01*
X120175543Y-91049871D01*
X120402386Y-90898299D01*
X120595299Y-90705386D01*
X120746871Y-90478543D01*
X120789500Y-90375627D01*
X120832129Y-90478543D01*
X120983701Y-90705386D01*
X121176614Y-90898299D01*
X121403457Y-91049871D01*
X121655511Y-91154275D01*
X121923089Y-91207500D01*
X122195911Y-91207500D01*
X122463489Y-91154275D01*
X122715543Y-91049871D01*
X122942386Y-90898299D01*
X123135299Y-90705386D01*
X123286871Y-90478543D01*
X123329500Y-90375627D01*
X123372129Y-90478543D01*
X123523701Y-90705386D01*
X123716614Y-90898299D01*
X123839500Y-90980409D01*
X123839500Y-91720677D01*
X123835824Y-91758000D01*
X123839500Y-91795322D01*
X123839500Y-91795332D01*
X123850497Y-91906985D01*
X123876130Y-91991486D01*
X123893954Y-92050246D01*
X123964526Y-92182276D01*
X124004371Y-92230826D01*
X124059499Y-92298001D01*
X124088503Y-92321804D01*
X125457800Y-93691102D01*
X125457800Y-93813639D01*
X125497574Y-94013598D01*
X125538955Y-94113500D01*
X119631602Y-94113500D01*
X118769604Y-93251502D01*
X118745801Y-93222499D01*
X118630076Y-93127526D01*
X118518572Y-93067925D01*
X118518572Y-92912500D01*
X118506312Y-92788018D01*
X118470002Y-92668320D01*
X118411037Y-92558006D01*
X118331685Y-92461315D01*
X118234994Y-92381963D01*
X118124680Y-92322998D01*
X118004982Y-92286688D01*
X117880500Y-92274428D01*
X116180500Y-92274428D01*
X116056018Y-92286688D01*
X115936320Y-92322998D01*
X115826006Y-92381963D01*
X115729315Y-92461315D01*
X115684015Y-92516513D01*
X114499004Y-91331503D01*
X114475201Y-91302499D01*
X114359476Y-91207526D01*
X114227447Y-91136954D01*
X114084186Y-91093497D01*
X113972533Y-91082500D01*
X113972522Y-91082500D01*
X113935200Y-91078824D01*
X113897878Y-91082500D01*
X112886572Y-91082500D01*
X112886572Y-90642500D01*
X112874312Y-90518018D01*
X112838002Y-90398320D01*
X112779037Y-90288006D01*
X112699685Y-90191315D01*
X112602994Y-90111963D01*
X112492680Y-90052998D01*
X112372982Y-90016688D01*
X112248500Y-90004428D01*
X109848500Y-90004428D01*
X109724018Y-90016688D01*
X109604320Y-90052998D01*
X109494006Y-90111963D01*
X109397315Y-90191315D01*
X109317963Y-90288006D01*
X109258998Y-90398320D01*
X109222688Y-90518018D01*
X109210428Y-90642500D01*
X109210428Y-93042500D01*
X109222688Y-93166982D01*
X109258998Y-93286680D01*
X109317963Y-93396994D01*
X109397315Y-93493685D01*
X109494006Y-93573037D01*
X109604320Y-93632002D01*
X109724018Y-93668312D01*
X109848500Y-93680572D01*
X110265662Y-93680572D01*
X110179301Y-93716344D01*
X109878756Y-93917162D01*
X109623162Y-94172756D01*
X109422344Y-94473301D01*
X109284018Y-94807250D01*
X109213500Y-95161768D01*
X109213500Y-95523232D01*
X109284018Y-95877750D01*
X109422344Y-96211699D01*
X109623162Y-96512244D01*
X109878756Y-96767838D01*
X110179301Y-96968656D01*
X110478287Y-97092500D01*
X110179301Y-97216344D01*
X109878756Y-97417162D01*
X109623162Y-97672756D01*
X109422344Y-97973301D01*
X109284018Y-98307250D01*
X109213500Y-98661768D01*
X109213500Y-99023232D01*
X109284018Y-99377750D01*
X109422344Y-99711699D01*
X109623162Y-100012244D01*
X109878756Y-100267838D01*
X110179301Y-100468656D01*
X110478287Y-100592500D01*
X110179301Y-100716344D01*
X109878756Y-100917162D01*
X109623162Y-101172756D01*
X109422344Y-101473301D01*
X109284018Y-101807250D01*
X109213500Y-102161768D01*
X109213500Y-102523232D01*
X109284018Y-102877750D01*
X109422344Y-103211699D01*
X109623162Y-103512244D01*
X109878756Y-103767838D01*
X110179301Y-103968656D01*
X110485989Y-104095690D01*
X110292667Y-104160654D01*
X110070014Y-104279664D01*
X109950126Y-104564520D01*
X111048500Y-105662895D01*
X112146874Y-104564520D01*
X112026986Y-104279664D01*
X112026435Y-104279390D01*
X115589024Y-104279390D01*
X115633675Y-104426599D01*
X115758859Y-104689420D01*
X115932912Y-104922769D01*
X116149145Y-105117678D01*
X116399248Y-105266657D01*
X116673609Y-105363981D01*
X116903500Y-105243314D01*
X116903500Y-104049500D01*
X115710345Y-104049500D01*
X115589024Y-104279390D01*
X112026435Y-104279390D01*
X111703290Y-104118801D01*
X111613810Y-104094531D01*
X111917699Y-103968656D01*
X112218244Y-103767838D01*
X112473838Y-103512244D01*
X112674656Y-103211699D01*
X112719888Y-103102500D01*
X114857878Y-103102500D01*
X114895200Y-103106176D01*
X114932522Y-103102500D01*
X114932533Y-103102500D01*
X115044186Y-103091503D01*
X115187447Y-103048046D01*
X115319476Y-102977474D01*
X115435201Y-102882501D01*
X115459004Y-102853498D01*
X115930197Y-102382304D01*
X116083868Y-102535975D01*
X116266034Y-102657695D01*
X116149145Y-102727322D01*
X115932912Y-102922231D01*
X115758859Y-103155580D01*
X115633675Y-103418401D01*
X115589024Y-103565610D01*
X115710345Y-103795500D01*
X116903500Y-103795500D01*
X116903500Y-103775500D01*
X117157500Y-103775500D01*
X117157500Y-103795500D01*
X117177500Y-103795500D01*
X117177500Y-104049500D01*
X117157500Y-104049500D01*
X117157500Y-105243314D01*
X117387391Y-105363981D01*
X117661752Y-105266657D01*
X117684200Y-105253285D01*
X117684200Y-105674577D01*
X117680524Y-105711900D01*
X117684200Y-105749222D01*
X117684200Y-105749232D01*
X117695197Y-105860885D01*
X117723196Y-105953186D01*
X117738654Y-106004146D01*
X117809226Y-106136176D01*
X117849071Y-106184726D01*
X117904199Y-106251901D01*
X117933202Y-106275704D01*
X118318589Y-106661090D01*
X118318315Y-106661315D01*
X118238963Y-106758006D01*
X118179998Y-106868320D01*
X118143688Y-106988018D01*
X118131428Y-107112500D01*
X118131428Y-108612500D01*
X118138322Y-108682500D01*
X106341500Y-108682500D01*
X106341500Y-107120480D01*
X109950126Y-107120480D01*
X110070014Y-107405336D01*
X110393710Y-107566199D01*
X110742569Y-107660822D01*
X111103184Y-107685567D01*
X111461698Y-107639485D01*
X111804333Y-107524346D01*
X112026986Y-107405336D01*
X112146874Y-107120480D01*
X111048500Y-106022105D01*
X109950126Y-107120480D01*
X106341500Y-107120480D01*
X106341500Y-105897184D01*
X109205433Y-105897184D01*
X109251515Y-106255698D01*
X109366654Y-106598333D01*
X109485664Y-106820986D01*
X109770520Y-106940874D01*
X110868895Y-105842500D01*
X111228105Y-105842500D01*
X112326480Y-106940874D01*
X112611336Y-106820986D01*
X112772199Y-106497290D01*
X112866822Y-106148431D01*
X112891567Y-105787816D01*
X112845485Y-105429302D01*
X112730346Y-105086667D01*
X112611336Y-104864014D01*
X112326480Y-104744126D01*
X111228105Y-105842500D01*
X110868895Y-105842500D01*
X109770520Y-104744126D01*
X109485664Y-104864014D01*
X109324801Y-105187710D01*
X109230178Y-105536569D01*
X109205433Y-105897184D01*
X106341500Y-105897184D01*
X106341500Y-101374919D01*
X106344693Y-101342500D01*
X106331950Y-101213117D01*
X106294210Y-101088707D01*
X106232925Y-100974050D01*
X106150448Y-100873552D01*
X106049950Y-100791075D01*
X105935293Y-100729790D01*
X105810883Y-100692050D01*
X105713919Y-100682500D01*
X105681500Y-100679307D01*
X105649081Y-100682500D01*
X105041500Y-100682500D01*
X105041500Y-97002500D01*
X105649081Y-97002500D01*
X105681500Y-97005693D01*
X105713919Y-97002500D01*
X105810883Y-96992950D01*
X105935293Y-96955210D01*
X106049950Y-96893925D01*
X106150448Y-96811448D01*
X106232925Y-96710950D01*
X106294210Y-96596293D01*
X106331950Y-96471883D01*
X106344693Y-96342500D01*
X106341500Y-96310081D01*
X106341500Y-89002500D01*
X118401682Y-89002500D01*
X118292129Y-89166457D01*
G37*
X118292129Y-89166457D02*
X118187725Y-89418511D01*
X118134500Y-89686089D01*
X118134500Y-89958911D01*
X118187725Y-90226489D01*
X118292129Y-90478543D01*
X118443701Y-90705386D01*
X118636614Y-90898299D01*
X118863457Y-91049871D01*
X119115511Y-91154275D01*
X119383089Y-91207500D01*
X119655911Y-91207500D01*
X119923489Y-91154275D01*
X120175543Y-91049871D01*
X120402386Y-90898299D01*
X120595299Y-90705386D01*
X120746871Y-90478543D01*
X120789500Y-90375627D01*
X120832129Y-90478543D01*
X120983701Y-90705386D01*
X121176614Y-90898299D01*
X121403457Y-91049871D01*
X121655511Y-91154275D01*
X121923089Y-91207500D01*
X122195911Y-91207500D01*
X122463489Y-91154275D01*
X122715543Y-91049871D01*
X122942386Y-90898299D01*
X123135299Y-90705386D01*
X123286871Y-90478543D01*
X123329500Y-90375627D01*
X123372129Y-90478543D01*
X123523701Y-90705386D01*
X123716614Y-90898299D01*
X123839500Y-90980409D01*
X123839500Y-91720677D01*
X123835824Y-91758000D01*
X123839500Y-91795322D01*
X123839500Y-91795332D01*
X123850497Y-91906985D01*
X123876130Y-91991486D01*
X123893954Y-92050246D01*
X123964526Y-92182276D01*
X124004371Y-92230826D01*
X124059499Y-92298001D01*
X124088503Y-92321804D01*
X125457800Y-93691102D01*
X125457800Y-93813639D01*
X125497574Y-94013598D01*
X125538955Y-94113500D01*
X119631602Y-94113500D01*
X118769604Y-93251502D01*
X118745801Y-93222499D01*
X118630076Y-93127526D01*
X118518572Y-93067925D01*
X118518572Y-92912500D01*
X118506312Y-92788018D01*
X118470002Y-92668320D01*
X118411037Y-92558006D01*
X118331685Y-92461315D01*
X118234994Y-92381963D01*
X118124680Y-92322998D01*
X118004982Y-92286688D01*
X117880500Y-92274428D01*
X116180500Y-92274428D01*
X116056018Y-92286688D01*
X115936320Y-92322998D01*
X115826006Y-92381963D01*
X115729315Y-92461315D01*
X115684015Y-92516513D01*
X114499004Y-91331503D01*
X114475201Y-91302499D01*
X114359476Y-91207526D01*
X114227447Y-91136954D01*
X114084186Y-91093497D01*
X113972533Y-91082500D01*
X113972522Y-91082500D01*
X113935200Y-91078824D01*
X113897878Y-91082500D01*
X112886572Y-91082500D01*
X112886572Y-90642500D01*
X112874312Y-90518018D01*
X112838002Y-90398320D01*
X112779037Y-90288006D01*
X112699685Y-90191315D01*
X112602994Y-90111963D01*
X112492680Y-90052998D01*
X112372982Y-90016688D01*
X112248500Y-90004428D01*
X109848500Y-90004428D01*
X109724018Y-90016688D01*
X109604320Y-90052998D01*
X109494006Y-90111963D01*
X109397315Y-90191315D01*
X109317963Y-90288006D01*
X109258998Y-90398320D01*
X109222688Y-90518018D01*
X109210428Y-90642500D01*
X109210428Y-93042500D01*
X109222688Y-93166982D01*
X109258998Y-93286680D01*
X109317963Y-93396994D01*
X109397315Y-93493685D01*
X109494006Y-93573037D01*
X109604320Y-93632002D01*
X109724018Y-93668312D01*
X109848500Y-93680572D01*
X110265662Y-93680572D01*
X110179301Y-93716344D01*
X109878756Y-93917162D01*
X109623162Y-94172756D01*
X109422344Y-94473301D01*
X109284018Y-94807250D01*
X109213500Y-95161768D01*
X109213500Y-95523232D01*
X109284018Y-95877750D01*
X109422344Y-96211699D01*
X109623162Y-96512244D01*
X109878756Y-96767838D01*
X110179301Y-96968656D01*
X110478287Y-97092500D01*
X110179301Y-97216344D01*
X109878756Y-97417162D01*
X109623162Y-97672756D01*
X109422344Y-97973301D01*
X109284018Y-98307250D01*
X109213500Y-98661768D01*
X109213500Y-99023232D01*
X109284018Y-99377750D01*
X109422344Y-99711699D01*
X109623162Y-100012244D01*
X109878756Y-100267838D01*
X110179301Y-100468656D01*
X110478287Y-100592500D01*
X110179301Y-100716344D01*
X109878756Y-100917162D01*
X109623162Y-101172756D01*
X109422344Y-101473301D01*
X109284018Y-101807250D01*
X109213500Y-102161768D01*
X109213500Y-102523232D01*
X109284018Y-102877750D01*
X109422344Y-103211699D01*
X109623162Y-103512244D01*
X109878756Y-103767838D01*
X110179301Y-103968656D01*
X110485989Y-104095690D01*
X110292667Y-104160654D01*
X110070014Y-104279664D01*
X109950126Y-104564520D01*
X111048500Y-105662895D01*
X112146874Y-104564520D01*
X112026986Y-104279664D01*
X112026435Y-104279390D01*
X115589024Y-104279390D01*
X115633675Y-104426599D01*
X115758859Y-104689420D01*
X115932912Y-104922769D01*
X116149145Y-105117678D01*
X116399248Y-105266657D01*
X116673609Y-105363981D01*
X116903500Y-105243314D01*
X116903500Y-104049500D01*
X115710345Y-104049500D01*
X115589024Y-104279390D01*
X112026435Y-104279390D01*
X111703290Y-104118801D01*
X111613810Y-104094531D01*
X111917699Y-103968656D01*
X112218244Y-103767838D01*
X112473838Y-103512244D01*
X112674656Y-103211699D01*
X112719888Y-103102500D01*
X114857878Y-103102500D01*
X114895200Y-103106176D01*
X114932522Y-103102500D01*
X114932533Y-103102500D01*
X115044186Y-103091503D01*
X115187447Y-103048046D01*
X115319476Y-102977474D01*
X115435201Y-102882501D01*
X115459004Y-102853498D01*
X115930197Y-102382304D01*
X116083868Y-102535975D01*
X116266034Y-102657695D01*
X116149145Y-102727322D01*
X115932912Y-102922231D01*
X115758859Y-103155580D01*
X115633675Y-103418401D01*
X115589024Y-103565610D01*
X115710345Y-103795500D01*
X116903500Y-103795500D01*
X116903500Y-103775500D01*
X117157500Y-103775500D01*
X117157500Y-103795500D01*
X117177500Y-103795500D01*
X117177500Y-104049500D01*
X117157500Y-104049500D01*
X117157500Y-105243314D01*
X117387391Y-105363981D01*
X117661752Y-105266657D01*
X117684200Y-105253285D01*
X117684200Y-105674577D01*
X117680524Y-105711900D01*
X117684200Y-105749222D01*
X117684200Y-105749232D01*
X117695197Y-105860885D01*
X117723196Y-105953186D01*
X117738654Y-106004146D01*
X117809226Y-106136176D01*
X117849071Y-106184726D01*
X117904199Y-106251901D01*
X117933202Y-106275704D01*
X118318589Y-106661090D01*
X118318315Y-106661315D01*
X118238963Y-106758006D01*
X118179998Y-106868320D01*
X118143688Y-106988018D01*
X118131428Y-107112500D01*
X118131428Y-108612500D01*
X118138322Y-108682500D01*
X106341500Y-108682500D01*
X106341500Y-107120480D01*
X109950126Y-107120480D01*
X110070014Y-107405336D01*
X110393710Y-107566199D01*
X110742569Y-107660822D01*
X111103184Y-107685567D01*
X111461698Y-107639485D01*
X111804333Y-107524346D01*
X112026986Y-107405336D01*
X112146874Y-107120480D01*
X111048500Y-106022105D01*
X109950126Y-107120480D01*
X106341500Y-107120480D01*
X106341500Y-105897184D01*
X109205433Y-105897184D01*
X109251515Y-106255698D01*
X109366654Y-106598333D01*
X109485664Y-106820986D01*
X109770520Y-106940874D01*
X110868895Y-105842500D01*
X111228105Y-105842500D01*
X112326480Y-106940874D01*
X112611336Y-106820986D01*
X112772199Y-106497290D01*
X112866822Y-106148431D01*
X112891567Y-105787816D01*
X112845485Y-105429302D01*
X112730346Y-105086667D01*
X112611336Y-104864014D01*
X112326480Y-104744126D01*
X111228105Y-105842500D01*
X110868895Y-105842500D01*
X109770520Y-104744126D01*
X109485664Y-104864014D01*
X109324801Y-105187710D01*
X109230178Y-105536569D01*
X109205433Y-105897184D01*
X106341500Y-105897184D01*
X106341500Y-101374919D01*
X106344693Y-101342500D01*
X106331950Y-101213117D01*
X106294210Y-101088707D01*
X106232925Y-100974050D01*
X106150448Y-100873552D01*
X106049950Y-100791075D01*
X105935293Y-100729790D01*
X105810883Y-100692050D01*
X105713919Y-100682500D01*
X105681500Y-100679307D01*
X105649081Y-100682500D01*
X105041500Y-100682500D01*
X105041500Y-97002500D01*
X105649081Y-97002500D01*
X105681500Y-97005693D01*
X105713919Y-97002500D01*
X105810883Y-96992950D01*
X105935293Y-96955210D01*
X106049950Y-96893925D01*
X106150448Y-96811448D01*
X106232925Y-96710950D01*
X106294210Y-96596293D01*
X106331950Y-96471883D01*
X106344693Y-96342500D01*
X106341500Y-96310081D01*
X106341500Y-89002500D01*
X118401682Y-89002500D01*
X118292129Y-89166457D01*
G36*
X149796500Y-100762506D02*
G01*
X149735293Y-100729790D01*
X149610883Y-100692050D01*
X149513919Y-100682500D01*
X149481500Y-100679307D01*
X149449081Y-100682500D01*
X148841500Y-100682500D01*
X148841500Y-97002500D01*
X149449081Y-97002500D01*
X149481500Y-97005693D01*
X149513919Y-97002500D01*
X149610883Y-96992950D01*
X149735293Y-96955210D01*
X149796500Y-96922494D01*
X149796500Y-100762506D01*
G37*
X149796500Y-100762506D02*
X149735293Y-100729790D01*
X149610883Y-100692050D01*
X149513919Y-100682500D01*
X149481500Y-100679307D01*
X149449081Y-100682500D01*
X148841500Y-100682500D01*
X148841500Y-97002500D01*
X149449081Y-97002500D01*
X149481500Y-97005693D01*
X149513919Y-97002500D01*
X149610883Y-96992950D01*
X149735293Y-96955210D01*
X149796500Y-96922494D01*
X149796500Y-100762506D01*
G36*
X118131428Y-87612500D02*
G01*
X118138322Y-87682500D01*
X106341500Y-87682500D01*
X106341500Y-87527155D01*
X118131428Y-87520565D01*
X118131428Y-87612500D01*
G37*
X118131428Y-87612500D02*
X118138322Y-87682500D01*
X106341500Y-87682500D01*
X106341500Y-87527155D01*
X118131428Y-87520565D01*
X118131428Y-87612500D01*
G36*
X162092129Y-110166457D02*
G01*
X161991066Y-110410444D01*
X150141500Y-110432493D01*
X150141500Y-110002500D01*
X162201682Y-110002500D01*
X162092129Y-110166457D01*
G37*
X162092129Y-110166457D02*
X161991066Y-110410444D01*
X150141500Y-110432493D01*
X150141500Y-110002500D01*
X162201682Y-110002500D01*
X162092129Y-110166457D01*
G36*
X162092129Y-89166457D02*
G01*
X161987725Y-89418511D01*
X161934500Y-89686089D01*
X161934500Y-89958911D01*
X161987725Y-90226489D01*
X162092129Y-90478543D01*
X162243701Y-90705386D01*
X162436614Y-90898299D01*
X162663457Y-91049871D01*
X162915511Y-91154275D01*
X163183089Y-91207500D01*
X163455911Y-91207500D01*
X163723489Y-91154275D01*
X163975543Y-91049871D01*
X164202386Y-90898299D01*
X164395299Y-90705386D01*
X164546871Y-90478543D01*
X164589500Y-90375627D01*
X164632129Y-90478543D01*
X164783701Y-90705386D01*
X164976614Y-90898299D01*
X165203457Y-91049871D01*
X165455511Y-91154275D01*
X165723089Y-91207500D01*
X165995911Y-91207500D01*
X166263489Y-91154275D01*
X166515543Y-91049871D01*
X166742386Y-90898299D01*
X166935299Y-90705386D01*
X167086871Y-90478543D01*
X167129500Y-90375627D01*
X167172129Y-90478543D01*
X167323701Y-90705386D01*
X167516614Y-90898299D01*
X167639500Y-90980409D01*
X167639500Y-91720677D01*
X167635824Y-91758000D01*
X167639500Y-91795322D01*
X167639500Y-91795332D01*
X167650497Y-91906985D01*
X167676130Y-91991486D01*
X167693954Y-92050246D01*
X167764526Y-92182276D01*
X167804371Y-92230826D01*
X167859499Y-92298001D01*
X167888503Y-92321804D01*
X169257800Y-93691102D01*
X169257800Y-93813639D01*
X169297574Y-94013598D01*
X169338955Y-94113500D01*
X163431602Y-94113500D01*
X162569604Y-93251502D01*
X162545801Y-93222499D01*
X162430076Y-93127526D01*
X162318572Y-93067925D01*
X162318572Y-92912500D01*
X162306312Y-92788018D01*
X162270002Y-92668320D01*
X162211037Y-92558006D01*
X162131685Y-92461315D01*
X162034994Y-92381963D01*
X161924680Y-92322998D01*
X161804982Y-92286688D01*
X161680500Y-92274428D01*
X159980500Y-92274428D01*
X159856018Y-92286688D01*
X159736320Y-92322998D01*
X159626006Y-92381963D01*
X159529315Y-92461315D01*
X159484015Y-92516513D01*
X158299004Y-91331503D01*
X158275201Y-91302499D01*
X158159476Y-91207526D01*
X158027447Y-91136954D01*
X157884186Y-91093497D01*
X157772533Y-91082500D01*
X157772522Y-91082500D01*
X157735200Y-91078824D01*
X157697878Y-91082500D01*
X156686572Y-91082500D01*
X156686572Y-90642500D01*
X156674312Y-90518018D01*
X156638002Y-90398320D01*
X156579037Y-90288006D01*
X156499685Y-90191315D01*
X156402994Y-90111963D01*
X156292680Y-90052998D01*
X156172982Y-90016688D01*
X156048500Y-90004428D01*
X153648500Y-90004428D01*
X153524018Y-90016688D01*
X153404320Y-90052998D01*
X153294006Y-90111963D01*
X153197315Y-90191315D01*
X153117963Y-90288006D01*
X153058998Y-90398320D01*
X153022688Y-90518018D01*
X153010428Y-90642500D01*
X153010428Y-93042500D01*
X153022688Y-93166982D01*
X153058998Y-93286680D01*
X153117963Y-93396994D01*
X153197315Y-93493685D01*
X153294006Y-93573037D01*
X153404320Y-93632002D01*
X153524018Y-93668312D01*
X153648500Y-93680572D01*
X154065662Y-93680572D01*
X153979301Y-93716344D01*
X153678756Y-93917162D01*
X153423162Y-94172756D01*
X153222344Y-94473301D01*
X153084018Y-94807250D01*
X153013500Y-95161768D01*
X153013500Y-95523232D01*
X153084018Y-95877750D01*
X153222344Y-96211699D01*
X153423162Y-96512244D01*
X153678756Y-96767838D01*
X153979301Y-96968656D01*
X154278287Y-97092500D01*
X153979301Y-97216344D01*
X153678756Y-97417162D01*
X153423162Y-97672756D01*
X153222344Y-97973301D01*
X153084018Y-98307250D01*
X153013500Y-98661768D01*
X153013500Y-99023232D01*
X153084018Y-99377750D01*
X153222344Y-99711699D01*
X153423162Y-100012244D01*
X153678756Y-100267838D01*
X153979301Y-100468656D01*
X154278287Y-100592500D01*
X153979301Y-100716344D01*
X153678756Y-100917162D01*
X153423162Y-101172756D01*
X153222344Y-101473301D01*
X153084018Y-101807250D01*
X153013500Y-102161768D01*
X153013500Y-102523232D01*
X153084018Y-102877750D01*
X153222344Y-103211699D01*
X153423162Y-103512244D01*
X153678756Y-103767838D01*
X153979301Y-103968656D01*
X154285989Y-104095690D01*
X154092667Y-104160654D01*
X153870014Y-104279664D01*
X153750126Y-104564520D01*
X154848500Y-105662895D01*
X155946874Y-104564520D01*
X155826986Y-104279664D01*
X155826435Y-104279390D01*
X159389024Y-104279390D01*
X159433675Y-104426599D01*
X159558859Y-104689420D01*
X159732912Y-104922769D01*
X159949145Y-105117678D01*
X160199248Y-105266657D01*
X160473609Y-105363981D01*
X160703500Y-105243314D01*
X160703500Y-104049500D01*
X159510345Y-104049500D01*
X159389024Y-104279390D01*
X155826435Y-104279390D01*
X155503290Y-104118801D01*
X155413810Y-104094531D01*
X155717699Y-103968656D01*
X156018244Y-103767838D01*
X156273838Y-103512244D01*
X156474656Y-103211699D01*
X156519888Y-103102500D01*
X158657878Y-103102500D01*
X158695200Y-103106176D01*
X158732522Y-103102500D01*
X158732533Y-103102500D01*
X158844186Y-103091503D01*
X158987447Y-103048046D01*
X159119476Y-102977474D01*
X159235201Y-102882501D01*
X159259004Y-102853498D01*
X159730197Y-102382304D01*
X159883868Y-102535975D01*
X160066034Y-102657695D01*
X159949145Y-102727322D01*
X159732912Y-102922231D01*
X159558859Y-103155580D01*
X159433675Y-103418401D01*
X159389024Y-103565610D01*
X159510345Y-103795500D01*
X160703500Y-103795500D01*
X160703500Y-103775500D01*
X160957500Y-103775500D01*
X160957500Y-103795500D01*
X160977500Y-103795500D01*
X160977500Y-104049500D01*
X160957500Y-104049500D01*
X160957500Y-105243314D01*
X161187391Y-105363981D01*
X161461752Y-105266657D01*
X161484200Y-105253285D01*
X161484200Y-105674577D01*
X161480524Y-105711900D01*
X161484200Y-105749222D01*
X161484200Y-105749232D01*
X161495197Y-105860885D01*
X161523196Y-105953186D01*
X161538654Y-106004146D01*
X161609226Y-106136176D01*
X161649071Y-106184726D01*
X161704199Y-106251901D01*
X161733202Y-106275704D01*
X162118589Y-106661090D01*
X162118315Y-106661315D01*
X162038963Y-106758006D01*
X161979998Y-106868320D01*
X161943688Y-106988018D01*
X161931428Y-107112500D01*
X161931428Y-108612500D01*
X161938322Y-108682500D01*
X150141500Y-108682500D01*
X150141500Y-107120480D01*
X153750126Y-107120480D01*
X153870014Y-107405336D01*
X154193710Y-107566199D01*
X154542569Y-107660822D01*
X154903184Y-107685567D01*
X155261698Y-107639485D01*
X155604333Y-107524346D01*
X155826986Y-107405336D01*
X155946874Y-107120480D01*
X154848500Y-106022105D01*
X153750126Y-107120480D01*
X150141500Y-107120480D01*
X150141500Y-105897184D01*
X153005433Y-105897184D01*
X153051515Y-106255698D01*
X153166654Y-106598333D01*
X153285664Y-106820986D01*
X153570520Y-106940874D01*
X154668895Y-105842500D01*
X155028105Y-105842500D01*
X156126480Y-106940874D01*
X156411336Y-106820986D01*
X156572199Y-106497290D01*
X156666822Y-106148431D01*
X156691567Y-105787816D01*
X156645485Y-105429302D01*
X156530346Y-105086667D01*
X156411336Y-104864014D01*
X156126480Y-104744126D01*
X155028105Y-105842500D01*
X154668895Y-105842500D01*
X153570520Y-104744126D01*
X153285664Y-104864014D01*
X153124801Y-105187710D01*
X153030178Y-105536569D01*
X153005433Y-105897184D01*
X150141500Y-105897184D01*
X150141500Y-101374919D01*
X150144693Y-101342500D01*
X150131950Y-101213117D01*
X150094210Y-101088707D01*
X150032925Y-100974050D01*
X149950448Y-100873552D01*
X149849950Y-100791075D01*
X149735293Y-100729790D01*
X149610883Y-100692050D01*
X149513919Y-100682500D01*
X149481500Y-100679307D01*
X149449081Y-100682500D01*
X148841500Y-100682500D01*
X148841500Y-97002500D01*
X149449081Y-97002500D01*
X149481500Y-97005693D01*
X149513919Y-97002500D01*
X149610883Y-96992950D01*
X149735293Y-96955210D01*
X149849950Y-96893925D01*
X149950448Y-96811448D01*
X150032925Y-96710950D01*
X150094210Y-96596293D01*
X150131950Y-96471883D01*
X150144693Y-96342500D01*
X150141500Y-96310081D01*
X150141500Y-89002500D01*
X162201682Y-89002500D01*
X162092129Y-89166457D01*
G37*
X162092129Y-89166457D02*
X161987725Y-89418511D01*
X161934500Y-89686089D01*
X161934500Y-89958911D01*
X161987725Y-90226489D01*
X162092129Y-90478543D01*
X162243701Y-90705386D01*
X162436614Y-90898299D01*
X162663457Y-91049871D01*
X162915511Y-91154275D01*
X163183089Y-91207500D01*
X163455911Y-91207500D01*
X163723489Y-91154275D01*
X163975543Y-91049871D01*
X164202386Y-90898299D01*
X164395299Y-90705386D01*
X164546871Y-90478543D01*
X164589500Y-90375627D01*
X164632129Y-90478543D01*
X164783701Y-90705386D01*
X164976614Y-90898299D01*
X165203457Y-91049871D01*
X165455511Y-91154275D01*
X165723089Y-91207500D01*
X165995911Y-91207500D01*
X166263489Y-91154275D01*
X166515543Y-91049871D01*
X166742386Y-90898299D01*
X166935299Y-90705386D01*
X167086871Y-90478543D01*
X167129500Y-90375627D01*
X167172129Y-90478543D01*
X167323701Y-90705386D01*
X167516614Y-90898299D01*
X167639500Y-90980409D01*
X167639500Y-91720677D01*
X167635824Y-91758000D01*
X167639500Y-91795322D01*
X167639500Y-91795332D01*
X167650497Y-91906985D01*
X167676130Y-91991486D01*
X167693954Y-92050246D01*
X167764526Y-92182276D01*
X167804371Y-92230826D01*
X167859499Y-92298001D01*
X167888503Y-92321804D01*
X169257800Y-93691102D01*
X169257800Y-93813639D01*
X169297574Y-94013598D01*
X169338955Y-94113500D01*
X163431602Y-94113500D01*
X162569604Y-93251502D01*
X162545801Y-93222499D01*
X162430076Y-93127526D01*
X162318572Y-93067925D01*
X162318572Y-92912500D01*
X162306312Y-92788018D01*
X162270002Y-92668320D01*
X162211037Y-92558006D01*
X162131685Y-92461315D01*
X162034994Y-92381963D01*
X161924680Y-92322998D01*
X161804982Y-92286688D01*
X161680500Y-92274428D01*
X159980500Y-92274428D01*
X159856018Y-92286688D01*
X159736320Y-92322998D01*
X159626006Y-92381963D01*
X159529315Y-92461315D01*
X159484015Y-92516513D01*
X158299004Y-91331503D01*
X158275201Y-91302499D01*
X158159476Y-91207526D01*
X158027447Y-91136954D01*
X157884186Y-91093497D01*
X157772533Y-91082500D01*
X157772522Y-91082500D01*
X157735200Y-91078824D01*
X157697878Y-91082500D01*
X156686572Y-91082500D01*
X156686572Y-90642500D01*
X156674312Y-90518018D01*
X156638002Y-90398320D01*
X156579037Y-90288006D01*
X156499685Y-90191315D01*
X156402994Y-90111963D01*
X156292680Y-90052998D01*
X156172982Y-90016688D01*
X156048500Y-90004428D01*
X153648500Y-90004428D01*
X153524018Y-90016688D01*
X153404320Y-90052998D01*
X153294006Y-90111963D01*
X153197315Y-90191315D01*
X153117963Y-90288006D01*
X153058998Y-90398320D01*
X153022688Y-90518018D01*
X153010428Y-90642500D01*
X153010428Y-93042500D01*
X153022688Y-93166982D01*
X153058998Y-93286680D01*
X153117963Y-93396994D01*
X153197315Y-93493685D01*
X153294006Y-93573037D01*
X153404320Y-93632002D01*
X153524018Y-93668312D01*
X153648500Y-93680572D01*
X154065662Y-93680572D01*
X153979301Y-93716344D01*
X153678756Y-93917162D01*
X153423162Y-94172756D01*
X153222344Y-94473301D01*
X153084018Y-94807250D01*
X153013500Y-95161768D01*
X153013500Y-95523232D01*
X153084018Y-95877750D01*
X153222344Y-96211699D01*
X153423162Y-96512244D01*
X153678756Y-96767838D01*
X153979301Y-96968656D01*
X154278287Y-97092500D01*
X153979301Y-97216344D01*
X153678756Y-97417162D01*
X153423162Y-97672756D01*
X153222344Y-97973301D01*
X153084018Y-98307250D01*
X153013500Y-98661768D01*
X153013500Y-99023232D01*
X153084018Y-99377750D01*
X153222344Y-99711699D01*
X153423162Y-100012244D01*
X153678756Y-100267838D01*
X153979301Y-100468656D01*
X154278287Y-100592500D01*
X153979301Y-100716344D01*
X153678756Y-100917162D01*
X153423162Y-101172756D01*
X153222344Y-101473301D01*
X153084018Y-101807250D01*
X153013500Y-102161768D01*
X153013500Y-102523232D01*
X153084018Y-102877750D01*
X153222344Y-103211699D01*
X153423162Y-103512244D01*
X153678756Y-103767838D01*
X153979301Y-103968656D01*
X154285989Y-104095690D01*
X154092667Y-104160654D01*
X153870014Y-104279664D01*
X153750126Y-104564520D01*
X154848500Y-105662895D01*
X155946874Y-104564520D01*
X155826986Y-104279664D01*
X155826435Y-104279390D01*
X159389024Y-104279390D01*
X159433675Y-104426599D01*
X159558859Y-104689420D01*
X159732912Y-104922769D01*
X159949145Y-105117678D01*
X160199248Y-105266657D01*
X160473609Y-105363981D01*
X160703500Y-105243314D01*
X160703500Y-104049500D01*
X159510345Y-104049500D01*
X159389024Y-104279390D01*
X155826435Y-104279390D01*
X155503290Y-104118801D01*
X155413810Y-104094531D01*
X155717699Y-103968656D01*
X156018244Y-103767838D01*
X156273838Y-103512244D01*
X156474656Y-103211699D01*
X156519888Y-103102500D01*
X158657878Y-103102500D01*
X158695200Y-103106176D01*
X158732522Y-103102500D01*
X158732533Y-103102500D01*
X158844186Y-103091503D01*
X158987447Y-103048046D01*
X159119476Y-102977474D01*
X159235201Y-102882501D01*
X159259004Y-102853498D01*
X159730197Y-102382304D01*
X159883868Y-102535975D01*
X160066034Y-102657695D01*
X159949145Y-102727322D01*
X159732912Y-102922231D01*
X159558859Y-103155580D01*
X159433675Y-103418401D01*
X159389024Y-103565610D01*
X159510345Y-103795500D01*
X160703500Y-103795500D01*
X160703500Y-103775500D01*
X160957500Y-103775500D01*
X160957500Y-103795500D01*
X160977500Y-103795500D01*
X160977500Y-104049500D01*
X160957500Y-104049500D01*
X160957500Y-105243314D01*
X161187391Y-105363981D01*
X161461752Y-105266657D01*
X161484200Y-105253285D01*
X161484200Y-105674577D01*
X161480524Y-105711900D01*
X161484200Y-105749222D01*
X161484200Y-105749232D01*
X161495197Y-105860885D01*
X161523196Y-105953186D01*
X161538654Y-106004146D01*
X161609226Y-106136176D01*
X161649071Y-106184726D01*
X161704199Y-106251901D01*
X161733202Y-106275704D01*
X162118589Y-106661090D01*
X162118315Y-106661315D01*
X162038963Y-106758006D01*
X161979998Y-106868320D01*
X161943688Y-106988018D01*
X161931428Y-107112500D01*
X161931428Y-108612500D01*
X161938322Y-108682500D01*
X150141500Y-108682500D01*
X150141500Y-107120480D01*
X153750126Y-107120480D01*
X153870014Y-107405336D01*
X154193710Y-107566199D01*
X154542569Y-107660822D01*
X154903184Y-107685567D01*
X155261698Y-107639485D01*
X155604333Y-107524346D01*
X155826986Y-107405336D01*
X155946874Y-107120480D01*
X154848500Y-106022105D01*
X153750126Y-107120480D01*
X150141500Y-107120480D01*
X150141500Y-105897184D01*
X153005433Y-105897184D01*
X153051515Y-106255698D01*
X153166654Y-106598333D01*
X153285664Y-106820986D01*
X153570520Y-106940874D01*
X154668895Y-105842500D01*
X155028105Y-105842500D01*
X156126480Y-106940874D01*
X156411336Y-106820986D01*
X156572199Y-106497290D01*
X156666822Y-106148431D01*
X156691567Y-105787816D01*
X156645485Y-105429302D01*
X156530346Y-105086667D01*
X156411336Y-104864014D01*
X156126480Y-104744126D01*
X155028105Y-105842500D01*
X154668895Y-105842500D01*
X153570520Y-104744126D01*
X153285664Y-104864014D01*
X153124801Y-105187710D01*
X153030178Y-105536569D01*
X153005433Y-105897184D01*
X150141500Y-105897184D01*
X150141500Y-101374919D01*
X150144693Y-101342500D01*
X150131950Y-101213117D01*
X150094210Y-101088707D01*
X150032925Y-100974050D01*
X149950448Y-100873552D01*
X149849950Y-100791075D01*
X149735293Y-100729790D01*
X149610883Y-100692050D01*
X149513919Y-100682500D01*
X149481500Y-100679307D01*
X149449081Y-100682500D01*
X148841500Y-100682500D01*
X148841500Y-97002500D01*
X149449081Y-97002500D01*
X149481500Y-97005693D01*
X149513919Y-97002500D01*
X149610883Y-96992950D01*
X149735293Y-96955210D01*
X149849950Y-96893925D01*
X149950448Y-96811448D01*
X150032925Y-96710950D01*
X150094210Y-96596293D01*
X150131950Y-96471883D01*
X150144693Y-96342500D01*
X150141500Y-96310081D01*
X150141500Y-89002500D01*
X162201682Y-89002500D01*
X162092129Y-89166457D01*
G36*
X161931428Y-87612500D02*
G01*
X161938322Y-87682500D01*
X150141500Y-87682500D01*
X150141500Y-87527155D01*
X161931428Y-87520565D01*
X161931428Y-87612500D01*
G37*
X161931428Y-87612500D02*
X161938322Y-87682500D01*
X150141500Y-87682500D01*
X150141500Y-87527155D01*
X161931428Y-87520565D01*
X161931428Y-87612500D01*
G36*
X118292129Y-110166457D02*
G01*
X118187725Y-110418511D01*
X118134500Y-110686089D01*
X118134500Y-110958911D01*
X118187725Y-111226489D01*
X118292129Y-111478543D01*
X118443701Y-111705386D01*
X118636614Y-111898299D01*
X118863457Y-112049871D01*
X119115511Y-112154275D01*
X119383089Y-112207500D01*
X119655911Y-112207500D01*
X119923489Y-112154275D01*
X120175543Y-112049871D01*
X120402386Y-111898299D01*
X120595299Y-111705386D01*
X120746871Y-111478543D01*
X120789500Y-111375627D01*
X120832129Y-111478543D01*
X120983701Y-111705386D01*
X121176614Y-111898299D01*
X121403457Y-112049871D01*
X121655511Y-112154275D01*
X121923089Y-112207500D01*
X122195911Y-112207500D01*
X122463489Y-112154275D01*
X122715543Y-112049871D01*
X122942386Y-111898299D01*
X123135299Y-111705386D01*
X123286871Y-111478543D01*
X123329500Y-111375627D01*
X123372129Y-111478543D01*
X123523701Y-111705386D01*
X123716614Y-111898299D01*
X123839500Y-111980409D01*
X123839500Y-112720677D01*
X123835824Y-112758000D01*
X123839500Y-112795322D01*
X123839500Y-112795332D01*
X123850497Y-112906985D01*
X123876130Y-112991486D01*
X123893954Y-113050246D01*
X123964526Y-113182276D01*
X124004371Y-113230826D01*
X124059499Y-113298001D01*
X124088503Y-113321804D01*
X125457800Y-114691102D01*
X125457800Y-114813639D01*
X125497574Y-115013598D01*
X125538955Y-115113500D01*
X119631602Y-115113500D01*
X118769604Y-114251502D01*
X118745801Y-114222499D01*
X118630076Y-114127526D01*
X118518572Y-114067925D01*
X118518572Y-113912500D01*
X118506312Y-113788018D01*
X118470002Y-113668320D01*
X118411037Y-113558006D01*
X118331685Y-113461315D01*
X118234994Y-113381963D01*
X118124680Y-113322998D01*
X118004982Y-113286688D01*
X117880500Y-113274428D01*
X116180500Y-113274428D01*
X116056018Y-113286688D01*
X115936320Y-113322998D01*
X115826006Y-113381963D01*
X115729315Y-113461315D01*
X115684015Y-113516513D01*
X114499004Y-112331503D01*
X114475201Y-112302499D01*
X114359476Y-112207526D01*
X114227447Y-112136954D01*
X114084186Y-112093497D01*
X113972533Y-112082500D01*
X113972522Y-112082500D01*
X113935200Y-112078824D01*
X113897878Y-112082500D01*
X112886572Y-112082500D01*
X112886572Y-111642500D01*
X112874312Y-111518018D01*
X112838002Y-111398320D01*
X112779037Y-111288006D01*
X112699685Y-111191315D01*
X112602994Y-111111963D01*
X112492680Y-111052998D01*
X112372982Y-111016688D01*
X112248500Y-111004428D01*
X109848500Y-111004428D01*
X109724018Y-111016688D01*
X109604320Y-111052998D01*
X109494006Y-111111963D01*
X109397315Y-111191315D01*
X109317963Y-111288006D01*
X109258998Y-111398320D01*
X109222688Y-111518018D01*
X109210428Y-111642500D01*
X109210428Y-114042500D01*
X109222688Y-114166982D01*
X109258998Y-114286680D01*
X109317963Y-114396994D01*
X109397315Y-114493685D01*
X109494006Y-114573037D01*
X109604320Y-114632002D01*
X109724018Y-114668312D01*
X109848500Y-114680572D01*
X110265662Y-114680572D01*
X110179301Y-114716344D01*
X109878756Y-114917162D01*
X109623162Y-115172756D01*
X109422344Y-115473301D01*
X109284018Y-115807250D01*
X109213500Y-116161768D01*
X109213500Y-116523232D01*
X109284018Y-116877750D01*
X109422344Y-117211699D01*
X109623162Y-117512244D01*
X109878756Y-117767838D01*
X110179301Y-117968656D01*
X110478287Y-118092500D01*
X110179301Y-118216344D01*
X109878756Y-118417162D01*
X109623162Y-118672756D01*
X109422344Y-118973301D01*
X109284018Y-119307250D01*
X109213500Y-119661768D01*
X109213500Y-120023232D01*
X109284018Y-120377750D01*
X109422344Y-120711699D01*
X109623162Y-121012244D01*
X109878756Y-121267838D01*
X110179301Y-121468656D01*
X110478287Y-121592500D01*
X110179301Y-121716344D01*
X109878756Y-121917162D01*
X109623162Y-122172756D01*
X109422344Y-122473301D01*
X109284018Y-122807250D01*
X109213500Y-123161768D01*
X109213500Y-123523232D01*
X109284018Y-123877750D01*
X109422344Y-124211699D01*
X109623162Y-124512244D01*
X109878756Y-124767838D01*
X110179301Y-124968656D01*
X110485989Y-125095690D01*
X110292667Y-125160654D01*
X110070014Y-125279664D01*
X109950126Y-125564520D01*
X111048500Y-126662895D01*
X112146874Y-125564520D01*
X112026986Y-125279664D01*
X112026435Y-125279390D01*
X115589024Y-125279390D01*
X115633675Y-125426599D01*
X115758859Y-125689420D01*
X115932912Y-125922769D01*
X116149145Y-126117678D01*
X116399248Y-126266657D01*
X116673609Y-126363981D01*
X116903500Y-126243314D01*
X116903500Y-125049500D01*
X115710345Y-125049500D01*
X115589024Y-125279390D01*
X112026435Y-125279390D01*
X111703290Y-125118801D01*
X111613810Y-125094531D01*
X111917699Y-124968656D01*
X112218244Y-124767838D01*
X112473838Y-124512244D01*
X112674656Y-124211699D01*
X112719888Y-124102500D01*
X114857878Y-124102500D01*
X114895200Y-124106176D01*
X114932522Y-124102500D01*
X114932533Y-124102500D01*
X115044186Y-124091503D01*
X115187447Y-124048046D01*
X115319476Y-123977474D01*
X115435201Y-123882501D01*
X115459004Y-123853498D01*
X115930197Y-123382304D01*
X116083868Y-123535975D01*
X116266034Y-123657695D01*
X116149145Y-123727322D01*
X115932912Y-123922231D01*
X115758859Y-124155580D01*
X115633675Y-124418401D01*
X115589024Y-124565610D01*
X115710345Y-124795500D01*
X116903500Y-124795500D01*
X116903500Y-124775500D01*
X117157500Y-124775500D01*
X117157500Y-124795500D01*
X117177500Y-124795500D01*
X117177500Y-125049500D01*
X117157500Y-125049500D01*
X117157500Y-126243314D01*
X117387391Y-126363981D01*
X117661752Y-126266657D01*
X117684200Y-126253285D01*
X117684200Y-126674577D01*
X117680524Y-126711900D01*
X117684200Y-126749222D01*
X117684200Y-126749232D01*
X117695197Y-126860885D01*
X117723196Y-126953186D01*
X117738654Y-127004146D01*
X117809226Y-127136176D01*
X117849071Y-127184726D01*
X117904199Y-127251901D01*
X117933202Y-127275704D01*
X118318589Y-127661090D01*
X118318315Y-127661315D01*
X118238963Y-127758006D01*
X118179998Y-127868320D01*
X118143688Y-127988018D01*
X118131428Y-128112500D01*
X118131428Y-129612500D01*
X118138322Y-129682500D01*
X106341500Y-129682500D01*
X106341500Y-128120480D01*
X109950126Y-128120480D01*
X110070014Y-128405336D01*
X110393710Y-128566199D01*
X110742569Y-128660822D01*
X111103184Y-128685567D01*
X111461698Y-128639485D01*
X111804333Y-128524346D01*
X112026986Y-128405336D01*
X112146874Y-128120480D01*
X111048500Y-127022105D01*
X109950126Y-128120480D01*
X106341500Y-128120480D01*
X106341500Y-126897184D01*
X109205433Y-126897184D01*
X109251515Y-127255698D01*
X109366654Y-127598333D01*
X109485664Y-127820986D01*
X109770520Y-127940874D01*
X110868895Y-126842500D01*
X111228105Y-126842500D01*
X112326480Y-127940874D01*
X112611336Y-127820986D01*
X112772199Y-127497290D01*
X112866822Y-127148431D01*
X112891567Y-126787816D01*
X112845485Y-126429302D01*
X112730346Y-126086667D01*
X112611336Y-125864014D01*
X112326480Y-125744126D01*
X111228105Y-126842500D01*
X110868895Y-126842500D01*
X109770520Y-125744126D01*
X109485664Y-125864014D01*
X109324801Y-126187710D01*
X109230178Y-126536569D01*
X109205433Y-126897184D01*
X106341500Y-126897184D01*
X106341500Y-122374919D01*
X106344693Y-122342500D01*
X106331950Y-122213117D01*
X106294210Y-122088707D01*
X106232925Y-121974050D01*
X106150448Y-121873552D01*
X106049950Y-121791075D01*
X105935293Y-121729790D01*
X105810883Y-121692050D01*
X105713919Y-121682500D01*
X105681500Y-121679307D01*
X105649081Y-121682500D01*
X105041500Y-121682500D01*
X105041500Y-118002500D01*
X105649081Y-118002500D01*
X105681500Y-118005693D01*
X105713919Y-118002500D01*
X105810883Y-117992950D01*
X105935293Y-117955210D01*
X106049950Y-117893925D01*
X106150448Y-117811448D01*
X106232925Y-117710950D01*
X106294210Y-117596293D01*
X106331950Y-117471883D01*
X106344693Y-117342500D01*
X106341500Y-117310081D01*
X106341500Y-110002500D01*
X118401682Y-110002500D01*
X118292129Y-110166457D01*
G37*
X118292129Y-110166457D02*
X118187725Y-110418511D01*
X118134500Y-110686089D01*
X118134500Y-110958911D01*
X118187725Y-111226489D01*
X118292129Y-111478543D01*
X118443701Y-111705386D01*
X118636614Y-111898299D01*
X118863457Y-112049871D01*
X119115511Y-112154275D01*
X119383089Y-112207500D01*
X119655911Y-112207500D01*
X119923489Y-112154275D01*
X120175543Y-112049871D01*
X120402386Y-111898299D01*
X120595299Y-111705386D01*
X120746871Y-111478543D01*
X120789500Y-111375627D01*
X120832129Y-111478543D01*
X120983701Y-111705386D01*
X121176614Y-111898299D01*
X121403457Y-112049871D01*
X121655511Y-112154275D01*
X121923089Y-112207500D01*
X122195911Y-112207500D01*
X122463489Y-112154275D01*
X122715543Y-112049871D01*
X122942386Y-111898299D01*
X123135299Y-111705386D01*
X123286871Y-111478543D01*
X123329500Y-111375627D01*
X123372129Y-111478543D01*
X123523701Y-111705386D01*
X123716614Y-111898299D01*
X123839500Y-111980409D01*
X123839500Y-112720677D01*
X123835824Y-112758000D01*
X123839500Y-112795322D01*
X123839500Y-112795332D01*
X123850497Y-112906985D01*
X123876130Y-112991486D01*
X123893954Y-113050246D01*
X123964526Y-113182276D01*
X124004371Y-113230826D01*
X124059499Y-113298001D01*
X124088503Y-113321804D01*
X125457800Y-114691102D01*
X125457800Y-114813639D01*
X125497574Y-115013598D01*
X125538955Y-115113500D01*
X119631602Y-115113500D01*
X118769604Y-114251502D01*
X118745801Y-114222499D01*
X118630076Y-114127526D01*
X118518572Y-114067925D01*
X118518572Y-113912500D01*
X118506312Y-113788018D01*
X118470002Y-113668320D01*
X118411037Y-113558006D01*
X118331685Y-113461315D01*
X118234994Y-113381963D01*
X118124680Y-113322998D01*
X118004982Y-113286688D01*
X117880500Y-113274428D01*
X116180500Y-113274428D01*
X116056018Y-113286688D01*
X115936320Y-113322998D01*
X115826006Y-113381963D01*
X115729315Y-113461315D01*
X115684015Y-113516513D01*
X114499004Y-112331503D01*
X114475201Y-112302499D01*
X114359476Y-112207526D01*
X114227447Y-112136954D01*
X114084186Y-112093497D01*
X113972533Y-112082500D01*
X113972522Y-112082500D01*
X113935200Y-112078824D01*
X113897878Y-112082500D01*
X112886572Y-112082500D01*
X112886572Y-111642500D01*
X112874312Y-111518018D01*
X112838002Y-111398320D01*
X112779037Y-111288006D01*
X112699685Y-111191315D01*
X112602994Y-111111963D01*
X112492680Y-111052998D01*
X112372982Y-111016688D01*
X112248500Y-111004428D01*
X109848500Y-111004428D01*
X109724018Y-111016688D01*
X109604320Y-111052998D01*
X109494006Y-111111963D01*
X109397315Y-111191315D01*
X109317963Y-111288006D01*
X109258998Y-111398320D01*
X109222688Y-111518018D01*
X109210428Y-111642500D01*
X109210428Y-114042500D01*
X109222688Y-114166982D01*
X109258998Y-114286680D01*
X109317963Y-114396994D01*
X109397315Y-114493685D01*
X109494006Y-114573037D01*
X109604320Y-114632002D01*
X109724018Y-114668312D01*
X109848500Y-114680572D01*
X110265662Y-114680572D01*
X110179301Y-114716344D01*
X109878756Y-114917162D01*
X109623162Y-115172756D01*
X109422344Y-115473301D01*
X109284018Y-115807250D01*
X109213500Y-116161768D01*
X109213500Y-116523232D01*
X109284018Y-116877750D01*
X109422344Y-117211699D01*
X109623162Y-117512244D01*
X109878756Y-117767838D01*
X110179301Y-117968656D01*
X110478287Y-118092500D01*
X110179301Y-118216344D01*
X109878756Y-118417162D01*
X109623162Y-118672756D01*
X109422344Y-118973301D01*
X109284018Y-119307250D01*
X109213500Y-119661768D01*
X109213500Y-120023232D01*
X109284018Y-120377750D01*
X109422344Y-120711699D01*
X109623162Y-121012244D01*
X109878756Y-121267838D01*
X110179301Y-121468656D01*
X110478287Y-121592500D01*
X110179301Y-121716344D01*
X109878756Y-121917162D01*
X109623162Y-122172756D01*
X109422344Y-122473301D01*
X109284018Y-122807250D01*
X109213500Y-123161768D01*
X109213500Y-123523232D01*
X109284018Y-123877750D01*
X109422344Y-124211699D01*
X109623162Y-124512244D01*
X109878756Y-124767838D01*
X110179301Y-124968656D01*
X110485989Y-125095690D01*
X110292667Y-125160654D01*
X110070014Y-125279664D01*
X109950126Y-125564520D01*
X111048500Y-126662895D01*
X112146874Y-125564520D01*
X112026986Y-125279664D01*
X112026435Y-125279390D01*
X115589024Y-125279390D01*
X115633675Y-125426599D01*
X115758859Y-125689420D01*
X115932912Y-125922769D01*
X116149145Y-126117678D01*
X116399248Y-126266657D01*
X116673609Y-126363981D01*
X116903500Y-126243314D01*
X116903500Y-125049500D01*
X115710345Y-125049500D01*
X115589024Y-125279390D01*
X112026435Y-125279390D01*
X111703290Y-125118801D01*
X111613810Y-125094531D01*
X111917699Y-124968656D01*
X112218244Y-124767838D01*
X112473838Y-124512244D01*
X112674656Y-124211699D01*
X112719888Y-124102500D01*
X114857878Y-124102500D01*
X114895200Y-124106176D01*
X114932522Y-124102500D01*
X114932533Y-124102500D01*
X115044186Y-124091503D01*
X115187447Y-124048046D01*
X115319476Y-123977474D01*
X115435201Y-123882501D01*
X115459004Y-123853498D01*
X115930197Y-123382304D01*
X116083868Y-123535975D01*
X116266034Y-123657695D01*
X116149145Y-123727322D01*
X115932912Y-123922231D01*
X115758859Y-124155580D01*
X115633675Y-124418401D01*
X115589024Y-124565610D01*
X115710345Y-124795500D01*
X116903500Y-124795500D01*
X116903500Y-124775500D01*
X117157500Y-124775500D01*
X117157500Y-124795500D01*
X117177500Y-124795500D01*
X117177500Y-125049500D01*
X117157500Y-125049500D01*
X117157500Y-126243314D01*
X117387391Y-126363981D01*
X117661752Y-126266657D01*
X117684200Y-126253285D01*
X117684200Y-126674577D01*
X117680524Y-126711900D01*
X117684200Y-126749222D01*
X117684200Y-126749232D01*
X117695197Y-126860885D01*
X117723196Y-126953186D01*
X117738654Y-127004146D01*
X117809226Y-127136176D01*
X117849071Y-127184726D01*
X117904199Y-127251901D01*
X117933202Y-127275704D01*
X118318589Y-127661090D01*
X118318315Y-127661315D01*
X118238963Y-127758006D01*
X118179998Y-127868320D01*
X118143688Y-127988018D01*
X118131428Y-128112500D01*
X118131428Y-129612500D01*
X118138322Y-129682500D01*
X106341500Y-129682500D01*
X106341500Y-128120480D01*
X109950126Y-128120480D01*
X110070014Y-128405336D01*
X110393710Y-128566199D01*
X110742569Y-128660822D01*
X111103184Y-128685567D01*
X111461698Y-128639485D01*
X111804333Y-128524346D01*
X112026986Y-128405336D01*
X112146874Y-128120480D01*
X111048500Y-127022105D01*
X109950126Y-128120480D01*
X106341500Y-128120480D01*
X106341500Y-126897184D01*
X109205433Y-126897184D01*
X109251515Y-127255698D01*
X109366654Y-127598333D01*
X109485664Y-127820986D01*
X109770520Y-127940874D01*
X110868895Y-126842500D01*
X111228105Y-126842500D01*
X112326480Y-127940874D01*
X112611336Y-127820986D01*
X112772199Y-127497290D01*
X112866822Y-127148431D01*
X112891567Y-126787816D01*
X112845485Y-126429302D01*
X112730346Y-126086667D01*
X112611336Y-125864014D01*
X112326480Y-125744126D01*
X111228105Y-126842500D01*
X110868895Y-126842500D01*
X109770520Y-125744126D01*
X109485664Y-125864014D01*
X109324801Y-126187710D01*
X109230178Y-126536569D01*
X109205433Y-126897184D01*
X106341500Y-126897184D01*
X106341500Y-122374919D01*
X106344693Y-122342500D01*
X106331950Y-122213117D01*
X106294210Y-122088707D01*
X106232925Y-121974050D01*
X106150448Y-121873552D01*
X106049950Y-121791075D01*
X105935293Y-121729790D01*
X105810883Y-121692050D01*
X105713919Y-121682500D01*
X105681500Y-121679307D01*
X105649081Y-121682500D01*
X105041500Y-121682500D01*
X105041500Y-118002500D01*
X105649081Y-118002500D01*
X105681500Y-118005693D01*
X105713919Y-118002500D01*
X105810883Y-117992950D01*
X105935293Y-117955210D01*
X106049950Y-117893925D01*
X106150448Y-117811448D01*
X106232925Y-117710950D01*
X106294210Y-117596293D01*
X106331950Y-117471883D01*
X106344693Y-117342500D01*
X106341500Y-117310081D01*
X106341500Y-110002500D01*
X118401682Y-110002500D01*
X118292129Y-110166457D01*
G36*
X149796500Y-121762506D02*
G01*
X149735293Y-121729790D01*
X149610883Y-121692050D01*
X149513919Y-121682500D01*
X149481500Y-121679307D01*
X149449081Y-121682500D01*
X148841500Y-121682500D01*
X148841500Y-118002500D01*
X149449081Y-118002500D01*
X149481500Y-118005693D01*
X149513919Y-118002500D01*
X149610883Y-117992950D01*
X149735293Y-117955210D01*
X149796500Y-117922494D01*
X149796500Y-121762506D01*
G37*
X149796500Y-121762506D02*
X149735293Y-121729790D01*
X149610883Y-121692050D01*
X149513919Y-121682500D01*
X149481500Y-121679307D01*
X149449081Y-121682500D01*
X148841500Y-121682500D01*
X148841500Y-118002500D01*
X149449081Y-118002500D01*
X149481500Y-118005693D01*
X149513919Y-118002500D01*
X149610883Y-117992950D01*
X149735293Y-117955210D01*
X149796500Y-117922494D01*
X149796500Y-121762506D01*
G36*
X118131428Y-108612500D02*
G01*
X118138322Y-108682500D01*
X106341500Y-108682500D01*
X106341500Y-108527155D01*
X118131428Y-108520565D01*
X118131428Y-108612500D01*
G37*
X118131428Y-108612500D02*
X118138322Y-108682500D01*
X106341500Y-108682500D01*
X106341500Y-108527155D01*
X118131428Y-108520565D01*
X118131428Y-108612500D01*
G36*
X162092129Y-110166457D02*
G01*
X161987725Y-110418511D01*
X161934500Y-110686089D01*
X161934500Y-110958911D01*
X161987725Y-111226489D01*
X162092129Y-111478543D01*
X162243701Y-111705386D01*
X162436614Y-111898299D01*
X162663457Y-112049871D01*
X162915511Y-112154275D01*
X163183089Y-112207500D01*
X163455911Y-112207500D01*
X163723489Y-112154275D01*
X163975543Y-112049871D01*
X164202386Y-111898299D01*
X164395299Y-111705386D01*
X164546871Y-111478543D01*
X164589500Y-111375627D01*
X164632129Y-111478543D01*
X164783701Y-111705386D01*
X164976614Y-111898299D01*
X165203457Y-112049871D01*
X165455511Y-112154275D01*
X165723089Y-112207500D01*
X165995911Y-112207500D01*
X166263489Y-112154275D01*
X166515543Y-112049871D01*
X166742386Y-111898299D01*
X166935299Y-111705386D01*
X167086871Y-111478543D01*
X167129500Y-111375627D01*
X167172129Y-111478543D01*
X167323701Y-111705386D01*
X167516614Y-111898299D01*
X167639500Y-111980409D01*
X167639500Y-112720677D01*
X167635824Y-112758000D01*
X167639500Y-112795322D01*
X167639500Y-112795332D01*
X167650497Y-112906985D01*
X167676130Y-112991486D01*
X167693954Y-113050246D01*
X167764526Y-113182276D01*
X167804371Y-113230826D01*
X167859499Y-113298001D01*
X167888503Y-113321804D01*
X169257800Y-114691102D01*
X169257800Y-114813639D01*
X169297574Y-115013598D01*
X169338955Y-115113500D01*
X163431602Y-115113500D01*
X162569604Y-114251502D01*
X162545801Y-114222499D01*
X162430076Y-114127526D01*
X162318572Y-114067925D01*
X162318572Y-113912500D01*
X162306312Y-113788018D01*
X162270002Y-113668320D01*
X162211037Y-113558006D01*
X162131685Y-113461315D01*
X162034994Y-113381963D01*
X161924680Y-113322998D01*
X161804982Y-113286688D01*
X161680500Y-113274428D01*
X159980500Y-113274428D01*
X159856018Y-113286688D01*
X159736320Y-113322998D01*
X159626006Y-113381963D01*
X159529315Y-113461315D01*
X159484015Y-113516513D01*
X158299004Y-112331503D01*
X158275201Y-112302499D01*
X158159476Y-112207526D01*
X158027447Y-112136954D01*
X157884186Y-112093497D01*
X157772533Y-112082500D01*
X157772522Y-112082500D01*
X157735200Y-112078824D01*
X157697878Y-112082500D01*
X156686572Y-112082500D01*
X156686572Y-111642500D01*
X156674312Y-111518018D01*
X156638002Y-111398320D01*
X156579037Y-111288006D01*
X156499685Y-111191315D01*
X156402994Y-111111963D01*
X156292680Y-111052998D01*
X156172982Y-111016688D01*
X156048500Y-111004428D01*
X153648500Y-111004428D01*
X153524018Y-111016688D01*
X153404320Y-111052998D01*
X153294006Y-111111963D01*
X153197315Y-111191315D01*
X153117963Y-111288006D01*
X153058998Y-111398320D01*
X153022688Y-111518018D01*
X153010428Y-111642500D01*
X153010428Y-114042500D01*
X153022688Y-114166982D01*
X153058998Y-114286680D01*
X153117963Y-114396994D01*
X153197315Y-114493685D01*
X153294006Y-114573037D01*
X153404320Y-114632002D01*
X153524018Y-114668312D01*
X153648500Y-114680572D01*
X154065662Y-114680572D01*
X153979301Y-114716344D01*
X153678756Y-114917162D01*
X153423162Y-115172756D01*
X153222344Y-115473301D01*
X153084018Y-115807250D01*
X153013500Y-116161768D01*
X153013500Y-116523232D01*
X153084018Y-116877750D01*
X153222344Y-117211699D01*
X153423162Y-117512244D01*
X153678756Y-117767838D01*
X153979301Y-117968656D01*
X154278287Y-118092500D01*
X153979301Y-118216344D01*
X153678756Y-118417162D01*
X153423162Y-118672756D01*
X153222344Y-118973301D01*
X153084018Y-119307250D01*
X153013500Y-119661768D01*
X153013500Y-120023232D01*
X153084018Y-120377750D01*
X153222344Y-120711699D01*
X153423162Y-121012244D01*
X153678756Y-121267838D01*
X153979301Y-121468656D01*
X154278287Y-121592500D01*
X153979301Y-121716344D01*
X153678756Y-121917162D01*
X153423162Y-122172756D01*
X153222344Y-122473301D01*
X153084018Y-122807250D01*
X153013500Y-123161768D01*
X153013500Y-123523232D01*
X153084018Y-123877750D01*
X153222344Y-124211699D01*
X153423162Y-124512244D01*
X153678756Y-124767838D01*
X153979301Y-124968656D01*
X154285989Y-125095690D01*
X154092667Y-125160654D01*
X153870014Y-125279664D01*
X153750126Y-125564520D01*
X154848500Y-126662895D01*
X155946874Y-125564520D01*
X155826986Y-125279664D01*
X155826435Y-125279390D01*
X159389024Y-125279390D01*
X159433675Y-125426599D01*
X159558859Y-125689420D01*
X159732912Y-125922769D01*
X159949145Y-126117678D01*
X160199248Y-126266657D01*
X160473609Y-126363981D01*
X160703500Y-126243314D01*
X160703500Y-125049500D01*
X159510345Y-125049500D01*
X159389024Y-125279390D01*
X155826435Y-125279390D01*
X155503290Y-125118801D01*
X155413810Y-125094531D01*
X155717699Y-124968656D01*
X156018244Y-124767838D01*
X156273838Y-124512244D01*
X156474656Y-124211699D01*
X156519888Y-124102500D01*
X158657878Y-124102500D01*
X158695200Y-124106176D01*
X158732522Y-124102500D01*
X158732533Y-124102500D01*
X158844186Y-124091503D01*
X158987447Y-124048046D01*
X159119476Y-123977474D01*
X159235201Y-123882501D01*
X159259004Y-123853498D01*
X159730197Y-123382304D01*
X159883868Y-123535975D01*
X160066034Y-123657695D01*
X159949145Y-123727322D01*
X159732912Y-123922231D01*
X159558859Y-124155580D01*
X159433675Y-124418401D01*
X159389024Y-124565610D01*
X159510345Y-124795500D01*
X160703500Y-124795500D01*
X160703500Y-124775500D01*
X160957500Y-124775500D01*
X160957500Y-124795500D01*
X160977500Y-124795500D01*
X160977500Y-125049500D01*
X160957500Y-125049500D01*
X160957500Y-126243314D01*
X161187391Y-126363981D01*
X161461752Y-126266657D01*
X161484200Y-126253285D01*
X161484200Y-126674577D01*
X161480524Y-126711900D01*
X161484200Y-126749222D01*
X161484200Y-126749232D01*
X161495197Y-126860885D01*
X161523196Y-126953186D01*
X161538654Y-127004146D01*
X161609226Y-127136176D01*
X161649071Y-127184726D01*
X161704199Y-127251901D01*
X161733202Y-127275704D01*
X162118589Y-127661090D01*
X162118315Y-127661315D01*
X162038963Y-127758006D01*
X161979998Y-127868320D01*
X161943688Y-127988018D01*
X161931428Y-128112500D01*
X161931428Y-129612500D01*
X161938322Y-129682500D01*
X150141500Y-129682500D01*
X150141500Y-128120480D01*
X153750126Y-128120480D01*
X153870014Y-128405336D01*
X154193710Y-128566199D01*
X154542569Y-128660822D01*
X154903184Y-128685567D01*
X155261698Y-128639485D01*
X155604333Y-128524346D01*
X155826986Y-128405336D01*
X155946874Y-128120480D01*
X154848500Y-127022105D01*
X153750126Y-128120480D01*
X150141500Y-128120480D01*
X150141500Y-126897184D01*
X153005433Y-126897184D01*
X153051515Y-127255698D01*
X153166654Y-127598333D01*
X153285664Y-127820986D01*
X153570520Y-127940874D01*
X154668895Y-126842500D01*
X155028105Y-126842500D01*
X156126480Y-127940874D01*
X156411336Y-127820986D01*
X156572199Y-127497290D01*
X156666822Y-127148431D01*
X156691567Y-126787816D01*
X156645485Y-126429302D01*
X156530346Y-126086667D01*
X156411336Y-125864014D01*
X156126480Y-125744126D01*
X155028105Y-126842500D01*
X154668895Y-126842500D01*
X153570520Y-125744126D01*
X153285664Y-125864014D01*
X153124801Y-126187710D01*
X153030178Y-126536569D01*
X153005433Y-126897184D01*
X150141500Y-126897184D01*
X150141500Y-122374919D01*
X150144693Y-122342500D01*
X150131950Y-122213117D01*
X150094210Y-122088707D01*
X150032925Y-121974050D01*
X149950448Y-121873552D01*
X149849950Y-121791075D01*
X149735293Y-121729790D01*
X149610883Y-121692050D01*
X149513919Y-121682500D01*
X149481500Y-121679307D01*
X149449081Y-121682500D01*
X148841500Y-121682500D01*
X148841500Y-118002500D01*
X149449081Y-118002500D01*
X149481500Y-118005693D01*
X149513919Y-118002500D01*
X149610883Y-117992950D01*
X149735293Y-117955210D01*
X149849950Y-117893925D01*
X149950448Y-117811448D01*
X150032925Y-117710950D01*
X150094210Y-117596293D01*
X150131950Y-117471883D01*
X150144693Y-117342500D01*
X150141500Y-117310081D01*
X150141500Y-110002500D01*
X162201682Y-110002500D01*
X162092129Y-110166457D01*
G37*
X162092129Y-110166457D02*
X161987725Y-110418511D01*
X161934500Y-110686089D01*
X161934500Y-110958911D01*
X161987725Y-111226489D01*
X162092129Y-111478543D01*
X162243701Y-111705386D01*
X162436614Y-111898299D01*
X162663457Y-112049871D01*
X162915511Y-112154275D01*
X163183089Y-112207500D01*
X163455911Y-112207500D01*
X163723489Y-112154275D01*
X163975543Y-112049871D01*
X164202386Y-111898299D01*
X164395299Y-111705386D01*
X164546871Y-111478543D01*
X164589500Y-111375627D01*
X164632129Y-111478543D01*
X164783701Y-111705386D01*
X164976614Y-111898299D01*
X165203457Y-112049871D01*
X165455511Y-112154275D01*
X165723089Y-112207500D01*
X165995911Y-112207500D01*
X166263489Y-112154275D01*
X166515543Y-112049871D01*
X166742386Y-111898299D01*
X166935299Y-111705386D01*
X167086871Y-111478543D01*
X167129500Y-111375627D01*
X167172129Y-111478543D01*
X167323701Y-111705386D01*
X167516614Y-111898299D01*
X167639500Y-111980409D01*
X167639500Y-112720677D01*
X167635824Y-112758000D01*
X167639500Y-112795322D01*
X167639500Y-112795332D01*
X167650497Y-112906985D01*
X167676130Y-112991486D01*
X167693954Y-113050246D01*
X167764526Y-113182276D01*
X167804371Y-113230826D01*
X167859499Y-113298001D01*
X167888503Y-113321804D01*
X169257800Y-114691102D01*
X169257800Y-114813639D01*
X169297574Y-115013598D01*
X169338955Y-115113500D01*
X163431602Y-115113500D01*
X162569604Y-114251502D01*
X162545801Y-114222499D01*
X162430076Y-114127526D01*
X162318572Y-114067925D01*
X162318572Y-113912500D01*
X162306312Y-113788018D01*
X162270002Y-113668320D01*
X162211037Y-113558006D01*
X162131685Y-113461315D01*
X162034994Y-113381963D01*
X161924680Y-113322998D01*
X161804982Y-113286688D01*
X161680500Y-113274428D01*
X159980500Y-113274428D01*
X159856018Y-113286688D01*
X159736320Y-113322998D01*
X159626006Y-113381963D01*
X159529315Y-113461315D01*
X159484015Y-113516513D01*
X158299004Y-112331503D01*
X158275201Y-112302499D01*
X158159476Y-112207526D01*
X158027447Y-112136954D01*
X157884186Y-112093497D01*
X157772533Y-112082500D01*
X157772522Y-112082500D01*
X157735200Y-112078824D01*
X157697878Y-112082500D01*
X156686572Y-112082500D01*
X156686572Y-111642500D01*
X156674312Y-111518018D01*
X156638002Y-111398320D01*
X156579037Y-111288006D01*
X156499685Y-111191315D01*
X156402994Y-111111963D01*
X156292680Y-111052998D01*
X156172982Y-111016688D01*
X156048500Y-111004428D01*
X153648500Y-111004428D01*
X153524018Y-111016688D01*
X153404320Y-111052998D01*
X153294006Y-111111963D01*
X153197315Y-111191315D01*
X153117963Y-111288006D01*
X153058998Y-111398320D01*
X153022688Y-111518018D01*
X153010428Y-111642500D01*
X153010428Y-114042500D01*
X153022688Y-114166982D01*
X153058998Y-114286680D01*
X153117963Y-114396994D01*
X153197315Y-114493685D01*
X153294006Y-114573037D01*
X153404320Y-114632002D01*
X153524018Y-114668312D01*
X153648500Y-114680572D01*
X154065662Y-114680572D01*
X153979301Y-114716344D01*
X153678756Y-114917162D01*
X153423162Y-115172756D01*
X153222344Y-115473301D01*
X153084018Y-115807250D01*
X153013500Y-116161768D01*
X153013500Y-116523232D01*
X153084018Y-116877750D01*
X153222344Y-117211699D01*
X153423162Y-117512244D01*
X153678756Y-117767838D01*
X153979301Y-117968656D01*
X154278287Y-118092500D01*
X153979301Y-118216344D01*
X153678756Y-118417162D01*
X153423162Y-118672756D01*
X153222344Y-118973301D01*
X153084018Y-119307250D01*
X153013500Y-119661768D01*
X153013500Y-120023232D01*
X153084018Y-120377750D01*
X153222344Y-120711699D01*
X153423162Y-121012244D01*
X153678756Y-121267838D01*
X153979301Y-121468656D01*
X154278287Y-121592500D01*
X153979301Y-121716344D01*
X153678756Y-121917162D01*
X153423162Y-122172756D01*
X153222344Y-122473301D01*
X153084018Y-122807250D01*
X153013500Y-123161768D01*
X153013500Y-123523232D01*
X153084018Y-123877750D01*
X153222344Y-124211699D01*
X153423162Y-124512244D01*
X153678756Y-124767838D01*
X153979301Y-124968656D01*
X154285989Y-125095690D01*
X154092667Y-125160654D01*
X153870014Y-125279664D01*
X153750126Y-125564520D01*
X154848500Y-126662895D01*
X155946874Y-125564520D01*
X155826986Y-125279664D01*
X155826435Y-125279390D01*
X159389024Y-125279390D01*
X159433675Y-125426599D01*
X159558859Y-125689420D01*
X159732912Y-125922769D01*
X159949145Y-126117678D01*
X160199248Y-126266657D01*
X160473609Y-126363981D01*
X160703500Y-126243314D01*
X160703500Y-125049500D01*
X159510345Y-125049500D01*
X159389024Y-125279390D01*
X155826435Y-125279390D01*
X155503290Y-125118801D01*
X155413810Y-125094531D01*
X155717699Y-124968656D01*
X156018244Y-124767838D01*
X156273838Y-124512244D01*
X156474656Y-124211699D01*
X156519888Y-124102500D01*
X158657878Y-124102500D01*
X158695200Y-124106176D01*
X158732522Y-124102500D01*
X158732533Y-124102500D01*
X158844186Y-124091503D01*
X158987447Y-124048046D01*
X159119476Y-123977474D01*
X159235201Y-123882501D01*
X159259004Y-123853498D01*
X159730197Y-123382304D01*
X159883868Y-123535975D01*
X160066034Y-123657695D01*
X159949145Y-123727322D01*
X159732912Y-123922231D01*
X159558859Y-124155580D01*
X159433675Y-124418401D01*
X159389024Y-124565610D01*
X159510345Y-124795500D01*
X160703500Y-124795500D01*
X160703500Y-124775500D01*
X160957500Y-124775500D01*
X160957500Y-124795500D01*
X160977500Y-124795500D01*
X160977500Y-125049500D01*
X160957500Y-125049500D01*
X160957500Y-126243314D01*
X161187391Y-126363981D01*
X161461752Y-126266657D01*
X161484200Y-126253285D01*
X161484200Y-126674577D01*
X161480524Y-126711900D01*
X161484200Y-126749222D01*
X161484200Y-126749232D01*
X161495197Y-126860885D01*
X161523196Y-126953186D01*
X161538654Y-127004146D01*
X161609226Y-127136176D01*
X161649071Y-127184726D01*
X161704199Y-127251901D01*
X161733202Y-127275704D01*
X162118589Y-127661090D01*
X162118315Y-127661315D01*
X162038963Y-127758006D01*
X161979998Y-127868320D01*
X161943688Y-127988018D01*
X161931428Y-128112500D01*
X161931428Y-129612500D01*
X161938322Y-129682500D01*
X150141500Y-129682500D01*
X150141500Y-128120480D01*
X153750126Y-128120480D01*
X153870014Y-128405336D01*
X154193710Y-128566199D01*
X154542569Y-128660822D01*
X154903184Y-128685567D01*
X155261698Y-128639485D01*
X155604333Y-128524346D01*
X155826986Y-128405336D01*
X155946874Y-128120480D01*
X154848500Y-127022105D01*
X153750126Y-128120480D01*
X150141500Y-128120480D01*
X150141500Y-126897184D01*
X153005433Y-126897184D01*
X153051515Y-127255698D01*
X153166654Y-127598333D01*
X153285664Y-127820986D01*
X153570520Y-127940874D01*
X154668895Y-126842500D01*
X155028105Y-126842500D01*
X156126480Y-127940874D01*
X156411336Y-127820986D01*
X156572199Y-127497290D01*
X156666822Y-127148431D01*
X156691567Y-126787816D01*
X156645485Y-126429302D01*
X156530346Y-126086667D01*
X156411336Y-125864014D01*
X156126480Y-125744126D01*
X155028105Y-126842500D01*
X154668895Y-126842500D01*
X153570520Y-125744126D01*
X153285664Y-125864014D01*
X153124801Y-126187710D01*
X153030178Y-126536569D01*
X153005433Y-126897184D01*
X150141500Y-126897184D01*
X150141500Y-122374919D01*
X150144693Y-122342500D01*
X150131950Y-122213117D01*
X150094210Y-122088707D01*
X150032925Y-121974050D01*
X149950448Y-121873552D01*
X149849950Y-121791075D01*
X149735293Y-121729790D01*
X149610883Y-121692050D01*
X149513919Y-121682500D01*
X149481500Y-121679307D01*
X149449081Y-121682500D01*
X148841500Y-121682500D01*
X148841500Y-118002500D01*
X149449081Y-118002500D01*
X149481500Y-118005693D01*
X149513919Y-118002500D01*
X149610883Y-117992950D01*
X149735293Y-117955210D01*
X149849950Y-117893925D01*
X149950448Y-117811448D01*
X150032925Y-117710950D01*
X150094210Y-117596293D01*
X150131950Y-117471883D01*
X150144693Y-117342500D01*
X150141500Y-117310081D01*
X150141500Y-110002500D01*
X162201682Y-110002500D01*
X162092129Y-110166457D01*
G36*
X161931428Y-108612500D02*
G01*
X161938322Y-108682500D01*
X150141500Y-108682500D01*
X150141500Y-108527155D01*
X161931428Y-108520565D01*
X161931428Y-108612500D01*
G37*
X161931428Y-108612500D02*
X161938322Y-108682500D01*
X150141500Y-108682500D01*
X150141500Y-108527155D01*
X161931428Y-108520565D01*
X161931428Y-108612500D01*
M02*
